/* XPM */
static char *MA__[] = {
/* columns rows colors chars-per-pixel */
"32 64 25 1 ",
"  c black",
". c #020101",
"X c #181211",
"o c #1B1413",
"O c #1E1715",
"+ c #271E1B",
"@ c #291F1D",
"# c #2A201E",
"$ c #2E2421",
"% c #332724",
"& c #342825",
"* c #372B27",
"= c #41322E",
"- c #473732",
"; c #4A3935",
": c #513E39",
"> c #69514A",
", c #6F564F",
"< c #70564F",
"1 c #70574F",
"2 c #715850",
"3 c #765B53",
"4 c #765B54",
"5 c #775C54",
"6 c #7B5F57",
/* pixels */
"                                ",
"                                ",
"                                ",
"                                ",
"                                ",
"                                ",
"                                ",
"                                ",
"                                ",
"                                ",
"                                ",
"                                ",
"                                ",
"                                ",
"     244444444444444444444>     ",
"     4666666666666666666665     ",
"     ,666666666666666666661     ",
"     <666666666666666666661     ",
"     <666666666666666666661     ",
"     <666666666666666666661     ",
"     <6666663,,,,,,26666661     ",
"     <666666-oooXXX=6666661     ",
"     <666666+      $6666661     ",
"     <666666#      &6666661     ",
"     <666666@      &6666662     ",
"     <666666@      &666666<     ",
"     <666666@      &6666661     ",
"     <666666@      &6666661     ",
"     <666666+      *6666661     ",
"     <666666@      &6666661     ",
"     <666663@      &6666661     ",
"     <666666@      *6666661     ",
"     <666666@      &6666661     ",
"     <666666@      &6666661     ",
"     <666666@      &6666661     ",
"     <666666@      &6666661     ",
"     <666666@      *6666661     ",
"     <666663@      &6666661     ",
"     <666666@      *6666661     ",
"     ,666666#      *6666661     ",
"     <666666#      &6666661     ",
"     <666666#      %6666661     ",
"     <666666;oXXoXo:6666661     ",
"     <6666666,,,11266666661     ",
"     <666666666666666666661     ",
"     <666666666666666666661     ",
"     <66666666666666666666<     ",
"     <666666666666666666661     ",
"     5666666666666666666664     ",
"     <44444444444444444444>     ",
"                                ",
"                                ",
"                                ",
"                                ",
"                                ",
"                                ",
"                                ",
"                                ",
"                                ",
"                                ",
"                                ",
"                                ",
"                                ",
"                                "
};
