/* XPM */
static char *MQ__[] = {
/* columns rows colors chars-per-pixel */
"32 64 14 1 ",
"  c black",
". c #473732",
"X c #54413B",
"o c #55423C",
"O c #5A453F",
"+ c #5D4842",
"@ c #5F4943",
"# c #604B44",
"$ c #6C534C",
"% c #725851",
"& c #745A52",
"* c #765B54",
"= c #775C54",
"- c #7B5F57",
/* pixels */
"                                ",
"                                ",
"                                ",
"                                ",
"                                ",
"                                ",
"                                ",
"                                ",
"                                ",
"                                ",
"                                ",
"                                ",
"                                ",
"                                ",
"             o#+OO+X            ",
"             &-----&            ",
"             =-----&            ",
"             *-----%            ",
"             *-----%            ",
"             *-----%            ",
"             *-----%            ",
"             *-----%            ",
"             *-----%            ",
"             *-----%            ",
"             *-----%            ",
"             *-----%            ",
"             *-----%            ",
"             *-----%            ",
"             *-----%            ",
"             *-----%            ",
"             *-----%            ",
"             *-----%            ",
"             *-----%            ",
"             *-----%            ",
"             *-----%            ",
"             *-----%            ",
"             *-----%            ",
"             *-----%            ",
"             *-----%            ",
"             *-----%            ",
"             *-----%            ",
"             *-----%            ",
"             *-----%            ",
"             *-----%            ",
"             *-----%            ",
"             *-----%            ",
"             *-----%            ",
"             ------&            ",
"             =-----$            ",
"             o+OO++.            ",
"                                ",
"                                ",
"                                ",
"                                ",
"                                ",
"                                ",
"                                ",
"                                ",
"                                ",
"                                ",
"                                ",
"                                ",
"                                ",
"                                "
};
