/* XPM */
static char *Mg__[] = {
/* columns rows colors chars-per-pixel */
"32 64 33 1 ",
"  c black",
". c #030302",
"X c #040303",
"o c #090706",
"O c #0E0B0A",
"+ c #291F1D",
"@ c #29201D",
"# c #2E2320",
"$ c #2F2421",
"% c #312622",
"& c #342825",
"* c #362926",
"= c #3A2D29",
"- c #3F302C",
"; c #40322D",
": c #43342F",
"> c #4A3935",
", c #503D38",
"< c #52403A",
"1 c #54413B",
"2 c #54413C",
"3 c #56433D",
"4 c #57433D",
"5 c #5D4842",
"6 c #5F4943",
"7 c #614B45",
"8 c #6A524B",
"9 c #6D544D",
"0 c #70574F",
"q c #725851",
"w c #765B53",
"e c #765B54",
"r c #7B5F57",
/* pixels */
"                                ",
"                                ",
"                                ",
"                                ",
"                                ",
"                                ",
"                                ",
"                                ",
"                                ",
"                                ",
"                                ",
"                                ",
"                                ",
"                                ",
"      75555555555555555574      ",
"      rrrrrrrrrrrrrrrrrrrr      ",
"      rrrrrrrrrrrrrrrrrrrr      ",
"      rrrrrrrrrrrrrrrrrrrr      ",
"      rrrrrrrrrrrrrrrrrrrr      ",
"      rrrrrrrrrrrrrrrrrrrr      ",
"      rrrrrrrrrrrrrrrrrrrr      ",
"      44242222<42248rrrrrr      ",
"                  X;rrrrrr      ",
"                   -rrrrrr      ",
"                  X;rrrrrr      ",
"                  X:rrrrrr      ",
"                  X:rrrrrr      ",
"                   :rrrrrr      ",
"            o+%$%$$$&&&&**      ",
"            @9qwqw9$            ",
"            %wrrrre$            ",
"            %qrrrrw#            ",
"            %qrrrrq#            ",
"            %errrre#            ",
"      XXXX X$9qqqq9%            ",
"      ;;----#@@@@@@O            ",
"      rrrrrr=                   ",
"      rrrrrr;                   ",
"      rrrrrr=                   ",
"      rrrrrr=X                  ",
"      rrrrrr=                   ",
"      rrrrrr,o                  ",
"      rrrrrre54,4<4,224244      ",
"      rrrrrrrrrrrrrrrrrrrr      ",
"      rrrrrrrrrrrrrrrrrrrr      ",
"      rrrrrrrrrrrrrrrrrrrr      ",
"      rrrrrrrrrrrrrrrrrrrr      ",
"      rrrrrrrrrrrrrrrrrrrr      ",
"      rrrrrrrrrrrrrrrrrrr0      ",
"      7755555555555555557>      ",
"                                ",
"                                ",
"                                ",
"                                ",
"                                ",
"                                ",
"                                ",
"                                ",
"                                ",
"                                ",
"                                ",
"                                ",
"                                ",
"                                "
};
