/* XPM */
static char *Mw__[] = {
/* columns rows colors chars-per-pixel */
"32 64 42 1 ",
"  c black",
". c #030302",
"X c #040303",
"o c #050403",
"O c #050404",
"+ c #120E0D",
"@ c #191311",
"# c #1D1614",
"$ c #211917",
"% c #231B19",
"& c #251C1A",
"* c #261D1B",
"= c #29201D",
"- c #2C221F",
"; c #2E2320",
": c #2E2421",
"> c #302522",
", c #362926",
"< c #392C28",
"1 c #3D2F2B",
"2 c #3F302C",
"3 c #41322E",
"4 c #443430",
"5 c #473732",
"6 c #483833",
"7 c #503E39",
"8 c #513F39",
"9 c #53403B",
"0 c #56423D",
"q c #59453F",
"w c #5D4842",
"e c #604A44",
"r c #644D47",
"t c #654E48",
"y c #6F564E",
"u c #6F564F",
"i c #70574F",
"p c #715750",
"a c #715850",
"s c #755A53",
"d c #775C54",
"f c #7B5F57",
/* pixels */
"                                ",
"                                ",
"                                ",
"                                ",
"                                ",
"                                ",
"                                ",
"                                ",
"                                ",
"                                ",
"                                ",
"                                ",
"                                ",
"                                ",
"      qewwwwwwwwwwwwwwwww8      ",
"      fffffffffffffffffffa      ",
"      ffffffffffffffffffff      ",
"      ffffffffffffffffffff      ",
"      ffffffffffffffffffff      ",
"      ffffffffffffffffffff      ",
"      ffffffffffffffffffff      ",
"      9988888888888rffffff      ",
"                   ,ffffff      ",
"                   ,ffffff      ",
"                   <ffffff      ",
"                   ,ffffff      ",
"                  X<ffffff      ",
"                   <ffffff      ",
"             #-:>>=#::;;;:      ",
"            @tsssst@            ",
"            %affffi#            ",
"            &affffi$            ",
"            &iffffa&            ",
"            &pffffd=            ",
"            &ifsfdi, O OX       ",
"            +<3122<223224<      ",
"                   4fffffd      ",
"                  O6fffffy      ",
"                  O5fffffy      ",
"                  O4fffffy      ",
"                  o5fffffy      ",
"               o   3fffffy      ",
"      6635535353535rfffffy      ",
"      fffffffffffffffffffy      ",
"      fffffffffffffffffffy      ",
"      fffffffffffffffffffi      ",
"      fffffffffffffffffffi      ",
"      fffffffffffffffffffa      ",
"      fffffffffffffffffffs      ",
"      ewwwwwwwwwwwwwwwwwe0      ",
"                                ",
"                                ",
"                                ",
"                                ",
"                                ",
"                                ",
"                                ",
"                                ",
"                                ",
"                                ",
"                                ",
"                                ",
"                                ",
"                                "
};
