/* XPM */
static char *NA__[] = {
/* columns rows colors chars-per-pixel */
"32 64 26 1 ",
"  c black",
". c #040303",
"X c #050403",
"o c #050404",
"O c #271E1C",
"+ c #2E2320",
"@ c #322723",
"# c #332724",
"$ c #392C28",
"% c #3C2F2B",
"& c #3E302C",
"* c #40322D",
"= c #42332F",
"- c #443530",
"; c #473732",
": c #56423D",
"> c #58443E",
", c #5D4842",
"< c #5F4943",
"1 c #604A44",
"2 c #634C46",
"3 c #745952",
"4 c #755A53",
"5 c #775C54",
"6 c #785C55",
"7 c #7B5F57",
/* pixels */
"                                ",
"                                ",
"                                ",
"                                ",
"                                ",
"                                ",
"                                ",
"                                ",
"                                ",
"                                ",
"                                ",
"                                ",
"                                ",
"                                ",
"      >::::>O     X#1<,,1:      ",
"      757777%     o-777777      ",
"      777777%.    o-777777      ",
"      777777$.    X-777777      ",
"      777777%.    .=777777      ",
"      777777%     .=777777      ",
"      777777&      =777777      ",
"      777777&.    o=777777      ",
"      777777%.    .-777777      ",
"      777777%     .-777777      ",
"      777777$.    .-777777      ",
"      777777%o     -777777      ",
"      777777$     .-777777      ",
"      777777$      -777777      ",
"      7777771@+@#+@<777777      ",
"      77777774444447777777      ",
"      77777777777777777777      ",
"      77777777777777777777      ",
"      77777777777777777777      ",
"      77777777777777777777      ",
"      75665655777557777777      ",
"      &&=%%%%%%%%$%1777777      ",
"                   &777777      ",
"                  .-777777      ",
"                  .-777777      ",
"                   =777777      ",
"                  .-777777      ",
"                   -777777      ",
"                  .-777777      ",
"                  .-777777      ",
"                  .-777777      ",
"                  .&777777      ",
"                  .-777777      ",
"                  .-777777      ",
"                  o-777777      ",
"                   #2,,,2,      ",
"                                ",
"                                ",
"                                ",
"                                ",
"                                ",
"                                ",
"                                ",
"                                ",
"                                ",
"                                ",
"                                ",
"                                ",
"                                ",
"                                "
};
