/* XPM */
static char *NQ__[] = {
/* columns rows colors chars-per-pixel */
"32 64 33 1 ",
"  c black",
". c #040303",
"X c #050403",
"o c #271E1B",
"O c #312622",
"+ c #322723",
"@ c #332724",
"# c #372B27",
"$ c #382B28",
"% c #392C29",
"& c #3B2D2A",
"* c #3E302C",
"= c #40322D",
"- c #42332F",
"; c #443430",
": c #4F3D38",
"> c #503D38",
", c #53403B",
"< c #54413B",
"1 c #54413C",
"2 c #57433D",
"3 c #5D4842",
"4 c #604B44",
"5 c #614B45",
"6 c #644D47",
"7 c #6F564E",
"8 c #715750",
"9 c #725851",
"0 c #745952",
"q c #765B53",
"w c #765B54",
"e c #775C54",
"r c #7B5F57",
/* pixels */
"                                ",
"                                ",
"                                ",
"                                ",
"                                ",
"                                ",
"                                ",
"                                ",
"                                ",
"                                ",
"                                ",
"                                ",
"                                ",
"                                ",
"      2433333333333333335>      ",
"      rrrrrrrrrrrrrrrrrrr0      ",
"      rrrrrrrrrrrrrrrrrrrr      ",
"      0rrrrrrrrrrrrrrrrrrr      ",
"      0rrrrrrrrrrrrrrrrrrr      ",
"      0rrrrrrrrrrrrrrrrrrr      ",
"      errrrrrrrrrrrrrrrrrr      ",
"      qrrrrr82:<,,2222,,22      ",
"      qrrrrr;                   ",
"      qrrrrr*.                  ",
"      qrrrrr;X                  ",
"      qrrrrr;X                  ",
"      qrrrrr=X                  ",
"      qrrrrr*                   ",
"      qrrrrr6#OOO@@@O+@@#o      ",
"      qrrrrrrqe0w0w0e00w00      ",
"      qrrrrrrrrrrrrrrrrrrr      ",
"      qrrrrrrrrrrrrrrrrrrr      ",
"      0rrrrrrrrrrrrrrrrrrr      ",
"      rrrrrrrrrrrrrrrrrrrr      ",
"      0reeeeeerweeerrrrrrr      ",
"      %&&#%#%##%%#%3rrrrrr      ",
"                   *rrrrrr      ",
"                  X=rrrrrr      ",
"                  X;rrrrrr      ",
"                  X*rrrrrr      ",
"                  X*rrrrrr      ",
"                   ;rrrrrr      ",
"      22,,222,2,2:,7rrrrrr      ",
"      rrrrrrrrrrrrrrrrrrrr      ",
"      rrrrrrrrrrrrrrrrrrrr      ",
"      rrrrrrrrrrrrrrrrrrrr      ",
"      rrrrrrrrrrrrrrrrrrrr      ",
"      rrrrrrrrrrrrrrrrrrrr      ",
"      rrrrrrrrrrrrrrrrrrr0      ",
"      ,433333333333333335>      ",
"                                ",
"                                ",
"                                ",
"                                ",
"                                ",
"                                ",
"                                ",
"                                ",
"                                ",
"                                ",
"                                ",
"                                ",
"                                ",
"                                "
};
