/* XPM */
static char *Ng__[] = {
/* columns rows colors chars-per-pixel */
"32 64 29 1 ",
"  c black",
". c #050404",
"X c #241C19",
"o c #251D1A",
"O c #2D2320",
"+ c #322623",
"@ c #362926",
"# c #372A27",
"$ c #3A2D29",
"% c #3D2F2B",
"& c #3F302C",
"* c #41322E",
"= c #463631",
"- c #4F3D38",
"; c #54413C",
": c #57433D",
"> c #58443E",
", c #5C4741",
"< c #5D4842",
"1 c #604B44",
"2 c #664F48",
"3 c #715750",
"4 c #715850",
"5 c #725851",
"6 c #755A53",
"7 c #755B53",
"8 c #765B54",
"9 c #775C54",
"0 c #7B5F57",
/* pixels */
"                                ",
"                                ",
"                                ",
"                                ",
"                                ",
"                                ",
"                                ",
"                                ",
"                                ",
"                                ",
"                                ",
"                                ",
"                                ",
"                                ",
"      1<<<<<<<<<<<<<<<<<<>      ",
"      00000000000000000000      ",
"      00000000000000000006      ",
"      00000000000000000005      ",
"      00000000000000000005      ",
"      00000000000000000005      ",
"      00000009909090090905      ",
"      000000,&&*%&%&&&&&*$      ",
"      000000#                   ",
"      000000$                   ",
"      000000%                   ",
"      000000%                   ",
"      000000$                   ",
"      000000&                   ",
"      0000002&$%%%%#+O##$#      ",
"      00000000888086666666      ",
"      00000000000000000000      ",
"      00000000000000000000      ",
"      00000000000000000000      ",
"      00000000000000000000      ",
"      00000005555556000000      ",
"      000000<OoooXo:000000      ",
"      000000$      *000000      ",
"      000000&.    .=000000      ",
"      000000$     .=000000      ",
"      000000%     .=000000      ",
"      000000$     .=000000      ",
"      000000=.    .-000000      ",
"      0000003,::::,3000000      ",
"      00000000000000000000      ",
"      00000000000000000000      ",
"      00000000000000000000      ",
"      00000000000000000000      ",
"      00000000000000000000      ",
"      00000000000000000000      ",
"      <1<<<<<<<<<<<<<<<<1>      ",
"                                ",
"                                ",
"                                ",
"                                ",
"                                ",
"                                ",
"                                ",
"                                ",
"                                ",
"                                ",
"                                ",
"                                ",
"                                ",
"                                "
};
