/* XPM */
static char *Nw__[] = {
/* columns rows colors chars-per-pixel */
"32 64 18 1 ",
"  c black",
". c #040303",
"X c #050404",
"o c #362A26",
"O c #453631",
"+ c #463632",
"@ c #4A3934",
"# c #4D3C37",
"$ c #53403B",
"% c #57433D",
"& c #5A4640",
"* c #5D4842",
"= c #604A44",
"- c #634D46",
"; c #715850",
": c #735951",
"> c #7A5E56",
", c #7B5F57",
/* pixels */
"                                ",
"                                ",
"                                ",
"                                ",
"                                ",
"                                ",
"                                ",
"                                ",
"                                ",
"                                ",
"                                ",
"                                ",
"                                ",
"                                ",
"      &=****************-#      ",
"      ,,,,,,,,,,,,,,,,,,,;      ",
"      ,,,,,,,,,,,,,,,,,,,,      ",
"      ,,,,,,,,,,,,,,,,,,,,      ",
"      ,,,,,,,,,,,,,,,,,,,,      ",
"      ,,,,,,,,,,,,,,,,,,,,      ",
"      ,,,,,,,,,,,,,,,,,,,,      ",
"      %%$%$$$$$%%#&;,,,,,,      ",
"                  .@,,,,,,      ",
"                  .O,,,,,,      ",
"                  XO,,,,,,      ",
"                  XO,,,,,,      ",
"                  XO,,,,,,      ",
"                  X+,,,,,,      ",
"                  XO,,,,,,      ",
"                  X+,,,,,,      ",
"                  X+,,,,,,      ",
"                  XO,,,,,,      ",
"                  X+,,,,,,      ",
"                  XO,,,,,,      ",
"                  XO,,,,,,      ",
"                  XO,,,,,,      ",
"                  XO,,,,,,      ",
"                  XO,,,,,,      ",
"                  XO,,,,,,      ",
"                  XO,,,,,,      ",
"                  XO,,,,,,      ",
"                  XO,,,,,,      ",
"                  XO,,,,,,      ",
"                  XO,,,,,,      ",
"                  XO,,,,,,      ",
"                  XO,,,,,,      ",
"                  XO,,,,,,      ",
"                  XO,,,,,,      ",
"                  X@,,,,,,      ",
"                  Xo-***-*      ",
"                                ",
"                                ",
"                                ",
"                                ",
"                                ",
"                                ",
"                                ",
"                                ",
"                                ",
"                                ",
"                                ",
"                                ",
"                                ",
"                                "
};
