/* XPM */
static char *OA__[] = {
/* columns rows colors chars-per-pixel */
"32 64 33 1 ",
"  c black",
". c #040303",
"X c #050403",
"o c #050404",
"O c #070605",
"+ c #322623",
"@ c #332724",
"# c #352925",
"$ c #392C28",
"% c #3C2F2B",
"& c #42332F",
"* c #453531",
"= c #483833",
"- c #493834",
"; c #503E39",
": c #53403B",
"> c #54413B",
", c #56433D",
"< c #57433E",
"1 c #5A4640",
"2 c #5C4741",
"3 c #5D4842",
"4 c #614B45",
"5 c #624C45",
"6 c #634C46",
"7 c #685049",
"8 c #6B524B",
"9 c #715750",
"0 c #755A53",
"q c #755B53",
"w c #765B54",
"e c #775C54",
"r c #7B5F57",
/* pixels */
"                                ",
"                                ",
"                                ",
"                                ",
"                                ",
"                                ",
"                                ",
"                                ",
"                                ",
"                                ",
"                                ",
"                                ",
"                                ",
"                                ",
"      4333333333333333335;      ",
"      rrrrrrrrrrrrrrrrrrre      ",
"      rrrrrrrrrrrrrrrrrrrr      ",
"      rrrrrrrrrrrrrrrrrrrr      ",
"      rrrrrrrrrrrrrrrrrrrr      ",
"      rrrrrrrrrrrrrrrrrrrr      ",
"      rrrrrrrrrrrrrrrrrrrr      ",
"      rrrrrr91<<::<8rrrrrr      ",
"      rrrrrr*.     *rrrrrr      ",
"      rrrrrr$     o*rrrrrr      ",
"      rrrrrr$.    o*rrrrrr      ",
"      rrrrrr%o    o=rrrrrr      ",
"      rrrrrr$     o=rrrrrr      ",
"      rrrrrr%      =rrrrrr      ",
"      rrrrrr5$#++@$8rrrrrr      ",
"      rrrrrrrw0000errrrrrr      ",
"      rrrrrrrrrrrrrrrrrrrr      ",
"      rrrrrrrrrrrrrrrrrrrr      ",
"      rrrrrrrrrrrrrrrrrrrr      ",
"      rrrrrrrrrrrrrrrrrrrr      ",
"      rrrrrrree000errrrrrr      ",
"      rrrrrr5$#####3rrrrrr      ",
"      rrrrrr%      &rrrrrr      ",
"      rrrrrr%X    o*rrrrrr      ",
"      rrrrrr$     o*rrrrrr      ",
"      rrrrrr%X    o-rrrrrr      ",
"      rrrrrr$     X*rrrrrr      ",
"      rrrrrr=o    X;rrrrrr      ",
"      rrrrrr0<<,<<10rrrrrr      ",
"      rrrrrrrrrrrrrrrrrrrr      ",
"      rrrrrrrrrrrrrrrrrrrr      ",
"      rrrrrrrrrrrrrrrrrrrr      ",
"      rrrrrrrrrrrrrrrrrrrr      ",
"      rrrrrrrrrrrrrrrrrrrr      ",
"      rrrrrrrrrrrrrrrrrrrw      ",
"      2432333333333333335;      ",
"                                ",
"                                ",
"                                ",
"                                ",
"                                ",
"                                ",
"                                ",
"                                ",
"                                ",
"                                ",
"                                ",
"                                ",
"                                ",
"                                "
};
