/* XPM */
static char *OQ__[] = {
/* columns rows colors chars-per-pixel */
"32 64 32 1 ",
"  c black",
". c #040303",
"X c #050404",
"o c #201917",
"O c #291F1D",
"+ c #2B211E",
"@ c #2D2320",
"# c #2F2421",
"$ c #312623",
"% c #332724",
"& c #372B27",
"* c #3B2D2A",
"= c #3D2F2B",
"- c #42332F",
"; c #43332F",
": c #453631",
"> c #493934",
", c #4C3A36",
"< c #53403B",
"1 c #54413C",
"2 c #5A453F",
"3 c #5B4640",
"4 c #5D4842",
"5 c #604A44",
"6 c #634D46",
"7 c #6B524B",
"8 c #6D544D",
"9 c #725851",
"0 c #755B53",
"q c #765B53",
"w c #775C54",
"e c #7B5F57",
/* pixels */
"                                ",
"                                ",
"                                ",
"                                ",
"                                ",
"                                ",
"                                ",
"                                ",
"                                ",
"                                ",
"                                ",
"                                ",
"                                ",
"                                ",
"      35444444444444444445      ",
"      eeeeeeeeeeeeeeeeeeee      ",
"      weeeeeeeeeeeeeeeeeee      ",
"      qeeeeeeeeeeeeeeeeeee      ",
"      qeeeeeeeeeeeeeeeeeee      ",
"      qeeeeeeeeeeeeeeeeeee      ",
"      qeeeeeeeeeeeeeeeeeee      ",
"      qeeeee8,:>;;=2eeeeee      ",
"      qeeeee:      oeeeeee      ",
"      qeeeee-.     oeeeeee      ",
"      qeeeee-.     +eeeeee      ",
"      qeeeee-X     $eeeeee      ",
"      qeeeee=      &eeeeee      ",
"      qeeeee&      &eeeeee      ",
"      qeeeee2O+@%&*5eeeeee      ",
"      qeeeeee9999qeeeeeeee      ",
"      qeeeeeeeeeeeeeeeeeee      ",
"      qeeeeeeeeeeeeeeeeeee      ",
"      qeeeeeeeeeeeeeeeeeee      ",
"      eeeeeeeeeeeeeeeeeeee      ",
"      9wq9q9q9q99qqweeeeee      ",
"      +$#$######$+$3eeeeee      ",
"                   -eeeeee      ",
"                  .:eeeeee      ",
"                  X:eeeeee      ",
"                  X:eeeeee      ",
"                  X:eeeeee      ",
"                   :eeeeee      ",
"      12111111111<17eeeeee      ",
"      eeeeeeeeeeeeeeeeeeee      ",
"      eeeeeeeeeeeeeeeeeeee      ",
"      eeeeeeeeeeeeeeeeeeee      ",
"      eeeeeeeeeeeeeeeeeeee      ",
"      eeeeeeeeeeeeeeeeeeee      ",
"      eeeeeeeeeeeeeeeeeeee      ",
"      <5444444444444444454      ",
"                                ",
"                                ",
"                                ",
"                                ",
"                                ",
"                                ",
"                                ",
"                                ",
"                                ",
"                                ",
"                                ",
"                                ",
"                                ",
"                                "
};
