/* XPM */
static char *YXRrXzE_[] = {
/* columns rows colors chars-per-pixel */
"64 64 225 2 ",
"   c #070408",
".  c #0F0A10",
"X  c #140B12",
"o  c #100C12",
"O  c #190E15",
"+  c #141115",
"@  c #1B1116",
"#  c #161319",
"$  c #1D141A",
"%  c #1D191D",
"&  c #21151B",
"*  c #2C161A",
"=  c #231A1E",
"-  c #281B1F",
";  c #341513",
":  c #30351F",
">  c #12032D",
",  c #1E1E22",
"<  c #231D21",
"1  c #2A1E22",
"2  c #351F24",
"3  c #360F37",
"4  c #1F2022",
"5  c #242225",
"6  c #2C2225",
"7  c #262529",
"8  c #2A2629",
"9  c #272929",
"0  c #2C2C2D",
"q  c #312326",
"w  c #352825",
"e  c #332628",
"r  c #332B2C",
"t  c #3A2C2D",
"y  c #3F372F",
"u  c #2E2E31",
"i  c #3D2032",
"p  c #312F31",
"a  c #3B2F30",
"s  c #2E3334",
"d  c #333434",
"f  c #3E3232",
"g  c #373738",
"h  c #353A3A",
"j  c #3B3D3D",
"k  c #4F221E",
"l  c #501E30",
"z  c #422E2E",
"x  c #4C2D2A",
"c  c #5A322E",
"v  c #592436",
"b  c #5B2539",
"n  c #433535",
"m  c #493434",
"M  c #443837",
"N  c #4B3937",
"B  c #4D3639",
"V  c #453A39",
"C  c #4B3D3B",
"Z  c #573436",
"A  c #513E3B",
"S  c #6B3129",
"D  c #67233B",
"F  c #3D403F",
"G  c #40403F",
"H  c #4E403E",
"J  c #53413E",
"K  c #59453F",
"L  c #4F5634",
"P  c #636834",
"I  c #3F3F40",
"U  c #521D4E",
"Y  c #461C50",
"T  c #473D41",
"R  c #732E47",
"E  c #3F4040",
"W  c #3E4141",
"Q  c #424343",
"!  c #434444",
"~  c #444444",
"^  c #454646",
"/  c #464646",
"(  c gray28",
")  c #4A4645",
"_  c #474847",
"`  c #484848",
"'  c #544441",
"]  c #5A4643",
"[  c #594747",
"{  c #5D4A46",
"}  c #5F4C48",
"|  c #614A46",
" . c #634E49",
".. c #6A4F4C",
"X. c #734A4A",
"o. c #66514C",
"O. c #6B534D",
"+. c #6D584F",
"@. c #71554F",
"#. c #73465A",
"$. c #6E5650",
"%. c #6D5952",
"&. c #715651",
"*. c #755B54",
"=. c #7A5D56",
"-. c #775558",
";. c #7C5E59",
":. c #687242",
">. c #796157",
",. c #7D6159",
"<. c #7B6C61",
"1. c #9F0F35",
"2. c #BF1C3E",
"3. c #AC3B30",
"4. c #DB3722",
"5. c #CA3934",
"6. c #AF4937",
"7. c #B64734",
"8. c #C74E38",
"9. c #DB4D37",
"0. c #D9533B",
"q. c #E44937",
"w. c #F74E34",
"e. c #E3563B",
"r. c #EA573B",
"t. c #E4593D",
"y. c #F15336",
"u. c #8E3145",
"i. c #AD2F45",
"p. c #AD3953",
"a. c #B73957",
"s. c #82564A",
"d. c #AE4851",
"f. c #82655C",
"g. c #84695E",
"h. c #886E5F",
"j. c #857F54",
"k. c #8A516D",
"l. c #B64F67",
"z. c #886562",
"x. c #866C61",
"c. c #8B6D62",
"v. c #9A686D",
"b. c #877364",
"n. c #8D7264",
"m. c #917366",
"M. c #937668",
"N. c #95796B",
"B. c #9A7C6E",
"V. c #9E7E70",
"C. c #B76F7F",
"Z. c #A47478",
"A. c #D44A4F",
"S. c #DB4E4E",
"D. c #D65945",
"F. c #C65A5E",
"G. c #F15D41",
"H. c #E75150",
"J. c #E65151",
"K. c #DB6650",
"L. c #EB6749",
"P. c #FA6042",
"I. c #F27456",
"U. c #C25B62",
"Y. c #C9716F",
"T. c #8A8856",
"R. c #8CBF43",
"E. c #98B351",
"W. c #9D806F",
"Q. c #9D8271",
"!. c #988576",
"~. c #AC806F",
"^. c #A28473",
"/. c #A68877",
"(. c #A78A78",
"). c #AC8D7A",
"_. c #AF907C",
"`. c #B1927E",
"'. c #BD967E",
"]. c #D59077",
"[. c #EA9679",
"{. c #B6838C",
"}. c #AA9A88",
"|. c #B59581",
" X c #BA9A84",
".X c #B89889",
"XX c #A9A18F",
"oX c #BFA68E",
"OX c #CF918A",
"+X c #C3998A",
"@X c #C5A48C",
"#X c #C8A892",
"$X c #D4AC94",
"%X c #D9A895",
"&X c #D8B79D",
"*X c #FDBA8E",
"=X c #EBAD92",
"-X c #E6B79C",
";X c #D5ADA4",
":X c #CABAA9",
">X c #D3BAA3",
",X c #D7BAA4",
"<X c #E8BCA1",
"1X c #EFC29A",
"2X c #D5C2AE",
"3X c #DDC3AB",
"4X c #D6C6B1",
"5X c #D5C9B5",
"6X c #DCCAB4",
"7X c #DED4BB",
"8X c #E8C7A6",
"9X c #E1C5AB",
"0X c #F4C8A6",
"qX c #FDCDA5",
"wX c #FFD2A6",
"eX c #F4D3A9",
"rX c #FDD5AA",
"tX c #FFDBAC",
"yX c #E1CDB6",
"uX c #E7D3B7",
"iX c #F9DBB1",
"pX c #FFE2AE",
"aX c #FEE7B5",
"sX c #F6DFC3",
"dX c #FDF1C7",
/* pixels */
"` ` ` ( ( ( ( ( ( ( ( ( ! ( ( ( ( Q j h h h j ! ( ( E h h h h h h E _ _ ! ( Q j h h h h h h s h s s W W ^ _ _ _ _ E I s s s W s ",
"` ` ` ( ( ( ( ( ( ( ( ( ( ( ( Q ( ( Q h h h j ! ( ! Q E h h s h I ! ! ! ! E E E h h h h h h h h W W W W ^ ^ ! _ _ E W s s s W W ",
"` ` ( ( ( ( ( ( ( ( ! ( ( ( ( ( ) ! _ j j E E ! _ Q Q E h h h h h E E E W W j W h W h h W h h h W W W W ^ E E E E W I s s W W W ",
"( ( ( ( ( ( ( ( ( ( ( ( ! ( Q Q Q _ Q Q E E ! ! Q Q Q E E j h h h E E E h j h j j W W j h W h W W W W W _ ! E ! ^ ^ W h h W W W ",
"( ( ( ( ( ( ( ( ( ( ( ( ( ( Q Q Q Q Q Q ~ ~ ~ G Q j Q Q F j j h h E E j h h W j E j E W j E E E W W ^ _ ^ ^ W _ ` W ` W W W W _ ",
"( ( ( ( ( ( ! ( Q Q Q ( Q Q Q Q Q Q Q Q G G G G E V j Q Q I j j j j j j W j j j j j I j E j Q j W W ^ _ ^ ^ _ ! ` ` ` ` W W _ _ ",
"( ( ( ( ( ( ! ( Q ( Q Q Q Q Q Q Q j Q F G G F G E E I Q j E j h j j j E j j j W E E Q E E E Q F W ^ ^ _ ^ ^ _ _ ` ` ` ` ` ` ` ` ",
"( ( ( ( ( ! ( ! Q Q Q Q Q Q Q E Q F j F Q M j F E j j j V E j j j j j W j j j j j j Q E Q Q E Q W W W _ ^ _ ^ ^ ` ` ` ` ` W ` ` ",
"( ( ( ( ( ! ! ! Q Q Q E E E j j j j g j F j j F V j j j j j V j j j j j g j j j V F Q j Q E Q Q ! T ! ~ ~ ( _ ~ W ` ` ` ` ` ` ` ",
"( ( ! ! ! ! ! ! Q E E j j j j h g h g F j j M j j f j j j j j j j j j j j j j j j E V Q E E Q Q ! ! ~ ~ ~ ~ ! _ ` ` ` ` W ` ` _ ",
"( ( ! ( ! Q ! Q E j j h h h d h h h g g g j j j j j j j j g g j j g j g j g j j I j j E V E E E T I ! ! ~ ~ ~ ( ` ` ` ` _ _ _ W ",
"( ( ( ( ! E E E j j h h h d s s d h h j g j g g j j g j g j g j g g j j j g g h j h j j j Q j E E Q T ~ ~ ~ ! ! W ` W ` _ _ ` ` ",
"( ( ! Q ! E j E j h h s s s u u s s g g g g g g g j g g h g g j g g h j g g g g g j h g j j V E j j Q E W ( ! ! _ ^ ^ ^ _ ` _ _ ",
"( ( ( ! E F h h h d s 7 7 7 4 5 7 , , 7 r g g g 0 r 0 w 0 r r 8 7 6 6 8 8 6 6 0 ) ' f 5 7 u d p 0 7 7 8 0 d I ( ! ` W ^ _ W ^ ^ ",
"( ( ! Q ! I h I d s 7 < = = % % % 6 r < X % d u = 6 f n a t e r t f f a t r e A h.^.+.e < O X & 6 r p t 6 @ < j ^ ^ ^ _ ^ ^ ^ _ ",
"( _ ! ( E I E h s 4 5 w w 8 w 8 6 o.h.| + . 0 7 O r ' C C C V J O.%.+.+.O.' ' *.^.@X`.h.+.1   @ C ,.,.x.*.1   7 ! _ ^ ` ^ ` ^ ^ ",
"( Q Q ! ! Q j j 7 1 a V C ' ] V { m. X`.+.J M < 1 n C V V ' {  .f.f.f.g.f.+. .O.;.M.`.#X@Xh.1 X { B.).|.@Xn.t $ 8 j ( ( Q ( ! ( ",
"( ( ( ! ( Q I r 6 t C C } *. .J *.c.B.|.|._.o.$ p C H ' { O.=.=.f.c.c.c.n.z.$.[ *.;.m._.oX X}   n x.m.B.`.).h.C $ d Q ( ( ( ( ( ",
"( ( ( Q ! ! u = t C C A $.,. .T O.*.&.c.@X&X*.+ r C H  .O.=.,.f.f.&.O.O.&.O.A r ] *.f.=.c.).h.$ 6 ] &.;.>.%.N.m.& 8 _ ( Q Q ( Q ",
"j Q Q Q ( _ 8 $ n ) V A *.,.*. .{ O.&.f.`.@X+.X r C C K [ *.f.g.;.B 2 q e e 1 % q ] *.=.=.g.m.o.= t $.@.C f g./.& 8 ( ( ( ( ( ! ",
"h j j Q ( ( 8 @ n C M ) *.f.f.;. .]  .=.M.B.J @ C O.{ J V O.c.;.B 6 = $ = e z z z t K ;.=.*.^.V.@ % ] ] y V n./.& 8 Q ( ( _ ( Q ",
"h h E Q ! ( 8 $ n C M ' =.f.=.+.{ V ' *.=.=.t $ o.f.=.O.] | O.A 2 6 n C B | *.*.O.m z K  .&.^.|.J - t M H  .B.Q.@ 7 Q ( Q Q ( ! ",
"h h j Q ( ( 8 O V ' M J +.&.] V H C J O.f.c.m X ..z.f.f.=.{ t = 6 M [ #.#.f.g.z.f.#.i 1 n o.m..X^.z % M o.f.|.`.& 5 ( Q Q Q ( Q ",
"E E Q j ( ( 8 & n C V C J ] V n { O.] { N.`.| @ { f.=.,.f.{ $ X f C  .f.g.;.=.&.;.c.A & V ' >.@X#XH X M =.N.+XQ.1 8 ( ) Q ( ( Q ",
"E ! Q Q ! E h 6 6 n C V V ' }  .*.;...*./.b.N N +.,.=.*.o.' < @ f T :.E.E.T.*.-.,.E.P : [ ' o.@X@XN O M ,.).^.J r d Q ! ! Q ( Q ",
"! E E Q Q E E d O t ' C V [ *.f.f.;.f.). XH w >.,.=.;.+.J C 6 $ n T :.R.R.T.z.z.n.E.P : T  .>.@X Xn O V n.@X,.X u Q Q ! ! ( Q ( ",
"j E E E E Q Q j % 6 M M C ' $.,.,.c.N.^.n.z z f.,.=.;.+.C V 6 $ z f j L L K ..@...K : O a  .c..X XV $ C &.M.] + d ! Q ! Q ( ! ( ",
"h h j E V Q j j r 6 1 8 n V C C ' x.g.N t N o.,.=.=.;.O.C V q & n i & X O 1 1 1 2 & . X * ] f.B.`.N $ t z n f 0 E E T E Q ! Q Q ",
"h h h j E j j j g 0 7 5 6 6 1 & < N C = = V &.,.;.=.;.+.J V 6 @ n [ 2 O t B * X e & - e & M *.n.`.J X - 7 5 u g E Q Q Q Q ( ( ( ",
"h h h j j j j j h g s 0 5 @ & = < 1 6 a M V { f.f.,.,.=.o.J - O C  .M z &.f.A M O.] | ] - m =.n._.A . % 9 s d j j j E Q ! Q ( Q ",
"h h h h h j j j h j g d 0 @ = n n r f { *.{ J o.O.*.*.O.K K m t m B N A  .=.,.*.f.f.@.A w ] *.x.).J X 9 s d g j j Q E ! Q ( Q Q ",
"E E j j W j j h g g d g d % 6 ' ' V [ *.;.*.{ C C O.A m f.).(.^.W.^.B.Q..X>X2X!.' N m t K -.[ o./.K # 9 s d g h j j j E V j Q j ",
"! ! E V E j E V j g g g g = 1 H C V } =.f.;.&.] { | m ,.@X3X3X,X>X,X&X>X3XsXdX4XB.<.' ' ;.O.a ' /.J # 0 s h h g h j j j h h I h ",
"! ! ! Q Q E E j j j j g d < 1 C C n { =.=.;.;.*.&.N ,.@X3XyX6X6X6X6X6X6X6XyXyX6X4XsX#X,.%.[ C %.).' + u d h j j j j j I h h s h ",
"! ( Q Q Q E j j j j j j g % 1 C V M ] =.=.=.;.*.| f.oX6X6X4X4X4X2X4X4X4X4X4X4X:X,XsXyXx.T [ O.f.).A + s h j I I Q Q Q E E s h h ",
"( ! Q Q ( Q Q Q Q V j g g = 1 C C M { =.=.*.=.A  .}.7X7X5X3X3X9X9X9X9X9X9X9X9X,X@X#X}.>.B o.=.M. X' # d I d u d g g d u s h E I ",
"Q Q ( Q Q j T j j d d h d < 6 C H M ] >.,.=.+.t O.`.3X7X5X3XeXeXeXeX0X0X0XiXiX0X).+.H C K @.g.`. XJ % d g 8 < < % % % $ , u E ! ",
"( ( ) j u 6 7 5 % # # 5 g 0 6 t V H H O.=.*.m S d.Y.].].<XiXaXpXtXwXqXqXqXtXaX-X*.C V } O.&.M.`.,.r 0 d 8 1 6 1 1 C o.o.' 0 u ! ",
"( ( ! u < - = = n V f w 5 9 0 8 a C C H O.A @.7.e.0.0.I.*XrX8X-X1XqXwXqXrXtXtX'.A V C *.h.n.`.`.w , d 8 6 a M a C g.(. X/.o.r u ",
"` ! p 1 t f r ' n././.g.t 5 g 8 < w V C ] j.].I.w.4.4.L.*X,XZ.k.Z.-XrXrXtX0X$X#.| ' n  .^. X@Xb.& , 0 1 a V V ' $.f.B. X@X|.o.O ",
"( p 1 t V C ' %.N.`.@X Xh.t 9 u # O r C C Q.=XI.w.4.4.L.1X].Y > U +XtXpXiX<Xk.l #.[ f V >._.N.z 7 d 8 = f C ' &.>.=.;.M.|.#X=.. ",
"! 1 1 M C ' $.;.;.m.).#X`.N 5 p $ O 6 1 6 f s.D.w.q.4.L.*X XY > U +XtXpXiX-Xk.3  .[ f p 6 J H 7 g F 8 & n } &.;.=.*.&.*.N.|.=.X ",
"! 5 < n H  .;.=.&.&.g.).`.N $ 8 6 t a = & 1 z S 7.D.K.[.1X%Xv.#.v.%XwXwXiX0X+XR t  .n r w = = s j j 8 & f } *.;.=.=.&.O.f.^.&.X ",
"! 1 - n C O.f.*.*.@.*.m.(.N . = f N V f t q 1 ; X.~.@X8XrXwX1X&X8XrXwXwXrXaXiX Xt C A B >.z + g j j 8 & f J o.,.,.;.*.+.f._.=.. ",
"Q 6 - n H O.,.;.*.+.@.c./.C   = V H V J o.] t V >.}.2X7XuXiXiXaXaXpXiXwXrXaXdXrXz.z | >.W.A # g j j 8 = a C } ,.,.=.;.g./.'.+.O ",
"h < - V C ' $.;.=.*.f./.`.N   & f H J O. .M  .Q.oX>X5X5X>X:X7XuX-X=X<XrXqX<X<X<X#Xc.K h./.N % g j j g 6 1 n '  .| { ,.). Xg.n 0 ",
"h 0 1 t C H ' >.M.Q.`.|.h.f X & f H } ,.J ..^.@X,XuXuX;XC.{.:X+Xl.d.OX<X%XY.F.Y.#X@XM.>.W.m % g F j j j 6 1 w w q 6 V ;.*.M d Q ",
"E I 0 < t f r ' m././.g.n 0 , % f C ] *.x ..m.m.!.}.XXZ.p.U.].C.i.1.U.[.Y.a.2.a.v.^.b.*.).N @ g F V j j j 8 $ $ $ $ % - 6 f Q ( ",
"( E j u < % O & q e q t d d < % n C C ] K z A m z f g c 3.9.L.0.5.5.9.K.S.q.q.7.c M N ,.(.N % g F E E E j j g j j j g g g T _ ( ",
"E E E h d s 0 0 8 r 7 0 j j 1 O n H n ) O.*.;.| t < X ; 3.y.q.q.e.e.9.q.y.r.7.S M ] { >.+.r 0 j F V Q E Q Q Q Q Q ( ( ) ) _ ( ! ",
"h E E ( _ _ _ W ! ! T I ! h u < r n V J &.f.;.*.J d < k 7.r.y.0.e.t.e.q.y.8.S z O.>.W.n.w 5 g j V j E Q Q Q Q ( ( ( ( ) ( ( ! ! ",
"s W E _ ` ` ` ` _ ( ! ! W T d 0 & r C ' O.@.*.=.*.h c 6.0.t.t.0.0.0.0.r.G.8.k M +.@.M.n.6 = F j E G j Q Q Q Q Q ( ( Q ( ( ( ! ( ",
"h h E _ _ _ ` ` _ ! ! Q ! j h u @ q C C J '  .;.o.c 7.r.P.0.t.t.t.t.e.r.P.8.x K @.*.B.N.w 5 h j I E E Q Q ( ! ( _ ! ( ( ( ( ! _ ",
"s I E _ _ E W _ ( _ ! Q I j j d @ @ t V C ] @.O.S 7.G.G.P.G.r.t.t.t.t.G.G.0.S K f.m.`.M.w 4 d d h j E Q Q Q Q ( ! ( ( ( ( ( _ ( ",
"W s W _ ` ` ` _ ! ( _ ! V g g d 5 X 6 C H } &.b p.H.H.H.A.A.A.S.S.S.S.H.H.A.i.Z B. X`. .& = 0 0 g g j ! Q Q ( ! _ ( ( ( ( ( ( ( ",
"W W W W _ ` ` ` ! ( ! E j j 0 d d < - f f f m u.p.d.a.a.p.p.p.p.p.p.p.p.a.a.p.R @.).O.@ + 5 p u g j V ! ( ( ( ( ! ( ( ( ( ( ( ( ",
"! ! ( ( ( ( _ _ ( ( Q T j g d 0 u 9 < & % & 2 D R D v D D D b v v v v v v b D v 2 w & X & 9 u p g j I ! ~ _ ~ ~ ( ( ( ( ( ( ( ( ",
"` ` ` _ ( ( ( _ ( ( ` E j g d d 9 9 4 = % & = & & = - < 5 6 8 9 9 0 0 0 0 5 & % + X % < 9 0 u 0 g j I ~ _ ^ ` ` ( ( ( ( ( ( ( ( ",
"` ` ` ` _ _ ( _ ( Q Q j E j j g p 0 0 9 9 9 9 5 = 4 4 9 9 9 9 9 0 0 r d : p 0 9 9 9 0 0 0 w d 0 g V T ` ~ _ ~ ` ( ( ( ( ( ( ( ( ",
"` ` ` ` ` ` ` _ ( ( ( Q E E ! V j j d r : s d 9 9 9 9 0 0 0 0 0 g d d d s p p 0 s p d d p p h F I I ~ ^ ~ _ _ _ ( ( ( ( ` ( ( ( ",
"` ` ` ` _ ( ( _ ( ( ( Q ! Q Q ! Q E j h d d g d d p s d u u p d g j j h g p s s h d d g h j j j I ! ! _ _ _ _ _ ` _ ` ` ` ( ~ ! ",
"` ` ` ( ! E E _ ( ( ( ( _ ( ( ( ( Q Q j j j j j j j j g g g g g j j j j j g g j j j j j j h h W I I ! _ ! _ _ _ ` _ ` _ ` _ I j ",
"` ` ` ( E E E ! ( _ ( ( ( Q ( ) ( Q Q F j j F F G G G j j j E V V E G V F j V F I W W I j h h h j E _ _ _ ( _ ( ( _ _ ` _ E h h ",
"` ` ` ! E h E ! ` ` ( ( ( ( ( ( ( Q E j F Q G F G G G G E j E j F F j G G Q G F ! W W I h h h h h T _ _ ( _ ( ` _ _ _ _ _ I h h "
};
