/* XPM */
static char *YXRrXzQ_[] = {
/* columns rows colors chars-per-pixel */
"64 64 223 2 ",
"   c #060307",
".  c #0F0A10",
"X  c #140C13",
"o  c #190E15",
"O  c #1C1117",
"+  c #1C141A",
"@  c #1E191E",
"#  c #151218",
"$  c #2C0E12",
"%  c #21151A",
"&  c #231A1E",
"*  c #2A191D",
"=  c #2A1216",
"-  c #331215",
";  c #38181B",
":  c #1E1C21",
">  c #241D21",
",  c #2A1E21",
"<  c #251620",
"1  c #371B22",
"2  c #1F2024",
"3  c #242225",
"4  c #2C2225",
"5  c #262529",
"6  c #2B2629",
"7  c #2C2B2D",
"8  c #272A29",
"9  c #322325",
"0  c #332629",
"q  c #3C2628",
"w  c #342A2C",
"e  c #3A2C2D",
"r  c #382526",
"t  c #2C2F30",
"y  c #312F31",
"u  c #3D2F30",
"i  c #3C2731",
"p  c #2E3434",
"a  c #343535",
"s  c #3D3233",
"d  c #353837",
"f  c #363738",
"g  c #353A3A",
"h  c #3C3D3D",
"j  c #3F322E",
"k  c #451A1B",
"l  c #4A1A1A",
"z  c #491716",
"x  c #531B15",
"c  c #591D16",
"v  c #541A1A",
"b  c #5B1F1A",
"n  c #561614",
"m  c #76130D",
"M  c #6D1B16",
"N  c #6D1E19",
"B  c #621D18",
"V  c #741711",
"C  c #711B15",
"Z  c #741D16",
"A  c #47211D",
"S  c #5C221B",
"D  c #59231C",
"F  c #64231C",
"G  c #6B241D",
"H  c #6B281E",
"J  c #78231B",
"K  c #4D1C21",
"L  c #571A2C",
"P  c #422D2D",
"I  c #4C2C2A",
"U  c #452625",
"Y  c #542521",
"T  c #5C2522",
"R  c #542D2A",
"E  c #5B2D2A",
"W  c #5C2A27",
"Q  c #47312F",
"!  c #5D332D",
"~  c #412D31",
"^  c #433434",
"/  c #4B3433",
"(  c #453837",
")  c #4A3937",
"_  c #453A3A",
"`  c #4B3D3B",
"'  c #463738",
"]  c #533533",
"[  c #523D3B",
"{  c #5A3936",
"}  c #532F37",
"|  c #632521",
" . c #6B2422",
".. c #622A24",
"X. c #6B2B23",
"o. c #622C29",
"O. c #682B2C",
"+. c #722A23",
"@. c #772824",
"#. c #6C332C",
"$. c #653128",
"%. c #72322B",
"&. c #73392E",
"*. c #783229",
"=. c #6C3B33",
"-. c #673936",
";. c #743C32",
":. c #632232",
">. c #3F403F",
",. c #4E403E",
"<. c #40403F",
"1. c #53413E",
"2. c #5B423F",
"3. c #68433A",
"4. c #754539",
"5. c #7A4339",
"6. c #7A4A3D",
"7. c #764237",
"8. c #3F3F40",
"9. c #3F4040",
"0. c #3E4141",
"q. c #3E4040",
"w. c #404141",
"e. c #414242",
"r. c #424343",
"t. c #424141",
"y. c #434444",
"u. c gray27",
"i. c #444444",
"p. c #464646",
"a. c gray28",
"s. c #464747",
"d. c #454646",
"f. c #444444",
"g. c #4A4545",
"h. c #484848",
"j. c #484848",
"k. c #474848",
"l. c #544441",
"z. c #5A4643",
"x. c #5C4946",
"c. c #5A4B47",
"v. c #624A45",
"b. c #634E49",
"n. c #664844",
"m. c #724741",
"M. c #7B4D41",
"N. c #714D46",
"B. c #66514C",
"V. c #6B534E",
"C. c #685349",
"Z. c #72534C",
"A. c #7A554C",
"S. c #7E5245",
"D. c #6E5650",
"F. c #6D5A54",
"G. c #715651",
"H. c #745B54",
"J. c #7A5D56",
"K. c #7B5D58",
"L. c #785750",
"P. c #7D6159",
"I. c #796157",
"U. c #821E15",
"Y. c #822C25",
"T. c #982B26",
"R. c #89382A",
"E. c #94352B",
"W. c #863B34",
"Q. c #983B35",
"!. c #A8372E",
"~. c #A63831",
"^. c #B33B33",
"/. c #83443E",
"(. c #984439",
"). c #A5473A",
"_. c #AF4C3D",
"`. c #D9553E",
"'. c #844C43",
"]. c #874B44",
"[. c #994B42",
"{. c #845245",
"}. c #87574C",
"|. c #985348",
" X c #855D54",
".X c #9F5D53",
"XX c #B95D46",
"oX c #8D6253",
"OX c #82645C",
"+X c #83695E",
"@X c #8B6459",
"#X c #926758",
"$X c #AA6759",
"%X c #856C61",
"&X c #8B6D62",
"*X c #936D61",
"=X c #8D7265",
"-X c #937669",
";X c #957A6C",
":X c #9B7C6E",
">X c #957265",
",X c #9E7E70",
"<X c #A07666",
"1X c #CD5C44",
"2X c #EA6C4A",
"3X c #C9664D",
"4X c #9C806F",
"5X c #9F8271",
"6X c #A38473",
"7X c #AC8D7A",
"8X c #A58977",
"9X c #B68C76",
"0X c #AE917D",
"qX c #B1937E",
"wX c #B9937C",
"eX c #BE846E",
"rX c #D78767",
"tX c #BB9C85",
"yX c #B89884",
"uX c #C19D86",
"iX c #C4A48C",
"pX c #CAAA91",
"aX c #D8B69A",
/* pixels */
"h.h.h.a.a.a.a.a.a.a.a.a.a.a.a.a.a.a.h g g g h y.a.a.9.g g g a g g 9.y.a.a.a.9.h g g g g g g g p 0.p 0.0.d.k.h.h.d.y.0.p p 8.p 0.",
"h.h.h.a.a.a.a.a.a.a.a.a.y.a.a.f.a.r.9.g g g h y.a.y.r.0.g g g g g 9.y.y.9.9.9.0.0.g g g g g p g p 0.0.0.d.d.d.d.d.0.g p p p p 8.",
"k.h.a.a.a.a.a.a.a.a.a.a.f.a.a.f.a.a.r.h h 0.9.r.a.r.r.9.h g g g 0.9.y.0.8.0.h 0.g g g g g g g g 0.0.0.0.y.0.0.y.y.0.g p p 0.0.0.",
"a.a.a.a.a.a.a.a.a.a.y.a.a.f.a.f.r.a.y.r.y.r.r.r.r.r.r.9.r.h g g g 9.9.h g g h h h 0.0.h 0.8.g 0.0.0.0.0.d.y.0.0.y.y.0.8.0.0.0.0.",
"a.a.a.a.a.a.a.y.f.a.a.a.f.a.r.a.r.r.r.r.f.f.i.<.r.h r.h r.h h g g 0.9.h g g 0.h h h 0.0.h 0.9.h 0.0.k.k.k.0.d.d.j.0.j.0.0.0.0.j.",
"a.a.a.a.a.a.a.a.f.a.r.f.r.r.r.r.r.r.r.r.<.r.<.<.9._ r.8.9._ h g h 9.h h 0.h h h >.h 9.h 0.9.9.9.0.0.k.j.k.k.d.d.j.j.j.j.0.0.j.j.",
"a.a.a.a.a.a.y.a.r.y.f.r.r.f.r.9.r.r.9.r.<._ <.<.9.8.>.r.9.9.h g h h h h h 0.h 0.9.8.r.9.9.9.r.h 0.0.k.0.k.d.k.d.j.j.j.j.j.j.j.j.",
"a.a.a.a.a.y.a.y.f.r.r.r.f.r.h r.9.9.h h >.9.h >.9.h h h 9.h h h h h 9.h h g h h h h r.9.r.r.r.r.0.k.k.k.d.d.d.d.k.j.j.j.0.j.j.j.",
"a.a.a.i.d.y.y.y.r.r.r.9.9.8.h h h h g h h h h h h h h h h _ h h g h h h h h h h h <.<.r.r.r.9.r.y.y.t.y.t.y.p.p.k.0.k.k.k.k.k.k.",
"a.a.a.a.d.y.y.y.r.9.9.h h h g g d h h h h h h >.h _ h h g h h h h h h h f h h _ h <.9._ 9.0.r.r.t.t.p.p.p.p.p.p.k.j.k.k.k.k.k.k.",
"a.a.d.a.y.y.0.y.9.h h g g g g a d d d d d h f _ h h g h h f h h f h f h f h h h 9._ h h <._ <.>.t.t.t.y.y.f.p.p.k.k.k.k.s.s.k.d.",
"a.a.d.y.y.9.0.0.h h g g d a a p a d h d d h f f d h _ f h f f h h f f h h g f g g g g 9.h r.h >.8.t.t.t.p.p.p.t.k.k.0.j.d.d.d.d.",
"a.a.y.y.0.0.>.>.g g d p p p p p p p a d f f g a f g d g f a f f f s g a g f a a g h d h d _ >.h 8.8.8.8.t.y.p.f.p.f.p.p.d.d.d.d.",
"i.a.a.i.0.>.g g g g t 5 5 3 3 2 3 3 2 5 w f g a w w w w w w w 7 4 4 6 4 6 9 6 7 g.c.f 3 5 w a w t 5 5 5 7 f 8.p.f.p.f.p.d.d.d.d.",
"a.a.y.i.0.>.g >.g t 5 > & @ @ @ @ 3 w & X @ a y & 4 ^ e s w w 0 s j s s u w 9 ` @X6XD.6 > # X @ 4 w y e , # > 8.p.p.p.p.p.p.j.d.",
"i.a.i.i.>.>.>.>.p 2 4 0 0 4 0 4 0 b.%Xb.O . 8 5 o e l.,.` ` _ l.B.F.V.G.V.l.l.I.6XiX0X=XD.4   O [ H.OX%XH.,   6 t.d.p.p.p.p.j.d.",
"a.i.a.f.r.<.r.h 6 > e _ ` z.l.` c.-XtXqXG.1.( & , ^ ` _ _ l.x.b.K. X%X%X%XD.x.V.P.-XqXpXpX+X* X x.:X7XyXiX=Xe + 4 >.y.a.a.a.a.a.",
"k.d.i.i.i.r.h 7 , e ` ,.c.H.b.` H.&X:XqXyXqXB.O y ` ` l.x.V.J.J.K.&X&X*X&X&XD.c.H.K.=X0XuXtXb.  ( %X*X:XqX7X+X[ O p a.d.a.y.y.a.",
"a.a.y.y.f.f.a & e ` ` ` D.K.b.1.B.L.H.=XiXaXI.X w ` l.b.D.J.OXOX%XG.V.V.D.D.[ w z.L.P.P.=X0X+X+ 6 z.G.K.J.F.;X=X% 6 a.k.r.a.a.a.",
"<.r.r.y.a.a.6 O ( g._ l.H.OXH.b.x.B.G.OXqXiXD.X w ` ` z.c.G.OXOXK.[ 0 , 0 1 , : 9 z.J.H.H.+X-XB.% e D.D.` s %X7X% 6 y.k.a.r.a.y.",
"h g 8.r.a.a.6 O ^ ,.( [ H.OXOXI.b.z.b.K.;X:X1.O ` B.v.l._ B.&XK.) , < + < 1 s ~ e e z.K.K.J.6X4XO @ z.l.f ) =X6X% 5 r.a.r.a.r.a.",
"g g 8.r.f.a.6 O ^ ` ( g.J.OXK.V.c._ z.H.I.J.P O B.OXJ.B.z.v.V.[ , 0 ' ` ,.b.H.H.Z.) e 2.b.G.,XyX1.> e ( [ b.,X5XO 5 y.a.a.f.a.r.",
"g g h r.f.f.6 O ( ,.( 1.V.H.z.` [ ` [ B.OX*X( X B.@XOXOXK.c.e % 6 _ b.H.L.K.OX%X%XZ.~ , _ b.=XtX8X^ % ( B.OXyX0X% 3 y.a.r.a.f.f.",
"0.0.8.r.a.f.7 % ^ ,._ ` 1.z._ ^ c.B.z.c.;XqXx.o x.OXJ.OXOXx.+ X ' l.b.K.K.K.K.K.K.OX[ 9 ` l.H.iXpX) X ^ J.:XtX4X, 6 r.a.f.f.f.a.",
"9.0.y.r.f.r.a 4 4 s ` _ _ l.x.b.J.K.B.H.8X=X,.) G.I.J.L.B.1., o ^ x.F.K.K.K.J.J.OX+Xv.) C.[ -.S.7X) X ) OX8X4X[ w a r.f.f.f.f.f.",
"0.y.r.r.r.h r.y O e l.` _ c.H.OXOXK.OX0XwX,.4 I.OXI.I.D.g.` 4 O ^ b.F.P.OXOX%XOXOX+XC.[ n.G V N :X( O _ =XiXI.X t 8.r.f.f.f.a.f.",
"8.9.9.9.r.r.y.g % 4 ' _ ` l.V.P.P.&X:X6X=X~ ~ OXOXJ.I.Z.,._ 4 O s ` l.c.v.v.B.V.B.B./ r M m +.*XyX) + ) G.-Xz.# f f.8.r.f.f.f.f.",
"g g h h h r.9.h 7 3 , 9 ^ _ ` ` l.%XOX) e ` C.P.J.J.I.V.` _ 9 % s ^ 1 i i e 9 9 i i < % Y ..L.,XqX[ + u ~ ^ s 7 8.8.r.y.f.f.f.f.",
"g g g 0.h 9._ 9.g 7 3 3 4 4 , & > ) _ & & _ G.K.I.K.P.V.1._ 4 O ( z.1 % ^ [ > X i , , 0 % ) H.=X0X[ X * 3 5 w g 9._ r.r.f.f.f.f.",
"g g g g h h h h g f a 7 3 O + > & , 4 s ) ` v.OXOXK.P.K.B.l.> O _ B._ y G. X-./ Z.{ n.2.* ^ J.=X0X1.. @ 8 p p h 9.h r.r.f.f.g.f.",
"g g g g g h h g g f f a 7 O & ^ ^ w s c.G.x.l.B.V.H.H.Z.V.l.w + 0 l.c.c. X.X[.[.|.|.'.{ 0 z.H.%X0X1.X 8 p a g g h 9.r.r.r.r.f.f.",
"0.h 0.h h h h g h f a d a @ 9 1.l.` l.H.P.H.x._ ,.C.B.l.,.` ^ 0 > w _ [ [ %.@.@.%.@.K q z.L.z.B.8X1.# 8 a a f g h h h h 9.8.8.8.",
"r.r.r.8.r.9.9.h g h f f a & , g.,._ c.K.P.P.G.x.x.H.H.x.' h ` _ w < > < % % $ $ = $ , z.K.D.s c.8X2.# p a d g g h h h h h g g g ",
"r.y.r.r.r.h 9.h h h ( f a & , ` _ ^ x.J.K.J.J.H.J.P.OXL.b.c.B.b._ , % + + + @ + : w z.K.J.b.` J.7Xl.# 7 a d h h h _ h g g g g g ",
"y.a.r.r._ 9._ 0.h h h f f & , ` ` ( z.J.J.J.J.OXOXB.z.z.[ ` } ^ w ^ ` _ _ ` ,._ 9 u 2.1.u w e B.7Xz.# p g d h h h r.h h h g g g ",
"r.r.y.r.y.9.9.h _ h g h a & , ,.` ^ x.J.J.Z.m.M.N.~ , , 4 r i 0 0 ' c.H.H.K.H.l.9 > , , 4 9 , [ +X^ @ g h g h h 9.h r.r.h 0.g h ",
"a.a.r.r.r.h _ 9.h h h g f > , ` ,.h z.J.P.N.N C T e r 1 ~ b.%X%XI.] ] L.@XOXv.u y 0 7 ~ Z.@XOXH.[ % < g h g h h h r.r.9.r.r.9.9.",
"r.r.f.r.r.r.9.9.h h h h g 7 , e ` ` l.B.P.P.-.C G W / W -.@X8XtXeX[.| { H.c.w w s _ ` N.$XeXuX7XG., > g h h h >.8.9.9.y.y.y.y.y.",
"i.f.f.r.r.<.r.9._ h h f h s 7 , u ` ` 1.F.OX,.K  .M ! =.]. X-X9XrX2XE.q c.u & Q ' ,.b.{.[.$XyXpX0X) @ g h _ >.h r.h _ y.r.r.y.r.",
"a.f.a.r.r.r.>.9.>.<._ f h g a 8 % 0 _ ` l.H.' O W o.2.L.K.F.F. X3X2XR.1 l.u - o.O.m.K. X].}.*XtXtX,.@ a h h h >.r.r.r.r.a.a.y.r.",
"f.f.a.r.r.r.r.h 9.9.h h h g h a X o 9 ` g.c.e o s _ x.P.P.F.D.]._.`.E.; ` r - @.T.(.}.].].M.;.W.oX` # a h h 9._ h r.r.r.r.f.f.r.",
"f.a.y.r.r.r.r.r._ h h h h g h a o + 4 4 4 ^ 9 O s ` c.P.P.L.'.Q.^.`.R.0 ` w - G T.!.~.[.~.@.V m W.] : g h h 9.h <.r.r.r.f.f.f.r.",
"f.f.r.r.r.r.r._ h r.h h h h a 7 , e e & % 4 + O s ` l.Z.}.].Q.~.(.1X(., f 9 * E @.T.^.^.!.G V C ).$.+ g h h 9.r.r.r.r.f.r.a.f.f.",
"a.r.r.r.9.r.y.9.9.9.8.8._ g 6 * u ` _ s s w * , e _ g.2.].*.R.W.*._.&.9 s w * U  .E.~.~.Q.J Z ).XXI 3 g h <.9.9.r.r.r.f.r.f.a.f.",
"y.9.9.9.r.r.r.r.h r.h _ h h 5 ; ..o.E ! n.b.z.[ 9 w ^ Q #.+.J J Y.5.U s c.B.^ 9 U O.+. .@.Q.1XXX! 6 a g h r._ 9.r.r.r.f.f.f.a.f.",
"9.0.0.9.9.y.r.r.r.9.8.h h h 6 v V V V Z -.D.G.K.z.0 < @ = #.Y.U.J ! ( ,.V.H.b.Q , < = $ - Y ;.! 7 a h 8.h 9.9.r.r.r.f.y.a.f.a.f.",
"0.8.0.9.r.a.a.r.y.r.r.h 8.h 6 U M N C #.L.C.c.V.C.[ ~ ~ ^ { =.X.+.A.L.N.N.3.{ 3.n.z.P u ^ 3 # 3 f h h _ h r.r.8.r.f.f.a.a.f.f.f.",
"0.0.h 9.r.y.r.r.y.0._ r.h 8.5 o o.N N Z.K.H.B.` ` b.D.D.B.B.C.3.{.:X<X6.7.7.7.7.;.=.$.3.J.F.: a h h h 9.8.r._ r.f.f.r.r.a.a.r.a.",
"9.0.0.0.r.y.f.f.f.y.f._ 9.h 3 O / W W x.H.P.J.c._ _ z.z.1.3.7.6.{.S.6.4.6.S.6.3.S x c X.A.C.4 d 9.h r._ 8.` ] ] [ t.f.g.a.a.f.y.",
"0.0.0.0.y.a.f.f.f.y.8.f.9.8.3 O ( ,.( ` G.OXOXD._ u 1.V.|.R.H #.{.}.oXoX#X#XoX6.S x c S E e 7 h 9.8.9.9.r.E V V C | ` g.f.a.f.f.",
"g 0.0.0.d.d.d.d.f.f.8.8.r.h 7 & w ( _ 1.G.OXP.H.c.l.c.A.XX!.H &.oXoX#X#X>X4X#X6...H ..T A q d h h r.9.r.8.f.! E o.E ` a.a.f.f.a.",
"g g 0.k.d.d.d.d.f.f.f.t.r.g g 7 % w ` l.B.G.G.K.H.H.D.b.3.R.*.X.X.7./.}.}.oX{.6.3.4.&.S l A j >.h h 8.r.r.f.f.y.a.a.j.j.a.a.a.f.",
"g g 0.k.j.k.d.d.i.y.r.r.8.h g a o 9 ` ` ,.l.B.J.OXJ.H.b.I #.*.H H &.(.{.7.7.4.6.6.6.4.S x x A j h _ _ y.y.y.y.f.a.f.f.a.a.a.a.f.",
"p 0.0.k.k.k.d.d.i.a.y.r._ g h a O O e _ ` z.V.A.m.] Q I $.H H H +.*.&.&.S H 7./././.6.$.S x A U I ] _ f.r.f.a.a.a.a.a.a.a.a.a.a.",
"g 0.0.k.k.k.k.d.a.a.y.r.<.g a a 3 X 4 ` g.{ D H b k l D S H H H H H H S c S H 7.(.W.*.H S S 3.B.I k l I ` a.y.d.f.a.a.a.a.a.a.a.",
"0.0.0.0.k.k.k.d.i.a.a.9._ a y a a > * e ^ W C B z ; l A D +.H H H S c c c c J Y.R.c D D A W n.B.^ - z b R ` d.d.a.a.a.a.a.a.a.a.",
"a.d.d.j.j.d.d.k.a.a.i._ h a a t t 8 * @ * G V n k l v c b G H G F c c c F F Y.E.Y.x x x D W :.} 1 - n M F ] p.p.a.a.j.j.a.a.a.a.",
"j.j.j.j.d.j.h.d.a.i.a.<.h g a a 8 8 3 @ * ..V z - ; k k k l l l A x z A A D L o.L k z z K L L ; - z M M b R p.j.a.a.d.j.a.a.a.a.",
"j.j.h.h.h.j.d.k.a.a.r.<.9._ h f a 7 8 8 7 I S l - z z l z n x v x x x x v v x l v v v v l l z k z n B  .R [ j.d.a.a.a.d.j.a.a.a.",
"j.j.h.h.h.h.k.d.a.a.i.r.r.<.<.<._ g a w t u I Y K T | B b M M M F H M Z V C C C C M M G N b b L Y D W } ,.p.j.d.a.a.a.d.j.j.a.a.",
"j.d.j.j.k.k.k.k.a.a.a.r.r.r.r.y.r.9.h g a a f a a y s ^ I I R E R R E T B B G  .| ..o.] / / ( ` _ 8.f.g.j.d.j.j.k.k.j.j.g.d.a.0.",
"j.j.j.a.0.0.0.k.a.a.a.a.a.a.a.a.y.r.r.h h h h g h h h g f f a g h h _ ( / ^ ^ ( ( _ _ h g h g g 8.y.a.d.j.d.j.d.s.k.j.k.d.a.8.h ",
"h.h.j.a.0.0.9.y.g.k.a.a.a.f.a.a.a.y.9.0.h _ h 9.8.9._ h h h h h _ >.8.h _ h _ 8.9.r.9.h h g g g g r.a.j.d.j.s.s.k.j.k.j.k.0.g g ",
"h.h.j.y.0.8.0.y.h.k.a.a.a.a.a.f.a.y.9.0.9.9.9.h r.8.r.8.h h r.9.h >.8.8.8.r.h r.r.r.9.h h g g g h 9.a.j.j.s.j.j.s.k.k.k.k.0.g g "
};
