/* XPM */
static char *player_atk_41678373086[] = {
/* columns rows colors chars-per-pixel */
"64 64 192 2 ",
"   c #070307",
".  c #0E0B11",
"X  c #140C13",
"o  c #1A0E15",
"O  c #141216",
"+  c #1C1116",
"@  c #161318",
"#  c #1C141A",
"$  c #1D191D",
"%  c #2C0E13",
"&  c #261116",
"*  c #2C1216",
"=  c #22151A",
"-  c #2E161A",
";  c #231A1E",
":  c #2A1A1E",
">  c #321114",
",  c #391B1B",
"<  c #1F1C21",
"1  c #251721",
"2  c #241C21",
"3  c #2A1E22",
"4  c #361F21",
"5  c #1F2120",
"6  c #242325",
"7  c #2C2225",
"8  c #272827",
"9  c #262629",
"0  c #2A2629",
"q  c #272929",
"w  c #2C2C2C",
"e  c #322326",
"r  c #382021",
"t  c #332629",
"y  c #3B2728",
"u  c #342A2C",
"i  c #3B2C2E",
"p  c #2F302F",
"a  c #3F322E",
"s  c #2D2F31",
"d  c #312F31",
"f  c #3C2E30",
"g  c #2E3434",
"h  c #333434",
"j  c #3D3232",
"k  c #363837",
"l  c #363738",
"z  c #383738",
"x  c #353A3A",
"c  c #3C3D3D",
"v  c #461C1D",
"b  c #432627",
"n  c #4A2324",
"m  c #462A27",
"M  c #562321",
"N  c #592B29",
"B  c #48312F",
"V  c #5D342D",
"C  c #412E30",
"Z  c #433535",
"A  c #4A3635",
"S  c #443837",
"D  c #4A3937",
"F  c #463A39",
"G  c #4B3D3B",
"H  c #523533",
"J  c #573836",
"K  c #523D3B",
"L  c #5C3C3A",
"P  c #6C2422",
"I  c #622A28",
"U  c #6C2F2B",
"Y  c #752421",
"T  c #772A27",
"R  c #65342D",
"E  c #6A312B",
"W  c #723A2E",
"Q  c #673D38",
"!  c #723A31",
"~  c #3F403F",
"^  c #4E403E",
"/  c #53413E",
"(  c #5C433F",
")  c #3E4040",
"_  c #444444",
"`  c #4A4545",
"'  c #474847",
"]  c #474848",
"[  c #484848",
"{  c #544441",
"}  c #5A4643",
"|  c #574A46",
" . c #5C4946",
".. c #5E4C48",
"X. c #614B46",
"o. c #684944",
"O. c #634E49",
"+. c #714A45",
"@. c #655246",
"#. c #66524C",
"$. c #6B534E",
"%. c #6E584F",
"&. c #71554E",
"*. c #6E5650",
"=. c #6F5A53",
"-. c #715751",
";. c #785651",
":. c #745B54",
">. c #7A5D56",
",. c #755F58",
"<. c #7B5D58",
"1. c #7A6156",
"2. c #7D6159",
"3. c #982C27",
"4. c #8D382B",
"5. c #97302B",
"6. c #903D2A",
"7. c #8E3B38",
"8. c #9C3934",
"9. c #B12B26",
"0. c #A5342F",
"q. c #AC3630",
"w. c #A73932",
"e. c #B43B34",
"r. c #BC3D32",
"t. c #86463C",
"y. c #994339",
"u. c #A94135",
"i. c #B1463B",
"p. c #C84639",
"a. c #D44C3B",
"s. c #CC513C",
"d. c #D9553E",
"f. c #884741",
"g. c #844A44",
"h. c #854F49",
"j. c #934740",
"k. c #954C45",
"l. c #9E4B41",
"z. c #85534C",
"x. c #8E524B",
"c. c #9B564A",
"v. c #835D55",
"b. c #8A5C54",
"n. c #9F5E54",
"m. c #A75547",
"M. c #B05340",
"N. c #BB5E46",
"B. c #A35E54",
"V. c #82645C",
"C. c #8A635A",
"Z. c #83695E",
"A. c #926D5E",
"S. c #A76859",
"D. c #856C61",
"F. c #8B6D62",
"G. c #946D61",
"H. c #8E7365",
"J. c #917266",
"K. c #937669",
"L. c #957A6C",
"P. c #9B7C6D",
"I. c #AB6D60",
"U. c #A1796B",
"Y. c #CE5F48",
"T. c #C9654B",
"R. c #DE6248",
"E. c #C56E57",
"W. c #D76B52",
"Q. c #C0735D",
"!. c #E86949",
"~. c #9E8271",
"^. c #AE826F",
"/. c #BE846F",
"(. c #A28473",
"). c #A58977",
"_. c #A58A78",
"`. c #AC8D7B",
"'. c #B58C76",
"]. c #BF8A71",
"[. c #AD917D",
"{. c #B1927E",
"}. c #B9937C",
"|. c #D4866A",
" X c #B59481",
".X c #B79883",
"XX c #BB9C85",
"oX c #BD9F89",
"OX c #C19D85",
"+X c #C4A38C",
"@X c #CAAA91",
"#X c #D8B69A",
/* pixels */
"[ [ [ [ ] ] ] ] ` ] ] ] ` ] ] ] ] _ ~ x x x c ) ] _ ) c x x x x c ) ] _ ] ] _ c x x x x x x g ) g g x ) ] ] ] ] ] ) ) g g g ) x ",
"[ [ ] [ ] ] ] ] ] ` ] ] _ ] _ ` ] _ ) x x x ) _ ] ' ) c x l g x ) ) ] ) ) ) ) c x x x x ) x g ) x ) ) ) ) ] ] ] ] ) ) g g g x x ",
"[ [ [ [ ] ] ] ] ] ] ] ] ] ] _ ] ' _ ) ) ) ) ) _ _ _ _ ) c x l x c ) ) ) ) ) ) ) x ) c x x g ) g ) ) ) ) ] ) ) ) ) ) ) x g ) ) ) ",
"[ [ [ ' _ ` ] ] ` _ _ _ _ _ _ _ ] _ _ _ _ ) _ _ _ _ _ ) ) ) x x x ) ) c x x c c ) c ) c ) ) x ) ) ) ) ) ] ] ) ) ] ) ) ) x ) ) ) ",
"] [ [ [ [ ` _ ] ] ` ] _ _ ` _ _ _ _ _ _ _ _ _ _ ) _ ) ) _ ~ c x x ) ) c x c c ) ~ c ) c ) ) ) ) ) ) ] ] ] ] ) ] ] ) ] ] ) ) ] ] ",
"' [ _ ' ] ] ` ] _ _ _ _ _ _ _ ) _ _ F ) _ _ c ) ) ~ ) ~ ~ ~ c z c c ) c ) c ) x c c ) ) c ) ) ) ) ) ) ] ] ] ] ] ] ] ] ] ) ) ] ] ",
"' ' ' [ ` ] ] _ _ _ _ _ _ _ ) _ _ c _ ) c F ) ~ F ~ ~ ~ ~ ~ c c c c ) c c c c c c ~ ) ) ) ) ) ) ) ) ) ] ] ] ] ] ] ] ] [ ] ] ] ] ",
"' ' _ [ _ _ _ _ _ ) ) _ _ ) _ ) _ c c ) ) c c ~ c ~ ~ ~ ~ c c c c c c ) c c c ) _ c _ ) _ _ F _ ) ) ] ] ) ] ] ] ] ] ] ] ] ] ) ] ",
"] ] ] _ ] ] _ _ _ ) ) ) ) ) c z c x c c z c c F c F c z c ~ c c c c c c c c c F ) ~ ~ ) ) ) _ _ _ ) _ _ _ _ _ ] ] ] ] ] ] ] ] ] ",
"] ] ] ] _ ) _ _ _ ) ) ) ) c c z c x z c c F c c c c c c c F c z c c x c c c c c ) ~ ) ) ) ) _ c _ _ _ _ _ _ ] ] ] ] ] ] ] ] ] ] ",
"] ' ] _ _ ) ) _ ) ) c x x x x l x l c c c c z c c c z c x c c c ) z x c z z x x ) ~ F ~ ^ ) c _ ) ) _ _ _ _ ` _ ] ) ] ] ] ] ] ] ",
"' ' _ ] _ ) ) ) ) c x x l l g g l h l x x x c z c c c c z c c x z x c c c c z l x x c ~ c ~ ~ ~ ) _ ) _ ] _ _ _ ] ] ] ] ] ] ] ] ",
"_ ] _ _ ) ) ) c x x k h g g g s g g h l z z c h x x x z h z z l z z l z l z h l z z z c z c ~ c ~ ) ~ ) ) ` ` _ _ ] _ ] ] ] _ ] ",
"] ] _ _ _ c c x x x g 9 9 9 5 9 9 5 5 9 w h c h u u u t w u u u 0 3 0 0 0 0 0 u { | z 9 6 d h u w 0 0 0 s d c _ _ _ _ ] ] ] ' _ ",
"] _ ] _ _ c c x k g 9 2 ; 1 < < $ 7 u ; X $ g h ; e j j i i u t f f f f f u e K D.(.*.t 1 # X $ 0 f d i 0 o < F [ ] _ _ ' ' ' _ ",
"_ ] _ _ _ ) c c g 5 6 t t 0 t 3 e ..H...+ . w 9 + u { ^ ` G F { *.=.=.=.%.{ { ,.(.+X{.D.%.7   + K :.V.D.,.3   0 ) ' _ ' _ _ ' ' ",
"] _ _ _ _ ) _ c 9 3 i F ^ | | F  .J.OX{.*./ S < 3 S G S F { } O.<.V.D.D.2.*.O.#.1.K.{.@X@XZ.: + } P.`. X+XJ.i + 0 c _ ' _ _ ' _ ",
"[ [ _ _ _ _ c d 7 i G ^  .:.O.G :.F.P.{..X X$.+ u G G |  .$.>.>.v.F.F.F.J.F.*.} :.<.J.{.oXoX..  Z D.J.P.{._.Z./ # h ' ' ' ' _ ' ",
"_ _ _ _ _ ' d 1 i G G K $.<.O./ $.:.-.H.+X#X1.X d G { O.%.>.V.V.D.;.#.*.*.*.G f  .;.2.1.F.`.Z.+ 0 } ;.<.<.=.L.J.& 0 ' ' _ _ _ ' ",
") _ _ _ ' ] 0 + Z ` S / :.V.:.#. .$.-.V.[.+X%.X u G G { } -.V.D.;.D 4 4 t t 3 1 e } :.>.>.Z.L.#.+ f *.*.G z D.`.= 0 ' ' ' _ ' _ ",
"x ~ ) ) _ ' 9 & S G S ` :.V.V.1.O.} O.<.L.P./ + K O.X.{ F $.F.<.K 3 1 < 1 t f Z C y } <.<.:.(.~.+ $ | | j D H.(.= 9 _ ] _ _ ` ` ",
"x x ~ _ ' ' 0 + j ^ S { <.V.<.*. .F } :.1.<.i = #.V.<.$.} X.*.K 3 t S G ^ O.-.;.%.A i ( X.=.(.{./ 3 f F G O.P.(.# 9 _ _ _ _ _ _ ",
"x c ~ ) _ ' 0 + Z { Z { %.-.} F / G K #.V.F.A X O.F.2.V.>...u ; 0 F ..:.<.V.D.D.D.-.C 7 S #.H.oX).Z # Z $.V.{.[.= 9 ` _ _ ] _ _ ",
") c ) _ _ _ 0 = S / F F / } F S  .$.} X.L.{. .+ X.V.<.2.V. .= X Z | O.<.<.;.;.<.<.v.K e G | =.+X@XD X D <.L.OX~.3 0 _ _ _ _ _ ] ",
") _ _ ) _ ~ z 3 t Z G F F { ..O.:.2.O.:._.H.G G &.1.1.:.#.{ 2 + Z ..*.<.<.<.:.;.<.V.X.K O./ #.+X+XF X D 2.`.(.K u z ) ` _ ` _ _ ",
"_ ) ) _ _ ~ ~ d + i { ^ F } :.V.V.<.V.{.}.^ 7 1.V.>.<.%.{ F 7 + Z O.:.V.V.D.D.D.D.V.#.K O. .2.+XXXD o F F.+X2.X s ~ _ ) _ _ _ _ ",
"c c ~ ) ) _ _ x < e Z F G | *.2.2.F.L.(.H.a C V.2.>.<.%.^ F t + j G { O.O.O.#.$.*.$.D 3 Z ..F..X.XA # G :.K. .o l ` ) _ _ _ ] _ ",
"x c c ~ ) ) ) c s 0 1 t Z F G G { Z.Z.D C D #.2.<.<.<.$.G F 7 = j Z e t f f 3 4 f y 1 o = ( V.P.[.K + i Z Z f s c ) ) _ _ _ _ _ ",
"x x x c c ) c ) z 0 6 6 7 e 3 ; 3 G G ; ; F -.2.<.>.1.-.{ F 6 + Z } e 1 C K 1 o f 3 3 t = A >.F.`.K X 2 9 9 s c ) ) ) _ _ _ ` _ ",
"x x x c c c c c x l h w 6 + # 1 ; : 7 i F G ..V.V.1.2.<.#.{ 3 o F #.F f -.C.L A +.L o.} : Z >.H.{./ . 2 q s d x ~ ) ) _ _ _ _ _ ",
"c x x x x c c x z z l h s # ; S S u j ..:. ./ #.$.:.:.%.$.| t + u } |  .v.n.l.j.c.k.g.J t } :.D.`./ X 9 s x z z c ) ) _ _ _ _ _ ",
") ) ) c c c c c c z l x h $ 3 { ` G } :.<.:. .G K $.$./ ^ G S t 1 t F G K P Y 4.U T M b } :. .#.).{ @ q l x z z c c c ) ) ) ) ) ",
") _ ) F ) ~ ) c c z z k k ; 3 ^ ^ D ..<.V.<.*... .:.:. .F S G F t 1 1 1 # & % * & & 4 } 2.*.Z  .(.( @ g h x x x c z c c x c x x ",
"_ _ _ _ _ ) ) ) c z c c h 1 3 G F Z  .<.<.>.>.:.>.<.V.>.O...#.X.G 3 1 # # # @ < $ t  .<.<.O.` :.`./ @ w h x c c c c ) x x x x x ",
"_ _ _ ) _ c c F F c z k k ; 3 G ^ j  .:.<.<.>.V.V.#.} } K G G Z d Z G G G G ^ F e f } / i i y #.`.} @ g x x x ) _ c c ) x x x x ",
"_ ' _ _ _ c c _ ~ c c c x ; 3 { ^ j  .<.1.:.2.v.$.C 3 3 3 y i t t F ..=.:.<.:.{ e 3 3 2 6 t e K Z.A $ l c c c F c _ _ F ) c ) x ",
"_ _ _ _ ) _ ~ c c c c c z 2 3 G ^ j  .1.<.2.V.$.C t y 4 C #.V.D.2.H H &.D.V.X.i u u 0 Z &.C.D.:.G = ; x c c c c F c _ ) _ ) _ ) ",
"' _ _ _ _ _ ~ ~ c c c z z d 6 i ^ ^ ` #.<.V.#.C e C B N Q C.`.XX].l.P L -. .y u S S G +.S./.OX`.:.: $ c c c c ~ ) c _ _ _ _ _ _ ",
"_ _ _ _ _ ) ) ^ F c c z z z w 3 i G ^ / *.V.K = d G J ! g.v.K.'.|.!.5.y  .C 1 A A G O.z.l.S.}.@X[.D $ x z ~ c c ) _ ) _ _ _ _ ) ",
"_ _ _ ) ) ) ) ) ~ c c c c z z w ; t F G | :.D + j ^ } ;.<.:.=.b.T.!.6.4 { i - N U +.>.v.g.h.G.XXoX^ $ k c F ) ) ) ) _ _ _ _ _ _ ",
"' _ _ _ _ _ ~ _ ~ ~ x c c x c h X + u F / | i + j G  .1.1.,.-.g.i.d.y., G t > Y 3.y.x.z.h.f.f.I.'.D < l c c ~ ~ _ _ ~ ` _ _ _ _ ",
"_ _ _ _ _ ~ ~ ) ~ ~ F c c x c h + + 7 7 e S t + j G  .2.>.:.h.7.w.d.t.4 G u > P 3.0.u.u.8.8.3.M.Q.B < l c ) F ~ ) ~ ~ _ _ _ _ _ ",
"' _ _ _ _ _ _ ~ ) ~ c c F x z w 2 i i ; ; 7 # + j ` { &.z.j.8.0.u.R.y.- S 7 - N Y 3.e.e.q.9.9.a.W.V < l ) c ~ ~ ) ) _ _ _ _ _ _ ",
"_ _ _ ) ~ _ ~ _ _ ) F c ~ x w 1 j G F j Z u 1 3 i F G ( f.i.r.p.R.Y.W 3 j u 3 m I 5.w.8.0.r.a.!.N.m 1 z c ~ ~ ~ _ _ _ _ _ _ _ _ ",
"_ ) ) ~ _ _ _ ~ ) ) ) c F c 6 = Z ` F { O.X.} K e u S Z U u.s.T.T.t.y Z ..X.Z : n I T P Y u.R.N.R t l x ) ) ~ ~ ~ _ _ _ _ _ _ ' ",
") ) ) ) _ ~ _ _ F _ _ c ) c 0 = Z G / $.<.#.&.<.( u ; = > M E R R / S ^ =.2.#.A 3 = * % > M ! V u g c ) ) ) ~ ) _ ) _ ] _ ` ] _ ",
") ) ) ) _ ~ _ _ _ c _ c ) c 0 o Z F  .2.2.#...%.$.K C C C Z i 2 5 D ( ..:.V.V.$.Z 7 3 i Z 7 + 9 h c ) ) ~ G ~ _ _ _ _ _ _ _ _ ] ",
") ) ) ~ _ _ _ _ _ _ c ) ) c 9 o Z G } >.1.:.O.G G X.&.%.$.#. .F D / @.%.1.1.1.<.;.,.<.L.(.G O h c c c c ~ ~ _ ~ _ _ _ _ ] ] _ _ ",
") ) c ) ) _ ] _ _ _ _ ) ) ) 2 + Z G G } :.2.>...S G | | { { O.*.%.#.-.<.<.<.>.>.1.K.[..X[.G $ x ~ ~ ~ ~ c _ _ ~ _ _ ] _ ] _ _ _ ",
") ) ) ) _ _ _ _ _ ) ) ) ) ) 2 + S { S G :.2.V.*.F j G ..X. .$.2.<.<.<.<.2.<.$.X.:.H.`._.%.u w c ) ~ ~ ~ _ _ _ _ _ _ _ _ _ ] _ _ ",
"x x ) _ ` _ _ _ _ _ ) _ ) ~ s 1 u Z S { :.V.2.:.} { } $.:.<.2.2.V.1.2.>.%.O.` F $.:.L.A.r 9 c c ~ ) ~ _ F _ _ _ _ _ ] ] ` _ ] _ ",
"x c ) ] ] ] ] _ ` _ _ ) _ x l s $ f F { O.*.:.>.,.>.*.O.:.<.:.:.>.:.>.%.{ F S { *.;.S.c., 6 ~ F c F _ ~ ~ _ _ ] _ ] _ ] ] ] _ ] ",
"x x ) ] ] ] ] ] _ _ _ _ ) c z d o e G G / { @.<.v.2.-.O.} / / { / / / ^ F S { =.:.h.N.M.v 6 c c c ) _ _ _ _ _ _ ] _ ] ] ] ] _ _ ",
"x x ) ] ] ] ] ] ' _ _ _ ) c c h o = i F G } &.b.v.L i u 3 1 3 2 1 : ; t S F ..>.v.B.W.M., 6 h h z ~ F ~ _ _ _ ] _ _ ] [ ] ] ] ` ",
"x ) ) ) ] ] ] ] _ ' _ F c c z h 6 X 7 G `  .;.S.m.v X $ 1 $ < ; $ ; $ 2 0 S { ,.U.|.E.! * < p p z c ~ _ _ _ _ _ ] ] _ ` ] ` ] ] ",
") ) ) ] ] ] ] ] _ ' _ _ c h h h h ; 3 i Z Z ( t.7.v $ 6 w w w q q d w 9 1 7 f G J.^.o.& O 8 q d h c c _ _ _ _ ] ` _ ] ] ] _ ] ] ",
"` _ ] ] ] ] ] ] ] ' _ ) c l h d d 8 2 & + # # - , : 5 6 6 w w w w p p 8 5 = + & 3 e = X < w p d z c F _ _ ] ] _ [ ] _ [ ] ] ] _ ",
"] [ ] ] [ ] ] ] ' _ _ ) F l h d q 9 8 $ $ $ $ O O $ 5 5 8 8 8 8 q w w w w 8 $ $ @ @ $ < 9 s d w z c ) _ _ _ ] ] ] ] ] ] ] _ [ ` ",
"[ [ [ [ ] [ ] ] ' ] _ ) ~ F c c h w 0 8 8 p q 6 5 5 ; 9 8 8 8 8 h w d h p p p q 9 9 w d q w p d c c _ _ ] ] [ [ _ [ [ [ [ [ [ [ ",
"[ [ [ [ [ [ ] ] _ ] _ _ _ ~ ) ) _ z h g p g p q 8 8 8 w w w w w h h h h g p p p h d h l h h h c ~ ) _ _ _ ] _ [ ` [ [ [ [ [ [ _ ",
"] [ [ ] ] ] ] ] ` ] ` _ _ _ _ _ ) ) F x k h x h h p h h h u g h h c c c h d d h l l l z z c c c ) _ _ _ ] ] ] [ [ [ ] ] [ [ _ _ ",
"[ [ [ ] ) ) ) ] ] ] ] ] _ ' ' _ _ _ ) c c c x c ~ x c c z z k c z c c c c z z c c c z z c c x c ~ ) [ ` ] ] ] _ [ ] ] ] [ _ ) z ",
"[ [ [ ` ) ) ) _ ] ] [ ` ] [ _ ] ' _ ) ) c ) ~ x ~ ~ ~ c c c c ~ ^ ) ) c ~ c ~ ^ _ ) ) ) x x x x z ) [ [ [ ] ] ] [ ] ] ] ] _ c x ",
"[ [ ] _ ) c ) _ ] ] [ _ ' _ ] ] ' ' ) c ) ) ) ) ~ ^ ~ ~ c c ) c ) c c ~ ~ ~ ~ ~ ) ) ) ) c x x x c _ _ [ [ ] ] ] [ [ ] ] ] _ x g "
};
