/* XPM */
static char *YXRrXzI_[] = {
/* columns rows colors chars-per-pixel */
"64 64 226 2 ",
"   c #080308",
".  c #0F0A10",
"X  c #140C13",
"o  c #160A16",
"O  c #1A0D14",
"+  c #151117",
"@  c #1C1116",
"#  c #1D141A",
"$  c #1D191D",
"%  c #220E16",
"&  c #22151B",
"*  c #2E151D",
"=  c #241A1E",
"-  c #291B1F",
";  c #3B1B1B",
":  c #30351F",
">  c #1E1D21",
",  c #241D21",
"<  c #2A1E21",
"1  c #1F2022",
"2  c #242325",
"3  c #2C2225",
"4  c #262529",
"5  c #2A2629",
"6  c #272929",
"7  c #2C2C2C",
"8  c #332326",
"9  c #382626",
"0  c #332629",
"q  c #342A2C",
"w  c #3A2C2D",
"e  c #3E342F",
"r  c #2C2F30",
"t  c #3D2032",
"y  c #312F31",
"u  c #3C2F30",
"i  c #2E3434",
"p  c #333434",
"a  c #3E3233",
"s  c #353837",
"d  c #373738",
"f  c #353A3A",
"g  c #3B3D3D",
"h  c #4B0F0E",
"j  c #520D0C",
"k  c #54110F",
"l  c #5B110F",
"z  c #491715",
"x  c #5B1311",
"c  c #571917",
"v  c #65130D",
"b  c #671813",
"n  c #731B15",
"m  c #761914",
"M  c #7B1C14",
"N  c #4B201D",
"B  c #54221E",
"V  c #69241C",
"C  c #79241C",
"Z  c #53142A",
"A  c #561434",
"S  c #5A1535",
"D  c #681937",
"F  c #711A39",
"G  c #432B2B",
"H  c #482828",
"J  c #592B27",
"K  c #47312E",
"L  c #432F33",
"P  c #582931",
"I  c #433534",
"U  c #4A3535",
"Y  c #443837",
"T  c #4A3937",
"R  c #4B3638",
"E  c #453A39",
"W  c #4B3D3B",
"Q  c #543A35",
"!  c #513D3B",
"~  c #6C2B24",
"^  c #732A28",
"/  c #723631",
"(  c #3E403F",
")  c #40403F",
"_  c #4E403E",
"`  c #53413E",
"'  c #58433F",
"]  c #584D3E",
"[  c #4F5634",
"{  c #656934",
"}  c #3F3F40",
"|  c #4D3B41",
" . c #3F4040",
".. c #3E4141",
"X. c #414242",
"o. c #424343",
"O. c #434444",
"+. c #444444",
"@. c #454646",
"#. c #464646",
"$. c #464747",
"%. c gray28",
"&. c #4A4645",
"*. c #474848",
"=. c #484848",
"-. c #544441",
";. c #5A4643",
":. c #594747",
">. c #5D4A46",
",. c #5D4C48",
"<. c #614B46",
"1. c #684B46",
"2. c #634E49",
"3. c #75494F",
"4. c #66514C",
"5. c #6B544E",
"6. c #6E584F",
"7. c #73554D",
"8. c #76564C",
"9. c #6E5650",
"0. c #6E5953",
"q. c #715651",
"w. c #755A54",
"e. c #7A5D56",
"r. c #775558",
"t. c #7C5E59",
"y. c #687242",
"u. c #7C6257",
"i. c #7D6159",
"p. c #91180E",
"a. c #881915",
"s. c #961B12",
"d. c #A71D0E",
"f. c #AA1E12",
"g. c #83241D",
"h. c #8A261C",
"j. c #96251A",
"k. c #A72216",
"l. c #B92616",
"z. c #8D1D28",
"x. c #852D23",
"c. c #8B2C22",
"v. c #932D21",
"b. c #81362E",
"n. c #953629",
"m. c #902A32",
"M. c #8F3C30",
"N. c #983835",
"B. c #AC322B",
"V. c #A93929",
"C. c #A5293B",
"Z. c #C32919",
"A. c #CC2B1A",
"S. c #C62D2B",
"D. c #CA3725",
"F. c #CB3535",
"G. c #8C4639",
"H. c #984438",
"J. c #A64534",
"K. c #A74A39",
"L. c #B04A37",
"P. c #C34631",
"I. c #D64833",
"U. c #EF5036",
"Y. c #992847",
"T. c #A62C48",
"R. c #B4314F",
"E. c #834D40",
"W. c #895247",
"Q. c #995547",
"!. c #965E52",
"~. c #A94E49",
"^. c #A45144",
"/. c #B55B48",
"(. c #82645B",
"). c #83695E",
"_. c #8E7155",
"`. c #B3614D",
"'. c #B16954",
"]. c #886562",
"[. c #856C61",
"{. c #8A6D62",
"}. c #8D7265",
"|. c #8C776A",
" X c #917366",
".X c #947669",
"XX c #947A6B",
"oX c #9B7D6E",
"OX c #997E70",
"+X c #AD7163",
"@X c #B57B69",
"#X c #CE4243",
"$X c #D84444",
"%X c #C65A43",
"&X c #C9634B",
"*X c #C06B56",
"=X c #C9755D",
"-X c #E06B52",
";X c #8A8856",
":X c #8CBF43",
">X c #9ABE4E",
",X c #96A955",
"<X c #9E806F",
"1X c #9E8171",
"2X c #B8806F",
"3X c #A38574",
"4X c #A58977",
"5X c #AB8D7A",
"6X c #BC8C78",
"7X c #AF907D",
"8X c #B1927E",
"9X c #C78B76",
"0X c #D69678",
"qX c #FD8665",
"wX c #B59581",
"eX c #BB9B85",
"rX c #B99B88",
"tX c #BDA38F",
"yX c #C19F89",
"uX c #C3A38B",
"iX c #D7A58D",
"pX c #C8AB94",
"aX c #D7B49C",
"sX c #D6BBA5",
"dX c #DDC6B0",
"fX c #E4CDB5",
/* pixels */
"=.=.=.%.%.%.%.%.%.%.%.%.O.%.o.%.%.%.d f s s g O.%.%.} g f f f f f  .O.%.%.%.o.g f f s f f f f i i i ....*.*.*.*.*. .} i i } i ..",
"=.=.=.%.%.%.%.%.%.%.%.%.%.%.%.%.%.O.O.f f f } O.%.O. .g f f f f  . .O.O. .........f f f f f f f ........O.O.O.*.*. .} i i i ..i ",
"=.=.%.%.%.%.%.%.%.%.O.%.o.%.%.%.*.%. . . . . . .*. . . .f f s f f  .O...g ..g ..f f f f } f f f ........O.....O.O...} i i ......",
"%.%.%.%.%.%.%.%.%.%.%.%.%.%.%.o.O.O.O.O.O. .O.%.O.o.o.O. .} f f f  . .g f g f g ..g  .g } f ..f ........%.O.....O.O...f f ......",
"%.%.%.%.%.%.%.%.%.%.%.%.o.%.o.%.o.O.%.O.+.o.O.%.o.} o.o.o.g g f f  . .g f g g g g  .(  .f ( ( ( ....*.*.*.O.O.O.=...*. .......*.",
"%.%.%.%.%.%.O.%.o.%.o.o.o.o.o.o.o.o.o.E ) o.) ) o.g g o.o.g g g g g g g ......f g  .g  . . . .( ......*.O.%.%.*.=.=.=.=.....*.*.",
"%.%.%.%.%.%.O.%.o.o.o.o.%.O.o. .o.g  .o.E  .( g g }  . .g E g f g g g  .g g g .. .g O. . ...o.| ....*.*.*.O.*.*.=.=.=.=.=.=.=.=.",
"%.%.%.%.%.O.%.O.o.O.o.o.o.o.g o.o. .g g  .( (  .E  .g g o.g g g g g  .g g g g g g ( o.O. ...o.o.....*.*.O.*.*.*.=.=.=.*. .=.=.=.",
"%.%.%.%.O.*.O.O.o.o. . . . .g g g g f g E g g E E g g g o.E g g g g g g g g g g g ( o.g  .o.o.o.o.o.O.O.o.%.%.+...=.=.=.=.*.=.=.",
"%.%.%.O.*.O.O.O.o. . .g g g f f f f d E g g d o.o.g g g d g g g g g d f g E g g o.g E o.( o.g o. .o.%.O.O.o.%.%.=.=...*.*.*.=.=.",
"%.%.%.o.o.o.o. . .g g g f f f s s s s g g g f g g g E g f f d E f f g d g d f g  .g g  . . .o.) o.o.| } +.+.O.%.=.=.*.*.*.*.*...",
"%.%.%.*.o. . . .g g f f s p i p s s f f f f d d g f d g d f d f d g g E d d f d f f g g  .E g ) g o.o.%.o.%.O.O...=.*.*.*.*.*.=.",
"%.%.O.O.O...g ..f s s p i i i 7 i i p s d d s s f f f s f s d f f d f d d d s s f d f d f E ( g g  .}  .o. .*.%.+.O.@.@.*.O.*.O.",
"%.O.O.%. . .f f s s i 6 4 4 1 2 2 2 > 4 q p d f q q q 0 7 q q 0 5 3 3 5 5 5 3 7 -.>.d 2 2 p p 7 7 5 4 5 7 p } O.@.@.@.O.*.*.O.*.",
"O.%.%.o.O.} f f s i 4 = = = > $ $ 2 w = + $ p i = 8 a a w w q q u u u w w q 0 ` {.3X5.0 , @ X $ 3 q y w 3 + > } *.@.@.*.@.*.*.*.",
"%.%.%.o. .o. .g i 1 2 0 0 5 0 3 0 2.[.<.+ . 5 4 @ q -.W _ W E W 5.w.6.0.6.-.` w.3XuX8X[.5.3   @ ! u.i.[.r.<   4 | @.O.@.*.*.*.O.",
"%.O.%.o.o.o.} g 5 , u R W ;.:.E >. XyX8Xq.' I , , I W E E -.>.4.(.).(.).(.9.,.5.(..X8XpXpX).- X >.oX5XwXuX}.u # 3 ( O.%.%.%.%.%.",
"%.*.%.o.o.o.g r < w E &.>.w.2.` w.{.oX8XwXwX4.# u E W :.;.5.w.e.(.].}.}.}.{.9.:.7.e. X7XuXeX,.  I [. XoXwX5X)._ @ i %.*.%.O.%.o.",
"%.%.%.o.+.+.y = w W W ! 5.i.2.W 4.w.w.{.uXaXu.X q E &.2.q.e.i.(.(.q.1.5.q.9.! q ;.e.e.i.).8X).# 3 ;.w.e.w.0.XX}.& 5 %.O.O.O.%.%.",
"g o.o.o.%.*.5 # Y &.E ! w.i.w.4.>.6.4.(.8XuX6.X w E ! :.>.9.).].r.Q 8 8 8 8 < & 8 ' e.e.e.)..X4.& q 9.7.W a [.5X& 5 %.%.%.O.%.o.",
"f } } o.%.%.5 O I W E &.w.(.(.t.2.;.2.t..XoX' O W 5.>.! E 2.{.t.! < = # , 8 I w w w ' t.e.w.3X1X# $ ;.;.a E }.3X& 4 o.%.%.O.%.o.",
"s f g o.+.%.5 # I W Y -.e.).e.6.>.E -.w.u.w.w # 1.).e.6.;.<.5.! < 0 I W | 2.q.e.5.U G ;.2.9.3X8X` , u T W 4.oX3X@ 4 %.%.o.%.O.%.",
"f f g o.%.%.5 @ I -.I ` 5.w.:.E ` E ` 4.(.{.U X 2.{.(.(.t.2.w = 5 I :.3.r.r.(.[.].3.t < I 4..XrX3XU # I 4.(.8X5X& 2 O.%.o.o.%.o.",
" . .} o.+.+.5 & E W E E ` ;.I I >.5.-.>.oX8X>.O <.(.e.i.i.>.& X I | :.].).t.w.r.e.{.! & E -.u.uXpXT X Y w.oXuX<X< 5 o.&.%.%.o.%.",
" .O.o.o.o.o.f 4 3 I W E E -.,.2.e.t.1.w.4X}._ T 6.u.e.w.4.-., O a | y.>X>X_.0.r.u.,Xy.: ' ] 5.uXuXE X I i.5X3XW 0 p O.O.%.O.+.*.",
" .O. .o.O.g E p O w -.W E -.w.).(.e.(.wX8X_ 3 u.(.e.t.6.` E 3 # u | y.:X:X;X].].}.,X{ : | >.i.uXeXU @ E }.uX(.X r o.O...O.O.+.+.",
"g  . . .o.o.O.f $ 3 I E W :.6.i.i.{.XX3X}.K L (.u.e.u.6.W T 3 # a L e [ [ ;.4.9.2.<.: O w 2.{.wXwXT # U w. X>.+ s ....@.+.+.+.+.",
"f f g  .g o. .g r < < 5 I E W W -.[.).E u T 2.i.t.e.t.;.9 8 9 w u L 3 > o < < < 8 % . X = ;.(.oX8X` # w I I a q g | ..O.+.+.+.+.",
"f f f g  .g E ..d 7 2 , 3 3 , & , U T = = E q.i.t.e.u.U K H K H G H w d L R , O 8 & , 8 & U e.}.7X` . - 2 4 7 f  . .| o.+.+.+.+.",
"f f f g g g g g d f p 7 , # # , , < 5 a R E >.(.(.t.! Q G.W.E.W.W.7.w.i.9.T R U 5.;.<.<.- I e.}.7X` . $ 7 r p f (  . .o.+.+.%.+.",
"f f f f f g g f f f d s 7 # = I I q a >.0.>.` 4.5.! J G.`.`./.=X8XwXtXpXtX[.I w (.i.q.! 8 ;.w.[.5X` X 6 i p s f g ( +.o.o.O.O.+.",
"....g g  .g g f d d s f p = 3 -.-.E :.w.i.w.>.W W U 8./.&X%X%X=XiXsXfXfXfXpX|.' W -.I 9 ;.w.:.4.4X` + 7 p s f f g g g g (  .( Y ",
"O.o. .E  .( g g g d d g p = 3 _ W E >.t.(.t.6.>.' 1.'.&X%X%XP.=XiXdXfXdXsXsXsXrX0.1 3 ' u.5.w :.4X' + i s s f f g g g g f f f f ",
"%.O.O.o.o. . . .E g g d p = < W W Y >.t.e.e.e.>.J W.&X%XL.J.L.*XiXfXsX9X@X6XaXsX<XY E w.w.:.W w.5X` + 7 s f f g g g g g f f s f ",
"o.O.o.o.o.g E  .( g g d s = 3 _ _ E <.u.u.e.u._ K G.L.K.n.c.c.H.+X6X@X`.K.Q.3XuX<XK q 4.-.>.5.{.wX-.+ i f f g g g ) g g f s f f ",
"%.O.O.o.o.o.( g g g d f i # = a w 5 I <.e.e.>.q J H.J.n.g.C M V b.H.K.J.v.x.W..Xi.I a W E 0.w.e..XI + 4 7 5 p ( o.) o.o. . . .f ",
"o.o.o.o... . .( g g g s , @ O = = # = w <.I 3 J J.L.l.h.m m b b ~ b.n.n.a.n / 9.q.:.a W <.w.>.I T = X # # # 4 s ) o.g o.O.O. . .",
"o.%.%.o.....O.( g ( p 2 3 3 , 0 ,.4.<.! I I Q '.-XU.l.p.n v v l b ~ x.j.M b c R 2.T | 4.w.' w 0 0 < a <.4.,.w 2 f O.o.%.O.O.O.O.",
"o.%.o.o.O.| ....Y s 3 8 a Y a ,..X8X8XXX] I q.0XqXU.l.j.n l k l x b ^ h.n x z u :.&.-.6.<.w 0 a a I 0.1X8X8X).w y d o.O.o.%.%.o.",
"%.%.O.o.O.O.O...| 2 - I W W ,.w.).4XuXuX<XE I +X-XU.A.s.m l k k c ^ n.c.b x h G ;.-.E E 9 w Y E W 4.i.|.8XuXuX).= 7 o.%.o.o.%.g ",
"O.%.o.%.o.o.o.o. .> , E W <.w.e.e.(.3XuXwXT < -.G.l.D.k.C v k j x / J.h.n k h H ;.>.E w = 0 E _ 4.e.e.e.).5XpX3X& 2 %.%.o.+.+.| ",
"o.%.%.o.o.o.+. .| , = I W 5.i.i.w.6.i.3X5XE O a J V h.j.h.n l j x G.K.n.M x h H <.>.E w # 0 :.4.e.t.w.q.e.).8X3X% 4 O.O.O.+. . .",
"o.O.O.o.+.o.o.+. ., = I _ 5.i.w.w.7.7.{.3XE 5 w K N V x.h.C C b ^ /.=XL.h.n x H >.2.E 2 @ 0 -.0.e.t.w.w.7.w.3XoX& 4 %.%. .%.O. .",
"%.o.o.o.o.o.o.+.%.& - Y _ 2.e.e.w.4.q..X5XT , I H B V x.h.C g.h.n./.0X9XJ.c.^ P ! 5.;.& . 0 _ :.w.(.e.w.7.e.4X3X& 2 o.%.*.O.%.o.",
"O. . . . .o.o.%.o., , Y W ` 4.t.(.t. X8X3XR 3 ;./ / G.H.n.x.x.c.x.H.@XiX&XT.Q.!.4.e.7.T - 0 E -.w.i.e.e.(.OXeX.X= 5 +.%.%.O.%.o.",
" . . . .o.o.o.+.o.p 3 0 E W _ q.oX3X8X4X4.q T 1.8.Q.^.K.M.h.C g.a.c.*X9X`.N.~.@X Xe.>.u.6.I 0 W 2.4.>.0.oXeX3XU q s +.+.%.o.%.o.",
"g f o.o.o.+.+.+.o.o.d 2 3 0 3 I w.u.u.5.U T >.H 1.8.7.3.b.g.g.a.a.C.~./.Y.z.m.W.u.' G ,.oXW @ 9 0 8 3 I 7.).! 5 f %.+.%.+.%.%.o.",
" . .g g o.+.+.+.o.O.W d , # X O - , = w 2.e.;.9 H G w 9 J M a.a.s.k.k.j.h.a.n J G w 9 ;.5X! . @ & # # # = < y g +.%.+.%.%.%.+.O.",
" .........*.O.O. .%.o. .f y $ O 0 u 0 Y w.(.e.u w a 7 < z M p.p.d.l.f.p.a.m c H 9 w _ 8X5XU @ 7 d s p p s p s +.&.%.%.%.o.+.+.+.",
" . ..... .O.*.%.O.O.O. .O.g , # Y _ E -.w.i.(.q.E a W 9 V j.s.p.f.l.k.d.a.x N R 0.).5X4X6.w 7 g o.E  .o.d o.+.+.O.O.%.+.%.%.+.+.",
" .f ..O.*.%.O.%.+.+.|  .o.g 7 , q E E -.w.i.(.w.;.&.' ~ n.B.k.j.k.l.l.d.p.l ; W 4.e.OX}.0 2 s ( g  .|  .o.o.o.o.O.o.%.%.%.%.%.+.",
"f ....@.*.*.O.*.+.+.} O.o.f d r & q W -.2.7.w.w.w.W ~ V.P.I.V.l.l.Z.Z.l.d.v ; I 6.w.XX_.3 1 ( (  . . . .o.o.%.o.%.%.+.%.%.%.%.+.",
"i ....*.*.*.*.O.%.O.o.o.o.f d p O 8 W _ ! -.2.t.U ^ B.I.$XI.P.A.A.A.A.A.Z.a.z a q.w.3X X8 1 ( s g O. .o.O.%.o.%.%.o.%.%.%.%.+.%.",
"f f  .*.*.*.O.*.o.%.O.o.g g g p O & q E W ;.q.K / B.$X$X#X#X#XF.S.S.S.S.F.B.F G 2.}.wX.X9 1 p p f g E o.o.o.o.%.+.%.%.%.%.%.%.%.",
"f ......*.*.*.*.%.%.O.o.g f d f 2 X < E &.<.u P Y.R.R.T.T.T.T.T.C.C.C.T.T.R.Y.D 0 |.5X2.= 1 7 q p d g o.%.O.%.%.%.%.%.%.%.%.%.%.",
"........*.*.*.*.%.%.%.o.E s q p p , < I a , * Z F D S S S S S S S S S A S D F Z * 0 4.@ X 2 y y d d o.%.o.%.%.%.+.%.%.%.%.%.%.%.",
"=.+.%.%.%.%.*.*.%.O.O. .g s p q 7 6 = q = + O % % % O % O O O X o O O O O % % % $ q = X $ 7 y y f f | O.@.#.=.+.%.%.%.%.%.%.%.%.",
"*.=.*.*.%.*.*.*.%.%.O. .g f p p 6 6 2 $ 3 5 7 7 6 6 6 6 7 7 7 7 y q p 7 7 7 7 5 # X # > 6 7 y 5 f f } +.+.@.*.=.%.%.%.%.%.%.%.%.",
"*.=.=.=.*.*.O.*.%.O.o.E E g g f p 7 5 6 6 6 6 1 > 1 , 2 6 6 2 8 7 7 q p p 7 7 6 6 6 7 r 6 7 i p f W | +.@.@.=.@.%.%.%.%.%.%.%.%.",
"=.=.=.=.=.*.%.%.%.%.%.o. . .E o.( g p q r p p 6 : 2 6 7 7 7 7 7 i s s p y y 7 i y p p a p y s s g O.+.#.+.=.#.=.%.%.%.%.&.%.%.%.",
"@.=.=.=.*.*.*.*.%.%.%.+.O.O.O.*.o. .g f d d s s p r p p s 7 p p d f f f p y p p f p d d f f g f } ..*.*.=.#.=.#.*.*.=.*.*.%.%.o.",
"=.=.=.+.O.....*.%.%.%.O.*.*. .*.%.o.o.g g d d f g g g d d d s s g ) g g g d d d g f d g g } f } } ..O.*.@.=.#.=.*.*.=.*.=.%.o.f ",
"=.=.=.=.....} o.%.%.%.%.%.%.*.*.%.O.o.g g ) g o.) ) ( g g g g g ) ) ) E ) ( E  .} ....} g f f f g O.*.*.*.@.*.*.*.*.*.*.*.O.f p ",
"=.=.=.+. .f } %.=.*.%.%.%.*.*.*.%.O. .( g o.(  .( ) ) ) g g o. . .E ) g ) ) )  .o.O. .g f f f f d } *.*.=.+.*.*.*.*.*.*.*. .f f "
};
