/* XPM */
static char *YXRrXzM_[] = {
/* columns rows colors chars-per-pixel */
"64 64 216 2 ",
"   c #060307",
".  c #0E0B10",
"X  c #150C13",
"o  c #1A0E15",
"O  c #141216",
"+  c #1C1117",
"@  c #161218",
"#  c #1C1419",
"$  c #1D1A1D",
"%  c #260F13",
"&  c #22151B",
"*  c #2A131A",
"=  c #231A1E",
"-  c #2A1A1E",
";  c #38151D",
":  c #261620",
">  c #241D21",
",  c #2A1D21",
"<  c #351C21",
"1  c #1F2022",
"2  c #242324",
"3  c #2C2225",
"4  c #272827",
"5  c #262529",
"6  c #2A2629",
"7  c #27292A",
"8  c #2C2C2C",
"9  c #322326",
"0  c #3C2424",
"q  c #342629",
"w  c #342A2C",
"e  c #3B2C2D",
"r  c #3F322E",
"t  c #2D2E30",
"y  c #342D31",
"u  c #3B2F30",
"i  c #2E3434",
"p  c #333434",
"a  c #3E3233",
"s  c #363837",
"d  c #353A3A",
"f  c #3C3D3D",
"g  c #4E110F",
"h  c #4F1011",
"j  c #44151B",
"k  c #551614",
"l  c #671417",
"z  c #631B15",
"x  c #771613",
"c  c #5B241D",
"v  c #662418",
"b  c #6C211A",
"n  c #79261C",
"m  c #451823",
"M  c #57172B",
"N  c #69182A",
"B  c #761928",
"V  c #6E1932",
"C  c #7D1E33",
"Z  c #462D2B",
"A  c #5E2A24",
"S  c #59332E",
"D  c #413030",
"F  c #433535",
"G  c #4B3433",
"H  c #443837",
"J  c #4C3937",
"K  c #4B3738",
"L  c #453A3A",
"P  c #4B3D3B",
"I  c #533533",
"U  c #593936",
"Y  c #523E3B",
"T  c #652A22",
"R  c #742B23",
"E  c #7B2C22",
"W  c #663127",
"Q  c #64342D",
"!  c #6C342D",
"~  c #7C3327",
"^  c #74332B",
"/  c #623732",
"(  c #693B35",
")  c #733A33",
"_  c #743F39",
"`  c #43403F",
"'  c #4E403E",
"]  c #53413E",
"[  c #59413E",
"{  c #63443E",
"}  c #6C433D",
"|  c #3F3F40",
" . c #3F4040",
".. c #3E4141",
"X. c #404141",
"o. c #424141",
"O. c #414242",
"+. c #424343",
"@. c #434444",
"#. c #444444",
"$. c gray27",
"%. c #454646",
"&. c #464646",
"*. c #464747",
"=. c gray28",
"-. c #4A4645",
";. c #474848",
":. c #484848",
">. c #544441",
",. c #5A4643",
"<. c #5D4A46",
"1. c #5C4B47",
"2. c #694743",
"3. c #624A46",
"4. c #6A4A44",
"5. c #634E49",
"6. c #694E49",
"7. c #744B44",
"8. c #66524C",
"9. c #69544A",
"0. c #6B534D",
"q. c #71534C",
"w. c #7C5248",
"e. c #6D5650",
"r. c #6E5952",
"t. c #715651",
"y. c #745A54",
"u. c #7A5D56",
"i. c #7C5D58",
"p. c #786156",
"a. c #7D6159",
"s. c #861D12",
"d. c #A61C17",
"f. c #B51B13",
"g. c #83251A",
"h. c #89281C",
"j. c #90261A",
"k. c #942D1C",
"l. c #9C311E",
"z. c #A5281B",
"x. c #B62319",
"c. c #A8331F",
"v. c #8A1E2A",
"b. c #872D22",
"n. c #962925",
"m. c #8A3323",
"M. c #843528",
"N. c #8D3B2A",
"B. c #9A3322",
"V. c #963927",
"C. c #952736",
"Z. c #873138",
"A. c #A7292F",
"S. c #BB2F27",
"D. c #A53724",
"F. c #B93A26",
"G. c #BB3735",
"H. c #C72B1B",
"J. c #C7311F",
"K. c #D3311C",
"L. c #C52C22",
"P. c #C93825",
"I. c #D53826",
"U. c #93412C",
"Y. c #8D4535",
"T. c #984933",
"R. c #A6422C",
"E. c #B4422C",
"W. c #BA432A",
"Q. c #AD4932",
"!. c #B64B34",
"~. c #A8543A",
"^. c #B8533D",
"/. c #CC5034",
"(. c #962A44",
"). c #945949",
"_. c #BB4F43",
"`. c #A75542",
"'. c #BA5B46",
"]. c #82645C",
"[. c #8B675C",
"{. c #84695E",
"}. c #9B695A",
"|. c #AF624F",
" X c #B16049",
".X c #856C61",
"XX c #8A6D62",
"oX c #8D7365",
"OX c #917266",
"+X c #937669",
"@X c #947A6B",
"#X c #9A7D6E",
"$X c #9D7F70",
"%X c #A07F6D",
"&X c #C46844",
"*X c #DB6941",
"=X c #D9764C",
"-X c #E7784B",
";X c #EF7E4F",
":X c #9C806F",
">X c #9F8271",
",X c #A38474",
"<X c #A68977",
"1X c #AC8D7A",
"2X c #BB8871",
"3X c #AF907D",
"4X c #B2937E",
"5X c #B8917B",
"6X c #D98156",
"7X c #E68656",
"8X c #B69581",
"9X c #BB9C86",
"0X c #C09E87",
"qX c #C4A38B",
"wX c #CCAA91",
"eX c #D8B69A",
/* pixels */
":.:.:.=.=.=.=.=.=.=.=.=.@.=.+.=.=.=.| d d d  .` @.=.@.d d d i d d +.=.@.=.@.@.f d d d d d d d d d d d ..@.=.;.;.=.@...d i d d d ",
":.:.:.=.=.=.=.=.=.=.=.=.=.=.=.=.=.+.` d d d f @.=.+.@.| d d d d d  .+.+.@... . .d d d d d d d d d d ....%.%.=.@.%. .d i i i d ..",
":.:.=.=.=.=.=.=.=.=.@.=.+.=.=.=.+.=.@.|  .|  .@.@.@.` ..f d d d d O.O.@.d ..f ..f d  .d d d d d ........%.......@...f i i d ....",
"=.=.=.=.=.=.=.=.=.=.=.=.=.=.=.+.+.@.@.+. .@.@.@.@.@.@.| +.f d d f O. .d d f d f ....d d ..d ..d ....;...%...@.@.@.@...d ........",
"=.=.=.=.=.=.=.=.=.=.=.=.+.=.+.@.@.@.@.@.@.@.@.+.` ` `  .+.f f d d O. .f ....d ..f f  . .f f  . .....;.;.%.%.%.%.;.;.;. ...;.;.;.",
"=.=.=.=.=.=.@.=.+.+.+.+.+.+.+.+.+.@.+.| +. .` ` | | | `  . .f d f f f f f f f f f  . .f  .|  . .......;.%.%.%.%.;.;.;.;.....;.;.",
"=.=.=.=.=.=.@.=.=.+.+.=.+.+.+.+.`  . .` f ` | | | f | | | f f f f f  .f ..d f f f | f O.+. .@. .....;.;.%.%.;.=.;.;.;.;.;.;.;.;.",
"=.=.=.=.=.@.=.@.+.+.+.+.+.+.+. .| | | | | f  .f f | f | f | f f f f f f f f f ..f +.+. .O.O.@. ...;.;.;.%.%.%.%.;.;.;.;.;.;.;.;.",
"=.=.=.=.@.=.@.@.+.+. . . . .f f f f d f H f f f L L f f f f f f f f f f f f f H f f +.+.+.+.| ` o.#.#.#.O.=.=.-.;. .%.=.=.%.;.=.",
"=.=.@.=.=.@.@.@.+. .f f f f d d d d f f f f L f f f s f f f f f f f d f s f f f | | f | ` ` ` @.#.| #.#.#.#.=.#.;.;.;.%.%.;.%.=.",
"=.=.=.@.+.+. .@. .f f f d d d p s s d d d f f d f f L f f s s L f s f s s f d f | f f L | f | | +.| +.#.#.#.=.#.=.;.%.=.%.;.;.%.",
"=.=.=.@.@. . . .f f d d p d p i s s d d d f a s f d f s f s s f s s f f f f s s f d f  .| | | | +.o.#.#.#.#.#.#.=.%.=.@.=.%.=.=.",
"=.@.=.+.+. .f f d d d i i i i i i i p s s s d d d p d d p d d s s s d d s s s p p d s d d L | f L | | | | #.=.#.#.=.=.=.;.=.@.=.",
"=.=.;. .@. .f d d p i 7 5 2 5 1 5 1 1 5 w p d p y w w w w w w 6 6 3 3 6 6 9 6 8 -.,.s 2 5 y p w 8 5 5 5 t p | #.=.O.O.=.@.=.@.=.",
"=.=.;.+.@.f d d d i 2 > = = $ $ $ 3 w > o $ p y : 9 e F e e 9 w r a r u u w 9 ] XX,X0.q > O X = 3 w y w 3 @ > | =.=.=.=.=.@.=.=.",
"=.=.=.+. . .| f i 1 3 w 9 6 9 3 3 8.XX3.O . 7 5 @ w >.P -.P L >.9.t.e.e.0.>.>.y.,XqX4XXX0.3   + P y..X.Xy.,   3 | =.O.=.=.=.=.@.",
"@.=.=.+. .+. .f 5 , u L P ,.>.P 1.OX9X8Xe.Y H $ , F P F L >.,.5.i.].]..X].e.1.0.i.+X8XwXwX{., X 3.#X<X8XqXoXe # 6 f :.:.=.:.=.O.",
"=.=.=.+.=.+.f 8 , e P P 1.y.5.' y.XX@X8X8X8Xe.+ y P P >.<.e.u.u.].XXXXOXOXXXe.<.y.u.oX1X0X9X<.  H .XOX#X8X1X.XP # p O.=.O.:.:.:.",
"=.=. .=.=.@.y > u P L ' e.a.5.' e.y.y.OXqXeXp.X w P >.5.e.y.].].].t.e.0.0.q.Y w ,.u.].i.oX1X.X# 3 ,.t.i.y.e.@XoX& 6 =.=.=.+.=.O.",
"f +.@.+.=.=.6 # F -.H >.y.i.y.5.<.6.e.].4XqXe.X w P P >.,.y.]..Xi.K < , q q , o 9 ,.y.u.y..X+X8.$ e t.t.P a .X1X& 2 =.=.+.=.=.#.",
"f f  .+.=.=.6 + F P H ' y.].].u.5.>.5.i.+X#X] + Y 5.5.>.L 6.XXi.K , : # : q u F e e ,.i.u.y.,X>XO & ,.,.a L oX,X& 5 +.=.=.=.=.#.",
"d d | +.+.=.6 # F P H >.u.].u.e.<.P >.y.i.y.e # 5.].y.e.,.5.6.P < w L P P 5.y.u.4./ I [ 5.y.%X8X] , e L ' 5.#X,X+ 6 O.=.#.+.+.#.",
"d d f +.=.=.3 # H >.H ' e.t.,.P Y P ] 0.].XXG X 5.XXa.].i.1.e : 6 L 1.y.i.i..X].7.! / q H 5.oX9X<XF # F 8.].4X1X& 5 #.=.+.#.=.=.",
"f  .| +.+.+.6 & F ' L K >.,.H F <.0.>.<.#X3X<.# 3.].i.].].1.# X F ,.5.u.i.u.u.t.( ^ / 0 P >.y.qXwXJ X H u.#X0X,X, 3 +.=.#.=.#.#.",
"..@.@.@.O.+.s 5 3 F P H H >.1.5.y.i.6.y.<XoXJ J t.a.y.6.5.>.> o F <.r.i.i.i.i.e.( ( { Y 6.>.8.qXqXJ X H a.1X,XP 8 p O.=.#.#.#.#.",
".... . .O. .+.y + e >.P L ,.y..X.Xu..X1X9X' 3 p.a.t.} ) _ ( u + F 5.y.a.a..X.Xa.q.q.3.Y 5.<.u.1X,XJ O J oXqX].X t +.| #.#.#.=.#.",
"f f  . . .O.@.d & 3 H H P >.e.].a.XX+X$XoXr F ].].q.) m.b.M./ , a P >.5.5.6.6.e.0.6.K , u 5.q._ ! ! 0 K e.+X,.+ p  .+.+.#.#.#.#.",
"d f f  . .L O.f 8 3 , 6 F L P P >.XX].P e J 6.a.i.q._ b.j.j.Z.I a F < q q e 9 , F q : o : U ^ E g.n R I D F a 8 | +.+.O.#.#.#.#.",
"d d d f f .. .f d 8 5 > 3 9 , & > P P > & P t.i.i.u.7.~ g.j.b.( L >.0 & K Y : o u : , 0 = U ^ g.h.g.E Q 6 5 t d  . .+.+.#.#.#.#.",
"d d d d f f f f d s p 8 2 + + > = , 3 u H H 1.].].p.u.} ^ ~ ) I J 8.J G 2.6.3.3.0.] 3.,.: K ) ^ E E ! Z 7 t p d  .L L #.#.#.o.=.",
"d d d f f d f d d s s s 8 + = H F w a 1.y.<.>.5.0.y.y.0.6.2.{ q w >.[ / W ! ) _ w.u.e.Y 0 <.5.7.7.( Z 5 i p d d f  .+.+.| =.=.+.",
" . ...f f f f d s s s d p $ , >.' P ,.y.i.y.<.P ] e.t.1.,.,.' u , F S W v c M A T S Z 0 <.e.<.8.<X' @ t p s d d f f f f | f +.| ",
"+.+.f L f +. .f d f s s p > , ' P H 5.p.a.a.q.<.3.t.t.,.H H L a Z Q Y.V.h.z z z k T Q I 6.y.e.1.>X] O i p d s s f f f f d f d d ",
"@.@.@.+.+.f  .f f L f f p > , P P H ,.u.a.u.i.i.u.,.F e 3 w e 0 Q Y.Q.F.l.h.n h.g.m.Y._ w.[.t.r.#X] O 8 d s d f f f f f d d d d ",
"=.+.=.+.+.f | f f f d p p : , P L H ,.y.u.u.].].3.e > - , e G ! V.!.W.D.k.k.c.D.D.E.^.~.).}.r.{.1X] O i s s f f | | | f f d d d ",
"=.+.@.+.+.+. . .L f f d d $ , ] P H <.u.a.u.u.3.e 9 u w H p.#X>X|.W.F.k.g.m.D.E.E.E.!.^.'.).3.i.4X,.@ i f s f f ` | | | | d  .d ",
"@.=.+.+.=.|  .L f f d f s > , P ` H <.i.].a.,.9 9 a L ' 5.{.,X0XqX`.B.h.n b.R.Q.R.B.R.!.`.} e >.,X[ $ p f f f f | | | @. .@.|  .",
"@.@.@.+. .L +.f L f d f s w , u P P -.0.].].J + a P >.8.y.i.{.,X9X2XE b z E N.N.U.k.l.N.{ 6.8.5.] 6 7 d f f | f | | ` @.@.=.+.+.",
"=.+.=.+.#.o. .|  .L L d s s 8 , u P P Y e.].P o e P >.y.a.y.q.i.>X5XM.~ b z R N.U.U.V.3.+X4X9X@XK > t f f L f | +.| ` @.=.+.@.@.",
"+.=.+.+.O.| O.| | f f f f d p 8 & w H P ,.y.J # a -.[ a.a.y.y.0.].,XT.T.E z n ~.&X^.} y.{.<X9XwX,XZ = d f f f |  .` ` @.O.@.@.@.",
"=.+.O.=.+.+.| L  .f f f f d f p X o w P P ,.e + H ] ,.u.i.y.y.0.y.,X).~.N.v M.&X7X&Xy.].y.].>XqXqXP # p f f |  . .+.@.@.@.+.=.+.",
"=.=.+.=.+.+.@. . .L f f f f f p X & 3 , 6 F 9 # F >.Y 8.u.u.e.y.+X9Xw.T.T.~ T.=X7X^.a.w.t.t.u.,X4XP @ p f f |  .+.+.` @.@.+.+.@.",
"+.=.+.+.+.+.+.+.f f  .f f d a 7 , e e > & 3 3 = w H P ] 0.XX+X>X4X:X! M.Y.T.^.7X*X).a.p.i.t.0.[.1X] # d f f f L f @.@.@.+.=.+.=.",
"+.=.+.f  .+.+.+.+.+.f f f f 7 - u P H a a q w F q w w w H t.oX@X@X{ R v R ~.6X=X!.N.a.].p.q.q.@X1X] O p f +.+.+.` ` @.@.+.=.@.+.",
"@. . . . .+.+.+.f +.f f f f 6 # F -.H >.5.3.3.r.[ e - & = e H Z ! N.n z z '.7X=XV.n a.a.p.p.oX4X1XJ $ p f | ` | +.+.+.+.@.=.@.=.",
" . . . .+.+.+.+.+.+.L | f f 6 o F P Y 3.7.2.6.].].3.P J J G W U.!.~.U.n V.&X7X-XR.k.} [ 8.oX9X4X0.w w d | `  . .+.+.+.@.-.+.-.+.",
" .f |  .=.@. .@.+. . .f L  .6 o F P ,.) E ^ ( 3.r.u.].p.{ v h.E./.|.'.^./.*X7X*X/.F.l.- 3 1.XX9.w a ` +.| | ` +.-.+.+.=.@.@.@.+.",
"....| f +.+.+.=.+.+.+.f  .| 3 o F P ( E n n ^ ( P 8.y.6.! m.c.F.E.Q. X XF.F./.*X/.H.F.h.0 = + 3 p U ! Y | ` @.+.+.=.+.=.;.=.@.=.",
"........O.O.;.=.O.=.+.`  .f 5 o F ' U ! ^ ^ ) <.H H Y / M.c.c.c.n.A._._.A.d.S.I.F.f.f.z.M.Z O 8 L U R ! ` @.` +.+.=.+.=.=.=.=.+.",
" ....... .=.@.@.O. .o.+.+.s > o F ' H ] 2.6.y.e.H w Z W m.l.k.h.s.d.P./.S.x.L.L.H.f.f.x.l.W e f +.L S ! +.L +.+.+.=.+.=.=.o.=.+.",
"d ......=.@. .=.=.#.| | +.f 8 > w H L ] y.a.].0.e , ; c v v l l s.x.K.I.I.P.K.K.H.f.f.z.k.~ S F +. .` ' O.=.+.+.=.=.=.=.=.=.=.=.",
"d f ..;.=.;.;.;.#.#.#.+.| f d t # w ' ] 9.q.t.3.; j k k h h g k j.L.I.P.F.L.K.K.K.z.x b v v Z s s  .L O.+.+.+.=.@.=.@.=.=.+.=.+.",
"d d ..;.;.;.=. .=.@.+.+.+.f d p + 9 J ' ] ] { J Z N B B l l l N C.G.G.C.v.d.L.I.J.h.k h k k ; F f +.| #.+.=.+.=.=.=.=.=.=.=.=.O.",
"d d ..;.;.;.;.;.+.=.+.+.L d f p + # w L ` ] 1.q m N C V B B V v.C.(.C.C B v.A.A.B.R l l k k j w p f f +.+.+.+.=.=.+.=.=.=.=.=.=.",
"d ....;.;.;.;.@.=.=.@.+.L p d p 2 X 3 f ] 9.5.w % ; ; < j m M M M M M M M N V V V l l l x l m 8 d s L +.+.+.=.+.+.=.=.=.=.=.=.=.",
"........;.;.;.;.=.=.;.@.f d p w p > , r a a ] r.5.q & , < , , , : : : * * * * * ; ; g h g g w 8 s f ` =.+.=.=.=.=.=.=.=.=.=.=.=.",
"=.=.=.=.=.=.=.=.@.=.+.+.f p p 8 8 8 = & + + % - , $ 1 4 4 8 8 4 t y w 2 2 $ # + - - * % - - 8 p p f L +.@.=.=.=.=.=.=.=.=.=.=.=.",
"=.:.;.=.=.=.=.;.=.=.=.L f d p p 8 4 2 $ $ $ $ O O $ $ 1 2 4 4 4 8 8 7 8 8 2 $ $ O O = 3 8 w t 8 d f | =.@.=.=.=.=.=.=.=.=.=.=.=.",
"=.:.:.:.;.=.;.@.=.@.@.f f f f d i 8 4 4 4 8 4 1 1 1 2 2 4 4 4 4 8 8 i p p t 8 7 7 4 8 w 4 8 w t d L +.@.=.=.=.=.=.=.=.=.=.=.=.=.",
":.:.:.:.:.;.=.=.=.=.=.+.+.+.L =.f f p t 8 p i 8 4 4 4 8 8 8 8 8 y p p p y t t 8 8 p d d p p s f f +. .=.=.=.=.=.=.=.=.=.=.=.=.=.",
":.:.=.=.;.;.;.;.=.=.=.+.+.+.+.+. .+.f s s d d i p p y p t t p y p f f f s t y p d p p p d d f f  .+.=.=.=.=.=.=.;.;.:.:.-.=.=.+.",
":.:.;.=.......;.=.=.=.=.=.=.=.=.;.;. ...s f p f f f f s s s s f f f f f f s s f f f d f f f d f |  .=.=.=.=.=.=.;.;.;.:.;.=.| d ",
":.:.:.=..... .+.=.=.=.=.=.#.=.=.;.`  .f  . . .f `  .` f f f f ` ` f | f f f ` `  .@. .f f d d d f  .=.@.=.=.;.;.;.;.:.:.;. .f d ",
":.:.;.=. .f  .=.:.:.=.=.=.=.=.#.;.`  .`  .`  .f  .` ` ` f ` f f ` f f +.` ` f ` .... .| d d d d f +.;.;.=.;.;.;.;.;.:.;.;. .d i "
};
