/* XPM */
static char *collect_d_21678372416[] = {
/* columns rows colors chars-per-pixel */
"64 64 212 2 ",
"   c #2D0F15",
".  c #330F12",
"X  c #261219",
"o  c #2C121A",
"O  c #2C191D",
"+  c #311115",
"@  c #39171B",
"#  c #341D23",
"$  c #2C2527",
"%  c #322627",
"&  c #342A2C",
"*  c #2E3636",
"=  c #353434",
"-  c #3D3636",
";  c #3B3638",
":  c #343A3A",
">  c #3A3E3D",
",  c #4E0C0E",
"<  c #4C170F",
"1  c #52160F",
"2  c #540F16",
"3  c #4F1311",
"4  c #471A1C",
"5  c #551214",
"6  c #591916",
"7  c #54131A",
"8  c #690E13",
"9  c #6A1717",
"0  c #621A15",
"q  c #6D1E18",
"w  c #761317",
"e  c #741C15",
"r  c #7B1D15",
"t  c #5C231D",
"y  c #642219",
"u  c #6C221A",
"i  c #74231A",
"p  c #7C251B",
"a  c #772A1F",
"s  c #7D2A1E",
"d  c #591529",
"f  c #61162D",
"g  c #64182A",
"h  c #7A1524",
"j  c #7B1B27",
"k  c #74192C",
"l  c #7A1C2B",
"z  c #621935",
"x  c #651935",
"c  c #7B1B33",
"v  c #721D39",
"b  c #422423",
"n  c #472A26",
"m  c #452C2A",
"M  c #4A2B28",
"N  c #5C2922",
"B  c #532C29",
"V  c #47332F",
"C  c #54322C",
"Z  c #5C312B",
"A  c #423433",
"S  c #4B3533",
"D  c #493936",
"F  c #423B3B",
"G  c #4B3E3D",
"H  c #543632",
"J  c #583A36",
"K  c #5A3E3A",
"L  c #652C24",
"P  c #742D24",
"I  c #7C2B21",
"U  c #742F28",
"Y  c #6A3227",
"T  c #65332C",
"R  c #6C342D",
"E  c #763526",
"W  c #73322A",
"Q  c #7C342C",
"!  c #72392F",
"~  c #7C3A2B",
"^  c #623631",
"/  c #683731",
"(  c #643A35",
")  c #693A34",
"_  c #623E39",
"`  c #683F39",
"'  c #733B34",
"]  c #7A3A33",
"[  c #3B403F",
"{  c #44403F",
"}  c #4F403E",
"|  c #51413F",
" . c #5C423E",
".. c #64413C",
"X. c #6C413C",
"o. c #3E4141",
"O. c #444545",
"+. c #4A4444",
"@. c #474847",
"#. c #494847",
"$. c #474848",
"%. c #4B4A49",
"&. c #554543",
"*. c #5B4542",
"=. c #534847",
"-. c #5C4846",
";. c #524D4C",
":. c #5A4E4B",
">. c #56504F",
",. c #5A514E",
"<. c #575251",
"1. c #5D5250",
"2. c #634945",
"3. c #674944",
"4. c #644E4A",
"5. c #64524E",
"6. c #75544C",
"7. c #645653",
"8. c #811C15",
"9. c #8B1F14",
"0. c #9E161E",
"q. c #AC1D0F",
"w. c #A61B16",
"e. c #B31712",
"r. c #84251B",
"t. c #892518",
"y. c #852B1F",
"u. c #8D2A1C",
"i. c #922117",
"p. c #962319",
"a. c #942B1D",
"s. c #9E2B1C",
"d. c #88311E",
"f. c #9A311F",
"g. c #A32216",
"h. c #A9271B",
"j. c #BC2416",
"k. c #B8271A",
"l. c #A7331E",
"z. c #B3371F",
"x. c #881E28",
"c. c #852520",
"v. c #822D22",
"b. c #882F23",
"n. c #912C21",
"m. c #823325",
"M. c #8C3425",
"N. c #8B3B2A",
"B. c #943423",
"V. c #9B3221",
"C. c #943D2B",
"Z. c #93263B",
"A. c #B22221",
"S. c #A43623",
"D. c #A63726",
"F. c #AB3924",
"G. c #B43A23",
"H. c #BE3C26",
"J. c #B73729",
"K. c #A32637",
"L. c #B53532",
"P. c #C72C1B",
"I. c #D42F1C",
"U. c #CC311E",
"Y. c #D7321D",
"T. c #C43B25",
"R. c #CE3B25",
"E. c #CE332E",
"W. c #D73A25",
"Q. c #C13232",
"!. c #8F412D",
"~. c #96442E",
"^. c #874335",
"/. c #994A36",
"(. c #9F5035",
"). c #A2432D",
"_. c #B4432B",
"`. c #BC4229",
"'. c #BD462B",
"]. c #A94432",
"[. c #AB4B33",
"{. c #B84132",
"}. c #B54B32",
"|. c #BA4933",
" X c #A6553B",
".X c #B7583B",
"XX c #C64329",
"oX c #C34A2D",
"OX c #CA4839",
"+X c #CA5737",
"@X c #C0573B",
"#X c #DC5737",
"$X c #D9613D",
"%X c #E9653D",
"&X c #AA3049",
"*X c #8F574A",
"=X c #AE5E47",
"-X c #B45544",
";X c #8E695D",
":X c #B86346",
">X c #AE6956",
",X c #C05D50",
"<X c #C76F48",
"1X c #D86B42",
"2X c #CD7148",
"3X c #DC7D4F",
"4X c #EF784B",
"5X c #ED7E50",
"6X c #D88258",
"7X c #F2814F",
"8X c #E48254",
"9X c #EA8959",
/* pixels */
"$.$.$.$.$.$.$.$.$.%.$.%.+.$.$.%.$.+.o.: * : o.O.$.%.O.> * * : : : o.%.$.%.$.$.> : : : : * : : : : : : o.O.$.$.$.$.o.: : * : : : ",
"$.$.%.$.$.$.$.$.$.$.$.$.$.$.$.$.%.$.O.> : : o.O.%.$.O.> : * * * > $.$.$.$.o.o.o.> : : : : : : : : : > o.O.$.$.$.$.o.: * * * : : ",
"#.@.#.@.$.O.O.O.$.$.$.%.+.%.$.%.%.$.O.o.o.o.O.$.$.%.O.O.> : * : > o.$.o.o.o.o.o.o.> > > > : : : > O.O.O.$.o.o.O.O.o.; * * : o.o.",
"$.O.O.O.o.o.o.O.+.$.$.$.$.$.$.$.$.$.$.+.$.$.$.$.$.$.$.O.O.o.> > o.$.$.o.o.o.o.o.o.o.o.o.o.> > > o.O.O.$.$.O.o.o.O.O.o.> : o.O.$.",
"$.@.o.> > : > o.O.$.$.$.$.$.%.$.$.%.$.%.$.%.$.#.%.$.$.%.+.$.o.O.O.$.$.O.o.O.o.O.O.o.O.O.O.o.O.o.> O.$.$.$.$.O.$.+.$.O.O.O.O.$.$.",
"$.@.O.o.> > > o.O.+.%.$.$.$.$.$.$.$.%.$.%.$.%.%.$.$.%.$.$.$.$.+.+.$.$.$.$.$.o.$.O.+.$.$.O.O.$.o.o.o.$.%.$.$.$.$.$.$.$.$.O.$.$.$.",
"$.$.O.O.O.o.O.O.O.$.$.%.$.$.%.+.$.$.$.$.$.%.%.$.%.%.$.%.$.$.$.$.$.$.$.$.$.$.$.$.$.$.$.$.$.$.+.O.O.O.O.$.$.$.$.$.$.$.%.$.$.$.$.$.",
"$.$.$.$.O.$.O.$.$.$.$.$.%.$.$.$.$.+.%.$.$.#.$.%.%.$.%.$.$.%.%.$.$.$.$.$.$.$.$.$.$.$.%.$.$.$.$.$.O.$.$.$.$.$.$.$.$.$.$.$.$.$.$.$.",
"$.$.%.$.%.$.%.$.$.$.+.$.$.$.$.%.$.$.%.#.$.%.%.$.$.%.%.$.%.$.%.%.%.$.%.$.$.$.$.$.$.%.$.%.$.%.$.%.%.$.$.$.$.$.$.$.$.%.$.$.$.$.$.$.",
"$.$.+.$.+.$.$.$.$.$.%.$.$.$.$.$.%.$.$.%.#.$.$.%.%.$.%.%.$.%.%.%.$.%.$.%.$.$.%.%.%.$.%.$.%.$.%.$.$.%.$.$.$.$.+.$.$.$.$.$.%.+.$.+.",
"$.%.%.$.$.$.$.$.$.$.$.$.$.$.$.%.$.%.$.%.$.%.$.$.$.%.%.$.%.%.%.%.%.%.%.%.$.%.%.%.%.$.$.%.$.%.$.%.$.%.$.$.$.$.$.$.$.+.$.$.$.+.$.$.",
"$.$.$.$.$.$.$.+.%.$.%.$.%.$.+.%.%.$.%.$.%.$.%.%.%.$.$.%.$.%.%.%.%.$.%.%.%.%.%.%.%.%.$.%.%.$.%.$.$.+.$.+.$.$.O.o.O.O.$.$.$.O.$.$.",
"$.$.$.$.$.%.$.%.$.$.$.%.$.%.+.$.%.$.%.%.%.%.%.%.%.%.%.%.%.%.%.%.%.%.%.%.%.%.%.%.%.$.%.%.$.%.$.%.$.%.$.$.$.o.o.> o.o.+.$.$.$.$.$.",
"%.+.$.$.$.$.$.$.%.%.$.$.%.$.%.$.$.$.$.%.$.%.$.%.%.%.%.%.%.%.%.%.%.%.%.%.%.%.%.%.%.%.%.$.%.%.%.$.%.$.$.%.$.o.o.> o.$.$.$.$.$.$.+.",
"+.%.$.%.$.$.$.%.$.%.%.$.$.%.$.%.$.$.$.$.$.$.$.$.%.%.%.%.%.%.;.%.%.%.%.%.%.%.%.%.%.%.%.%.%.$.%.%.%.$.%.$.$.$.O.o.o.$.$.$.+.O.$.$.",
"$.$.$.$.$.+.%.$.%.$.%.$.%.$.%.%.$.@.@.O.o.O.$.$.%.%.%.%.%.%.%.%.%.%.%.%.%.%.%.%.%.%.;.%.%.%.%.%.%.%.%.%.$.$.+.$.$.$.$.$.$.$.$.$.",
"$.$.$.$.%.$.$.%.%.$.%.%.%.$.%.$.$.o.o.o.o.o.o.o.$.$.%.%.$.%.%.%.<.%.%.%.%.%.%.%.%.;.%.%.%.%.%.%.$.%.%.%.%.%.$.$.$.$.+.$.$.$.$.$.",
"%.%.$.$.$.%.%.$.$.<.%.$.%.%.%.%.%.$.o.o.o.o.o.o.O.$.O.O.#.%.%.;.%.%.;.%.%.;.%.%.%.%.%.%.;.%.%.%.%.%.%.$.%.$.$.%.%.$.%.$.$.$.+.$.",
"$.+.$.$.$.%.$.%.%.o.<.o.%.%.%.%.%.$.o.o.o.o.o.o.+.$.O.O.O.#.%.%.%.%.%.%.%.%.%.%.%.;.%.;.%.%.%.%.%.%.%.%.%.%.$.%.$.%.$.$.$.$.$.$.",
"O.O.$.$.%.$.%.$.<.o.%.%.%.%.%.%.<.o.%.%.<.o.o.<.$.O.O.O.+.$.%.%.%.;.%.;.%.%.;.%.%.%.%.;.%.;.;.%.%.%.%.%.$.%.%.%.%.$.%.$.$.$.+.$.",
"> o.O.$.$.%.%.$.o.<.%.%.%.%.%.%.%.<.<.o.o.o.<.<.$.%.$.$.$.%.%.%.;.%.;.=.=.%.%.%.%.%.;.%.;.%.%.%.%.%.%.%.$.%.$.%.%.$.+.%.%.%.$.+.",
"* > o.$.%.%.%.%.%.%.%.%.%.%.%.<.%.o.<.<.<.<.<.o.>.%.;.%.>.%.>.%.%.%.&.*.&.=.;.%.;.%.%.;.%.;.;.%.%.;.;.%.%.%.%.%.$.%.$.$.$.$.$.$.",
": > O.$.$.%.%.$.%.%.o.<.%.<.<.o.%.%.<.o.o.<.<.<.%.>.>.%.%.>.>.%.;.&.( / _ =.;.%.%.;.;.;.;.%.;.%.;.;.%.$.%.%.%.$.%.%.$.%.%.$.$.$.",
"o.o.+.$.%.%.%.%.%.%.<.o.<.o.%.%.<.%.%.%.<.%.<.o.>.%.>.>.%.%.%.%.=.K / U _ %.%.;.%.%.%.;.%.%.%.%.%.%.%.;.;.%.%.%.$.%.%.$.%.$.%.$.",
"$.$.$.$.%.%.%.%.%.%.%.%.%.%.%.%.o.%.%.<.%.%.>.>.%.;.;.;.>.%.=.>.;.K R W _ =.%.;.%.%.>.%.$.+.O.O.%.%.%.;.%.%.%.%.%.%.%.%.$.$.$.%.",
"O.$.$.$.%.%.%.%.%.%.%.%.<.o.%.%.<.%.<.o.%.%.%.%.;.;.;.;.%.;.>.%.=.*./ / *.=.;.%.>.=.=.=.+.G F o.$.%.;.%.%.;.%.%.%.%.%.$.$.%.$.$.",
"o.o.O.$.%.%.%.%.%.;.%.;.%.<.%.%.%.%.;.>.2.*.;.%.%.;.;.;.%.;.;.;.;.*.*.*.;.;.;.>.-.K ( / / Z G { $.%.%.%.;.%.%.%.%.%.%.%.%.%.$.%.",
": > o.$.%.%.%.%.%.%.%.%.%.%.%.<.%.%...` ] N.3.:.;.;.%.;.;.;.;.;.;.:.=.:.;.%.;.=.( W c.I I P ^ } $.;.%.%.%.;.;.%.%.%.%.%.%.$.$.+.",
": : o.O.$.$.%.%.;.%.%.%.%.%.%.%.>.=._ m.n.n.m.' :.>.;.;.;.>.>.>.>.>.>.;.;.>.;.=.) v.9.9.8.I v &.%.%.%.;.%.;.%.%.%.%.%.%.$.%.$.%.",
": > o.+.%.%.%.;.%.%.%.;.%.<.%.;.%.$.*.Q t.9.0.b.X.=.>.>.<.:.<.:.>.>.>.,.>.>.;.:.` W I v.I W _ =.;.%.%.%.%.%.%.;.;.%.%.%.%.%.+.%.",
"> o.o.$.%.%.%.%.;.%.%.%.%.<.%.%.%.%.=.` Q c.t.b.X.:.>.=.*.2.2.2.2.4.4.5.5.1.>.>.-._ ( ) ` ..=.;.;.%.;.%.%.;.%.%.%.%.%.%.%.$.$.$.",
"o.O.$.$.%.%.;.%.%.;.;.%.%.%.%.%.>.%.>.&.` ' ] ' 2.>.%.G ^ T T / ) ' ] 6.3.&.%.>.,.:.&.&.=.;.%.;.;.;.%.%.%.;.%.;.%.%.%.%.%.+.O.O.",
"$.%.%.%.%.%.>.%.%.;.%.%.;.%.;.%.%.;.%.>.:.*.2.4.:.%.G S Z L t t y N t N B b A :.7.7.%.{ #.;.;.%.;.%.;.%.;.%.%.%.;.%.%.%.%.O.[ [ ",
"%.%.%.%.%.%.%.%.;.%.%.%.%.;.%.;.>.%.>.=.>.>.<.<.;.G S J ^.M.y.u 6 0 6 q W T H 6.;X6.} - %.>.;.;.;.%.;.%.%.%.;.#.%.%.%.#.@.{ [ [ ",
"%.%.%.;.;.%.%.;.%.$.@.@.$.%.;.%.%.%.;.>.>.>.:.:.&.S ( /._._.l.u.8.r.r.n.].(.^.*X;X6.D - | >.;.;.;.;.%.;.;.%.;.#.;.;.%.%.@.[ [ * ",
"%.%.%.%.%.%.%.;.%.%.O.%.$.%.%.;.>.%.%.%.%.>.:.*.H R C.}.XXF.a.u.V.D.F.F.|.-X-X=X>XX.- F ;.>.;.;.%.;.%.%.#.;.%.;.%.%.%.%.@.[ [ [ ",
"%.%.%.%.%.;.%.%.%.%.@.O.$.;.%.;.%.%.%.=.;.;.| S R N.`.XX`.f.r.y.C.}._._._.|.-X-X*XK A &.;.,.;.;.;.;.;.%.;.%.;.%.;.>.%.%.%.#.O.{ ",
"%.%.%.%.%.%.%.%.%.%.#.#.%.%.;.%.%.=.+.%.;.%.F m Q `.XXH.V.y.i a C.[.[.).B.D.[./...K -.;.:.;.:.;.;.%.%.;.;.%.%.%.%.%.%.%.%.%.@.@.",
"%.%.%.%.%.%.%.%.%.%.%.%.%.%.;.;.;.$.O.+.%.} A B N.XXXXS.y.i u i m.C.C.M.M.a.B.' H *.5.,.,.;.;.;.;.%.;.%.%.;.%.;.%.%.%.>.%.%.%.@.",
"%.%.%.%.%.%.%.=.%.%.%.%.;.%.%.%.%.=.%.+.G S M L b.G.z.f.y.E u 0 u v.N.~.).D.B.' *.:.5.1.,.;.>.;.;.;.;.%.;.%.%.%.%.;.%.%.%.%.@.@.",
"%.%.%.%.%.%.%.%.%.%.;.;.%.;.%.;.;.;.:.G m b 6 q t.s.s.a.C.).!.u 0 m..X<X$XXXf.T 3.5.,.,.,.;.;.;.;.;.;.%.%.%.;.%.%.;.%.%.%.%.%.#.",
"%.%.%.%.%.%.%.%.%.%.%.%.%.%.;.%.;.;.:.J n L i w 8.9.9.p !..X XI 0 N.2X7X4X+Xd.M -.5.1.,.:.,.;.:.;.;.;.;.;.;.%.%.%.%.%.%.%.%.#.@.",
"%.%.%.%.%.%.%.%.%.%.%.%.;.;.%.>.;.;.:.*.C a p.i.p.p.r e m.~. X!.E (.3X7X%XoXm.n | ,.5.1.,.;.,.;.;.;.;.%.%.%.%.;.%.%.;.%.%.%.%.@.",
"%.%.%.$.$.$.%.%.%.%.;.;.%.%.;.%.;.;.:.-._ E a.h.j.g.8.e p m.N.!./.<X8X1X'.S.I C | ,.1.,.:.,.;.;.;.%.;.;.%.;.%.%.;.%.%.%.%.%.#.@.",
"$.$.O.O.o.$.$.%.%.%.%.%.%.>.;.%.;.>.>.:.3.) a i.g.g.t.i a a u P (.6X8X.Xu.r a T G :.5.1.>.>.>.;.;.;.%.;.;.%.%.%.%.%.%.%.%.%.%.#.",
"O.O.o.O.o.$.$.$.%.%.;.%.%.%.%.>.;.;.;.,.4...T 0 e p.s.a.r.q 6 u  X9X8X[.e e y.E S =.1.,.,.,.;.;.;.;.;.%.%.%.%.>.%.>.%.%.%.%.%.#.",
"o.o.o.O.o.$.$.$.%.;.%.%.%.>.%.%.;.;.>.>.1.-.H 4 t u._.}.~.M.i M.<X9X9X+Xf.f.F.~ V &.5.,.:.-...*.;.>.;.%.>.%.%.%.%.;.%.%.%.%.%.#.",
"o.o.o.O.$.$.$.$.%.%.%.%.=.&. .*.*.;.;.>.<.=.S b y f.|.@X:X=X[.|.+X5X5X$XXXU.`.N.M | ,.1.:...! R  .| ;.%.%.%.;.;.%.%.%.%.%.%.%.#.",
"$.O.O.$.%.%.%.%.%.%.%.=._ W U R ( *.:.>.;.G S N s l.'.|.-X>X,X{.J.OX#X#XT.P.k.a.L C  .,.-.) s s E  .%.%.%.;.%.;.%.%.>.%.%.%.%.@.",
"o.O.O.$.%.%.%.%.%.%.%.K R p 8.c.W _ :.;.+.D Z M.l.z.G.F.L.-X,XL.0.w.T.R.k.q.e.k.f.Y J &.:. .R P /  .;.%.%.%.%.%.%.%.%.%.%.%.%.@.",
"o.O.O.$.%.%.%.%.%.%.%.*./ P I U ) 2.=.{ - H ~ D.z.l.a.9.w.J.OXL.A.k.P.U.j.e.e.j.z.M.T S } &.|  . .| ;.%.%.;.%.%.%.%.%.%.%.%.@.@.",
"> o.$.$.%.;.%.%.%.;.%.;.K _ ( _ *.=.F & % B E y.t.p e r q.I.W.W.R.U.I.Y.I.j.w.9.t.s y n A +.;.#.=.%.;.%.%.;.%.;.%.%.%.%.%.%.%.@.",
": o.@.$.%.%.%.%.%.%.%.;.=.%.=.;.;.+.& O @ 4 t 1 1 < 3 e j.Y.R.H.T.P.I.W.W.l.9 1 < 1 4 @ % } %.>.;.%.%.%.%.;.%.%.%.%.%.%.%.%.@.@.",
": o.@.%.%.%.;.%.%.%.%.%.%.%.%.>.%.; # 4 7 5 3 2 , , 5 x.Q.E.L.n.n.h.P.E.Q.r.6 1 1 1 5 @ % { >.%.%.;.;.%.%.%.;.%.%.%.%.%.%.%.@.%.",
"> o.@.$.%.%.%.%.;.%.%.%.%.%.%.;.<.* # f I l h h w h c Z.&X&XZ.U c x.K.K.Z.j g 9 w w 9 4 % { >.%.%.%.;.%.%.%.%.%.%.%.%.%.%.%.%.@.",
"o.o.$.$.%.;.%.%.%.%.%.%.;.;.%.;.%.$ o d x k k k l c v v v x z z f f f x f d 8 8 8 8 2 @ $ [ %.;.%.;.%.%.;.%.%.;.%.%.%.%.%.%.@.%.",
"%.o.o.<.%.%.%.%.%.%.%.%.%.%.%.;.#.& X X o O o X o o O o o X X o     X X   o + + . . + X $ { >.%.;.%.;.%.%.%.%.%.%.%.%.%.%.%.%.%.",
"<.%.%.o.<.%.%.%.%.%.%.%.%.;.%.%.%.O.: = - = = = - ; ; ; ; F > > F ; F ; ; F F D A - - - { #.%.%.;.%.%.%.;.%.;.;.%.%.%.%.%.%.%.@.",
"o.<.o.<.o.<.%.%.%.%.%.;.%.;.%.;.%.>.>.%.%.$.#.@.%.;.;.>.;.;.>.;.>.>.;.>.>.;.;.,.,.,.>.>.>.;.%.>.%.;.%.%.%.%.%.%.%.%.%.%.%.%.@.%.",
"%.o.<.o.<.o.$.<.%.%.;.%.%.%.%.%.%.%.%.>.%.$.@.@.$.;.;.>.;.;.;.;.%.>.>.;.;.;.>.;.>.%.>.>.;.%.;.%.%.%.;.%.;.%.%.%.%.%.%.%.@.%.@.@.",
"%.o.<.o.<.o.%.%.%.%.%.%.;.%.%.%.%.>.%.%.%.#.%.%.%.%.;.;.;.;.%.;.;.;.;.;.;.;.%.;.%.;.;.;.%.%.%.%.;.%.%.;.%.%.%.;.%.%.%.%.%.@.O.O.",
"%.%.%.%.o.o.o.%.%.%.%.%.%.%.%.;.%.%.%.%.%.%.%.%.%.;.%.%.%.;.;.;.%.;.%.%.%.;.>.;.;.;.%.%.#.@.@.@.%.%.%.%.;.%.%.%.%.%.%.%.%.O.[ [ ",
"o.<.%.o.o.o.o.%.%.%.%.;.%.%.%.%.;.%.%.%.;.%.%.%.%.;.;.;.%.;.;.;.;.;.;.;.;.;.%.;.;.;.%.%.@.{ O.o.O.%.;.%.%.%.%.%.%.%.%.$.@.O.> * ",
"<.o.<.o.o.o.o.o.o.<.%.%.%.;.%.%.%.%.;.%.;.%.%.;.%.%.;.%.;.%.;.%.;.;.;.;.;.;.;.;.;.>.;.%.@.[ o.o.o.%.%.%.%.%.%.%.%.$.$.$.@.O.: : "
};
