/* XPM */
static char *collect_d_41678372416[] = {
/* columns rows colors chars-per-pixel */
"64 64 68 1 ",
"  c #2E3737",
". c #343A3A",
"X c #393E3E",
"o c #4E1713",
"O c #541712",
"+ c #5D1712",
"@ c #561914",
"# c #5C1914",
"$ c #571E1A",
"% c #5B1E19",
"& c #65130E",
"* c #621611",
"= c #641B15",
"- c #6A1B15",
"; c #641E19",
": c #6A1F19",
"> c #721C16",
", c #711E18",
"< c #55221E",
"1 c #5B221D",
"2 c #65231E",
"3 c #6C211B",
"4 c #70211B",
"5 c #4D2623",
"6 c #4B2A27",
"7 c #4D2C29",
"8 c #542522",
"9 c #5D2622",
"0 c #522926",
"q c #5C2A26",
"w c #532E2B",
"e c #5C2E2A",
"r c #4F312E",
"t c #52312F",
"y c #5B312E",
"u c #4D3533",
"i c #4F3937",
"p c #433E3D",
"a c #4D3D3B",
"s c #523532",
"d c #5A3431",
"f c #543937",
"g c #5C3A37",
"h c #523D3B",
"j c #5A3C3A",
"k c #642622",
"l c #6A2521",
"z c #612924",
"x c #6A2824",
"c c #622E2A",
"v c #62302D",
"b c #3B403F",
"n c #45403F",
"m c #4D403F",
"M c #52413F",
"N c #3E4141",
"B c #444545",
"V c #4C4544",
"C c #474847",
"Z c #4B4847",
"A c #474848",
"S c #4B4A49",
"D c #514442",
"F c #514847",
"G c #524D4B",
"H c #55504F",
"J c #4F5050",
"K c #545150",
/* pixels */
"AAAAAAAAZAAZAAAAAAN. .XASABX  ...BAASANN.. .. .. ..NBASAAN..  ..",
"AAZAZAZAAAAAAAAAZANX..NBASBX.   XNAABBNNX..... ..XXNBAAAANX   .X",
"AAZAABBAAZAZAZSAZABBNNBAAAABX. .NBBNNNNNNXXXX..XXNBBBNNBBN.   NN",
"ZBBBNNNBAAAAASAAAAAAAZASAAZBBNXXNBANNXNBNNNNNNXXNBAABBNBBBX.XNBA",
"ABNXX.XNBAAAAASZAAASSASAAAAASBBNNZZBNNBNNBBnBNNNNNAAAAnABABnBBBA",
"AABNXXXNBAZAAAAZASZSSSAZAASASABZAAAAAZBBAAAAAAANNBAAAAAAAAASAAAA",
"AAABBNNBAAAZAAAAAZAAAAZASSASASAAAAAZAAAAAAAAAAAABBAAAAAAAASAAAAA",
"ZAABABAAAAAAZAAAAZAZAAAASASASAAAAZAAAAAAAAVAAAAAAAAAAAVAAAAAAAAV",
"AVASAAAAAAAZAAAAAAASSSASASASCSSCSSAAAAAAASAZAAASAASAAAAASAAAASBA",
"AAAAASASZAAAAZAZAAASSCSASASAACSSASSZASASSASAASASSSAASAAAAAAAAVSB",
"AAAAVAAAAZAZZAAZCAASCAASASSSAASSSSSSSASSASSSSASAASAAAAABVBSAABBA",
"ASSAAAAAAAAASAASSASSSCAZSAASSSSSAASSSASSSSASASASAVAAVBNBBBBSSAAV",
"AAAAAVSAAAAAAAAZSASAASSSSCSASSSSSSSASSSSSSSSSSAAAASABBXXXBVAASBA",
"ASVSAAAAAASSZSSSASASSSCSSJSSSSSSSSJSSSSSSASSASSSASSABBNXNBAAAAAB",
"AAAAAAAAAASASASASCACBCCSSSSSSSSSSSSSSSSSSSSSSSSSSAASBBBNBBAAAAVA",
"SAAAASVASSASASSSSCBBNBBCSJSSSGSSSSSSSSSSSSSSSSSASSSAAAABAAAAABAA",
"AAAASVASASAASSSSABBNXNNBSSSCSSGGSSGSSSSSSJSSSSSSSSASASAAASAAAAAV",
"SSASASASSASSASSSABNXXNNNBCBBBSSSGSSSSSGSSSSSJSSSSSSSSSASSAAASVAA",
"VBAAASSASSSSSSSSSABNNNNABBBBBCSSSSSSSJSSSSSGSSSSSSSASAASASAAAVAA",
"BBBASASSSSSSSSSSSSAABBASCBBBBCSSSJSSSSSSGSSSSGSSSSSSSASSSASVAAAA",
"XNBAASASSSSSSSSSGSSSSASSSSSSSSSSSSSSSJSGSSGSSSJGSSSSSSSSSAAVAAAV",
" XNASSASSSSSJSSGSSSSSJSGSSSSSGSJSSSGSSSSSSSJGSSSSSGSSSSSSSASAAAA",
".XBBSASSSSSSSSSSSSGJSGGJSHGSJSSSSGSSSSSSSGSGSGSSSSSSSSSSASAASAAA",
"NNBASSSSSSSSSSSSJSSSSSSSHSSHSSSSSSSSSGSSSSSSSSSASGSSSSSSSSSSASAA",
"BAASASSSSSSSSSSJSSSGGSSGSGGJSSSGSSSSGSSSGSSSSSBBSSSSJSSSSASASAAA",
"BAASSSSSSSSSSGSSSSSSSSSSSSSAGSSSSJSSSSGSSSSSABnBSSSGSSSSSSSSASVS",
"NNBASSSSSSSSSSSGSGSSSSSSSSSSSSGSSSSSGSSSSSSSSBBBSSSSSSGSSSSASAAA",
".XNBSSJSSSJSSSSSSSSSSJSSSSSGSSSSSSGSSSSSSSGSABBBSSGSSSSSSSSSSSAA",
"..XBSSSSJSJSSSSSSSSGSSJSSJSSGSSSGSSSSSSGSSSSSSSSSSSSJSSSSSSSASAS",
".XNBSSSSSSSSGSSSSSSSSSSSSSSSSSSSSSSSSSSSGSSSSSSGSSSSSSSSSSSSSSAS",
"XXBASSSJGSSSSSSSGJSSSJSGSSSSJSSSSSSGSSSSSSGSSSSSSGSSSGSSSSSSSAAA",
"NBBSSSSSSJSGSGJSSSSSSSSSGSGSSSHSGSSGSGSSSSSSSSSSSSSSSSSJSSSSSVBB",
"JnJnCCmJJCJJJCnGJnmJJJJmSGGSGSSSSSSSJSSJSSSSSSSSSSSSSSSSSJSSSBNX",
"nJCJJJJCGJnJGGJJJJJJnmJJSSSSSSGSGSGSSSSSSJGSSSSSSGSSSSSGSSSSSnX ",
"JJnJGnCGnJCCnJGCnJJnJJmJGSGSSGSGSGSSSSSSSSGSGSSSSGJSSGSJSSSSSNX.",
"JnGCJJGJJnCnCnJmmJJmJmJmSGSGSGGSGSSGGGSGGSSSSSSGSSSSSSSSSJSSSnNX",
"nnJJJGnCJnCCCGGGJnJnJmJJGSGGGSGSGSSJSGSGGSSSSGSSSSJSSSSSSSSSSBBN",
"JJJnCJJGnJnJCCCJmJbJSmJGGGSGGGGGGGGGGSGSSGGSSSJSSSSSSSSSGSSSSSAV",
"nJJnJmJmnJJCJGJJJnnJJJGGHGHHHHKKGGGSGGSGSSGSSGGSGSGSGSSGSSSJSSSA",
"JJnJCCJJJJmJnGGmmJnJMGGGGGGGGGGMHGGGGGSGGGSSGSSSSSSSSSSSSJSSSSSB",
"JnJJnmJJGCGGGGGGJJMKKKHMmmMddwwdMFGHGGGGGGSGSGSGGSSSSJSGSSSJSSAA",
"nJnJJJJnGCGCCGGGMKKKKKKHmmsyyeqyDFFHJJJGGGGSGSSSSSGSSSSSJSSSSSZA",
"JJnJnJJmGGGGJmKGKKGMMMMMttwqq1<qdfgMDDFDFSGSSGGSSGSSSSSSSSSGSZAA",
"JnJnJnJJGGCGGKKKKKKKHM6q<#1+#@<@<<807rtiDDGGGGSSSJGSSJSSSSSSSZZA",
"bJbJbJbJCGGGGGGGHHMHMd58O@#++@OO$%8507wsMDDSJGJGSSSSSSSSGSSSGSAA",
"JCnnnnnJGJCGMMMMjMjggc111+1++#@#%;%%1<<800shMDSSGFSGSSSGSSSSSSSZ",
"bbbCnbnJKKGmMmmrMgMcy2###+++++O+++=-=+++@O8sjDDDSSGSSJGSJSSGSSZA",
"bbnbJnJJmGmMMmtdygyvz1=##1+++1##+;===;%+%@8dshDDDFFFGSSSSSSSSSZA",
"JbCJSJJJr781%;;:-3-33==+@OOOO###=#;=====;=%%%=::k2198wtiVSSSSSAA",
"bnCnmJJm75<#**-------==+OOOOO##+#+===;===-=++---:;;%$0wuSGGSSSAA",
"bbCJSSmmq11;==*==;;;=##OOOOOOO#####===#%+=;+#=;;;;%;299eFGSSSSSV",
"bbbJJSmm233--#O@@####Ooo@#O##@@@@###;@OO@+@@@++=++==-3,lDVVSSAAA",
"bbCJJnnmk33>-##@#@###OoO###O##@#@@#;=OOO@#@@@#+#+#*--:>lDFFSSASA",
"bbnCJmnm233>----=#==;=##+=2+########%+@@@####**#++*-*;%8FSVSSSSA",
"bbCJSnnu3>>,>>--=*==-=-====+++=+###%####++++++++*+&&&+O<SSSSSAVA",
"bnCJSnnmz23>4>>>;=-;;-;:3===1*2+%###%###%##%#=*;###*=15wFSSSSSSA",
"CCSSSSSSMsy44444:3:33::::=;=--::====**==23kccewwrrtiiMDVSSSSSSAA",
"CSSSSSJSmmd4444434333:::=-:-------&=*-&-,3xvvwwtruuaaVSSSSSSSSAA",
"SSSSSSSSmmMgvvvccccccqqqqqqcq9zz999999zzcvdjjhhhaammVVGSSSSSSSSA",
"SCSSSSSSmJSMGSMGFVVBBpppVFFDVDMMhhhhhmMDFFGGSGGSSGGSSSSSSSSSASAA",
"CCSCSCCSSSGSSJGmZFFVVBBVBZFVFDVmMmMMMDDVSGGSSSSSJGSSSSSSSSSSSABB",
"SSCCCCNSSSSSGmSJSFSZVZZZFFSFSFFFFFFFFFFFGGFSAABVASSGGSSSSASAAVNX",
"SSSCbbbCSSSJSSSJSJJSSSSGGJSGGSGJSJGSGGJSJGGSANNNBASJSSSSSSSSAN..",
"SCCBnbbnSSSSGGSSSGSSGSSGSSGSGJSSGGJGGJGJGGSVBNNNBASSSSSSSASSABX "
};
