/* XPM */
static char *result[] = {
/* columns rows colors chars-per-pixel */
"50 50 181 2 ",
"   c #4E353E",
".  c #54363F",
"X  c #67393F",
"o  c #69383E",
"O  c #72393F",
"+  c #7E3C3E",
"@  c #4B3741",
"#  c #443B43",
"$  c #4B3D45",
"%  c #543641",
"&  c #5B3540",
"*  c #523C44",
"=  c #5A3D43",
"-  c #6D3441",
";  c #623B43",
":  c #6B3B41",
">  c #653E48",
",  c #623743",
"<  c #733542",
"1  c #783442",
"2  c #713B40",
"3  c #7A3D41",
"4  c #4E4046",
"5  c #514047",
"6  c #5B4246",
"7  c #564248",
"8  c #5B4548",
"9  c #504E5B",
"0  c #54505D",
"q  c #634347",
"w  c #62464A",
"e  c #69444B",
"r  c #63484A",
"t  c #6B4C4B",
"y  c #794548",
"u  c #6D4E51",
"i  c #7C4B54",
"p  c #724C51",
"a  c #6F5153",
"s  c #745355",
"d  c #79565A",
"f  c #7E5D5E",
"g  c #785455",
"h  c #464C65",
"j  c #535064",
"k  c #4F5F77",
"l  c #665965",
"z  c #795562",
"x  c #735B69",
"c  c #7A5F6A",
"v  c #59657B",
"b  c #58667C",
"n  c #79626E",
"m  c #656374",
"M  c #6D6573",
"N  c #626578",
"B  c #786B75",
"V  c #79727E",
"C  c #8D3F3F",
"Z  c #933F3F",
"A  c #AB433F",
"S  c #B2443F",
"D  c #8D3544",
"F  c #823B44",
"G  c #973447",
"H  c #9E3548",
"J  c #9A3647",
"K  c #A33446",
"L  c #A53749",
"P  c #A53C4C",
"I  c #AD3C44",
"U  c #B23B46",
"Y  c #BC3F45",
"T  c #86424D",
"R  c #994140",
"E  c #95585C",
"W  c #895A5C",
"Q  c #AD4441",
"!  c #A54643",
"~  c #B64440",
"^  c #BD4044",
"/  c #B94C4C",
"(  c #B95048",
")  c #AC4653",
"_  c #AF4A55",
"`  c #B14A56",
"'  c #B84950",
"]  c #A35D5F",
"[  c #B5525B",
"{  c #825661",
"}  c #8B5E60",
"|  c #9C5E61",
" . c #A75E64",
".. c #BC5F63",
"X. c #8C6666",
"o. c #876161",
"O. c #916D6A",
"+. c #8F7C7E",
"@. c #997173",
"#. c #957B7B",
"$. c #BE6265",
"%. c #B56C6D",
"&. c #A8706D",
"*. c #A6706E",
"=. c #A27B73",
"-. c #AA7C77",
";. c #A77A79",
":. c #BB7071",
">. c #C54741",
",. c #CB4543",
"<. c #CC4842",
"1. c #C14B4E",
"2. c #D14742",
"3. c #D54A41",
"4. c #D94B40",
"5. c #C9564D",
"6. c #D1594E",
"7. c #CA6C6A",
"8. c #C37467",
"9. c #C6716F",
"0. c #C97773",
"q. c #CD7C77",
"w. c #D47F71",
"e. c #99817F",
"r. c #AB837B",
"t. c #B38A7D",
"y. c #DB8574",
"u. c #4E6D85",
"i. c #536980",
"p. c #5D6D81",
"a. c #4F7088",
"s. c #527989",
"d. c #5C7E8D",
"f. c #637485",
"g. c #6C7886",
"h. c #677887",
"j. c #787581",
"k. c #54899C",
"l. c #658191",
"z. c #5795A7",
"x. c #848189",
"c. c #9D8383",
"v. c #9F8E8D",
"b. c #948788",
"n. c #9C908F",
"m. c #9D9090",
"M. c #AC8E8A",
"N. c #A78984",
"B. c #BA8C83",
"V. c #A9918D",
"C. c #BC9187",
"Z. c #B6948C",
"A. c #A79490",
"S. c #B39C95",
"D. c #D08D83",
"F. c #C49589",
"G. c #C99B8E",
"H. c #C79787",
"J. c #D49C8B",
"K. c #DA9587",
"L. c #C69E90",
"P. c #C99E90",
"I. c #E09B8B",
"U. c #CEA393",
"Y. c #C8A698",
"T. c #D4A493",
"R. c #DBA692",
"E. c #DAA996",
"W. c #D9AE9A",
"Q. c #D5AC98",
"!. c #DCB29D",
"~. c #E6A591",
"^. c #E1AF99",
"/. c #E8AE96",
"(. c #E4B59D",
"). c #EDB69C",
"_. c #EDB99E",
"`. c #F1BA9F",
"'. c #F0B79D",
"]. c #ECBBA0",
"[. c #F4BFA2",
/* pixels */
"5 5 5 5 5 5 5 5 5 5 5 5 5 5 5 5 $ 5 5 5 5 5 5 $ 5 5 5 5 5 5 5 5 5 5 5 5 5 5 5 5 5 5 5 5 5 5 5 5 5 5 ",
"5 5 5 5 5 5 5 5 5 5 5 5 5 5 5 5 5 5 5 5 5 5 5 5 5 5 5 5 5 5 5 5 5 5 5 5 5 5 4 5 5 5 5 5 5 5 4 5 5 5 ",
"5 5 5 5 5 5 5 5 5 5 5 5 5 5 5 5 5 5 5 5 5 5 5 5 5 5 5 5 5 5 5 $ 5 5 5 5 5 7 6 7 5 5 5 5 5 5 4 5 5 5 ",
"5 5 * 5 5 5 5 5 5 5 5 5 5 5 5 5 5 5 5 5 5 5 5 5 5 5 5 5 5 5 5 5 5 5 5 7 5 7 5 5 5 5 5 5 5 5 5 5 5 5 ",
"5 5 5 5 5 5 5 5 5 5 5 5 5 5 4 5 5 5 5 5 5 5 5 5 5 5 5 5 5 5 5 5 4 4 4 4 4 7 7 7 5 5 5 5 5 5 5 5 5 4 ",
"5 5 5 5 5 5 5 5 5 5 5 5 5 * 5 5 5 5 5 5 5 5 5 5 5 5 5 5 5 5 7 7 7 7 4 7 7 7 4 4 5 7 7 5 5 5 5 5 5 5 ",
"5 5 5 5 5 5 5 5 7 5 5 5 5 5 5 5 5 5 5 5 5 5 5 5 5 5 5 5 5 7 8 8 8 8 7 6 6 7 7 7 5 5 7 7 7 5 5 5 5 5 ",
"5 5 5 5 7 7 8 8 r 8 7 5 5 5 5 5 5 $ $ * $ * $ * * $ $ * * = 6 8 8 r 8 8 8 8 6 6 7 7 6 7 7 5 5 5 5 5 ",
"5 5 5 5 5 8 8 r r r 8 5 5 4 5 5 * * * * $ % * $ * * * * % = 6 = 8 r 8 8 w 8 8 6 7 7 7 8 7 5 5 5 5 5 ",
"5 5 5 5 5 8 r r r r 8 5 5 5 5 5 * * . . . . . % % % . . % . . . = 8 8 8 8 8 8 8 8 8 8 7 5 5 5 5 5 5 ",
"5 5 5 5 5 8 r r r 8 7 5 5 5 * * * ; + + C + + + 3 + + + + + C O : 6 6 8 w r t t 8 r 8 7 7 5 5 5 5 5 ",
"5 5 5 5 5 7 8 8 8 7 5 5 5 5 5 $ % 3 A S S A ~ ~ ~ ~ S S S S S A T . . 6 8 r t t u u r 8 7 7 5 5 5 4 ",
"5 5 5 5 5 5 5 5 5 5 5 5 $ * = & o C <.4.4.4.4.4.4.4.4.4.4.4.4.<.Z o . 6 8 r t t t t r 8 8 7 5 5 5 5 ",
"4 5 5 $ 5 5 5 5 5 5 5 5 * * = + R Q 3.4.4.4.4.4.4.4.4.4.4.4.4.3.S C C q 6 8 t t t u u r 8 7 5 5 5 5 ",
"5 5 5 5 5 5 5 5 5 5 8 r 7   o ~ <.2.4.4.3.4.3.3.4.3.3.3.3.4.4.4.2.>.A X   6 t t u 8 8 r 8 7 5 5 5 5 ",
"5 5 5 5 5 5 5 5 5 8 8 r 6 . O ~ 4.4.4.3.,.,.,.,.,.,.>.,.,.<.3.4.4.2.S X   = t 8 8 8 u 8 8 5 5 5 5 5 ",
"5 5 4 5 4 5 5 5 8 r t r = . O ~ 4.4.4.2.Y U U U U U U U U Y 3.4.4.<.S o . = 8 8 8 8 r r 8 5 5 5 5 5 ",
"5 5 5 5 5 5 5 5 8 r q 8 = & O ~ <.2.<.<.' [ ` ` _ _ _ ` ` ' ,.2.2.>.~ < & & 8 7 8 8 8 8 8 5 5 5 5 5 ",
"5 5 5 5 5 5 5 5 7 r = = ; 1 D I ^ ^ ^ 1.7.q.q.q.q.q.q.q.q.7.1.Y Y Y L D < ; = = 7 8 8 7 7 5 5 5 5 5 ",
"5 5 5 5 5 5 5 5 7 t %   - K K K K K L [ I.[.[.[.[.[.[.[.`.K.` K K K K K G 1 @ % * 7 8 5 5 5 5 5 5 5 ",
"5 5 5 5 5 5 5 4 7 r .   - H K K L ) 7.9.~.[.[.[.[.[.[.[.`.~.7...) K K H G 1 . $ * = 7 5 5 5 5 5 5 5 ",
"$ 5 5 5 5 5 5 5 7 r .   - J K K P ..K.~.).[.[.[.[.[.[.[.[.'.~.K.7.L K K G O   % $ 5 5 5 * 5 5 5 5 5 ",
"5 5 5 5 5 5 5 5 5 8 .   - G H P _ 9./._.].(.].[.[.[.[.].(.(.`./.0.) P G G < @ % % 5 5 5 5 5 5 5 $ 5 ",
"5 5 5 5 5 5 5 5 5 6 6 6 > < T  .:.D.`.(.S.n.S.[.[.[.].Y.m.S.(.'.D.%. .F - , * $ $ * 5 5 5 5 5 5 5 5 ",
"5 5 5 5 5 5 5 5 5 5 8 8 = . p ;.H.T.].Q.x.f.m.[.[.[.(.A.p.x.!.].R.C.-.e % * * 5 5 5 5 5 5 5 5 5 5 5 ",
"5 5 5 * 5 5 5 5 5 5 7 7 *   u r.G.Q.[.Q.V k b.[.[.[.].N.k j.W.[.E.C.-.e @ * 5 5 5 5 5 5 5 5 5 5 5 5 ",
"5 5 4 5 5 5 5 5 5 5 5 5 *   t r.G.E.`.U.M h #.[.[.[.(.c.h B Q.[.E.F.N.e @ $ * 5 5 5 5 $ 5 5 5 5 5 5 ",
"5 5 5 5 5 5 5 5 5 5 $ 5 *   u =.C.T.(.U.B j #.[.[.[.(.N.j B T.].T.B.=.w % % * 5 5 5 5 5 5 5 5 5 5 5 ",
"5 5 5 5 5 5 5 5 5 5 5 5 $ * w f O.r.E.U.M.#.L.[.[.[.).L.#.M.T.T.B.X.f = $ * 5 5 5 $ 5 5 5 5 5 5 5 5 ",
"5 5 5 5 5 5 5 5 5 5 5 5 * $ = = e } C.G.E.^.(.).)._.).(.(.T.G.C.X.> = * * 5 7 5 5 5 5 5 $ 5 5 5 5 5 ",
"5 5 5 5 5 4 5 5 5 5 5 5 7 * = 2 y W c.M.H.J.J.J.J.J.J.J.J.F.M.c.} 3 2 = * 7 7 7 5 5 5 5 5 5 5 5 5 5 ",
"5 5 $ 5 5 5 5 5 5 5 7 7 = * o R ~ E V j.@.&.&.&.&.&.*.*.*.@.V V } ! R , * * 7 5 5 5 5 5 4 5 5 5 5 5 ",
"5 5 5 5 5 5 5 5 5 5 7 8 7 % 2 / 6. .b b x { { { { { { { { x v v | 5./ o . * = 7 * 5 5 5 5 5 5 5 5 5 ",
"5 5 5 5 5 5 5 5 5 * 7 8 = @ p 8.y.;.b i.f.g.g.g.g.g.g.g.g.f.i.p.;.w.8.e @ * 7 5 5 5 5 5 5 5 5 5 5 5 ",
"5 5 5 5 5 5 7 5 5 5 7 8 7   g y./.M.p.a.k.z.z.z.z.z.z.z.z.k.u.p.V.R.D.t % * 7 5 5 5 5 5 5 5 5 5 5 5 ",
"5 5 5 $ 5 5 7 5 5 5 7 8 7 . a e.B.#.m N f.l.d.s.s.s.s.d.d.f.N m #.r.=.r $ * 5 5 5 5 5 5 5 $ 5 5 5 5 ",
"5 5 5 5 5 5 7 7 7 8 8 8 8 * 8 a d d z z n n l 9 9 9 9 l n c z z d g s 7 * * 5 5 5 5 5 5 5 5 5 5 5 5 ",
"5 5 5 5 5 5 5 5 8 8 8 8 8 6 5 . * > i i i i e @ @ @ $ e d T i i q * $ 5 5 $ 5 5 5 5 5 5 5 5 5 5 $ 5 ",
"5 5 5 5 $ 5 5 7 8 8 8 8 7 4 4   # = > > > > % # # # @ % > > > > % @ @ # $ $ 5 5 5 5 5 5 5 5 5 5 5 5 ",
"5 5 5 5 5 5 5 7 8 8 8 r 8 4 4 4 $ % % % % % # # # # # @ % % % % # # # # # $ 5 5 5 5 5 5 5 5 5 5 5 5 ",
"5 5 5 5 5 4 5 7 7 8 8 r r 4 4 4 4 # # @ @ @ # # # # # # @ @ @ # # # # # # 4 6 7 5 7 7 7 7 5 5 5 5 5 ",
"5 5 5 4 5 5 5 5 7 7 8 r r 7 4 4 # # # # # # # # # # # # # @ # # # # # 4 4 4 7 8 8 8 8 7 7 5 5 5 5 5 ",
"5 5 5 5 5 5 5 5 4 4 8 8 r 8 7 4 # 4 # # # # # # # # # # # $ $ # # # # 5 5 7 8 8 r r 8 8 7 5 5 5 5 5 ",
"5 5 5 5 5 5 5 5 7 7 7 6 7 7 7 4 $ 4 # $ # * $ $ # # $ $ 4 $ 4 5 4 4 $ 5 5 5 7 8 r r r 8 8 7 5 5 5 5 ",
"4 5 5 5 5 5 5 4 5 7 4 5 4 7 4 4 $ 4 # $ $ $ $ $ 4 4 4 4 $ $ 4 4 4 4 4 5 5 5 7 8 r r r 8 7 5 5 5 5 5 ",
"5 5 5 5 5 5 5 5 5 5 5 4 7 4 6 4 5 5 9 * 5 5 5 5 4 4 4 4 5 5 5 5 4 4 5 5 5 7 8 8 r 8 8 8 7 7 5 5 5 5 ",
"5 5 5 5 5 5 5 5 5 5 4 6 7 4 4 7 5 5 5 5 5 5 5 5 5 5 4 4 5 5 5 5 5 5 5 5 5 5 6 8 8 7 7 7 7 5 5 5 5 5 ",
"5 5 4 5 5 5 4 5 5 5 4 4 4 4 7 4 5 5 5 5 5 5 5 5 5 5 4 5 5 5 5 5 5 5 5 5 5 5 4 7 5 7 7 7 5 5 5 5 5 5 ",
"5 5 5 4 5 5 5 5 4 5 5 5 5 5 4 5 5 5 5 5 5 5 5 5 5 5 5 5 5 5 5 5 5 5 5 5 5 5 5 5 5 5 5 5 5 5 5 $ 5 5 ",
"5 5 5 5 5 5 5 5 5 5 5 5 5 5 5 5 5 5 5 5 4 5 * 5 5 5 5 5 5 5 5 5 4 5 $ 5 5 5 5 5 5 5 5 5 5 5 5 5 5 5 "
};
