/* XPM */
static char *collect_idle_31678372415[] = {
/* columns rows colors chars-per-pixel */
"64 64 196 2 ",
"   c #180A15",
".  c #1B1416",
"X  c #251217",
"o  c #241319",
"O  c #241A1E",
"+  c #2D191E",
"@  c #0C012B",
"#  c #2D1C21",
"$  c #331D22",
"%  c #3A1F23",
"&  c #2C0433",
"*  c #2D2627",
"=  c #352224",
"-  c #3B2225",
";  c #332927",
":  c #342629",
">  c #3B2629",
",  c #352A2B",
"<  c #3B2D2D",
"1  c #3B2E30",
"2  c #2E3737",
"3  c #3E3333",
"4  c #3C3835",
"5  c #343A3A",
"6  c #393E3E",
"7  c #4A1F1E",
"8  c #471E27",
"9  c #54182E",
"0  c #5E1D31",
"q  c #621F3B",
"w  c #452628",
"e  c #432E2D",
"r  c #51232D",
"t  c #5A2233",
"y  c #413333",
"u  c #4A3534",
"i  c #443937",
"p  c #4C3937",
"a  c #443B3A",
"s  c #4A3D3C",
"d  c #563835",
"f  c #533D3A",
"g  c #662638",
"h  c #63213C",
"j  c #6B243B",
"k  c #76283C",
"l  c #3B403F",
"z  c #4B403E",
"x  c #53423D",
"c  c #59433E",
"v  c #461E48",
"b  c #4C2447",
"n  c #772940",
"m  c #3E4141",
"M  c #444545",
"N  c #4B4543",
"B  c #474847",
"V  c #4A4847",
"C  c #474848",
"Z  c #4A4A49",
"A  c #534543",
"S  c #5B4643",
"D  c #544A46",
"F  c #5E4A44",
"G  c #524E4C",
"H  c #594E4B",
"J  c #55504E",
"K  c #5B514E",
"L  c #575250",
"P  c #5C5451",
"I  c #624A44",
"U  c #794E43",
"Y  c #63534D",
"T  c #615652",
"R  c #625855",
"E  c #6E5B55",
"W  c #775C54",
"Q  c #7E6257",
"!  c #7C665C",
"~  c #6C4663",
"^  c #754460",
"/  c #7E6F65",
"(  c #B11D2F",
")  c #8F3A2D",
"_  c #89333F",
"`  c #DA3823",
"'  c #C52F38",
"]  c #E33A25",
"[  c #8B4A3E",
"{  c #A44133",
"}  c #A1503D",
"|  c #DC4A2F",
" . c #DE4E34",
".. c #CA553E",
"X. c #DB533B",
"o. c #E74C2F",
"O. c #F54D34",
"+. c #E25234",
"@. c #EA5538",
"#. c #F45537",
"$. c #9E1944",
"%. c #822D44",
"&. c #8B2847",
"*. c #932849",
"=. c #993351",
"-. c #AB284E",
";. c #A33151",
":. c #AC3653",
">. c #B03955",
",. c #B73E59",
"<. c #84685C",
"1. c #A8715E",
"2. c #8D516F",
"3. c #B4556A",
"4. c #887365",
"5. c #8E746A",
"6. c #907A6C",
"7. c #9A786B",
"8. c #B96F6C",
"9. c #CB4A49",
"0. c #DB4C4B",
"q. c #D85944",
"w. c #CD5553",
"e. c #E44E4D",
"r. c #D86149",
"t. c #CC6057",
"y. c #D76958",
"u. c #EB694B",
"i. c #EF714D",
"p. c #FE7658",
"a. c #C65C6A",
"s. c #C97075",
"d. c #E27A61",
"f. c #9D8977",
"g. c #9A8C76",
"h. c #A38979",
"j. c #B28973",
"k. c #B4927C",
"l. c #DF8067",
"z. c #D4957F",
"x. c #EE8563",
"c. c #AD7581",
"v. c #CB7F82",
"b. c #BA8983",
"n. c #A99586",
"m. c #B69587",
"M. c #B3918F",
"N. c #B8A28D",
"B. c #A7AA96",
"V. c #D78886",
"C. c #C7988B",
"Z. c #D5988E",
"A. c #C99F93",
"S. c #C2A38D",
"D. c #D3A48F",
"F. c #CFB28D",
"G. c #C9A895",
"H. c #D5A596",
"J. c #D1B69C",
"K. c #E6A78F",
"L. c #FCB88D",
"P. c #ECB394",
"I. c #E4B29D",
"U. c #CFAFA4",
"Y. c #CEB8A3",
"T. c #D5B8A2",
"R. c #EEBDA2",
"E. c #F5C19B",
"W. c #D6C2AC",
"Q. c #DAC4AC",
"!. c #CDC4B4",
"~. c #D5C5B1",
"^. c #DCC9B3",
"/. c #DED1B7",
"(. c #ECC5A6",
"). c #EAC9A9",
"_. c #F0C4A0",
"`. c #FECDA3",
"'. c #F1CCAA",
"]. c #EFD1AE",
"[. c #FFD2A6",
"{. c #F5D1AE",
"}. c #FDD5AB",
"|. c #FEDBAC",
" X c #E0C9B1",
".X c #E2D5BA",
"XX c #E8D8BC",
"oX c #F5DEB7",
"OX c #FCDBB0",
"+X c #FEE1AC",
"@X c #FCE3B1",
"#X c #FDECB5",
"$X c #FBE5B9",
"%X c #DCD6C0",
"&X c #EFDBC2",
"*X c #FFF5C4",
/* pixels */
"C C C C C C C Z Z B Z M Z C C Z Z M m 5 2 5 m M Z Z m m 2 2 2 5 6 m C Z Z C M 6 2 2 2 2 2 2 5 2 5 2 5 m M C Z Z C m 6 2 2 2 5 5 ",
"C C Z C C C C C B Z C Z C Z C B Z Z m m 5 5 m M Z Z m m 5 2 2 5 6 M C M M M m 6 l l l l 2 l 2 5 5 l m m M M M C C m 5 2 2 2 5 m ",
"C B V B M C M B Z M Z M C C C C Z M M m m m m C Z Z C m 6 5 2 5 6 M M m m m m m m l l m l l 2 5 m m m M M M m M M m 6 2 2 2 m m ",
"C M M M m m m M M Z C Z C C C C M Z Z M M Z Z Z C Z C C M m 6 6 m M M M m m m m m m m m m l l l m m C Z M M m m M m m 6 6 m M M ",
"C V b l l l l m V C C C C C C C Z M Z Z Z Z Z Z C C Z C C C M m M C M M M M M m B m B m m b M m m m Z Z M M M M C M M M m M C C ",
"M B M m l l m m B C C C C C Z C M Z Z Z C Z B Z C C C Z Z C C M M C Z M M M M M m B C C B M M M m M M Z C Z C C C Z M C C C C Z ",
"C C C M l m m m B B M C B Z Z Z M Z C Z C Z Z Z Z Z C Z C C C C Z Z C Z Z M M C B C C B B B V M M B M C C C C Z C Z Z Z Z C C M ",
"C C C C m B B B M B B V B B B Z B Z C M Z B C C C Z Z C Z Z C C C C C Z C C C C B Z C Z C C C C C C M Z C C C C Z M M Z C Z M Z ",
"C Z M Z C Z C C C C N C C C Z C C C C C Z Z Z Z Z C Z C C Z Z Z Z Z C C C C C Z C Z Z C Z C Z Z Z C C C Z Z M Z C Z C Z M Z M C ",
"C C Z C Z b Z C C C Z C C C C C Z C C C Z C C Z Z Z C Z Z Z C Z Z C Z C C C C Z Z C C Z C Z Z C Z C C C M M Z Z C C C Z Z M M C ",
"C Z Z C C C V C C C C C C C Z N Z Z Z C C Z Z C C Z Z Z Z Z C Z Z C Z Z Z Z Z Z C Z Z C Z C C Z C C C C Z M C M M M Z C C C C C ",
"B B Z Z Z C Z C C Z Z C Z C Z C C Z C Z Z C Z Z Z Z C Z Z Z C G Z Z Z Z Z Z Z Z Z Z Z Z Z C Z C Z C Z Z M M m m M M M Z C C M V ",
"C C C C C Z V C V V C C N C C Z C Z Z C Z Z Z Z Z Z Z Z G C Z Z Z Z Z Z Z Z Z Z Z Z Z Z Z C C Z C Z C C M m m m m m B Z C V V V ",
"C C C C C C C C C Z C C Z Z Z Z Z C Z Z C Z Z C Z Z Z Z Z Z Z Z Z Z Z Z Z Z Z Z Z Z Z Z Z Z Z Z Z Z Z C M m m m m m B C C Z C b ",
"C C C C V C C C C Z C Z C Z C Z Z Z Z Z Z C Z Z Z Z Z Z Z Z G Z Z Z Z Z Z Z Z Z Z Z Z Z Z Z Z Z C Z C C C B m m B B M Z C C C C ",
"Z C C C Z C C V C Z C Z Z Z Z Z Z Z m C m C C Z Z Z G Z G Z Z Z G Z Z Z Z Z G Z Z G Z Z Z Z Z Z Z Z Z Z Z Z Z C M M C Z C C Z C ",
"Z Z C Z V Z V C C C C C L C m L m m m m m m m m Z Z Z Z Z G G Z J Z Z Z Z Z Z Z G Z Z Z Z Z Z Z Z Z Z Z Z C Z Z C C C C C C V V ",
"Z Z C C C C C Z C C L m C C L C C C m m m m m m Z Z Z Z C Z Z Z Z Z L Z Z Z G G Z Z G G Z Z G Z Z Z C Z Z C C Z M Z C C C Z V M ",
"Z B B C C Z Z Z C L L C C L C Z Z m m m m m m L Z Z Z M m B Z G L J Z Z G G G Z G Z Z Z G Z Z Z Z Z Z Z Z Z Z Z Z M Z C C C V M ",
"m M B C Z C Z C m L m C L m Z Z L C L C m L m L J Z Z M C Z Z J Z L J G L G G G G G G G G Z Z G G Z Z Z Z Z Z Z Z Z Z C C C V C ",
"6 m M C Z Z C Z L m L C L L m L m L L m L L L L L J G Z Z Z Z J L L L L L J J G G G Z J Z G Z Z Z Z Z Z Z Z Z Z Z C Z C C C C N ",
"2 5 m B C Z Z Z m L m L m m L L L C L L L L L L L L L J L L P P L L L L L L J J L G L Z G Z G Z Z G Z G Z Z Z Z Z Z C Z Z C C C ",
"5 6 M V C Z Z Z m L m L L m L m L L L L m L L L L L P L P P P P P L L L L L L L J G J G G G Z G Z Z G Z Z Z Z Z Z Z C Z Z Z C Z ",
"6 M M Z Z Z Z Z L m L m L L L m L C L L L L L L P L P P P P P P P P P P L L L L L L L G G Z Z Z G Z Z Z G Z Z Z Z Z Z C V C C C ",
"B B M C Z Z Z Z Z Z Z Z L L m L L C L L L L R L L L R L P P P P P R P R P P P P L K J G Z M M M C G Z G G Z G Z Z Z Z Z C Z Z C ",
"M M C Z Z Z Z Z Z Z Z Z m J L L L L L L L L L R R R R R T P T P P P P P P P P P L K H Z M z l z C Z G Z Z Z Z Z Z Z Z Z Z b Z C ",
"l b B C Z Z Z Z Z Z Z L L L L L L L L L L R R L R L L R P T P T P P P R R P P R K P K D M M z V Z G Z G J Z Z Z Z Z Z Z Z Z Z Z ",
"l 5 m B Z Z J Z J Z L Z m J L L L L L R R R L R R R L R T K T P P P P P P R P R T P L G D Z Z Z G G J Z J Z Z G Z Z Z Z Z Z C Z ",
"l 2 l m Z Z G Z Z J J Z L L L L L R L R L R R R L R T P T Y P T P Y P P Y R Y R T T P H K J J J G G G G G Z Z Z Z G Z Z C Z B B ",
"2 l l M Z Z Z Z Z Z Z L J L L L L R R R R R L R R L P P P P L H H G K J K K R R T T T T P P K K J G G G J Z J Z Z Z Z Z Z Z Z Z ",
"l l l C Z Z G Z L Z L L J L L L R R R L R R L R L P P J z s i i i i i i i i a x Y Y E R D D K K K G J G Z J J Z Z J Z Z C B C C ",
"l l m C Z G Z G Z L L Z J L L L L R R R L R R L P P L C : X o o o o o o X X X = z G E E d s K K J J G G G G Z G Z Z Z Z Z B M M ",
"C m L m L L m L Z J J L L R L R T T R T T T T H K H A y > > = = = $ % $ > e e : : A / ! p s P K K K G G G G G G Z Z Z Z Z m l l ",
"L L m L m m L L L Z J L L L L L T R T T P T H P Y D 4 > I <.<.Q Q Q W Q 6.n.n.E * K n.5.f f Y K K J J G G G G Z G G Z G M z l 2 ",
"C C m L L m m L Z L J Z L L R R R R R T Y P Y K D y : I h.F.G.S.N.S.N.S.T.XX&XN.E n.Y.6.d b R K H H J G G G Z G Z G Z Z B m 5 2 ",
"Z Z L m L L L L L Z Z Z L L P R R R R P T H T H s > c h.Y. X^.W.Q.Q.Q.W.^.XX&X~.U.T.Y.4.d S R P K H G J G G J G G Z Z Z Z m l l ",
"Z C C L J m L m L Z J Z L P R R R T T P Y P F s u I h.T.^.^.~.~.~.~.~.~.~.~.~.^.T.G.7.I f F R K K K K J J G G G J Z G Z Z B M M ",
"L C Z C L m L L Z L L L P P P R R P H H T K s : A f.W./.^.W.Q.Q.^.Q.Q.Q.T.^.Q. XJ.4.s p S Y Y Y K K K K J J G G Z J Z G Z Z B M ",
"L Z Z L L J L Z L L L L P R R R T K G K P T y o H N..X%X~.Q.).).(.(.(.(.(.'.{.'.G.Y < s H T Y K K K K J J J G G J Z Z Z Z Z Z M ",
"C Z C C m J Z L Z L L L P P R R T K H D D a , % U j.D.T.W.].|.+X|.[.`.`.`.|.@X[.k.A i A H H K Y K K K K J G J G G G G Z G Z Z M ",
"C Z Z L C Z L L G L L P P P R R T P G A 1 : w ) ..q.r.l.P.|.@XOX|.}.`.`.[.OX#XP.I , 6 D H H Y H H K K K J K J G Z G G Z Z Z Z Z ",
"Z Z C L Z L L Z J L L L P P R R T T F i 1 Y 1.u.O.] ` u.L.).A.b.C.E.[.[.}.}.(.7.+ # a D H H H K K K G H G G G G G G G Z Z Z V M ",
"L C C Z C L C L L L L P P R P P T T H p z g.K.p.O.] ` i.L.G.~ v ^ D.|.|.|.R.c.v   * z G H H H K H K K G H J G J Z G G G Z Z Z M ",
"C C m Z C Z C L L L L P P P P R T T H A x ! 8.u.O.] ` i.L.m.v @ v C.|.+X|.I.2.&   ; z D H H H H K G H G K G G G J Z Z Z Z Z V Z ",
"Z Z C m C Z L L L L L L P R P P T T K K z a d { X.X.q.x.E.G.~ v ^ Z.}.|.|.P.c.b X : z H H H H K K H L G G G G G G Z G Z Z Z Z Z ",
"m m m C Z L L Z G J L L P P P K Y T K K Z 4 = 7 [ 8.z.P.E.E.Z.b.D._.}.[.|.@X(.7.% # z D D H H H H H G H J G H G G G Z G Z Z N Z ",
"m m C Z C L C L J J L P P P P P P T Y K D Z ; . s h.W.XX$X|.|.@X#X#X|.`.|.*X*XF.= # z H H H H K J H K G G G G G G Z Z Z Z Z Z Z ",
"m m m C Z Z L Z J L L L L P P P P T K J D M * . z g.W./.^./.XXoX+X}.}.}.OX$X*XF.e O a G D D A D G H H G G G G G G G D Z Z Z V Z ",
"Z Z C Z Z L Z L L L L L L L L L P T K K N 4 ; p <.k.J.Y.M.M.!.U.v.s.K.}.R.V.V.j.W y y z D Z z N D G G H G G G G Z G Z Z Z Z C V ",
"m m m Z Z Z L Z C L L L L L L R K R Y J i 3 c 7.S.J.Q.H.3.8.U.v.;.$.s.P.V.,.-.a.k.4.x i z z N V D G G G G G G G G Z G Z G Z C M ",
"m m m L L Z L Z L L L Z L L L L K K K z y F 7.m.Q..X%XH.w.9.y.t.( ( 9.d.y.' ( w.D.S.4.x y z A D G G G H G G G G G G Z Z Z Z C V ",
"m m m Z Z Z Z L Z L L L L L L L K D z < , Y g.g.h.B.B.k.r.o.+.+.X.+. .@.@.o.| } g.g.4.c - s K D H G G G G G G G Z Z Z G Z C C N ",
"2 m m L Z L Z Z Z J J L L L L R K z , = = u x f x N N U ..#.O.+.u.@.@.#.#.X.[ w p I c e % z K J G H H G G G G Z Z G G Z Z Z Z C ",
"2 m m Z Z C L Z J J Z L L L L L K 3 = r g j g 0 0 0 9 k ,.e.e.0.0.0.0.0.e.9._ 0 0 j g w - z D D G G G G G D G G G Z Z Z Z Z Z Z ",
"5 m m Z Z Z Z Z Z J Z L J J L L K < w g =.;.*.&.&.*.&.*.-.>.>.:.:.:.:.:.>.:.=.*.*.;._ 0 - z G D D G G G G G G Z Z Z Z Z Z Z C Z ",
"m m m m Z L Z L Z Z J Z J J L L K < $ t k %._ k k k k k g g g q h h q q h j n %.%.&.k 8 - z D D G G G G G Z Z G Z G Z Z Z N V V ",
"m m L m Z Z L Z J Z Z L L J Z L G 3 $ $ - - = - $ - $ $ $ + + + # # $ $ $ ; - w - w w $ = s D G G G G G G G G Z Z G G Z Z Z C Z ",
"L L m L Z L m Z L Z Z L Z L J L J z z z i 4 4 z a 4 z z z i z z s p s s s b z z z z z i a A J D J J G G G G Z Z Z Z Z Z Z C C N ",
"Z Z L m Z Z L Z Z L Z Z J Z G G J J L J G x V D K K K K G K K K K P H H P P P P P P K K K J J G G G G Z Z Z Z G Z Z Z Z Z Z Z C ",
"L m m Z Z Z m J Z Z Z L Z J Z J J L L L G Z G J K K K K K K P K K P P T Y P Y R P L L K K J J G G G G G Z G G Z Z Z Z Z Z Z C C ",
"m L m L J Z m Z Z Z J Z J L G Z J J J J G G J J K P P P K K K K P P P P P P P Y P P K K J K G J Z G G Z Z G Z Z Z Z Z C Z Z C m ",
"L m Z m m m Z Z Z Z Z Z Z Z Z L Z G G G G G J J J L P L P P P P P P P P P P P P L L K G G Z V B Z Z Z G G Z Z Z Z Z C Z C b m m ",
"C C Z C m m m Z Z J Z L Z L G Z G G G G G G G J K L P P P P P P P P P P P P P P L J G G Z M M M m Z Z G Z Z Z Z Z Z Z Z M m l l ",
"C C L m m m m m Z Z Z Z Z Z Z L G G Z Z G Z G K K L L K L P L P L P P L P P L L J J G Z B z m m M Z Z Z Z G Z Z Z C Z Z Z m l 2 "
};
