/* XPM */
static char *collect_d_31678372416[] = {
/* columns rows colors chars-per-pixel */
"64 64 195 2 ",
"   c #2D1217",
".  c #2D121A",
"X  c #331214",
"o  c #3C1414",
"O  c #35151B",
"+  c #3B171A",
"@  c #301C1F",
"#  c #3D181B",
"$  c #381321",
"%  c #361A23",
"&  c #3B1A23",
"*  c #3C2424",
"=  c #3A2C2D",
"-  c #2E3737",
";  c #3E3231",
":  c #343A3A",
">  c #393E3E",
",  c #421615",
"<  c #4A1614",
"1  c #441917",
"2  c #4B1B15",
"3  c #421B1C",
"4  c #4D1B1B",
"5  c #541513",
"6  c #5C1511",
"7  c #541B15",
"8  c #5B1C16",
"9  c #521C1A",
"0  c #5B1D1A",
"q  c #7B0F08",
"w  c #75140E",
"e  c #78120B",
"r  c #671611",
"t  c #611917",
"y  c #6C1B16",
"u  c #621C18",
"i  c #6D1E19",
"p  c #741711",
"a  c #731A14",
"s  c #7C1C15",
"d  c #731F19",
"f  c #781E18",
"g  c #43211E",
"h  c #4B221F",
"j  c #5B2017",
"k  c #54231B",
"l  c #5B221A",
"z  c #5F281F",
"x  c #64241C",
"c  c #6B231D",
"v  c #652A1F",
"b  c #6B281E",
"n  c #72221C",
"m  c #7B241D",
"M  c #7D2B1F",
"N  c #411425",
"B  c #451920",
"V  c #4A1E20",
"C  c #541A25",
"Z  c #5C1632",
"A  c #641A33",
"S  c #6A1938",
"D  c #462220",
"F  c #4A2824",
"G  c #482927",
"H  c #4D212F",
"J  c #432C2A",
"K  c #4B2D2C",
"L  c #562622",
"P  c #5A2422",
"I  c #542925",
"U  c #5D2A25",
"Y  c #552D2B",
"T  c #5B2C29",
"R  c #4C312F",
"E  c #52312E",
"W  c #5D312D",
"Q  c #453636",
"!  c #4D3433",
"~  c #4E3837",
"^  c #443C3B",
"/  c #4E3B3A",
"(  c #533533",
")  c #5C3533",
"_  c #543937",
"`  c #5A3836",
"'  c #543D3B",
"]  c #5A3C3A",
"[  c #632622",
"{  c #6B2621",
"}  c #642A24",
"|  c #6B2A23",
" . c #62222B",
".. c #69242F",
"X. c #622E2B",
"o. c #6B2D28",
"O. c #742621",
"+. c #742C22",
"@. c #782A23",
"#. c #702E28",
"$. c #643126",
"%. c #63322D",
"&. c #6C342A",
"*. c #6C332C",
"=. c #76332B",
"-. c #73362A",
";. c #7A362B",
":. c #612637",
">. c #682637",
",. c #742637",
"<. c #772739",
"1. c #653430",
"2. c #6C3631",
"3. c #653B34",
"4. c #6B3D34",
"5. c #623D3A",
"6. c #733D32",
"7. c #7B3E33",
"8. c #3B403F",
"9. c #47413F",
"0. c #4F403F",
"q. c #54413E",
"w. c #5C423D",
"e. c #654136",
"r. c #62463F",
"t. c #6C453C",
"y. c #744136",
"u. c #7E4236",
"i. c #754539",
"p. c #794A3E",
"a. c #3E4141",
"s. c #444545",
"d. c #4C4544",
"f. c #474847",
"g. c #4C4847",
"h. c #474949",
"j. c #4B4A4A",
"k. c #524543",
"l. c #5B4442",
"z. c #524847",
"x. c #5A4947",
"c. c #524D4C",
"v. c #5A4E4C",
"b. c #54504F",
"n. c #5B514E",
"m. c #5C5351",
"M. c #5D5856",
"N. c #644643",
"B. c #654A45",
"V. c #644D4A",
"C. c #764B40",
"Z. c #7C4E42",
"A. c #7D5145",
"S. c #75564E",
"D. c #7E5449",
"F. c #785E4E",
"G. c #605552",
"H. c #695550",
"J. c #645A57",
"K. c #7E5A50",
"L. c #766359",
"P. c #7F6A60",
"I. c #841E15",
"U. c #852B1E",
"Y. c #832D26",
"T. c #883629",
"R. c #8F3E2E",
"E. c #973627",
"W. c #953F2E",
"Q. c #803D32",
"!. c #993132",
"~. c #87473C",
"^. c #824C3F",
"/. c #AA4735",
"(. c #BB4A35",
"). c #834E41",
"_. c #8D4A40",
"`. c #835245",
"'. c #8C5346",
"]. c #80554B",
"[. c #8A5649",
"{. c #84594C",
"}. c #8D5A4C",
"|. c #945041",
" X c #A85948",
".X c #B75B47",
"XX c #8E6354",
"oX c #896659",
"OX c #906152",
"+X c #936B5C",
"@X c #9A6E5D",
"#X c #8E6E62",
"$X c #977161",
"%X c #997262",
"&X c #A67D6B",
/* pixels */
"f.f.f.f.d.g.f.f.f.g.h.d.h.d.h.h.d.h.a.: - : > s.j.j.s.> - - - : : s.h.j.h.h.s.> : : - : : - - : - : : a.h.s.j.d.s.s.> - - : : : ",
"f.f.j.f.h.h.g.f.h.f.h.h.h.h.h.d.h.h.a.> : : s.s.j.j.s.> : - - : : s.h.s.s.s.a.> > : : : : : : : : > a.a.s.s.h.h.s.a.: - - - : : ",
"f.f.f.f.s.s.h.s.f.h.g.h.d.h.h.h.h.d.h.a.a.s.s.s.s.j.s.s.> : - : > s.s.a.a.a.a.a.> > > > > > : : > a.a.f.s.s.a.a.s.> > - - : > s.",
"f.s.s.s.a.a.a.s.s.h.h.h.h.h.h.d.h.d.h.h.s.j.s.s.j.j.s.s.s.a.> > a.h.s.s.a.a.a.a.a.a.a.a.a.a.> > a.s.f.h.s.s.a.s.s.s.> > : > s.h.",
"j.s.s.> : : > a.s.s.j.s.h.h.h.d.h.h.d.h.j.h.f.h.s.j.j.j.h.s.s.a.s.d.s.s.s.a.s.a.s.s.s.s.s.s.a.a.a.s.f.h.g.s.a.s.s.s.s.s.s.s.s.j.",
"j.f.s.8.> > > a.s.s.j.j.h.d.s.s.d.h.h.d.h.h.h.g.j.s.j.j.j.s.s.s.s.h.h.d.d.s.s.s.s.s.s.s.s.s.s.s.> s.f.h.f.h.d.h.j.j.s.j.s.s.s.j.",
"h.h.h.s.s.s.a.s.j.s.s.j.s.j.j.s.h.h.h.h.j.j.h.g.j.j.j.s.j.h.s.j.h.h.h.h.h.d.h.s.f.j.h.j.h.s.s.s.s.s.f.f.h.h.h.h.j.s.s.j.j.s.j.s.",
"h.h.d.s.s.s.s.h.j.j.j.s.j.s.j.j.d.h.h.d.h.h.f.g.s.j.j.j.j.j.s.j.h.h.h.d.h.h.h.h.s.j.f.s.j.h.j.s.s.f.s.g.h.h.h.d.j.j.j.j.s.j.s.j.",
"h.d.h.d.h.d.d.h.h.s.h.h.d.d.h.h.h.h.h.h.d.j.h.h.j.f.j.f.h.h.h.j.d.h.j.h.h.h.h.h.h.d.h.h.h.j.f.j.h.h.d.h.h.h.h.h.s.j.d.h.h.h.h.d.",
"h.h.h.h.h.h.h.h.s.j.h.d.h.h.d.h.j.f.d.f.j.j.g.j.f.j.f.j.g.h.j.h.h.j.h.d.j.j.d.j.h.j.j.h.h.j.j.h.h.h.h.h.h.d.h.d.h.h.h.h.d.s.s.s.",
"h.d.h.h.d.h.h.d.j.h.h.h.h.d.h.h.f.j.f.h.j.f.j.f.j.f.j.f.j.j.j.j.j.j.j.j.j.h.j.h.j.h.j.h.j.h.h.s.j.d.d.h.d.h.h.h.s.h.h.d.d.h.h.h.",
"h.h.h.d.h.h.h.h.j.h.h.h.h.h.h.d.f.j.j.j.f.j.f.j.j.j.j.j.f.j.j.j.j.j.h.j.j.h.j.h.h.h.j.j.g.d.d.d.h.h.h.h.d.a.a.s.s.s.h.h.h.h.s.d.",
"h.h.h.d.h.h.d.d.h.d.h.h.d.h.d.h.j.s.j.h.j.j.f.j.j.j.f.j.j.j.j.j.j.d.j.j.j.j.h.j.j.j.g.0.:.} } _ d.j.h.h.h.a.> > a.s.h.h.h.h.s.h.",
"d.h.h.h.d.h.h.h.h.h.j.d.h.j.j.h.j.j.j.j.f.j.j.j.j.j.j.j.j.j.j.j.j.j.j.j.j.j.j.j.j.d.)  .p p i ` h.h.j.h.h.a.a.> a.a.s.h.h.d.h.d.",
"d.s.h.d.h.h.d.h.d.h.j.h.h.h.j.h.j.f.f.s.s.f.j.j.j.j.j.j.j.j.j.c.j.j.j.j.j.j.j.c.h.' i q e i ) k.h.j.j.h.d.s.a.a.a.d.h.d.h.s.s.s.",
"h.h.h.h.d.h.h.j.h.j.h.j.j.j.j.d.j.s.s.s.s.s.s.j.j.j.j.j.j.c.j.j.j.j.j.j.j.j.j.j.c.:.i p i _ d.f.j.j.h.j.h.h.d.h.h.h.h.d.h.h.d.h.",
"d.h.d.h.h.h.h.h.j.h.j.j.j.j.j.j.h.s.s.8.8.a.a.s.f.f.f.f.j.j.j.j.j.c.j.j.j.j.c.h.c.c.:.:.z.j.j.j.j.d.h.j.h.j.h.d.h.h.h.h.d.h.h.s.",
"h.h.h.h.h.d.h.j.j.h.f.j.j.f.j.j.f.s.a.a.8.> 8.s.f.f.f.s.f.f.j.c.j.j.j.j.j.c.h.c.h.h.j.j.j.j.j.j.j.j.j.j.h.d.j.h.h.d.h.d.h.h.h.d.",
"h.d.h.h.j.h.j.h.h.j.h.j.j.j.j.j.j.s.s.a.8.s.s.s.f.f.s.a.s.f.j.j.c.j.j.j.j.j.j.h.c.j.b.j.j.j.j.c.j.j.j.j.j.j.h.j.j.s.j.h.h.d.h.s.",
"s.s.h.d.j.h.d.j.j.j.j.j.j.j.j.j.j.j.j.s.s.s.s.s.h.s.s.s.s.g.j.j.c.h.b.j.j.j.j.c.c.h.j.j.j.b.j.j.j.j.j.j.j.j.j.j.h.j.d.h.h.h.h.d.",
"> a.s.s.h.d.h.j.j.j.j.j.h.b.j.h.j.j.j.h.f.j.j.j.j.j.j.j.j.j.j.j.h.j.j.j.j.j.j.j.h.c.j.c.j.c.j.j.j.j.j.j.j.j.j.j.j.j.h.h.d.h.d.h.",
"- : s.h.j.j.j.j.j.j.j.j.h.j.j.b.j.j.c.c.j.c.j.c.j.j.j.c.j.j.c.j.j.c.j.j.j.j.j.j.c.h.c.h.j.c.c.j.j.j.j.j.j.j.j.j.h.d.h.h.h.h.h.h.",
": > s.h.h.d.h.j.j.j.h.j.b.j.j.j.h.b.b.j.j.c.c.c.j.b.b.j.b.j.j.j.j.j.j.j.j.c.j.j.j.c.h.c.j.c.j.j.j.j.j.c.j.j.j.j.j.h.j.j.d.h.d.h.",
"> s.s.h.j.j.j.j.h.b.j.j.j.j.j.j.j.j.h.j.j.j.j.c.b.j.j.c.j.j.j.j.b.j.j.j.j.j.j.c.j.h.c.h.j.j.d.d.j.c.j.j.j.j.j.j.d.j.j.d.h.d.h.h.",
"s.d.h.j.j.j.j.j.j.j.j.j.b.h.h.j.j.j.j.j.j.j.b.j.c.b.j.j.c.j.j.b.j.j.j.j.j.b.j.j.j.j.j.c.j.h.s.s.h.j.j.j.c.j.j.j.j.j.j.h.d.h.h.d.",
"s.s.h.j.j.j.j.j.j.j.j.j.h.h.b.h.h.b.b.j.j.c.j.j.j.j.c.j.j.j.j.j.j.j.j.c.j.j.j.j.j.b.j.j.h.s.a.s.j.j.c.j.j.j.j.j.j.j.j.j.j.h.h.h.",
"a.a.s.h.j.j.j.j.j.j.j.j.' ] ' z.h.b.h.j.j.j.j.c.c.j.j.j.j.c.j.j.j.j.j.j.j.j.j.j.j.j.j.j.s.s.s.s.h.j.j.c.j.j.j.j.j.j.j.h.j.h.h.d.",
": > a.s.j.j.c.j.j.j.j.z.X.i i  .q.j.h.j.j.j.j.j.j.j.j.b.j.j.c.c.j.b.j.j.c.j.c.j.j.c.j.j.h.h.s.s.j.j.j.c.j.j.c.j.j.j.j.j.j.d.h.h.",
": : > s.j.j.c.j.b.j.j.j.' S p a } ` z.j.j.j.c.j.j.j.j.j.j.b.j.j.j.j.j.j.j.j.j.c.j.j.b.j.j.j.h.j.j.j.j.j.c.j.j.j.j.j.j.j.j.h.d.h.",
": : a.s.j.j.j.j.j.j.j.j.j.:.i a c } ` j.j.c.j.j.j.b.c.j.j.j.j.j.c.j.c.c.j.c.j.j.j.j.j.j.j.j.j.j.j.j.z.j.j.j.j.j.c.j.j.j.j.j.j.j.",
"> > s.h.j.j.j.j.b.j.b.b.c.j.` i i a X.j.j.j.c.j.j.j.j.j.j.j.c.c.c.j.j.j.j.b.c.j.j.b.b.j.j.j.j.j.j.c.j.j.j.j.j.c.j.j.j.j.j.h.h.d.",
"s.s.s.d.j.j.j.j.j.j.j.j.c.h.z.) { c ` j.c.j.j.c.j.c.c.c.c.c.j.c.c.c.b.j.c.j.j.c.j.j.j.j.j.b.b.j.j.j.j.j.j.c.j.j.j.j.j.j.j.s.s.s.",
"h.j.h.j.j.j.j.j.c.j.c.j.j.b.h.c.z.z.c.j.c.j.c.j.j.c.c.j.j.c.c.c.j.c.c.c.c.j.c.j.b.j.h.h.b.j.z.j.j.j.j.j.c.j.c.j.j.j.c.j.h.s.a.8.",
"j.j.j.j.j.j.c.c.j.j.j.j.j.j.b.j.b.h.j.c.b.c.j.c.b.j.c.c.c.c.c.c.c.b.c.c.c.c.c.c.c.h.b.z.) } { X.j.c.j.j.j.j.j.j.j.c.j.j.h.a.: : ",
"j.j.h.b.h.b.b.j.j.j.h.s.h.j.c.j.j.j.c.j.j.b.c.c.b.c.b.c.b.c.c.v.b.b.c.c.c.b.c.c.c.b.z.) d w q i j.b.c.j.j.j.j.j.j.j.j.j.f.a.8.: ",
"j.j.j.j.j.j.h.j.j.h.a.s.h.j.j.c.c.j.j.j.c.j.z.c.b.c.x.x.v.m.c.n.v.b.v.b.v.c.c.c.c.c.l.| d w w o.j.h.j.j.j.j.b.j.j.c.j.j.f.s.8.8.",
"j.j.j.h.c.j.h.j.h.h.a.h.s.j.c.j.j.j.g.f.c.l.5.5.v.l.2.2.x.m.b.v.v.v.v.v.v.b.b.c.c.b.] c p a { ] j.c.c.j.j.j.j.j.j.c.j.c.f.f.f.s.",
"j.j.h.b.j.g.j.b.j.h.h.h.j.j.c.j.j.j.g.f.j.5.o.#.2.2.@.#.V.m.m.v.m.n.m.v.v.n.v.v.n.c.5.O.s O.` j.j.c.j.j.b.h.j.j.j.j.j.j.j.j.f.s.",
"j.j.h.z.` W %.) ) ) k.h.h.j.c.j.j.d.s.g.c.] o.O.m m Y.=.H.M.G.G.m.G.G.G.m.m.n.v.n.c.l.3.%.w.z.c.c.j.j.j.j.j.j.j.j.j.j.j.c.j.f.f.",
"j.c.j.' i p p a p w } j.b.j.c.c.c.j.j.j.c.x.4.@.I.I.I.{ ] z.v.v.v.v.v.c.v.v.m.m.b.m.c.b.b.c.c.j.j.c.j.b.j.j.b.j.j.c.j.j.j.j.f.f.",
"j.h.c.k.c w p y p p X.c.j.j.c.j.c.c.c.c.n.b.N.=.m I.f x ! _ w.r.] R H Q q.v.G.n.n.n.b.b.b.c.j.c.c.j.c.j.j.j.j.j.j.c.j.j.j.j.h.h.",
"c.h.h.j.:.c c c i X.k.j.c.c.c.j.c.c.c.b.n.m.v.N.5.} o.A.#XoX].C.t.2.1.5.t.S.S.B.w.x.n.b.b.c.b.c.j.c.j.j.c.j.c.j.j.j.j.j.c.j.h.s.",
"h.h.c.j.q.X.{ y i ` b.j.c.j.b.c.c.c.v.v.c.k.z.n.H.t.p.+X&X@X`.i.i.y.i.i.y.y.y.$.W r.L.L.J.n.c.c.c.c.j.c.j.j.j.c.j.c.j.c.j.j.h.f.",
"j.j.h.h.s._ } i { ' j.b.j.c.j.c.c.c.n.c./ Q ( t.A.`.`.`.`.C.i.4.i.p.p.2.U j j 7 j 6.oXP.J.b.c.c.c.j.c.j.c.g.' ' q.q.k.j.j.j.f.f.",
"h.h.s.s.s.s./ ' k.c.j.j.c.j.c.c.c.c.v.c.k.5.7.=.o.6.p.^.p.A.A.].XXoXOXA.$.k 7 7 8 v 4.l.q.g.c.c.c.b.j.j.j.' { d y d } %.w.d.f.f.",
"s.a.s.a.a.a.s.f.h.h.j.c.j.c.c.c.c.n.c.m.K. X/.M x 6.[.OXXXXXXX+X+X$X$X{.&.k 7 j j l k J ; 9.g.c.c.h.h.b.c.q.} p e p p i c ` z.f.",
"a.a.a.s.s.s.s.j.b.j.j.b.c.c.c.c.c.b.c.x.D..X(.U.b y.}.OXOXOXOX+X$X%X$XA.$.z z } v P V * = 9.g.c.c.j.b.h.h.c.' 1.X.X.T %.%.' d.f.",
"s.a.a.s.s.s.j.j.j.j.j.j.c.j.c.c.c.b.c.d._ 7.W.T.b $.&.y.^.[.}.XX+X+XXXp.2.6.y.6.} P 4 B * Q d.f.j.c.j.b.j.b.h.h.j.j.b.h.j.j.j.f.",
"s.a.s.s.j.j.j.j.j.j.j.b.j.c.c.b.c.c.c.c.^ K *.7.;.| z } u.}.}.^.p.A.].p.y.p.).i.v k k 2 h = ^ 9.j.j.c.j.j.j.j.h.b.h.h.b.h.h.h.h.",
"a.s.s.f.j.j.j.c.j.c.j.b.z.k.d.k.l.z.x.z.Q K &.;.+.O.b b u.'.'.-.$.&.p.`.p.p.Z.i.$.j 7 7 2 g J ~ ' l.l.z.c.j.j.c.b.h.j.j.h.b.h.s.",
"a.a.s.f.j.j.c.j.j.c.j.j.0./ ( ` ) ( ( ! Y T +.b x b M b -.u.6.} j v y.).).).'.p.6.} l 7 2 h G K I ) ( / d.g.c.j.j.j.h.j.j.j.h.s.",
"> a.g.j.j.j.j.j.j.j.j.0.! I [ v k h g G I U v x x b b b b | x j 8 l | Q.~.|._.7.=.| z l z e.w.K V 9 D H ! q.z.j.j.j.b.j.j.j.f.f.",
": a.s.j.j.j.c.j.j.j.z.( I x y t < , 3 4 k [ | +.b x b b x j j j j 7 j +.W.R.+.x l j j k 4.F.L.q.% o < 4 I ( q.d.c.j.j.j.j.g.f.j.",
": a.f.j.j.j.j.j.j.g.q.) c f r < o , 2 2 k l b @.M b x x j 7 8 j l x b Y.E.M j 7 7 7 k I ) N.v.Q @ X 5 u l Y _ k.d.j.j.j.j.j.j.f.",
"> a.s.j.c.j.j.c.j.z.' %.f s r X + 4 0 0 7 0 x x b c x j j j j l x n Y.!.!.n 7 2 2 9 0  .>.:.H %   , 6 a y l ) k.z.j.j.j.j.j.f.f.",
"a.s.s.f.j.j.j.j.j.z.' X.c s 5 X $ B 4 4 4 4 4 4 2 9 4 k 4 4 2 9 k P ..<.,. .9 2 2 4 C A S Z N . X < r a r 0 Y ' z.j.j.j.j.j.f.j.",
"s.f.f.j.j.j.j.j.j.j.k.) [ y 5 X   . O O + + + o + # # # # # # # # & & & & $ # 3 , # N N N $ .   , 6 i i u L ( q.j.j.j.j.h.j.g.g.",
"j.j.j.j.j.j.j.j.j.c.d._ I P 9 , 1 4 9 7 5 5 8 6 6 t u 0 u 0 u u t t 8 5 8 6 8 t 0 0 0 7 5 2 4 4 9 u u [ T :.' k.z.j.j.j.d.j.f.f.",
"j.f.j.j.j.j.j.j.j.j.c.d.~ ! Y Y T o.#.{ c i i d n f f n O.n f s s s s s s s s f n O.{ c x [ [ P P P I ) ] l.k.j.j.j.j.j.h.h.g.f.",
"f.j.j.j.j.j.j.j.j.j.g.g.z.d.k.l.] ] ` ) Y G I X.} } U U U [ [ c i y y c n { O.{ o.%.W T Y E ( ( _ _ _ q.k.d.z.j.j.j.g.j.j.j.f.f.",
"j.j.f.f.s.s.f.j.j.j.j.c.g.j.c.d.c.z.k.k.d./ / _ ] _ ( ( ! Y Y I U P P  .X.X.1.` ` ] l.' q.' 0.0.k.k.z.g.c.j.j.j.j.h.j.j.j.j.s.s.",
"j.j.j.f.s.s.s.s.j.j.j.j.j.j.j.j.j.c.j.d.d.z.j.c.d.z.d.d.d.' / _ _ _ _ ' q.w.' l.k.z.z.z.g.s.s.d.g.g.c.j.c.j.j.j.j.g.j.j.h.s.a.> ",
"h.j.j.s.s.> a.s.j.j.j.j.j.j.c.j.j.j.j.j.j.c.j.j.j.c.c.j.c.c.c.z.c.z.c.z.z.z.c.c.c.c.c.j.s.a.a.s.s.f.j.j.j.j.j.h.j.j.j.h.j.a.> - ",
"j.j.j.s.a.8.a.h.j.j.j.j.c.j.j.j.j.c.j.j.j.j.j.c.j.j.j.c.j.c.j.c.j.c.c.c.c.j.c.c.c.c.j.f.s.a.8.8.s.s.c.j.j.j.j.g.g.j.h.g.g.s.> - "
};
