/* XPM */
static char *collect_d_11678372415[] = {
/* columns rows colors chars-per-pixel */
"64 64 196 2 ",
"   c #1B0D14",
".  c #220F17",
"X  c #2A181E",
"o  c #3B1C1C",
"O  c #2F1F21",
"+  c #2B2728",
"@  c #362326",
"#  c #3A2527",
"$  c #352A2B",
"%  c #3B2C2C",
"&  c #392E30",
"*  c #2E3737",
"=  c #353434",
"-  c #3D3334",
";  c #373836",
":  c #393937",
">  c #343A3A",
",  c #3A3D3D",
"<  c #4B0F0E",
"1  c #520D0C",
"2  c #54100F",
"3  c #5B110F",
"4  c #4A1414",
"5  c #471B18",
"6  c #5C1412",
"7  c #571916",
"8  c #65140E",
"9  c #631511",
"0  c #661A15",
"q  c #6D1813",
"w  c #701712",
"e  c #731B15",
"r  c #791B17",
"t  c #7B1C15",
"y  c #51211D",
"u  c #69241D",
"i  c #72241D",
"p  c #7F2119",
"a  c #7C291F",
"s  c #54152A",
"d  c #561434",
"f  c #5A1535",
"g  c #681A37",
"h  c #711A39",
"j  c #452323",
"k  c #492328",
"l  c #432C2C",
"z  c #4A2E2C",
"x  c #572422",
"c  c #5A2E2B",
"v  c #43312E",
"b  c #442E32",
"n  c #443433",
"m  c #4C3433",
"M  c #433C3C",
"N  c #493839",
"B  c #4B3C3C",
"V  c #523836",
"C  c #533C3B",
"Z  c #6D2B25",
"A  c #6C2C24",
"S  c #722D26",
"D  c #67342D",
"F  c #742633",
"G  c #7E3D33",
"H  c #3B403F",
"J  c #40403F",
"K  c #4B403E",
"L  c #57433E",
"P  c #74483F",
"I  c #4C3F41",
"U  c #3E4141",
"Y  c #444545",
"T  c #4B4545",
"R  c #474847",
"E  c #494847",
"W  c #474848",
"Q  c #4B4A49",
"!  c #534545",
"~  c #5B4640",
"^  c #524847",
"/  c #5C4945",
"(  c #524D4C",
")  c #594E4D",
"_  c #57504E",
"`  c #5A504E",
"'  c #5C5250",
"]  c #634A46",
"[  c #7C4B42",
"{  c #66514C",
"}  c #77554C",
"|  c #615452",
" . c #6E5853",
".. c #735650",
"X. c #7C5D53",
"o. c #7F6457",
"O. c #91180F",
"+. c #851A14",
"@. c #8B1A12",
"#. c #87191B",
"$. c #911B12",
"%. c #9C1B13",
"&. c #A71D0F",
"*. c #AA1F12",
"=. c #85241B",
"-. c #84231C",
";. c #8D231B",
":. c #8B291E",
">. c #96261B",
",. c #A52115",
"<. c #A92419",
"1. c #B62415",
"2. c #BC2515",
"3. c #B92C1B",
"4. c #8D1E28",
"5. c #802620",
"6. c #852C23",
"7. c #8C2D22",
"8. c #962B24",
"9. c #81372F",
"0. c #963528",
"q. c #933A2D",
"w. c #8E2C32",
"e. c #8F3C31",
"r. c #983835",
"t. c #A93929",
"y. c #B53523",
"u. c #A52A3B",
"i. c #AD3130",
"p. c #C42715",
"a. c #C22B1C",
"s. c #CC2B1B",
"d. c #C52D2C",
"f. c #C63424",
"g. c #C93333",
"h. c #CD3C3C",
"j. c #8C4639",
"k. c #974439",
"l. c #9C493B",
"z. c #A64534",
"x. c #AB4B39",
"c. c #C6432C",
"v. c #D64833",
"b. c #C0533D",
"n. c #F14E35",
"m. c #992847",
"M. c #A32A43",
"N. c #A52E4A",
"B. c #AB2E4B",
"V. c #A9304C",
"C. c #B2324E",
"Z. c #B63151",
"A. c #834D41",
"S. c #8A5045",
"D. c #87544B",
"F. c #9A5447",
"G. c #965E52",
"H. c #A24D46",
"J. c #AF504C",
"K. c #B65D48",
"L. c #956355",
"P. c #B3614D",
"I. c #AE6A55",
"U. c #B66854",
"Y. c #826D64",
"T. c #8C776B",
"R. c #957669",
"E. c #BB6B62",
"W. c #A77565",
"Q. c #B57B69",
"!. c #CE4243",
"~. c #D74444",
"^. c #C65942",
"/. c #C65B44",
"(. c #C9634B",
"). c #C06B57",
"_. c #DF6F55",
"`. c #C8755D",
"'. c #E0684E",
"]. c #BB8976",
"[. c #C98772",
"{. c #C3927F",
"}. c #D69578",
"|. c #FC8665",
" X c #B89C89",
".X c #BBA594",
"XX c #D6A48C",
"oX c #C3AA97",
"OX c #D8A790",
"+X c #D7B49D",
"@X c #D6BBA5",
"#X c #DBC1AB",
"$X c #DDC9B2",
"%X c #E3C6AD",
"&X c #E0C8B1",
"*X c #E7D3BB",
/* pixels */
"W W W W W W W W W W W W W T Q Q T W Y > * * H W W Q Y , > * * > > W W Q Q W Y H > > * > > * * > > > > U U W Q W W Y , * * > > > ",
"W W Q W W W W W W W W Q W W W Q W E U , > , H Y T Q Y H > * * * H U W W Y U U H , > > > > > > > > > U U Y Y W W I U > * * * > > ",
"E R E R W W W W W W W T W W W W W W R Y U Y Y Y W Q W U U > * > H U W U U U U U U , , U , > > > U U U U Y Y U Y U U , * > > U U ",
"W Y Y Y H H H W W W W W W W W W W W W W W W W W W Q W W U U , > U W W U U U U U U U U U U U U , U W W Q Y Y U Y U W U , > U U W ",
"W R I , > > , U I W W W W Q W Q T W Q W W Q Q W W W Q W W W U I I W W W Y Y U U Y I U U W U I U U U W W W W Y Y W W W I U W W W ",
"W R Y H , , H U W W W W T Q W W W W W Q W W E E W W W W Q W W W W W W W W Y Y Y Y W W W Y W U U U U W Q W W W W W W W W W W W W ",
"W W T Y U U U W W W Q W W W W W W W T W Q W W Q W Q Q Q W Q W W W W W W W W W W W W W W W W W W W U W W W W W W W W W Q W W W W ",
"W W W W W W W W W W T W W W W W Q W W W W Q Q W T Q Q W Q W W W W Q W W W W W W W Q W W W W W W W W W W W Q W Q W W W W W W W W ",
"Q W T W Q W T W W W W T Q W W W W W Q E W Q W Q W Q W Q W Q W Q W Q W W Q W W Q W Q W Q Q W Q Q Q W W W Q W Q W W W W W W W W W ",
"W W W W W W W W Q W W W W W Q W Q W W Q Q W Q W Q W Q Q Q W Q Q Q W Q Q W W Q W Q W Q W W Q W W W Q W W W W W W W W Q W Q W W W ",
"W W Q W W W Q W W W W W Q W W T W W W Q W Q W W W Q Q W Q W Q Q Q Q Q W Q Q Q Q Q W W Q Q W Q W Q W W W W W W W W W W W W W W W ",
"W Q W W W Q W W W W W W W W W Q Q W Q W Q W Q Q Q Q W Q Q Q Q Q Q Q Q Q Q W Q Q Q Q W Q W Q W Q W Q W W W Y U U I U W W W W W I ",
"W W W W T W W W W W W W T Q W W Q W Q Q Q W W Q W Q Q Q Q Q Q Q Q Q Q Q Q Q Q Q W Q Q Q Q Q Q W Q W W Q Y Y , , U U W W W W W W ",
"W T W Q W W W Q W W Q W Q Q Q Q W Q W Q Q Q Q Q Q Q Q Q Q ( Q Q Q Q Q Q Q Q Q Q Q Q Q Q W Q W Q W Q W W Y Y U , U I W W W W W W ",
"T W W W Q W W W T Q W Q Q W Q W W W W W W W W Q Q Q Q Q Q Q ( Q Q Q Q Q Q ( Q Q Q Q Q Q Q Q Q Q Q I Q W W Y U Y U W W W W W W I ",
"W W W Q W W W W Q Q Q W Q Q W Q W W Y Y U Y R Q Q Q Q Q Q Q Q Q Q Q Q Q Q Q Q Q Q Q Q Q Q Q Q W Q Q Q Q W W W W W W W W W W W W ",
"W Q W W W Q W Q Q W Q Q Q Q Q Q Q W U U U U U U E Q E E Q Q ( Q Q ( Q Q Q Q Q Q Q Q ( Q Q Q Q Q Q Q Q W Q W W Q W W Q W W I W W ",
"Q W W W W Q Q W W W Q W Q W Q Q Q U U U U U U U R E R R E Q Q Q Q Q ( Q Q ( Q Q ( ( Q Q ( Q Q Q Q Q W Q Q W Q W W Q W W W Q W W ",
"W W W W W Q W Q Q Q Q Q Q Q Q Q Q W U U U U U _ E Y Y Y Y Q Q ( ( ( Q ( ( Q ( ( Q ( Q Q Q Q Q Q Q Q Q Q W Q Q W W W W W W W W W ",
"I Y W W Q W Q W W Q Q Q Q Q Q Q Q Q Q W U Q U Q Q Y Y R E T ( Q ( Q ( Q Q ( Q ( ( Q ( Q Q ( ( Q Q Q Q Q Q Q Q Q Q W W Q W W W W ",
"> U Y W W Q W Q W Q Q Q Q _ Q _ Q Q Q Q _ Q _ Q Q Q Q W Q Q Q ( ( ( Q ( ( Q ( Q Q ( Q ( Q ( Q Q Q Q Q Q Q Q Q W W Q W Q Q Q I W ",
"> > I W Q Q W Q Q Q Q Q Q Q Q U Q Q _ Q _ Q _ _ ( ( _ ( ( ( _ ( Q ( _ Q ( Q Q ( ( Q ( Q ( Q Q ( ( Q Q Q ( Q Q Q Q W Q W W W W W ",
"> H Y W W Q Q Q _ W Q Q Q Q Q _ _ Q _ Q Q Q Q _ ( _ ( ( _ ( ( Q ( ( Q ( Q ( ( Q Q ( ( Q ( Q Q ( Q Q Q Q Q Q Q Q Q W W Q Q W W W ",
"U U I W Q Q Q Q Q Q Q Q Q Q Q Q _ Q Q Q _ _ Q _ ( _ _ _ _ ( ( ( ( ( ( ( ( ( ( ( ( Q ( ( ( Q Q T Q ( ( Q Q Q Q Q Q Q Q Q W W Q W ",
"W W W Q Q Q Q Q Q Q Q Q _ Q Q Q Q _ Q _ Q ( ( ( _ ( _ _ _ _ _ _ _ ( _ ( ( Q ( ( Q ( ( ( Q W Y Y Q Q ( Q Q Q Q Q Q Q Q Q W I Q W ",
"U W W W Q Q Q Q Q Q Q Q U _ Q _ Q Q Q Q ( ( ( ( _ _ _ _ ' _ _ ' _ _ ) ) _ ) ( ( ( ( ( Q T Y Y Y Q Q Q Q Q Q ( Q Q Q Q W W Q W W ",
"U U W W Q Q Q Q Q ( ( Q Q Q Q Q Q Q _ Q ( ( ( ( _ _ _ Q K K K K Q T ( ( _ ) _ ) ( ( ( ( Q T Y Y W Q ( Q ( Q Q Q Q Q W Q Q W W W ",
"> , U W Q Q Q Q Q Q ( Q Q Q _ Q _ _ Q _ ( ( ( _ ) _ ! I @ @ # % - - n N I T ) _ ) ( ( ( ( W E E Q Q Q ( Q Q Q Q Q Q Q Q Q Q W W ",
"> > H Y W Q Q ( Q ( Q ( Q Q Q _ Q Q Q _ ( ( _ _ _ ) I b z z z z z l % v b n ! ( ) _ ( ( ( Q ( Q Q ( Q Q Q ( Q ( Q Q Q Q Q Q W Q ",
"> > U Y Q Q Q Q Q Q Q ( Q ( Q ( Q _ ( ( ( _ _ ' ) I b V P S.A.D.X.} ..o. .B n K ^ ( _ ( ( ( ( Q ( Q ( Q Q Q Q Q Q Q Q Q Q W Q Q ",
"H U U W Q Q Q Q Q ( Q Q ( Q ( Q Q Q _ _ _ _ _ _ I b m A.K./.K.E.]. X XoX.XY.n % N ( _ _ ( ( Q ( Q Q Q Q Q ( ( Q Q Q Q Q Q W W W ",
"U Y W Q Q Q ( Q ( Q ( ( Q ( ( ( _ _ _ Q _ _ _ ( I m A.K.(././.`.XX@X$X*X*XoXT.L N I ( _ ( ( ( ( ( ( Q ( ( Q Q Q ( Q Q Q Q W Y I ",
"W W Q Q Q Q Q Q Q ( Q ( ( Q ( Q _ _ ( ( _ ` ( K N [ P.(.^.b.b.`.XX%X&X#X@X@X+X X .N Y ` ) ( Q ( Q Q Q ( Q Q Q Q ( Q Q Q Q R H H ",
"Q Q Q Q Q Q ( ( ( Q Q T Q ( ( ( ^ ^ ) _ ` ` L n m S.(./.x.z.x.).OX%X+X{.].].+X@XT.- & ( ` ( ( ( ( ( ( Q Q _ ( Q ( Q Q Q R H H * ",
"( W Q ( Q Q ( Q Q Q W E T ( ( ( _ Q ` ` ` ` L = z j.x.x.0.:.7.l.Q.].Q.P.l.F.]. X].* % ( _ ( ( ( ( Q Q Q Q Q Q Q Q Q Q Q E J H * ",
"Q Q Q Q Q Q Q ( Q W R W W Q ( ( ( _ ( ` ( ^ - # c k.z.0.-.=.t u G j.x.z.8.6.D.R.o.v % ( ` ( ( ( ( ( Q ( Q Q _ Q Q ( Q Q E Y H H ",
"Q Q Q ( Q ( Q Q Q Q W W W Q ( ( ^ ^ _ ^ ^ & O c k.z.3.;.t t q 0 S 9.r.0.=.e D .. .B n ) ) ( ( ( ( Q ( Q ( Q Q ( Q Q _ Q Q R R Y ",
"Q Q Q Q Q Q Q Q Q Q W W Q ( ( ( ( Q E _ K % K I.'.n.3.O.w 9 3 6 u i :.:.r 8 7 C { ) ( ) ) ( ( ( ( Q Q ( Q Q Q Q ( Q Q Q Q Q R Y ",
"Q Q Q Q Q Q Q Q Q T Q Q Q ( ( Q ^ Q E ^ ^ J  .}.|.n.s.O.w 3 2 2 2 0 S ;.w 3 4 % / ' ` ` ` ( ( ( ( ( Q Q ( ( Q ( Q Q Q Q Q Q R R ",
"Q Q Q Q Q Q ( Q Q ( Q ( Q ( ( ( _ ( ^ ( / K ` W._.n.s.>.t 3 2 2 7 Z q.7.q 6 4 l / | ` ` ) ( ( ( ( Q ( Q Q Q Q Q Q ( ( Q Q E E R ",
"Q Q Q Q Q Q Q Q Q Q ( ( Q ( ( ( ^ _ ( / ` ` Q L e.y.f.,.t 8 2 1 6 G r.7.q 3 4 k ~ ` ` ) ) ( ( ( ( ( ( Q Q Q ( Q Q ( Q Q Q Q Q R ",
"Q Q Q Q Q Q Q Q Q Q Q Q Q ( ( ( Q _ ( ` ` | ` B c i >.8.=.q 3 1 6 j.x.0.r 9 < j ] | ' ` ) ( ( ( Q ( Q Q ( ( Q Q Q Q ( Q Q Q R R ",
"Q Q Q Q Q Q Q Q Q ( Q ( ( Q ( Q _ ^ _ _ ' ' | ) z 5 u 7.:.p e 0 a I.`.x.7.w 2 j V ) ` ` ( ( ( ( ( Q Q ( Q Q ( Q ( Q Q Q Q Q Q R ",
"Q Q W W W W Q Q Q Q Q Q Q ( ( ( Q _ _ _ ) ) { ~ z y u 6.7.5.-.:.0.U.}.`.x.6.S D V B ) ` ( ( ( ( ( ( Q ( Q ( Q Q Q Q Q Q Q Q Q R ",
"W W W W U W W Q Q Q ( ( Q Q ( ( ( ( ( ) ' ' ^ V D G e.q.0.6.6.8.:.k.[.}.U.z.H.L.{ C K ^ _ ( ( ( Q Q ( Q Q Q ( Q Q Q Q Q Q Q Q R ",
"W W U U U W W Q Q Q Q Q ( ( Q ( ( ( ( ( ) ' I V } G.G.H.r.7.S 5.#.w.E.[.P.m.H.Q.R./ n K ( ( ( Q ( Q ( Q Q ( Q Q ( ( Q Q Q Q Q Q ",
"U U U W W U W Q Q Q Q Q Q ( ( Q ( ( ( _ ( { V b P } } [ 9.#.+.+.#.8.J.J.r.4.w.D.o.L % n Q _ Q ( Q Q Q Q Q Q Q Q Q Q Q Q Q Q Q R ",
"U U U U W W Q W ( Q Q Q ( Q Q ( ( ( ( ( ) ) m @ % v % % x t @.@.%.<.<.8.4.#.e x v % # & T ( Q E Q ( Q Q Q Q ( Q Q Q Q Q Q Q Q R ",
"W W U W Q Q Q Q Q Q Q Q ( ( Q ( ( ( ( ( _ ( B % & - $ X 5 t $.O.&.1.,.O.@.r 7 j $ $ & M T E Y R Q Q Q Q Q ( Q Q Q Q Q Q Q Q Q Q ",
"U U W W Q Q Q Q Q Q Q Q Q Q ( Q Q ( ( ( ) ( ^ Q T Q M # u ;.;.O.,.1.1.%.+.9 k b B Y K Q ^ E Y R R Q Q Q Q Q Q Q Q Q Q Q Q Q W W ",
"H Y W W Q Q Q ( Q Q Q ( Q ( Q ( ( Q ( ( ( ( _ _ _ Y m D 0.y.<.>.<.2.1.*.O.3 o I ) ` ( ( Q Q R R Q Q Q ( Q Q Q Q ( Q Q Q W Q Q W ",
"> U W W Q Q Q Q ( Q Q Q Q Q Q Q Q ( Q ( ( ( _ Q J & A t.c.c.y.1.2.p.p.2.&.8 o b ( ` ( _ ^ Q Q R Q Q Q Q Q Q ( Q Q Q Q Q Q Q Q W ",
", H R W Q Q Q Q Q ( Q Q Q Q Q ( Q ( Q Q _ _ Q M l S z.v.v.v.v.f.s.s.s.s.a.#.5 $ T ( ( Q ( Q Q Q Q Q Q Q Q Q Q Q Q Q Q Q Q Q W Q ",
"> H R Q Q Q Q Q Q Q Q Q Q ( Q Q Q ( ( ( ( Q Y b F i.~.~.!.!.h.g.d.d.d.g.g.i.F k - T Q ( Q Q Q ( Q Q Q Q Q ( ( Q Q Q Q Q Q Q Q W ",
"H H W W ( Q Q Q Q Q Q Q Q Q ( Q Q Q Q ( Q U % f m.Z.C.V.N.N.N.M.M.u.u.M.B.B.m.g @ ; Q ( Q ( ( Q ( Q Q Q Q Q Q Q Q Q Q Q Q Q W Q ",
"U Y W W W Q ( Q Q Q ( Q Q Q Q ( ( Q Q Y ; + X s h g d d f f f f d f f d d g h s O $ Y Q ( Q Q Q Q Q Q Q Q Q ( Q Q Q Q Q W Q W R ",
"Q U Q _ Q Q Q Q Q Q Q Q Q Q Q Q ( Q U > +                                   . . X $ Y Q Q Q Q Q Q Q Q Q Q Q Q Q Q Q Q Q Q Q Q W ",
"Q Q Q U Q Q Q Q Q ( Q Q Q ( Q Q Q Q ( U = * = * > > > U > > * U : ; , > ; ; ; ; , R E Q ( Q _ Q ( Q ( Q ( Q Q Q Q Q Q Q Q Q W W ",
"Q Q Q Q Q Q Q Q Q Q Q Q Q Q Q Q Q Q Q ( Q Q W W W Q ( ( Q ( _ _ ( ( ( ( ( Q ( ( ( Q Q Q Q _ Q Q Q ( Q Q Q Q Q ( Q Q Q Q Q Q W W ",
"Q W _ U Q Q Q ( Q Q Q ( Q Q ( Q Q ( Q ( Q W Y W Q Q ( Q _ Q Q _ Q ( ( Q ( ( ( Q ( Q _ Q Q Q Q Q Q Q ( Q Q Q Q Q Q Q Q Q Q Q W W ",
"W W W Q ( Q U Q Q Q Q Q Q ( Q Q Q Q Q Q Q Q W W W Q ( Q ( Q Q Q Q Q Q Q Q Q Q ( _ Q Q _ E E Q Q ( Q Q Q Q Q Q Q Q Q Q Q W W R Y ",
"Q Q W W U U U ( Q Q Q ( Q Q Q Q Q ( Q Q Q Q Q Q Q Q Q Q Q Q ( Q _ Q _ ( ( ( ( Q Q Q Q Q E R Y R Q Q ( Q ( Q Q Q Q Q Q Q Q W H , ",
"W Q Q U U U U W Q Q Q Q Q Q Q Q Q Q Q Q Q Q Q Q Q Q ( Q ( Q Q ( Q Q Q Q _ Q ( Q Q _ Q E R Y U U R Q Q Q Q Q Q Q W Q Q W W Y , * ",
"Q Q Q W U U U U Q Q Q ( Q ( Q Q Q ( Q Q Q Q Q Q ( Q ( ( Q ( Q Q ( ( _ Q Q ( ( ( ( ( ( E Y H U U R W Q Q Q Q Q Q Q Q Q W W Y > > "
};
