/* XPM */
static char *collect_idle_21678372417[] = {
/* columns rows colors chars-per-pixel */
"64 64 198 2 ",
"   c #080011",
".  c #181215",
"X  c #261A1D",
"o  c #311A1E",
"O  c #2B221F",
"+  c #1E1B21",
"@  c #1B0234",
"#  c #270E20",
"$  c #271622",
"%  c #351F24",
"&  c #3F1F24",
"*  c #3F143F",
"=  c #2B2324",
"-  c #28292B",
";  c #352125",
":  c #3B2325",
">  c #312729",
",  c #3D2529",
"<  c #352A2C",
"1  c #3C2C2C",
"2  c #3D302D",
"3  c #2E3737",
"4  c #353132",
"5  c #3D3332",
"6  c #3D3936",
"7  c #343A3A",
"8  c #3A3E3E",
"9  c #691F2C",
"0  c #422529",
"q  c #47262B",
"w  c #442E2D",
"e  c #59252C",
"r  c #432E31",
"t  c #443433",
"y  c #4A3534",
"u  c #473837",
"i  c #453C3B",
"p  c #4B3C3B",
"a  c #563A36",
"s  c #563E3B",
"d  c #5C3E39",
"f  c #66352D",
"g  c #7A362F",
"h  c #66273A",
"j  c #65223C",
"k  c #70283D",
"l  c #3C403F",
"z  c #46403F",
"x  c #4C403E",
"c  c #54413E",
"v  c #5C423D",
"b  c #6B473E",
"n  c #370F41",
"m  c #391642",
"M  c #56274D",
"N  c #792A41",
"B  c #673B60",
"V  c #3E4141",
"C  c #444645",
"Z  c #4B4644",
"A  c #474847",
"S  c #4A4847",
"D  c #474848",
"F  c #4B4A49",
"G  c #524543",
"H  c #5F4742",
"J  c #534947",
"K  c #524D4C",
"L  c #5A4E4B",
"P  c #55504F",
"I  c #5B514E",
"U  c #575250",
"Y  c #5C5452",
"T  c #664946",
"R  c #61534F",
"E  c #7A4E53",
"W  c #615653",
"Q  c #635955",
"!  c #6A5A55",
"~  c #715E57",
"^  c #7D5D5C",
"/  c #7C655B",
"(  c #7E4D66",
")  c #7E6A62",
"_  c #A40E2E",
"`  c #813A28",
"'  c #A13136",
"]  c #DC3924",
"[  c #C7263E",
"{  c #CE3C32",
"}  c #87473A",
"|  c #AB4B38",
" . c #B44B35",
".. c #D7442F",
"X. c #D84836",
"o. c #DE533C",
"O. c #E5432D",
"+. c #E54E36",
"@. c #E25336",
"#. c #EA5637",
"$. c #E2563A",
"%. c #E55A3C",
"&. c #F2573A",
"*. c #9E1E4A",
"=. c #832D44",
"-. c #8A2F46",
";. c #83374B",
":. c #993549",
">. c #9C3652",
",. c #B02F41",
"<. c #A93654",
"1. c #AE3854",
"2. c #B73958",
"3. c #874354",
"4. c #BF4B51",
"5. c #83685C",
"6. c #B45268",
"7. c #937769",
"8. c #957A6B",
"9. c #9B7876",
"0. c #A26E79",
"q. c #A7767A",
"w. c #B07D7E",
"e. c #D44D47",
"r. c #DB4E4E",
"t. c #E55A41",
"y. c #ED5D43",
"u. c #F55E42",
"i. c #E35150",
"p. c #F05452",
"a. c #CC6853",
"s. c #CA715C",
"d. c #E56346",
"f. c #CC7365",
"g. c #C56172",
"h. c #9B8979",
"j. c #A5866D",
"k. c #AA8474",
"l. c #B1837F",
"z. c #D48975",
"x. c #DF9278",
"c. c #E2836E",
"v. c #FB8D6D",
"b. c #F89B75",
"n. c #FEA47B",
"m. c #AF7980",
"M. c #B28E8C",
"N. c #A49184",
"B. c #AA9988",
"V. c #B79984",
"C. c #B99A85",
"Z. c #BBA896",
"A. c #C49788",
"S. c #D5938A",
"D. c #CA9C95",
"F. c #C1A38D",
"G. c #CCA189",
"H. c #D4A98C",
"J. c #C4A691",
"K. c #C2AD99",
"L. c #DBAA95",
"P. c #C5B19A",
"I. c #D9B79C",
"U. c #E6AC9A",
"Y. c #E6B499",
"T. c #F0B594",
"R. c #C4A8A4",
"E. c #CFB1A8",
"W. c #D5BCA5",
"Q. c #DBBFA7",
"!. c #D5C3AD",
"~. c #DAC4AE",
"^. c #D6C5B1",
"/. c #DCC7B1",
"(. c #DDCBB5",
"). c #D4CCBA",
"_. c #EDCBA5",
"`. c #E5C6A9",
"'. c #E8C6A8",
"]. c #EBCBAC",
"[. c #F4C4A0",
"{. c #F5CDA6",
"}. c #FCCDA5",
"|. c #EFD6A9",
" X c #FED2A7",
".X c #F5D5AB",
"XX c #FCD4AA",
"oX c #FEDBAC",
"OX c #E4CFB7",
"+X c #ECD7BE",
"@X c #E9D8B8",
"#X c #F9D9B4",
"$X c #FFE2AD",
"%X c #FDE3B3",
"&X c #FFE9B5",
"*X c #DFD8C0",
"=X c #E4DDC5",
"-X c #F4E0C6",
/* pixels */
"D D D D D D D D D D D D F F C D D V V V 3 V V D F F V V 3 3 3 7 7 V F F F D V V 7 7 7 7 7 3 7 7 7 7 7 V D F F F D D 8 3 3 3 7 7 ",
"D D S D S D D D F D D D F F F F U V V V 3 V V V F F V V 7 3 3 7 V V D D V D V V 8 7 7 7 7 7 7 7 7 7 V V D F V F D V 7 3 3 3 7 8 ",
"S D S D C C C D S D D D D C C F F D F V V V D D D F D V V 7 3 V V V D V V V V V V V V V 7 7 7 7 V V V V V V V V C V 7 3 3 3 V C ",
"D C C C V V V C D S D D D F C F D F F V V V D D F F F F V V V V V V D V V V V V V V V V V V 8 8 V V D F D D V D C C V 7 8 V V D ",
"D D V 8 8 7 8 V A A A F D D F F D D D F F D F D D F F F D V V V F V F D D V D V V D V V V V V V V V D F D V F V V V C D C V F F ",
"S C C 8 8 8 8 V C A D D D D M F D D D F F F D F V F D F F F D D F D D F D V D D F V F F F D D D V V D F F F V D P M D F V F D D ",
"D D D C C V V C A A D D D D A D F F V F D F D F U F D D F F D D F V F V D D D V F F D D D F D V D V F D F D D D V P F D F D D D ",
"D S D D D D D D D A D D D D D D F F F D F D F D D D F F F F D D V U F D F F F F F V F F D F F D F D F D D F D F F V D D D D D D ",
"D D F D S F D D D D D D S D D S D F F D F D D F V P F P F F V F U F D F F V U V F F F F F D F D F F D D F D F D F V V F F D D V ",
"D D S D D D D D D D D D D S D F F D D F F F F F P V F V F F F F D D F F D F V U F F F D F D D F F F D D D D D F D P U V D D V U ",
"D F D D D D S D F D F D D D S F F F F V D F F F V P F F F F F P F F F D F D F F F F F F D F D F D D D D D V F D V F F F D V D D ",
"F F S F D D F S A D A D F F F D F F F U F F F D F F F P F F F F F F F F F F F F F F D F F F F D D F F D F F V V V F D D F U V D ",
"F C F C F D D D S D D F F D F F U V U V V U V U F F F P F K F F U D D F F F F F F F F F F F F F F F F D V V V V V F V D D D V F ",
"C F D D S D D D D D F F D F F D V U V U U V U V F F U V F F F F F F U F F F F F F F F D F D F F F D F D D V V V V V F F D F D F ",
"F F D D D D D D F F F D F D S F U V U V V U U P F U F P F F F K U U D F F F F F F F F D F D F F F F D F F D V V V F F F D D V U ",
"C F F D D F S D F F F D F F F F V U V U V V V V P V P F K F K F F F F F U D U F U F F U U D F F F D F F F F F F V F V F D F F V ",
"F C D D F F D F D F F F D F F F D V V V V V V U F F P F K F K K P F F F F F F K P F K F F F F F F F F F F D F F D D F V U F V F ",
"F D D D D F F D F D F F F F F F F D V V V V V V F P F D F F F K K P P F P F P F F F P F P K F F F F F F F F F D F F F V V F F F ",
"F D D D F D D F F F F F F D F F U V D V V V V U F F F D D A K K P P P K P F P K P P F K F F P F F F F F F F F F D F D M U V V U ",
"M V A D F F D F F F F F U D U D F F U V U V U U P U F F D F P P P P U U U U P U P F P P F P F F F F P F F F F F F D F F V F F V ",
"l V A D F F F F F F F F V U U U F U F U U U U U U U U F F P P Y U U U Y U U U U P P P F F P F K P F P D F F F F U D D D P F F V ",
"3 l V D D F F F F F U D U U V V U F U U U U U U Y Y U Y Y Y Y Y Y Y Y Y Y Y U U P P P P K K P F P F F F F F F F V V U D V F V U ",
"l l V F F F D F F F F U U V U U F U U U U U U U Y Y Y Y Y Y Y Y Q Y Y Y Y Y Y U U U U P P K K K F P D F F F F F U V U D U V U V ",
"V V D D F F F F F F F V U U V U U U U U Y U Y Y Y Y Q Y Q Y Y Q Y Y Y Y Y Y Y Y Y U U P K K D F P F P F P F F F U F V U V U V F ",
"V D D D F F F F P F F F V U U U U U U U U Y Y U Q U Q Y Y Q Y Y Y Y Y W Y R Y Y Y I I K S S Z Z F P F F F F F F D D F D F F V U ",
"V D D F F F F F F F F F U U U U U U U U Q Y Q Q Q Q Y Q W W W W Y Q Q Y Q W W Q Y Y I K S C z C F F P P F P F F F F F F F D F V ",
"l V D D F F F F F F P F V U U U U Q Q Q Y Q Q Q Q Q Q Y Y Q Y R Q Y Q Q W W W W Y W I K Z S Z S F P P F U F P F F U D F F F F D ",
"3 l V A F F P F F P F U U U U U U U U Q Q Y Q Y U Q Y Q R W I I Y Y I I I R W W R ! I I K J F K K K U F U F F F U V D F F D F F ",
"3 l V V D F P F U F P P P P Y U Q U U Q Q Q Q Q Q Y Q Y I I I P L K K L L I I ! ! W W Y Y I I I U P P K P F P P F F F F F F V U ",
"7 3 V D F F F F F U F P P U Y Y U Q Q Q Q Q Y Y Y Y I I I K J S S S S S S J L I W ! ! R Y Y I Y U U P K F P F F F F U F F F U V ",
"V V V D F F K F F F U U U U U Y Q Q Q Q Q Q U Y Y K S x p i p p p i i i p p i p G I R R R Y I I U P P P P F P F U F F F F F V F ",
"V V V F F K F P U U U U U U Y Y Q Q Q Q U Q Q U P V u v v v c a a a T ~ ) R 5 = < M L R R R I I U P P P P P F U F F F F F F F V ",
"P V P V D D P D U V P P U Y U Q W Q Q W W I R J u w 5.C.C.C.C.C.V.l.J./.+XP.~ 1 y p c L R I I I I I P L K K K F K F F F F D V 7 ",
"F F D P P P D P U P P P U U Q Y Q Q Q W W W J t y / F.~.`.!.Q.!.!.!./.+X-XOXZ.B.B./ c L R R R R I I U L U K K K K F F F D V 7 7 ",
"F F D D D P D P U P P P U U Q Q Q ! W Y I L s y 5.G./.OX^.^.^.^.~.!.!.!.^././.~.Z./ s I R R R I I L P L K K K K K K F K D V 7 7 ",
"F F U V P D P F U V F F U Y Q Q ! Q ! W L y y 5.K.OX(./.^.~.^.!.~.~.!.!.!.`.!.V.~ w t L R ! R I I P P P U K P K K F F F D C V 8 ",
"P V U F P D U P U P F P U Y Q Q ! W Y Y Z < u h.(.=X).~.`.`.].`.'.'.`.'.].].W.7.1 X t L R R R R I I L U L K K K K K K F F D C C ",
"V U V U D P F U U U P U Y Y Q Q Q U J J u : d j.I.!.!.`..XXXXX X}.[.{. XoXoXH.! 5 4 z J L L R I I I I P U U K K K K F F F F D C ",
"F F U F P F F P U U U U Y Y Q Q Q p 5 < : f | a.s.c.U.{.oX$XoXXX X}. XoX%X{.j.r 6 C Z J L R R I I I I I L L K U F K F K F F S D ",
"F F F F F F U F P U U U Y Q Q Q Q t % t E a.y.@.] o.b. X'.Y.Y.[.}.}. XXXXXG.v . 6 x Z J H L I L I I L I U P K K K K K F K D S C ",
"F F U F F U F U P P U Y Y Q Q Q W t w 5.H.v.u.O.] +.b.T.0.B ( A. X XoX XD.( # . 2 C Z J H I I I I L K L L P K K K F K F F F F D ",
"V U V U U F F U P P U Y Y Y Y Q W p p / z.c.&.O.] #.n.H.B @ n 9.{.$XoX_.q.*   . 6 Z G J L L L I I I U L K U U K K K F K K D D D ",
"U F F U D F U F P P P Y Y Y Y Y Q I J G b 4.%...O.d.T.L.3.m M m. XoXoX{.w.M X . 4 z G J L L L L L U P K U P U K K F K K F F D D ",
"V F D V D U F U P P Y Y Y Y Y Q W Q L 5 : } s.s.s.x.T.[.A.9.m.L. XXX X{.L.l.^ z < 5 c J J L L I I I L P L K K K K K F F F D D D ",
"F F V D D U F U P P P U U Y Y W R L x x c j.l.P.E.OX#XXX{._.|.#XXX XXXoX%X#XI.8.c r p J K L I L L L P K K K K K K F K F K F F D ",
"V V V V U D D U P P P Y Y Y U Y Q x x b 7.l.P.!.*X=X=X@X@X%X&XoXoX XXX#X&X&X_.C.j.T a J L J J I L L K P K K K K K K F K F F F F ",
"V V D U D D U F K P P Y U Y Y W R y 0 b 5.j.h.h.B.N.M.R.)./.D.S.U.oXXXU.L.S.k.j.7.T p J J J K L K L L K K K K K K F F F F F S D ",
"V D V D F U D U P P U U U U U W Y y : w y 2 z z t r N m.E.J.6.*.6.[.Y.g.2.<.M w t w y J J J J J J K L K K K K K F K J F F F F F ",
"D D V U F U F U U F U U U U U U Y G y r < > > = = $ 9 4.c.f.,._ 2.c.f.e.[ ' e = > w p J J S Z G J J P K K K K K K F F K F F F M ",
"V V D V F D U F F U U U U U U U U L L Z i i i i 6 4 g X.%.o.X.{ X.t.t.+.X.' a 6 i x G J J G Z S J K K K K K K F K F F K F F F V ",
"V V V U F U D U U U U U U U U U P I Y L K K J S l 5 } o.#.+.@.%.$.X.#.#. .f i K L L L J J J J G J J J K K K K K K K F F F F F D ",
"7 V V D D D U D U D F U U U U U L I I L S Z l 7 5 f | %.&.@.%.%.%.@.&.#.` O - C P P K L J K J K K K K K P F K F F F F F F F D D ",
"7 7 V D U D F U P F P P U P U U K J K L T p - = f | %.y.y.%.%.%.%.#.u.%.` o + t J L K J K K J J K K K K K F K K F K K F F F D D ",
"7 V V U D U D U F P F P U U P U P z p T 3.;.j j ' r.p.r.r.r.r.r.r.r.i.r.:.k h h p x J K K K K J J K K K K K F K F F F F D F F D ",
"7 7 V D D D D D P V U U P P P P K 5 < N >.<.:.:.<.2.2.<.1.1.1.1.1.1.1.1.<.<.<.=.w t G L J J J J K K J K K K F F K F F F F F D F ",
"V V V F F U F U P P V P F F P P P < o q N N -.k k h j j h j M k j j j h k =.-.k & 2 x J K J J G K K K K F K K F F F F F F D F D ",
"V F V F F V U F V U P V U F U U K 2 o ; 0 0 0 , : ; ; ; % ; % % % : : : 0 q q q & t G L K J K K K K P K F K F K F F F F F F A F ",
"F F F F U U V F V P P U U P V P K z i i 6 6 6 i i i z x i z p x z p x x z x x p p G K K J K J J K K K F K K F F K F F F F A S A ",
"F F U D F F V U U P V V F P U P F P P P S Z Z K I I I I I I I I Y I R I I W I Q Y U L K L K K K K K K K F F F F F F F F D F S A ",
"F F F V F F U V V U U P F F F P P P P P K S J P I I I I I I Y I Y Y I W W Y Q I I U P K K K K K K F F K F K K F F F A F F D A A ",
"F F D F V U V U U V P U P F U F P P K P J F F P I I I I I I I I U I I I I Y I I U U L L K K K F K K F K K F F F F F F S F D A C ",
"F F F D V V V U V U V V V U V P F P F K P F P P P I U I U Y U Y Y I Y Y I I Y U U U K K K K F S C S F F F F F F F F F F S A V 7 ",
"F F D V V V V U U V V P V U U F F F S A A S F K F K P K K K K K K P P K F P P K K F S S D C V 8 V C F F S F F F F D D S C C 8 7 ",
"F F F D V V V V V U P V P V P V A A C C C C V C A A D C C D C C C C A D D D C A S D C V 8 7 8 7 7 C S F F D D D D D D D A C 7 3 "
};
