/* XPM */
static char *collect_idle_11678372417[] = {
/* columns rows colors chars-per-pixel */
"64 64 203 2 ",
"   c #1A0716",
".  c #0E1014",
"X  c #2B1216",
"o  c #281A1C",
"O  c #13042D",
"+  c #251E21",
"@  c #341E23",
"#  c #2F0734",
"$  c #222226",
"%  c #2E2525",
"&  c #2F272A",
"*  c #352225",
"=  c #3A2326",
"-  c #3E2827",
";  c #342729",
":  c #3E2328",
">  c #332A2C",
",  c #3C2B2C",
"<  c #38302F",
"1  c #2E3737",
"2  c #373534",
"3  c #3E3334",
"4  c #343A3A",
"5  c #3A3E3E",
"6  c #4F221F",
"7  c #401F24",
"8  c #45242A",
"9  c #432C2D",
"0  c #582823",
"q  c #5B322F",
"w  c #5B2638",
"e  c #433434",
"r  c #4A3533",
"t  c #433836",
"y  c #453D3B",
"u  c #493838",
"i  c #4A3D3B",
"p  c #513635",
"a  c #533937",
"s  c #5B3A36",
"d  c #543D3B",
"f  c #6F2E27",
"g  c #61332C",
"h  c #6E3129",
"j  c #66233D",
"k  c #6C253C",
"l  c #3C403F",
"z  c #4A403D",
"x  c #53413E",
"c  c #5B413D",
"v  c #521D4E",
"b  c #471C50",
"n  c #792943",
"m  c #63384E",
"M  c #3E4141",
"N  c #444645",
"B  c #4A4543",
"V  c #474847",
"C  c #4A4847",
"Z  c #474848",
"A  c #4B4A49",
"S  c #524644",
"D  c #584442",
"F  c #544946",
"G  c #5C4A46",
"H  c #524D4C",
"J  c #5A4E4B",
"K  c #55504E",
"L  c #5A514E",
"P  c #575250",
"I  c #5C5452",
"U  c #664C46",
"Y  c #774B42",
"T  c #60534F",
"R  c #6A514A",
"E  c #74455A",
"W  c #615653",
"Q  c #635855",
"!  c #725D57",
"~  c #7E6257",
"^  c #7C635A",
"/  c #7B6C61",
"(  c #9F0F35",
")  c #BE1D3F",
"_  c #AA3D2A",
"`  c #AD3A34",
"'  c #DB3823",
"]  c #C93934",
"[  c #E43A25",
"{  c #A94635",
"}  c #B64834",
"|  c #BB503F",
" . c #C44C38",
".. c #DE4D34",
"X. c #CC5138",
"o. c #D2523B",
"O. c #DC543B",
"+. c #E54938",
"@. c #F64E35",
"#. c #E2563B",
"$. c #E95338",
"%. c #E4593D",
"&. c #EB5B3E",
"*. c #F15336",
"=. c #822C46",
"-. c #993744",
";. c #AC3753",
":. c #AD3953",
">. c #AF3858",
",. c #B73A57",
"<. c #935E4F",
"1. c #AF4C4B",
"2. c #AE415E",
"3. c #82675D",
"4. c #8A6F5F",
"5. c #824F67",
"6. c #8C506F",
"7. c #905571",
"8. c #B64F67",
"9. c #866E63",
"0. c #9C6E65",
"q. c #897468",
"w. c #927566",
"e. c #9C7E6E",
"r. c #996671",
"t. c #A47478",
"y. c #B7707F",
"u. c #D44B4F",
"i. c #DA4E4E",
"p. c #D65A45",
"a. c #E04F4F",
"s. c #E65A40",
"d. c #EB5941",
"f. c #F25D41",
"g. c #E65151",
"h. c #EB5252",
"j. c #DE6049",
"k. c #D76C57",
"l. c #EB6749",
"z. c #F96042",
"x. c #EF724E",
"c. c #E47258",
"v. c #FB7759",
"b. c #C25B62",
"n. c #C16F6E",
"m. c #CB726F",
"M. c #9D8172",
"N. c #9A8878",
"B. c #AC806F",
"V. c #A08272",
"C. c #A68D7B",
"Z. c #D59077",
"A. c #EA9679",
"S. c #B6838C",
"D. c #A99A88",
"F. c #B89787",
"G. c #BFA68E",
"H. c #B2A492",
"J. c #D28C84",
"K. c #C59789",
"L. c #C79C97",
"P. c #C3A48E",
"I. c #C9A892",
"U. c #D9B79F",
"Y. c #F2B18E",
"T. c #FDBA8E",
"R. c #E4AA96",
"E. c #E3B59B",
"W. c #E9BB9D",
"Q. c #D5ADA4",
"!. c #CCB8A8",
"~. c #D2B9A3",
"^. c #D9BBA3",
"/. c #E8BCA1",
"(. c #E5C19D",
"). c #F7C59A",
"_. c #D5C2AE",
"`. c #DDC4AB",
"'. c #D6C5B1",
"]. c #D7C8B3",
"[. c #DCCAB4",
"{. c #DDD3BA",
"}. c #E9C6A5",
"|. c #E1C6AB",
" X c #F3C4A4",
".X c #F5CAA6",
"XX c #FECEA5",
"oX c #F7CCAA",
"OX c #FFD3A7",
"+X c #F6D2AA",
"@X c #FDD5AA",
"#X c #FFDCAC",
"$X c #E2CCB4",
"%X c #E1CFB8",
"&X c #E7D3B7",
"*X c #F4D8B1",
"=X c #FBDCB1",
"-X c #FFE2AE",
";X c #FEE3B3",
":X c #FFEAB5",
">X c #F6DFC4",
",X c #FBE7CC",
"<X c #FFFAC1",
/* pixels */
"Z Z Z Z Z Z Z Z Z A Z Z Z Z A Z Z M M M 4 4 M M P A M M 4 1 1 1 4 M A A A Z M M 4 4 4 1 4 4 4 1 4 4 4 M Z N Z A Z N 5 1 1 1 4 5 ",
"Z Z C Z Z C Z Z Z C A Z A Z Z A P M M M 4 M M Z Z Z M M 4 1 1 4 M M Z A M Z M M 4 4 4 4 4 4 4 4 4 4 M N Z Z N N N N 4 1 1 1 4 5 ",
"Z C C Z N N N Z Z Z Z Z B A Z Z A Z Z M M M M Z Z A Z M M 4 4 M M M Z M M M M M M M M M 5 4 4 4 N M M M Z M M Z N M 4 1 1 1 5 N ",
"Z N N N M M M N Z C Z Z Z Z Z A Z Z Z Z M M A A Z A A A M M M M M M Z M M M M M M M M M M M M 4 M M Z Z Z M M M N M M 4 5 5 N Z ",
"C Z M 5 5 4 5 M N Z C Z Z Z A Z P M A A A Z P M Z A A Z Z M M M M M A Z M M M Z M M Z M M M M M M N Z A Z Z Z Z N Z N N N N Z Z ",
"Z N N l 5 5 5 M N Z Z C Z Z A Z M A A A Z Z Z P M A A Z Z P A M P P M A A Z M Z Z Z A Z A Z Z Z M M Z A Z Z Z Z Z Z Z Z Z Z Z N ",
"C Z Z N N M M N Z Z Z Z C Z B Z A A P M A Z A M P Z A A Z A Z Z M P A M Z Z A Z Z Z Z Z A Z Z M Z Z Z Z Z Z Z Z Z Z Z A Z A Z N ",
"Z Z Z Z N Z Z Z Z Z C Z Z Z Z Z M P M A Z A Z A Z Z A Z Z Z A Z M Z Z A A Z A Z Z Z Z Z A A Z Z M Z Z Z Z Z Z Z A Z Z Z Z A N Z ",
"Z Z Z Z A N A N Z Z Z A N N A A M M P M P M Z A M A A A A A A A A Z Z A A M P A Z A Z A Z A Z A A Z Z Z Z Z A Z Z Z Z Z Z Z B Z ",
"Z A A Z N A Z A Z B Z A A A A N P M M P M P A A A A A A A A A A P Z A A Z A Z Z A A A Z A A A Z A A Z Z A A N A Z A Z Z Z Z Z Z ",
"Z Z Z Z A A A N Z Z Z A Z Z A Z M P M P P M P Z A A A A A A A A A A Z A A A A A A A A A Z Z Z A Z A Z Z N N N N Z Z Z Z Z N Z B ",
"Z A Z N A N A N C A B A Z Z A A K M K M M P Z A A A A A A A A A A A A A A Z A A A A Z A A A A A A Z A A Z N N M N N N Z Z Z Z Z ",
"Z Z Z A B A A A Z Z A Z A A Z A M P M P K M A A A A A A A K A A A P P Z A A A A A A A A A A A A Z Z A Z N M M M 5 N N A Z N N Z ",
"Z A Z Z Z Z A N Z A Z A A A A A A A P M A A K A A K A A A A A A A Z A A A A A A A A A Z A A A A A A Z A A M M 5 M N Z N Z m Z Z ",
"Z Z Z A Z Z A N A A A Z A A A N A A M K A M A A A A A K K A A A P A P A A Z A A A A A P A A A A A Z A A Z N N M N N Z A Z Z Z Z ",
"A Z Z B Z Z Z A A A Z A A A A A A A A A M A A A A K A A A A K K A A Z A A P P A P Z P M A A A A A A A A A A N Z N Z Z Z Z Z Z Z ",
"Z Z Z A N B Z A Z A A A A A A A A Z M M M M M Z A H A A A A K A H A A A A A A H H A A K A A A A A A A A A A Z Z A Z Z Z Z A N Z ",
"A A Z A A A A Z A A Z A A A A A Z Z M M M M M M A H A A A A A K P P K A A H K A H K A A K A H A A A A A Z A A Z Z A A Z A N A N ",
"Z N A A Z A A Z A A A A A A A A Z Z M Z M M A A A H Z Z A A A A K H H H P H K H H H H A A H A H A A A A A A A A A A Z A Z Z B Z ",
"N N N Z A Z A A A A A A A A P A A P A A P A A P K K A Z A A K K P P K P P P P P K H K A K A A A H A A A A A A A A Z A Z Z Z Z A ",
"5 5 N Z A Z A A A A A A A A A Z P A P A P P A P P P P H H K P I P P I P P P P P K K H K H A H H A H A A H Z A A A Z Z A Z N Z Z ",
"4 5 M Z A A A A A A P A A A P P P A P P P P P P I I P I P P I I P P I I P I P P P H P A H H H H H A A A A A A A A A A Z Z m Z Z ",
"4 5 N Z A A A A A A A A P A P A A P P P P P P P I I I I I I I I I Q Q P I I P I P P P P K H H H H H A H H A A A A A Z A Z A Z Z ",
"M M N A Z A A A A A A A Z P A P P P P P Q P P Q I Q I I Q I Q I Q I I Q I I I I P P P P K A A A A H H A A A H A A A A A A A Z Z ",
"N N Z A A A A A A H A A P A P A P P P P P Q P Q P Q P Q I W I I I I W I Q I I I I I K H A Z B B A H A H K A K A A A A A A Z Z Z ",
"N N Z A A A K A A A A H A A P P P P P P P Q Q Q Q Q Q Q Q W Q Q I Q W I Q Q W Q W T I A Z z M N A A K A A A A A A A A A A A Z Z ",
"5 M N Z A A A A A A A P P P P P P P P Q P Q Q Q P Q P Q Q Q Q Q Q Q Q W Q Q Q Q Q W I H A Z B Z A H A K K A A A A A A A A N B A ",
"4 5 M Z A A A A P A A P P P P P P Q P Q Q Q Q P Q Q Q P J F F F H A H F F F G J T Q W L F F F H H K K H K A K A A A A A A A A A ",
"4 4 5 N Z A A H A A P A P P I P Q Q Q Q Q Q Q Q Q I W F e : ; * * ; * * = = , i G T T W T P J P K H H H H H A A H H A A A A A A ",
"4 4 M N A A A H A P A P P P P P P Q P Q Q Q Q P I I S u a m s s s a r a U ! ^ U u r x J W W T P P P P K K A K A A A A A A A A A ",
"4 5 M Z A A H A P P A P P P I I Q Q Q Q Q P Q Q I A e u 3.C.C.V.M.M.e.e.F.!.'.D.u @ r S J T T I J P P H H H H A H A A A A A N A ",
"M N Z Z A H A H A P P P P P Q I Q Q Q Q P Q P Q H t 9 ^ G.`.^.~.~.~.U.~.$X>X,X!.D.q.^ U z m T I J P P H H H H H H A A A A Z N M ",
"M P M P M P P A P A A K P P I I Q Q Q W I T I x u r ~ P.`.%X[.[.[.[.[.[.[.%X%X[.`.&X~.9.r x T L L L H H H H H H H A A A A M M 5 ",
"P M P M P P M P K P P P P P Q I Q Q Q W W W S r d 3.P.[.$X].].'.'.'.'._._._._.~.`.>X%Xq.p x T T L L L L H K H H A H A A A M 4 4 ",
"M P M P M P P A A K K K P Q Q Q Q Q Q W Q W z % J D.{.{.]._.`.|.|.`.`.`.`.|.|.^.I.I.H./ a D W T L L K H H H H H H H A A A M 5 4 ",
"P M P P M P A A K K A A P P Q Q Q Q W T L J e o R F.`.[.].|.+X+XoXoX.X.X.X+X#X}.C.N.q.^ a D W T J L K J P H H H H A H A Z M 5 5 ",
"M M P A P P A P A A K A P I Q Q Q Q Q G z 3 9 h 1.m.Z.A./.*X;X-X#XOXXXXXXX=X:X).4.G L J c G T T L L H L H K H H H A A H A Z N N ",
"P P P A M P P A P K P P I I Q Q Q T L x < z Y | O.O.X.c.Y.+X}.}.(.XXXXXXOX=X-XK.9 $ z x S J T T L L L L L H P H H H H A A A Z Z ",
"A A M P M P P A P P P P I Q Q Q I J H z z q.Z.v.@.[ ' l.T./.t.5.t.E.OX@X@XoXI.E X + t F J T T J L L L L L I H H H H H A H A Z N ",
"A A A A P A A K P P P P I I Q Q I K J F c C.Y.v.@.' ' x.T.F.b O v K.#X-X;XE.7.#   % z G J J T J L L J K K H H H H H A H A A Z N ",
"A P A A P P A P K P P I I I Q I W L L J x U <.O.*.[ ' x.T.F.b O v K.#X-X#XE.6.#   ; i F J J J T J P P J P H K H H H A H A A Z Z ",
"A Z A P A A A P K K P I I I Q I W I T L H 5 - f { j.k.A.).R.r.E r.R.OXOX@X.XK.m   + B F J J J L J J J P P K H H H A H A A A Z Z ",
"A A A A Z P P A P P P I I I I Q W W T L K z $ X U B.I.}.@XOXW.U.(.+XOXOX@X;X=XK., o t F J J J L J J J H P H K H H H H H A A A N ",
"A Z M A Z A A P P P P P I I I I I T T L B 3 > z / D.!.{.&X*X;X:X:X-X#XOX#X,X<XoX9.9 < i S J J J J P P H J H H H H A A A A A A Z ",
"A A M M Z A P P K K P P I I L W W T L K i e T M.G.~.].[.!.!.{.}.W.R./.@XoX/././.I.4.x e z G J J J J P J H H H K H H H A A A A C ",
"M M Z Z A P P A K P P P I I I I L W W F r R e.P.^.$X&XQ.y.S.!.L.8.2.J. XR.n.b.m.I.G.w.c 9 z L J L P J H H H H H H A H A A A C A ",
"M M Z A A A A P H K K L L L L I W W W x 9 R w.w.N.D.D.t.:.b.J.y.` ( b.A.m.,.) ,.0.N.9.c - u K L J H H H H H H H A H H A A A A Z ",
"M M M Z A P A A K K P I P P L I L L L F - 9 p 9 e 3 2 q ` #.s.p.] ] u.p.d.+.[ ` q t a 9 = u F F H J P H H H H H A H A H A A B Z ",
"A A M P A A P A P P P P P P P P L L T F 3 ; ; ; ; $ . X _ *.*.....#.....$.%.} h : ; , e 9 i B B S J H H H H H H A A H A A A A A ",
"M M M Z Z P A P A P A P P P P P L L L L z y t z y 1 o 6 } $.$...%.%.O.$.*.o.h & 5 B z z B B z B F A H H H H H H H H A A A A Z N ",
"M M M P A A Z P P A P P P P P P K L H J H A F A z 3 q { o.&.s.O.O.O.O.%.f. .0 $ B I J H H F S F F J H H H H H H A A A A A A Z Z ",
"4 M M A Z P A A A P P P P P P P J K J J J F A l 2 g { &.d.#.O.#.%.O.#.&.z.X.0 $ Z I J F J F F H A H H H H H A H A H A H A B Z Z ",
"4 4 M P A A A P A P A P P P K K H H J J F C z > q } f.f.f.d.s.s.%.&.&.&.z.o.h & z K H F F H F H H H H H H H H A H A A A A A A Z ",
"1 M M A A A Z P A A P P P P P A J H H J H B 2 w -.g.h.a.i.a.i.u.p.i.i.a.g.u.-.w u z F J J H H F F J H H H H A H A A A A A A B Z ",
"4 M M A P A P A P A K A P P K K H F H H z < 8 =.,.u.>.;.>.;.;.;.:.:.;.;.;.>.>.=.8 e S F J S H F H H H H H A H H A A A A A Z A A ",
"M M M A Z A Z A K A A K A A P A H H J F , o 8 k k k j j j j n w j j j j n n =.k 7 , A F F H S A A H H F A H A A H A A A A Z A A ",
"Z Z Z Z A A K A A A P A P A P A H H H B - @ = - : = @ * @ * @ @ @ @ = = = 8 8 8 : e S J F H H F H H H A A H A H A A A A A A A Z ",
"Z A A A A A A A A K A A A K A K H F H F t t t t y y y z y y z i z z z z z z z i i S H H H S H S H H H H H H A A A A A A S A Z Z ",
"Z Z A A A A A A A P A P A P P A H H H H C C C H L L L L L L L L T T L L L W I L T J J H J H H H H H H H A A A A A A A A A A B A ",
"Z A A A A A A A A A A A K A A K H H H K H C F K L I I L L L L I I L W T W I W W I J P J H H H H H H A H A H H A A A A A A A N A ",
"A A Z A A Z A A A A A A A K A K H H K K A F H K K I K L L L L J L L L I L L I L P H H H H H H A A A H A A A A A A A A A A A N M ",
"Z A Z Z M M M A A A A A A A A A H H H A H C H L L L I L P I I I I L I I L I P L P P H H H A A A B A H A A A A A A Z A A N N M 5 ",
"Z A A Z M M M V A A A A A A A A A A C Z Z A Z A H A A K H H P A H H H H K H K H H A A A B N N 5 M N Z A A A A A A N A A Z N 5 4 ",
"A Z Z Z M l M Z A A A Z A A A A Z Z V N N N M N V V V V Z N N N N Z V Z N V Z Z A N N M M 4 4 4 5 M A A A A N A N A A A N N 4 1 "
};
