/* XPM */
static char *enemy_21678372746[] = {
/* columns rows colors chars-per-pixel */
"64 64 200 2 ",
"   c #030303",
".  c #070809",
"X  c #0C0C0C",
"o  c #0D1515",
"O  c #121212",
"+  c #181B1B",
"@  c #1B1B1C",
"#  c #291312",
"$  c #20201F",
"%  c #1F1F21",
"&  c #391C22",
"*  c #1F2223",
"=  c #1D2929",
"-  c #232324",
";  c #262729",
":  c #25292A",
">  c #2C2C2D",
",  c #352B2B",
"<  c #31312F",
"1  c #2E2F31",
"2  c #2B2D3D",
"3  c #3D2B35",
"4  c #2D3434",
"5  c #2F3838",
"6  c #343434",
"7  c #383837",
"8  c #353638",
"9  c #333A3A",
"0  c #3B3D3D",
"q  c #771D20",
"w  c #512F32",
"e  c #39403F",
"r  c #111F44",
"t  c #2B3147",
"y  c #343A45",
"u  c #3E3F41",
"i  c #343A54",
"p  c #503842",
"a  c #3E4141",
"s  c #3B464B",
"d  c #3B4152",
"f  c #3B4B51",
"g  c #38486C",
"h  c #444546",
"j  c #464749",
"k  c #474848",
"l  c #494949",
"z  c #53474F",
"x  c #41514F",
"c  c #51504E",
"v  c #434657",
"b  c #454951",
"n  c #4E4E51",
"m  c #4C4E59",
"M  c #465454",
"N  c #4F5052",
"B  c #4D5259",
"V  c #525354",
"C  c #515359",
"Z  c #5B5B5B",
"A  c #6F4C4D",
"S  c #444965",
"D  c #575A67",
"F  c #4F5D72",
"G  c #5F6060",
"H  c #5E6372",
"J  c #666466",
"K  c #6B6C6D",
"L  c #70716E",
"P  c #636672",
"I  c #666C7F",
"U  c #6D6D79",
"Y  c #677577",
"T  c #747573",
"R  c #7C7C7C",
"E  c #930E16",
"W  c #921D25",
"Q  c #B83F26",
"!  c #A12F36",
"~  c #FF0E1B",
"^  c #ED121E",
"/  c #EB1824",
"(  c #EB2933",
")  c #E82D38",
"_  c #FF2935",
"`  c #FF2E39",
"'  c #CF653B",
"]  c #953A44",
"[  c #FF3642",
"{  c #83574C",
"}  c #B1525A",
"|  c #996C71",
" . c #807F7F",
".. c #ED454F",
"X. c #EF4E56",
"o. c #F64B55",
"O. c #F5755A",
"+. c #C26167",
"@. c #FA616A",
"#. c #EF797F",
"$. c #F9757A",
"%. c #81807C",
"&. c #676D80",
"*. c #666C82",
"=. c #6B7185",
"-. c #6E7489",
";. c #747889",
":. c #FA7F86",
">. c #70858A",
",. c #788898",
"<. c #878988",
"1. c #878C9D",
"2. c #8A9196",
"3. c #96989A",
"4. c #A49399",
"5. c #838BA7",
"6. c #858DAA",
"7. c #8E92A4",
"8. c #8992AD",
"9. c #9A9EA6",
"0. c #9598A8",
"q. c #8E96B4",
"w. c #8E99B4",
"e. c #929AB6",
"r. c #9A9FB4",
"t. c #949DBB",
"y. c #9CA4A9",
"u. c #99B3AF",
"i. c #99A1BC",
"p. c #9CB0B0",
"a. c #A3A6A8",
"s. c #ACACAB",
"d. c #A2A8BD",
"f. c #ACB5B5",
"g. c #B1B1B4",
"h. c #BCBBBB",
"j. c #D09DA7",
"k. c #FE9FA5",
"l. c #D7B1B3",
"z. c #F2A3A8",
"x. c #FFAEB1",
"c. c #FBB3B8",
"v. c #969EC2",
"b. c #9BA4C4",
"n. c #9CA6C9",
"m. c #A2AAC4",
"M. c #A9AFC6",
"N. c #A3ACCB",
"B. c #A9AFCA",
"V. c #AEBAC4",
"C. c #AEB4CD",
"Z. c #B1B6C6",
"A. c #B0B6CF",
"S. c #B6BCCC",
"D. c #A5AFD1",
"F. c #ADB6D3",
"G. c #AFBBDA",
"H. c #B4BBD4",
"J. c #B4BCDA",
"K. c #E1BEC2",
"L. c #A8C3C8",
"P. c #B7C1C1",
"I. c #BAC0D6",
"U. c #BEC4DB",
"Y. c #C8C7C6",
"T. c #C5C7CB",
"R. c #CCD0CF",
"E. c #C7CCD3",
"W. c #C2C7DE",
"Q. c #C3CADC",
"!. c #C7D6D7",
"~. c #D5D5D4",
"^. c #D3D9DF",
"/. c #DBDBDB",
"(. c #F8CFCE",
"). c #F0CED1",
"_. c #C4CBE5",
"`. c #CDD4E4",
"'. c #CBD6E8",
"]. c #D5DAE7",
"[. c #D3DDF2",
"{. c #FFDEE1",
"}. c #DEE3EE",
"|. c #DCE3F2",
" X c #DBEBF8",
".X c #E2E3E4",
"XX c #E2E7EF",
"oX c #E3E9EA",
"OX c #F0EFEE",
"+X c #E2E6F4",
"@X c #E6EBF6",
"#X c #EAEEF4",
"$X c #E3EBFA",
"%X c #EAF3F4",
"&X c #ECF3FB",
"*X c #F4F3F4",
"=X c #F0FAF6",
"-X c #F3F5FB",
";X c #F4FAFE",
":X c #FCFDFD",
/* pixels */
"k l l l h a h h h h l l l h l l l l w 5 4 e e l l l l h h h a h h h h l l l h h a a h h h h h l h h h h h l l l l h e e < 4 e < ",
"k k l h h a h h h h h l l l l l l h e e 4 e a l l l l h h h h h h l l l h h h h h a h h l h l h l l l h h h h h l h e < = e e e ",
"h l l h h h h h a h h h l l l l l l h h e h h k l h l h l h h h h l h h h a a h h h h l h l h l l l l l l h a h h h 7 < e e e e ",
"l l l h h u u u a h h h l l h l l h l l l l l l l l l l h l l h l h h a a a a h a h h h l h l l l l l h l h a 7 h h a e = e e e ",
"l l l h h h h h h h h l h l h l l l h l l l l l l l l h l l h h h h h h a h h a a h h h h h h l h l l l h l h h l h l e e h h l ",
"l l h l h h l h h l h l l l l l l h l l h l l l l h l l l h h h h h h h h a h a a h h l h l h h h h h l h l h l l l l l l l l l ",
"h l l l l l l l l l l h l l h l l l l l l l l h l l l l l h h h h h l h h h h a h l l h l l l l l h l l l l l l h l l l l l l l ",
"l l h l l l h h l h l l h l h l l h l h l l l l l h l h l l h h h h h h h h h l h l l l h l l h l l h l l h l l h l l l l l l h ",
"l l l l l l h h h h h l l l l h l p l l l l h l h l l h l h l l l h l h h h h l l l l l l h l l l h l l l l l l l l l l l h l l ",
"h l h l l h h a 0 7 h h h l l l l l l l l h l l l l l l l l l l l l l h h h h l l h h l l l l l l l l h l h l l h l h l l l l l ",
"l l l h h h h a a 0 h h l l h l h l l l l l l l l l l l l h l l l h h h h h h l l l l l l h l l h l l l l l l h l l h l l l h l ",
"h l l l l l h h h h h h l h l l l l l h l h h l l h h l l l l k l l l l h h h h h l h l l l h l l l l l l h l l l l l l l h l l ",
"l l h l l l l l l h l h h h l l l l h l l l h l l l l l l l l l l l h h h h h l l l h l l l l h h h l l l h l h l l h l h l h l ",
"l l l l h l h l l l h l h l h l l l l l h l l l l h l h l l l l l l h h h h h h l l l l l h l l l l h l l h l l h l l l l l h l ",
"l l l l l l l h l h l h h h l l l h l l l l h l l l l l l l l l l l h h h a h h l l l l l l l l l l l l l l l h l l l l l l l l ",
"l l l l h l l l l l l h l l h l l l h l h l l l l l l l l l l l l l h h h h a h h l l l l h l h l l c w l h l l l l l h l l h l ",
"l l l l l l l l l h l l l l l l l l l l l l l l l l l l l l l l l l j h h l k k l l l l l k k l l l h l l l l l l l l l l l h l ",
"p l l h h l l h l l l h l h h l l h h l l l l l l l l l l l l l l k h h h k l l l l l l l l l l l l l l l h l h h l h l h l l l ",
"l l l l h l l l l h l l l h l l l l l l l l l l l l l l l l l l l l l k k k l n l l l l l l l l l h l h l l l l l l l l h h h l ",
"h h l l l l l h l h l l l l l l l l l l l l l l l l l l l l l l l c l l k l l l l l l l l l l l l l l l l h l l l l h l l c h l ",
"e e h l l l l h l l l h l l l l l l l l l l l l l l l c l l l l l l n l l l c l l l l l l l l l l l l l l l l l h l l l l l l l ",
"e e h l l l l l l l l l l l h h l l l l l l l l l l l l n l l l l l n l l l l l l l l l l l l l l l l l l l l l l l h l h l h l ",
"e e l c l l l h l h l l l l l l l l l l l l l c l l l k l l k k l l l l l V V l l l c l l l l l l l l l l l l l l l h l l l l l ",
"e e w l l l l l l l l h l l l l l l l l l l l l 0 6 7 7 7 0 7 6 7 6 1 6 6 h l h k n l k h k x l l l l l l l l l l l l l l h l l ",
"e h h l l l l l l h l l l l c l l l l l l l l a , + + @ - - $ - - - - - 1 0 w e l V V l s h k k l l l l l c l l l h l h l l h l ",
"a h l l l h h l h l h h h l h l l l l h l l e e h V N c b l n N n n N C Z Z C Z Z Z K U D b p z c l l l l l l l l l l l l l l l ",
"h h l l l l l h h l l l l l l l h l h l l l < < ;.F.S.d.d.Z.E.R.E.E.E.~.~.Y.P.g.%.l K g.7.v y j l l l l l l l l l h l l l l l w ",
"7 0 h h l l l l l h l l l h l l l h h h c l < - 1._._.I.J._.|.&X&X$X@X&X*X:X:X*X3.; J /.Z.S 2 j l c l l l l l l l l l h l l l c ",
"a a a h l l l l l l l l l l l h l l l l l c < $ -.n.n.t.w.m.I._.U.U.U.U.Q.XX;X:X9.: K .XP.S 4 l c l l l l l l l l l l l h l l h ",
"h a a h h l h l l l l l l h l h h l l h l h e $ I t.e.5.6.e.M.H.A.C.C.I.Q.].&X;Xy.4 L .XI.v 4 h l l h c l l l l l l l l l l h c ",
"a a h h h l l l l l l l l h h h h l h h h h < + &.t.t.8.8.i.C.H.A.C.C.U.`.}.&X;X9.> L .XS.S > h l c l c l l l l l l c h l l c h ",
"h h h h l h h l l l l l l h a h h l h h l h < + =.t.t.8.8.i.C.H.C.C.C.I.U.].&X;X0.> L .XS.S e h c l l h c l l l l h h l h h l h ",
"h h h l k k k l l l l l k k j k j j l l h h > + =.t.t.8.8.t.C.J.I.I.U._._.XX;X:Xy.> L oXP.g t h l l l l l l l k j h a e e 0 e 0 ",
"l l l h k l l l l l l l k k k l l l l l k l < @ =.t.t.8.6.i.C._.'.|.+X&X;X:X:X:Xg.9 T oXH.g r i j z l l l l l l j j h a 9 4 4 4 ",
"l l l l l l l l l l l l l l l l l l l l l k , @ -.t.t.8.6.e.C.].@X^.T.R.~././.~.<.6 J K.l.A y i d l l l l l l l k k k a 5 4 4 4 ",
"l l k l k l l l l l l l l l l l l l l l l l > @ -.t.t.8.6.e.H.@X=Xa.V h c V Z Z u - p +.O.' A i d l n l l l l l k l l k a 5 5 5 ",
"h l h l k l l l n l l l l l l l j l b l l l 6 + -.t.t.8.6.q.H.-X*XR X   . X X X X % & q Q ' { d d l l l l l l l l c l l h s e h ",
"l l l l l l l l k l l l l l l n l l l l l j < + =.t.t.8.6.e.H.-X:X .O   . X X X o % % & w z C b b l l c n l l c l l l l k k l k ",
"l l h l l l l l l l l l l l l l l l n l l c > + *.e.t.8.6.q.A.+X*Xs.L J Z 7 + O O % n Y F t y b l l l l l l l l l l l l l l l l ",
"l h l l l l l l l l l l l l l l l l l n V z 6 - =.b.b.e.q.i.J.[.#XoXoX*XY.Z O     O R /.a.s : l V l n l l n l l l l l l l l l l ",
"l h l l h l l l l l n l l n n l n l l N V V 7 ; -.D.D.v.v.B.W.[. X$X;X:X/.J X     O <.OXh.p * l N l c l c l l c l l l l l l l l ",
"l l l l l l l l l l l l l l l l b l l n N V u 6 I q.e.6.6.t.M.A.C.F.'.%XE.G X     * 2..Xs.h : l N n l l l l l l l l l l l l l l ",
"l l l l l l l l l l l l l l l l l l l l N N l p m m m b j v m D F F &.,.>.a .   - U y.3.K h u n l n l n l n l l l l l l l l l l ",
"l h h l l l l l l l l n l n c l l V n n N N N s 8 > - % % % : 9 f u 3 7 p b 5 6 D r.1.N 0 l l l N l l N l l l l l l l l l l l l ",
"l h 0 a l l l l l l l l n l l n N l N l n N h a D H D F P R 2.u.p.| W E ] 4.V.f.3.T m 0 u j N n l n l l c l l c l l l l l l l l ",
"a 0 e a h l l l l l l l l l l l l N l N c N 0 8 ;.t.t.q.N.`.OX=X).:.( ^ ..z.*X*XP.b - 0 n N N l V l l n l l l l l l l l l l l l ",
"7 e a h l l l l l l l l l l l N l N N l l V 7 6 >.N.n.i.G. X:X(.$.[ ` _ [ @.c.:X!.s + h N V l N l V c l l l l l l l l l h l l l ",
"7 e a l l l l l l l k k k l l l l z l l V m 7 : -.n.D.C.U. X&Xc.X.( ) ) ) [ k.l.y.M 6 h n l N l n l N l c l l l l l l l l l l l ",
"a e e h l l l l l l l h l l l l l V l l V l 6 - I F.|.-X-X$X[.].c.#.) / o.k.l.T 0 8 l l l c c l l c l l l l l l l l l l l l l l ",
"h e 7 e h l l l l l h h h l k c l c l n V l 7 - y 7.XX:X:XT.5.L.;Xx.` ~ @.OX!.f X > n V l l l c n l V l l l c k l l l l k l l l ",
"e 0 e h h l l l l l l l l l l l l l l l l h 0 ; @ C Y.:XOX3.s >.%Xc.[ ^ @.{.!.M o 6 l l l l l l l n l l k l l l l k k k l l l l ",
"9 0 h l l l h l l l l l l l l l l l l h h h 0 6 $ 1 R h.s.K y ,.'.j.! E } l.V.B % 1 h h l k l l l l l l l l l l l k k l l h l l ",
"5 e l l l l l l l l l l l l n l k l h h h e a 0 6 6 7 7 6 m ,.N.m.Y , # j 7.e.m - 6 h h a h l l l l h s h k l l h l h l l l l l ",
"5 0 l l l l l h l l l l l l l l k k h a e s w a 0 7 : X X D H.F.&.s = o s w.i.C - < 0 0 0 e a h l l j h h k h k l l l l l h h l ",
"5 0 h l l l l l l l l l l l l l k k h e e 0 e e 0 0 9 - $ P M.1.y > 4 : f 0.i.b ; > 0 7 e e a h l l k j k h k k l l h l l h l l ",
"9 e h l l l l l l l l l l l l l k k h s w a a w 0 p 0 4 - l P C 6 7 7 > 8 G H p 1 6 0 0 e w a a l l l l k k l k l h l l l l l l ",
"a h h l l l l l k l k l l l l l h l h h h a h u a a w 8 ; - ; 6 0 h 0 4 - - > 7 w e e 0 0 a a h h l l l l h h l h l h l l h l l ",
"l h l l l l h l k l l l l l l l l l l h h h h u a a s 0 6 1 1 7 h k p 7 4 > 6 7 a a e 0 w a a a l l l l l l l h l l l l l l l l ",
"l l l l l l h l l l k l l l l l l l l l h h h h h h h h h h k l h l h l h h h h a a a p e h h h l l l l l l h l h h l h l l l h ",
"l l h l l h l l k l l k l l l l l l l l l l l l k h l k l l l l k k l l l l l k l h l h l k k k l h l l h l l l l l l l l l l l ",
"l l l l l l h l l l l l l l l l l l l l h h k k h h h h k k k k l N l l l l l l l l l h h l l l l l l l l l l h l l l l l l l l ",
"h l l h l l l l l l l l l l l l l k l l h h h h h h h j k k k k l l l N l l l l l l l l l l l l l l l l l l l l l l l l l l l p ",
"l l l l l h l l l l l l l l l l k k h a a h a s a h h h h j k l l l l l l l N l l l l l l l l l l l l l l l l l l l l l l l h e ",
"l h l l l l l l l l l l l l l l k k e 0 e h a a a h h h h k k k l l l l c l z l c l l c l l l l l l l l l l l l l l l l l h e 7 "
};
