/* XPM */
static char *enemy_11678372745[] = {
/* columns rows colors chars-per-pixel */
"64 64 187 2 ",
"   c #040404",
".  c #0D0D0E",
"X  c #07181C",
"o  c #131212",
"O  c #131C1C",
"+  c #1A1A1A",
"@  c #1F1F22",
"#  c #1F2126",
"$  c #172D32",
"%  c #252525",
"&  c #292927",
"*  c #262628",
"=  c #27282C",
"-  c #2B2B2C",
";  c #3C292C",
":  c #242831",
">  c #2D2E31",
",  c #2C3535",
"<  c #2F3838",
"1  c #333334",
"2  c #393937",
"3  c #34363A",
"4  c #333A3A",
"5  c #3A3D3D",
"6  c #461D26",
"7  c #4E2F37",
"8  c #4B313A",
"9  c #413C3A",
"0  c #3B403F",
"q  c #40403F",
"w  c #363843",
"e  c #3E3F41",
"r  c #3A3E4A",
"t  c #3E4141",
"y  c #3D404B",
"u  c #3F585C",
"i  c #444546",
"p  c #464648",
"a  c #474848",
"s  c #494949",
"d  c #454855",
"f  c #4E4E51",
"g  c #4D4F59",
"h  c #49515A",
"j  c #535353",
"k  c #50525A",
"l  c #595A5C",
"z  c #535561",
"x  c #585B67",
"c  c #615360",
"v  c #596669",
"b  c #5C616C",
"n  c #5E6478",
"m  c #5D6A7B",
"M  c #696969",
"N  c #71706F",
"B  c #616677",
"V  c #696C74",
"C  c #61677A",
"Z  c #646A7D",
"A  c #6B7275",
"S  c #747679",
"D  c #A80F1B",
"F  c #AE1724",
"G  c #B82D39",
"H  c #A4323D",
"J  c #B9343F",
"K  c #FF0C19",
"L  c #ED1521",
"P  c #FA1521",
"I  c #FD2D38",
"U  c #EA303A",
"Y  c #FC333F",
"T  c #BD3E49",
"R  c #9E404A",
"E  c #AF424B",
"W  c #A45F60",
"Q  c #807F7D",
"!  c #B76470",
"~  c #FC444D",
"^  c #FB4953",
"/  c #FF555E",
"(  c #F25D67",
")  c #FB636A",
"_  c #686D81",
"`  c #6D7385",
"'  c #6A7C82",
"]  c #6D748A",
"[  c #7C7E83",
"{  c #71768B",
"}  c #747989",
"|  c #7B7F8D",
" . c #6F7792",
".. c #747B94",
"X. c #7B7F91",
"o. c #7B8987",
"O. c #7B8196",
"+. c #848382",
"@. c #898987",
"#. c #848689",
"$. c #898B8B",
"%. c #85899C",
"&. c #868A9C",
"*. c #899A9E",
"=. c #999896",
"-. c #A99191",
";. c #9FA29E",
":. c #A0A09F",
">. c #858BA4",
",. c #888EA8",
"<. c #8B93A9",
"1. c #969AA7",
"2. c #858FB0",
"3. c #8C95B0",
"4. c #9097B0",
"5. c #979BB1",
"6. c #999EB4",
"7. c #949CBC",
"8. c #9CA3AA",
"9. c #9CA3BD",
"0. c #A5A6A6",
"q. c #A1A5B9",
"w. c #A8ADB8",
"e. c #A9B6B5",
"r. c #B2B3B3",
"t. c #B6B8BC",
"y. c #FD9DA2",
"u. c #C0BFBB",
"i. c #C3C1BC",
"p. c #97A1C5",
"a. c #9BA4C3",
"s. c #A4ABC3",
"d. c #A6AECC",
"f. c #AFB5C5",
"g. c #ACB2CC",
"h. c #B0B6CF",
"j. c #A5AED1",
"k. c #ABB4D3",
"l. c #B4BBD6",
"z. c #B8BED7",
"x. c #B4BCDA",
"c. c #D1B9C4",
"v. c #BEC1C1",
"b. c #BBC2CB",
"n. c #BBC1D6",
"m. c #BDC4DB",
"M. c #BCC8DB",
"N. c #BDC6E2",
"B. c #C4C3C2",
"V. c #C9C9C8",
"C. c #C2C7DD",
"Z. c #C4CBDD",
"A. c #C5D5D6",
"S. c #CED5DD",
"D. c #D7D8D9",
"F. c #FBCACA",
"G. c #FFD2D4",
"H. c #F9D4D8",
"J. c #C5CBE3",
"K. c #C8CFE7",
"L. c #C3CBE9",
"P. c #CDD4E4",
"I. c #CCD3EB",
"U. c #D1D7E3",
"Y. c #D4DBE4",
"T. c #DBDFE5",
"R. c #D5DCEA",
"E. c #D9DFEC",
"W. c #D4DCF1",
"Q. c #D7E2E4",
"!. c #DBE1EC",
"~. c #DDE3F3",
"^. c #DCEAF4",
"/. c #E6E6E5",
"(. c #E4E6E9",
"). c #ECEBEA",
"_. c #E1E5F3",
"`. c #E4EAF4",
"'. c #EDEFF4",
"]. c #EBF3F8",
"[. c #EDF1FA",
"{. c #F7F7F6",
"}. c #FBF3F3",
"|. c #FAFAF7",
" X c #F3F6FC",
".X c #F6F9FD",
"XX c #FBFCFD",
/* pixels */
"a a a s i 0 i i i i a a a a s s s s 9 4 , 4 0 a s s s i i q i i i i i s s s a i 0 0 a i a a q s s q s a a a s s s i 0 , , , < < ",
"a a s s i i i i i i i a a a s s s s q 9 4 5 i a s s s i s q i i i a a s i i i i i 0 i a a a s i s s a a a i q a s i 0 , , , < 0 ",
"s s s i q i i i i i i i s s a s q s s q q i i a s s s i s i i i i s i i i i i i i i q a i i a a s q a a s i 0 q q i 0 , , < 0 0 ",
"i i s i i q i q 0 i i i s s i s s s s s a s a a s i s s s i s i s i i q 0 0 i 0 i i i a a a a s s s a s s a 0 0 a a 0 4 < 0 i a ",
"s s i i q s q s i q i s i s s i s s s s s s s s i s q s s s s s i i a 0 0 0 i t q i i i a s s s s s s s s a q a i s i q 0 i i s ",
"s s s s i s i i s s s s s s s s s s s s s s s s s s s s s s a q i a a i i i i t a q a i q s q s q s s s s s s s s s s s s s a s ",
"s s s s s s i s s s s s s s s s s q s s s q q s i s s s s i q i i a a i a t i i a a a a s s s s s s a q a s s s s s s s s s s s ",
"s i s i s s s i i i s q s s s i s s s s s s s s s s i s s s s i i i a a i i i i q s a s s s q s s s s s q s s s i s i s s s a s ",
"s s s s a a i i q i a a a a a a s s s s s s s s s s s s s s s i a i a i i i i a a a s s s s s s s s s s s q s s s s s s s s s s ",
"s s s q a i i q 0 q q a a a a a s s s q s s s s s i s i s i s s s a a i i i a a a a s a s q s s s s s s s s s s q s q s s s s q ",
"s s s s a s i q q 5 i i i s s s s s s s s s q s q s s s i s i s s i s i i i i a s i i s s s s s s q s q s s s s s s s s s s s s ",
"s q s s s s s q i i i i s s s i q s s s s s s s s s s i s s s s s s s s i i i i s s s s s s s s s s s s s s s q s s s s s s s s ",
"s s s s s s s s q s s i i s s i s q s s s s s s s s s s s s s s s s i i a i i a s i s s s s q s s s s s s s s s s s s s q s s s ",
"s s s s s q s s s s i s i s s s s s s s s q s s s s s q s s s s s s a i i i i a s s s s s s s s s s s q s s s s s s s s s s s s ",
"s s q s s s s s s s i i i s i s s s q s s s s s s s s s s s s s s s q q i i 0 i s s s q s s s s s s s s q s s s s q s q s s s q ",
"s s s s s i s s s s s s i i s s s s s s s s s s s s s s s s s s s s s i i t i a s s s s q s s s s s s s s s s s s s s s s s s s ",
"s s s s s s s q s q s s s s q s s s s q s s s s s s s s s s s s s s a q q s s s s s s s s s s s q s s s s s s s q j s s s s q j ",
"s s s q s s s s s s s s s s s s s s s s s s s s s s s s s s s s s s a i s s s s s s s s s s s s s s s s s q s s s q s q s s s q ",
"s s s s s s s s s s s q q s s s s s s s s s s s s s s s s s s s s s s s s s s s s s s s s s s s s s s q q j s s s s s j j q s s ",
"q s s s q s s s s s s s s s s s s s s s s s s s s s s s s s s f s s s s s s s s s s s s s s s s s s s s f q s s s s s q q s s s ",
"0 q s s s s s s s i s s s a s a s s s s s s s s s s s s s s s s s f s s s s s s s s s s s s s s s s s s s s s s q s s s s s s s ",
"1 q s s s s s s s s s s s s a a s s s s s s s s s s s s s s s s s s s s s s s j s s s s s s s s s s s s s s s s j s s s s s q s ",
"< 0 q s s s s s s i s a s s a s s s s s s s s s s s s s s s s s s s s f s s s s s s f s s s s s s s s s s s s q q s s s s s j q ",
"0 0 s s s s s q s s s s s s s s s s s s s s s s s s s f s f s f f s s f f s j s f f s s s f s s s s s s s s s s s s q s s s s s ",
"q i s a i s s s q s i s a s s s s s s s s s s s s a s s s s s s s s s s s s f s a a s s s s s s s s s s s s s s s s s q s s s s ",
"a a a a s s s s s s i s a s s s s s s s s s s i 1 - - - - - > > - , > - > - & - 3 p s f f s s f s j s s s s s s s s s s s s s s ",
"i i s s s s s s s i s i a a a a s s s s s s i i 1 * % % % % % * - - & & & & % & 1 t s s s s f s s s s s s s j q q s s s s s q j ",
"0 q q s s s i s s s s s a a a a q s q s s s 2 2 k A S S A A S Q @.@.+.+.+.+.$.+.c 5 5 p s s s s s s s s s s s s j q s s s s s q ",
"0 0 i i a a a s s i s s s s a a s s a s s i - - X.C.R.T.U.P.U.T.(.).).)./.).)./.8.5 & 9 s j s s s s s s s s s s s s s q s s q j ",
"i 0 0 i a a a a s s s s s s a a s s a a i 0 & % ..J.~._.~.E.R.E._.[.XXXX.X].[. Xw.5 % 5 s s s s s j s s s s j q s s s j s s j q ",
"i 0 i i i i a a s s s s q s i i i a s i a 0 & @ Z s.N.m.m.z.l.z.Z.R.`.`.!.P.I.W.1.1 - q s s s s s s s s j q s s s s j q s s q j ",
"i i i i i a a a s s s s s i q i i i i a a 0 % + B 7.k.l.k.g.g.z.Z.U.Q.!.R.I.I.I.&.> - q s f s s s j s s s s s s s s s q s s s q ",
"i i s i a a a s s s s s a a i a p p p a s q % + Z 9.l.l.h.g.g.n.P.R.E.!.R.R.~.I.&.- & i s s s s s s s s s s s a s i t t 0 0 5 4 ",
"s i s s s a s s s s s s a s a s a s s s s q % + Z a.l.z.h.g.g.h.m.S.E.!.Y.Z.K.L.&.- & i f s s s f s s s s s s a i i t t < < < < ",
"s s i s s s s s s s s s s s f s a s s f a i & + Z a.l.l.n.C.K.I.I._. X.X[.~.~.~.5.3 & i f s s s s f s f s s a s a s a t < , , , ",
"s s s s s a s s s s s s s s s s s s s s a 5 % + Z a.l.C.P.R.~.`. X{.|.|.|..XXXXXw.e * i f s f s s s s s s s s s s s s a t < < < ",
"s q s s a s s s s s s s s s s s s s s f s e % + Z 9.l.I.'.D.t.e.B.B.B.B.B.B.V.B.#.4 - a j s s s s f s s f s f s s s f s i t t t ",
"s s s s a s s s s s s s s s s s s s s s s i % + C 7.x.!.|.r.j - 2 i 9 i q i i i 1 % 1 a f f f f s s s s s s s s s s s s s s a s ",
"s q s s s s s s s s s s s s s s s s f f s p % + n 7.x.~.|.=.+                     + 2 f f s s s f s s f f s s s s s s s s s s s ",
"s s s s s s s s s s s s f s s s f s s s f p - @ n 7.l.(.|.:.-     . . . o . . . . + 2 s j f f s s s f s s s f s s s s s s s s s ",
"s s s s s s s s s s s f s s s s s s f f f s 1 % C 7.x.R.[.V.$.S S a o   % l $.$.l - > s f f s s f s s s s j s s s s s s s s s s ",
"s s s s s s s s s s s s s s s s s s s s f a 1 - _ p.x.I._._.(.)./.Q +   2 r.|.).0.r * p f j s f s s j f s s s s s s s s s s s s ",
"s s s s s s s s s s s f f s f s f s f f f f 1 > ] k.L.I.W.~. XXX.X-.+   i D.XXXXf.e % i f s s f f s s s s j s j s s s s s s s s ",
"s s q s s s s s s s s s s s s f s f s f f s 2 3 _ 4.s.w.9.9.s.S.Q.o.O   5 e.!.A.| 3 , p j f j s j s j s s s s s s s s s s s s s ",
"a q 0 q q s s s s s s s s s f s s f s f f s s p p g g d y w r v o.u $ X $ v ' x w 1 i f f f j s f s s j s f s s s s s s s s a a ",
"i 0 5 q s s s s s s s s s s s s f s f f f f s i 5 3 > * * - , ; 6 ; 8 8 8 7 7 5 1 5 a f f f s f s j s s s s s s s s s s s s a a ",
"4 0 q s s s s s s s s s s s s f s f f s f s 5 2 z _ _ m ` *.;.W D D J T G F E -.o.t , a f f f s s j j s s f s s s s s s s a s a ",
"4 0 q s s s s s s s a a a s s s s f s f s i 1 r  .p.j.k.N.].XXF.( Y I I Y ^ y.{.^.V # 1 a f s f f s f s s s f s s s s s s s a s ",
"0 0 0 t s s s s s s i i a a s s f s f f s i d  .2.7.p.j.M.`.XXXXH.) I P ~ y.}.XX.Xf.h > p j f f s j s s s s s s s s s a s s s s ",
"i 5 4 0 i s s s a s s s a a s s s s s s s e } Z.J.q...{ 9.J.]..XXXy.I K / G. XA.b.C.q.V l j s s f s s s f s s s s s s s a s s a ",
"0 5 0 i i s s s s s a a s s f s s f s p e s 1.|.XXt.f w  .d.M.M.v.-.U L ( H.A.v x s.`.c.N s p s j s f s s s s s s s s s s s 9 s ",
"4 0 i a s s s a s s s a s s s s s s p i e a r.|.XXi.9 # ] 9.4.O.M W R H ! c.8.> = <..X/.Q q q s s s s s s s s s s s s s s s s s ",
"< 0 a s a a a s s s s s s s f s s s i q 5 a 0.XXXXu.j r ..7.,.{ x x c c ` 5.X.> : ..!.D.+.i q s s s s i s a a s s s q s s i a s ",
"< 5 s s s a s a s s s s s s s s s s i 9 5 0 V -.:.=.[ } &.,.>...` x h h m 3.>.p * d | $.M f i i s s i 0 i i a a s s s s s s s s ",
"< 5 i s s s a s s s s s s s s s s i i 5 2 1 1 - - x 6.9.{ C ` { b y w w g <.5.d o + & 1 s s e q s s s i a i s a s s s s s s s s ",
"4 0 i a s s s a s s s s s s s s s s i 5 i 2 > + o s &.&.g > r d w # # @ , V } i + + % - q i e q s s s s s a s a s s s s s 5 s s ",
"q q q s s s s s s a s s s s s s s a a s i i 9 2 1 e s i > @ % - = * * * = 1 1 > 2 2 2 2 5 q q i i s s s s s s s q s s s s s s s ",
"s s s s s s s s a a s s s s s s a s a a i i i i q 5 1 1 1 > > e t t 5 4 1 , - 1 q q 9 5 5 5 q i s s s s s s q s s s s s s q s s ",
"j s s s q s q s a a s s s s s s a s a a i i i i i i i q q i s f s f s i i q q i q q q q q q i i s i s s s s s s s s q s s s s s ",
"s s s s s s s s a s s s s s s s s s a s s s s s s i s p s s s s s f s s s s s p s s s s s s s s s s s s s s s s s s s s s q s s ",
"s s s s s s s s s s s s s s s s s s s s i s s s i i p s s s s s s s f s s s s s s s s s q s s s s s s s s s s q s s q s s s s s ",
"q s s s q s s s s q s s s s s s s s s a y t i p i i i p s s s s s s s s s s s s s s s s s s s s s s s s s s s s s s s s s s s s ",
"s s s s s s s s s s s s s s s s s a t t t i t t t i i i i i s s s s f s f s f s s s s j s s s s s s s s s s s s s s s s s s q q ",
"s s q s s s s s s s s s s s s s s a t 0 t i t e t i i i i i s s s s s s s f s s s s s s s s s s s s s s s s s s s s s s s s 0 0 "
};
