/* XPM */
static char *enemy_31678372746[] = {
/* columns rows colors chars-per-pixel */
"64 64 196 2 ",
"   c #030303",
".  c #070708",
"X  c #0B0B0B",
"o  c #050515",
"O  c #141414",
"+  c #1B1B1C",
"@  c #21211F",
"#  c #090E26",
"$  c #0C112B",
"%  c #121629",
"&  c #191B28",
"*  c #121836",
"=  c #211F23",
"-  c #1C2033",
";  c #242424",
":  c #292826",
">  c #24252A",
",  c #282828",
"<  c #2B2B2B",
"1  c #262732",
"2  c #2D2D32",
"3  c #252A3F",
"4  c #2C2C3A",
"5  c #2C3535",
"6  c #2F3838",
"7  c #333334",
"8  c #34363B",
"9  c #333A3A",
"0  c #3B3C3D",
"q  c #5D0326",
"w  c #412322",
"e  c #533533",
"r  c #3B403F",
"t  c #40403F",
"y  c #0B1B42",
"u  c #122951",
"i  c #272A48",
"p  c #3B2C45",
"a  c #2B334A",
"s  c #333644",
"d  c #3E3E41",
"f  c #39384A",
"g  c #2C3354",
"h  c #2F3659",
"j  c #353B56",
"k  c #363D55",
"l  c #47374A",
"z  c #3E4141",
"x  c #3F404B",
"c  c #3D4156",
"v  c #3D425D",
"b  c #2A436B",
"n  c #3E4361",
"m  c #315279",
"M  c #444545",
"N  c #464649",
"B  c #4C424A",
"V  c #474848",
"C  c #494949",
"Z  c #50504F",
"A  c #424253",
"S  c #474951",
"D  c #4E4E51",
"F  c #43465B",
"G  c #4B4B5E",
"H  c #4F5052",
"J  c #4A535F",
"K  c #525354",
"L  c #585755",
"P  c #55565A",
"I  c #57585C",
"U  c #5A5A5A",
"Y  c #444C67",
"T  c #4B5061",
"R  c #575962",
"E  c #5C5E65",
"W  c #4F5777",
"Q  c #535B76",
"!  c #575B78",
"~  c #5E616C",
"^  c #596379",
"/  c #5C617C",
"(  c #636362",
")  c #66676A",
"_  c #62667B",
"`  c #63697C",
"'  c #696F7E",
"]  c #6D737F",
"[  c #75777B",
"{  c #8A1E1B",
"}  c #962A26",
"|  c #9B502F",
" . c #B54F2C",
".. c #DE5E29",
"X. c #E26230",
"o. c #8E5646",
"O. c #BA425E",
"+. c #98635D",
"@. c #DD5443",
"#. c #81807F",
"$. c #596686",
"%. c #5F6C8B",
"&. c #656984",
"*. c #636F8C",
"=. c #6B6F88",
"-. c #6D7284",
";. c #75788B",
":. c #606F92",
">. c #647294",
",. c #677997",
"<. c #767C94",
"1. c #7C808D",
"2. c #73859B",
"3. c #7482A2",
"4. c #878788",
"5. c #908F89",
"6. c #818699",
"7. c #878B9F",
"8. c #888C99",
"9. c #8D9196",
"0. c #939496",
"q. c #A2A19D",
"w. c #898DA0",
"e. c #8A93AA",
"r. c #9397A8",
"t. c #989BAA",
"y. c #8A99B2",
"u. c #949EB6",
"i. c #969EBD",
"p. c #9FA4AB",
"a. c #9BA0B6",
"s. c #AAA9A6",
"d. c #A9AEB9",
"f. c #BABBBB",
"g. c #D89F9D",
"h. c #DDA1A1",
"j. c #90A2C2",
"k. c #9BA3C1",
"l. c #A5ADC1",
"z. c #A6AECB",
"x. c #A8B6CA",
"c. c #ACB2CC",
"v. c #B4B9C7",
"b. c #B1B6CF",
"n. c #AFB6D2",
"m. c #B3BAD4",
"M. c #B1B9D7",
"N. c #B9BFD6",
"B. c #BFC8CD",
"V. c #B7C4D7",
"C. c #B9C0D6",
"Z. c #BCC3DB",
"A. c #BCC8DA",
"S. c #C6C7C7",
"D. c #C5CAD2",
"F. c #CBCDD6",
"G. c #C0C6DD",
"H. c #C4CBDD",
"J. c #CCD1D6",
"K. c #CCD1DC",
"L. c #D9D8D7",
"P. c #D2D1D9",
"I. c #D7D8DB",
"U. c #DADAD9",
"Y. c #F4CAD3",
"T. c #C4CDE1",
"R. c #C4CBE7",
"E. c #C3D2E2",
"W. c #CCD3E2",
"Q. c #CFD9E6",
"!. c #CAD2EC",
"~. c #D1D7E6",
"^. c #D5DBE7",
"/. c #DBDCE2",
"(. c #D0D7EB",
"). c #D4DAEC",
"_. c #D9DFEB",
"`. c #D6DCF3",
"'. c #D6E2EC",
"]. c #DCE2EC",
"[. c #E5E4E5",
"{. c #E2E5EB",
"}. c #E8E7EC",
"|. c #EDEDEE",
" X c #E0E5F2",
".X c #E4EAF5",
"XX c #EBEEF5",
"oX c #E4ECFB",
"OX c #E9EFFB",
"+X c #EFF2F6",
"@X c #EDF2F9",
"#X c #F2F2F4",
"$X c #FAF9F7",
"%X c #F3F5FB",
"&X c #F6F9FC",
"*X c #FCFDFE",
/* pixels */
"V V V C M z M M M M M C C C V C C M r 6 5 6 r C C C C M M M M M M M V V V C V M r M M M V M V C M t V M V C C C C M r 5 5 5 5 6 ",
"V V C C t M M M M M V M C V C C Z t t 0 9 0 M M C C C M M M M M M M V M M M M M M z M M V V V M C C V V M M M M C M r 5 5 5 6 r ",
"C M C M M M M M z M M V C C C M M C C t t M M C C M M C M M M C V V M M M M t V M t t V V V V V C V V V C M r t M M r 5 5 5 r r ",
"C C C M r M t M M z M V M C C C C C C C C C C C C C C C C C M M M V M M r r r M M M V V M V V V C V V V C V r t M M r 9 6 r M C ",
"C M C t C t t M M t C t C C C M C C t Z C C C C C C C C C C M M M M V r r z M z t V V M C V C V C t C V C C t M M C M t z M M C ",
"C B C C C C C M C C C C C C C C Z t C C C C C C M C t C C C C t M V V M M M z M M t M M t C t V V C C C C C C C C C C C C C C C ",
"C M C M C C M C C C C C C C C C C C C C C C C C C C M C C t C M M V V M V r M M t V C V C V C C C C C C C C C C C C C C C C C C ",
"C C C C C C C M M M C M C C M C C C C C C t t C C C C C C C M M M V V V M M M V C C C C V C C C V C C t t C C C C M C C C C M C ",
"C C C V C M M M M M M C C M C C C C t C C C C C C C M C M C C M V M V M M M V V V V V C C C C C C C C t C C C C C C t C C V C C ",
"C C C V C V M t r r M M C C C C C C C C C C C C M C C C C C C C C V V M M M M V V V V V C C C t C C C C t C C C C C C C V C C C ",
"C t V V V C t t r r M M C C C M C C C t C C C C C C C C C C C M V V V C M M M V V V V V C C C C C C C C C C C C M C C C C C C C ",
"C C V M C C C C M t M M M C C C C C C C C t C C C C C M C C C V V V V M M M M M C V V V C t C C C C C C C C C t C C C M C C t C ",
"C C C C t C C V C V M C C C C M C C C C M C C C C C C C V C C C C C V M M M M V V C t C C C C C t C C C C C C C C C C C C C C C ",
"C C t C C C C C C M C M t C C C C C C C C C C M M C M C C C V C C C V M M M M V C C C C C C C C C C C C C C C C t C C C C C C t ",
"C C C C C C V V C M C M M C M C t C M C C C C C C C C C C C C C C C C t M M M V V C C C C C C C C C C C C C C C C C C C C C C C ",
"C C C C C V C V V V V M C M C C C C C C C M C C C C C C C C C C C C C t M t z M C C C C C C t C C C t C t C C C C C C t C C C C ",
"C C Z C C Z C C C C C C C V t C C C C V C V C C C C C C C C C C C V V M M V V C C C C C C C C C C C C t C C C C C C t Z C C C C ",
"C C t C C t Z t C M M C V V C V C C C C C C C C C C C D C C C C C V V V V V C C C C C C C C C C C C C Z t C C C C C C C C t C C ",
"C C C C t C C M C C C C V V C C C C C C C C C C C C C C C C C C C C C V V V C C C C C C C C C C C C C t C C C C t C C C C t C C ",
"t C C C C C C C C M C M V V C V C C C C C C C C C C C C C C C C C C C C C C C C C C C C C C C C C C C C C C C C C C C C C C C C ",
"t t V C Z V V V M C C C C V V V C C C C C C C C V C C C C C C C C C C C C C C C C C C C C C C C C C Z C C t t C C C t C C C C C ",
"6 t t C C V V V C C C C C V V C C C C C C C C C V V C C C C C C D C Z C C C C Z D C C C C C C C C C C C C C C C C C C C C C C C ",
"6 0 t Z C C V C C C C V C C C C C C C C C C C C S D C C H C C C C Z Z C C Z Z C Z C C D C C C C C C C C C C C C C C t Z C C t C ",
"0 t C C C C C t C C C C C C C C C C C C C C Z C z e 0 0 0 0 0 9 0 8 0 0 9 0 0 0 z C D C C Z C C C C C C C C C C C C C C C C C C ",
"M M C C C M C M C C M C V C C C C C C C V V C e 5 ; ; ; > , < < < , < , : ; = = < l V C C Z C C C C C C C C C C C t C C C C C C ",
"M M C C C C C C C M C M V C C C C C C C C C 0 0 x I ~ I P H K P U U P P U ( ) ) K 0 r C C C C C C C C C C C C C C C t C C C t C ",
"M M M C C C C C C M C M V V C V C C V C C M < < ;.b.J.J.D.D.D.P.U.L.L.L.L.U.[.[.0.8 < M Z C C Z Z C C C C C C C C C C C C C C C ",
"r r M C C C M C C C C C V V C V M t M C C M , > 1.!.oXoX.X.X.XXX+X&X*X*X&X%X&X&Xd.8 : M C C C C C C C C C C C C C C C C C C C C ",
"r r M M M C C C C M C C C C V V C C C C C M , ; -.x.R.T.Z.C.C.Z.H.^..XXX{.~.`.`.r.8 , M Z C C Z C C C C C C C C C C C C C C t C ",
"M r r M M C M C C C C C C C V M M C C M M 0 , ; ` j.n.m.n.c.c.m.H.~._.'.^.W.!.!.w.7 < M C C C C C Z C C C C Z C C C C C C C C Z ",
"M r M M M M V C C C C C M M M M M C M M M 0 , + ` k.m.C.b.c.c.C.W.^._._.^.^.`.!.7.2 2 V C C C C C C C C C C C C C C C C C Z C C ",
"M M M M M C C C C C C C C M z M M C C C V M , + ` k.m.m.b.c.c.m.G.~.].].^.K.!.!.8.7 2 V H C C C C C C Z C C C C C C C C t C t C ",
"M M C C C C C C C C C C V M M C V V C C C r ; + &.k.m.N.C.C.A.A.H._.XX%X.X^.`.`.r.7 , C C C C D C C C C C V C V V M r r r r 0 r ",
"C M C C C V V C C C C C C C C C C C C C C r ; + ` k.m.A.W.).oXOX&X*X*X*X*X*X*X&Xd.8 , V C D C C C C D C D C V V V M x 0 6 5 5 5 ",
"C C C C M V C C C C C C C C C C V C C C C M ; + ` a.M.W. X^.B.D.L.U.U.L.U.U.U.U.9.8 < B H C D C C H C C C C C C V V V M 9 5 5 5 ",
"C C C V V V C C C C C C C C C C C V C C V r ; + &.j.M.].%Xf.~ e C P L K K L U I M , 7 D H C C C C C C C C C C C V C C V z 9 5 5 ",
"M C C M V V C C C C C C C C C C V C C D C z ; + ` i.M. X$Xq.@   . X X X X X X X X = 0 D H D C C C D C C C D C C C C C C M z z z ",
"C C C C V C C C C Z C C C C C C C S C C S e ; + _ i.M. X$Xq.;     X . . . X X X X + 0 H D H C D C C C C C C C C C C C C V V C C ",
"M C C M C C C C C C C C C C C C C C H Z Z M , + / i.M.^.#XS.[ E ( M O X : U [ [ D > 7 H H C C C D C D Z C C C C C C C C C Z C C ",
"C C C C C C C C C C C C C C C l M V C C S N , @ _ k.N.(..X.X{.#X[.#.O   7 s.#X*Xp.0 < C H D H C C C C C D C C Z C C C C C C C C ",
"C C C V V C C C C C C C C N f s s f f x c f > , ' z.R.(.`.oX*X*X$X0.+   0 S.*X*Xv.x : V H H C C C C Z C C C C C C C C C C C C C ",
"M C C C C V C C C C C Z V k g Y v k j v n c 1 < _ u.n.N.m.m.H.|.|.5.+   z f.#X].8.8 7 C H H C D H D C C Z C Z C C C C C C C C V ",
"C C C C C C C C C C C C V a ! p.a.>.Q $.:.^ c 3 v $.&.` E R E 1.0.( - # a -.0.] N 8 M K H C C D C C C D C C C C C C C Z C C C C ",
"C V M V C C C C C C C Z V a ` P.@XH.x.x.V.d.*.g g h g 3 & O O = 4 i i f d 4 1 & > 0 V K H D H C C H H C C Z Z C C C C C C C C V ",
"M M t t V C C C C C C C V M F ;.D.%X%X&X&X.Xd.:.$.%.$.v % o o o $ y f o.| w * v A 0 M D D C C D H C K C C Z C C C C C C C C V C ",
"M r 0 t V V C C C C C C V M d f -.F.+X}./.I.H.A.A.E.A.e.Y i i g g u l  ...o.>.j.6.d 7 C H D Z H H C H C C C C C C C C C C V C V ",
"9 r t M C C C C C C V V V V x s l &.6.=._ <.J.&X&X*X&X^.y.:.,.3.,.m i } @.g._.@Xv.V < V H H D C H C C C C Z C C C C C C C C C C ",
"9 r V t C C C C C C V V V V V C x a * % g -.v..XXX}.}.].Q.R.E.`.E.2.i q O.Y.*X*XS.C ; V D C C H C H C H C C C C C C C C C C C C ",
"r r r z C C C C C C C M M V C Z C d & 1 4.K.l._ ! W ! r.}.*X*X*X&Xy.i q O.Y.*X*XS.M ; V D K D D H K C C C Z V C C C C V V V V V ",
"M 0 0 r M C C C C C M M C C C C K C d M 5.f.-.$ % % # f t.K./.[.W.,.p { ..h.W.D.4.d 7 V C C C C C C K C C C C C C C C C V C C C ",
"z r r z M C C C C C C C V C Z C C K M t C H 2 O ; : O = M E _ ! ^ b l  .X.+.Q T d 0 d V C C C C C D C C C D C C V V C V C C C C ",
"9 r M V C C C C C C C M V C C C C C V t 7 ; + ; 7 < = , l Y n i * u l o.| e % & , 0 M V V V V V C C C C C C C V C C V C C C C C ",
"5 z V C C V C C V C C C C C D V C V C M 0 7 5 0 0 : ; C 2.y.<.k > 3 v G B 2 > 2 0 r t M z M V M C C M M N V V V C V V V C C C C ",
"6 0 V C C V C C C C C C C C C C M C M t M M z z 0 @ < ] c.z.<.D 5 4 T $.^ s : 0 l r 0 0 0 z M M C C M M N N M V V V V V M C C M ",
"6 r M V C C V C C V Z V C C C C C C M r 0 0 d z 7 = 0 w.N.6.N 8 2 > T y.u.D @ 7 0 0 0 0 9 z e t C V V V N N V V V C C V M C C C ",
"6 z M V C C C C M C C C C C C C C M M r l 0 e 0 0 < l 1.r.I , 7 7 ; N 7.t.U < 7 0 0 0 0 0 z z t C C V C N V V V V V C C C C C M ",
"t t C C C C C C C C C C C C C C V V C M M M t M t 0 r M C d 7 d t 7 z J H M 0 d 0 0 0 r 0 r t M C V C C C C C M t C t C C C C C ",
"C C C C C C t C C C C C C C C C C C M M M M M M t t r 7 7 0 d d M M e 0 9 0 M 0 z r l r 0 t M t M C M C C C M M C C C V C C C C ",
"C C t C C C C C C C C C C C C C C C C M C M M M M M M l M M V M M C M M M M M M z M z e t t M M V V C C M C M C C V C C C C t C ",
"C C C C C C C C M C C M C C C C C C C C C C C C C M M C C C C C C C C V C V M M V N V C C M C C V V C C C C C C C C C V C C C C ",
"C C C C C C C C C C C C C C C C C C D C V V V V M M M C V V C C V D C Z V C C C C C C C M C C C C C C C C C C C V C V V C C C C ",
"C C C C C C t C C C C C C C C C C C V M M z N V M M M M V V C C C C C C C C C C C C C C C C C C C C C C C C C C C C V M C C C C ",
"C C C t C C C C C C C C C C C C C V z z z z z z z M M M M V V V C C Z C C B Z C C C Z C C C Z C C C C C C C C C C C Z V V V t t ",
"C C C C C C C C C C C C C C C C C V z z z M z z z M M M M V V V C C C C C Z C C C C C C C C C C C C C C C C C C C C C V V V e 0 "
};
