/* XPM */
static char *exit_21678372741[] = {
/* columns rows colors chars-per-pixel */
"64 64 212 2 ",
"   c #060506",
".  c #140C0C",
"X  c #151315",
"o  c #1D1414",
"O  c #1D161A",
"+  c #13191B",
"@  c #1B1B1B",
"#  c #280C0A",
"$  c #2E110E",
"%  c #271312",
"&  c #221917",
"*  c #21161B",
"=  c #241C1C",
"-  c #2A1D1C",
";  c #3C1916",
":  c #331E1C",
">  c #3A1E1C",
",  c #192A1F",
"<  c #22211E",
"1  c #2B211F",
"2  c #31201E",
"3  c #191E20",
"4  c #241E21",
"5  c #2A1F22",
"6  c #331F21",
"7  c #1E2221",
"8  c #1D2922",
"9  c #242323",
"0  c #2C2423",
"q  c #2C2A26",
"w  c #2A2729",
"e  c #232D2C",
"r  c #2C2C2C",
"t  c #322524",
"y  c #3B2422",
"u  c #352926",
"i  c #3B2926",
"p  c #342629",
"a  c #342B2B",
"s  c #3B2D2C",
"d  c #27342D",
"f  c #2D322D",
"g  c #33332D",
"h  c #3C312E",
"j  c #272F30",
"k  c #2F2F30",
"l  c #312F30",
"z  c #3B2E30",
"x  c #2F3434",
"c  c #343434",
"v  c #3C3333",
"b  c #373936",
"n  c #393A36",
"m  c #373738",
"M  c #3A3738",
"N  c #353A3A",
"B  c #3C3C3C",
"V  c #461D19",
"C  c #43211E",
"Z  c #54231E",
"A  c #58251F",
"S  c #432523",
"D  c #4B2723",
"F  c #442825",
"G  c #4C2926",
"H  c #422E2B",
"J  c #4C2D29",
"K  c #542622",
"L  c #532A25",
"P  c #5A2B26",
"I  c #532E2A",
"U  c #5C2E29",
"Y  c #42312E",
"T  c #4D322F",
"R  c #55302C",
"E  c #5D322E",
"W  c #433533",
"Q  c #493634",
"!  c #453936",
"~  c #4B3936",
"^  c #443739",
"/  c #443C3B",
"(  c #4C3D3B",
")  c #533531",
"_  c #5E3430",
"`  c #5A3A37",
"'  c #513E3B",
"]  c #6B2E27",
"[  c #632E29",
"{  c #62332E",
"}  c #6A332D",
"|  c #633631",
" . c #6B3631",
".. c #663833",
"X. c #6C3A35",
"o. c #653C38",
"O. c #6E3D38",
"+. c #713630",
"@. c #713C36",
"#. c #723E38",
"$. c #3B403D",
"%. c #43403F",
"&. c #4E413E",
"*. c #53413E",
"=. c #58433E",
"-. c #63413D",
";. c #6E423D",
":. c #76413C",
">. c #3E3F40",
",. c #3E4141",
"<. c #444444",
"1. c #4A4544",
"2. c #4C4847",
"3. c #454849",
"4. c #494949",
"5. c #544442",
"6. c #594642",
"7. c #564846",
"8. c #5C4945",
"9. c #524C4B",
"0. c #5E4C48",
"q. c #5A514F",
"w. c #535353",
"e. c #5B5351",
"r. c #575A5B",
"t. c #624B46",
"y. c #6B4A46",
"u. c #634E49",
"i. c #704642",
"p. c #734A45",
"a. c #744D49",
"s. c #66514C",
"d. c #6B534E",
"f. c #6C584F",
"g. c #75514D",
"h. c #78514D",
"j. c #675550",
"k. c #6D5650",
"l. c #675852",
"z. c #6E5953",
"x. c #635A5A",
"c. c #6C5D5A",
"v. c #715651",
"b. c #795350",
"n. c #745B54",
"m. c #795D56",
"M. c #755F59",
"N. c #7A5F58",
"B. c #6F615A",
"V. c #776157",
"C. c #7B6057",
"Z. c #76615A",
"A. c #7C625A",
"S. c #5E5F60",
"D. c #586163",
"F. c #6A6363",
"G. c #7C6760",
"H. c #796A67",
"J. c #706F70",
"K. c #6D7778",
"L. c #747576",
"P. c #757778",
"I. c #805D5A",
"U. c #81655D",
"Y. c #826A5F",
"T. c #846C63",
"R. c #896E63",
"E. c #876F69",
"W. c #916F6C",
"Q. c #8B7165",
"!. c #8C746C",
"~. c #927467",
"^. c #937769",
"/. c #967A6C",
"(. c #9A7E6F",
"). c #897A79",
"_. c #957972",
"`. c #91827F",
"'. c #A38574",
"]. c #A98B79",
"[. c #B1937F",
"{. c #7E8384",
"}. c #898787",
"|. c #838A8B",
" X c #988987",
".X c #8E9697",
"XX c #939B9C",
"oX c #9B9B9B",
"OX c #A0918F",
"+X c #B49580",
"@X c #B69983",
"#X c #BB9D86",
"$X c #A19492",
"%X c #BFA089",
"&X c #A2A09F",
"*X c #9CA4A6",
"=X c #A1A3A3",
"-X c #A2A8A8",
";X c #ACADAD",
":X c #B3B1B1",
">X c #B2B4B4",
",X c #B7BEBF",
"<X c #C3A38B",
"1X c #C9A98F",
"2X c #BDC1C1",
"3X c #C7C9C9",
"4X c #CED3D3",
"5X c #D6D4D4",
"6X c #DFDFE0",
"7X c gray91",
"8X c #EEF4F4",
"9X c #FDFEFE",
/* pixels */
"4.4.4.3.2.3.2.2.3.2.2.3.2.3.2.3.1.3.4./ B B ^ <.<.2.3.4.2.3.n n M <.1.<.3.4.4.4.2.4.3.4.4.4.4.4.2.2.4.3.2.4.4.4.N N N N ,.w.w.w.",
"4.3.4.4.3.3.<.B B B B %.B / / v a t 0 - 0 t g h W v W g q = 0 0 0 0 1 9 a / B B / %./ M v c v n n %.&.%.<.B ,.,.,.N N N ,.,.w.r.",
"1.3.1.3.4.B / a s W t - = = & 1 t t i W h u p 2 1 t & 1 t v M ^ ! ! v ! u 0 W s 0 - = - 1 0 1 9 - @ 1 0 t 1 - c 4.>.N x x N 3.w.",
"4.4.4.<.4.a h s.d.n.~ &.*.=.8.6.t.u.d.k.d.u.u.d.f.=.~ s.l.l.Z.Z.Z.n.Z.d.0.h u h 6.z.Z.A.A.A.A.G.Z.Z.d.0.*.z.6.a w g ,.N ,.,.3.w.",
"4.4.2.3.2.h s t.n.n.0.5.8.u.8.*.5.d.n.u.5.*.*.7.k.8.=.f.f.V.A.m.l.z.V.d.8.Q u ~ s.f.n.n.m.m.N.Z.A.A.Z.m.A.M.s.6.s v 4.<.,.3.4.r.",
"3.1.2.M &.0.=.t.u.0.&.6.d.f.d.0.0.u.t.( ^ &.8.6.6.' *.Y.Q.V.n.f.u.0.=.6.f.t.&.Q 0 W 0.d.z.d.f.m.C.d.t.u.j.j.k.j.d.7.9 c 3.3.4.w.",
"4.3.4.M <.u.t.u.6.( ' u.n.n.n.n.k.u.6.*.6.u.g.d.8.W Y V.Y.m.n.d.d.t.&.&.f.-.*.~ t s 5.s.k.u.f.m.d.=.6.u.t.6.5.0.d.8.1 0 2.3.4.w.",
"4.1.4.<.e.~ H d.u.6.0.d.k.g.f.d.f.d.d.u.s.s.g.~ t W 0.n.m.N.M.n.v.f.d.d.n.d.d.*.0 ~ d.k.v.d.u.s.7.&.t.k.d.t.6.6.s.l.s.h 9 g 4.r.",
"2.3.2.3.q.W h g.d.6.u.s.0.0.7.0.s.f.d.d.s.d.n.~ p *.d.k.g.d.s.d.v.n.n.n.n.v.g.( 1 *.C.n.n.g.0.&.( 7.g.n.n.n.n.d.6.5.d.j.q r 4.w.",
"3.2.3.3.9.h s t.6.0.u.5.*.u.s.u.f.n.v.k.n.` Q t.f.v.n.u.6.1.5.*.u.n.k.t.u.u.d.=.u ' z.g.f.f.s.8.6.t.f.n.n.m.m.v.8.7.j.z.a c 4.w.",
"2.3.4.4.2.a s =.6.s.0.( 7.k.k.j.f.n.n.z.m.( s s.m.n.d.&.^ / *.5.0.u.5.( *.0.t.&.i =.n.d.d.s.d.0.7.d.v.n.n.m.m.m.d.s.j.l.v l 9.w.",
"2.B B r a ( 8.*.' Q i &.k.N.n.k.s.g.n.d.n.z - t.n.s.5.^ ( 0.f.g.t.5.^ ( t.*.h Q ! 8.C.n.g.n.n.s.6.d.U.I.m.n.m.m.n.d.n.z.a x 4.w.",
"4.B / q w *.t.' ~ s t 6.v.N.N.n.d.m.C.d.j.i & *.t.5.( ( t.k.n.n.k.0.8.u.n.6.i Q ~ 0.C.n.C.C.C.f.s.s.M.n.v.v.v.n.n.M.A.z.a r 4.w.",
"3.q a e.j.z.m.n.n.t.6.Q Q z W W W Q W s a t 0 W ~ ' ( ( ~ Q Y W W W W Y h 0 & s ( 0.B.n.v.d.s.s.6.=.=.6.d.f.u.d.n.n.0.7.a r 9.w.",
"3.w a Z.A.M.f.z.v.s.s.Q i p t p u u t t t 0 - H s W H t 5 - - - - - - - - - % 9 %.8.l.l.s.=.6.s.u.6.( &.s.n.s.f.C.g.6.5.a k w.w.",
"<.q v Z.A.n.6.6.t.d.n.n.g.d.d.d.a.s.s.s.d.t.5.i t F F S F L I I I I I I R E D t u 7.z.7.W h t Q ~ ~ ~ W Y *.d.0.d.0.^ ( = 9 3.4.",
"<.q v Z.U.m.u.0.s.n.n.N.I.U.A.U.N.n.n.m.m.g.0.i J ..| E _ ..@.@.X.X.X._ { ..X.J 1 *.M.5.s t - i Q Q ~ Q i ~ n.t.6.5.W ~ o @ 3.2.",
"<.w g Z.A.A.n.d.d.n.N.n.v.k.v.k.k.N.U.N.m.t.Y H ....| _ ..X.#.#.#.X...{ { ..X.{ y t s s a ~ t.d.n.Y.Y.v.t.6.~ W Q W ' ( 0 9 B <.",
"1.w s A.U.Z.n.u.7.k.n.s.6.5.5.6.u.v.m.n.m.~ y E O.X.| E ..#.i.#.#.O.X.{ | ..O...G - o q v =.m.m.Y.^.Q.v.s.t.i s s ~ *.( 0 9 M B ",
"%.^ *.A.A.N.v.d.0.u.u.&.( ( 5.0.u.0.0.*.=.s D X.@.X...|  .@.#.#.@.X...| { ..X.O...S % i s.v.v.n.U.U.C.f.s.k.s.s.d.v.M.k.s z 4.4.",
"B &.0.A.A.N.m.n.v.t.5.( 5.d.k.d.d.7.&.! Q 2 { +.#.O.....| E P K [ X.@..._ ..X.#. .I % s M.U.Y.U.U.n.m.m.d.t.u.k.m.Z.G.Z.W ! 4.4.",
"N h ! Z.Z.N.n.n.n.k.u.t.f.m.m.n.f.d.s.Y t F } X.#.#.@...G : # $ A +.@...| ..X.X.X.I - t 6.C.R.C.n.g.v.n.f.0.5.6.*.' ' *.s v w.w.",
"N w s V.Z.M.n.d.v.m.m.n.v.v.k.f.g.M.n.Y y R ..X.#.#...L %   X p o.O.{ P { X.X.O.X.E > = W d.z.0.d.n.d.f.n.k.u.0.Y Y u h t h e.w.",
"M n 1.6.t.n.n.g.n.v.k.k.u.0.6.7.f.6.Y G I E X.#.#.#.U $   . ,.). Xg.C V E O.X.X.X.{ G > - ( 0.( t.s.~ 6.U.m.n.n.d.u.6.&.1 a q.w.",
"<.B 2.*.6.N.m.n.u.6.0.u.t.8.7.0.s.h F [ E E ..:.:.@.I .   + {.6X5X).- # K @.@.X.X...E I > Y k.d.n.y.s ' m.n.n.m.m.n.f.6.& 0 e.w.",
"<.B 4.a i u.u.s.' ( 7.t.u.z.n.5.^ h R  .E E ..X.@.@.-.0   3 *X9X8X*Xn $ Z +.@.@.X...{ E E Y ~ ' ( =.t.t.f.n.m.m.n.n.n.s.t s 4.4.",
"B B 2.= & =.( 5.^ &.6.t.g.A.U.&.Q ) | X.E E } X. .:.U.B.e 7 }.7X8X,XJ.Q K ] @.#.X. .{ U i.s.v a t Q s.d.n.n.m.n.m.n.m.d.s v 2.2.",
"N w M 6.( ( ~ s v W s ~ =.*.=.H T ..X...E E ..X.} O.W.}.S.,.L.=X=X*XoX_.p. ...X.X...U U g. X7.s ( *.d.n.m.n.m.m.C.U.U.g.2 a 9.w.",
"x @ w Z.s.n s 0 s i 5 p i p s i I  .@...{ { ..@. .X.U.}.{.}.}.P.r.P.;X:XW.#. . .X...P P b.$Xx.H 0.k.n.m.A.A.I.m.M.M.n.t.= u e.w.",
"j @ r Z.j.( ^ ( *.6.' ( v ~ t.Y C E ....E E ..X.+. .` x.{.>X:XL.M S.-X,X`.i.[  . ...L L h.$Xc.W d.n.n.d.' =.8.=.t.8.8.( u Q 2.1.",
"e 7 v G.n.u.j.k.k.k.k.d.0.u.N.Y 2 { X...E E ..X.#. .S a K.2X3X|.S.P.XX|.x... .X.X...L K a.$XF.~ n.n.n.y.i H s s *.&.6.( s Q ! / ",
"j f ( G.z.s.k.m.n.n.v.n.v.n.Z.~ F [  ..._ E ..:.#. .; o S.;X3X;X&X;X.Xw.t K X.@.X...L D a.OXH.~ t.=.6.t.8.=.' ( 0.j.z.u.( v q g ",
"c / 5.A.c.u.n.n.N.N.N.M.n.n.N.` H G | ..| { ..#.#. .V % 3..X,X3X4X4XoX<.# V @.#.X...P L p.OX!.~ *.' ! *.t.=.5.1.d.A.A.N.t.t 9 w ",
"B ^ 5.A.N.s.k.n.n.N.n.k.j.d.s.6.Q F E .._ { ..@.#.X.P C ( P.-X2X4X3XoX0.V K #.#.X...U L p.$X`.~ H ( ( ! W W ^ 5.z.T.T.Z.m.H 0 a ",
">.M p T.G.u.d.n.s.t.7.s.j.6.6.s.u.G { ..| E ..@.#.@. .U ) x.|.XX.XoX`.g.U [ @.#.#...U P a.$X X-.2 h &.W a a / 6.j.Z.m.n.U.=.0 i ",
"B n * G.M.0.u.s.&.~ ( s.l.5.6.t.t.G ..X.E | ..X.#.X. .{ { y.F.D.3.9.a.i. .} @.#.X...U P y.oXOXi.G i ! ! v g W / 8.j.j.s.g.u.s v ",
"M a 0 d.M.s.8.&.^ &.8.j.l.6.t.t.=.G  ...| _ ..X.X.X...{ { ;.s.B 4 > E  ... .X.O.X...U U y.)._.;.U y v / h h v W &.7.7.5.=.*.h v ",
"M s u ( N.v.u.' &.u.s.u.7.6.d.6.Q 2 E .._ | ..@.#.X...E } X.-.Y > V P } | ..O.@.X...{ U _ b.m.X.{ C s ! / Q ! ~ 5.7.5.&.( ! h n ",
"c g ~ u G.N.v.d.k.v.u.*.*.6.n.` Y 2 E ..| E X.@.X.X...U { X.X...[ [ | _ | ..X.#.X. ._ U | O.X.} ..G t ( s.s.8.t.d.d.s.t.0.6.1 v ",
"B c &.s.d.N.U.N.N.m.d.0.0.t.v.W 2 G | ..E E ..X.#.X...E } X.X.@.@.@. ._ _ ..O.@.X..._ | ....] { X.E 2 Y 8.=.t.=.6.s.C.M.g.*.- n ",
"%.M ~ 1 ~ n.C.V.m.m.M.n.n.g.f.1 C ] X.} E E ..X.#.X...{ | X.@.@.#.#.X.| | ..X.@.X...| | X. .}  ...{ : 1 s W ( Q W =.U.C.v.u h b ",
"1.! t h 0.z.d.s.g.t.t.u.d.t.*.2 Z ] ] { E { ..:.X.X...E | X.X.X.#.@...| | ..X.X.X...E _  . . . .X.E 2 h t.8.=.~ h *.C.z.s.1 n v ",
"1.t 1 0.f.Z.f.t.s.Q Q ~ ~ ~ Q t L } +.| E { ..X.X.X..._ | X.X.X.X.X...| | ..X.@.....E R _ .. .{ { S - ( T.Z.z.*.2 ' g.t.*.t v B ",
"1 u *.Z.Z.Z.C.d.f.0.` ~ ( s t 1 Y ;.b.g.o.{ ..@.X.X...{ | X.X.X.X.X...| ....X...E I D 6 y S S S 6 - 9 1.Z.n.g.0.Y ( 8.=.( h v $.",
"5 G.T.T.Z.n.n.d.k.d.6.W s - = 5 a ^ e.c.-.E | X.X.X.| { ....X.X.@.X...| _ | ..G y H H 6 p ^ u.s.a.=.u Q l.Z.k.u.0.&.( 7.Q 1 n 1.",
"^ G.E.H.f.d.d.Y t t 0 0 s W Q ( ^ W v ! T U { +.X...| E } X.X.X.X.X...| _ _ G 6 6 ^ / ^ &.N.'.+X@X`.8.u 5.z.M.d.u.6.7.0.&.q a M ",
"s G.!.E.n.t.^ W Y W 6.t.m.U.n.n.d.( ^ n s C U ..X.X...E | ..X.X.@.@.....[ U y p ^ &./ &.u.U._.+X<X#X'.8.p ( Z.g.n.n.n.g.=.u 9 c ",
"v M.T.!.G.7.s ~.Z.5.d.n.m.f.6.s.d.0.d.0.W 2 S E ..| E E | ..X...........| G 6 z &./ ' u.m.m.N.W.'.#X%XY.p t s.s.n.n.f.s.v 1 9 c ",
"v t Z.E.U.' d.(.d.6.t.k.n.u.d.v.s.g.A.N.u.W y G I R H H J J T J J J J I L 6 * z ( *.u.m.m.n.n.n.Q.].%XR.p w 5.6.k.u.6.( 9 = = B ",
"*.- 7.n.v.W Q.T.6.8.u.s.n.k.n.n.n.m.m.A.n.s - y i i i i u u t 0 p a i i y : * z 6.d.m.m.m.b.n.n.m.^.].Y.p p t.6.6.&.^ W 9 < f B ",
"s.1 1 =.*.s A.f.d.v.5.8.k.u.u.6.s.n.v.m.j.i 9 t p q 9 w w 9 @ @ 9 w r q w * * l 6.j.m.m.m.m.n.n.a.U.`.Y.t 6 W - 5 5 W ( 0 < b $.",
"7.g 1 W s t Z.M.s.d.u.d.k.n.k.8.s.d.s.f.0.= 5 5 q = X + 9 w r w r k l r k 5 * z ( 6.d.N.m.n.n.n.f.U./.d.5 p w t s W s a q q b <.",
"! q u - = 0 C.A.s.t.k.n.d.d.v.s.f.b.n.6.s = & & - & X @ r c c c l k r m m 5 4 z / ( u.N.U.N.n.n.C./.M.a W 5.5.' &.h 2 g g d b %.",
"g @ 9 a d.s d.M.N.N.N.6.' W Q z Q ' 6.W i u.0.^ 0 - = k r x c 9 @ O @ c m w * p ^ 1.u.n.n.v.n.U.'.R.v h 0.d.n.~./.=.< f q q n <.",
"r X o n.^.z k.d.t.k.5.p 0 5 p ' 8.8.~ ~ 0.v.s.6.&.0 a B c r r 9 @ 9 c B m r @ = a ^ 6.8.5.5.s.^./.&.u 8.n.m.m.(.1Xf.@ < g g $.4.",
"x X o /.t.p 0.A.6.W 6 v ( ( s.~.+X<X_.5.Y ( u.t.1.5 0 r 9 @ w f k c c B c r w 4 5 p z a p w v k.-.g &.s.N.n.v.'.%Xu.@ < f $.%.4.",
"e , < Q.*.*.s Z.N.5 z &.5.k.m.m.R.'.1XQ.i ( N.k.5.p q m 9 X 9 c x c M B B B B M w * * O O * 4 5 5 q ( f.A.g.Z.(.Q.g < f g $.%.&.",
"d , @ s.T.R.' 8.'.i Y ^ u.N.N.b.j.m.].R.W 6.s.0.( a c B B >.B N M M B c c c c c c w 9 4 w w 9 O X O h n.^.~.(.Y.h < d f b b $.%.",
"$.d 8 @ d.Y.*.i A.6 W / 8.m.N.n.v.g.(.T.( ( v z w l c M B m B B B B B c c m m c B B c c m B M r 4 4 9 s.].'.R.*.0 b g f g b n $.",
"1.d e + X X + & 4 4 z / &.8.n.T.U./.[.T.5 O 4 4 l M x r r a c c c c m M B B B B B B ,.B >.>.B r w l 9 h 8.s.( q n n g b b n B 3.",
"3.@ f r 9 8 w w v p 5 z W z 5.T.^.'.A.p 9 r c c m M B >.B >.B >.B >.>./ B B B B B <.B <.%.B c B B B c 4 9 r x b %.c q B B B $.4.",
"1.3.B w 7 9 9 7 w v r 5 4 4 4 p W v 0 r c c B B B B B B B B B B / >.,.B >.>.B B B M B B >.B >.$.>.B N c B B B B B m r M B <.3.w.",
"1.<.B @ 9 9 9 O 4 B / l w w 5 4 4 w c B B >.B >.B B B B B B B <.<.<.<.<.<.<.<.%.<.<.<./ >.B M / B B B %.$.$.B N B B B B <.<.1.4.",
"4.3.<.<.<.<.,.<.,.B %.>.<.,.,.,.<.>.%.>.<.<.<.,.<.<.>.m x N B ,.<.3.1.4.3.3.3.<.3.3.<.3.3.1.3.4.3.3.<.4.4.9.3.1.<.3.<.3.<.<.N N "
};
