/* XPM */
static char *exit_61678372745[] = {
/* columns rows colors chars-per-pixel */
"64 64 175 2 ",
"   c #040404",
".  c #080707",
"X  c #070807",
"o  c #090807",
"O  c #080708",
"+  c #070808",
"@  c #0D0C0B",
"#  c #100F0E",
"$  c #190F0E",
"%  c #13110E",
"&  c #1B100F",
"*  c #170F11",
"=  c #141212",
"-  c #1A1514",
";  c #1C1915",
":  c #1D161A",
">  c #1C1B1A",
",  c #231515",
"<  c #231917",
"1  c #21161B",
"2  c #231C1B",
"3  c #2A1E1D",
"4  c #341D1B",
"5  c #192A1F",
"6  c #24211D",
"7  c #2A211F",
"8  c #3D211E",
"9  c #241E21",
"0  c #2A1F22",
"q  c #1D2220",
"w  c #1D2922",
"e  c #242323",
"r  c #2C2423",
"t  c #2D2A25",
"y  c #2A2729",
"u  c #242E2D",
"i  c #2C2C2C",
"p  c #322524",
"a  c #3D2523",
"s  c #342927",
"d  c #392827",
"f  c #332729",
"g  c #352B2B",
"h  c #3A2D2C",
"j  c #27342D",
"k  c #2D322D",
"l  c #35322C",
"z  c #3C322E",
"x  c #272F30",
"c  c #2F2F30",
"v  c #312F30",
"b  c #3B2E30",
"n  c #2F3434",
"m  c #343434",
"M  c #3C3332",
"N  c #373936",
"B  c #3B3A34",
"V  c #373738",
"C  c #383738",
"Z  c #353A3A",
"A  c #3C3C3C",
"S  c #40221F",
"D  c #412320",
"F  c #402F2C",
"G  c #41322F",
"H  c #433533",
"J  c #493634",
"K  c #453936",
"L  c #4B3A36",
"P  c #443738",
"I  c #433C3B",
"U  c #4C3D3B",
"Y  c #513E3B",
"T  c #36403A",
"R  c #3F403F",
"E  c #454037",
"W  c #45413C",
"Q  c #4E413E",
"!  c #53413E",
"~  c #59443E",
"^  c #3E3F40",
"/  c #3E4040",
"(  c #444444",
")  c #4A4544",
"_  c #4C4847",
"`  c #484748",
"'  c #474848",
"]  c #494949",
"[  c #544441",
"{  c #594642",
"}  c #544A46",
"|  c #5C4945",
" . c #514D4C",
".. c #5E4C48",
"X. c #565147",
"o. c #55514D",
"O. c #5B544D",
"+. c #535353",
"@. c #5A5451",
"#. c #5D5951",
"$. c #614B46",
"%. c #634E49",
"&. c #684F49",
"*. c #65514C",
"=. c #6B534E",
"-. c #6C584F",
";. c #675550",
":. c #6D5650",
">. c #645A53",
",. c #6E5953",
"<. c #6F5F59",
"1. c #705751",
"2. c #745B54",
"3. c #795E56",
"4. c #755F59",
"5. c #7A5F58",
"6. c #656057",
"7. c #696256",
"8. c #66615A",
"9. c #776157",
"0. c #7B6057",
"q. c #76615A",
"w. c #7C625A",
"e. c #716A5E",
"r. c #6F6B64",
"t. c #7C6760",
"y. c #736D62",
"u. c #7E6863",
"i. c #767167",
"p. c #7E786F",
"a. c #81655D",
"s. c #826A5F",
"d. c #846C63",
"f. c #896E63",
"g. c #876F69",
"h. c #8B7165",
"j. c #8C746C",
"k. c #927467",
"l. c #937769",
"z. c #967A6C",
"x. c #9A7E6F",
"c. c #817C72",
"v. c #9C7E70",
"b. c #86827A",
"n. c #A28574",
"m. c #A58876",
"M. c #A78979",
"N. c #AC8E7B",
"B. c #B1937F",
"V. c #8C8880",
"C. c #948F88",
"Z. c #999389",
"A. c #9D988F",
"S. c #A0998D",
"D. c #B49580",
"F. c #B69883",
"G. c #BB9D86",
"H. c #BFA089",
"J. c #A6A095",
"K. c #A9A296",
"L. c #ABA59A",
"P. c #B8B2A7",
"I. c #BDB7AD",
"U. c #BFB9AE",
"Y. c #C3A38B",
"T. c #C9A98F",
"R. c #C1BBB2",
"E. c #CBC5B9",
"W. c #D2CBBE",
"Q. c #D7D0C3",
"!. c #DBD5C8",
"~. c #E2DACD",
"^. c #EEE7DB",
"/. c #F5EFE3",
"(. c #F9F3E7",
/* pixels */
"' ' ' ' ' ' ' ` ' ' ) ' ' ' ' ' ` ) ) I A B A ( ( ) ` ` ` ` A M A ( ( ( ] ' ' ' ' ' ' ' ' ' ' ' ' ' ] ' ' ] +.' Z Z Z T / +.+.+.",
"' ' ' _ ' ` ` A A I A ( I A I M g f r r r g h z J M P l t 2 r r r 7 7 e l I A I ( Q I B M M M M B I Q ( I / A / / Z Z Z / / +.+.",
"' ' ' ' ' A I g h H p 3 2 < < 3 0 p d J h p d r 7 p < 7 p M B I K H H P g r H h r 2 2 7 r r 7 r 7 : 3 p s 2 3 M ] / Z n n / ] +.",
"_ ' ' ) ` g h %.=.2.L Y ! { | | $.%.:.&.=.&.%.*.=.{ L %.;.>.q.q.q.<.4.=...h d z { ;.0.0.w.t.w.e.q.q.=...! ,.{ p r n / Z / / ] +.",
"' ' ` (  .z h %.2.2.%.[ | &.| [ } &.4.%.[ ! ! ~ :.| ~ -.-.9.0.4.;.,.4.=.| L s L *.=.3.4.4.4.q.0.w.w.4.4.w.4.=.| h B ] ( / / +.+.",
"' _ ` A Q | ~ %.&...U { =.=.*.| { %.%.Q U Y | ~ { Y ! s.h.9.3.=.*.| ~ | =.$.! G r G | =.2.=.=.3.9.=.%.%.;.=.;.:.;._ r m / ] +.+.",
"_ ' _ A ( &.{ &.[ U Y %.2.2.2.2.1.&.{ ) [ &.1.&.| G G 9.s.3.4.=.=.$.Q ! =.$.! L p z ! *.=.*.:.3.=.{ [ %.%.[ [ | =.| 2 r ] / / +.",
"' ' ' ` @.L G =.&.{ ..=.1.:.:.:.:.=.&.&.%.&.1.Y p K ..2.3.3.3.2.1.=.=.=.1.=.=.~ p L =.:.1.=.%.&.[ ! %.:.=...{ { &.=.;.M x n +.+.",
"' ' ` ) @.H F =.;.{ &.&.{ | | | =.=.=.=.=.=.2.L p [ =.:.:.=.=.=.1.2.2.2.2.2.=.Y 3 ! 0.3.3.=.%.Q U ~ 1.2.1.2.1.=.} [ ;.;.i v  .+.",
"' ' ' `  .h F $.{ | %.[ Q @.;.%.-.2.2.=.2.Y J $.:.1.2.*.{ ! Q ! &.2.=.%.%.&.=.! p Y 1.1.=.=.*.| [ $.1.2.2.3.a.1.$.} ;.,.g v ] +.",
"' ' ` ` _ h h { { &...U { 1.:.;.=.2.2.1.4.Y h &.3.2.=.U I U ! ~ | %.[ U ! | $.! d ! 2.=.*.=.=.$.{ =.2.2.2.5.5.2.=.%.:.:.b v ] +.",
"' I ^ i g P $.Y Y J g [ ;.5.2.:.*.1.2.=.2.F 1 $.3.&.Y I U | -.-.%.[ P U $.! z G J $.3.2.2.2.2.*.| =.3.a.3.2.3.3.2.=.1.:.v n ] +.",
"] A R i y [ $.Y L h p | 2.5.5.2.=.3.0.=.&.h < Y %.[ U U ..-.2.2.;...| %.2.{ h J L %.0.4.3.5.3.=.%.=.2.3.2.1.1.2.2.2.w.,.g i ] +.",
"` i g *.;.;.3.2.2.$.{ J J b G H J J J g g p r J J U U U J z G G H H M z z 7 2 g U ..7.2.2.=.%.&.{ [ ! { =.:.&.*.4.2...{ g i  .+.",
"` y g 4.w.4.:.:.1.&.&.J F f p f p p p r p r 3 F g h f 2 5 % = = = - = = = # @ r I X.,.=.&.{ { =.&.{ U U =.2.=.=.0.:.{ { g c +.+.",
"( i m q.w.4.{ { &.&.2.1.1.&.:.&.=.=.=.&.=.$.! h ; - = @ @ # # @ @ # # # @ @ @ : g [ ,.} H h s H L L L J G Y *.$.;.| P U 2 e ] ] ",
"R i M q.w.3.%...&.2.3.5.5.a.w.w.5.5.2.3.3.1.{ 3 % @ @ # @ # @ # = @ = @ = = @ - 1 ! 4.[ h p 3 d J J L J d L 2.$.| [ J L ; > ` ] ",
"` r h e.a.w.2.*.;.4.5.2.1.1.1.:.:.2.a.5.3.$.F : @ # @ % @ # @ # @ = @ = # @ = # - r h h h J $.=.2.s.s.1.$.{ J J H P L ! 7 e A ( ",
"` r g w.w.w.2.&.{ ;.2.&.{ [ [ { &.1.3.4.3.L 2 @ @ @ @ # # @ @ # = @ = @ # # # @ o # - r z { 3.5.f.l.f.2.=.| h g h J ! U r e A A ",
"I I ! w.a.4.1.=.| %.%.[ P [ [ | %...{ [ ~ d % o X @ # # # # # # = @ @ = @ @ # @ o o # h &.=.1.2.a.a.0.=.&.:.&.&.=.1.4.=.z g ` ] ",
"A Q | w.w.4.3.2.:.$.[ P [ =.:.=.=.{ Q K H : @ @ @ @ # # # # # # @ # # % # = @ @ @ o o h 4.a.a.a.3.3.3.2.=.%.%.:.3.w.u.0.J B _  .",
"Z M L 4.w.4.3.2.2.:.&.%.=.3.4.2.:.=.*.z 2 % @ @ @ @ @ % # # # # # # % % % # # @ @ @ o r | 9.h.9.2.1.2.2.:.| [ | ! U Y ! h M  .+.",
"Z r h 4.0.3.1.=.1.3.3.2.2.2.,.:.1.3.-.r = # @ @ @ @ # % % % ; ; 5 < ; = = # # @ @ @ @ - H =.,...=.:.=.=.2.:.&.| G G f z f b @.+.",
"A B ) | | 2.2.1.2.1.:.:.&.{ [ { =.{ g - = = # @ # # @ % ; 6 6 l G B s 5 - = # @ @ @ @ @ - U | Q $.&.L | a.4.2.2.=.&.{ ! 2 g @.+.",
"( A _ U ! 3.5.2.&.{ ..%.| | { ..*.z ; = = # # @ # # # = 6 t T X.>.#.W t ; % % @ @ @ # @ @ g =.*.2.$.F Y 3.2.2.3.3.2.=.| ; p O. .",
"( A ` h h &.&.&.U U { %.&.=.2.[ I g = = = # @ @ @ # = = 7 B ~ e.p.i.O.N 6 % % @ @ @ @ @ @ > J Y Y ~ $.$.1.2.3.3.3.2.2.=.p h ] ] ",
"^ A _ 2 1 { Y [ P [ } %.1.a.a.! m e = = # # @ @ @ @ @ - 7 E 7.b.C.V.r.W 6 % % @ @ o @ # @ @ 2 h p J &.=.2.2.3.2.3.3.3.=.h B _ ] ",
"Z i M } L U J h b H g J ! ~ ~ z r > # # = @ @ @ # # # ; l X.c.J.L.K.b.#.7 - % @ + @ @ # @ @ : f P [ &.2.3.2.2.2.3.5.0.1.p g  .+.",
"n > y <.%.P h r h d 0 p h p h p - = = # # @ @ @ @ # % 6 B 7.Z.R.E.U.S.e.B ; % @ @ @ @ @ @ @ = f $.=.2.5.a.a.5.a.4.4.2.&.< f @.@.",
"x > v q.;.U P U [ ~ Y U H J $.h - = = @ @ @ + # % @ % 6 E e.K.W.W.E.K.i.z ; % @ o @ @ @ # # = h :.3.3.&.Y ~ ~ { $.{ | U d H _ ) ",
"u q M t.,.%.&.:.:.=.:.=.| %.4.G - = @ @ + # @ @ @ @ % 6 E i.K.W.~.W.L.y.T ; % % o @ @ # @ = * h 3.3.2.$.d F h z ! Q { I f J U A ",
"x x U t.,.;.,.4.3.1.2.2.2.2.4.L : # @ o @ + + # % % % 6 E i.K.W.~.W.K.e.F < % % @ @ @ @ # # # d $.Y { $.{ ~ Y U | ;.,.=.U H y g ",
"V P [ w.,.*.1.4.5.5.w.5.2.5.4.Y r = @ @ @ @ @ @ % % % 6 E e.J.W.~.W.L.e.l ; $ % . @ @ @ @ * # 2 U Y J [ $.| ! ) =.w.w.5.$.d 2 y ",
"^ I [ w.q.*.1.2.2.2.2.,.:.=.&.{ H ; # @ @ @ @ @ % % % 6 E e.J.Q./.~.P.y.T ; % @ @ @ . @ @ # @ # t L U J H M P [ ,.d.d.0.3.h r g ",
"^ M p a.t.%.=.2.=.$.{ ..;.[ ~ &.| 2 @ @ @ @ @ % % % - 6 E e.K.!.(.^.E.p.l & % % O @ @ @ @ # @ + # h U B g f P [ ;.q.q.2.a.! p h ",
"^ M 9 u.4.....*.[ I Q %.;.[ { $.| ; @ @ @ @ @ % % % % < B 7.A.Q./.^.U.p.E ; % % @ @ O @ @ @ @ + @ r P K M z P P | ;.;.*.2.$.h z ",
"V g 0 =.4.%.| ! P U | :.;.} %.%.! ; % @ @ @ @ @ % % % ; l X.p.K.I.P.Z.6.t ; % @ O O @ O @ @ @ + o ; M I z z M H U } } [ ~ ! z M ",
"V b d U 5.2.%.! Q %.*.| | { &.{ G ; % @ @ @ @ @ # # % ; 7 l W #.8.6.X.B 6 % @ @ O + @ @ @ = @ @ o @ f P K K K U } } [ U U L h B ",
"m l U s a.5.1.*.:.2.%.! Y { 1.! g - = @ % @ @ @ @ @ @ @ # - - < 5 : ; = @ o @ X + O + @ # = @ @ @ + 2 Y =.$.| $.&.:.*.&.| { 0 M ",
"V m Q *.*.3.a.a.5.2.:.| %.$.1.H 2 - = = @ # o @ o o X X                     X o + + + @ @ # = @ o + - h | | $.~ | &.3.2.2.! 3 B ",
"( B L 7 L 2.9.9.2.3.3.2.2.1.=.3 = = = = # # + + . . .       . .                     . . @ = = @ o . # r h H Y J G ~ a.3.2.d h M ",
"( P p h %.,.=.*.1.$.$.&.&.$.! 3 > = = @ # + + + . # $ $ & $ & & $ $ $ $ $ $ o       . . @ * = # o . % h $.{ { P F Y 3.1.$.r M V ",
") p 3 ..,.0.-.$.&.J J L L L J 3 = > - = = @ @ + # , 4 4 4 4 4 4 4 4 4 4 4 4 & .     . . @ = = * o + : U d.4.1.[ p L 1.$.Y t m A ",
"7 d ! q.q.w.3.=.1.$.Y L Y h p 3 : ; > - ; - * = , 4 S D S S D D S S S S S S 4 $ @ * * * - - : * * - 2 [ e.2.1.| J L $.{ U M M W ",
"9 t.d.g.q.2.4.=.=.=.{ H h 3 1 0 3 , 3 3 4 4 3 4 4 S D D D D D D D D D D D D 4 , , 0 f 0 y J $.%.%.[ g M <.<.:.$.| U U { J r B ( ",
"B u.g.u.=.=.=.h p t 0 p h J J L J F 0 3 4 8 S 4 8 8 S D D D D D D S S D D S 3 , p P U P U 4.n.D.F.n.| f [ :.4.=.*.| { ..U p g A ",
"h u.j.g.2.%.P K z J { %.3.a.2.2.&.U P f 0 4 S S S S S S D S D D D D D S S S 3 p J U Q U ;.a.x.D.Y.G.v...f U 4.1.2.2.2.=.~ p r m ",
"M 4.d.j.w.| h h.q.{ =.2.3.=.| ;.&...=.| H 4 4 4 8 a D a D D D a D D D D D 4 3 F U I U %.2.3.5.f.n.G.H.f.f p *.&.2.2.,.&.M 7 e m ",
"H p 4.h.a.Y =.x.;.[ %.:.2.&.;.1.&.;.a.5.%.H p D D D a a a a a a a a D D D 4 9 b U [ $.3.3.2.1.2.h.N.G.f.f 0 { | ;.%.} L 0 2 2 A ",
"Q 2 { 4.1.H h.d.{ | %.&.1.1.2.2.3.5.3.5.:.b 0 4 d d h f d p p p f f h f a , 1 h [ &.3.3.3.3.2.1.4.l.N.s.p f | { { Q P L e 6 m Z ",
"*.7 r ! ! h 0.,.1.1.} { :.&.%.[ *.1.1.3.:.h 0 p f t e r y e > > 9 i y f f 9 1 f { :.3.3.3.3.3.2.=.w.n.s.p f H 3 0 0 P U t e N R ",
"} g 7 J g p w.4.&.&.&.;.:.2.1.| &.=.&.=.| 2 r 3 t q = > e y u i i c v v y 9 9 h U [ &.3.3.3.3.2.1.a.l.*.0 f p p b G h f t y N W ",
"I r g 2 < r 3.a.*.$.:.2.;.&.:.&.:.2.2.{ b < < 1 2 2 - > i m M V v c v V C 0 9 b Q I %.3.a.3.3.1.w.l.2.g P ) Y ! U g d l t t N ( ",
"l 2 r g *.h ;.2.2.a.2.{ Y J H b J Y { J f &...J 0 2 2 c n x k e > : 9 v m y 9 f A Q *.2.4.:.2.a.x.f.P b | =.3.k.z.[ 2 t t j T ( ",
"c = : 2.l.g 1.=.$.1.{ f 0 0 f Q | { J L | 2.&._ [ r i A m i i e > e n A C c : 9 f U { | { [ *.l.x.Q g { 2.a.2.v.T.2.; 6 k N T ] ",
"i = > z.%.g %.w.{ H 0 H U Q &.l.D.Y.x.[ H L &.%.[ 0 0 c e : y k i m Z M v x y 9 0 f b f p y M :.&.f Q *.5.2.1.v.H.%.5 6 k B W _ ",
"j w e d.[ ! b w.a.0 G Q ! :.5.5.f.m.Y.l.f L 4.:.{ f y V e = e m m m V A B A A A y 9 : : 1 : 9 0 0 r U -.a.=.9.x.f.l 6 k l B R ] ",
"j 5 > ;.s.f.Y { v.f b P ..5.5.1.=.3.M.f.J | &.%.I f m A ^ ^ A Z Z V V V m m m m m y 9 9 y i 9 : * : M 2.l.k.x.s.F 5 k k N N B ( ",
"Z j w > =.w.[ f a.f b U $.2.a.2.1.:.v.h.J U M M f v V V C A A A A A A V m C V m A B V V V A C i e 9 r *.m.m.f.! r V l k N m N ( ",
"( j w q = - - : 9 0 b P U $.2.a.a.l.B.s.0 : 9 9 v C m i i i m m V V m M A A A A A A A A ^ ^ A i y m e h | &.U i B A n m N B Z ( ",
"' e i j e w i y b g 0 b P b ! d.l.m.w.f 9 i m m V A A A A A ^ A A ^ ( A A A A A A A / A ^ A B V A A n 9 r i m A A V r Z A A W ] ",
"( ' A e q 9 e q y M i 0 0 9 9 f b H r i m V A A A A A A A A A A R / A A ^ ^ A C A A A ( A ^ A R ^ A Z m Z Z Z A A A i A Z ( ` +.",
"( ( A > y e e : q A I v y y 0 9 e y V A A A A ^ A A A A A / / I ( ( ( ( ( ( ( ( ( ( ( A / A A A A A A A / A Z B Z R A A ( ( ( ] ",
"' ` ( ` ( ( R R R R ( ^ ^ ( ^ ^ A ( / / ( ( ( / ( ( / m n Z A / ( ` ` ` ` ` ` ( ( ` ` ` ` ' ` ` ` ` ` ' ] o.] ( ( ` ( ` ( ( Z Z "
};
