/* XPM */
static char *exit_31678372743[] = {
/* columns rows colors chars-per-pixel */
"64 64 188 2 ",
"   c #151315",
".  c #1D1414",
"X  c #1D161A",
"o  c #1B1B1B",
"O  c #231413",
"+  c #221917",
"@  c #21161B",
"#  c #241C1C",
"$  c #2A1D1C",
"%  c #331E1C",
"&  c #3B1E1D",
"*  c #192A1F",
"=  c #22211E",
"-  c #2B211F",
";  c #241E21",
":  c #2A1F22",
">  c #321E21",
",  c #1D2220",
"<  c #242323",
"1  c #2C2423",
"2  c #2C2A26",
"3  c #2A2729",
"4  c #242E2D",
"5  c #2C2C2C",
"6  c #322524",
"7  c #3C2422",
"8  c #352926",
"9  c #3B2927",
"0  c #342729",
"q  c #3C2728",
"w  c #342B2B",
"e  c #3B2D2C",
"r  c #27342D",
"t  c #2D322D",
"y  c #33332D",
"u  c #3C312E",
"i  c #272F30",
"p  c #2F2F30",
"a  c #312F30",
"s  c #3B2E30",
"d  c #2F3434",
"f  c #343434",
"g  c #3C3332",
"h  c #373936",
"j  c #393A36",
"k  c #373738",
"l  c #383738",
"z  c #353A3A",
"x  c #3C3C3C",
"c  c #53241E",
"v  c #442623",
"b  c #442825",
"n  c #4B2926",
"m  c #432E2B",
"M  c #4C2C29",
"N  c #532722",
"B  c #5A2621",
"V  c #542A25",
"C  c #5A2B26",
"Z  c #532E2A",
"A  c #5C2E29",
"S  c #42312F",
"D  c #4F322E",
"F  c #56302C",
"G  c #5D322D",
"H  c #433533",
"J  c #493634",
"K  c #453936",
"L  c #4B3A36",
"P  c #443739",
"I  c #443C3B",
"U  c #4C3D3B",
"Y  c #553631",
"T  c #5F3430",
"R  c #5E3935",
"E  c #513E3B",
"W  c #672C25",
"Q  c #632F29",
"!  c #63332E",
"~  c #69332D",
"^  c #643631",
"/  c #6B3631",
"(  c #663834",
")  c #6C3A35",
"_  c #633D38",
"`  c #6E3E39",
"'  c #703A35",
"]  c #703D38",
"[  c #36403A",
"{  c #3F403F",
"}  c #43403F",
"|  c #4E413E",
" . c #53413E",
".. c #58433E",
"X. c #6E423E",
"o. c #71423D",
"O. c #3E3F40",
"+. c #3E4040",
"@. c #444444",
"#. c #4A4544",
"$. c #4C4847",
"%. c #484748",
"&. c #474848",
"*. c #494949",
"=. c #544442",
"-. c #5A4642",
";. c #564846",
":. c #5C4945",
">. c #524D4B",
",. c #5E4C48",
"<. c #54504F",
"1. c #5F524E",
"2. c #535353",
"3. c #5A5351",
"4. c #664542",
"5. c #6B4541",
"6. c #624B46",
"7. c #634E49",
"8. c #6C4E4A",
"9. c #734642",
"0. c #754A46",
"q. c #744D4A",
"w. c #794D49",
"e. c #65514C",
"r. c #6B534E",
"t. c #6C584F",
"y. c #72514E",
"u. c #7A504C",
"i. c #675550",
"p. c #6D5650",
"a. c #675852",
"s. c #6E5953",
"d. c #645A59",
"f. c #6D5F5C",
"g. c #715651",
"h. c #7C5551",
"j. c #745B54",
"k. c #795D56",
"l. c #755F59",
"z. c #7B5F58",
"x. c #6F615A",
"c. c #776157",
"v. c #7B6057",
"b. c #76615A",
"n. c #7C625A",
"m. c #7C6661",
"M. c #7E6863",
"N. c #796B69",
"B. c #825F5B",
"V. c #81655D",
"C. c #826A5F",
"Z. c #846562",
"A. c #846C63",
"S. c #896E63",
"D. c #866E6A",
"F. c #8A6D6B",
"G. c #8B7165",
"H. c #87706D",
"J. c #8B716D",
"K. c #927467",
"L. c #937769",
"P. c #967A6C",
"I. c #9A7E6F",
"U. c #877775",
"Y. c #8D7572",
"T. c #8E7C7A",
"R. c #947A74",
"E. c #927E7B",
"W. c #8F807E",
"Q. c #92817F",
"!. c #A38574",
"~. c #A58876",
"^. c #A78979",
"/. c #AC8E7B",
"(. c #B1937F",
"). c #8F8180",
"_. c #948482",
"`. c #968B8A",
"'. c #9B8D8B",
"]. c #9C9291",
"[. c #A0918F",
"{. c #B49580",
"}. c #B69983",
"|. c #A19492",
" X c #A59897",
".X c #BFA089",
"XX c #C3A38B",
"oX c #C9A98F",
/* pixels */
"&.&.&.&.&.&.$.&.&.&.&.&.&.&.&.&.%.&.#.I j j x @.@.#.&.&.&.&.j j x } @.@.&.&.&.&.&.&.&.%.&.&.%.&.&.&.&.&.&.*.2.&.x z z [ +.2.2.2.",
"&.&.&.$.&.&.&.x x I } x I x I g w 8 1 - 6 w e e P g g u 2 # 1 1 1 1 - 1 y I x I | } } j j g f h j | | } x { x +.+.z z z O.+.2.2.",
"&.&.&.&.&.x I w e H 6 $ # + + - 1 6 q H e 8 8 6 - 6 # - 8 u g I J J H I 8 6 H w 1 # # - - 1 1 1 - + - 1 8 $ $ f &.+.z d d +.*.2.",
"$.&.&.#.&.w u 7.r.j.L  . ...:.:.6.7.r.r.e.e.7.r.t...L 7.a.a.x.b.b.f.l.e.,.e 8 u =.t.n.n.n.n.n.n.b.b.r.,. .s.-.8 1 d +.z +.+.*.2.",
"&.&.%.@.>.u e 6.j.j.7.=.:.7.:.=.-.e.j.e.=. . .-.r.6...t.t.c.n.b.a.s.c.r.,.L 6 L e.r.k.j.b.j.j.n.n.b.l.l.n.l.r.-.e g *.@.+.+.2.2.",
"&.$.%.x #.:. .7.7.,.| -.r.g.e.:.:.7.7.U I | :...-.E  .C.G.c.k.p.e.:...-.r.6. .J 1 S :.r.g.r.s.k.c.r.7.7.i.r.r.p.p.$.1 f +.*.2.2.",
"$.&.$.x U 7.-.8.-.U E 7.g.j.j.j.g.e.:. .-.6.y.r.-.u S c.C.k.j.r.r.:.|  .t.6. .J 0 u -.e.r.e.t.v.p.-.=.7.7.=.=.:.r.:.# 1 *.+.+.2.",
"&.&.&.%.3.U S r.7.-.,.r.g.p.p.g.r.r.e.7.e.e.y.E 8 K ,.j.n.k.k.g.g.p.r.r.g.r.r. .- K r.s.g.r.6.e.-.| 7.p.8.7.;.-.e.e.i.g i d 2.2.",
"&.&.&.%.<.J S r.r.-.7.7.:.:.;.,.e.r.r.r.r.r.g.L 6 =.e.p.r.r.r.r.y.j.j.j.k.g.r.E - E v.k.k.g.,. .U -.r.j.j.j.g.r.;.=.e.i.5 5 *.2.",
"&.&.&.&.>.u e :.-.:.7.=.=.7.7.7.t.j.g.g.j. .J 6.r.j.j.7.-. .#.| e.j.r.7.7.e.r. .9 E g.r.r.r.e.-.-.7.r.j.k.k.v.g.,.;.p.s.w d *.2.",
"$.&.&.&.$.w e 4.-.e.,.E -.s.s.i.r.j.j.g.j.E e r.k.k.8.| I U  .-.,.7.=.U  .-.6. .q ..g.t.r.r.r.,.-.e.j.k.k.k.v.k.r.7.p.p.w a <.2.",
"&.I x 5 w U -. .E J q #.i.k.k.p.e.g.j.r.g.S + 7.k.7.=.P U 6.t.y.7.=.P U 6. .u J J 6.c.j.g.j.j.e.:.r.v.B.j.j.k.c.j.p.j.a.w d *.2.",
"&.x } 5 5  .6.E L e 6 :.j.k.k.j.r.v.n.r.i.q + E 7.=.U | 7.r.j.j.i.,.,.e.g.-.9 J L ,.b.j.c.v.k.r.e.r.j.j.g.g.g.g.j.j.n.s.w d *.2.",
"&.5 w e.e.s.k.j.j.6...J H S S H S J H e w 6 - J J U U U L J H S H H S S u 1 + y U ,.c.j.j.r.e.e.-. .-.-.r.g.e.r.k.j.,.-.w 5 *.2.",
"&.3 w x.b.l.s.r.t.r.r.J q 0 0 0 9 8 6 1 6 1 $ u q H e 6 $ $ $ $ $ $ $ $ % $ . 1 } ,.a.a.e.-.-.r.e.-.U | e.g.e.r.n.r. .-.w a 2.2.",
"@.3 g b.n.j.:.-.6.r.j.g.y.r.r.r.r.6.r.r.r.6...e 6 v b v b n Z Z Z Z Z Z F G n % 8 -.a.;.H e 8 S L L K H S  .r.7.r.,.I U $ < &.*.",
"@.5 g b.n.c.e.,.r.j.j.z.z.V.z.V.z.k.k.k.k.g.6.9 M ^ R G ^ ( ` ) ) ) ( ^ ^ / ) M -  .b.-.e 6 $ 9 J J L J q L g.,.,. .J J . o &.*.",
"&.1 u b.n.n.j.e.i.j.k.j.g.p.g.s.p.j.n.z.k.-.S m ( / ^ G ^ ) ` ' ` ) ) T G ^ ) T 7 6 w e w K 6.8.j.C.C.g.6.-.L J H J | | - < x @.",
"&.1 e n.n.n.j.7.-.p.j.e.-.=.=.-.7.g.j.k.k.L 7 ^ ) / Q G ^ ) ` ) ` ) ) T G ~ / / n $ . 1 g -.k.k.C.L.S.g.e.:.q e u J ..| 1 < j x ",
"x K | n.n.k.j.r.:.7.7. .U U =.,.7.7.:.=...e n ) ' / A G ^ ) ` ) ) ` ) G A Q / ) ~ v O e e.y.j.k.V.C.v.t.e.p.r.7.r.r.c.e.e g &.*.",
"x | ,.n.n.l.j.j.r.7.=.U  .r.s.r.r.-.| L S 7 A ) o.w.` A A / ] ) ] ) / A Y 5.0.] ) V O e l.V.V.V.V.h.k.j.r.6.7.g.c.n.Z.b.J K &.<.",
"z u J b.n.n.j.j.j.p.7.7.r.k.k.j.t.r.e.S 6 n Q ) w.F.n.R B ~ ] ` ] ) Q C X.H.A.9.~ Z $ 1 -.n.S.v.j.y.j.j.r.,.=.:. .L |  .w u <.<.",
"z 1 w c.n.k.j.r.g.n.k.j.j.g.s.r.g.k.g.S 7 F ~ ~ h._._.r.! ! ) ) ) ) ! ^ m.`.Y.9.~ C & + H e.s.7.r.t.r.r.k.p.e.:.S S 8 u w u 2.2.",
"x j #.:.:.j.j.y.g.g.p.p.e.:.=.-.r...S M Z G ~ ) w.Y.`.U.q.) / ) / / ` z._.'.Z.X.~ ! M & $ U ,.U 7.7.L :.V.c.j.g.8.e.-.| $ w 2.<.",
"@.@.$.| =.k.c.g.7.:.,.7.7.:.;.,.e.H b G G ! ( / ) u.T.`.D.X.W ~ ~ / w.E.].F.9./ / ^ T C % H p.e.j.6.e E k.j.j.k.v.j.t.:.. 1 3.<.",
"@.z #.w q 8.7.r.E U -.7.e.r.j.=.I u F ~ G G ^ ) ~ ) v.W.J.o.W Q ~ / h.E.T.q.! / / ( G ! Y m U E E ..6.:.r.j.k.k.k.j.j.8.6 u *.*.",
"+.x $.$ +  .E =.I =.;.7.y.V.V.| H F ^ ) G G ^ / ~ ~ X.k.h.` W ~ ~ / 9.k.h./ ~ / ` ( A A 9.a.H 0 6 J r.r.j.k.k.j.k.k.k.r.u g $.*.",
"z 3 k =.U U J e u g q J  .....S D ) ` ^ G G ) X.` / ~ G ! o.u.w.) ~ ^ ^ T / ) ' ` / A C q._.;.e L  .r.g.k.j.k.k.k.c.V.r.- w <.<.",
"d o 3 x.e.P w 1 e 9 1 6 9 6 e 8 M / ) ( ! G / ) ` ) ! c c w.Y.F.w.~ Q C V ^ ] ] ` ^ C C h.|.d.e ,.r.j.k.V.B.v.n.z.j.j.6.+ 8 3.2.",
"4 o 5 b.e.| U U =. . .U H K :.m b ! ) ( T G ^ o.' ` ^ c B w.Q.'.Z.] ! C A ( ] ' ) ^ Z V q.|.x.H p.k.k.r.E ....-.7.:.:.U 9 J =.%.",
"4 , g m.s.e.e.p.g.r.p.r.:.7.n.S 7 Q ) ( G T ( ) ` ) ^ C Q 9.J.'._.B.) A G / ` ) ) ^ Z N q.].x.U k.j.j.6.9 S e S  .| :.I e J I x ",
"i 5 | m.s.e.s.l.j.j.g.j.g.j.z.U 7 A / ( ^ G ( ) ` ) ~ G A / u.Y.'.Y.5.C A ^ ) ) ) ( V N q.|.N.L 6.....6.-. .E I ,.i.r.r.U e 5 y ",
"f j -.m.j.e.g.j.z.z.z.z.j.j.k. .v n ^ ( ^ T / ` ] ) ! C C W ) B.R.F.5.C C Q / / ) ^ C N q.].U.L E E K  .6.-. .#.r.n.V.n.6.6 $ 3 ",
"x I -.n.l.e.p.j.k.j.j.s.r.r.r.-.L b T ( T T / ` ) / ! G ! ~ ~ o.h.w.` A Q ( ) ) ) ^ A V q.|._.E m U U J H g I =.l.Z.V.c.k.u 1 w ",
"O.j 1 m.m.7.r.j.r.-.;.7.e.:.-.8.6.M ^ ( T ^ / ) / ~ ` y.y.` ~ ) ' ) ~ A 5.k.w.) / ^ A C q. X].6.7 u | g w w I =.r.b.b.l.n...1 e ",
"x g $ m.l.,.7.8.=.U | ,.a.=.-.6.6.M ^ / T T ) ) ~ ~ k._.J.9.~ ~ ~ ~ Q ^ j._.F.] W ! C C 8.].|.q.M 9 I K u e P U ;.e.a.e.j.6.e u ",
"j w $ p.l.e.:.#.P U :.a.a.-.,.6. .v ~ ^ G ^ ^ / ) w.Y.].Y.X.! ~ ) / Q G j.`.'.B.] ! C A X.R.Q.5.F 6 g K u u g g #.;.=.-... .u g ",
"l g 8 U n.j.,.E U 7.7.7.:.-.e.-.J v G ( ^ ^ ^ / w.F.`.T.h.) ~ ) ' ' ^ G 5.H.[.Q.k.^ B A Y k.B.` T v e I K K K L =.;.=.| U L u j ",
"h y L 8 m.z.g.r.p.j.7.=. .-.g. .S 7 F ) T T Q / h._.).j.^ ~ ) ` ' ' ( Q G 9.E.[.Z.) B G R X.` ~ / n 0 U r.6.:.6.e.r.r.6.,.-.$ g ",
"z f | e.8.k.V.z.z.j.r.,.,.6.g.J % n ^ ( ^ G ^ ) h.F.M._ B ~ ' ' ` ` ( Q C / B.Y.V.( A G ^ ~ ~ ~ ) F % S :.:.6...:.e.c.j.s. .- g ",
"I I U - L j.c.j.k.k.k.j.k.r.r.- & Q ) ~ G G ^ ' o.w.X.G A ) ` ) ' ` ( T A T 9.w.9.( A T / / ~ ~ ) ! % - e J U J S ..V.c.j.6 u g ",
"#.g 6 e ,.j.r.e.r.6.6.e.r.6. .% c W ~ ~ G G ) o.) ) ! G ! ) ) ` ` ' ( ^ Q / / ' ' ( G ^ ) ' / / ) G % u ,.-.-.L e ..c.y.e.- g j ",
"$.6 - ,.r.n.t.6.r.J J L L L J 6 C ~ ' ^ G ! ^ ' ) ~ ! G ! ) ` ) ` ' ( ^ T ( / / ( ( G A T ^ ^ ^ G v - U Z.b.s. .6 L y.6. .8 f x ",
"1 8  .c.b.n.c.r.r.4.E L E e - > S 5.w.X.T G / ` ` ) ! G ^ ) ) ` ) ' ( ^ T ( ' ( G M v > 7 v b v 7 $ = | b.l.g.6.S L 6.:.K g g } ",
"= M.D.A.b.l.j.r.r.r.-.H e : + $ w U ,.4.G G ^ ) ) ) ! G ^ ^ ) ) ) ) ( T T ^ ^ n > b s 0 0 J 6.8.8...9 H d.l.g.7.:.U U -.J 1 j @.",
"K n.D.m.p.e.r.u 6 1 6 1 e J J U P g f u b A / ) ` ) ^ G ! ! ) ) ' ( ( T Q T n > q P P P U z.~.(.}.Q.-.8 =.a.j.r.e.:.-.:.| 1 w I ",
"u M.J.H.s.,.L J u L :.7.j.V.k.j.e.U K g 9 v G ) ` ) ^ G ^ ^ ) ` ` ( ( ^ G Z > q P | U | 7.V.I.{.XX.X!.:.0 U n.g.g.j.j.s...8 1 y ",
"u b.A.J.m.-.s G.b.=.r.g.k.p.-.r.r.;.r.:.u % b G ( ( ^ F T ^ ) ( ( ( ( ! G n > H U P | 7.l.k.k.F.!.}.XXC.6 0 7.e.j.k.t.e.u < < f ",
"g 6 c.G.Z.U r.I.r.-.,.r.k.e.r.p.7.p.n.k.7.H 9 n Z M M m M M M M M M M Z N > ; s U =.7.k.k.k.g.j.G./..XC.0 0 =.-.p.7.=.U $ # $ z ",
" .= -.l.p.H G.A.-.:.7.e.j.p.j.j.k.z.k.V.s.e $ 7 q 9 9 w 8 8 6 1 0 8 9 q > $ @ s =.e.k.k.k.k.j.g.v.K./.C.0 0 ;.-.-.| I I - * f j ",
"1.- -  . .e n.s.r.g.-.-.r.r.7.-.r.p.g.k.p.w : 6 w 1 < 1 2 < o o < 3 5 3 0 # @ q ;.r.k.k.k.j.j.j.g.n.!.C.6 > H $ : 1 H U 1 < f +.",
"-.u - H e 1 n.j.r.e.7.r.r.j.r.:.7.g.7.r.-.$ 1 : 2 o   o < 3 3 3 5 5 p a a ; @ s U -.r.k.z.k.z.j.r.n.P.e.: 0 3 6 e H q w 2 2 h @.",
"I 1 e # # 1 c.V.8.6.p.j.r.r.p.8.p.k.g.-.e # + + $ o   o 5 f k f f 5 d k k ; ; s I U 7.n.V.z.k.g.n.P.j.w g =.=.E L e 8 y 2 2 [ @.",
"w * - w r.w p.j.l.z.k.-.E J H s J E -.J w 8.,.H 1 $ $ 5 5 d d < o X , w k 1 ; 0 I U 7.j.j.g.g.V.I.S.P e ,.r.j.K.I. .= 2 2 2 [ @.",
"5   . j.P.e p.r.6.p.-.0 1 : 0 E :.-.J L -.j.e.;.U 1 w z f 3 5 < , ; f j z p # ; 0 U ;.-.-.=.7.L.I. .w :.j.z.k.I.oXt.. = y h [ $.",
"t   X P.6.w :.n.-.H 1 g U U e.L.{.XXI.=.S U 7.7.=.: < f 3 o 3 t p f k j a p < ; ; 0 s w 0 3 g p.7.8 | e.z.j.g.!..Xe.* = t j } *.",
"5 * * G.=.E e n.z.: g | =.p.k.k.S.~.XXL.0 U z.p.;.0 3 k <   3 a p f k z z z I z w ; X X @ X ; : : 6 U r.V.r.c.I.C.u = y y j } $.",
"r * o e.Z.S.E -.^.q s P 7.z.z.g.r.z.^.S.J -.7.,.U 0 f O.x O.x x l l g k g k f k f 3 ; ; 3 3 < X   X g l.L.K.I.A.u = r t y [ [ } ",
"[ r , X t.n.=.w z.0 s P :.k.z.k.g.r.I.A.J U H g 0 p k l j j j z z x x k f l k k j z k k l O.l 3 ; ; < e.~.!.A. .2 h y d h f j } ",
"@.5 4 *       # # ; s U | :.k.V.V.P.{.C.: X ; ; a k a 5 5 a f k l l g k x O.x j j x x x O.O.x 5 < f 1 e :.e.U w j j f f h h j &.",
"&.o t r < , 3 3 e w : e H s =.Z.P.!.n.0 < 5 f g k x x O.O.O.O.x x O.I O.x I z x x O.x @.+.x l z O.x f ; < p d j } k 3 g j x @.*.",
"&.&.x 3 ; * < , < g 5 : ; ; : 0 H s 1 5 k l z z j z x l j x x x O.O.O.O.x O.x j x x O.x O.I x O.O.x z f j x z x x z 5 x x @.@.2.",
"@.@.x o 3 < ; o < x x y 3 3 < ; 1 3 f x x x x O.I z x x x x O.O.@.@.@.@.@.@.@.@.@.@.@.x O.x x x x x x x { j j z j x x x O.@.&.*.",
"&.&.@.@.@.+.@.@.x @.@.O.O.@.O.@.O.O.@.O.@.@.@.O.@.@.@.k f z x O.@.&.&.@.&.%.%.&.@.&.&.&.&.#.&.&.#.&.&.&.*.2.&.&.@.&.@.&.&.@.z z "
};
