/* XPM */
static char *exit_11678372742[] = {
/* columns rows colors chars-per-pixel */
"64 64 215 2 ",
"   c #010101",
".  c #0B0607",
"X  c #0D0D0F",
"o  c #120506",
"O  c #150B0B",
"+  c #1A0D0D",
"@  c #120F10",
"#  c #141213",
"$  c #1B1313",
"%  c #1D161A",
"&  c #171B1D",
"*  c #1B1B1B",
"=  c #2A0A07",
"-  c #290A08",
";  c #340E0B",
":  c #37110D",
">  c #261414",
",  c #2C1413",
"<  c #241719",
"1  c #241B1C",
"2  c #2A1E1D",
"3  c #381412",
"4  c #351816",
"5  c #3C1A17",
"6  c #351C1A",
"7  c #3D1D1A",
"8  c #192A1F",
"9  c #22211E",
"0  c #2B211F",
"q  c #37211F",
"w  c #241E21",
"e  c #2A1F22",
"r  c #361F21",
"t  c #1E2324",
"y  c #1E2826",
"u  c #242323",
"i  c #2C2423",
"p  c #2C2A26",
"a  c #282729",
"s  c #242C2C",
"d  c #2C2B2C",
"f  c #322524",
"g  c #3C2422",
"h  c #352927",
"j  c #3B2926",
"k  c #342729",
"l  c #342B2B",
"z  c #3B2D2C",
"x  c #27342D",
"c  c #2D322D",
"v  c #33332D",
"b  c #3C312E",
"n  c #272F30",
"m  c #2D2F30",
"M  c #312F30",
"N  c #3B2E30",
"B  c #2F3435",
"V  c #2F3638",
"C  c #343434",
"Z  c #3C3333",
"A  c #373936",
"S  c #393A36",
"D  c #353738",
"F  c #383738",
"G  c #343A3B",
"H  c #3C3C3C",
"J  c #411B17",
"K  c #42211E",
"L  c #49231F",
"P  c #51251F",
"I  c #442523",
"U  c #4A2622",
"Y  c #442925",
"T  c #4C2926",
"R  c #422D2B",
"E  c #4D2D2A",
"W  c #552722",
"Q  c #542A26",
"!  c #5B2A25",
"~  c #532D29",
"^  c #5B2E2A",
"/  c #42312F",
"(  c #4F322E",
")  c #53312D",
"_  c #5D312D",
"`  c #433533",
"'  c #493633",
"]  c #453936",
"[  c #4B3A36",
"{  c #443739",
"}  c #443C3B",
"|  c #4C3D3B",
" . c #563632",
".. c #513E3B",
"X. c #632D28",
"o. c #62332D",
"O. c #6A342D",
"+. c #643631",
"@. c #6A3631",
"#. c #663833",
"$. c #6A3934",
"%. c #683E3A",
"&. c #713C36",
"*. c #743E39",
"=. c #783F39",
"-. c #3B403D",
";. c #43403F",
":. c #4E413E",
">. c #53413E",
",. c #58433E",
"<. c #63403C",
"1. c #79413B",
"2. c #3C3F41",
"3. c #3D4142",
"4. c #444444",
"5. c #4A4544",
"6. c #474949",
"7. c #494949",
"8. c #544442",
"9. c #594642",
"0. c #554846",
"q. c #5C4945",
"w. c #514D4C",
"e. c #5E4C48",
"r. c #5A514F",
"t. c #535353",
"y. c #5B5452",
"u. c #575859",
"i. c #624B46",
"p. c #6A4A46",
"a. c #634E49",
"s. c #734944",
"d. c #65514C",
"f. c #6B534E",
"g. c #6C584F",
"h. c #77524E",
"j. c #6D5650",
"k. c #6D5953",
"l. c #685955",
"z. c #705751",
"x. c #7C5551",
"c. c #745B54",
"v. c #795D56",
"b. c #755F59",
"n. c #7A5F58",
"m. c #6F615A",
"M. c #776157",
"N. c #7B6057",
"B. c #76615A",
"V. c #7C625A",
"C. c #5E5F60",
"Z. c #5D6264",
"A. c #65696A",
"S. c #6A6A6B",
"D. c #7C6760",
"F. c #7E6863",
"G. c #696F70",
"H. c #6C7273",
"J. c #6F7779",
"K. c #737474",
"L. c #727778",
"P. c #777979",
"I. c #7B7B7C",
"U. c #835A56",
"Y. c #81655D",
"T. c #826A5F",
"R. c #846C63",
"E. c #896E63",
"W. c #856F6A",
"Q. c #8B7165",
"!. c #8C746C",
"~. c #927467",
"^. c #937769",
"/. c #967A6C",
"(. c #9A7E6F",
"). c #8F7D7A",
"_. c #957D76",
"`. c #A38574",
"'. c #A98B79",
"]. c #B1937F",
"[. c #7D8081",
"{. c #868888",
"}. c #998B88",
"|. c #8C8F90",
" X c #8D9293",
".X c #929293",
"XX c #949A9C",
"oX c #9A9A9A",
"OX c #A0918F",
"+X c #B59681",
"@X c #BB9D86",
"#X c #A39593",
"$X c #A89C9A",
"%X c #BFA089",
"&X c #A09FA0",
"*X c #9DA1A2",
"=X c #A4A4A4",
"-X c #A8A8A7",
";X c #A6AAAB",
":X c #AAAAAA",
">X c #AEB1B2",
",X c #AFB6B8",
"<X c #B4B4B4",
"1X c #B7B9B9",
"2X c #BBBBBA",
"3X c #C4A58C",
"4X c #C0BFBF",
"5X c #BEC0C0",
"6X c #C3C3C3",
"7X c #C6C9CA",
"8X c #CCCCCC",
"9X c #D5D8D8",
"0X c #DDE1E1",
"qX c #E6E8E9",
"wX c #F5F6F6",
/* pixels */
"6.7.7.5.6.6.7.6.6.7.6.6.6.6.6.6.6.5.5.} H F H 4.4.5.6.5.6.5.F S H ;.4.4.6.6.6.6.6.w.4.6.6.6.6.6.6.6.6.6.6.7.w.6.G G G G 3.t.t.t.",
"6.7.6.5.6.6.5.H H } ;.H } H } b l k i u i h z b ` ` Z v a 1 0 p i i i 0 l } H } ;.;.} S Z Z A A Z :.:.;.-.H 4.2.3.G G G -.6.t.t.",
"6.5.6.6.7.H } l z ` f 2 1 1 < 0 r f z / b j k f 0 f 1 0 p b S { [ ] ` } z 0 ` z i 2 1 0 i i 0 i 9 1 0 i h 0 2 Z 6.-.G V B G 6.t.",
"6.6.6.5.6.l z a.f.z.[ >.>.9.9.9.i.a.f.f.d.d.i.d.k.,.[ d.g.l.B.B.B.k.B.d.e.b h b 8.l.N.V.V.V.V.V.V.B.d.e.>.k.8.k i C 3.G G -.6.u.",
"6.6.5.5.7.Z z i.c.c.e.8.9.i.9.8.8.d.c.a.8...>.9.g.q.,.g.c.m.N.B.k.z.M.f.q.[ f [ d.g.c.c.c.b.b.n.V.M.b.n.V.b.a.q.z A 6.4.6.6.6.t.",
"7.6.6.H 4.q.,.a.a.a.| 9.g.z.d.i.q.a.a.>.| ..q.,.9...>.T.Q.N.v.z.d.e.8.9.g.q.:.' i ` q.f.z.f.j.n.v.g.a.a.j.j.j.j.f.8.i C 6.6.6.u.",
"7.5.5.G :.a.q.d.9.| >.a.c.c.c.c.z.a.9.8.8.a.g.d.q.Z / M.T.v.c.d.d.i.:.:.g.<.>.[ f z 8.d.z.d.z.n.g.8.8.a.e.8.8.e.f.q.2 a 5.6.7.t.",
"7.7.6.5.y.[ R f.a.9.q.f.z.j.j.z.z.f.d.d.d.a.h...f ' e.z.v.v.v.c.z.g.f.f.c.f.f.>.f ] j.z.z.d.a.d.8...a.z.a.a.9.9.d.d.d.z a v w.t.",
"6.5.7.7.r.` z f.f.9.d.a.e.e.0.q.d.f.h.f.f.f.c.[ k 8.f.j.j.f.f.f.g.v.c.c.v.z.z...2 >.v.v.c.z.q.| | 9.f.c.h.c.z.d.0.8.d.l.a d 7.u.",
"5.5.7.7.w.b R i.9.e.a.8.>.a.d.a.g.c.j.j.c...' i.f.z.c.a.8.8.:.8.a.c.f.a.i.d.g.>.k ..z.f.z.f.f.9.8.i.z.c.v.v.Y.z.q.q.j.l.l v 7.t.",
"6.6.6.6.w.h z i.9.d.e.| 0.z.k.f.g.c.c.z.c...z d.v.c.d...} | >.>.e.a.8.| >.9.i.:.j >.z.z.g.f.f.i.9.f.c.c.v.v.v.v.j.a.j.j.z C 7.u.",
"6.H H d l } 9.>...' z | j.n.c.j.d.z.c.g.z.` < i.c.d.8.{ | e.g.z.a.>.{ | i.>.b ' [ i.M.c.z.z.c.d.q.f.Y.n.c.c.v.v.z.j.b.j.l d 7.t.",
"6.H 4.p k 8.e...[ z f q.z.v.c.c.g.v.N.f.d.z < ..i.8.| 8.i.j.c.z.j.e.q.d.k.9.j ' [ i.M.c.M.N.M.z.a.d.v.v.z.z.z.c.c.c.V.k.l d 7.t.",
"5.d l r.d.k.c.c.h.i.9.' ` ` ` ` / ' / z l f 0 ' ' ..| | ] ] / ' ` ` ` / b i 1 l | e.m.k.c.g.i.d.9.8.>.9.f.z.d.f.v.c.e.0.l d 7.u.",
"5.a l b.B.b.j.j.z.d.f.' R f k k j k f f f i 2 b z ` z f 0 6 6 2 2 2 2 2 q 2 + f ;.e.g.g.a.9.9.d.a.9.| | f.z.d.f.N.g.8.8.l d t.t.",
"4.d Z B.V.c.q.9.a.f.c.z.f.f.f.f.f.d.d.d.f.i.9.z 6 Y Y I Y ~ E T Q ~ Q U Q _ E f z >.l.0.` z h ' [ [ [ ' ` ..d.i.g.q.| | 2 u 6.7.",
"4.d Z B.V.M.a.e.f.z.c.n.n.Y.V.V.n.v.v.v.v.h.q.z T #.#.+.~ K 7 5 5 3 - - J @.=.E 2 >.B.8.z f 2 j [ ' [ ' z [ z.q.e.8.' [ $ * 6.7.",
"5.i b B.V.V.z.f.j.c.n.c.z.z.z.z.z.c.V.n.v.q./ Y #.&.&.o.q + . o o o     , ^ =.+.g f z z l ' i.f.c.T.T.z.i.9.' ' ` ' | >.0 u H 4.",
"4.p l V.V.N.c.d.9.j.c.d.9.8.8.0.a.z.c.v.M.[ j o.&.=.$.U + X t s C G 3.3.z J X.@.Q 2 $ i Z 9.c.v.E.^.Q.z.a.i.z z z ' >.| i i H H ",
"3.{ >.V.V.N.z.f.e.a.a.| | | 8.e.a.a.q.8.,.R ~ $.=.*.^ , # B Z.H.[.XX,X>XK.e 3 X.$.I > z d.z.c.c.Y.Y.N.g.f.j.a.p.f.z.c.l.b l 7.6.",
"H :.q.D.R.n.c.c.j.a.8.| 8.f.k.f.f.q.| ] ' j O.&.&.+.K $ n Z.{. XXX1XqXqX;X3.2 Q $.^ > z n.Y.Y.Y.v.c.n.c.f.a.a.j.N.N.V.M.` { 7.w.",
"G b [ N.N.b.c.c.c.z.a.a.f.v.n.c.j.f.d./ f T $.&.+.L < a Z.{.{.S.S.I.&X5X5X X6.I W Q 2 f 8.n.E.V.c.z.z.c.j.q.8.q.>.| >.>.l b t.t.",
"G a z b.N.v.c.j.z.n.c.c.c.z.z.j.z.v.j.R j _ &.=._ > X 6. XoXu.u * w m A.1X9XP.2 3 Q q 2 ` j.k.e.f.z.f.g.v.j.a.e./ b z b z b y.t.",
"H Z 4.q.q.c.c.f.z.z.z.j.d.q.8.8.j.9.' ~ ~ _ =.1.~ O X t.&XoXH         d >XwX X# - ! _ 7 2 | q.:.i.a.[ i.Y.c.c.c.f.d.,.:.1 l t.w.",
"4.H w.| ,.v.v.c.a.9.e.a.i.q.9.e.d.Z Y o._ +.1.1.Q + X u.&X$XH         d -XwXXXw - ! $.^ 6 ` k.d.c.i.z ..v.c.c.v.v.c.g.9.< p r.w.",
"4.H 7.l z d.i.f...| 9.a.a.f.c.8.{ b ) @.+.+.+._ q < c G.-X=XC.d t u a t.-XqX>Xy.r U X.+. .R [ ....,.i.q.z.z.v.v.v.c.v.i.f z w.7.",
"-.H w.< < >.| 8.| 5.9.e.z.Y.Y.:.'  .+.$.+._ _ I < d u. X<X:X|.I.K.P.I.{.-X8X9X*Xw., J X.s.j.` h f ' f.f.c.v.v.c.v.v.v.z.z Z 6.6.",
"H s Z 8.| | ' N z ` z ' ,.>.,./ ( @.$.$.o.#._ 4 # G I.:X2X<X<X2X4X6X4X<X-X1XwX9XA.+ = ! U.}.8.z | >.f.z.v.c.v.v.v.v.Y.f.q z w.t.",
"B * a B.d.Z z i z j e k j f z k E O.$.$.#.$._ , X G {.<X2X<X2X6X8X9X8X2X-X<XwXqXG.@ - ! U.#Xl.z q.j.z.n.V.Y.n.v.N.c.z.i.< h y.t.",
"n & c B.f.5.| [ 8.8.>.| ` ] i./ I _ @.#.+.#._ 4 X G [.:X2X<X<X<X:X-X:X:X-X2XwX0XG.# - W U.#Xl.` j.v.v.f...,.,.q.a.q.q.:.h ` 8.6.",
"s t Z D.k.a.d.j.z.f.j.f.q.a.N.` q _ @.$.#.#._ 6 X G P.-X2X2X<X.XS.u.S.|.:X6XwX9XA.+ - ! x.OXl.' v.c.c.i.j R z b 5.>.9.| l ' } } ",
"n d | V.k.f.k.c.c.z.z.v.z.c.N.[ I ^ @.$.+.#._ 6 # B P.-X2X2X<XI.C # M K.>X8XqX6XZ.+ - W x.OXb.' i.,.,.i.q.,...{ q.j.k.d.| R d c ",
"C } 9.V.k.d.z.c.n.n.n.n.z.v.v...R T +.$.#.$.+.7 @ C P.-X2X6X<XK.w   * S.<X8X9X1Xt.@ ; W x.OXW.' ....' 8.i.8.8.5.f.V.R.n.i.f 2 a ",
"H } 8.D.b.f.j.c.v.v.c.k.j.f.d.q.[ Y ^ #.#.$.^ 6 @ C P.-X2X6X<XH.*   & S.<X8X8X*X4.O ; W x.#X). .z | | ` ` ` { 8.c.R.V.n.c./ i k ",
"2.{ f D.D.a.j.c.d.q.0.e.a.9.9.d.i.T +.#.#.#.^ 6 @ V P.-X2X6X<XK.*   & S.1X8X4X X2.O ; ! x.$X}.<.g b ..` h l | 8.j.B.B.c.Y.,.i b ",
"H Z 1 D.b.e.a.a.8.{ :.e.k.9.9.p.i.T +.$.#.$.+.6 @ V I.-X2X6X<XG.*   % S.1X8X2X|.2.O : X.x.#XOXp.U j { { Z v ` } 0.d.l.d.c.i.l b ",
"D l i f.b.a.e.:.{ | q.j.l.8.a.i.,.I O.$.#.$._ 6 @ B L.-X1X4X<X).C @ l P.<X6X4X X2.O : X.s.)._.s.^ f Z ] b b Z ` :.0.0.8.,.>.b Z ",
"A l h | n.c.a.:.>.a.d.e.q.8.d.9.' g _ #.#.$._ 6 @ D L.-X1X1X>X.XS.u.S..X<X4X4X.X2.O 3 o.%.v.x.$.o.I z } ] ] ] | 8.0.8.>.| ] b ` ",
"A v | h R.b.z.f.j.c.a.>...9.z.,.b g _ #.#.$.^ 4 X D [.<X6X5X2X<X-X-X:X<X2X6X7XoX2.@ 3 o.#.%.&.+.@.T f | f.i.q.i.f.f.d.i.q.9.0 Z ",
"A Z :.d.d.V.U.n.n.c.j.q.a.i.z./ q T +.#.#.#.^ , X D {.2X8X6X5X6X8X8X8X6X4X6X9X*X2.O 3 +.&.$.X.O.$.^ 6 / q.9.i.,.9.d.M.v.z.>.9 F ",
"3.} [ 0 [ c.M.c.v.v.v.c.v.g.f.i q X.O.O.+.#._ 4 @ D L.;X1X,X:X>X1X1X<X>X>X<X2X X2.+ J +.&.$.O.O.$._ 6 0 z ' | ' / ,.Y.N.z.z b v ",
"4.` h z e.k.f.d.f.i.i.a.d.i...q P O.O.X._ #.+.U < s 6.A.L.H.G.G.H.H.H.H.G.J.J.Z.F r W +.&.&.$.$.$._ q b i.9.8.[ z ,.v.z.d.0 Z A ",
"5.f 0 e.l.N.g.i.d.' ` ' [ [ ' f W O.O.O._ o.$.+.Y 2 & t s u t u t t u t w y y a j ~ ~ ^ +.#.@.+.o.I 1 | R.B.z.8.f ..z.i.>.h Z H ",
"0 j >.B.B.V.v.g.h.i.......z f 2 E p.x.h.%.o.$.=.+.7 $ + + + + $ $ + + + @ O O > I ~ T r r I I T g 2 2 5.B.b.z.i./ [ i.,.| z A -.",
"2 D.R.W.N.c.v.f.g.f.q.` z 2 < i k } y.b.p.o.@.&.$.~ K 7 J 7 7 K J 7 5 4 4 5 5 4 r R j k k [ a.p.a.9.h { k.b.j.a.q.| | 9.' i { 4.",
"{ D.W.F.l.d.f.z f i 2 f z ' ' { { ` F { [ ^ +.$.$._ _ ^ _ ^ o.o.o.^ ~ Q ~ ^ I r k { { { :.n.(.+X+X`.9.k 5.k.c.f.d.q.9.e.| p h H ",
"z F.!.W.k.e.| ' b [ q.a.c.Y.c.c.f.| { C N U X.#.$.#._ +.+.$.$.$.$.$.$.+.+.o.g k { :.| :.a.Y.(.+X%X@X`.9.k | V.z.z.c.c.j.>.p i v ",
"b B.R.!.D.9.z Q.B.8.f.z.v.j.e.a.j.q.j.q.{ 6 I o.#.%._ _ +.$.$.$.$.$.#.+._ E r N | { :.a.c.v.n.W.`.@X%XE.k k a.a.c.v.j.i.` 0 a C ",
"Z h b.R.R...f.(.f.8.a.j.c.d.d.z.a.j.V.v.a.{ g T ~ E E R T E E E E E E ~ T r e N | 8.a.v.n.c.z.v.Q.].@XR.k e 9.0.f.d.8.| w 9 1 H ",
":.0 9.b.z.` E.R.9.q.a.d.c.z.c.c.v.n.v.Y.j.z 2 g z j h j h k f i k k z j r , < N 8.d.v.v.v.v.c.z.M.^.'.T.k k q.9.9...{ | u 9 c H ",
"d.0 0 >.>.z V.k.j.z.9.9.f.d.a.9.f.z.z.v.g.z 2 f k d a u a i * * w d d i k w % k 9.j.v.v.v.c.v.z.z.N.`.T.i k / 1 e e ` | p 9 A -.",
"0.v 0 ' h p V.c.d.d.a.f.z.c.z.9.a.f.d.j.q.1 i w p 1 # % u d a a d m M m M w w N | 9.f.v.v.v.v.z.f.T./.a.e k k k N / z h p p F 4.",
"{ p l 1 1 i M.Y.f.e.j.x.f.f.z.a.g.x.c.8.b < < < 1 1 # * d C A C M l B C F e w N } } a.n.V.n.v.z.N./.b.l { :.>.>.[ z h v h p A ;.",
"v * 0 h d.z j.c.v.n.v.q...` ` / [ ..9.' h d.e.{ i 2 0 d B c v u * % * C F a < k { :.a.v.c.c.c.R.(.E.` N q.j.c.~.`.>.9 p p x -.4.",
"d # $ M.^.z j.f.q.j.9.k e e k ..9.9.' [ 9.c.a.9.| i k H C d d a * w C H F m w w k | 8.q.8.8.a.^.(.| l 9.c.n.v.`.3Xg.* 9 v v -.5.",
"B # % /.a.h a.V.9.` e Z | :.d.~.+X3X(.>.` | a.a.8.w a c u * a d M C A F M d u w w k N l k i Z j.d.h :.f.n.c.z.(.@Xa.* 8 v -.;.7.",
"x 8 9 Q.:.>.N N.Y.e N :.8.j.v.v.E.`.3X~.j { v.z.0.k k C u # u C C C F F H H } H a w < < % % w e e p :.f.Y.g.M.(.Q.b 9 v v A -.5.",
"x 8 * a.R.E...9.(.k Z { a.n.n.z.f.v.'.E.' q.a.a.} k C H } 2.H F F A F F C C C C C a w w a a u % # % z b.^.~.(.T.b * x v v -.-.4.",
"-.x y * f.V.>.z R.r Z { q.c.n.v.z.j.(.R.{ [ { C k M A F G H H H H H H C Z F D C F H A A F 2.F d w w e d.`.`.E.>.p v v B C A S ;.",
";.x s & % # $ * < e N | :.a.v.Y.Y.^.+XR.e % w w C D C d d d C A A A C D F 2.H H H H H 2.2.2.H k a C a z i.a.| d S -.v A A S S 4.",
"6.9 c x u y s p N l e N ` N >.R./.`.V.k w d C C A F H 2.H 2.H H H 3.2.H 2.H H H H 3.H ;.} H H D H H C w a d c A } A a G H H -.7.",
"4.6.H a u * u 9 a Z d e e w e k / ` i d A D H H F H H H H H H H 2.} 3.2.H 2.H F H H 2.H 3.H H 2.H H D A G H H H H F d H H 4.5.t.",
"4.4.H * a u u * 1 H } C k d w w w a C H H H } H H H H H H H H 4.4.4.4.5.4.4.4.4.4.4.3.3.2.H 2.H } H 2.H -.-.G S H H H 2.3.4.4.t.",
"7.5.4.4.4.4.3.4.} 2.2.2.2.3.3.2.4.;.3.2.4.4.4.3.4.4.3.D B G H 3.4.5.6.6.4.5.6.5.6.4.5.5.5.7.4.5.6.4.7.6.w.w.7.6.4.4.5.4.5.4.G B "
};
