/* XPM */
static char *exit_71678372745[] = {
/* columns rows colors chars-per-pixel */
"64 64 170 2 ",
"   c #050505",
".  c #080707",
"X  c #090807",
"o  c #070708",
"O  c #070808",
"+  c #0D0C0C",
"@  c #100F0E",
"#  c #13110E",
"$  c #130F11",
"%  c #141212",
"&  c #1A1614",
"*  c #1D1915",
"=  c #1D161A",
"-  c #1C1B1B",
";  c #231615",
":  c #221917",
">  c #21161B",
",  c #231C1C",
"<  c #291E1D",
"1  c #331C1C",
"2  c #192A1F",
"3  c #24211D",
"4  c #2A211F",
"5  c #3D221F",
"6  c #241E21",
"7  c #291F22",
"8  c #1D2220",
"9  c #1D2922",
"0  c #242323",
"q  c #2C2423",
"w  c #2D2A25",
"e  c #2A2729",
"r  c #242E2D",
"t  c #2C2C2C",
"y  c #322524",
"u  c #3C2523",
"i  c #342927",
"p  c #382826",
"a  c #332729",
"s  c #342B2B",
"d  c #3A2D2C",
"f  c #27342D",
"g  c #2D322D",
"h  c #35322C",
"j  c #3C322E",
"k  c #272F30",
"l  c #2F2F30",
"z  c #312F30",
"x  c #3B2E30",
"c  c #2F3434",
"v  c #343434",
"b  c #3C3332",
"n  c #373936",
"m  c #3B3A34",
"M  c #373738",
"N  c #383738",
"B  c #353A3A",
"V  c #3C3C3C",
"C  c #412522",
"Z  c #402F2C",
"A  c #41322F",
"S  c #433533",
"D  c #493634",
"F  c #453936",
"G  c #4B3A36",
"H  c #443738",
"J  c #433C3B",
"K  c #4C3D3B",
"L  c #513E3B",
"P  c #36403A",
"I  c #3F403F",
"U  c #454037",
"Y  c #45413C",
"T  c #4E413E",
"R  c #53413E",
"E  c #59443E",
"W  c #3E3F40",
"Q  c #3E4040",
"!  c #444444",
"~  c #4A4544",
"^  c #4C4847",
"/  c #484748",
"(  c #474848",
")  c #494949",
"_  c #544441",
"`  c #5A4642",
"'  c #544A46",
"]  c #5C4945",
"[  c #514D4C",
"{  c #5E4C48",
"}  c #575147",
"|  c #54504D",
" . c #5B544D",
".. c #535353",
"X. c #5A5451",
"o. c #5C5951",
"O. c #614B46",
"+. c #634E49",
"@. c #684F4A",
"#. c #65514C",
"$. c #6B534E",
"%. c #6C584F",
"&. c #675550",
"*. c #6D5650",
"=. c #645A53",
"-. c #6E5953",
";. c #6F5F59",
":. c #705751",
">. c #745B54",
",. c #795E56",
"<. c #755F59",
"1. c #7A5F58",
"2. c #696256",
"3. c #66615A",
"4. c #6C655C",
"5. c #776157",
"6. c #7B6057",
"7. c #76615A",
"8. c #7C625A",
"9. c #716A5E",
"0. c #6F6B64",
"q. c #7C6760",
"w. c #736D62",
"e. c #7E6863",
"r. c #767167",
"t. c #7E786F",
"y. c #81655D",
"u. c #826A5F",
"i. c #846C63",
"p. c #896E63",
"a. c #876F69",
"s. c #8B7165",
"d. c #8C746C",
"f. c #927467",
"g. c #937769",
"h. c #967A6C",
"j. c #9A7E6F",
"k. c #9C7E70",
"l. c #86827A",
"z. c #A28574",
"x. c #A58876",
"c. c #A78979",
"v. c #AC8E7B",
"b. c #8C8880",
"n. c #948F88",
"m. c #999389",
"M. c #9D988F",
"N. c #A0998D",
"B. c #B49580",
"V. c #B69883",
"C. c #BB9D86",
"Z. c #BFA089",
"A. c #A6A094",
"S. c #A9A296",
"D. c #ABA59A",
"F. c #B3ADA3",
"G. c #B8B2A7",
"H. c #BDB7AD",
"J. c #BFB9AE",
"K. c #C3A38B",
"L. c #C9A98F",
"P. c #CBC5B9",
"I. c #CFC8BC",
"U. c #D2CBBE",
"Y. c #D7D0C3",
"T. c #DBD5C8",
"R. c #E2DACD",
"E. c #EEE7DB",
"W. c #F5EFE3",
"Q. c #F9F3E7",
/* pixels */
"( ( ( ( ( ( ( ( ( ( ( ( ( ( ( ( ~ / ~ J V V V ! ! ! ~ ~ ( ~ V V m Y ! ~ ( ( ( ( ( ( ( / ( ( ) ) ) ( ( ( ( ( ) ( B V Q P Q ......",
"( ( ( ^ ( / ~ V V J J Y J V J b s i q 4 q i d j F S S v q , q q e q 4 q s I V J Y Y J V b b v n b Y ~ Y ! V ! W Q B c B Q Q ....",
"( ( ( ( ( V J s d b y < , , , < q y a S d i i q q y : 4 w b b H F F H H i q S s q 4 , 4 q q q q < : < y y 4 7 v ( Q B c c Q ) ..",
"^ ( ( ~ / s d +.*.>.G L L ` ] ` ] @.$.*.#.@.@.#.$.E K +.*.=.7.9.<.-.<.#.{ j i A _ &.6.7.8.8.8.8.9.5.$.{ R >._ a 0 v Q B Q Q ) ..",
"( ( / ! [ j d +.>.>.+._ O.@.] _ _ #.>.@._ L R E $.O.E >.%.>.8.<.*.>.,.#.O.G y G #.$.,.,.<.<.5.6.1.6.<.<.8.<.@.` d N ) ( Q ..) ..",
"( ^ / V T ] E +.@.{ K ` $.$.@.] ] +.+.T H R ] E ` K R u.s.5.,.$.+.] _ ] $.O.R D y A ] $.:.$.*.,.1.*.+.+.$.*.*.-.$.T e s Q Q ....",
"^ ( ^ V ! @.` @.` K L +.>.>.>.>.*.@.` _ ] +.:.@.] A A 5.u.,.,.#.$.] L R %.O.R G y d _ #.$.#.*.1.*.` _ +.{ _ _ ] $.] 6 e ) Q Q ..",
"( ( ( / X.G A $.+.` { $.*.*.*.*.*.$.#.+.@.@.:.L y F { >.,.,.,.>.*.*.%.#.:.%.@.R q G $.:.>.#.+.#._ L +.*.@.+.` ` #.#.&.b r c ....",
"( ( / / X.S Z $.$.` @.@.` { ] ] #.$.:.$.$.$.:.G y R #.$.*.$.$.$.:.>.>.>.,.:.$.L 4 L 6.,.>.:.] K K ` @.,.:.>.:.$._ _ *.&.e t ) ..",
"( ( ( ~ [ d Z O.] ` +._ ~ +.#.+.$.>.:.$.>.E D O.$.>.>.@._ R T R @.>.*.+.+.@.$.R p L :.$.:.$.$.] _ O.:.:.,.1.8.:.{ ] &.-.h v ) ..",
"( ( / / ^ d d ` ] @.{ L _ -.-.&.:.>.>.>.>.L d @.,.,.$.T J K R E { +._ K R ] O.K d R >.$.$.#.$.O.` $.:.,.,.,.,.>.*.#.*.*.x z ) ..",
"( J W t s H O.R L S s T $.1.>.*.+.:.>.$.>.d < O.,.#._ H K { %.%.+.T H K O.R j D D O.1.>.:.>.,.#.] $.y.1.,.>.,.,.>.$.-.&.s c [ ..",
") V Y e e _ +.L L p y O.>.,.,.>.$.,.6.#.$.d : L O._ K L O.%.>.>.*.{ ] +.>._ d D D +.6.,.1.1.,.$.+.$.,.,.>.:.:.>.>.,.8.>.s c ) ..",
"/ t s X.&.-.>.:.:.O.` G H A A S D D D s s y 4 D F K K K F j A A S b S d d q : s K { 2.>.>.$.@.#.] R R _ #.*.@.$.>.>.] ' i t ) ..",
"~ e s <.8.<.*.*.:.@.@.D Z a a a p y y y y 4 < j d d y , * & & # % & $ $ % + + q J } &.*.+._ ` $.@.` K K #.>.$.$.6.*._ ` s l [ ..",
"! t b 7.8.:.` ] +.$.:.:.:.@.*.@.$.#.#.@.$.O.E s = % % + + + + + + + @ + + + + * s E -.' H d i A G G G F S L @.] *.{ J K , 0 ( [ ",
"! e b 5.8.,.+.{ @.>.<.1.1.y.1.y.,.,.>.,.,.:.O.< # + + + + + + + + + + $ @ @ + % : R <._ d y < p D D G D p G :.+.] _ D G * - / ) ",
"~ e j 9.8.8.>.$.*.:.>.>.:.:.-.-.:.>.y.1.,.` p & + + + + @ + @ + + + + + @ @ $ + % q d d s G O.@.>.u.u.:.O.] D D S H G T 4 0 V ! ",
"~ e s 8.8.6.>.+.] *.<.@.] _ R ` +.:.>.,.1.G , + X + + + + + + + + + + @ @ @ @ + + @ % y b ` ,.,.u.g.p.:.@.] d d d D R T 7 0 B V ",
"Q H R 8.8.1.:.$.] +.+.K H T ` { +.+.] _ ` y $ + + + + # @ @ @ @ + @ + $ $ @ @ + + . @ d @.$.>.,.y.y.6.:.@.*.@.@.$.:.,.$.d v ~ ) ",
"V T ] 8.i.1.>.>.:.+._ K _ #.:.$.$.] T F A : + + + + # + + # # + @ @ @ @ # # @ + + . . s 5.u.y.y.6.,.1.,.$.O.+.*.6.6.e.6.D F ( [ ",
"B b G <.<.,.>.>.>.*.+.+.$.,.1.>.*.$.#.A , % + + + + + # # + # + @ @ @ % # @ @ + + + + q ` 6.p.6.,.:.>.>.*.] _ ] R L L R d b | ..",
"B e d <.6.,.>.*.:.,.>.>.>.:.*.*.:.,.$.q % % + + + + + + # * * * 3 * * & % @ @ + + + + % b $.*.+.#.:.$.$.>.*.+.] A j s d s d X...",
"V b ~ ] ] >.>.$.>.:.*.*.$.] _ ` $.` s - % % + + # + + # * 2 w h m m i 2 & @ @ + + + + + & K { K +.@.G ` y.,.>.>.$.+.` L < s ....",
"! V ^ T L 1.1.>.+.] ] +.] ] ] { #.b * % % @ + @ @ @ @ % 3 w P E =. .Y w * # @ @ + + + + + s *.#.:.@.d L ,.,.>.,.1.,.$.] ; w  .[ ",
"! V ~ d d @.@.@.T K ] +.@.$.-._ H s & $ % $ + + + + % % 3 m E 4.t.r.o.m 2 # # + + O + + + : G K L E O.O.:.:.,.,.,.:.>.@.y d [ ) ",
"Q V ( < : E K _ K T _ { :.y.y.R b 8 % $ $ + + + + @ + * w U 2.l.n.b.0.Y 4 # @ + + + + + + $ 4 i y D $.@.:.,.,.>.,.,.,.$.d b ( ( ",
"B e N _ K K G d x S s D E R E j q - @ @ $ @ O + + + @ * h } t.N.D.S.l.o.5 # # + + + + + + @ - i D _ @.:.,.,.>.,.1.1.y.$.y s [ ..",
"c - e 7.#.b d q d p 7 y d y d y * $ % + $ + + + @ @ # ; A 2.m.P.P.H.N.9.h * # + + X + + + $ & s { *.:.1.y.y.y.y.,.>.>.+.; i X...",
"k - t 7.&.T H K R ` R K S D ] d % + + + + + + + @ @ # 2 U w.S.U.U.I.S.r.m * # + + + + + + $ % d *.,.,.$.L E L E +.] ] K d S _ ~ ",
"r 8 N q.-.#.#.*.:.$.*.$.] +.1.j % O + @ + + + + @ @ # 3 U r.S.U.R.U.D.r.j * # # + + + + + % % Z ,.:.:.O.p A d S R T ' K s D J J ",
"k t K q.-.#.>.>.>.>.:.>.>.>.1.G * + + + + + + + @ @ # 3 U r.S.U.R.U.S.w.h * # # + + + + + @ @ d O.E E @.` R L H ] &.*.@.K S e z ",
"c H _ q.;.+.:.>.>.y.1.1.>.,.,.L 4 @ + + + + + + # # # 3 U 9.A.U.R.U.D.w.h * # # + X + + + @ + , T T D R O.` R ~ $.8.8.1.+.y 7 e ",
"V K _ 1.<.&.:.>.>.>.<.-.*.$.@.` S & + + + + + @ # # # 3 U 9.A.Y.W.R.F.w.j * # # X + + + + @ @ + q K K D H b J _ >.i.i.6.,.d q i ",
"W b a i.q.+.$.>.@.O.` +.+.] ` @.` - + + + + + @ # # & 3 U 9.A.T.Q.E.P.t.h * # # + X O + + @ $ + @ j T m i s H _ *.5.<.>.y.E q d ",
"W b > q.<.{ +.#._ H K X.&._ ` O.E * + + + + + + # # # 3 j 2.M.Y.W.E.J.t.h * # # + O + + + % @ + + 4 F F b d H K _ =.&.#.:.+.d b ",
"N h 7 *.<.+.] T H K ] *.&.] { +.R & + + + + + + # # # * h } t.S.H.G.m.2.h * # # + + O + + @ $ + + & b F j b b b ~ ' ' R E R j b ",
"M s i K 1.>.+.L T +.#.+.] _ @.` S * + @ @ + + + + # # & 4 h ~ o.3.3.| m 3 # + + O O + + + $ $ $ + @ y K F H G G _ ` _ T G G j H ",
"v v G p i.>.:.$.$.>.+.T R ` :.E d % @ @ @ @ + + # + + + # % & * 2 : * # # X X X O O O + + % $ + + O < K #.O.] O.$.$.#.@.] ` < b ",
"n b T #.$.1.1.y.,.,.*.] ] O.:.A * @ @ @ @ # X X X X X X                       X O O O O + % % @ + + % j ] ] O.E ` @.,.,.%.R < N ",
"Q H T 4 G >.5.,.,.,.,.,.,.$.$.< + + + % + + + O . . o                                   + $ % @ + + @ q d D K D S E y.,.:.p j b ",
"~ m y d ] -.$.+.:.O.O.O.@.O.L < + + @ % @ + + O + . o                               . . + $ % % + . $ d O.` ` D Z L 1.:.#.4 b N ",
"~ y 4 { &.6.%.O.@.D D G G G D < # + % % % + + O . . . .     . .                   o . . @ % % $ + . & K i.5.*._ y G :.O.R y v V ",
"q p R 5.5.8.,.%.:.O.L G G Z y < % % % % % + + + . o o .                 o         . @ $ $ & = $ % & < ~ 9.>.*.] A G O.` G j N Y ",
"0 e.i.i.8.>.>.*.$.$.` S s < , < : = = $ $ $ O + . . . . . .             O     . $ > q 7 7 H ] +.+._ s H -.<.*.@.] T K _ D 4 m ! ",
"H e.a.e.&.*.#.x y y y 7 d D S K F d 6 = % % % + @ @ @ X + X + + + + + + + + @ $ 7 S H H K 1.z.B.V.z.] a ~ -.>.$.#.] ` { T w s V ",
"s e.d.a.-.+.H G b F ] +.,.y.>.:.#.L S s , ; = : ; ; ; ; ; ; ; ; ; ; ; ; ; ; ; q H T J T &.y.k.B.K.C.k.] a K 6.:.>.>.,.$._ q q v ",
"b <.i.d.8.] d s.,._ $.:.,.:.] $.&.] *.{ d , 1 u 5 5 C 5 C 1 5 5 5 5 5 5 5 1 < d K K T +.>.>.1.s.x.C.C.i.a a #.@.>.>.*.O.S 4 q v ",
"S i >.s.y.L $.k.$._ { *.>.@.$.*.@.*.8.1.+.S u u C C u u u u u u p u C C 5 1 6 x K T @.>.1.>.:.,.p.v.C.p.a q ` ` $.+._ K 6 , , V ",
"T < ] -.*.S s.i.] ] +.#.>.*.>.>.,.1.,.8.-.d 7 1 u p d s s i y q y a p p 5 1 > d _ @.,.1.,.,.>.:.1.g.v.i.a a O.` ` K K H 0 3 v B ",
"#.4 q _ R d 8.&.$.:.` ` *.@.+._ #.:.:.1.*.s 7 y i e q 0 e 0 - - 7 e e e 7 6 > a ] *.1.,.,.>.,.:.$.8.z.8.y q A < 7 7 H K w 3 v I ",
"_ s 4 S d i 7.,.@.#.+.*.*.>.:.] @.$.@.$.] , 7 q w 6 % & 0 t e e t z l l z 6 6 d K _ @.1.1.,.,.,.:.y.h.#.7 s a y x A d p w w n ! ",
"J w d , : q ,.8.$.O.*.>.$.@.*.@.$.,.:.` x : , > < - % - t v v v v t c v M 6 6 x J K +.1.y.,.,.:.8.g.,.a H ~ L R K d i h t w n Y ",
"h , q s $.d *.>.,.,.,.` L F S x D L ` D s @.{ S q < , l l c c 0 = = - v v e 6 a H T @.<.<.:.:.y.j.p.b x ] $.,.f.h.T < w w f P ! ",
"l % % >.g.x *.$.O.$.` a 7 7 a L ] ] D G ` :.+.' K q s V v t t 0 - 0 v V M l = 6 a G _ ` ` ~ #.g.j.K s ] >.1.1.k.L.>.& 3 h n P ( ",
"l % - h.+.s ] 8.` S q b K T @.g.B.Z.k.` S G @.+._ 6 q l 0 - e g l v M N v e e 6 7 s x z a q b *.#.s T $.y.:.:.k.C. .2 3 g m ! ) ",
"e 2 3 i.T L x 1.y.7 x K _ *.1.1.p.x.K.g.a G 1.*._ a e v 0 % 0 v v v N N V V V V e 6 > = > = 6 7 7 q T &.y.$.5.j.s.d 3 g h m I ) ",
"f 2 2 #.i.p.K ] k.a x H { 1.1.:.$.1.c.p.D ] #.{ J s b V W W V N V v V v v v v v v e 6 6 e e 0 = & = j >.f.f.j.u.b , f g v m P ! ",
"P f 9 = *.y._ s i.a Z K ] >.1.,.:.*.k.s.G K S x s z v V B N V V V V V v v N M v V B v v N W M e 6 6 q #.x.z.s.R w n h v v v m Y ",
"! t r 8 % % % 6 > 7 x K T O.,.y.8.g.B.y.6 = 6 6 z M v e t z v v v v M M V W V V V V V ! Y W N l e z 0 d O.#.K t n m c v n m B ! ",
"( 0 g r 8 0 e e x s 7 x H x R i.h.x.8.s 0 e v v M N V W V W V W W W W V V W V N W V Q V ! V M B W V c 6 e s c m Y v e B V V Q ) ",
"! ( W 0 8 8 0 8 0 b t 7 6 6 6 a Z b q e v M V V V V V V M V V V V Y Q W V Y V N V V V Q V V V W W V B v B B B V V V e V V ! ~ ..",
"( ! V - e e 0 - 0 V J z e e 7 6 6 e v V V W V W W V V V V W Q W ! ! ! ! ! ! ! ! ! ! Q Q W V W V Q V V V I B B B V V V Q Q Q ! [ ",
"( ~ ! ~ Q ! Y Q Y W ! W W ! W W ! W ! W ! ! ! Q Q ~ Q v c B W Q ! ~ / / / / / ! / ! / ~ / ~ ! ( ~ / ~ ( [ | ) ! ! ! / ( ( Q W c "
};
