/* XPM */
static char *exit_41678372744[] = {
/* columns rows colors chars-per-pixel */
"64 64 187 2 ",
"   c #160E0E",
".  c #151315",
"X  c #1C1314",
"o  c #1D161A",
"O  c #1B1B1B",
"+  c #231615",
"@  c #281716",
"#  c #221917",
"$  c #21161B",
"%  c #241B1C",
"&  c #291E1D",
"*  c #331E1D",
"=  c #3B1E1C",
"-  c #192A1F",
";  c #22211E",
":  c #2B211F",
">  c #34201E",
",  c #3B221F",
"<  c #241E21",
"1  c #2A1F22",
"2  c #321E21",
"3  c #1D2220",
"4  c #1D2922",
"5  c #242323",
"6  c #2C2423",
"7  c #2C2A26",
"8  c #2A2729",
"9  c #242E2D",
"0  c #2C2C2C",
"q  c #322524",
"w  c #3C2422",
"e  c #352927",
"r  c #3B2926",
"t  c #342729",
"y  c #3C2728",
"u  c #342B2B",
"i  c #3A2D2C",
"p  c #27342D",
"a  c #2D322D",
"s  c #33332D",
"d  c #3C312E",
"f  c #272F30",
"g  c #2F2F30",
"h  c #312F30",
"j  c #3B2E30",
"k  c #2F3434",
"l  c #343434",
"z  c #3C3333",
"x  c #373936",
"c  c #393A36",
"v  c #373738",
"b  c #383738",
"n  c #353A3A",
"m  c #3C3C3C",
"M  c #51251F",
"N  c #442522",
"B  c #4B2725",
"V  c #452925",
"C  c #4B2926",
"Z  c #422E2B",
"A  c #4C2D2A",
"S  c #542722",
"D  c #5A2721",
"F  c #532A25",
"G  c #5A2C27",
"H  c #542E2A",
"J  c #5C2F2A",
"K  c #42312F",
"L  c #5D322D",
"P  c #433533",
"I  c #493634",
"U  c #453936",
"Y  c #4B3A36",
"T  c #443739",
"R  c #443C3B",
"E  c #4C3D3B",
"W  c #5F3430",
"Q  c #513E3B",
"!  c #5C3C38",
"~  c #6B2E27",
"^  c #652F29",
"/  c #61342E",
"(  c #6C322C",
")  c #633631",
"_  c #6A3732",
"`  c #663834",
"'  c #6C3B36",
"]  c #663A38",
"[  c #6E3D38",
"{  c #703C37",
"}  c #713D38",
"|  c #36403A",
" . c #3F403F",
".. c #43403F",
"X. c #4E413E",
"o. c #53413E",
"O. c #58433E",
"+. c #64413D",
"@. c #6F433F",
"#. c #72423C",
"$. c #3E3F40",
"%. c #3E4040",
"&. c #444444",
"*. c #4A4544",
"=. c #4C4847",
"-. c #484748",
";. c #474848",
":. c #494949",
">. c #544442",
",. c #5A4642",
"<. c #564846",
"1. c #5C4945",
"2. c #514D4C",
"3. c #5E4C48",
"4. c #54504F",
"5. c #5E514F",
"6. c #535353",
"7. c #5B5452",
"8. c #644440",
"9. c #6A4743",
"0. c #624B46",
"q. c #6F4B46",
"w. c #634E49",
"e. c #6A4F4A",
"r. c #724743",
"t. c #724A45",
"y. c #724E49",
"u. c #65514C",
"i. c #6B534E",
"p. c #6C584F",
"a. c #76534F",
"s. c #675550",
"d. c #6D5650",
"f. c #675852",
"g. c #6E5953",
"h. c #6F5F59",
"j. c #715751",
"k. c #745B54",
"l. c #795E56",
"z. c #755E58",
"x. c #7A5F58",
"c. c #6F615A",
"v. c #776157",
"b. c #7B6057",
"n. c #76615A",
"m. c #7C625B",
"M. c #776664",
"N. c #7C6760",
"B. c #7E6863",
"V. c #797D7C",
"C. c #81655D",
"Z. c #826A5F",
"A. c #846C63",
"S. c #896E63",
"D. c #876F69",
"F. c #8B7165",
"G. c #8D736C",
"H. c #927467",
"J. c #937769",
"K. c #967A6C",
"L. c #9A7E6F",
"P. c #8B7F7D",
"I. c #907471",
"U. c #9C7E70",
"Y. c #A38574",
"T. c #A58876",
"R. c #A78979",
"E. c #AC8E7B",
"W. c #848C8C",
"Q. c #948482",
"!. c #958986",
"~. c #988A86",
"^. c #978A89",
"/. c #9D8F8D",
"(. c #9D918D",
"). c #9C9897",
"_. c #B49580",
"`. c #B69983",
"'. c #BB9D86",
"]. c #A29593",
"[. c #A59896",
"{. c #BFA089",
"}. c #AFB1B2",
"|. c #B4B3B3",
" X c #C3A38B",
".X c #C9A98F",
"XX c #B0BEC0",
/* pixels */
";.;.;.;.;.;.;.;.;.;.;.;.;.;.;.;.*.-.*.m m c m &.&.-.&.*.;.-.c c m &.&.&.=.;.;.;.=.=.=.;.;.;.;.;.;.=.=.;.;.:.2.;.n n n | %.6.6.6.",
";.;.;.=.;.;.-.m m R  .R R m R z u e 6 : q u i d P P P s 8 % 6 6 6 : 6 5 u R m ........c x z l x z ....&.R &.%.%.%.n n n %.%.6.6.",
";.;.;.;.;.m R u i P q : % # # & 6 q u P i e e q : q % : q d c R U U z U e q P u 6 % % : 6 6 : 6 % # : q e % & l ;.m n k k %.:.6.",
"=.;.;.*.;.u d w.i.k.Y Q o.,.1.1.1.e.i.i.u.e.w.u.i.,.Y u.p.f.c.n.n.k.n.i.3.d e d ,.p.n.m.m.m.m.m.m.n.p.0.o.g.,.q 8 l %.n %.%.:.6.",
";.;.-.&.2.d i 0.k.k.3.>.1.w.1.>.,.u.k.e.>.o.o.,.d.1.O.p.g.v.m.v.f.g.v.i.1.I e Y u.i.l.k.l.n.l.n.n.m.z.z.m.z.u.1.i x ;.&.%.6.:.6.",
";.=.-.m *.1.>.w.w.w.E ,.i.i.u.3.,.w.3.X.R o.1.O.,.E o.Z.F.b.z.a.u.3.O.<.p.0.o.K 6 P 1.i.j.i.i.l.l.s.w.w.s.i.i.d.p.o.8 l %.%.6.6.",
"=.;.=.m E w.1.e.,.E o.w.k.k.k.k.i.i.,.>.>.0.i.u.1.K K v.Z.l.k.u.u.0.X.o.i.0.o.Y t i >.u.p.u.d.b.i.,.>.w.w.>.>.3.i.,.% 8 :.%.%.6.",
";.;.;.-.7.Y Z i.w.,.3.i.d.i.d.a.d.i.i.w.u.e.a.Q q U 3.k.l.z.l.k.a.i.i.u.j.a.i.o.: Y i.j.k.u.w.w.<.o.w.j.e.w.,.,.u.s.s.z f k 6.6.",
";.;.;.=.5.P d a.i.,.u.e.<.3.<.3.u.i.i.i.i.i.k.Y q >.u.d.d.i.u.p.g.k.l.k.l.j.p.Q : Q b.l.k.i.w.X.E <.i.k.k.k.j.e.,.>.s.s.t 0 :.6.",
";.;.;.=.2.d i 0.>.3.w.>.>.3.s.w.g.k.j.d.k.o.I 0.d.k.k.w.,.>.X.>.w.k.i.0.0.e.i.o.e Q i.a.p.a.u.1.,.0.a.k.k.x.m.j.3.<.s.g.u l :.6.",
";.;.;.;.=.u i O.,.i.1.E <.d.d.e.i.k.j.j.k.Q i e.l.k.e.X.R Y o.o.3.3.,.E o.<.w.o.i O.j.p.p.u.i.0.<.u.a.k.k.x.n.l.i.e.s.s.u k 2.6.",
";.R m 0 0 E 1.o.Q I i Q s.l.z.d.u.a.z.i.k.Z % 0.l.w.>.T E 3.j.p.w.>.T E 0.o.d K I 0.n.k.j.j.k.u.1.i.C.C.k.k.l.l.j.d.k.g.u k :.6.",
";.R  .7 t o.w.Q Y i q 1.k.l.l.k.i.b.m.p.u.i # Q w.>.E X.0.d.k.k.i.3.3.u.j.,.i I I 0.n.k.b.b.b.i.w.u.k.k.k.j.j.k.k.k.m.g.u g :.6.",
";.0 u 7.s.d.z.j.k.0.O.Y I i P I K I K i i q 6 I I E E Y I P K K P P d z d : # u E 3.v.k.k.i.e.u.1.O.O.,.i.d.e.u.l.k.1.<.u 0 2.6.",
"-.8 u z.n.z.d.p.a.u.i.I i t q q r e q q q : & i i K i 1 & @ % # # # # @ @ +   : U 3.f.f.u.,.<.i.0.,.E ..i.j.w.i.x.d.>.<.u g 2.6.",
"&.7 z n.m.k.<.,.w.i.k.i.a.i.i.i.i.u.w.i.u.0.O.i & * * * * , w w w N w , w N * : u <.f.<.P u e K Q Y Y I K Q i.w.i.3.Y E % 3 ;.6.",
"&.7 z n.m.z.w.0.i.k.k.l.m.C.x.m.x.l.l.l.l.j.0.t = B B N N H H J L H H B N C C > & o.n.>.u e & r I I Y I r Y j.0.1.>.K Y X O ;.:.",
"-.8 d n.m.m.k.u.i.k.l.k.j.d.j.j.j.k.x.l.l.,.K w A H B N B J W J L L H N B H L V * q u i i I 0.i.k.Z.Z.j.0.,.Y P P U o.E : 5 m &.",
"-.8 i m.C.n.z.0.1.s.k.u.,.>.>.<.e.g.l.l.x.Y q H ) L H B A L W W L L L C C H / L N + X q d O.l.l.Z.H.Z.k.u.1.i i i I o.X.: 5 m m ",
"m U o.m.m.l.k.i.1.w.w.X.Y X.>.3.w.3.1.>.O.i V _ ' ` J H J ) ` ` _ ) L L H / _ ' / = X i u.d.j.l.C.Z.b.j.i.i.e.u.i.a.v.f.i l -.=.",
"m X.1.m.C.b.z.k.a.w.>.E ,.u.j.i.i.<.X.I K q L } { [ ) / ) ' { ' ' ' _ / L ` #.} ' C X i z.C.C.m.C.k.x.k.i.0.w.d.b.n.m.n.I U ;.:.",
"v z Y n.n.l.k.k.k.p.w.3.i.l.n.k.a.u.u.K > N ` #.} { ` ) ) ' { { ' } ' ) ) ` ' } ' H @ q ,.b.F.b.k.a.k.k.a.1.,.1.o.E o.o.i z 6.6.",
"v 8 s v.m.l.k.i.j.l.l.z.k.j.i.i.p.l.j.K > H _ } { [ ) ) ) ' { ' } #.` ) ) ` ' } ' L * @ P p.g.0.u.j.i.i.z.d.u.3.K K e d u d 7.6.",
"m c X.<.1.k.j.a.j.g.a.i.u.1.,.<.i.,.E 1.! L ( ' { [ ) L ) ` [ { ' ' ` ) ) _ _ ' ' / H > & E 3.E 0.u.Y 1.m.v.j.j.u.e.,.X.: t 7.4.",
"&.m =.X.o.m.l.k.e.,.3.w.3.1.<.3.u.P 7.!.j.^ / { { ' ) L ) ' ' ' ' ' ` ) ) ` ` ' ' _ / H > K j.u.j.0.d o.l.k.k.l.l.l.i.1.+ 7 4.4.",
"&.m -.i y w.w.u.Q E ,.w.u.i.k.>.U ..W.}.x.G G _ { ' ) L ) ' ' ' } ' _ ) ) ` ' } ' ` / ) H V I Q Q O.0.8.j.a.l.l.l.k.k.e.q d 2.:.",
"%.m =.% $ O.Q >.R o.<.w.a.m.C.X.&.V.XX}.z.F ^ _ } ' ) ) ) ' ' { ' ' _ ) ) _ ' #.' ` / ) ` H r e q I i.i.k.l.l.k.l.l.l.i.i z *.=.",
"v 8 z <.E E I u z z i I O.O.o.P 7.).|.^.q.F ^ ' } ' ) / ) ' { ' { ' ` ) W _ ' { ' ` L ) _ / N u Y o.u.k.k.z.k.l.l.l.C.i.q s 2.2.",
"k O 8 z.u.z j 6 y r 6 t r q i r 1.A.J.m.+.J ) ' [ ' ) ) ) ' ' ' ' _ _ ) ) ` #.' ' ` L / _ ( N i 3.d.k.l.C.x.C.x.n.k.k.0.% r 7.6.",
"f - h n.i.*.Y Y o.>.o.Y z U 0.K C ` @.] W / _ ' [ ' ) / ) ' { ' ' #.` ) W ) ' { ' / H L ' #.H K d.l.k.i.o.O.O.,.w.1.1.X.t K <.*.",
"4 3 z N.d.w.u.s.j.i.i.i.1.w.l.K = D ^ ^ J W ` [ ' ' ) / ) ' [ ' #.' ` ) ) ` { ' ' ` H H @.C.8.I l.k.k.0.r Z i K o.X.,.U i I U m ",
"f g E M.g.i.k.z.z.k.k.k.k.k.m.Y , D ( / J W ` [ ' ' ` ) ) ' } ' ' ' ` / ) _ ' _ ' ` F S t.Q.M.Y 0.O.O.0.,.o.Q R 3.s.g.e.E d 8 l ",
"l R ,.m.g.e.j.k.x.x.x.x.k.l.l.Q r C / ` ) / ` ' ' ' ` / ` ' } ' ' ' ` ) ) ) #._ ` ) G S y.].P.Y Q Q I >.w.,.X.E s.B.C.m.0.e % 8 ",
"m R ,.N.z.s.d.k.l.z.k.g.i.u.i.,.Y V / ` W ) _ { } _ ` / / ' ' } ' { _ ) ) ` #.' [ ) G F y.[.!.Q Z E E I P P R >.k.A.C.n.l.i 6 u ",
"m z q N.N.w.s.k.e.1.<.w.u.,.,.e.@.A ) _ ) W ` } ' ' ` / ` _ ' ' { ' ' ) ) _ ' ' [ _ J G t.].^.8.w d E z u u R ,.s.m.n.k.m.O.q i ",
"m b % N.z.3.w.e.>.T E w.f.<.,.0.O.A ` ` L ) ` ' ' ' ` / ) ' } ' ' ' _ / ) _ ' { { ` J G 9./.~.t.C i U U z u P U <.u.s.u.k.0.i d ",
"m u 6 p.z.e.<.X.T E 1.d.f.<.0.0.O.V ) +.) W ` ' #.' / / / ' ' ' #._ _ ) W _ #.' { ) J G +.~.~.y.H w z U d d z P *.<.>.,.O.o.d z ",
"x u e E m.k.w.X.X.w.i.3.<.,.i.,.X., L ( ) ) _ ' ' ' ` / ` ' ' ' ' #.` ) W ` ' ' { ` ^ F 8.Q.~.y.W w i U U U U E >.<.>.X.E Y d c ",
"l s Y e A.k.j.i.d.j.w.X.o.,.j.O.K , J ` / L _ { } ' ` / / ' } ' ' ' ' / / ) #.' { ) G G 9.^.(.j.` C t E i.0.1.0.u.p.u.0.1.<.& z ",
"v z X.u.e.l.C.x.x.l.i.3.3.0.j.K , C ) ` / L ` ' } ` ` L ` ' ' ' ' ' ` / ) _ { { { ` G G y.).[.a.] H * K <.1.0.O.,.w.b.l.j.o.: z ",
"&.m Y : Y k.v.v.l.l.l.l.k.a.i.: , ^ ' ( W L +.' ' ' ` L ` _ ' ' { ' ' / / ` ' ' ' ` L H y././.a.' L * 6 i K E P P O.C.b.j.u d z ",
"&.P q d 3.g.i.u.i.1.0.w.u.3.o.q M ~ ( / L / _ ' } ' ` / ` ' } ' ' ' _ / ) ` ' } ' _ L ^ r.I.G.r.` J * i 0.1.,.I Z O.l.i.u.: z c ",
"*.q : 3.p.n.p.0.u.Y P Y Y Y I > M ( ' _ L / _ #.' ' ` W / ' ' ' ' _ ` ) ) ` ' ' ' ) H H ] t.r.` J N & E A.n.j.>.q Y a.0.o.7 l m ",
": r o.n.n.n.l.i.a.1.! Y Q i > 6 K @.a.@.) / ( #.' ' ` / ` _ ' ' #.#._ ) / ` ' ' L H N , w w N N 2 & : *.n.z.j.0.K Y 1.1.Y d z ..",
": N.D.A.n.k.l.i.i.i.,.P i & % 6 t U 5.u.L L _ #.' ' ` L ) ' [ ' ' _ ` / W ) ) C w y t t t I w.e.e.,.t P g.z.d.w.1.E E ,.I : U &.",
"c N.D.M.i.i.i.P q q 6 q i P I Y R P l z V J / ) ` ' ) L L _ ' ' ' _ ) W L / A > t I E T E z.Y._.`.Y.1.t *.g.z.i.u.1.<.0.X.7 7 m ",
"i B.G.D.g.w.I P z I ,.w.l.C.k.j.u.X.U z , N G _ ' ' ) L / ' [ [ ' ' _ W W J , e T E E X.e.C.L._. X'.L.3.t Y l.j.j.z.k.i.o.7 6 l ",
"d z.D.G.m.,.j F.v.>.i.k.l.i.1.u.i.1.p.3.P > N L ` ` W L W ` ' ' ` _ ` W J C > z E R X.w.k.z.l.F.Y.'.{.A.t t u.w.k.l.d.w.P : 6 l ",
"P e h.A.C.Q p.L.i.>.w.i.k.u.i.d.u.i.m.x.w.P e B H A A V A A A A A A A A F 2 1 j E o.w.k.x.k.j.k.F.E.'.F.t 2 >.3.s.e.>.Y 5 - % m ",
"X.: 1.k.j.P F.A.>.1.w.i.j.j.k.k.l.n.l.m.j.d & w V i t u r t q 6 q t i y w @ $ u >.u.l.x.l.l.k.j.z.J.E.C.t t <.,.,.E R I 6 % u m ",
"u.: 6 O.o.i b.g.d.j.<.,.d.w.w.,.u.a.a.x.i.u : q e 8 6 5 8 5 O O 5 7 8 t 6 < $ i ,.d.l.l.l.l.l.k.i.m.Y.Z.6 t K & 1 6 P E 7 ; l %.",
">.u : P i 6 m.z.e.e.w.s.d.k.d.1.u.i.u.i.3.% 6 : 7 % . O 5 8 8 8 8 g g h h < < j E ,.i.l.l.l.l.k.a.C.K.w.1 t t t i P u u 7 8 x &.",
"R 7 i # % 6 z.C.e.0.d.k.i.i.d.e.a.j.k.,.j # % % % % . O 0 x x x l 0 g x v < < j R E w.m.C.l.l.j.m.K.z.u P o.o.Q E d u s 7 a x ..",
"s O 6 u i.i i.k.l.x.l.1.Q I P j Y Q ,.P u e.3.z 6 % % 0 g g g 5 O o O l v 8 $ t R E w.k.k.d.j.C.Y.A.z z 3.p.k.H.K.o.; 7 7 a | ..",
"a . X k.J.i d.p.3.d.>.t 6 < t Q 1.<.I Y ,.j.u.>.X.6 7 m l 0 0 5 O < l m v 0 < $ t E <.<.,.>.u.K.K.X.e 1.j.x.l.Y..Xg.X ; s c | =.",
"0 . O K.w.t 3.m.,.P 2 z E E e.J._. XL.>.P E e.w.>.1 6 k 5 O 8 a l l v b l 8 8 < < t j i t 8 z g.0.u X.u.x.k.j.U. Xw.O - s c ..:.",
"p - O F.>.Q i x.m.1 j X.>.e.x.x.S.Y..XF.y Y l.d.<.t 8 x 5 . 5 l g l v m m m m m 8 < $ o $ o $ 1 1 6 X.f.C.i.v.L.S.i 5 s s c  .=.",
"p - O u.A.S.Q 1.Y.y j R w.x.x.j.i.l.R.S.T ,.e.3.E t l m $.$.m v b x b z l l l l l 8 < < 8 8 5 o . o d k.H.H.L.A.K - p a s | | &.",
"| p 4 O p.m.>.i m.2 j E 1.l.x.l.j.d.L.F.Y E z z t g x v v m m m m m m l l v v l m v x l b $.b 8 < < 6 u.T.Y.A.o.6 l s s l l c ..",
"&.0 9 O . . . O < < j E X.1.k.A.C.J._.C.1 o < < h v l 8 0 0 l x x v l v b $.m m m m m &.$.$.m 0 8 l 5 i 0.u.E 7 c c s l l x m &.",
";.; a 9 5 4 8 8 l u 1 j P j >.A.J.Y.m.u 5 0 l x v m m m %.m %.m m %.R m $.$.m m m  . .m %.m v v m m l < 5 g k m ..x 8 v m m &.:.",
";.;.R 5 3 5 5 3 8 z 7 1 < < < t P z 6 0 l v v m b m m m v m m m %.%.%.m m $.m b m m m  . .m  .m $.m v l v m m c m v 0 m  ...&.4.",
";.&.m O 5 5 1 O % m R l 8 8 1 < 1 8 l m m $.m m $.m m m m m  .%.&.-.&.&.&.&.&.&.&.%.%.m ..m m  . .m m %.%.| c n m m m m %.&.;.2.",
";.;.&.&.&.&. .&.$.$.$...$.&.$.$.$.&.$.$.&.&.&.$.&.&.$.v l n m m &.-.-.-.-.-.-.&.-.-.-.-.-.;.&.-.-.&.-.;.2.2.:.;.&.&.-.&.-.&.| k "
};
