/* XPM */
static char *result[] = {
/* columns rows colors chars-per-pixel */
"50 50 92 1 ",
"  c #392B31",
". c #382B30",
"X c #382F33",
"o c #535353",
"O c gray37",
"+ c #808080",
"@ c #909090",
"# c #9F9F9F",
"$ c gray60",
"% c #929292",
"& c #8E8E8E",
"* c gray56",
"= c gray57",
"- c gray58",
"; c #9A9A9A",
": c #A0A0A0",
"> c #888888",
", c #777777",
"< c #6C6C6C",
"1 c gray43",
"2 c gray44",
"3 c gray45",
"4 c #747474",
"5 c gray49",
"6 c gray55",
"7 c gray36",
"8 c #4B4B4B",
"9 c gray30",
"0 c #515151",
"q c #555555",
"w c gray34",
"e c gray40",
"r c gray21",
"t c #373737",
"y c gray22",
"u c #3A3A3A",
"i c #3E3E3E",
"p c gray26",
"a c gray27",
"s c #464646",
"d c #484848",
"f c gray29",
"g c #494949",
"h c gray28",
"j c #3C3C3C",
"k c #414141",
"l c #434343",
"z c #505050",
"x c #565656",
"c c #5B5B5B",
"v c #4E4E4E",
"b c gray24",
"n c #444444",
"m c #4C4C4C",
"M c #585858",
"N c gray39",
"B c #6A6A6A",
"V c #606060",
"C c gray25",
"Z c gray31",
"A c #5F5F5F",
"S c gray47",
"D c #3F3F3F",
"F c #676767",
"G c #646464",
"H c gray42",
"J c gray38",
"K c #6F6F6F",
"L c #939393",
"P c #797979",
"I c gray33",
"U c #959595",
"Y c #7E7E7E",
"T c gray35",
"R c #989898",
"E c gray52",
"W c #5D5D5D",
"Q c #767676",
"! c gray46",
"~ c DimGray",
"^ c gray61",
"/ c #7B7B7B",
"( c #838383",
") c gray53",
"_ c gray51",
"` c #7C7C7C",
"' c #818181",
"] c #898989",
"[ c gray50",
"{ c #979797",
"} c gray59",
"| c #9B9B9B",
/* pixels */
"                                                  ",
"    ..........................................    ",
"  XoOOOOOOOOOOOOOOOOOOOOOOOOOOOOOOOOOOOOOOOOOOoX  ",
"  o+@@@@@@@@@@@@@@@@@@@@@@@@@@@@@@@@@@@@@@@@@@+o  ",
" .O@#$%&&&&&&&&&&**@=======================-;:@O. ",
" .O@$>,<<<<<<<<<<1234444444444444444444444456;@O. ",
" .O@%,7888888888890qwwwwwwwwwwwwwwwwwwwwwwwe5-@O. ",
" .O@&<8rrrrttyyyyuipaaaaaaaaaasdf8888888ghsw4=@O. ",
" .O@&<8rrrryujjjjiklaaaaaaaaaagzxcccccccqvhw4=@O. ",
" .O@&<8rrrrubkkkkplnaaaaaaaaaamMNBBBBBBBVqgw4=@O. ",
" .O@&<8rrrtjCnaaaaaaaaaaaaaaaaZA1SSSSSSSBc8w4=@O. ",
" .O@&<8tyujDpaaaaaaaaaaaaaaaaaZA1SSSSSSSBc8w4=@O. ",
" .O@&<8tubCplaaaaaaaaaaaaaaaaaZA1SSSSSSSBc8w4=@O. ",
" .O@&<8yjknaaaaaaaaaaaaaaaaaaaZA1SSSSSSSBc8w4=@O. ",
" .O@&<8yjkaaaaaaahf9ZZZZZZZmgsZA1SSSSSSSBc8w4=@O. ",
" .O@&<8yjkaaaaaaagzwcccccccqvdZA1SSSSSSSBc8w4=@O. ",
" .O@&<8yjkaaaaaaa8xVFFFFFFFOogZA1SSSSSSSBc8w4=@O. ",
" .O@&<8yjkaaaaaaamMGHHHHHHHJqgZA1SSSSSSSBc8w4=@O. ",
" .O@&<8yjkaaaaaaamMGHHHHHHHJqgZA1SSSSSSSBc8w4=@O. ",
" .O@&<8yjkaaaaaaamMGHHHHHHHJqgZA1SSSSSSSBc8w4=@O. ",
" .O@*KvjCnhhhhhsamMGHHHHHHHJqgZA1SSSSSSSBc8w4=@O. ",
" .O@=4wsd899998gsmMGHHHHHHHJqgZA1SSSSSSSBc8w4=@O. ",
" .O@LPVz0oIIIIz8hmMGHHHHHHHJqgZA1SSSSSSSBc8w4=@O. ",
" .O@UYFTTTTTTTI9hmMGHHHHHHHJqgZA1SSSSSSSBc8w4=@O. ",
" .O@UYFTTTTTTTI9hmMGHHHHHHHJqgZA1SSSSSSSBc8w4=@O. ",
" .O@UYFTTTTTTTI9hmMGHHHHHHHJqgZA1SSSSSSSBc8w4=@O. ",
" .O@UYFTTTTTTTI9hmMGHHHHHHHJqgZA1SSSSSSSBc8w4=@O. ",
" .O@UYFTTTTTTTI9hmMGHHHHHHHJqgZA1SSSSSSSBc8w4=@O. ",
" .O@UYFTTTTTTTI9hmMGHHHHHHHJqgZA1SSSSSSSBc8w4=@O. ",
" .O@UYFTTTTTTTI9hmMGHHHHHHHJqgZA1SSSSSSSBc8w4=@O. ",
" .O@UYFTTTTTTTI9hmMGHHHHHHHJqgZA1SSSSSSSBc8w4=@O. ",
" .O@UYFTTTTTTTI9hmMGHHHHHHHJqgZA1SSSSSSSBc8w4=@O. ",
" .O@UYFTTTTTTTI9hmMGHHHHHHHJqgZA1SSSSSSSBc8w4=@O. ",
" .O@UYFTTTTTTTI9hmMGHHHHHHHJqgZA1SSSSSSSBc8w4=@O. ",
" .O@UYFTTTTTTTI9hmMGHHHHHHHJqgZA1SSSSSSSBc8w4=@O. ",
" .O@UYFTTTTTTTI9hmMGHHHHHHHJqgZA1SSSSSSSBc8w4=@O. ",
" .O@UYFTTTTTTTI9hmMGHHHHHHHJqgZA1SSSSSSSBc8w4=@O. ",
" .O@UYFTTTTTTTI9hmMGHHHHHHHJqgZA1SSSSSSSBc8w4=@O. ",
" .O@UYFTTTTTTTI9hmMGHHHHHHHJqgZA1SSSSSSSBc8w4=@O. ",
" .O@UYFTTTTTTTI9hmMGHHHHHHHJqgZA1SSSSSSSBc8w4=@O. ",
" .O@UYFTTTTTTTI9hmMGHHHHHHHJqgZA1SSSSSSSBc8w4=@O. ",
" .O@UYFTTTTTTTI9hmMGHHHHHHHJqgZA1SSSSSSSBc8w4=@O. ",
" .O@UYFTTTTTTTI9hmMGHHHHHHHJqgZA1SSSSSSSBc8w4=@O. ",
" .O@RE3FFFFFFFNOTWe2QQQQQQQ1GcA<S+++++++!~7e5-@O. ",
" .O@^=EYYYYYYY/S!SY()))))))_`QP']&&&&&&&)[,56;@O. ",
" .O@:^RUUUUUUU-L=%U{RRRRRRR}-%L}$|||||||RU%-;:@O. ",
"  o+@@@@@@@@@@@@@@@@@@@@@@@@@@@@@@@@@@@@@@@@@@+o  ",
"  XoOOOOOOOOOOOOOOOOOOOOOOOOOOOOOOOOOOOOOOOOOOoX  ",
"    ..........................................    ",
"                                                  "
};
