/* XPM */
static char *exit_51678372744[] = {
/* columns rows colors chars-per-pixel */
"64 64 179 2 ",
"   c #0E0D0D",
".  c #110E0D",
"X  c #180E0D",
"o  c #1B100F",
"O  c #151313",
"+  c #1C1414",
"@  c #1D161A",
"#  c #1C1B1B",
"$  c #231514",
"%  c #281715",
"&  c #211817",
"*  c #21161B",
"=  c #241C1C",
"-  c #291E1D",
";  c #341E1B",
":  c #3A1F1C",
">  c #192A1F",
",  c #22211E",
"<  c #2B211F",
"1  c #33211F",
"2  c #3E221F",
"3  c #241E21",
"4  c #2A1F22",
"5  c #331F22",
"6  c #391F20",
"7  c #1D2220",
"8  c #1D2922",
"9  c #242323",
"0  c #2C2423",
"q  c #2C2A26",
"w  c #2A2729",
"e  c #242E2D",
"r  c #2C2C2C",
"t  c #322524",
"y  c #3C2423",
"u  c #342926",
"i  c #3A2826",
"p  c #342729",
"a  c #3D2728",
"s  c #352B2B",
"d  c #3A2D2C",
"f  c #27342D",
"g  c #2D322D",
"h  c #33332D",
"j  c #3C312E",
"k  c #272F30",
"l  c #2F2F30",
"z  c #312F30",
"x  c #3B2E30",
"c  c #2F3434",
"v  c #343434",
"b  c #3C3332",
"n  c #373936",
"m  c #393A36",
"M  c #373738",
"N  c #383738",
"B  c #353A3A",
"V  c #3C3C3C",
"C  c #40221F",
"Z  c #4C231F",
"A  c #51211B",
"S  c #432421",
"D  c #4A2724",
"F  c #4C2926",
"G  c #442E2B",
"H  c #4D2D2A",
"J  c #552723",
"K  c #552B26",
"L  c #5B2B25",
"P  c #542D2A",
"I  c #5B2E2A",
"U  c #41312F",
"Y  c #57302C",
"T  c #5D322D",
"R  c #433533",
"E  c #493633",
"W  c #453936",
"Q  c #4B3A36",
"!  c #443738",
"~  c #443C3B",
"^  c #4C3D3B",
"/  c #5E3430",
"(  c #513E3B",
")  c #622E28",
"_  c #61332E",
"`  c #6B352F",
"'  c #633631",
"]  c #6A3731",
"[  c #663834",
"{  c #6C3A35",
"}  c #6E3D38",
"|  c #703C36",
" . c #703D38",
".. c #36403A",
"X. c #3F403F",
"o. c #43403F",
"O. c #4E413E",
"+. c #53413E",
"@. c #59433E",
"#. c #6A413D",
"$. c #3E3F40",
"%. c #3E4040",
"&. c #444444",
"*. c #4A4544",
"=. c #4C4847",
"-. c #484748",
";. c #474848",
":. c #494949",
">. c #544441",
",. c #594642",
"<. c #564846",
"1. c #5C4945",
"2. c #524D4C",
"3. c #5E4C48",
"4. c #54504F",
"5. c #5F524E",
"6. c #535353",
"7. c #5A5351",
"8. c #5E5857",
"9. c #614B46",
"0. c #6A4844",
"q. c #634E49",
"w. c #684F49",
"e. c #774C47",
"r. c #764F4B",
"t. c #65514C",
"y. c #6B534E",
"u. c #6C584F",
"i. c #71524E",
"p. c #7A524E",
"a. c #675550",
"s. c #6D5650",
"d. c #675852",
"f. c #6E5953",
"g. c #705751",
"h. c #745B54",
"j. c #795E56",
"k. c #755E59",
"l. c #7A5F58",
"z. c #6F615A",
"x. c #776157",
"c. c #7B6057",
"v. c #76615A",
"b. c #7C625A",
"n. c #676968",
"m. c #7D6661",
"M. c #7E6863",
"N. c #835D58",
"B. c #81655D",
"V. c #826A5F",
"C. c #896762",
"Z. c #846C63",
"A. c #896E63",
"S. c #876F6B",
"D. c #8A6B68",
"F. c #8B7165",
"G. c #8C746C",
"H. c #927467",
"J. c #937769",
"K. c #967A6C",
"L. c #9A7E6F",
"P. c #927976",
"I. c #9C7E70",
"U. c #A38574",
"Y. c #A58876",
"T. c #A78979",
"R. c #AC8E7B",
"E. c #898382",
"W. c #948584",
"Q. c #9A908F",
"!. c #B49580",
"~. c #B69983",
"^. c #BB9D86",
"/. c #BFA089",
"(. c #A7A8A8",
"). c #A5B1B1",
"_. c #C3A38B",
"`. c #C9A98F",
"'. c #B5C4C6",
/* pixels */
";.;.;.;.;.;.;.;.;.;.;.;.;.;.;.;.-.&.*.~ N V V &.&.&.&.:.*.&.V m V o.&.&.:.;.;.;.;.=.;.:.;.;.:.:.:.;.;.;.;.:.4.;.B B B ..%.6.6.6.",
";.;.;.=.;.;.*.V V ~ V %.~ ~ ~ b s t 0 0 0 s d j R R b j q , 0 0 0 0 < 9 h ~ V ~ o.o.~ V b b b m m o.O.o.~ o.$.%.%.B B B %.%.6.6.",
";.;.;.;.;.V ~ s d R t - = & = - t t d R d i u t < t = < u j b ~ W R R W u 0 R d 0 - = < 0 0 < 9 - & < 0 t , - b ;.V B c c %.:.6.",
"=.;.;.*.;.s j q.s.h.Q ( +.,.1.,.9.w.y.t.t.w.q.t.u.@.Q t.d.d.z.v.v.k.v.t.3.j u j ,.d.c.b.b.b.b.b.v.v.u.3.O.k.>.u w v %.B %.%.:.6.",
";.;.-.&.2.j d 9.h.h.q.>.1.t.1.+.<.t.h.q.>.+.+.,.s.1.@.u.h.z.b.k.d.h.x.y.9.Q t Q q.g.h.h.l.l.k.l.c.b.k.k.b.k.t.1.d m :.&.%.%.6.6.",
";.=.-.V *.1.@.q.q.3.O.,.y.i.t.3.1.q.q.( ~ +.1.+.,.( +.V.F.x.x.i.q.1.+.,.u.1.( E 0 R 3.t.g.t.u.j.j.a.q.q.s.a.t.s.a.+.w v %.:.6.6.",
"=.;.=.V ^ q.,.t.,.^ ( q.h.h.h.h.g.q.,.+.>.q.i.y.1.b U x.B.j.h.y.t.q.+.+.y.9.+.Q t d >.t.u.q.s.b.s.>.>.q.q.>.>.3.y.1.3 0 :.%.%.6.",
";.;.;.-.7.^ G y.q.,.1.y.g.s.s.u.g.y.t.w.t.t.i.( t E 3.h.x.j.j.h.i.s.t.y.h.y.y.+.t Q t.g.h.t.q.q.>.+.q.g.w.q.,.,.q.u.a.b e c 6.6.",
";.;.-.-.7.R G y.t.1.q.w.3.1.1.1.t.u.y.t.y.y.h.Q t >.t.g.g.t.u.u.g.h.j.h.j.g.i.( - +.c.j.h.g.1.+.^ >.y.h.p.h.h.w.>.>.a.a.p r :.6.",
";.;.;.-.2.d d 9.,.1.q.>.O.5.t.q.s.h.g.g.j.( R q.i.h.h.q.<.>.^ +.t.h.y.q.q.q.u.+.t ( i.u.g.i.t.1.>.t.i.h.h.l.l.h.3.,.a.f.s v :.6.",
";.;.-.-.2.s d ,.,.t.3.^ <.g.f.a.s.h.h.g.j.^ d q.j.h.q.O.! ^ +.+.3.q.>.W @.,.q.( d @.g.u.w.t.t.q.,.y.h.j.h.j.l.h.a.q.s.a.x l 4.6.",
";.~ V l s W 9.( ( E d ( a.l.h.s.q.i.h.u.g.G - 0.j.q.>.! ^ q.u.u.w.>.~ ^ q.+.d E R 9.l.h.h.h.h.q.,.u.l.b.j.h.l.l.h.s.h.s.s c :.6.",
";.~ X.q w >.9.( Q d t 1.h.l.h.h.u.l.c.u.t.d & ( q.>.^ >.9.u.h.h.q.q.3.q.h.>.d R E q.x.h.x.c.j.u.t.u.h.h.h.g.g.h.h.h.b.f.s l :.6.",
"-.r s 7.a.f.h.h.h.9.,.E E U U R U E U d d t < R R ^ ^ W W R U U R R b j j < & s ^ 3.z.h.h.u.w.y.,.+.>.,.t.g.w.t.j.g.q.,.q r 4.6.",
"-.w s k.b.k.s.s.g.w.w.E G p p p i u t 0 t 0 < j d j p - + O O O O O O O O     , ^ 2.u.u.q.,.,.t.q.1.^ ^ t.h.t.t.b.s.>.>.s l 2.6.",
"&.q b v.b.h.,.,.q.y.h.g.s.w.s.w.y.t.t.t.y.0.@.s + O O               . .       # s >.d.<.R d u R Q Q Q R U @.t.9.s.1.~ ^ 3 7 ;.2.",
"&.q b v.b.j.t.1.w.h.j.l.l.N.l.N.l.k.j.j.j.i.1.0 . O + o + o o + + + $ + $ + X O & @.v.>.d t - i E E Q Q i Q g.3.3.>.R Q + # *.:.",
"&.w j v.b.b.h.t.a.h.j.h.g.f.f.f.g.h.b.l.j.,.d # O % ; 1 ; 2 ; 2 : 1 ; ; ; ; + . O 0 d s d E 9.y.j.B.V.i.9.1.E E R R +.^ 0 9 V &.",
"-.w d b.b.b.h.q.1.s.l.t.,.>.O.1.q.g.h.j.x.Q = o + ; C S C S S S C S S S S S ; X . . + 0 b ,.h.l.A.J.F.g.t.9.d d d E @.O.0 9 N $.",
"~ ~ O.b.B.c.h.t.,.q.q.O.^ O.>.3.q.q.3.>.@.i % % ; C S S C S S S S S S S S S : - % X X d w.y.h.h.B.B.c.u.w.s.q.w.y.g.h.a.d b &.:.",
"V O.1.m.b.c.k.h.g.q.>.W >.q.g.y.t.1.O.E R < : 2 2 S C S C S C C C C C C S C C 2 2 ; X d j.B.V.B.l.h.j.h.u.9.q.s.c.c.B.v.R ! ;.4.",
"B j Q c.c.c.h.h.h.s.q.q.g.j.l.h.i.t.t.U < 1 C C S C C 2 C C C C C C C C C C C S S : + 0 ,.x.A.c.h.p.h.h.s.1.>.1.+.( ( +.d b 4.6.",
"B w s k.c.j.h.s.h.j.j.h.h.g.s.s.g.x.u.i - 2 C C S C S C C S C C S y S C C S C C C : $ $ R u.f.q.u.u.t.i.h.s.q.1.U j u j s j 7.6.",
"V m *.1.1.h.g.s.g.g.s.s.q.1.>.<.s.,.G 1 1 C C C C S D S S D F F D D D D S D S C C : ; $ & ^ 1.^ 3.w.^ ,.B.l.h.h.t.w.,.O.- s 6.2.",
"&.V =.+.( l.l.g.q.1.q.q.9.1.,.3.t.j < 2 2 C 2 C S D D S D H Y P Y K D D D F D S 2 2 2 ; $ d u.t.g.w.d ( j.h.h.j.l.h.s.1.+ u 7.:.",
"&.N *.s d w.w.w.O.^ ,.q.q.y.h.>.~ d y Z S C C S H K F S D K Y Y T Y H D S H H D S S S S 2 1 Q ^ ( @.9.9.u.h.j.j.h.j.h.t.t d 4.:.",
"%.V :.- = @.( >.^ O.>.q.u.B.B.O.R G D D S y D K P Y H S D Y T T T T P D D P P P H D S S D y t i t E y.y.h.j.j.h.j.j.l.u.d b :.;.",
"B w b <.W ( W d x U d ! @.@.@.U G P I H S S P T _ T P D H T T T T T Y D F P T ' T P S D K K 2 s ~ @.t.g.j.h.h.j.j.c.c.i.t s 2.4.",
"c # w z.t.! d 0 d i 4 t d t d t S K Y K S D T { { [ T Y Y ' ] [ [ [ T Y P _ [ { [ Y S D I Y C d 1.y.h.j.b.B.l.N.k.h.g.q.= u 7.7.",
"k # r v.a.O.W ^ >.>.@.^ b E 9.G 2 A J J C H [  . .{ ' T / ] { { { { { T _ [ {  .} T S D Y ` S U s.j.j.w.( @.,.,.q.1.1.O.t E =.*.",
"e 7 b m.f.q.t.f.g.t.g.t.1.q.l.U ; A L J F K [  . .} ] _ [ } } } } { { ' _ {  . .} _ H D _ ] F E h.g.j.0.i G d U +.O.,.^ d R ^ V ",
"k k ^ m.f.t.f.h.h.h.h.h.h.h.l.^ 2 K ] [ T T ] } } { [ _ [ {  .}  .} [ ' ' { { { { ' Y K [ | I E q.@.,.9.,.@.( ~ 3.a.g.t.^ b q s ",
"v m <.m.h.t.g.h.l.l.l.k.h.l.j.@.U ( h.N.#.T ` { } { [ ' ` {  . .{ { { ' T [ { { { ' T P { { _ H ( ^ Q @.q.@.>.^ a.M.B.b.9.u 3 w ",
"V ^ >.b.k.w.s.j.j.h.j.f.a.t.w.1.+.<.E.W.i.) ) | } { ' _ ' { { { | { [ _ ' [ } } { [ ' T { { ] P U ^ W ! R b ~ >.h.Z.m.c.j.d 0 s ",
"$.b 0 m.m.q.a.h.w.1.<.q.q.,.,.q.t.n.).(.j.I ) { } } [ T ' { } { { { { ' ' ] {  .{ ' ' T ' { ] ) y j +.R s s ~ >.u.v.k.h.B.+.1 d ",
"V b - m.k.3.q.t.>.! O.3.f.<.>.0.t.n.'.).j.K ) { } ] ' T ' { { } | { { _ / ] } { { ' ' ' ' { ` { H i ~ ! j j R ~ <.t.a.t.h.q.d j ",
"V s 0 u.k.t.1.O.! ^ 3.s.a.,.q.q.1.8.(.Q.i.I _ ` } { [ T ' { } { { { [ ' ' [ } } { [ _ ' Y ` ` { Y i b W j b b R O.<.<.+.@.+.j b ",
"M h t ^ k.h.q.( O.q.q.3.1.>.w.,.^ Q m.l.#.T ` { } { ' _ ' [ { { } } [ ' T { } { { [ _ _ P ` ` ] [ y d W W ! W Q >.<.>.O.Q Q j m ",
"v h Q i Z.h.g.y.s.g.q.O.>.,.s.@.G a [ } T T ` { } } [ T ` { { { { { ] ' _ [ } | { [ T T ' {  .{ [ F t ( y.q.1.9.t.a.t.t.1.<.< b ",
"N v O.t.a.l.N.l.l.j.s.q.1.9.g.R ; Z I / T T [ } } ] [ _ [ { { { | { [ ' ' ] | { { [ T _ #.p.e.{ { I < U ,.1.9.@.9.t.c.h.g.+.< b ",
"&.~ Q < Q h.x.x.j.j.j.h.j.y.y.; : L ` ) I T [ {  .] [ _ [ ] { } { { { _ ' ' { | { [ I I e.D.N.} ` _ ; t d R ( R U @.B.x.h.u j v ",
"*.b t d 3.f.y.t.y.9.9.w.w.9.( t J ` | [ ' ' { } { { [ T ' { { { | { { ' ' [ { | { [ I I r.P.C.} ` Y ; d q.1.,.E d @.j.g.t.< b b ",
"*.t < 3.d.c.u.q.t.Q E Q ( Q E t K | | [ _ ' [ { } { [ T ' { { { { { [ _ _ [ { { { ' L K 0.S.l.[ I S = ^ Z.k.g.>.t Q p.9.@.q b V ",
"0 i +.x.v.c.j.y.y.0.( Q Q d t - S _ { [ ' _ { } } { [ ' [ { { } } } ] ' ' { { { _ H S 6 U O.( D : - 9 O.v.k.g.1.U Q 3.,.Q j m X.",
", m.Z.S.c.h.l.t.a.y.,.R d - = 4 0 S H P T ' { } } ] [ _ [ { { { { { [ _ T [ ' F 6 G s 5 p O.q.w.q.>.s ! d.k.f.w.3.^ W ,.R 0 m &.",
"! m.S.M.a.a.t.R t t t 0 d E E Q R x i y D / { { { { _ _ [ { { { { { { _ T [ P 5 a ! ^ ! O.k.U.!.~.U.,.p >.f.k.t.q.3.,.9.^ u u V ",
"d M.G.S.f.q.E R R R ,.q.j.b.h.h.t.( ! d y D / } } { [ _ [ { { {  .} ] ' _ T y t ! ^ ^ O.t.m.I.!._.^.L.q.p ^ l.g.h.h.h.u.+.u 0 v ",
"j v.Z.G.b.1.d G.c.>.t.h.j.s.3.t.w.3.t.1.b t F T { [ T T ' ] { { [ { ] ' T H 5 R ^ ! ^ q.h.l.l.D.U.^./.Z.p p q.q.h.j.u.t.b < 9 v ",
"b t h.F.B.( u.L.t.>.q.s.h.t.a.g.t.u.N.l.q.! y F P P H G H H H H H H P P F 6 4 x ^ >.w.j.l.h.h.h.F.R./.V.p 5 >.1.a.q.,.^ 3 , - B ",
"+., 1.k.s.R F.Z.,.9.q.w.g.g.h.h.j.l.j.b.s.d - y d a u s d u t 0 t s s i a % * d >.w.h.l.j.j.h.g.h.J.R.V.p p 1.>.1.O.W W 9 , g V ",
"t.< 0 +.+.j b.f.s.h.>.,.s.q.w.>.t.g.g.j.s.s < t u w 0 9 w 9 # # 9 q q w 0 4 * x <.a.j.j.j.j.h.h.i.b.U.V.0 p U - 4 4 R ^ 0 , n X.",
">.d < R s t b.h.w.q.q.s.s.h.s.1.q.s.q.i.1.- 0 3 q = O # 9 w w r r l l l r 4 * x ^ ,.w.j.j.j.l.h.u.B.K.t.4 p p p d U d s q q n &.",
"~ q i = = 0 j.B.w.1.s.h.y.w.s.a.s.h.h.,.d = = & - # O # r v v v z l z v M 3 3 x ~ ^ q.k.B.l.j.g.c.K.h.s ! +.O.( Q d i h h q n %.",
"h # 0 u u.s s.h.l.l.l.,.( E R x E ( ,.R d q.3.R 0 - 3 r r c v 9 # @ 3 v M w * p ! O.q.l.h.g.g.B.L.A.! x 1.u.h.H.K.+., q q q ..;.",
"r O + k.J.d s.a.1.s.>.p 5 4 p ( 1.,.E Q ,.h.t.<.^ 0 r V v r g 9 # 9 c N B r * 3 p ^ <.,.,.>.q.J.L.^ s ,.h.l.j.U.`.h.+ , h n ..:.",
"c O # J.q.p 1.b.<.R 5 ! ~ ^ w.H.!._.I.>.G ^ q.q.>.4 0 l 9 # w r v v N N v w w 3 3 p x s p w b s.t.s O.t.l.h.g.I./.5.> , g m o.=.",
"w > > F.>.( x l.N.4 x O.>.s.j.l.A.Y._.J.p ^ l.s.<.t r v 9 O 9 v l v b N V N V V r 3 * @ * @ 3 4 4 t ^ u.B.u.h.U.V.j , g h m o.=.",
"c > # t.V.A.( 1.U.a x ! 3.l.l.g.y.j.T.A.E ,.q.3.^ p M V $.%.V V N v m M v M v v v q 3 3 w w 9 @ O # s k.H.H.L.V.U > f g n n ..o.",
"..f 8 # a.B.>.s b.p x ^ ,.j.l.j.g.s.I.A.E ^ R b p l M N B N N V V V V M v N M M N N v v N $.N w 3 3 - t.U.U.Z.+.0 n h h n v m &.",
"&.f e # O O O = 3 4 x ~ *.3.j.N.B.J.!.B.4 @ 3 3 z M c r r s v v v N B m N $.V N V V $.&.$.$.V r w v w j 1.t.^ r m m v v n m m &.",
";.= c e 9 8 w w v d 4 d R x <.B.J.U.b.s 9 r v v M N V $.V $.V $.$.X.V V $.V N V $.V &.V X.V N N $.V v 3 9 s c n o.n w N N V &.;.",
"&.;.V 9 7 9 9 7 w v u 3 4 * 3 s U b w q v N V N N V V V V N V V V X.%.&.V &.V N V V V V V o.V %.V V B v B ..V V X.N r V V &.&.6.",
"&.&.V # 9 9 9 # = V V v w w w 3 3 w v N V %.V $.V V V V V $.$.X.&.&.&.&.&.&.&.&.&.&.X.&.%.V $.V V $.V $.X.B V B V V %.V &.&.&.4.",
":.;.&.&.&.&.X.o.&.V $.&.~ X.&.X.&.&.&.$.&.&.&.%.&.&.%.M v B V &.&.&.;.;.*.;.;.&.-.&.&.;.&.;.&.-.-.&.&.;.2.2.:.&.&.&.&.&.&.&.B c "
};
