/* XPM */
static char *result[] = {
/* columns rows colors chars-per-pixel */
"50 50 165 2 ",
"   c #564141",
".  c #544043",
"X  c #554143",
"o  c #574242",
"O  c #534044",
"+  c #524045",
"@  c #534045",
"#  c #514047",
"$  c #524046",
"%  c #524047",
"&  c #524147",
"*  c #534147",
"=  c #544044",
"-  c #544144",
";  c #544045",
":  c #544145",
">  c #554145",
",  c #564144",
"<  c #574245",
"1  c #544146",
"2  c #544147",
"3  c #544247",
"4  c #554247",
"5  c #5A4240",
"6  c #5B4240",
"7  c #584242",
"8  c #584243",
"9  c #5A4242",
"0  c #5C4341",
"q  c #5D4341",
"w  c #5E4441",
"e  c #5B4344",
"r  c #5B4345",
"t  c #5A4347",
"y  c #5A4447",
"u  c #5D4444",
"i  c #5F4545",
"p  c #5D4547",
"a  c #534148",
"s  c #544148",
"d  c #554248",
"f  c #564248",
"g  c #574348",
"h  c #584348",
"j  c #594448",
"k  c #594449",
"l  c #5A4448",
"z  c #5B4448",
"x  c #5B4548",
"c  c #5A4449",
"v  c #5A454A",
"b  c #5C4548",
"n  c #5C4549",
"m  c #5D4549",
"M  c #5D4649",
"N  c #5E4649",
"B  c #5F4649",
"V  c #5F4749",
"C  c #614642",
"Z  c #644743",
"A  c #614646",
"S  c #624746",
"D  c #634746",
"F  c #644847",
"G  c #6A4945",
"H  c #684946",
"J  c #6A4A47",
"K  c #604749",
"L  c #614749",
"P  c #60474B",
"I  c #61474B",
"U  c #624849",
"Y  c #634849",
"T  c #61484B",
"R  c #644849",
"E  c #64484A",
"W  c #64494A",
"Q  c #65494A",
"!  c #66494A",
"~  c #664A4A",
"^  c #674A4A",
"/  c #654A4C",
"(  c #654A4D",
")  c #664A4D",
"_  c #6A4B48",
"`  c #6B4B48",
"'  c #684A4A",
"]  c #694B4A",
"[  c #6A4B4A",
"{  c #6B4B4A",
"}  c #6C4B48",
"|  c #6B4C4A",
" . c #6A4C4B",
".. c #6B4C4B",
"X. c #6D4C48",
"o. c #6E4C48",
"O. c #6F4D49",
"+. c #6C4C4B",
"@. c #6D4D4B",
"#. c #6F4D4A",
"$. c #6E4D4B",
"%. c #6F4E4B",
"&. c #684B4D",
"*. c #6D4D4C",
"=. c #6D4D4D",
"-. c #6E4D4D",
";. c #6E4E4F",
":. c #714E4A",
">. c #704E4B",
",. c #714E4B",
"<. c #724F4A",
"1. c #724F4B",
"2. c #734F4B",
"3. c #724F4C",
"4. c #734F4C",
"5. c #74504B",
"6. c #75504B",
"7. c #74504C",
"8. c #75504C",
"9. c #76504C",
"0. c #76514C",
"q. c #77514C",
"w. c #78514C",
"e. c #78524C",
"r. c #78524D",
"t. c #79524D",
"y. c #79534D",
"u. c #79524E",
"i. c #7A534E",
"p. c #7B534E",
"a. c #7C544F",
"s. c #7D544F",
"d. c #7D554F",
"f. c #7E554F",
"g. c #745151",
"h. c #765251",
"j. c #775251",
"k. c #785351",
"l. c #7A5450",
"z. c #7A5451",
"x. c #7A5452",
"c. c #7E5550",
"v. c #7F5550",
"b. c #7F5650",
"n. c #805650",
"m. c #805651",
"M. c #815651",
"N. c #815751",
"B. c #845852",
"V. c #845853",
"C. c #855953",
"Z. c #865953",
"A. c #865954",
"S. c #875A54",
"D. c #875A55",
"F. c #885A54",
"G. c #895A54",
"H. c #885A55",
"J. c #885B55",
"K. c #895B55",
"L. c #8A5B55",
"P. c #895B56",
"I. c #8A5B56",
"U. c #8A5C56",
"Y. c #8B5C56",
/* pixels */
"# # # # # # # # # # # # # # # # # # # # # # # # # # # # # # # # # # # # # # # # # # # # # # # # # # ",
"# # # # # # # # # # # # # # # # # # # # # # # # # # # # # # # # # # # # # # # # # # # # # # # # # # ",
"# # # # # # # # # # # # # # # # # # # # # # # # # # # # # # # # # # 2 N  .7.q.q.5.| N * # # # # # # ",
"# # # # # # # # # # # # # # # # # # # # # # # # # # # # # # # # # # 2 N  .7.q.q.5.| N * # # # # # # ",
"# # # # # # # # # # # # # # # # # # # # # # # # # # # # # & * * 2 2 f K ..7.q.q.6.+.L g s & # # # # ",
"# # # # 2 g l z z h * * * # # # # # # # # # # # # # # # % f z N V V L ' %.8.q.q.0.3.=.&.I k % # # # ",
"# # # # g N Q ^ ^ L f 4 * # # # # # # # # # # # # # # # * l E [ @.@.@.>.4.0.q.q.q.u.l.z.;.P * # # # ",
"# # # # l Q >.4.4.3.' x % # # # # # # # # # # # # # % * f K { 4.9.9.9.9.q.q.q.q.r.s.V.D.k.( a # # # ",
"# # # # l ~ 2.q.q.q.~ 2 # # # # % 4 g j f 2 # # # % f z K ^ %.8.q.q.q.q.q.q.q.q.r.c.C.P.x.) a # # # ",
"# # # # 2 K 2.q.q.q.! * # # # # * l K W N g # # # % z E ..>.4.0.q.q.q.q.q.q.q.q.r.c.C.P.x.) a # # # ",
"# # # # & N 2.q.q.>.l % # # # # 2 B ] >.Q z # # # & M [ 4.8.0.q.q.q.q.q.q.q.q.q.r.c.C.P.x.) a # # # ",
"# # # # & h Q ] K 2 # # # # # # 2 N ' $.W l # # # & N | 8.q.q.q.q.q.q.q.q.q.q.q.r.c.C.P.x.) a # # # ",
"# # # # # % 4 & # # # # # # # # * j B Y m g # # # & N | 8.q.q.q.q.q.q.q.q.q.q.q.r.c.C.P.x.) a # # # ",
"# # # # % % & # # # # & & # # # % 2 f g d * # # # & N | 8.q.q.q.q.q.q.q.q.q.w.r.i.m.A.P.x.) a # # # ",
"# # # # # # # # # % U q.q.q.8.R d # # # # # # # # & N | 8.q.q.q.q.q.q.q.q.w.i.a.n.B.H.P.x.) a # # # ",
"# # # # # # # # d N @.q.q.q.0.[ B m l 2 # # # # # & N | 8.q.q.q.q.q.q.q.q.r.a.N.Z.K.Y.I.x.) a # # # ",
"# # # # # # # # M 3.8.q.q.q.q.7.3.3.+.l # # # # # & m ] 2.0.q.t.t.t.t.t.t.p.v.C.U.Y.L.A.j./ a # # # ",
"# # # # # # # # K q.q.q.q.q.q.q.q.q.8.-.T d # # # % y F } <.t.f.b.b.b.b.b.m.B.J.Y.S.M.i.*.K * # # # ",
"# # # # # # # # K q.q.q.q.q.q.q.q.q.p.V.g.c # # # % < u Z o.p.V.A.A.A.A.A.S.J.Y.U.N.8.J A t % # # # ",
"# # # # # # # # K q.q.q.q.q.q.q.q.q.p.A.h.v # # # # ; o q J y.C.F.F.F.F.F.F.F.G.Z.i.` w 7 1 # # # # ",
"# # # # # # # # K q.q.q.q.q.q.q.w.i.v.D.h.v # # # # @ . 7 D #.r.i.i.i.i.i.i.i.i.r.#.D 7 . $ # # $ # ",
"# # # # # # # # K q.q.q.q.q.q.q.r.m.S.I.h.v # # # # $ @ > r S H G G G G G G G G H S r > $ # # # + # ",
"# # # # # # # # p O.e.d.c.c.c.c.v.S.U.N.*.h # # # # # # $ - o 5 6 6 6 6 6 6 6 6 5 o - $ # # # # $ # ",
"# # # # # # # # , C r.S.H.H.H.H.H.U.V.X.e 1 # # # # # # # @ .                     . @ # # # # # # # ",
"# # # # # # # # @ 8 _ q.q.q.q.q.q.q.:.i = $ # # # # # # # $ + @ O O O O O O O O @ + $ # # # # # # # ",
"# # # # # # # # # $ 8 0 0 0 0 0 0 0 9 : # # # # # # # # # # # % % % % # # # # # # # # # # # # # # # ",
"# # # # # # # # # # + X X X X X X X = $ # # # # # # # # # # # # # # # # # # # # # # # # # # # # # # ",
"# # # # # # # # # # # # # # # # # # # # # # # # # # # # # # # 3 h m N N N b g * # # # # # # # # # # ",
"# # # # # # # # # # # # # # # # # # # # # # # # # # # # # # # h K ' [ [ [ ! N f # # # # # # # # # # ",
"# # # # # # # # # # # # # # # # # # # # # # # # # # # # # # # z ^ 2.0.0.0.>.R h # # # # # # # # # # ",
"# # # # # # # # # 2 g z n n n n n n x h 2 # # # # # # # # # # z ^ 4.q.q.q.>.R h # # # # # # # # # # ",
"# # # # # # # # # f N Q ] ] ] ] ] ] ! B g # # # # # # # # # # z ^ 4.q.q.q.>.R h # # # # # # # # # # ",
"# # # # # # # # # j W >.8.8.8.8.8.8.,.! l # # # # # # # # # # z ^ 4.q.q.q.>.R h # # # # # # # # # # ",
"# # # # # # 2 g l L [ 2.q.q.q.q.q.q.2.^ z # # # # # # # # # # h L [ @.@.@.' B f # # # # # # # # # # ",
"# # # # # # g N Q { >.8.q.q.q.q.q.q.2.^ z # # # # # # # # # # d l B L L L N j 2 # # # # # # # # # # ",
"# # # # # # l Q >.7.8.0.q.q.q.q.q.q.2.^ z # # # # # # # # # # % * 3 4 4 4 2 * % # # # # # # # # # # ",
"# # # # # # z ^ 4.q.q.q.q.q.q.q.q.q.2.^ z # # # # # # # # # # # # # # # # # # # # # # # # # # # # # ",
"# # # # # # z ^ 4.q.q.q.q.q.q.q.q.q.2.^ z # # # # # # # # # # # # # # # # # # # # # # # # # # # # # ",
"# # # # # # z ^ 4.q.q.q.q.q.q.q.q.q.2.^ z # # # # # # # # # # # # # # # # # # # # # # # # # # # # # ",
"# # # # # # j Y @.1.7.0.q.q.q.0.7.1.@.Y j # # # # # # # * d g f 2 % # # # & 3 g h h h g d * # # # # ",
"# # # # # # f b U ' $.7.q.q.q.7.$.' U b f # # # # # # # g m Y B j * # # # 3 z L W W W U b f # # # # ",
"# # # # # # * d g B ] 2.q.q.q.2.] B g d * # # # # # # # l W $.' N 2 # # # g L { >.>.>.@.Y j # # # # ",
"# # # # # # # # # h Y @.1.1.1.@.Y h # # # # # # # # # # z Q >.] B 2 # # # h W >.q.q.q.2.^ z # # # # ",
"# # # # # # # # # f b Y ! ! ! Y b f # # # # # # # # # # g N W K l * # # # h W >.q.q.q.2.^ z # # # # ",
"# # # # # # # # # * f h j j j h f * # # # # # # # # # # 2 f j g 4 % # # # h W >.q.q.q.2.^ z # # # # ",
"# # # # # # # # # # # # # # # # # # # # # # # # # # # # # # # # # # # # # g U @.2.2.2.>.Q l # # # # ",
"# # # # # # # # # # # # # # # # # # # # # # # # # # # # # # # # # # # # # d b Y ^ ^ ^ Q N g # # # # ",
"# # # # # # # # # # # # # # # # # # # # # # # # # # # # # # # # # # # # # * f j z z z l g 2 # # # # ",
"# # # # # # # # # # # # # # # # # # # # # # # # # # # # # # # # # # # # # # # # # # # # # # # # # # ",
"# # # # # # # # # # # # # # # # # # # # # # # # # # # # # # # # # # # # # # # # # # # # # # # # # # "
};
