/* XPM */
static char *floor_blood1678374422[] = {
/* columns rows colors chars-per-pixel */
"64 64 45 1 ",
"  c #1A100F",
". c #1C1211",
"X c #231413",
"o c #2D1615",
"O c #2E1817",
"+ c #241C1B",
"@ c #2B1C1B",
"# c #311615",
"$ c #321917",
"% c #331B1A",
"& c #3A1D1C",
"* c #36201F",
"= c #3A201F",
"- c #252322",
"; c #2A2423",
": c #362524",
"> c #3C2422",
", c #362827",
"< c #3E2827",
"1 c #332C2B",
"2 c #3D2B2A",
"3 c #3E302F",
"4 c #2D3636",
"5 c #2F3838",
"6 c #323636",
"7 c #3D3332",
"8 c #343A3A",
"9 c #3A3E3E",
"0 c #401F1D",
"q c #40201E",
"w c #412524",
"e c #412827",
"r c #412D2C",
"t c #42302F",
"y c #423434",
"u c #443837",
"i c #443C3B",
"p c #493C3C",
"a c #44403F",
"s c #3D4141",
"d c #454545",
"f c #484646",
"g c #484748",
"h c #474848",
"j c #484848",
/* pixels */
"jjggjjjjjjjjdjdjjd9889sdjdd985689sdddsss95888885859sdjjjds955558",
"jjggjjjdjjjjjjdjjddssssdddds98569ddss9s99988985598ssdjddhs854589",
"jhggjjjdjjjdjjjjjjdjjddddjddd9868dd9899s99999989sssddssdss95589s",
"jjggjjjjjjjjjjjjjjjjjjjjjfjjjj958sd99ss999ss999sssdhdddshds999dj",
"jjjjjjjjjjjjjjjjjjjdjjjdjjjjjjs58sjjss99sdjdssdsssddjddhjdjssdjj",
"jjjjjjjjjjjdjjdjjjjjjjjjjjjjfjs69djjd959jjjjhjdjsdddjjjjjjjjjjjj",
"jjjjjjjjjjjjjjjjjjdjjjjjjdjjjjjsshjsssssjjjjjjjjjjjjdjjjjjjjjjdj",
"jjjjjjjjjjjjjjjjjjjjjjjjjjjjjjjjhhss8ssjjjjjjjjjjjjjjjjjjjjjjjdj",
"jjjjjjjjjjjdjjjjjdjjjjjjjjjjjjjjjjjss9sshjjhjjjjjjjjdjjjjjjjjdjj",
"jdjjjjjjjdjjjjjjjjjjjjjjjdjjjjjjjjjjs99sshjjjjjjjjdjjjjjjjjjdjjd",
"djjjjjjjjjjjjdjjjjjjjjdjjjjjjjjjjjjhssssjjjjjjjjjjjjjjjjdjjjjddj",
"jddjjddjjjjjjjjjjjjjjjjjjjjjjjdjjjhs9sshjjjjjjjjjjjjjjjjjjjjjjdj",
"jdjdjjjjjjjjjjjjjjjjjjjjjjjjjjjjjjhs55ssjjjjjjjjjjdjjjjjjjjjjdjd",
"djjjjjjjjjdjjjjjjjjdjjjdjjjdjjjjjjs9559shjjjjjjjjjjjjjdjjjjjjjjj",
"jjdjjjjjjjjjjjjjjjjdjjjjjjjjjjjjjjjs445sjjjjjjjjjjjjjjjjjjjdjjdd",
"ddjdjdjjjjjjjjdjjjjjjjjjjjjjjdjjjjhs55ssjjjjjjjjjjjjjjjdjjjjjjdj",
"jdjdjjjjjjjjjjjjjjjdjhjjjjjjjjjjjjds89djjjjjjjjjjjjjjjjjjddjjdjd",
"djdjjjjjjjjjjgdjjjjjjjjjjdjjjjjjjjjsddjjjjjjjjjjdjjjjjjjjjjjjjjd",
"djjjjjjjjjjjjjjjjjjjjjjjjjjjjjjjjjjjjjjjggjjjjjjdjjjjjjjjjjjjjjd",
"asjdjjjjjjjjjjjjhjjjjjjjjjjjjdjjjjjjjgjjggjjjdjdjjjjjdjjjjjjjjdd",
"9sdjdjjjjjjjjjjjjjjjjjjjjjjjjjhhjjjjjjjjgjjjjjjjjjjjjjjjjjjjjddj",
"89sjjjjjjjjjjjjjdjjjjdjjjjjjjjjhjjjjjjjjgjjjjjjjjjjjjjjjdjjjjddd",
"8ssjjjjjjjjjjjjjhjjjdjjjjjjjjjjjjjjjjjjjjjjjjfjjjjjdjdjjjjjjjddj",
"ssdjjjgjdsdjjjjhjjjjjjjjjjjjjjjjhjjjjjjjjjjjjjjjjjjjjjjjjjjjjjdd",
"addddjgds89dhjjjjjjjjjjjjjjjjjjjjjjjdjjjjjjjjjfjjjjjjjjjjjjjdjdd",
"dsddjjd9999sshjhsdhjjjjjjjjjjjjjjjjjjjjjjjjjjjjjjjjjjjjjjjjjdddd",
"99sdjd99sss9shs99sjjjjjjjjjjjjjjjjjjjdjjjjjjjjjjjjjjjjjjjjdjdddd",
"999djjs9sss9sss99sjjjjjjjjjjjjjjjjjjjjjjjjjjjjjjjdjjjjjjjjjddddd",
"889dffdss9ssss9sddjjjjjjjjjjjjjjjjjjjjhhjjjjjjjjjjjjjjjjjjdddddd",
"888sddds845ss58sjjdssdsdjjjjjjjjjjjjjjjjjjjjjjjjjjjjjjjjjfdddddd",
"888889985559545sjd989559djjjjjjjjjjjjjjjjjjjjjjjjjjjjjjddddaddad",
"9i9866555555559sds555559sjjjjjjjjjjjjjjjjjjjjjfjjjdjddddddss9ass",
"sdsasssssdsdssddghsdssssgjjgs9899999988989898989d999999999989989",
"ddddfjjjjjjjjjjjjjjjjjjjgjjgs85455445555585558585544556689998666",
"ddffjjjjjjjjjjjjjjjjjjjjjjjjd98544445599999d99s964445468999s9886",
"djjjjjjjjjjjjjfjjjjjjjjjjjjjjgds544459djjjjjjjjj954466889sdfd999",
"jjjjjjjjjjjjjjjjjgjjjjgjjggjjjjj9555sdjjjjjjjjjjds9999999djjfdss",
"jjdjjjjjjjjjjjjjjjjjjjjjjgjjjjjjs559djjjjjjjjjjjjjjjdddjdfjfffjd",
"jjjjjjjjjjjjjjjjjjjjgjjjjjjgjjjjd55sjjjjjjjjjjjjjjjjjjjjjjjjjjjj",
"jjjjjdjjjjfjjjdjjjjjjjjgjjjgjjjjd89djjjjjjjjjjjjjjjjjjjjjjjjjfjj",
"djjjjjjjjjjjjjjjjjjdjjhjjjjjjjjjdsssjjjjjjjjjjjjjhhhjjjjjjjjjfjj",
"jjjjjjfjjjfjjjjjjdjjjjjjjjjjjjjjhddjjjjjjjjjjjjjjhhjjjgjjjjjjjjj",
"jjjjjjjjjjjjjjjjjjjjjjjjjjjjjjjjjssjjjjjjjjjjjjjjjjgjgjjjjjjjjjj",
"jjjjjjjjjfjjdjjjjjjjjjjjjjjjjjjjhsssjjjjjjjjjjjjjjjjjjgjjjjjjfjj",
"dsdjfjjjjjjjjjjjjjjjjjjjgjjjjjjjs869hjjjjjjjjjjjhjjjjjgjjjjjjjjf",
"9sdgjjjjjjfjjdjjjjjjdjjjddgdjjjfs558jjjjddfdjjdjjjjjjjjjjjjjjjjj",
"9sjgjgjjjjfdaaadaaiiut32reewtpffs889adappiuiuiiipdjdjjjjdjjjdjjj",
"ssjjjjgjjfafappaaiuu3e>=&&&0wpdddsaiaapppyuyyyyyidjjjjjjjjjjjjjj",
"sjjjjjjjjfiapiiii9y72<<:=>&&>7aiiip99uypyyy3t3737addfffjjjjjjjjj",
"sshjjjayt<::***%&%$$$%%%$%@%%***%%&&$&>>><<=*****>=>typdffjjjjjj",
"99sjjji33<***%%#OOoooOOO$@$@@%%$#%#O#$*=>>:&%%%*&&==ttijjjjjjjjj",
"8sjjff92<:&&%%%&&&$#%%%%%%%&%%%%%%%##&&*==**%%%**=&w<etpaajjjjjd",
"9sjjap2&%&$%%%%&&&>>:&:&:&&*%%%%%#%%O%%%&&%##&&&&&&&%&=q<ijjjjjj",
"9hjdai2##%$$$%$&&&>=>>=::**:*%$%O%%O%OO%#@#%#&&&&&&&$&&0=ajjjjjj",
"shjjda3=*&$$%$$&&&&&&&*&%&%%%$$$@OO#%%$%$%%%#%#&$&%&$$=wepjjjjjd",
"ssjjjjye<&$$$$$##$$$$o$#$$O%$@%OOOOO#%%$%$%OOOOO######=rtphjjjjj",
"gjjjjgu<>=&$$O$$O#####O#%O%#%@OoXXXO#$%%$$$###OOo###o#:tyajjjjjj",
"jjjjjgu<<*$$$$%%%&====&&%O%%%OoX. Xo%&&&&$&&%=&==:<<33uapdjhjjjj",
"jjjjjju>:%OoOOO%&*>e>w>=%#%###O.  Xo$0q000&&&&qqeypajjjjjhjjhhjj",
"jjjjjj922::%%$$:=:eeeee=%=%%%OOXXXo@&qqqq00=0qqeepifjjhjjhjjhhjd",
"jgjjjdddap9y733223ttttt<w===@@++;,2<etypiuyiuiuipadddjjjjjjjjjdd",
"jjjdddddjffddddiipyytytte<<:*@+-1upppafjhhjhjjjjjjjjjjjjjjjjjd99",
"jjjdss9djjgddddiaip737yt2,<<,-+-6ippppdfdghhsddssdjdjjjjjjhjjd95",
"jjjhs9sdjjdgdggddda988a9878974448sdddddddddsss99sdjjjjjjjjhhhs98"
};
