/* XPM */
static char *floor1678374422[] = {
/* columns rows colors chars-per-pixel */
"64 64 38 1 ",
"  c #253131",
". c #273232",
"X c #283333",
"o c #293333",
"O c #293434",
"+ c #2C3636",
"@ c #2E3737",
"# c #2F3838",
"$ c #303737",
"% c #323838",
"& c #333838",
"* c #343A3A",
"= c #373B3C",
"- c #353C3C",
"; c #363C3C",
": c #373C3C",
"> c #3A3C3C",
", c #3A3E3E",
"< c #3D3F3F",
"1 c #3B4040",
"2 c #3C4040",
"3 c #3E4040",
"4 c #3F4040",
"5 c #3E4242",
"6 c #3F4242",
"7 c #404242",
"8 c #434343",
"9 c #424444",
"0 c #434444",
"q c #444444",
"w c #444646",
"e c gray28",
"r c #484747",
"t c #484748",
"y c #474848",
"u c #484848",
"i c gray29",
"p c #4C4B4B",
/* pixels */
"uuuuuuuuuuueeeerue3,%;30ye7,%%%%130y0031;%%%;%%%%%;30yue03;###%;",
"uuuuuuuuuuuuuueuuu033370ee73,%#%;eu31,,<,;;;;;;%;;130eeey7;++#*,",
"uuuuuuuuuuuuuuuuuuuuueeeeeur01;%;00;%;3331,,,;;;1660y73703;##%33",
"uuuuuuuuuuuuuuuuuuuuyueeerury01#%0y1,13,;133,1,3360yy7e00033;10y",
"uuuuuuuuuuuuuuuuuuuuuuuuuuuupu3%%3yy311;,7ye337e660yeeeeeee00yee",
"uuuuuuuuuuuuuuuuuuuuuuuuuuuuuu3%;0uy01;,euuuyeeu00yyeyuuyyeuyyee",
"uuuuuuuuuuuuuuuuuuuuuuuuuuuuuue33yy03;10uppuuuuuyyyuyuuuuuuuuuee",
"uuuuuuuuuuuuuuuuuuuuuuuuuuuuuuueyyy1;13ypuuuuuuuyyyyyuuuuuuuuuee",
"uuuuuuuuuuuuuuuuuuuuuuuuuuuuuuuupuy01;1eyyyyuuuuuuuuuuuuuuuuueee",
"eeuuuuuuuuuuuuuuuuuuuuuuuuuuuuupyyuy01;3yyuuuuuuuuuuuuuuuuuuueee",
"eeeuuuuuuuuuuuuuuuuuuuuuuuuuuuuuuuyy3116uupyuuuuuuuuuuuuuuuuueee",
"eeeeuuuuuuuuuuuuuuuuuuuuuuuuuuuuuuy1;160uuuyuuuuuuuuuuuuuuuuueee",
"eeeeuuuuuuuuuuuuuuuuuuuuuuuuuuuuppe;#;10uuuuuuuuuuuuuuuuuuuuueee",
"eeeeuuuuuuuuuuuuuuuuuuuuuuuuuuuuuuu*++;3uuuuuuuuuuuuuuuuuuuuueee",
"eeeeuuuuuuuuuuuuuuuuuuuuuuuuuuuupp0,++%3yuuuuuuuuuuuuuuuuuuueeee",
"eeeeuuuuuuuuuuuuuuuuuuuuuuuuuuuuupy;#%10uupuuuuuuuuuuuuuuuuueeee",
"eeeeeuuuuuuuuuuuuuuuuuuuuuuuuuuupu01=,epuuuuuuuuuuuuuuuuuuuuueee",
"eeeeruuuuuuuuuuuuuuuuuuuuuuuuuuuuuy03euupuuuuuuuuuuuuuuuuuuuueee",
"eereuuuuuuuuuuuuuuuuuuuuuuuuuuuuyuuyuuupuuuuuuuuuuuuuuuuuuuueeee",
"77eeuuuuuuuuuuuuuuuuuuuuuuuuuuuuuuypuuuuuuuuuuuuuuuuuuuuuuuueeee",
",30euuuuuuuuuuuuuuuuuuuuuuuuuuuuuuuuuuuuuuuuuuuuuuuuuuuuuuuueeee",
"*,0euuuuuupuuuuuuuuuuuuuuuuuuuuuuuuuuuuuuuuuuuuuuuuuuuuuuuuueeee",
"*<7euuuuuyuuuuyuuuuuuuuuuuuuuuuuuuuuuuuuuuuuuuuuuuuuuuuuuuruee7e",
"<7eeuupu030upuyppuuuuuuuuuuuuuuuuuuuuuuuuuuuuuuuuuuuuuuuuureeeee",
"777ueyye1,,7upyuuyuuuuuuuuuuuuuuuuuuuuuuuuuuuuuuuuuuuuuuuuuueee7",
"7e7ree03,;;30yy000yuuuuuuuuuuuuuuuuuuuuuuuuuuuuuuuuuuuuuuuueeeee",
"<<7rye3;331,1y01;3yuuuuuuuuuuuuuuuuuuuuuuuuuuuuuuuuuuuuuuuueer7u",
"*,37ye111331163;;0upuppyuuuuuuuuuuuuuuuuuuuuuuuuuuuuuuuuuueee8r8",
"*>,7rry3111331;10yyupuyyuuuuuuuuuuuuuuuuuuuuuuuuuuuuuuuurrrr7u8r",
"**><7r03;#-31##3yy003060yuuuupuuuupuuuuppuuuupuupuuuuuuurr7re7r8",
"****,,*;#@#-#@#0y0;%%%;10yuuuuuupuuuuuupuuuupuuuuupuuuurrr888788",
"<<>*$$%##%%###;0y3;#%##;0ypuuyyyuueuuyyyeytrruerpeeteeer77444777",
"737333330303330uy0033330yyuy<,*,,,<,,,*,;;,;;;,,3,;,<,,,,,,>*>>*",
"eyyuyuuuyuyuuuuuuuyyyuuuypuu3%+#+%+++$+$%%+%%%%%;#+++$$%>>>>***$",
"eeuuuuupuuuppyuuuupyuupuuuuue,*++o+++%,<1,11113,%%.o+%$%*,<<,,&&",
"eeuuuupuuuuuypuuuuuupuuuuuuyyy3*#+++%,euyeyuyyye3*++$***><rr7<>$",
"eerruuuuuuuuuuuuuuuuuuuuuuuuupr3;##%1yyppuppuppue1,,,,<,37tuu001",
"eeuruuuuuuuuuuuuuuuuuuuuuuuuuppr3%#10ypuupuuuupueeeee07eeerureee",
"uuuuuuuuuuuuuuuuuuuuuuuuuuuuruppe%#3ypuuuuuuuuuuyuppeuuuuuuuuuuu",
"uuuuuuuuuuuuuuuuuuuuuuuuuuuurrpp3;%3ypuuuuuuuuuuyuuuruupuuuuuuup",
"uuuuuuuuuuuuuuuuuuuuuuuuuuuuuupuy310uuuuuuuuuuuuuuuuuuuuuuuuuuuu",
"uuuuuuuuuuuuuuuuuuuuuuuuuuuuuuuuy0wyuuuuuuuuuuuuuuuuuuuuuuuuuuuu",
"uuuuuuuuuuuuuuuuuuuuuuuuuuuuuuuuy00yyuuuuuuuuuuuuuuuuuuuuuuuuuup",
"uuuuuuuuuuuuuuuuuuuuuuuuuuuuuuup0116ypuuuuuuuuuuuuuuuuuuuuuuuurr",
"00euuuuuuuuuuuuuuuuuuuuuuuuuuupu0%%1yyuuuuuuuuuuuuuuuuuuuuuuuuuu",
"130upuuuuuuuuuuuuuuuuuuuuuuuurrp6%#1yypuuuuuuuuuuuuuuuuuuuuuuuuu",
";3eruuuuuuuuuuuuuuuuuuuuuuuuuupu0;;3yuuuuuuuuuuuuuuuuuuuuuuuuuuu",
"10uuuuuuuuuuuuuuuuuuuuuuuuuuuuuuy66yyuuuuuuuuuuuuuuuuuuuuuuuuuuu",
"3yyyuuuuuuuuuuuuuuuuuuuuuuuuuuuuuuuuuuuuuuuuuuuuuuuuuuuuuuuuuuuu",
"33yypuuuuuuuuuuuuuuuuuuuuuuuuuuupuuuuuuuuuuuuuuuuuuuuuuuuuuuuuur",
";10yuuuuuuuuuuuuuuuuuuuuuuuuuuuruuuuuuuuuuuuuuuuuuuuuuuuuuuuuuur",
",,yyuuuuuuuuuuuuuuuuuuuuuuuuuuuuuuuuuuuuuuuuuuuuuuuuuuuuuuuuuuue",
"*7yuuuuuuuuuuuuuuuuuuuuuuuuuuuupuupruuuuuuuuuuuuuuuuuuuuuuuuuuuu",
"10puuuuuuuuuuuuuuuuuuuuuuuuuuuuupupruuuuuuuuuuuuuuuuuuuuuuuuuuuu",
"10uuuuuuuuuuuuuuuuuuuuuuuuuuuuuuuyrruuuuuuuuuuuuuuuuuuuuuuuuuuuu",
"30uuuuuuuuuuuuuuuuuuuuuuuuuuuuu0030euuuuuuuuuuuuuuuuuuuuuuuuuuuu",
"euuuuuuuuuuuuuuuuuuuuuuuuuupyye;%#;3yuuuuuuuuuuuuuuuuuuuuuuuuuuu",
"euuuuuuuuuuuuuuuuuuuuuuuuuuupp3%..#1yuuuuuuuuuuuuuuuuuuuuuuuuuuu",
"uuuuuuyuuuuuuuuuuuuuuuuuuuyupy3%.o+1uppuuuuuuuuuuuuuuuuuuuuuuuue",
"uuuuuuyyuuuuuuuuuuuupuuupuypy01#++,7uuuuuuuuuuuuuuuuuuuuuuuuuyee",
"uuuuyyyyuuueuuuuuuuuuuyyyyuu01#+%10ruuuuuuuuyyyyuyuuuuuuuuuuuee7",
"uuue000yuueeuyuuuuuuyyuyyyuu3%++;0upuuuureuueeeeyeuuuuuuuuuuue3,",
"uuue3130uuueeeyuyyy313y0730y3#++,7uueeuueeyu003000euuuuuuuyue7;%",
"uuye313euuueeeeuyy03;1331;30<$++*eeeeeee0e033,1130euuuuuuuyyye;;"
};
