/* XPM */
static char *player_atk_11678373085[] = {
/* columns rows colors chars-per-pixel */
"64 64 138 2 ",
"   c #050305",
".  c #080507",
"X  c #0B050C",
"o  c #12070F",
"O  c #0E0B11",
"+  c #110711",
"@  c #140B13",
"#  c #190E14",
"$  c #160A19",
"%  c #1C0E1B",
"&  c #151215",
"*  c #1C1117",
"=  c #161219",
"-  c #1C141A",
";  c #1D191D",
":  c #21151B",
">  c #231A1E",
",  c #281B1F",
"<  c #1F201F",
"1  c #1F1E23",
"2  c #241C21",
"3  c #2A1E22",
"4  c #301F24",
"5  c #242224",
"6  c #2C2225",
"7  c #262629",
"8  c #2A2629",
"9  c #272929",
"0  c #2C2C2D",
"q  c #322326",
"w  c #342925",
"e  c #332628",
"r  c #342B2D",
"t  c #3A2C2D",
"y  c #2F302F",
"u  c #303520",
"i  c #3F322E",
"p  c #2E2E31",
"a  c #3E2133",
"s  c #312F31",
"d  c #3C2D30",
"f  c #2E3334",
"g  c #333434",
"h  c #3D3233",
"j  c #353837",
"k  c #3F3B30",
"l  c #363738",
"z  c #383738",
"x  c #353A3A",
"c  c #3B3D3D",
"v  c #402F2F",
"b  c #41312F",
"n  c #412F30",
"m  c #423535",
"M  c #483635",
"N  c #443837",
"B  c #4B3937",
"V  c #4B3739",
"C  c #463A39",
"Z  c #4B3D3B",
"A  c #523E3B",
"S  c #3F403F",
"D  c #4A552F",
"F  c #4E403E",
"G  c #53413E",
"H  c #59433F",
"J  c #584D3E",
"K  c #58782B",
"L  c #637A32",
"P  c #3F3F40",
"I  c #4D3C41",
"U  c #3E4141",
"Y  c #444545",
"T  c #4A4645",
"R  c #474847",
"E  c #474848",
"W  c #484848",
"Q  c #544441",
"!  c #594643",
"~  c #574945",
"^  c #5D4A46",
"/  c #5D424B",
"(  c #5F4C48",
")  c #614B46",
"_  c #634E49",
"`  c #694F4C",
"'  c #66514C",
"]  c #6B534E",
"[  c #6E584F",
"{  c #70554F",
"}  c #6E4854",
"|  c #71465B",
" . c #75495C",
".. c #6E5650",
"X. c #6E5952",
"o. c #715751",
"O. c #745A54",
"+. c #795E56",
"@. c #775658",
"#. c #7C5E58",
"$. c #677341",
"%. c #697042",
"&. c #776056",
"*. c #796156",
"=. c #7D6159",
"-. c #82645C",
";. c #84695E",
":. c #857F54",
">. c #896564",
",. c #856D61",
"<. c #8B6D62",
"1. c #8D7265",
"2. c #917367",
"3. c #937668",
"4. c #95796B",
"5. c #9A7C6E",
"6. c #9E7E70",
"7. c #8A8856",
"8. c #8CBF43",
"9. c #9ABD4E",
"0. c #92AA52",
"q. c #9AA857",
"w. c #9D806F",
"e. c #9E8171",
"r. c #A38574",
"t. c #A68877",
"y. c #A88A77",
"u. c #A68A78",
"i. c #AB8D7A",
"p. c #AE907D",
"a. c #B1927E",
"s. c #B59581",
"d. c #B79883",
"f. c #BA9A85",
"g. c #BE9F89",
"h. c #C4A48C",
"j. c #CCAA91",
"k. c #D8B69A",
/* pixels */
"W W W W W W W W Y W W W Y Y W W R Y P x j x P U E Y U c x x x x x U Y E Y E U U x x x x x x f S f f U U U E W E E U f f f f x U ",
"W W E W W W Y W Y W Y W W W Y W R Y U x x x U Y Y R U P x x x x U U Y Y U U U U U x x x x x U f f U U U E E E E E U U f f x x x ",
"R W W W W W Y E W W W W Y E Y T R Y U P U U U U Y Y U U c x j j x U U U S U P P U x U x U x x f U U U U E U U E U U U S x x U U ",
"W W W R Y W W W W Y Y Y E Y Y Y Y Y Y Y Y U E Y Y U Y Y U c x x x U U U x x U x U x U x x U U P U U U U E U U U E U U U x U U U ",
"W W W W Y W E Y Y E Y Y Y Y Y Y Y Y Y Y Y U U Y I U Y U Y c c c c U U x x U c P P U x U c P U c U U E E E E E U E E U U U U E E ",
"E W W Y Y E E T Y Y Y Y Y Y U I Y U U Y U U F S U U U C U U c z c c U P U x U x c U U U U U U S U U U E E E E U E W W E U U E E ",
"R R R W W Y W Y Y Y Y Y Y Y U Y U U c Y U U S S S U S c c c c c c c U c c c x U U U U U U Y U U U U U E E E E E E E E E E E E E ",
"R R Y W E Y Y Y Y Y Y U Y Y U U U F c c Y c S S c c c Y Y c c c c c c U c c c S C c Y S Y U Y Y U U U E E E E E E E E E E E E E ",
"R R E Y E Y Y Y U U U U Y c c c c x c c c c N S c N c c c C c c c c c c c c c c U U U Y F U U U I Y Y Y Y Y Y E E E E E E E E E ",
"R E E E Y U Y Y U Y P P c c c x c z z c c c c c c c c c c c c c c c z c z c c S C U Y c c Y U Y U Y Y Y Y Y E Y E E E E E E E E ",
"R R Y Y Y Y U Y U P c x x j j j x j x c c c c c c c c c c z c c c c c c c x z c Y c c c S U U U U U Y U Y Y E Y E E E E E E E E ",
"Y R Y Y Y U U U P c x j j j f f g j x z z z z z c c c z x c z c z z c z z c z x z z c c S S S U Y U Y Y Y Y Y Y U E E E E E E E ",
"E Y Y Y U U P U x j j g f f f f f f g j z z z l z x z j x l l x j j x z x z z g x z c j z S c C S c U Y I U E E Y Y R R E E E Y ",
"E E E Y Y P x x x j f 7 7 7 7 5 7 5 1 9 r g z l r r r r r r r e 8 6 6 8 6 0 8 r T ^ h 5 7 r g g 0 7 7 7 0 g P U R Y Y R E Y E Y ",
"E E Y Y U U x x j f 8 2 2 ; ; ; ; 6 r 2 & ; f g > 6 h i d r e r i h d d i r e Z ;.r.[ r 2 = @ : 8 r d r 3 = 2 P R Y R Y Y R Y E ",
"Y Y Y Y Y U U P f 1 5 e e e e 5 6 _ <.) & O 0 9 * r Q F F Z C Q ..X...X.] Q Q O.r.h.a.;.[ 6   * A &.=.,.O.3 X 8 P R Y Y R R Y R ",
"Y W Y Y Y U Y P 8 2 t Z Z ~ ^ C ^ 2.g.p...H N 1 2 m Z N N Q ! _ -.-.-.-.;..._ ] *.3.a.j.h.;., * ) 5.y.d.h.1.t - 8 c Y Y R Y Y R ",
"Y W Y Y Y U c p 6 t Z F ^ O._ Z O.<.5.s.d.a.' * s Z F ! ^ ..+.+.-.;.2.2.<.<...! O.#.3.p.g.g.(   m ,.2.5.a.y.,.A : s R R Y R R Y ",
"E E Y Y R Y s 2 t Z Z F ] =.' F ] O.o.2.h.k.*.& r Z G _ ] #.=.-.-.@.` ] o.] A r ! +.=.=.1.p.;.- 6 ! @.+.#.X.4.2.: 8 R R Y Y Y T ",
"I U U Y R E 8 * m T N Q O.=.O.' ^ ] o.=.a.h.[ @ d Z Z Q ^ X.;.;.+.V q q e e 3 : q ! O.O.#.;.3.' > t ] { T k =.i.: 8 R R Y Y Y R ",
"x c P Y Y R 8 # m F m G O.-.-.#._ ! _ #.3.5.G * A ` ^ G C ' <.=.V 3 > : : e n v t t H #.#.O.r.6.* ; ~ ~ h N 1.r.: 7 Y E Y Y Y Y ",
"x x c U R R 8 * h F N Q #.-.#...^ C Q O.#.O.v : ` ;.#.] ! _ ] A 4 q N V A ) @.O.{ M v H _ o.r.a.G 3 i C Z _ 6.w.% 8 Y T R Y T Y ",
"x c c Y Y Y 8 : N Q N G ] O.! C A Z G ] -.<.M @ _ ;.-.;.#.( t : 8 N / |  .-.;.;.;.} a 3 m ' 1.g.r.m ; m ] -.a.p.: 8 Y Y E Y Y Y ",
"U U P Y T Y 8 : m F C Z G Q C m ^ ] ! ) 4.a.^ * ^ -.#.=.=.^ : @ m Z ) ;.-.+.@.@.-.<.A : N ~ &.h.j.B @ M #.4.h.5.3 8 Y Y Y Y Y Y ",
"U U Y Y Y U z 5 q m Z C C Q ( _ O.#.` O.u.1.Z B o.*.#.O.' T 3 * m V %.9.9.:.@.@.-.q.L w ! H ' h.h.V # B =.y.r.G e g U E Y Y Y Y ",
"U Y Y U U U Y g # t ~ Z C ! O.;.;.+.;.i.d.G 6 *.-.+.*.] Q C q * d I $.8.8.7.>.>.1.0.K w Q _ =.h.f.m # C 1.h.=.@ p Y U U Y Y Y Y ",
"P U P U U U Y c : 8 m N Z ~ X.=.=.<.4.r.1.b d ;.=.+.-.] F C 6 : h m h D D J ..} ` ( u # t _ <.s.d.B - C O.3.! = j Y U I Y Y Y Y ",
"x x c c P F U c p 3 3 e m C Z Z Q ,.;.V t B ` =.#.#.#.] Z C q : m d - $ % 3 6 6 4 : @ + : ! ;.5.a.Z - t i M h p c P Y Y Y Y Y E ",
"j x x U U c c c z 0 5 5 6 q 3 : > Z V 2 > C o.#.#.+.-.] Q C 6 * C Q 6 % a V , @ e : , 4 : B #.<.p.A @ , 5 7 s z S U I U Y Y Y Y ",
"x x x x c c c c z l g 0 5 * : > > 3 5 h C C ) -.-.#.*.#.' Q 3 # C ' B i { ;.H M ] ! ) ) , M +.1.a.G @ ; 9 f g z S S U Y Y Y Y Y ",
"x x x c c x P c z x l l 0 - > m m r h ^ O.! Q ] ] O.O.{ ] ~ e ; r ! ~ ^ =.1.-.#.;.-.{ A q H O.,.p.G @ 7 f j x x c U Y Y Y Y Y Y ",
"U U U x c c c x c x l j g ; 6 Q G Z ^ O.-.O.^ C Z ] ] G G Z h e > r C F F G ! Q G G m t ! O.~ ' u.Q = 9 f l j x c c c U c U U P ",
"U Y U U Y U S S c z z c l > 4 T Z C ) *.*.#.O.! ^ ..O.! N h N m q > : 2 : - : : - * 6 H #.] h ~ r.! = 0 f j z z c S c c c x x x ",
"Y Y Y C c U c c c c c z l : 3 Z Z m ^ *.#.#.+.O.O.O.#...^ Q ( ^ h 3 - - - ; - = = 6 H #.O.^ C ..y.G = 0 z x c x c S c c x j j x ",
"Y Y Y Y Y c U S c c c z g : 3 Z Z N ! +.#.O.#.#.#.#.#.*.O.O.O.o.^ Z C C C C C C Z ! ....G ^ ` ;.i.G = f z c c c U Y Y U U x x x ",
"Y R Y Y Y R U U S F c S j > 3 G I k ! #.#.+.O.#.#.#.=.=.=.=.-.-.O.O.O.O.O.O.#.=.O.' Q Z C _ #.3.f.G = g c l g l x l g p f x U x ",
"Y Y Y Y Y c U I x j f x l 2 5 Z Z N ^ +.-.+.O.O.O.*.#.#.#.=.=.=.=.=.=.-.-.#.*.-.=.^ h C ! { ;.a.f.G ; g x 8 > 2 2 ; ; - 1 f P U ",
"Y R E P r 5 5 5 ; = = 5 g 0 6 t Z I T ' *.#.+.#.*.o.^ ! ^ O.O.^ ^ ! ] *.#.] ^ _ ^ Z Z ( ] { 3.a.*.t 8 g 8 5 8 3 3 Z ' ' Q r p E ",
"E W Y 0 2 3 ; , m N m e 5 p r 5 t Z Z G ] *.-.=.O.Z N F Q ) Q m Z Q _ O.#.) G Q Q Z G O.<.2.a.p.q ; g 0 q t N h F ;.y.f.u.' r p ",
"E Y s 3 t m r G 1.y.t.;.t 5 g 0 , r C Z Q ] =.O.G N Q O...! N C ' o...#.O.O.o.O...G m _ w.f.h.1., 1 0 6 d C C Q X.=.5.f.h.s._ = ",
"Y s 3 d N C Q O.3.a.h.f.<.i 8 y & # r C Z G ^ Q N ! O.-.=..._ ] #.*.#.#.#.=.=.;.-.! h C O.p.5.m 8 l 0 2 h Z Q ..#.#.#.3.s.h.*.@ ",
"Y 5 2 N Z ! ..#.*.1.i.h.a.V 5 f - * 6 6 6 m Z N N ~ ' ..#.-.=.#.#.#.#.#.=.] _ ] #.^ m r 6 A F 5 g c 8 : m ^ O.#.#.O.{ +.4.d.O.o ",
"Y 3 2 m Z ] #.O.@.{ <.i.a.Z - 8 6 t h > : 6 r N N N m Z ) ] O.*.*.#.#.O.] Z h Z _ ) m r r , : g c c 8 : h _ O.#.#.O.O.] *.t.O.@ ",
"Y 3 3 m Z ] =.#.O.{ O.2.u.B X , h Z N h h e r Z F Z C C I Q _ O.o.O.#.] ~ C N N Q ] A Z &.i = l c c 6 : b T ' =.#.#.o.{ ;.p.*.o ",
"Y 5 , m F ' =.#.O.{ { <.t.A   : N F Z Q _ ^ ) ] ..] _ ] _ _ O.o.^ ] ] ^ ) ] ' ' ] O.` #.e.B - l S z 8 , i Z ( =.=.O.#.<.y.a.O.* ",
"c 2 , C Z ~ ] #.+.O.-.y.a.Z . > m Z G ] O.] ] -.-.*.#.#.#.#.#.O.] O.) F ] =.#.#.#.O.O.2.y.B ; j S c j 8 6 h Q ' ' ( *.i.d.;.N r ",
"x 0 3 t Z Z ! *.4.5.p.d.;.m @ : h Z ^ *.-._ ^ _ ] #.-.-.-.-.O._ ^ ) ! ! O.=.#.#.O.{ ] <.r.M ; j c c c z 6 6 q r q 6 B *.+.m g Y ",
"U c p 2 t h t Q 3.r.t.;.m 0 1 : m Z ! O.#.+._ C C _ O.O.o.o._ Z Z F ( O.O.*.#.O.#.#.=.4.i.B - l c c c Y c 6 : - - - : , 3 g Y Y ",
"E U P p 2 * # * e t e t s z 2 ; m Z Z ^ O.=.O.) N C Q T I G ^ ] ' ' ] #.#.*.O.O.#.3.t.a.y.B ; j F S S U U c z z c c z z c I E U ",
"U U U c g 0 s r r 8 8 p c c 5 * m F N F O.=.-...C d Z ^ ( ^ ' *.#.#.#.#.=.=.] ^ ..<.y.t.] r 0 c U U U U U Y Y R Y Y Y E W W E E ",
"x U U E E E Y E Y Y P P Y c p 2 r N C Q o.-.=.O.! G ^ ] O.*.*.=.*.-.=.#.] ] G Z ] #.4.1.r 5 c c C c Y c U Y Y Y Y T E E E E U E ",
"x x U E E E E E Y Y Y Y P c z 0 : r Z Q ' ..O.#.O.#.o._ O.+.+.O.O.O.#.] Q C C Q ] o.4.1.6 2 c c U c Y Y C Y Y Y R Y E Y Y E Y E ",
"x x U E E E E E R Y Y Y U z c f # q Z Z F H ] *.=.=.@._ ! G Q G G G G A C N Q { O.O.5.3.e 5 c c c U U Y Y Y Y Y T Y Y W E E E R ",
"x x U U W E E E R R Y U P c z g * : t C Z ! ] -.-.G v e 3 > , , , 3 2 e m C ( *.-.2.a.4.w > g g z c U Y Y Y Y Y Y E W Y E Y Y R ",
"x U U E W W W E Y R Y U F z z l 5 @ 3 Z F ( *.1.;.v + ; > : ; ; ; 2 ; : e N ~ O.5.f.a._ : > r y l c F U Y Y R R E E W E W Y E E ",
"U U U U W W W W R Y U S S j s g g 2 , h m h G o.] e * 5 0 0 y 0 0 0 g 5 : q t Z 3.y.` * & 5 y y l z S U Y Y Y R Y E W Y W E E Y ",
"E Y E Y E E R R R R E U c l g 0 y 9 5 * : * ; , 3 ; < 5 5 y 0 0 0 y y 9 < , * * 3 q : & ; 0 y y x c U Y Y Y R E W W W Y W E Y W ",
"W W W W W E Y R R Y U U c z l g 9 9 5 ; ; ; - & & ; < 5 5 5 5 9 0 0 0 0 0 5 ; ; & & - < 5 y y y z c P Y R R R E E T W Y W T E E ",
"W W W W W W E E R R Y U S x z z f 0 0 5 0 0 9 < < < < 5 u 8 9 9 y 0 0 g s 0 y 0 9 9 0 y 0 y s y z c I U Y E E E E E E W W W Y W ",
"W W W W E W E E R R Y I U F Y Y F z g f y y y y 0 9 0 0 0 0 0 0 g g j g y y y y g s g g y y j c c Y Y Y R R E E Y W W W W W W Y ",
"W W W W E E E E E W Y Y Y Y Y Y I U x x l x j f y y y j g r f g x c z x j y y j l l l z z c c c Y Y Y Y E E E E E E E E W E Y I ",
"W W W E E U U E W W W E Y R Y Y Y Y U U c x c j S S c z l l z z c C c c z z z c c z z c c x c c c Y R R E E E E E E E E W Y P P ",
"W W W Y U U P Y W W E Y R R R R R Y U c c c S S S S S S c c x P c U S S S S F S U Y U c x x x x c P Y R W W E E W W E E U U x x ",
"W W W Y U x P Y W W E Y R R R R R R U U c Y U S S F S S c S U c P F c S S S S S Y U U U c x x x x Y Y R E W E E W W E E E U P f "
};
