/* XPM */
static char *player_d_21678373083[] = {
/* columns rows colors chars-per-pixel */
"64 64 118 2 ",
"   c #0C030C",
".  c #150B14",
"X  c #190F16",
"o  c #1D091C",
"O  c #151116",
"+  c #1B1117",
"@  c #161118",
"#  c #1D151A",
"$  c #1E1A1D",
"%  c #21161B",
"&  c #241A1E",
"*  c #2D2C1F",
"=  c #1F1E22",
"-  c #251D21",
";  c #2A1E22",
":  c #252325",
">  c #2C2225",
",  c #272629",
"<  c #2C2629",
"1  c #272828",
"2  c #2D2C2C",
"3  c #322426",
"4  c #332629",
"5  c #39262B",
"6  c #342B2C",
"7  c #3A2D2E",
"8  c #2F302F",
"9  c #34302F",
"0  c #3B3B2D",
"q  c #2E2E30",
"w  c #322E31",
"e  c #3B2E30",
"r  c #2E3434",
"t  c #343434",
"y  c #3C3333",
"u  c #343738",
"i  c #3A3638",
"p  c #343A3A",
"a  c #3C3C3C",
"s  c #402F2F",
"d  c #41302F",
"f  c #412F30",
"g  c #433535",
"h  c #493736",
"j  c #463837",
"k  c #4A3937",
"l  c #443B3A",
"z  c #4B3D3B",
"x  c #513E3C",
"c  c #3E403F",
"v  c #42442B",
"b  c #4D562C",
"n  c #40403F",
"m  c #4E403E",
"M  c #52413E",
"N  c #59423F",
"B  c #5A4B3F",
"V  c #595E35",
"C  c #57513A",
"Z  c #403F40",
"A  c #553E41",
"S  c #3E4141",
"D  c #454545",
"F  c #494646",
"G  c #474847",
"H  c #484847",
"J  c #474848",
"K  c #484848",
"L  c #544441",
"P  c #594643",
"I  c #544943",
"U  c #5C4946",
"Y  c #5D4D49",
"T  c #5E524C",
"R  c #614B46",
"E  c #634D49",
"W  c #684F4A",
"Q  c #645F45",
"!  c #66514B",
"~  c #6B534E",
"^  c #6A5A4D",
"/  c #6E5650",
"(  c #645A54",
")  c #6D5A52",
"_  c #705751",
"`  c #745A54",
"'  c #795E56",
"]  c #785759",
"[  c #7B5E58",
"{  c #756B4F",
"}  c #7B6456",
"|  c #7D6159",
" . c #7F695E",
".. c #7E6E62",
"X. c #81645C",
"o. c #83695D",
"O. c #827356",
"+. c #877E57",
"@. c #866C61",
"#. c #8A6D62",
"$. c #8D7265",
"%. c #927367",
"&. c #947769",
"*. c #95796B",
"=. c #9A7D6E",
"-. c #9C7F70",
";. c #768145",
":. c #868453",
">. c #9E8171",
",. c #A48675",
"<. c #A68977",
"1. c #AB8C7A",
"2. c #B2937F",
"3. c #B79984",
"4. c #B99A84",
"5. c #BF9F89",
"6. c #C2A28B",
"7. c #C8A78F",
/* pixels */
"K K K J J J J J F J J J F J J F F D c p r p p D J D S a p p p p p S F F D F H D i r p p p p p p r r c c J J J J J S c r r r S r ",
"K K K K J J J F J D D J J D J F J D S p p p c D J J S c p p p p p D F n D ( ..@.T u r p p p p p c p c S D J D D J S S r r r p S ",
"J J J J J J J J J J F J J D D J J D D a S S S S D D D c a p p p p D a y I  .,.,.o.M a p S S c c S S S S D S S S S S S r r S S S ",
"J J J J J J F J D J F D D D D D D D F D J D D D D Z D S S p p p S D y g ! X.#.$.$.` F a S S D S S S S S J J S S J S S c p S S S ",
"H H J J J F J J D F G F J F Z Z D Z F D n D D D D S D Z D a a p a l g z ! [ ` | %.$.T S D H G D J S J J D D D D J S S S S S S ( ",
"H J F J F J D D D F F F F Z Z g 0 0 7 > < y y l Z S S Z D a a a l a e g U ` ` ' @. .Y D D G G D S J D D D D D D J J J J S S S S ",
"J J F F J D J D D D D j x x A U V b * . % s h y Z D a D l S a a S a w 4 j Y W R ~ T F D D F F D J J S J J D D G J S S J J J S ( ",
"J F J F F D D D D D y 5 k R W X.:.;.v o 3 x R g l S S a S a a a a a a w 4 g z g g j D D D D D D J J J J D D D J J J J S S J S S ",
"J J J D D D D D S F t 3 N ' X.X.o.+.C & 5 W _ M t i c a l n D S D a l i 6 t g i a l F F D D D D D D D D D D D D J S J S J J D J ",
"G D J J D D D D D F y 4 W X.| ] X.X.N % 5 W ` z < t n a S D F F D D D n i a D l D D F D D D F D D D D D D D D D J J J S J J D D ",
"F D D D D S D S S D 7 3 R ' ' ' [ ] k & s ~ ~ y & 2 i w t t i a l D D D D l l D D D D D D F D D D D D D D D D D S S J J D D J D ",
"J J J D D S S S c a 2 3 R ] ' } [ _ k 5 N ` E 3 # 3 e > & & > < 2 i D G D D D D D D D D D D D D D D F D D D Z D J J S J D D J D ",
"J J F D D S p p p i 4 7 R ] X.X.} E 7 s ` | L ; % y z g y 7 7 5 % - a F H F D D D F D D D D D D D D F D D S D D Z D S D S D D J ",
"J J J S l i r w i y y g P _ } O.{ z o 5 ` [ g $ - z U L z z j j 5 & 4 D J F D D D D D D F D D D D D D D D D D S D D S S D D D D ",
"J F a q 2 : & : < 4 g x I U ^ { Q 5 o 5 U T e + > L P l j m F L U g > < t Z D F J D D D D G F S D D D D D Z D S S S D S S D D J ",
"J i < % % & 7 k h 7 y z P m z N z 3 5 z z z 4 + 6 P L j k P ~ _ | / g & # < i a D D D F K K F D D D D D D D Z D D D S S D D D D ",
"Z t 6 y g U $.4.3.#.m g N z e 7 e 5 j L z e & % g L U U E / | X.| ' ~ x 7 5 > & < 6 i D F F F D a D D D D D S D D S Z D D D D D ",
"a g l z U ` %.1.7.6. .g g x h ; 3 ; 5 g e < ; 7 z L U E ! ! ` ` ! P P L L k g g g f < - < i D J D D D D D D D D D D D Z D D D D ",
"w g z L ~ ` ` [ =.5.=.k 4 x P g 3 ; - - > > y L E P L U U U E P M L P R E R E ~ W U g & + < i K D D D D D D D D D Z D D D D D D ",
"; e A Y [ X._ ~  .<.$.g > h U M j e e 3 4 y L ~ _ ! L L I ! E L L ! ` ` / ~ / ` [ ` R z e e i a a D D D D D D D D D D D D D D D ",
"# 7 m E [ X._ W ` *.$.k ; y z x P P L P m z P / ' _ U z P ~ ~ E E ~ ` ` ` _ ~ ~ / ` / E I U y = 6 S F F D D D D D D D D D D D D ",
"% 7 m P / [ ' ` X.<.&.k > e j x ~ _ ~ ~ ! Y L P ` ` ~ W ~ ~ ! U U ! ~ _ _ ~ E U P Y W Y Y T z & $ t Z D D F D D D D S D D D D D ",
"& 6 j m U ] #.=.1.3.o.7 ; y j F / } ` ` ` ~ U P _ ' ` ` ' ' ~ U P ! ` ` _ ~ ! ! U Y ! E U U U g % ; a D F J D D D Z D D D D D D ",
"2 2 5 g g R #.<.2.*.M % < g l z _ [ ' ' ' ] _ / ' ' ~ ! ~ / ~ E P W ` ' _ ` ` ' ] ` ` ` ! ~ ` U ; $ t D D D F D D D S D S D D D ",
"D t < ; - ; h E R h ; & 5 j l L _ | ' ' | ` ' ' ` ~ ~ U M U W U L R _ _ ^ ` ' ' ' ' ' ' ` ` ` P ; $ w D J D D D D S D D D D D D ",
"D a 2 > < < 6 2 ; - & ; 3 e z Y ' | ' ' ` _ ' ' _ ~ ! ! ! W ~ ~ U E _ _ ~ ~ ` ` ` ` ` | | ` E y + - t D F D F D D D S D Z D D D ",
"a u w i a i u q , - ; - - 3 7 M _ | ' _ E E ~ ` _ / _ ' [ [ ' / ~ _ ] ' _ _ ` ' ' ' [ [ [ ~ x > % w S D D D D F D Z D D D Z D D ",
"u 2 6 a D Z a a u q , , - * > 7 P _ _ U z L W ` ' ' ~ W W ~ W P P R ! _ _ ` ' ` ~ / / / ! L y 3 w l F D D D D D D D D Z D D D D ",
"u q q c S S a S a u r 8 2 & & 7 g U U z L P ! [ | ~ z 7 7 g z z h g k N E ` | ~ Y U U z j 5 ; u D J J D D D D D D S D D D D D D ",
"p r u p a a a a i i i r 8 & & j j z L U ! E ~ ' ! h 5 7 7 h ^ %.$.} z 7 P ` | ` / W U A z < - e J J D D D D D D D D l D D D D D ",
"a p p p p a a a a i u u u e h U U U E _ ` _ ! L 7 4 y l z U @.1.6.4.o.k h ! X.' _ E Y Y L 4 - w F J D J D D S D D D D D D D a D ",
"c c c c c a a p p i u r r j R ` ` ` '  .o.[ U > % e z z P _ ' o.<.6.3._ 3 x | ~ P x U W P > - i J J D D F D D D D S a D a S S S ",
"D S S S D Z a a a a i p t > g _ X.| ` ` ' _ I < # 9 L E ` [ ` _ o.1.3.} ; h _ U z L ~ _ L - ; a J J F F D J D D S S c a p a p p ",
"D D D D D a D S a a p a t # ; E | ' W L L L m 5 % e ! ` | [ ` _ _ $.,.` 3 k _ ~ Y Y W R g & - a J J F F J D D D Z S c a p p p p ",
"D D D S l S S S a a i p t $ & L ~ ` ~ U U P z 5 % y E _ [ [ ' _ / X.=.} 5 x X.X.| ! l j y & - i D J D D D J D D D S S a p p p u ",
"D D D D D D D S c l a p i - ; j L ~ ` '  .` P > $ 5 z E | X.[ ` ] *.<.` 3 z ' } ` L j z j > : i D F D J D D F D D D Z D S c c a ",
"D D D D D D D D n n n a i 8 > > g L ~ ` ' ` E y : > g U ` ` / ` *.2.<.W 4 g P P L z m ~ ! 5 > a S D D D D D D J D D D D D D S S ",
"D D F D J D F D D D D a a i r - - y z L U E ! U h 3 4 g z z z / <.1.` h x R P U U z m _ } g < n D D D D D F J D D D D D D D D D ",
"D D F D D J F D F F D n a a i 2 X & e j M W _ ~ N h 4 & & 4 6 h ! Y h x ` X.[ | _ L l U ) z 9 n S Z D D D D F D D D D J J D J D ",
"F D F F F G G G D F F D a a i w + + 4 j U ` | / E E k > 5 h h 7 3 4 N [ [ ' ' X. .U j y 7 7 j i a a S D D F D F F F D J D D F D ",
"D D J J J J J J J J J D a i u < & 5 e g P ` ] _ / / U x ~ ` ` _ W ! ` | ~ L z Y ` U j 7 % & 7 u a Z Z Z J D D F F D D J F J D F ",
"J J D F F D F F D F J F Z a 2 ; 7 z z z R / E N L P E ` | | | X.X.X.X.~ L g y j U E y 7 k > & i a S J J D D J D J J F F D D D D ",
"J J J J F J D J F J J F D S < % j m m I U E U P P P / ' [ ' ` ` _ } _ U U U P N U ~ M P $.g $ i S Z D D F F J F F D J J D J J D ",
"F D J F J F J J F J J J D S , % j m m U U P ! } } ' ' ' [ ' _ ~ _ ' ! B / } ' ` _ ` / o.<.k $ u S F D J J D D F D F J J F D J D ",
"F J F J F J F D F D J J F a , % g m U ` ` ! / [ | | | ' ` / E U ~ _ E U ` | | ' ' ` ` %.<.h $ u D D D F J D F D D F J J D F D D ",
"D F J J J F J J J J J J F D < % g m E } [ ` ! E E / ` _ ~ R L z P U E ~ ' ' ' ] ] ` | *.>.d # a D D D D D D D J D D F D J D D J ",
"D D J J J J J F D J J J D S 1 % g m m ! ' ' ~ P z P ! U m m L E Y E ~ | ' ' ' ' | $.>.1.=.5 . i Z D D D D J D D J D F J J D D J ",
"D D D D F D F J F J F F F a < # j m j N _ | ` E m L U P z L ~ | [ ' ' [ | ' ~ ! | >.2.1.` * $ i S a S D F D J J D F J D D D F D ",
"c S S J D D J J F D F D D c , # g z j L ` | _ W U E / _ _ _ ' X.X.| | ` ` / P z _ #.>.o.> $ t a a Z D D D D F D F D D D D J D D ",
"c c S D F D F D J J J D S a r - & y z L ` ` ~ U L L ~ ' ' ` ` ` [ | | / U z j m _ o.=._ + : a a a Z S Z D D D D J D F D J D D D ",
"p S S J J F F J F J F D D a p 2 + 7 z F U U U L z j L U P E ! E E ! ! L y g L ! ` o.=.} & : a a a S S D S D D D D D J J J J J D ",
"p S S J J J D J D D D S S i u q # 5 m z j L E E P L I L g m L z g y e 6 7 L _ ' ` X.=.| & : a a l S Z Z D D D D F D J J F J D D ",
"u p S J J J J J F D D D S a u q % 4 j j m ~ ' ` _ } o.~ g y z g 7 3 & + < R | ' ` #.<.X.& = a a S S S D Z D D D D F D J D J D F ",
"p p S J J J J D D F c D Z a i u , - 7 z L / X.| @.-.>.` y > y l j t ; & 7 L / [ #.<.2.` % $ u t i a a D D D D F D D J J J J J D ",
"p S S J J J J J D D D S l i u i t # > j m U ^ | *.1.@.z 4 - 6 l l i 6 < 4 g L } 1.5.%.7 + : 8 9 t a l D D D D D J J F D D F J J ",
"S S S J J J J J D F D D a u t t w - ; 7 y 7 d U | X.g + : 5 7 y t t t : & > 6 N %.$.s   @ 1 2 2 u a S D D D F D J J J J J J F J ",
"F F F J J F J J F D D S i u u 9 8 : $ # + % # & 3 < & & 2 9 9 9 6 8 8 1 * # . # * & X . - 2 2 t i a a D D D D D D J J J F F J D ",
"J J J J J J F J J D F S a i t t 1 1 : $ $ & $ $ + $ * 2 2 6 2 2 2 2 2 2 , : = $ O O & : 1 2 8 2 i a Z D J F J J D J D F J J J J ",
"J J J J J J J J J J D S c i i a t 8 1 1 1 2 1 = : : 1 2 6 1 1 1 8 2 8 9 t 2 2 1 1 1 8 8 2 2 r 9 i S Z D D J D J J F J J J J F F ",
"J J J J K J J J J F D S n D c D l a u r 8 r 9 8 1 1 2 9 2 2 2 2 t t u t 8 t 8 8 r 9 t t r 9 u a a D D D F J J F J J J J J J J D ",
"J H H J J J J J F J D D D D D D D S a i u t u u t 9 t t 9 8 t t i i i u u t 8 t i u u i u a a S a D D F J J J J K K K K J J D Z ",
"J H J J D S S J J J J F F D D D F S S a a a a a c a a p i u u i a a D a i i i a a i i a a a p a S D D D J J J J J K K K J D S a ",
"H H K J S S S D J J J J G G G G D D S c a l c a n n n a a a a S c c S S n a c c S S S a a p p p S S F F K J J J K K J K J S a u ",
"K H J J S p S D J J J D F G D F F D S c S S S n c n n n c a S l c c l c n n n n D D S S p p p p p S D J J J J J K K K J J S p p "
};
