/* XPM */
static char *cGxheWVyX3VwXzE_[] = {
/* columns rows colors chars-per-pixel */
"64 64 136 2 ",
"   c #160C13",
".  c #190E15",
"X  c #151115",
"o  c #1C1117",
"O  c #1D1419",
"+  c #1C181D",
"@  c #21151B",
"#  c #23191E",
"$  c #281B1F",
"%  c #1F1D22",
"&  c #251D21",
"*  c #2A1E22",
"=  c #252225",
"-  c #2B2225",
";  c #262528",
":  c #2B2629",
">  c #232C2C",
",  c #2D2B2D",
"<  c #312426",
"1  c #332629",
"2  c #342A2C",
"3  c #3A2C2D",
"4  c #332E30",
"5  c #3B2F30",
"6  c #273131",
"7  c #2D3535",
"8  c #343335",
"9  c #3D3232",
"0  c #373738",
"q  c #343A3A",
"w  c #3B3D3D",
"e  c #402F30",
"r  c #423535",
"t  c #453837",
"y  c #4A3937",
"u  c #453B3A",
"i  c #4B3D3C",
"p  c #4E403E",
"a  c #51413F",
"s  c #58413F",
"d  c #3F3F40",
"f  c #403F40",
"g  c #3E4141",
"h  c #454545",
"j  c #4A4645",
"k  c #474847",
"l  c #484847",
"z  c #484748",
"x  c #474848",
"c  c #484848",
"v  c #544441",
"b  c #594643",
"n  c #5C4946",
"m  c #5E4C48",
"M  c #614B47",
"N  c #624D49",
"B  c #684E4A",
"V  c #66504B",
"C  c #6B534E",
"Z  c #6E5650",
"A  c #6F5952",
"S  c #725751",
"D  c #715752",
"F  c #715751",
"G  c #705651",
"H  c #715851",
"J  c #715A51",
"K  c #715852",
"L  c #745953",
"P  c #765953",
"I  c #745B54",
"U  c #755B54",
"Y  c #765B54",
"T  c #735D54",
"R  c #745E54",
"E  c #755E54",
"W  c #745A53",
"Q  c #785E56",
"!  c #7A5E57",
"~  c #7A5E56",
"^  c #7B5F58",
"/  c #7C5F58",
"(  c #7C5F58",
")  c #786157",
"_  c #7D6058",
"`  c #7F665B",
"'  c #7E6159",
"]  c #80625A",
"[  c #83645C",
"{  c #84655C",
"}  c #81635B",
"|  c #846A5E",
" . c #88685F",
".. c #856D60",
"X. c #866B61",
"o. c #886B61",
"O. c #896C61",
"+. c #8A6D62",
"@. c #8E7064",
"#. c #8C7365",
"$. c #8E7265",
"%. c #917567",
"&. c #937569",
"*. c #937668",
"=. c #96786B",
"-. c #97796C",
";. c #95796B",
":. c #9B7F6F",
">. c #9A7C6E",
",. c #9E7F70",
"<. c #9C806F",
"1. c #9E8170",
"2. c #A18473",
"3. c #A58776",
"4. c #A38573",
"5. c #A68976",
"6. c #A88976",
"7. c #A98C79",
"8. c #AC8E7B",
"9. c #AC8D7B",
"0. c #AF927E",
"q. c #B1927E",
"w. c #B49681",
"e. c #B39480",
"r. c #B79883",
"t. c #BB9A85",
"y. c #BA9B85",
"u. c #BA9A84",
"i. c #C3A38B",
"p. c #C4A48C",
"a. c #C6A58D",
"s. c #C3A38C",
"d. c #C9A98F",
"f. c #C9A88F",
"g. c #CAA990",
"h. c #D5B398",
/* pixels */
"c c c c c c z k k k k k k k k j k h d q q q g h k k f w q 7 7 q g g h h h g g g q q 7 q q q q 7 q 7 q g h x x x h g d 7 7 q q q ",
"c c c c c c l c z z c x k k h h k k h g g g h h k h h g w q q 7 d g x g g w d g g q q q q q q q q g g g h x h x x g g 7 7 7 7 g ",
"c c x c c x c c z c x c c c z z k k k k h h h h h z k h g g w 7 q g x q 7 q q g g w w d g q q q g g g x h g g h h g g 7 7 g g g ",
"c c c c c c c c c c c c z c c z c z z c c c c c c h z h x h g 7 q g x g g g g g q w g g g q g g g g g x h h h h h g g q g g g g ",
"x c c c c c c x c c c c c c c c c c c c c c x c c c c c c c d 7 g g x x g g g q g h h x g d g h g g h h h x h x x x x x g x x x ",
"l z c x c c c c c x c c c c x c x c c c c c c c c c c c c c h q g g x x g g q g h c c c h k k k x g k x h x x c x x x x g g x x ",
"c c c c c c z c c c z c c c c c c c c l c c c c c c c c c c k g g g g g g g g g c c c c c c c k x h x h x h c c x x x x x x x x ",
"z l c c x c l c c c c c x c c c c z c c x c c z c c c x c c z h g x g g g g g g c c c c c c c c x x x x x x c c x x x x x x x x ",
"c c c c c z c c c x c c c c c c l c z c c c c c c c c c c c c c c c c g g q g g g c c c c c c c c c c h h c c c x x c c x k k k ",
"h h c c c c c c c c c c c x c c c c c c c c k c c c c c c c c j c c c c g d d g g c c c c c x c c c c c c c c c x x c c c k k k ",
"c c h c x c x c c c c c c c z c l l z z c c c c c c c c c c c c x x c x g g d d x c c c c c c c c c c c c c c c c x c c z k k k ",
"h x c h c c c c z c c x c x c c l l l z x c c c c c c c c c c c c x x g q d g k c c c c x c c x c c c c c c c c c c c c z z z h ",
"c c c h c c c c c c c z c c h 8 = % ; 7 h c z z h 9 2 : 4 4 4 4 q 9 1 2 , 8 w h c c h : = % = 0 h h h c c c c c c c c c z k k k ",
"c h c c c c c c c c z 8 - # # # # 3 u - + , 1 * 1 r t r 9 3 r 3 8 9 r r t 3 * - 4 7 X 2 i 3 + # & & * 4 h c c c c c c c z k z h ",
"k k h c c z k k k 0 2 3 9 9 9 3 r ) <.C * & 2 3 t i y u p p v v i i i u i y r 3 , O < } 1.T 9 3 r e 5 5 : 4 h h c c c c h h h k ",
"h k k x c z h k 8 - 3 y j m m i Z -.y.0...C t 5 i i u u v V P P V b i t u j t < v T #.y.y.;.C i m N j i t * = h c c c z z j k h ",
"k h k h z c h w : 3 y i M Y M p T { +.8.a.7.y * t i M N S / / / ^ L B M i i 3   J g.p.3.+.[ P i M ! M j i y < 1 h z c c x c h h ",
"k k z z c c f : < y i f C ] C s N S P =.g.w.y O e i n C D D D D D Z Z M v j y 3 T h.s.o.D J M v C ' S i i i e @ 8 z c c h c h z ",
"h k h z z z w * < y i i Z ] ~ C n B D o.7.>.r * u f v v b C C C V b v n C Y C v v ;.5.' C B n Z ! ] Y v t f y . : c c c c c x h ",
"f h h h z z w & < u i i Z ] } ~ M v N ' +.P 1 3 N C n i N M v i i b y v ^ P v y v m _ ! n v m _ } [ P s r i r @ : h c c h c h z ",
"w d h k z c w & < y u i Z ` L M v u b P D v 3 r J [ T C P V i r i f N i i M N P L L C Z v r b M J [ Y v t i r . : c c c c c h h ",
"q w f k c c w & 1 i i i M V v t v v v J C i r i v [ ' ! ^ T C M V N Y v i j M ! ' [ ' V a s v r a C V i u v t @ : c c c c h h c ",
"q w h h c z h 2 : t y u i v p i N P C ' T V M C M ' ! ! ^ ^ / ^ ' P ! D Z C L ' n J ' V b D B i i v i u y y 9 # w h z z k k c h ",
"d g h z c c z 0 - 1 i i u v V L ] ! ! ! ' ^ ^ _ Y ! ! ! / ' ] ' ] ] M ! _ _ Q ^ 9 p m _ D / ' S C v u i j e $ : h h z z h k k k ",
"g g k h k x x g ; * u j i v J { ' ! ! ! ' ] ] ' ] ^ ^ ! J D L ! ' P j P ] ] D b i v s ..+./ { o.T b i i v 2 o 0 c c c c c h z h ",
"g h h h x x h g , & 1 e u v V T ! ! ! P J P ! ' P / ! Z n v v C C v i C M N n n Z Z C T -.&.T P V v i 9 3 - & w c c c h x h h h ",
"d w g k x x g q 0 , * - 3 9 9 v ! ' C b a v C C v ^ J v u v b n p r p Z a s C _ / / / S J ' u 9 9 9 5 - & = 8 k c c c c c h h h ",
"q w w h x g g g w 0 , = - & @ 3 L L v y v n n a r a n M L L P M i v v Z i n C / ] ] ] Z r 3 @ O # & - ; : 8 h c c c h x h h h h ",
"q q w g c x x g w w g g q % O 1 u b M P L P M i p v v M P ' [ ^ J J C ! n p a V B M N n 5 & - : O # u x c c c c z k k h h h h h ",
"q q q g h h x g q 7 q g w > * y i a M T ' ` Y D Z C C J / m J ' / _ N V m a i a v v v N u 9 y y $ , x x c c c c z h h h k k h h ",
"q q q q q g q q 7 7 7 q 7 > - a j v C P V ^ ' / ' ' ' ! ! r p b C ^ u s n a n n f y ^ P n i v a - 8 c c c c x h k h h h h k h h ",
"w w w q 7 7 7 q q q q 7 7 > - i y y N Z n b Z ! ' ' ' D n i v a M P u M J P J N i v / ^ n t i i * 8 h h x x h h h u d d w d d d ",
"h f g h g g g g g h g w w = * i u r n ! C i s N V M M n n C C C L ' N P ' ! ' ! L L ^ T n t i i * & q q g d d g d q w q w w q q ",
"h h k h h c c c h c h k h * * i i y M ! J N p i v a v C ' ] ] / ^ T ! / ! ! ! ! ! ^ ! P n r i y * @ 7 7 7 7 7 7 q q w w q 7 7 q ",
"h k z z c c c c c c z z h & * i i u M ' ! P D N a i b C / ] ] ] D n ] ] _ ! ! Y T Y ^ ^ n t u j * & 7 6 7 7 7 8 w g g g w q q q ",
"h k c c c c z h z z k k k 2 * u i i n ! / T Y T C b p s N N N N n n J D J ! ! ! P ^ ^ Q n t i i * ; 7 8 q q q q q g g x g w w q ",
"h c h c h h h h h h h h h h : < u i p V ! ' ! / Z n a p a v i i V C b a s N / / _ _ Q N p i y 1 - d q d w w w w d f k z x h g g ",
"h c h h 4 - ; & + X , h h h 8 = 1 y i v V _ ] J v u a n n a i u i n n v u u V _ [ Q m i i r 1 - 8 h h k 8 X X % & ; - 4 h x x k ",
"z z h - & # & 3 r r 1 8 p g h 8 @ * r j b C D b i b P P M i a v i n P ! N i i V L V v i 9 * o 8 h h c w : 9 r t : @ # * : k x c ",
"z z 4 : 5 5 i ` 4.3.` 5 8 h h w     < r u p a u v Z ' [ ^ D J P J ! [ } ! n y i v i t 9 1     h h k g * C 2.5.1.V 5 5 5 - 8 c c ",
"z , 1 r u f C @.8.a.r.} r h h w X $ < @ * 9 t t p v n P ' ' / / ' ] ! M b p t r u 3 # # < $ . z k k 3 C 8.d.t.:.' b y u r 1 , h ",
"z @ 5 i v N Y / +.7.i.3.y 9 h 0 < t 5 * # & 4 9 9 9 9 j n C T ! C n v r 9 r 9 w < # # - e r < 0 h w < =.d.u.>.] _ L n j i 3 @ z ",
"z @ 3 i n S ~ S S  .7.4.u 8 w : r i y u y e y v v p i a a N P ! M a a p i a v v r 5 y t u j 9 - h 8 1 -.u.%.P G T ^ Z v i 2 @ z ",
"z # 3 i M Y ] Y D D %.*.y 8 p = r i i m Z N Z Q P D D Z C J ' ' T C C Z D D ! T B N C n y i t * h 4 2 #.,.P G P ! ' P b u 3 @ c ",
"h O 3 i n ~ ] P D D +.*.y 4 d - r i n L D V Z _ ' ' ' ' ' ! P ! ^ ' ] ' ] ' ' ! N B ! J v i r * w 8 1 %.>.D C P ! ' P v i 3 O h ",
"w @ 3 i f B ~ P S ` 4.,.i 4 d & 9 i m ' P B m b C ' ] ' ' J b b Z ' ] ] ] P n n n C / ' n i r # p 6 2 =.q.o.S S ^ P m i i 3 O c ",
"w & < t i s D +.1.8.e.` r 0 u O r i n Z ^ L m i a M B N M n v v n N N N V b u a C ! ! C v i r @ w q 1 C q.u.2.>.| M a i r : = z ",
"g q : - 5 r a  .2.5...y 9 w 8 @ r i u b P ' P v r u a i a n D C n i i v i 9 y V ' ' D v u i t . 8 p 0 2 J 6.3.4.A 9 5 e * : w z ",
"g x g ; @ o @ * 3 1 3 0 f d , O r i t b P ] ) M r i n C C D / / D C C V a 9 i D [ ] J a r i r @ ; f h w 3 1 3 3 # . O # : f z z ",
"g g k d 4 , 2 , 4 4 9 f h d 0 & - r u b ! ] _ C N b M P ] ] ] ] ] ] / N n n N T ' ] J a u r - = q w g u 0 2 4 2 , 2 , 8 f z c z ",
"q w h h z z k h h h h f g p d 4 O 2 i v M V P ! ! P C C C Z Z C G J C N G / ! ! C C M a i 1 O , w d f h h h h k k h z c c c c h ",
"q g h x z h k k j h f h g f w 0 . 2 p i i b C _ } / M u r r r r e r t b P } ] ! N i i i i 2 X 8 w u w d f h h h h h h c c c c c ",
"d g x c c x k h h h h g g h w 0 O 1 i u p V Y ' _ N 3 $ # # # # # # # - b / ' / P n y u i < O w w f g h h h h k h c z c c c c h ",
"g h c x c x k k h h h u d w u w 2 * 5 u v J } ' B r : 9 w f g u w u w : < s / ] ] C i u 3 & 2 w u f u w g h h h c c h c c c c c ",
"d g x x c x x k k h f h g h w w w & < i v C }  .s * , w p g w w u w w 0 O 3 { +._ M v y - $ w w g w h h h h h h c h c c c c c c ",
"g g x x c x x x h h h h h g g u w 2 - 9 9 y M F y $ 8 w w w w w w q 9 0 O 1 D D v 9 9 9 $ 4 w f d h f h h h h k c c h c c c c c ",
"h h z c z z k k k h h h f f f u w w & O O O @ $ - 8 d u h w w 8 6 6 7 0 0 = * $ O O O @ = p f f f f f h h k z h h c c c c c c h ",
"c c c x c h h k k h h h f h f d d w 9 , : = = ; 0 w g d h h w 7 > > 6 0 u h , = = = , , w w f f h f h h h x h c h c c c c c c c ",
"c c c c c c k k k k h h h f h d u d g u f f w f w h w h f h w 7 > > 6 q w h h w w u d w f f g f h h h h k k h c c c c c c c c h ",
"c c c c c c k k h h h h h h h f w h g w f f f f w p h g p w q 7 6 7 q w h g g p h w h h g h h h f h h h h k c c c c c c c c c h ",
"c c x x x x k h k z h h h h f h g g g g h f g g g h h h g w 7 7 q 0 w h h u g h w h p g h h h h j h h z x h c h c c c c c c k h ",
"c c c h h g h h h z h h h h f h p h h w w g h u g h h d w 7 6 6 q w j h h h h h h h g h d h g h h h h z x c c c x c c c c h g w ",
"c c c x g g g h z z h j h h h h h h h w q 0 g h w w w h g 7 6 6 q h h h h h h h h h h h w h d g d h k k c h x x c c c x x g q 7 ",
"c c c h g d w h z z h k h h h h h h w w q w g w q q w g w 7 7 7 q f h h h h h g h h f g w 0 w w w h h h c h x x x c x x x g g q "
};
