/* XPM */
static char *cGxheWVyX3VwXzM_[] = {
/* columns rows colors chars-per-pixel */
"64 64 136 2 ",
"   c #160C13",
".  c #190E15",
"X  c #151115",
"o  c #1C1117",
"O  c #1D141A",
"+  c #1C181E",
"@  c #21151B",
"#  c #23191E",
"$  c #281B1F",
"%  c #1F1D22",
"&  c #251D21",
"*  c #2A1E22",
"=  c #252124",
"-  c #2C2225",
";  c #262528",
":  c #2B2529",
">  c #232C2C",
",  c #2D2A2D",
"<  c #312427",
"1  c #322629",
"2  c #352A2C",
"3  c #392C2D",
"4  c #2F2E31",
"5  c #332E30",
"6  c #3B2F30",
"7  c #273131",
"8  c #2D3535",
"9  c #343335",
"0  c #3D3233",
"q  c #363738",
"w  c #393739",
"e  c #353A3A",
"r  c #3B3D3D",
"t  c #402F30",
"y  c #423535",
"u  c #443837",
"i  c #4B3937",
"p  c #453A3A",
"a  c #4B3D3C",
"s  c #503D3B",
"d  c #4E403E",
"f  c #51413F",
"g  c #5A423F",
"h  c #3F3F40",
"j  c #403F40",
"k  c #3E4141",
"l  c #454545",
"z  c #4A4545",
"x  c #484847",
"c  c #474848",
"v  c #484848",
"b  c #544441",
"n  c #594644",
"m  c #5C4946",
"M  c #5E4C48",
"N  c #614A46",
"B  c #634E49",
"V  c #66504B",
"C  c #6B534E",
"Z  c #6E5650",
"A  c #6F5952",
"S  c #725751",
"D  c #715752",
"F  c #715751",
"G  c #705651",
"H  c #715851",
"J  c #715A51",
"K  c #715852",
"L  c #745953",
"P  c #765953",
"I  c #745B54",
"U  c #755B54",
"Y  c #765B54",
"T  c #735D54",
"R  c #745E54",
"E  c #755E54",
"W  c #745A54",
"Q  c #785E56",
"!  c #7A5E57",
"~  c #7A5E56",
"^  c #7B5F58",
"/  c #7C5F58",
"(  c #7C5F58",
")  c #786157",
"_  c #7D6058",
"`  c #7F665B",
"'  c #7E6159",
"]  c #80625A",
"[  c #83645C",
"{  c #84655C",
"}  c #81635B",
"|  c #846A5E",
" . c #88685F",
".. c #856D60",
"X. c #866B61",
"o. c #886B61",
"O. c #896C61",
"+. c #8A6D63",
"@. c #8E7064",
"#. c #8C7365",
"$. c #8E7265",
"%. c #917567",
"&. c #937569",
"*. c #937668",
"=. c #96786B",
"-. c #97796C",
";. c #95796B",
":. c #9B7F6F",
">. c #9A7C6E",
",. c #9E7F70",
"<. c #9C806F",
"1. c #9E8170",
"2. c #A18473",
"3. c #A58776",
"4. c #A38573",
"5. c #A68976",
"6. c #A88976",
"7. c #A98C79",
"8. c #AC8E7B",
"9. c #AC8D7B",
"0. c #AF927E",
"q. c #B1927E",
"w. c #B49681",
"e. c #B39480",
"r. c #B79883",
"t. c #BB9A85",
"y. c #BA9B85",
"u. c #BA9A84",
"i. c #C3A38B",
"p. c #C4A48C",
"a. c #C6A58D",
"s. c #C3A38C",
"d. c #C9A98F",
"f. c #C9A88F",
"g. c #CAA990",
"h. c #D5B398",
/* pixels */
"v v v v v x v l v l c c l l v v l l j e e r h l l c l e e 8 e e e k c l l k k k e e e e e e 8 e e e e k l c c c l k k 8 8 e e e ",
"v v v v v c v v v v v v v v l x x c l k h k l l l l l k r 8 8 e e l c k k e k k k e e e e e e e e e k k l l l l c k e 8 8 8 e k ",
"v v c v v v v v v v v v v v v v l v v l c l l l l l l l l h e 8 k k c e e e e k k r e r e e e e k k k c l l k l l k e 8 8 k k k ",
"v v v v v v v v v v v v v v v v v v v c c c c c v c v v c l h e e k l k e k k k e k k k k r k k k k k c c k l l l l k r k k k k ",
"v c v v v v v c v v v v v v c v v v x v v v v v v v v v v v k 8 k k c c k k e k k l l c k k l l k k l l c c l c c c l c k c c c ",
"x v v c v v v v v v c v v v v v v v v v v x v v v v v v v v k e e k c c c k e e c v v v c l l l c k l c c l c v c c c c k k c c ",
"v v v v v x v v v v v v c v v v c v v v v c v c v v v v v v l k k k c k k k k k v v v v v v v l c c c c c c x v c c c c c c c c ",
"x v v v c v v v v v v v v x v v v v v v v v v v v v v v v v v v c c k k e k k c v v v v v v v v c c c l l c v v c c c c c c c c ",
"v v v v v v v v l v v v v v v v v v v v c v v v v v v v v v v v v v c c k h k k c c c c v v v v v v v l l v v v c c v c v c c c ",
"l l c v v v v c v v v v v v v v v v v v v v v v v v v v v v v v v v c c k h e k k c v v x v v v v v v v v v v v v v v v v c x l ",
"v v l v v c v v v v v v v v v v v c x x x v v v v v v v v v v v c c c c k k k k c v v v v v x x v v v v v v v v v v v v v l c l ",
"v l c c v v v v v v v v v v c v v x x x v v v c v v v v v v v v c c c k e h k l v v v v v v x l v v v v v v v v v c v v v x x x ",
"v v l v v c v v v v v v v v l 9 = % ; 8 l v v v j 0 5 1 3 5 5 5 9 5 1 2 , 9 r l v v l , = + ; q l c v v v v v v v v v v v l v v ",
"l v l v v v v v v v c 9 * & # + # 3 p - + , : * 1 y u y y 6 t 6 3 y y y p 3 * - , 8 X 2 a 3 + # # # = 2 l v v v v v v v v v v l ",
"l v c v v v c c l w 2 2 6 6 y 3 y ) 1.C * & 3 6 u a p p a j b b a a p p a a 0 3 2 + < } 1.T 0 2 0 0 6 6 : 9 l l v v v v l v l l ",
"x v l l v v c l 9 - 6 p b N M a Z -.y.q.O.V y 6 a a i p m B R P V m a u p d p < f R @.y.y.=.C d M B b a y * = l v v v v v v l x ",
"l l l v v v v w < 3 p a M L V d L { %.9.a.9.i & y a M B L ( ( ( ^ L B N b a 3   S g.i.3.o.{ K a B Q B a a y - , l v v v c l x l ",
"v v l c v v j : < p a s V ' C f B S L =.d.q.i O 6 a m V D D D L D L Z B b s p 3 Y h.i. .D D B b V ] J b a a y @ 5 v v v c c v l ",
"l l l v v v h & < a p d F ' ( C M V F  .9.:.y $ p b b b m Z V V B m b b V ~ C n f =.6.] G B m Z ^ ' P b y d y @ : v v v v v l l ",
"l l l l v v r & < p p s F ] ] ( N f B ' +.L 2 3 B V M s N N b a j b a b ~ L b p f B ~ ] V j N ^ } } P b u s y o : v v v l v l v ",
"r k l v v v r & < p p s D ] L B n u n L F n 3 y J ] ~ V ~ B a y s a B a f M N K L R V L n u m B K [ ~ b u a y . : v v v v v l x ",
"e w l l v v r & < a a a N V b u f f n S V a u p b } ' Q Q R C B C B P b f f N R ' } ' V s f s u b V V a u b u @ : v v v v l l l ",
"e h l l v v j 2 < u p p a b a a V J F Q Q V N V B ' ( ( ( ( ( Q ( P ~ Z C C J ' M D ] V n S V p a b a p p p t # w c v v v v v l ",
"h k l v v v v w - 2 p a p b V D ] ( Q Q ' ( ( ' Y ( Y Q ( ( ] ] } } M ~ ' ( Q Y y d M ' Z ( ] J V m p a z t $ : l v v v l l x l ",
"k k l l l c v k ; & p d a b J X.( Q Q ( ' ] ] ] } Q ^ ~ P S L ( ( P s Q ] ] D n a f b X.O.( { o.R n p d b 2 . w v v v v c l z l ",
"k l l l c c l k , - 1 0 p b V R Q ( ( L D J Q ( ~ ~ ( Z m f n V Z b z V B B m m D Z C Q -.&.Q P V b a 0 3 - & j v v v l c l l l ",
"h k k l c l k e q , * - 3 0 0 g ~ ( Z n s m V Z b ^ D b p f n M a y d Z s f V ' ( ( ( S J ` u 6 0 0 6 - & - 9 l v c c c c l l l ",
"e e k l c l k k r q , ; - # # 2 L J b i b m M a y s M N J L L N a b b Z a M C ( ] ] ] C y 3 @ O # & - ; ; 9 l v v v c c l l l l ",
"e e r l v c c k r e k k e % O 1 i m B K K P N a z s f N Q ' [ ( D L C Q N a b B B B B M 6 * - < @ & r x v v v v x x l l l l l l ",
"e e e k l l c k e e e k r ; * p a a B P ' } ~ D D C C J ( M D ' ' ] B V B b a f b a b B p 6 p p $ : v v v v v v x l l l l l l l ",
"e e e e e e e e 8 8 8 e 8 > - d b b Z P V R ' ( ] ( ' Q ~ y z M V ( p b M b M m s a ( ~ m p f f < 9 v v v v v x l l l l l l l l ",
"r h e e 8 e r e e e e 8 8 7 - a p p N Z m m Z ^ ] ' ] D n s s f N Q y N D L J N a b ( ( m u a a & 5 l x l c l l l j h h h h h j ",
"l l j r 2 ; = & + O ; r r = $ a p u N ~ V a f B B B N N m F C C J ( B L ' Q ] ( L L ^ Q m y p a * + w r k k h k h e r r e e e r ",
"l l j : & # & 3 y t 2 q j & * a a u M ~ L M f f b f b V ( ( ] ( ^ Q ( ( Q Q ( ( ~ ~ ~ P b u a a * # 8 8 8 8 8 8 e e r e e e 8 e ",
"l l 5 - 0 6 a } 2.5.` 3 w = * d a p N ( ( P C N f p M C ( ] ] ] D n ] ] ( ( P Y R ~ ^ ( M y a b - + 8 7 8 8 8 e e r k r e e e e ",
"l : 2 y p a V +.9.p.w.` u , - p a p M Q ( Q ~ ~ C m d f B B B B m M S D L Q ( Q P ^ ( R m p a p * , 8 8 8 e e e k k l c l k e e ",
"x @ 3 a f B Q ( @.7.i.3.i w - < p a f V Q ' ( ( F M f s f b a f B C n f f B ( ' ^ ' P B a a p < - r r h r e w h h l l x c l l r ",
"v @ 6 a m L Q L J | 7.2.i 5 9 - 1 i a b V ( ] J f p f M M s p p a M M n p i V ' [ ^ B a a u 1 - 9 l l l l l h l l l x x c c l c ",
"v @ 2 a m P ' P D L +.*.u 9 k 9 O * y d m V F m a M S L B a b b a N L Q B a a V K B b a y * O 9 l v v v c l k l l l x x v v c v ",
"v @ 3 j M L ( P D D +.*.i 9 l e   . 1 0 p f s p f C ] [ Q D D D F Y ] ] Q M i a b a u y <     l l x v 9 + + % % - ; 9 c v v v v ",
"v @ 3 a b V ~ ~ S ] 4.2.i w l d o * - $ & 6 y y a b M P ' ' ( ( ] ] Q N m z u y p 3 # # 1 # o l l l w - 3 u u < + # & 1 l v v v ",
"v * < y a b L +.:.9.e.{ 0 p l w < y 6 * $ & 2 u u 0 w s M V Q ^ V N b y 0 0 y 0 : # # - 0 y < w l r - C 3.6.<.V 0 6 6 - 5 v v v ",
"v r : - 6 t a X.2.3.X.i q l r : 0 a p p i t p b b a s f b B R ^ B b f d a b b b t t p i p s y : l 3 C 9.d.t.,.' M p p y 1 , v v ",
"v v j : $ . @ < 3 3 3 w l l l & u a a B V B Z R P J Z C V P ( ( J C C Z Z P R P V V V m a a y * r < =.f.r.:.] ( D M f a 2 @ v v ",
"l l l h , , 2 4 5 5 9 j l j j * 0 a m P P V D ( ] ] ( ' ( Q Q P Q ' ' ' ] ' ' ( V V ~ D b a y & 9 1 >.r.&.~ Z S ' Z b a 2 @ v v ",
"e h l v v v l l l c l l l r h & 0 a N ( ^ B m M V ( ] ] ] J n n Z ] ' ' ' P M m M C ( ] M a 6 $ , 1 %.<.S Z S ~ ' P b a 1 @ v v ",
"e k l v v c c c l l l l j r p + y a m Z ( R N a b B B B B M b n M N B B V M p s C ~ ~ C f a y @ 2 1 %.:.D Z D Q ' K b a 1 @ v v ",
"h l x v v c c l z l l l j j 9 @ u a u m ^ Z B b y p f s a m C D M a s b a 0 u V ~ D C b u a u o , 2 ;.q.o.P S ( P M s a 2 O l v ",
"k l c c v v x x l l l l j j , @ y p i b Q B b b u p N C V D ( ( S V C V d 0 i L Q N n f y a y O , 1 Z 0.r.,.>.| B f a u < * c c ",
"k k c c v l x l l l j l j j e * - y p m ( S C C B m B P ] ] ] ] ] ] ( B m m V Q ' L C B p y - = e q 1 J 6.4.4.F y 6 6 * : j c c ",
"e h l c v v v l z l l j k d w 4 o 3 a a Q Q ( ( ] ( N i D Z Z Z F y u n L { ] Y ~ Q ( L b 2 X 4 k p r 3 3 3 2 $ . O @ ; j c v c ",
"e k l c v c c l l l j l k r q q . 3 a a m Z ] ] } ( N i y 6 y y y t 6 s D } } Y m C ] L b 3 o w r k k w 4 5 2 , 2 , 5 l v v c c ",
"h k c v v c c l l l l l h r w w o 2 a p f M B B P D s 2 $ @ # # # # 5 - 6 B ' ] b n N n 0 - - w r p k k l l l l l l l v v v v c ",
"k k v c v c c c l l l k k j w r # 1 p u F M f B ~ M 3 * p r j r p r r q o 3 { +.F M s p * * r r k k r d k l l l v v v v v v c v ",
"k k c c v c c c l l l l l r d e , * t p V ~ ~ ' V y 1 w k r p k p k r w , : i s V a 3 < & w p r r k k l l l l l v v c v v v v x ",
"k k c c v c c c l l l k p l r k w * 2 p n C [ { N < 1 w l r h w e w w r p w : = : = , , w r h j d k l k l l l l v l v v v v v l ",
"l l v c v c l c l l l l j p h h r = : i f B ( { g $ , r l r r 9 7 7 8 w r r r r p h r r r p r j j l j l l l l v x l v v v v v c ",
"v v v v v v c c l l l l j l j h r , - y u a V P s # 9 h j l r 8 > > 7 q r d p k r h h h k k h k j j l l l v l l v v v v v v v c ",
"v v v v c v c l x l l l j l l r r 9 $ < - < y i 3 , w l l l r 8 > > 7 q k l k d p k r l l l p l l l l l l x v v l v v v v v x l ",
"v v v v v v c c x l x l l l j l d k - # @ @ # $ : w p l j r e 8 8 8 e r k k k k r l j r l r l k l l l l l x l v v v v v v v v l ",
"v v c c l c c l l v l l l l p l k k q , - = = ; 0 k l k k e 8 8 8 r r l l l p l k k l l l l k l l l z l l v v v c v v v v v l l ",
"v v v l l k l l x v l l l l l l k d r , , = ; ; e d l l k 8 7 7 e k l l l l k l k d l l h l l l l l l l c c l v v v v v v l k e ",
"v v v l k k h l v l l l l l l l l l l k e r k l r r k l r 8 7 7 e l l c k k l l l l l l r l k h h l z c c l c c v v v v c k r 8 ",
"v v v c k h h l v v l l l l l l l l r e e e r k e e r r r e 8 8 e k l c l d l l l l k k r w h e h l l l v c c c c v c c c k h e "
};
