/* XPM */
static char *player_idle_11678373083[] = {
/* columns rows colors chars-per-pixel */
"64 64 139 2 ",
"   c #070506",
".  c #0E070F",
"X  c #0F0810",
"o  c #100314",
"O  c #150C13",
"+  c #1A0F16",
"@  c #170618",
"#  c #1E0C1D",
"$  c #151216",
"%  c #1B1117",
"&  c #151218",
"*  c #1C1419",
"=  c #1D1A1D",
"-  c #21161B",
";  c #23191E",
":  c #291B1F",
">  c #1F201F",
",  c #22201B",
"<  c #1F1D21",
"1  c #241D21",
"2  c #2A1D22",
"3  c #301E25",
"4  c #242225",
"5  c #2B2225",
"6  c #272529",
"7  c #2B2629",
"8  c #27292A",
"9  c #2C2C2C",
"0  c #312426",
"q  c #332629",
"w  c #39262A",
"e  c #342A2C",
"r  c #3A2C2D",
"t  c #2F302F",
"y  c #323226",
"u  c #3E302E",
"i  c #2D2F30",
"p  c #322F30",
"a  c #3A2E30",
"s  c #2E3233",
"d  c #333434",
"f  c #3E3132",
"g  c #343837",
"h  c #363738",
"j  c #383638",
"k  c #353A3A",
"l  c #3B3D3D",
"z  c #432736",
"x  c #412F30",
"c  c #423535",
"v  c #493635",
"b  c #453936",
"n  c #4A3937",
"m  c #4E363A",
"M  c #463A39",
"N  c #4B3D3C",
"B  c #513D3C",
"V  c #3E403F",
"C  c #4E403E",
"Z  c #52413E",
"A  c #58423F",
"S  c #595538",
"D  c #4E6728",
"F  c #5F673F",
"G  c #3D3F40",
"H  c #4D3B40",
"J  c #573F40",
"K  c #3E4040",
"L  c #444545",
"P  c #4A4645",
"I  c #474847",
"U  c #474848",
"Y  c #484848",
"T  c #544441",
"R  c #5A4643",
"E  c #574844",
"W  c #5C4A46",
"Q  c #5E454A",
"!  c #5E4C48",
"~  c #614B46",
"^  c #614548",
"/  c #634E49",
"(  c #6A4F4A",
")  c #635845",
"_  c #66514B",
"`  c #6B534E",
"'  c #6C5A4F",
"]  c #784E5D",
"[  c #6E5650",
"{  c #6B5951",
"}  c #715651",
"|  c #745A54",
" . c #7A5E56",
".. c #7A535C",
"X. c #7C5F59",
"o. c #6D7A42",
"O. c #756055",
"+. c #7A6157",
"@. c #7D6955",
"#. c #7D6159",
"$. c #805F5E",
"%. c #82645C",
"&. c #84695F",
"*. c #886B5F",
"=. c #817C53",
"-. c #876562",
";. c #886363",
":. c #866B60",
">. c #8A6C62",
",. c #8D7265",
"<. c #907467",
"1. c #937669",
"2. c #957A6B",
"3. c #9A7C6E",
"4. c #9E7F70",
"5. c #64852F",
"6. c #79A33D",
"7. c #87984E",
"8. c #8F8858",
"9. c #92845E",
"0. c #9CB455",
"q. c #9D806F",
"w. c #9E8171",
"e. c #A28474",
"r. c #A68976",
"t. c #A98977",
"y. c #AB8D7A",
"u. c #AF917D",
"i. c #B1927E",
"p. c #9ED14A",
"a. c #B59681",
"s. c #B69883",
"d. c #BB9B85",
"f. c #BE9E88",
"g. c #C3A38B",
"h. c #C8A78F",
"j. c #C9A88F",
"k. c #CCAB92",
"l. c #D8B69A",
/* pixels */
"Y Y Y Y U Y U P U U L U U L U U L L l k g k l K U L K l k g k k G K U U U U K K k k k k k k s K s s k K U U U U U K k s s k k k ",
"Y Y U Y U U P U L P P U U P P U I L L k k k l L U I K l k g g k G K K K K K K K K k k k k k k s k K K K U U U U U K K s s k k k ",
"Y Y Y Y U P Y L U P L U P U L L I L L l K K K L L L L G l k g k k K K K l K K G l k k l K k k k K K K K K K K K K K K K k k K K ",
"I Y Y I U P Y Y U U L U L L L L L L L L L K L L L L K L K G k k k K K K k k l G K l K l k K K G K K K K U U K K U K K K k K K K ",
"Y Y Y Y L Y Y Y L P L L L L L L L L L L L L L K H K K L K K l k l K K l l k K K l l K l K l K G K K U U U K K U U U K K K U U U ",
"U Y Y L L U L U L L L L L L L K L L l L V L K K V K K M L G l l k l K l l l l l l l K K l K K K K K U U U U U U U Y Y U K K K U ",
"I I I Y Y P L L L L L L L L L G L l K K V C C l l l L L l l l l l l K l l l l K K L K K K K K L K K K U U U U U U U U U U U U U ",
"I I L Y U L L L L L L L G L L G K K K K l l V l l K l l M K l l l l l K l K k l l l L L K L K K K K K U U U U U U U U U U U U U ",
"I I U L L U L U K K L G G L l l l l l l l l l l l M l l l G l l l l l l l l l l V K K K G L L C L L L L L L L I U U U U U U U U ",
"I U U U L L K U L K G G l l k k l j k l l l V V l l l l l l M l l l j l l j l l C l K K V L l L K L L L L L I I U U U U U U U U ",
"I I L L L K K K G G l l l k k g g j k l l l l M l l l l l j l l l l l l j l l j l k l L K K H L L L L L I L I L U U U U U U U U ",
"I I U L U K K K G G k s s s s 9 s s s s j j j d g j j d j g g h d d d d d d d d l M g s g l l j j h k k G H L U U K U U U U U U ",
"L I L L K K K k l k s 4 4 4 4 < 4 < < 1 4 i d 6 5 e 0 e 0 0 7 0 5 4 5 5 5 7 1 e ! ' M < 1 d g 7 7 6 6 6 7 7 j L I L L I U U U U ",
"U I L L L K l l k i 4 2 1 ; 1 ; 1 e N e O & 5 5 2 r b c b f a f N N N m N f f W 1.i.:.v a 9 6 0 r b N N f % * j L I I L U U U L ",
"U U U L K K l k i 4 0 r f f f e f  .e.@.0 = q r a N N N M N C T }  .| | } W T | 1.a.a.r.<.T 6 a W &.<.3.<.B O 1 j L I I L I I L ",
"L L L L K K l g 1 2 c N P _ ! N [ <.d.d.,.| Z 0 N P M M N E _ `  .*.>.>.*. ._ / | &.r.j.k.w.N ; W 3.t.a.h.r.E - 1 l L I I I L I ",
"L U L L L K k 7 2 c N N /  .~ N | %.>.r.g.j.} + r N T W ( | #.#.$.*.*.>.,.>.' Z }  .:.3.y.g.{   r  .&.>.w.w.2._ * i L Y I U L Y ",
"L Y L L L U i 1 c P N Z } %.` T / | } :.g.l. .. 7 b N _ {  .%.%.%.` A A ^ R r 5 N | X.| #.w.:.2 2 B } | _ W ,.w.- 6 L U L L L L ",
"P L L L L L 6 % b H b B | %. .` W ( [ #.r.s._ O f C Z Z T [ -.%.} x ; ; : : : ; 3 B }  . .#.4.#.* 7 [ ` M a &.t.- 8 U L L U Y L ",
"H K K U I I 6 - c N b P | %.%. ./ B !  .>.,.n * T } _ A M / &.} x : 5 ; 5 x m B v w B } | | e.r., * C H c N 1.e.- 7 I I L L P P ",
"l G K L P U 6 - c N b T  .#.| ! R b Z |  .| x % ( *.X.| / ~ R c 5 e T R W } $.%. .B x v R [ 4.a.{ q 0 M T [ e.e.* 8 L L L L L L ",
"g k G L L I 7 % b Z b J _ ( T M T T Z / :.3.B O / >.$.%.%.W 5 % r M Q ] ] $.%.%.%...z - b ~ :.f.i.v % b [ >.d.t.1 6 L L L L L P ",
"g k K K L L p : a N M M N T N N / } R / q.y.R 2 / %. .X. .E - + a M ) 8.9.@.} |  .9.S 2 B T { g.j.n O b  .4.a.>.2 9 L L L L L P ",
"K K K K L H l 7 : x P N M E _ | %.X.' :.u.O.x ^ | X.X.| ! N 0 % f H o.p.p.8.$.$.*.0.5.r ^ E { g.f.n % b &.a.1.r 9 G L L L L L L ",
"K K L L K K L g + w T C N E | :.%. .>.d.a.c , %.%. . .` C M 5 * c H F 6.6.=.*.;.>.7.D , B _ &.g.d.v % N >.d.| . p H L L L L U L ",
"K K L K L K L j 1 5 r f N T _ |  .<.3.>.| r n %.%. .#.` C M 0 - f a 7 e y c B R B b ; X 0 / >.u.s.n = b / #.B = G K K L L K L L ",
"l G K K L K L l d 5 1 5 a f c f M +.} e 5 R |  . . . .} N M 5 - f c # o # : - - : @ o + * B %.1.u.B % w q q d j G H K L L L U L ",
"k l G K K M l G k s 8 4 5 2 - * = r u ; 5 ~ %.%. . .#.| T N 5 % M Q w 1 m ^ 3 - v 3 w x : v | >.u.Z O ; 4 6 9 l G G K K L L L L ",
"g k k l K G l l j g d t 4 % - 5 5 2 5 b R W ` X.#. .#. .` T 5 + c _ B M  .>.` R  .` ` ~ 2 v  .,.u.Z X , s d g l l l K L L L L L ",
"k k k l l l l k j j g g 9 * 2 N N f N `  ._ E W ~ } [ _ _ T e 1 7 N E W | #. .| O.| / n x / [ #.y.Z $ 8 s k k k l L K L L L L L ",
"k k k k l k l l l j g g s = 5 T P N E | #.| / N Z ` ` T M M f e 2 7 a f c a c b f f e a ( } N ! e.T & 8 s k g k H K K K L K L L ",
"K K K l l l l k j g g k g = 2 N N b W  .#.X.| / _ | | ~ M c C N e - + + O + O O O + w ( #._ a ! r.T & i s d k k l V G K K H G G ",
"L K K K K K M l k l j l g ; 2 N N b W  .X. . . . . . . ./ / _ / N 7 2 2 1 2 2 ; 1 a (  .` W T  .y.A % i d g l l l l l l k k l k ",
"L L L M L K K G l l l j g ; 2 N N c R  . .|  . . . . .X.X. .#.| / R E T T E T T W ! [ ~ N E ` *.y.B & 8 g k k j l l l l k k g g ",
"L L L L K G l l M l j j d ; 5 Z N j W  .X. .|  . . .#.#.%.#.%.%. .#.#.+.X.#.&.&.#._ N c N `  .3.f.Z & s k j j l V l V V k g k k ",
"I L L L I L L K V V l l g 1 2 N N N E | #. . . .+. .| } |  .#. .| |  .%.#. .|  . .T f N Q ` >.i.y.N < d l l K G L L L L K V l l ",
"I U L L L V l l k d k j j d 5 q N N H /  .+. .#. ./ Z Z E ` ` T T T /  . ./ T T T N C ' |  .3.i.~ 7 i l l j l l G G l l K K L K ",
"U U l 7 7 4 1 < * = 8 k l j 9 6 0 b N C !  .%.#._ N M R W W N c T E /  .| ( T ! T N N } 1.3.d.r.: = j l l p 5 4 1 1 < < 4 k U U ",
"U M 6 2 ; ; 0 b c f 7 7 k l k 9 - 2 c C T _ | _ N N _  .} W N T ` | |  . . . .#.| T c ! 2.f.f.} - 4 l l 9 5 1 ; 1 w b c a 7 g L ",
"G 7 5 a r f _ q.r.e.` 2 9 j l d O O 7 f c C T N M W  .%.&. .} }  .X. . .X.#. .%.&.W f f T 2.&.0 9 h j d 5 0 c e f  .e.y.<.N 6 k ",
"4 q c N M W #.3.f.h.y.` 0 9 l s % : 0 : = a M c M C E !  .#.#.X. . . .X. ./ Z /  .! j e - q r 7 h l i 5 e b M N ( :.y.g.g.4.T < ",
"- e N P W |  .%.2.d.j.2.0 4 d 5 5 c f 5 - - 7 f c c f b T W ` +.%. .#.| ! M a f E / b w v : = g l l 7 ; a N C /  .X.:.e.f.g.| o ",
"+ e H T }  .| } | <.d.2.e 4 4 - c C M M N a c T T C C Z C J / | ' } | ` E Z N N R ` Z R ,.b % d l l 7 - c T _  . .| [ #.e.f.O.X ",
"* w N T | %.| | } | 3.<.0 4 4 - c C N E ` ( /  . .} [ ` [ ' | | W [ ( T _ } } } `  .} %.r.N * d l l 7 - c / | X. .| } [ %.y. .X ",
"% e N T | %.| | ` } 3.<.w 1 4 - c N T |  ./ _  .#.#.%.#. .#.#.| ( } ~ T [ X.X. . . .| <.r.v = d l j 8 - c T ' X.%. .| ` %.t.| X ",
"- e C C W |  .| } *.i.2.w 4 4 - f N W #.$.` W W ! } #.%.%.#.} E T E E / |  . . .| | } >.e.v = g L l 7 - f N ! %.%. .| +.2.d.O.+ ",
"1 0 c N N / %.3.e.d.u.' e s 4 - c N T `  . .` Z M W ` / ~ / W T E T / |  . . .|  .*.>.e.i.n * g C l d 2 0 c ! } } ` %.r.f.q.Z 5 ",
"h 7 2 f f c [ r.r.r.} e s l 4 % c C b Z } #.#.` b f N Z C B W } } [ | X.#.X. .} | 1.u.a.3.n ; h l l l d 2 q b b c f _ e.q.Z e l ",
"U k 7 ; + + 2 w w w e h G l 4 - c N b C } #.%.} N f C _ ` _ } #.#.X.#. . . ./ Z } %.e.q.Z 7 t j V K L l h 4 - % % + 2 w r a G K ",
"L K h i p 9 e i 9 9 s K L k s 4 7 f M T | %.#. ./ W W _ +.%.%.#.%.#.%. ./ W N N `  .2.*.0 4 l l l K K L M g 9 9 e p i 7 e G L L ",
"k l K I U U L L L l L M L j j s % w N C ~ _ `  .#. .{ / ` } } ` [ [ { _ Z c M E } | 2.<.5 4 l l l l V L L K H L L L L L L U U L ",
"k G K U Y U U U I L L L K l l i $ w C N N C _  .%.%. .R c c c c c c c c a M / | | } 2.<.0 4 l l K K l C K L L I U U U U U U L L ",
"g k K U U U U U L L L L L l k d * q N M n W |  .#. .R 0 ; - - ; ; 1 - % 2 Z  .X.| } 4.1.w 4 k l l K l L L L L L P U L P U U U I ",
"s G K U U U U U U L L L V j j g 8 2 r b C ` %.%. .A 0 4 6 6 4 5 5 6 = % 5 Z ` +.%.<.i.2.q < d g j l l L L L L L L U U U U U L U ",
"G G K K U Y U U I L L K V l g j d * 2 N C ~ O.,.%.x % 9 d d t t d g 9 2 0 b E | 3.d.i./ - ; 9 t g l M L L L I I U U U P L I Y U ",
"G K K K U Y Y U L I K C l j t d d 4 ; f c f Z | } q * 4 9 9 9 9 8 i i 4 ; 0 r n ,.t.( - % 4 t t g l G L L L L L L P P Y Y Y Y L ",
"L L I I Y I U U I I L K l k d t y 7 1 * % % * : , ; > 4 4 9 y 6 8 e 9 8 4 - % - : 0 - $ = 9 t t j l G L L L P U U U U U P P U P ",
"Y Y U U U Y U U I I K K l j d d 8 8 4 = = ; * $ * = > , 4 4 4 8 9 9 8 9 9 4 = = $ $ * , 4 t t 9 j l G L L L P P P U P Y U U U L ",
"Y Y Y Y Y Y U U I I L K l l j l d 9 9 4 8 9 8 > , > , 8 8 8 8 8 t 9 t d d 9 9 8 8 8 9 e 9 t t d j H G L U U P U L U U U U U U U ",
"Y Y Y Y Y Y U U L I L H K K C L l l d d t d t t 8 8 8 9 9 9 9 t d d g d t d t y d d d g t d g j V K L P U U U U U U U U Y U U L ",
"Y Y Y Y U U U U U P L L L L L L K K K k g g k d d d d d d t t d j j j g g d t d g g d j k k l l K L L U U Y U U Y U U U Y P K K ",
"Y Y Y U K K L L U Y Y U I I I L K H K K j l l j l l l j j j j j l K l l j j j l l l l j j l l l l K I U U U U U Y U U U Y P G G ",
"Y Y Y L K G G L Y Y L Y L I I I I L K K V V l K K V V l l l l l C K K K l V V C L K K l l l k k G K L U Y U U U Y Y U U U K G k ",
"Y Y Y U G G G L Y Y I I U I L I I I K l l L K V K K V C l l K V V V l C V K V V K K K V k k k k l K I U Y U U U U Y U U U K G s "
};
