/* XPM */
static char *player_walk_31678373084[] = {
/* columns rows colors chars-per-pixel */
"64 64 138 2 ",
"   c #060506",
".  c #0A040B",
"X  c #0E0B0F",
"o  c #0F0513",
"O  c #130615",
"+  c #140D14",
"@  c #190E15",
"#  c #141117",
"$  c #1A1117",
"%  c #161218",
"&  c #1E141A",
"*  c #17181A",
"=  c #1D1A1E",
"-  c #21161B",
";  c #231A1E",
":  c #281B1F",
">  c #1F1C21",
",  c #251222",
"<  c #241D22",
"1  c #2A1E22",
"2  c #242324",
"3  c #2C2225",
"4  c #27262A",
"5  c #2B262A",
"6  c #272A2B",
"7  c #2C2B2C",
"8  c #322426",
"9  c #372D27",
"0  c #322629",
"q  c #3B242F",
"w  c #342A2C",
"e  c #3A2D2D",
"r  c #2F302F",
"t  c #2D2E31",
"y  c #312E31",
"u  c #3A2F30",
"i  c #2E3333",
"p  c #333434",
"a  c #3D3233",
"s  c #333837",
"d  c #353738",
"f  c #3A3738",
"g  c #353A3A",
"h  c #3C3D3D",
"j  c #412F2F",
"k  c #422E31",
"l  c #433535",
"z  c #493635",
"x  c #443837",
"c  c #4B3937",
"v  c #47373C",
"b  c #4A3238",
"n  c #453A39",
"m  c #4B3D3B",
"M  c #513D3B",
"N  c #3E403F",
"B  c #405025",
"V  c #46403E",
"C  c #4E403E",
"Z  c #52413E",
"A  c #58433F",
"S  c #515339",
"D  c #5E6635",
"F  c #647F39",
"G  c #403F40",
"H  c #4E3C42",
"J  c #563E40",
"K  c #3E4141",
"L  c #444545",
"P  c #4C4443",
"I  c #474847",
"U  c #474848",
"Y  c #484848",
"T  c #544441",
"R  c #594643",
"E  c #574844",
"W  c #5C4945",
"Q  c #5F474A",
"!  c #5F4D49",
"~  c #614A46",
"^  c #604148",
"/  c #634E4A",
"(  c #694F4B",
")  c #66514C",
"_  c #6B534E",
"`  c #6D584F",
"'  c #664651",
"]  c #694952",
"[  c #6E5650",
"{  c #6D5951",
"}  c #715651",
"|  c #755A54",
" . c #795D56",
".. c #7C5E58",
"X. c #71694B",
"o. c #747D48",
"O. c #756156",
"+. c #7A6257",
"@. c #7D6259",
"#. c #7C685D",
"$. c #815B5E",
"%. c #82645C",
"&. c #84695E",
"*. c #817355",
"=. c #876262",
"-. c #866C61",
";. c #8A6D62",
":. c #906F65",
">. c #8D7365",
",. c #8F796B",
"<. c #917367",
"1. c #927669",
"2. c #96796B",
"3. c #9A7D6E",
"4. c #9D7F70",
"5. c #60822E",
"6. c #949F54",
"7. c #95945B",
"8. c #9BB455",
"9. c #9C806F",
"0. c #9E8171",
"q. c #A48574",
"w. c #A58876",
"e. c #A88976",
"r. c #A78B79",
"t. c #AB8C7A",
"y. c #AE907D",
"u. c #B1927E",
"i. c #96CD46",
"p. c #9ACD4A",
"a. c #B59681",
"s. c #B79883",
"d. c #BC9C86",
"f. c #C19F89",
"g. c #C4A48C",
"h. c #C9A78F",
"j. c #C9A88F",
"k. c #D9B79B",
/* pixels */
"Y Y Y Y Y Y Y Y Y L L Y Y Y L Y I L h s s g h K U I K g g g g g h K L U L U L h g g g g g g g i g i K K U U U U U K K i i g g g ",
"Y Y Y Y Y Y Y L Y Y Y Y L Y L Y I L G h g g h L U U L h g s s g K K U K K K K K K g g g g g g g K g K K K U U U U K K i i i g K ",
"Y Y U Y Y L Y Y L L Y L Y L L Y L L L h K K K L L L L K h d s s g K K K K K h K g g g g K g g g K K K K U K K U K K K i i g K K ",
"Y Y Y I Y Y L L Y Y L Y L L L L L L L L L K L L L L G K K K g g h K K h g g g K K K K K g K K g K K K K U K K K U K K K K K K K ",
"Y I Y Y L Y Y Y L L L L L L L L L L L L L L L G G L L G L h h g h K h h g h K h K h K g h K K N K K U U U U U K U U U K K K K U ",
"U Y Y L L U L Y L L L L L L G L L L h L G L G L G h h L L h h d g h K h h h g K h K K K K K K K K K K U U U U K U U U Y K K U U ",
"I I I Y Y L Y L L L L L L L L L L G K L G h K G G K K G n K h h h h K K h h h K K K K N K K K K K K K U U U U U U U U U U U U U ",
"I I L Y U L L L L I L L G L G G K K K K K n K n h n K K K h h h h h h K h h h h n h L K L L L L K K U U U U U U U U U U U U U U ",
"L U U U L L L L L G K K L K h h h g h h h h h h n h h h h N V h K h h h h h h h h G G L n K L K L L L L L I U U U U U U U U U U ",
"U U L U L L K L G L K h h h g g s s s g K h h h N h h h h h h h h h h h h h h h h h h L L L K L L K K K L I Y Y U U U U U U U U ",
"U I L L L L L L L h p p p y t t 7 f m a 2 4 d h s p a p p a p p p w w t y y y y n P a t p s f f f n P P n t 7 G U U U U I I U U ",
"Y L L L L K K K d 7 3 0 0 0 0 3 0 W #.~ - $ t y 5 8 w w w 0 0 0 0 5 0 0 0 5 1 a { #.T 3 2 3 3 w m [ +.#.{ 0 + 7 K U U U I U U U ",
"U Y L L L h h g 6 3 e z v T Z x R ;.s.e.) m x 2 3 l n n x x a n T W R W R n x _ 0.d.2./ m 0 3 T @.3.4.t.s.&.e - y G I U I U I L ",
"L Y L L L K s t 1 u n m W | ! m | &.3.u.u.y.) $ w Z m n n Z T W  .%.@.@. .( W } ;.r.s.s.e.) 0 z | -.;.3.y.w.-.n - y I Y I L L I ",
"Y U U L L K 7 ; e m n P [ @.) m _ | | <.j.k.@.$ u P m T Z / } } +.-.:.:.;.&.[ / | @.3.d.j.t.m X b }  . ...| 1.<.- 5 Y Y Y L L U ",
"L L L L U K 2 - z P x T  .@.| / R _ | +.u.g._ + w x T ( _  .%.%.%.%.@.%.&.&.W x [  .%.-.3.d.O.  5 } %.| m w #.t.; 4 Y Y L L I L ",
"L Y L L L L 4 $ x m x T | @.%.+./ R ( ..2.q.A + w x m W _ | $.&.&.~ j l b l 8 - e _ ..| | 1.>.z 3 m _ W a z >.q.- 5 L Y L Y L Y ",
"L Y L L L I 3 - l m x Z | &...| W n T |  .| k @ x R T Z m _ ;.&.~ 8 $ @ $ : 8 1 3 l ( ....| 0.1.$ ; P m n / 3.9.& 5 L I L L L L ",
"L U L L L I 3 & x H x T } | W m T m C _ %.&.z @ R ..[ W m / @.( 0 1 8 w w M ~ ~ A j z _ } } q.t.9 & a m ) +.u.e.- 5 I I L L Y L ",
"L G L L L L t - x m n m T W m x W ( T / 1.e.A - ( -.%. .[ ! n 0 3 k Q ' ] | &.=.$.^ q w M _ 2.s.-.e 1 n | 2.d.9.: 6 I L L L Y L ",
"g h K L L L f 3 8 l v n n T ! / |  .(  .r.>.m c } %...%.%.W < @ u v / ..$.$...$.%.$.z - z W #.g.g.c $ z @.y.q.A 5 d L L L L L L ",
"g g h K L L L p & w T C n E | %.&. .@.t.s.Z 8  .+. . . .| T ; @ l v ` 6.6.*.| | %.7.D 8 M T [ g.g.c @ n ;.d.@.$ y G L L L L L Y ",
"g h h L L L L h = 8 l x m E { %.%.;.3.q.<.9 9 &.%. . .| T m 3 & u H F i.p.7.=.=.*.8.F 9 Q W | g.d.x & n | 2.A # d L P L L L L L ",
"h K K L G G K h y 1 1 0 x m m T W 1.;.c e M (  . . . ._ C n 3 - l v S F 5.X.$.%.&.o.B $ l ) ;.g.d.c - e l l l w n L L L L L L L ",
"K L K L G h L L f 7 2 3 3 8 1 & ; m m - ; W %. .|  ..._ C n 3 - a u , & & 1 k k j 1 O . , ~ &.e.u.m + < 2 2 7 h K L L L L L L L ",
"L K K L L K h h f s i 7 2 & $ - ; ; 8 0 u _ -. . . ..._ C n 3 & l z - o , 8 @ O 1 O @ - - M ..;.u.Z O > y p d K K K h L G L L L ",
"h K K K L K N h f d d i 6 $ ; l a w u n T / | @.+...%.| W m 1 @ v ) l 3 / } k 3 A j c M ; b | ;.y.Z + 6 s f N h K G L L L L L L ",
"g g h h K K n h d d s s 7 & 3 Z T n n T / W ~ | |  . .| [ R 3 & u / T J @.:.} [ %.} } R 3 M | :.y.Z % t s f g f h G G L L L L L ",
"g g g h K K h h g f p p r = 8 m C n T _ | _ R T R _ _ ~ W T u 1 1 l P T / _ [ _ [ ) T l n _ ) | e.Z $ r s s s h h L h L L L L P ",
"g g g h h h h h g d s s i = 3 m m x E  .@. ._ T R } } T n a x a 1 1 8 0 0 5 0 0 0 3 3 c } [ x E w.A % 6 s s f f h G G L L L L L ",
"g g g g g h f f g f s s i = 1 m m a W +..... ._ _ |  .) C m T P u < & @ # $ + + + - z } ../ x ) e.A # 6 i s d d h n G L L I L L ",
"K h K h K K h K N h f g p = 1 m V x E  . . . .+.@. . . .} [ } _ m u w w w w w w 0 M |  .W R W #.t.Z * 6 s s d d h K h K h G G h ",
"K L L L L h L h f s d d s ; 3 m m x R  . .|  . . . ...+.%...%...[ ) _ ) _ [ _ [ _ ) ) T n W | ;.u.M @ 7 s d d g h h h h g h g g ",
"I U L n w 5 5 4 > = = 2 7 ; 3 C m x W ..@. .|  . . .%.%.%.+.%.&.%.%.&.@.@.%.=.-.=./ a a C _ %.q.g.R % 7 s d h g h V h h g s s g ",
"I U G y 2 ; - ; w w w w 2 = 3 x C n R | .. . . ...| _ ) _ |  ._ [ _ |  .+.| _ | [ Z x T ) _ >.s.4.z > i d h h K K K L h g g g g ",
"I L d 3 w e w c -.4.3.+.u > 1 5 x m m R | +.@.@.| W m M R ) / C C T /  . .W Z T T n m [ %.%.q.u.c 2 t s p y p t p p d L K h K g ",
"L y 1 u n m P } 1.a.f.s.&.9 < 5 3 u m m E  .%. .~ x m / / T n x R / _  .| _ / ) / m n _ 2.t.f.0.1 * t < < < ; = & & 7 h L L K K ",
"G 2 1 x m E _  .@.>.t.g.u.c > 7 = - u m C ! _ W m Z [ @. .( T W |  .|  . ...+.%.+.T x T -.d.t.~ < > 3 5 1 < a W ! W u 7 K U L L ",
"I < 1 z C / .. .} | ;.a.u.m 2 r @ @ 3 w w v T m n W [  .%.%.|  . .+. .+.%.| }  .%.W a a a | { 5 < 1 0 a a n | q.a.u.#.a y K U L ",
"L 1 < a m _ %...| } } ;.q.c = 7 ; 8 w & $ 5 a a z n n T _  . ... . .....} T x Z [ W x 5 ; ; 0 6 > 0 x n m / ..1.a.h.d.+.0 p L K ",
"L < 1 l m _ %.| | } } -.q.M O < u n x w 3 ; 3 x x a a x m T /  . . ...| R x u a T / z u W 8 = 7 - w m C ( | ..| ;.t.h.3.8 4 U L ",
"L < 1 v m E } ..} } ..q.u.M   - z P n m T M c W ~ W E E R E )  . . .| W E R E T W | W ) 3.M = t & 0 E _  ...| } } -.u.2.8 7 I L ",
"L y 1 u m m E ..<.1.t.s.<.x + - x m m / | _ [ @... . . .| | | ..@.%./ m _  . .| |  .} ;.t.M > 7 - 8 R { .... .| [ } 2.;.0 5 L L ",
"Y G y 3 e u e T >.3.4.;.m w = & a m E ..../ / |  .@.%.%.%... .[ [ | E T } @. . .....| 1.r.c > 7 & 0 Z W | %.+.| } } 4.1.0 4 U L ",
"U L g t 1 ; - 1 l c n l p d < - l m E | @.} / C T _  . . . ._ T Z T E _  .@. . .|  .| <.q.c > 7 ; 0 m T | %... .%.2.u.>.w w U U ",
"K K K h d w w t t w 5 w f h 2 & u n m / | %.| T x m W E R W E E W W _  ... . .|  . . .>.q.c > d 7 3 e C ) ) W { 3.f.q.Q y h U U ",
"h h K K G L L K h h h f K p < 1 a M T / | } | | W Z T Z Z T / | | ..| ( / |  . .| _ ~ @.t.M = f h 7 3 0 w 8 8 e | &.~ y h L L L ",
"K K K K L L L L L L K L h < 1 x T [ | | | R W | | |  .| | | +.%.%.| / m m _  .%...R n [ <.c < s h f 7 ; - & & - 8 8 y G L Y Y L ",
"K K K K K U L L L L K L h < < T { @.%.%. .R m T E | %.%.%.@.%.%.+.( R / ) | | %.| Z / #.C 0 p f L L h p a d d s a p h L Y L L L ",
"K K K K L L L U L L L K h < 1 T _ ) | %.&.| E n n W _ ) ) ) ) ~ / / }  ....._ R Z l O.>.8 > h h h n L K G G L L L L L L Y Y L L ",
"g K K K U L U U L L L L G 7 1 0 9 w l Z R A z 0 0 0 w w w w w 0 w l _ %.%. ._ M x E 9.2.8 > h h n G h L G L L L L L U U L U L L ",
"g g K U L U U K L L K L L f 5 ; & - ; 1 1 1 1 ; ; ; ; - & ; & ; - ; j (  . . .A l #.u.#.0 7 h h K h h L L L L L L U L U Y Y L U ",
"g g K U U U U U L L L L L h p t 6 4 7 7 6 r 6 9 7 y r w r 7 w r w 7 3 u } &.&.| W 9.,.a 5 s f h h K K L L L L L L Y L Y Y Y L U ",
"s K K U U U U U I L L K n g d f s r r r r r r r p s p s f s p s s g 2 : _ 3.t.4.2.u.O.& 4 s p p f h h L L L L L L L Y Y L Y L Y ",
"g K K K U U U U L I L V L f d f s r 9 6 6 7 6 6 6 w r r p p r r p s 6 1 z _ O.| O.+.Z ; 4 r 7 r s h n L L L L L Y Y Y L Y L Y Y ",
"K K K K U U U U L I L L f s i p r r 2 2 = 6 6 2 6 5 7 4 6 7 7 5 6 p 7 2 & & - $ - & 2 r r 7 7 r s f K L L L L I L Y Y L Y Y Y L ",
"L L I U Y Y U U I L I G f d s w r 7 2 = = 2 9 r 6 2 2 2 2 6 r 4 4 w r 2 = = > * * = 6 r 6 7 r r f h G L L Y L Y Y Y Y L Y L Y Y ",
"Y Y Y Y Y L U U I I L G h f s i 6 4 2 2 > 2 2 2 2 > * 2 2 2 2 6 7 7 7 7 r r 6 2 2 2 6 6 2 7 w r f h G L L L Y L Y L Y L Y Y Y L ",
"Y Y Y Y Y Y U U L I L G h f f f r 7 7 4 6 6 2 2 = 2 > 2 6 6 4 6 r r r p r r 6 6 2 4 7 7 7 9 r r f K G L L Y Y U Y Y Y Y Y Y Y L ",
"Y Y Y Y Y Y U U I I L G L L L L V g p r r r r r 2 6 6 9 6 9 w 7 p p p p r r r r r p p s r p s h h G L L Y Y L U L Y Y Y Y Y Y Y ",
"Y Y Y Y U U U U Y L Y L L L L L V N N d s p f p i r r s y w p p f h f f s p r p s d d f f h h h G L L L U U U U U Y Y Y Y L L L ",
"Y Y Y U L K K U Y Y Y L I L L L L L K N h N g g N N f N s s d g g h N h f f f h h f f f h h g h K L L I U U U U Y Y Y Y Y L h h ",
"Y Y Y I K h K L Y Y Y Y I L I I L L N N N N N N N N N N h h h h V N h N h N V N L K K h g g g g g L I I Y U U U Y Y Y Y U K h s ",
"Y Y Y L K h K L Y Y L L I I I I L L N N N V N N V N V N K K n K V h N V N N N V L L K h g g g g h G L Y Y U U U Y Y U U U K g s "
};
