/* XPM */
static char *cGxheWVyX2Rvd25fMw__[] = {
/* columns rows colors chars-per-pixel */
"64 64 157 2 ",
"   c #160C13",
".  c #190E15",
"X  c #1F0E1D",
"o  c #151115",
"O  c #1C1117",
"+  c #1D141A",
"@  c #1C181E",
"#  c #21151B",
"$  c #23191E",
"%  c #281B1F",
"&  c #1F1D22",
"*  c #251D21",
"=  c #2A1E22",
"-  c #252124",
";  c #2C2225",
":  c #2E2922",
">  c #262528",
",  c #2B2529",
"<  c #232C2C",
"1  c #2D2A2D",
"2  c #312427",
"3  c #332629",
"4  c #38272A",
"5  c #352A2C",
"6  c #3A2C2D",
"7  c #2F2E31",
"8  c #332E30",
"9  c #3C2F30",
"0  c #273131",
"q  c #2D3535",
"w  c #343335",
"e  c #3D3232",
"r  c #363738",
"t  c #393739",
"y  c #353A3A",
"u  c #3B3D3D",
"i  c #41352C",
"p  c #413A2B",
"a  c #422F32",
"s  c #423434",
"d  c #4A3636",
"f  c #443837",
"g  c #4B3937",
"h  c #463639",
"j  c #4C3638",
"k  c #453B3A",
"l  c #4B3D3B",
"z  c #523E3C",
"x  c #49542B",
"c  c #4E403E",
"v  c #52413F",
"b  c #5A423F",
"n  c #616539",
"m  c #617234",
"M  c #60713A",
"N  c #3F3F40",
"B  c #403F40",
"V  c #553C40",
"C  c #3E4141",
"Z  c #454545",
"A  c #4A4545",
"S  c #484847",
"D  c #474848",
"F  c #484848",
"G  c #544441",
"H  c #5A4643",
"J  c #5C4946",
"K  c #5E4C48",
"L  c #614A46",
"P  c #634E49",
"I  c #66504B",
"U  c #6B534E",
"Y  c #6E5650",
"T  c #6E5952",
"R  c #725751",
"E  c #715651",
"W  c #715651",
"Q  c #715952",
"!  c #755953",
"~  c #755B54",
"^  c #765B54",
"/  c #735D54",
"(  c #755E54",
")  c #745A54",
"_  c #785E56",
"`  c #7A5E57",
"'  c #7A5E56",
"]  c #7B5F58",
"[  c #7C5F58",
"{  c #7B5E58",
"}  c #73644F",
"|  c #6A7140",
" . c #76734B",
".. c #776752",
"X. c #786157",
"o. c #7F6957",
"O. c #7D6058",
"+. c #7F665B",
"@. c #7E6159",
"#. c #815F5E",
"$. c #80625A",
"%. c #83645C",
"&. c #84655C",
"*. c #81645B",
"=. c #856A5F",
"-. c #88685F",
";. c #86745A",
":. c #8A7B5C",
">. c #856D60",
",. c #866B61",
"<. c #886B61",
"1. c #896C61",
"2. c #8A6D63",
"3. c #8E7064",
"4. c #8C7365",
"5. c #8E7265",
"6. c #917567",
"7. c #937569",
"8. c #937668",
"9. c #96786B",
"0. c #97796C",
"q. c #95796B",
"w. c #9B7F6F",
"e. c #9A7C6E",
"r. c #9E7F70",
"t. c #6C8A3A",
"y. c #6F8340",
"u. c #778B44",
"i. c #85924C",
"p. c #858551",
"a. c #8C8D54",
"s. c #8EA64D",
"d. c #8CAF48",
"f. c #9C806F",
"g. c #9E8170",
"h. c #A18473",
"j. c #A58776",
"k. c #A38573",
"l. c #A68976",
"z. c #A88976",
"x. c #A98C79",
"c. c #AC8E7B",
"v. c #AC8D7B",
"b. c #AF927E",
"n. c #B1927E",
"m. c #B49681",
"M. c #B39480",
"N. c #B79883",
"B. c #BB9A85",
"V. c #BA9A84",
"C. c #C3A38B",
"Z. c #C5A58D",
"A. c #C3A38C",
"S. c #C9A98F",
"D. c #C9A88F",
"F. c #CAA990",
"G. c #D5B398",
/* pixels */
"F F F F F S F Z F Z D D Z Z F F Z Z Z y y y C Z Z D Z u y y q y y C Z Z Z Z C C y y y y y y y q y y y C Z D D D Z C C q q q y y ",
"F F F F F D F F F F F F F F Z S S D Z N C C Z Z Z Z Z C y y y y y C D C C y C u C u y y y y y y y y C C Z Z Z Z D C y q q y y C ",
"F F D F F F F F F F F F F F F F Z F F Z Z Z D Z Z Z Z Z Z u y y y Z Z y y y u C C y u u u y y y C C C C Z Z Z C Z C u q q C C C ",
"F F F F F F F F F F F F F F F F F F F F F F D Z F F Z D D D y q y Z Z C y y C C y u C C C y C C C C D D D Z C Z Z C C C C C C C ",
"F D F F F F F D F F F F F F D F F F F D F F F F F F F F F F C y C C D D C C C y u Z Z D Z C C Z C C Z Z D Z Z D D D D D C C F F ",
"S F F D F F F F F F D F F F F F F F F F F F F F F F F F F F C y C C D D D C y C D F F F D Z D Z D C Z D D D D F D D D D C C F F ",
"F F F F F S F F F F F F D F F F D F F F D F F D F F F F F F Z C C C C C C C C C F F F F D D F D D D D D D Z D F D D D D D D D D ",
"S F F F D F F F F F F F F S F F F S F F F F F S F F F F F F F F C D C C C C C C F F F F D D F F D D Z D D D D F D D D D D D D D ",
"F F F F F F F F Z F F F F F F F F F F F D F F F F F F F F F F F F F F C C y C C D D D D F F F F F F F Z Z F F F D D F F F D D D ",
"Z Z F F F F F F F F F F F F F F F F F F F F F F F F F F F F F F F F F F C C C C C D F F F F F D F F F F F F F F F D F F F D D D ",
"F F D Z F F F F F F F F F F F F F D F D F F F F F F F F F F F F F D F D C C C C D F F F F F D D F F F F F F F F F F F F F S Z S ",
"F Z F Z S F F F F F F F F F D F F F F D F F D F F F F F F F F F F D D C y N C Z F F F F D F F D F F F F F F F F F F F D F S Z D ",
"F F Z F F F F F F F F F F F Z w - & > 8 Z F S S Z w 5 3 5 8 8 5 y w 3 3 1 w u Z F F Z 1 - & - w Z D D F F F F F F F F F F F S Z ",
"Z F Z F F F S F F F Z r = * $ @ @ 9 f : @ 1 , ; 3 s f s s 6 9 e 6 s s f k 6 ; ; 1 q o 3 l 5 $ $ $ $ - 5 Z F F F F F F F F Z S D ",
"Z F F F F F F F Z u 5 5 9 e s 4 e X.f.Y = = 3 9 h l g k l A G G c l k k l l e 4 3 + 2 +.k./ e 5 e e 9 9 , w Z Z F F F F Z F Z Z ",
"Z F Z Z F F F Z w - 6 g A P K l T 9.V.b.=.U s e l l k k H P ( ~ I J k k k c k 2 G ( 4.B.B.8.U c J I G l s = - Z F F F F F F Z S ",
"F Z Z F F F F t , 6 g l K ~ I c ~ &.6.v.Z.v.g = h l H P Q { { { [ ~ P L G l 8 . Q F.A.j.1.&.~ l P X.P A l s ; 1 Z F F F Z Z F Z ",
"F F Z D F F Z , , g l c I O.U v P Q ! 9.D.n.g + 8 l J W ~ ~ Y Y Y Q Q I G G l 4 ( G.A.2.W R P v I O.W z k l s # w F F F F D F Z ",
"Z Z Z D F F u * 2 g l c W O.[ U K P W -.v.w.s % k G H Q *.,.! P J ! { X.{ @.Q H G q.z.O.W P K U ` $.~ G s G s # , F F F F F Z Z ",
"Z Z Z Z F S u * 2 k k l U %.%.` K v P $.2.~ 3 6 I Y I Y W E H a 9 H ~ { { @.~ G G K X.{ L z L ` $.%.~ v h l i O , F F F Z F Z F ",
"y N Z Z F F u * ; g k c W $.Q P H k H ! U G 9 s E I j 4 4 4 6 2 2 a z P ! ~ ! *.( ! I W v k H P Q &.` G k l s O , F F F F F Z F ",
"y u Z D S F u * 3 l l l L I G k v v G Q U l s l H j 4 = 3 4 j z z j s z P I R %.,.*.[ I v G v f G I I l k v s # , F F F S Z Z Z ",
"y N B D F F B 5 3 f g k l G l l I Q U O.` I P P V 8 4 B V V U ! ! U z a s z P @.Y Q *.P H W P l l G l k k l e $ t D F F F F F Z ",
"N N Z F F F F t - 3 l l k G I Q O.O.' ` O.` ( P a 4 h P W ~ [ [ #.#.E j 4 s G T G G J @.W [ O.Q U H k g v 9 $ 1 Z F F F Z Z S Z ",
"C Z Z Z D D D C > = k c l G Q =.O.` ` O.*.*.[ d = e G  .a.a.$.{ { -.p.n i z V P H A v =.2.` &.-./ J g l G 3 . t F F F F D Z S Z ",
"Z C Z Z D D Z u 7 = 3 e l G I / ` ` ` ! Q Q { 4 * 9 G u.d.s.;.[ %.:.i.m p z H I T Y U ` 0.8.` ( I G l s 6 - = B F F F Z D Z Z Z ",
"u N C Z D Z C y r 1 - = 5 e s G ` O.U H z G I ; = s l M t.t.X.! { } M x : a H Y %.O.[ Q / +.f 9 e e e ; = - w Z F D D D S Z Z Z ",
"y y N Z D Z C C u r 1 > - % $ 5 ! Q v l G K H = = 9 5 - ; 2 6 a a a 2 #   $ s I %.$.$.U s 6 # O # = - > > r Z F F F D D Z Z Z Z ",
"y y C Z D D Z C u u C C y & + 3 g J L Q Q ~ G = = 9 9 # X = 2 $ # = # X $ # 4 L W P P J 6 - ; ; + $ N Z F F F F F S Z Z Z Z Z Z ",
"y y y C Z Z D C y q y u y < = g l c P ( @.*.P = * l G 5 a V H 9 2 j a a a 2 4 z P z G P l e g l % 1 F F F F F F S Z Z Z Z Z Z Z ",
"y y y y y y y y y q q y y < ; v c G Y ~ P { I ; * a G V H Q @.Y L ! W I z a a H L k { ( J k v v = w F F F F F Z S Z Z Z Z Z Z Z ",
"N u y y q y y u y y y q q < = l l f P U J J P 9 2 2 9 l V H P P L L L z j j L P G G O.{ J f l l = w Z S Z F Z Z Z B N B u N B B ",
"Z Z C u 8 - - & @ @ 1 y t - % l g f P ! I c v f 9 ; ; ; 3 ; 2 3 6 3 3 4 d L U R W ~ ` ( H f g l = $ y y N N y N N y u y u y y u ",
"Z Z B , = $ = 6 s e 3 w C = ; l l k K ` Q L l v c e ; $ $ $ # + # # ; s P ! ! ! ` { ` ` J s l l = $ q y q y q y y y u y y y y q ",
"Z Z 8 ; 9 9 l +.k.k.+.9 r - % c l f L ` ` ~ U P v v k s s s s e 9 i g H U ! ` ! ~ ! [ O.K f l A ; $ 0 q q q q y y y C C y y y q ",
"Z , 3 s k c I 2.b.Z.m.+.f 5 ; g c k K ` [ ` ( ` U I I U U I I I I P P P I Q ` ` ( { O.! G k l g = > q q q y y y N C Z D Z C u y ",
"Z # 9 l v I ! O.2.x.C.j.g t - 3 k l v P { O.O.` Y P K P I U ! Q ` ! I G G P ` O.{ O.( P c l k 2 - u u u u u N y u Z S F D Z C C ",
"F # 9 l H R ` ! R =.z.k.l 8 w ; 3 k l G I O.$.Q G k v H K G H J K P K H g l I O.%.( P l l f 3 > w D Z S Z Z Z C Z Z S S D D Z D ",
"D # 5 l K ^ O.~ W ! 4.8.k w Z w + ; s c G U U J l J ! ( P l G G l K ! ` P l l I ~ I G l s = o w Z S S F Z Z Z Z Z Z F F F F F F ",
"F + 9 l K ! O.! W W 2.8.f 5 Z t   . 3 e k v v k G W O.$.` Y Q Q W ^ $.$.` K k l G l f e 2   o c Z S F w @ o & & > , w D F F F F ",
"F + 9 l G P { ! ! $.k.g.g t Z Z O $ ; $ = e f e l G K T X.O.{ { O.$.` P G G f k k 6 $ $ 2 % O D Z Z t : 9 s g , # $ * , Z F F F ",
"F * 2 s l G Q 4.w.v.n.=.e k Z t 2 s 6 = $ = 5 f s e f V J U ` { I L G s e s e t ; $ $ ; 9 s ; t Z u = I j.l.w.U 9 9 a ; 5 F F F ",
"F u , ; 6 s v ,.j.j.=.f r c C , s c k k f a k G G l l G G K ( { P v c c l v G v s 6 g k k c s ; Z 5 U b.D.B.r.O.J l k s 3 1 F F ",
"F F N , # O # = 6 6 4 u Z Z C - s c l K I I Y ( ~ Q Y Y U T [ O.! U Y U Y ! ( ` I I U H l c s - u 3 9.D.N.e.%.[ Q J A l 5 # F F ",
"Z Z Z B 8 5 1 7 5 7 r B Z Z u ; e c H ! ~ I W O.O.$.O.O.O.{ ( ` ` O.O.$.$.O.O.` I I ' R v c s = w 3 q.N.6.~ E ! [ Y G l 5 # D F ",
"y C Z F F S Z Z S Z Z Z Z u B - e l P ` ` P H K I { %.O.O.W H H T O.$.$.$.! K J K U #.` J l 9 % 8 3 8.f.~ W R ! O.( G l 5 # F F ",
"y C Z F F Z D D Z Z Z B k u k + s l H W ` ` P l G P P P P J G G K L P P I K k v U ` ` W v l 9 O 8 3 8.e.W U W ` O.Q G l 3 + F F ",
"C Z F F F D F Z Z Z Z Z Z N w O s c k K ` U P G e k G z l K Y W K l l v l e s I ` W U v k c f # 1 3 9.n.2.W ! [ ~ L c c 4 + Z Z ",
"C D D D F S S F Z Z Z B B B 1 # s l k G ` L G G k g K I I Q O.O.R I U I l e l W ` P H v s l s + 1 5 T b.N.h.e.=.P c c s : * D D ",
"C C D D F F Z Z S Z Z Z B B t - ; s k K O.! U U P J P ~ $.$.*.O.$.*.` P K K P ` O.~ I P k s ; - r r 3 T j.j.h.Y s 9 6 ; , N F D ",
"y y Z D F F D F Z Z Z B C c r 1 O 3 l l ( ` [ O.$.` L g Y Y T Y W f f H ! &.$.! ( ` O.( G 3 . 7 u u u 6 6 6 6 % O O $ 1 B D F D ",
"y C Z D F F Z Z A Z B Z C N t r . 4 A l H Y $.O.$.` P g i s 9 s s 6 9 z W $.$.` H W O.{ G 3 . y N u c r 5 1 1 1 1 1 5 Z F F D D ",
"C C D F F F D Z Z B Z Z C c y y O 3 l l G J P P ! W z 4 # $ $ $ $ $ 8 , i P ` $.G H P G e - ; u t N u C Z Z Z Z Z F Z F F F F D ",
"N D F D F D F Z Z Z Z u C u t t @ 3 g k U K G P ` L 6 ; N k N N k u k w O 6 &.2.W K A g = * u k u c c N Z C Z Z F Z F F F F D F ",
"C C D D F D D Z Z Z Z Z C N u u 1 = e g I ` ` O.U d , t N N u N u k u u , 2 g g I z 6 2 = r u u u C Z Z Z Z Z D F S D F F F F S ",
"C C D D F D D D S Z Z Z C C N c r = 5 l G Y &.&.L 2 , t N N k t y y r u u u 1 - ; - , 1 t N k N C C Z N Z Z Z Z F Z F F F F F Z ",
"Z Z F F D D Z D Z Z Z B Z B B k u - 2 g v P [ &.v % 1 u Z u u w q 1 q t u u u u u k N u N k C N B B Z B Z Z Z Z F Z F F F F F D ",
"F F F F F D D D Z S Z Z B B N Z u 1 ; s s l P ! z = 8 u B Z u q < < 0 r u c Z u N u N u N C k u Z B Z Z Z Z F F F F F F F F F Z ",
"F F F F F F D D S Z Z Z Z k B Z u r ; : ; 3 s g 6 1 r Z Z B u q < < 0 y u u k C u k u Z Z u Z Z Z B Z Z S Z Z F Z F F F F F F F ",
"D F F D F F D D S Z S Z Z Z Z u c u - $ # + $ = ; t N Z Z k y q 0 q y u Z Z N Z Z u Z u C Z B Z Z A Z S Z F F F F F F F F F F Z ",
"F F F D F D D Z S S Z Z Z Z C Z C C r 1 > - - , t u Z Z C y q q q u N Z Z k Z Z u Z k Z C Z Z Z Z Z Z Z D Z F Z F F F F F Z Z Z ",
"F F F Z C C Z Z Z F Z Z Z Z B Z C c t 7 1 - - > t c Z C u q 0 q y C Z Z Z Z Z Z Z Z Z Z Z Z Z C Z Z Z S F F F F F D F F F Z C u ",
"F F F Z C C N Z F A Z S Z Z Z Z Z Z Z u y t C Z u u C Z N q 0 0 y Z Z Z Z Z Z C Z Z Z Z N C N N N Z Z F Z Z D D F F D D D Z y y ",
"F F F D N N N Z D D Z Z Z Z Z Z Z Z C u y y u N y y u C y y q q y C Z Z Z k Z Z Z Z u N u u u u u Z Z S F D D D D F D D D C y y "
};
