/* XPM */
static char *result[] = {
/* columns rows colors chars-per-pixel */
"50 50 68 1 ",
"  c #3F1A1F",
". c #171524",
"X c #191321",
"o c #1E1827",
"O c #1F1829",
"+ c #231621",
"@ c #2C1620",
"# c #221925",
"$ c #2A1C27",
"% c #231C2C",
"& c #291E2D",
"* c #311720",
"= c #341E22",
"- c #3C1B21",
"; c #251E30",
": c #132535",
"> c #112A3C",
", c #2D222E",
"< c #33232E",
"1 c #272031",
"2 c #2B2233",
"3 c #312734",
"4 c #342936",
"5 c #392C36",
"6 c #352A38",
"7 c #3A2E3A",
"8 c #3E313C",
"9 c #40191F",
"0 c #491C1F",
"q c #441F26",
"w c #452221",
"e c #4B2323",
"r c #522621",
"t c #5D2220",
"y c #5F2C22",
"u c #583026",
"i c #42333D",
"p c #49373F",
"a c #672B22",
"s c #6B2C21",
"d c #6E3423",
"f c #673827",
"g c #643629",
"h c #733322",
"j c #723B2B",
"k c #793D28",
"l c #704731",
"z c #0F2E41",
"x c #0F3245",
"c c #453640",
"v c #493740",
"b c #473841",
"n c #4C3C44",
"m c #513E45",
"M c #514047",
"N c #594347",
"B c #554248",
"V c #5B4449",
"C c #624647",
"Z c #614749",
"A c #63484A",
"S c #6A4B4B",
"D c #813F24",
"F c #8F4D2C",
"G c #895D3D",
"H c #935835",
"J c #965E3C",
"K c #B17544",
/* pixels */
"MMMMMMMMMMMMMMMMMMMMmmMmmc88nMMMMMMMMMMMMMMMMMMMMM",
"MMMMMMMMMMMMMnMMMMMMmncc86;2cnMMMMMMMMMMMMMMMMMMMM",
"MMMMmMMMMMMMMMMMMMMbn82;;;266nnMMMMMMBBBMMMMMMMMMM",
"MMMmMMMMMMMMMMMMMnn6;;;;;;6nMMMMMMMmMBBmMMMMMMMMMM",
"MMMMMMMMMMMMMMmmc2;;;;;;;;7nMMMMmBBBmVVmMMMMMMMMMM",
"MMMMMMMMMMMmMm8321;;;;;;;;27nMBBBmmBmmmmMMBBMMMMMM",
"MMMMMMMMBBMm662;:;;;;;;;;;;2678bmVmZAmmmBmBBBMMMMM",
"MMMMBBVVAVn611;;;;;;;;;;;;;;;;7mAAAmZAZmBBBBBMMMMM",
"MMMMMVVAAAp1;;;;;;;;;;;;;;;;;;bVZAVVVVNmBVVBBMMMMM",
"MMMMMVAAAVi1;;O%O;O;;;;;;;;;;;cmVZZVVZZZVVBBBMMMMM",
"MMMMMBAAAi1;OXXXXXX%%;;;;;;;;;;cmZZmmZSSAVVBBMMMMM",
"MMMMMBVVB81%XXXXXXXXX.;;;;;;;;;;cVm72vZSSSABBBMMMM",
"MMMMMMMMM7;;XXXXXXXXXXX;;;;;;;;;266;;26cVSSVVBBMMM",
"MMMMMMMMM7;%XXXXXXXXXXX;;;;;;;;;;;;;;;6mSSSAVBBMMM",
"MMMMMMMMM7;%XX>:.XX>:.XO;;%OO;;;;;;;6cnVAVAAVBMMMM",
"MMMMmMMMM81;XXz>.XXz:.XX%;%..%;;;;;27ccnMMBVBBMMMM",
"MMMMMMMMNp,1.X..XXX...XX%;OXXX;;;;;c4;2;36vmVBmMMM",
"MMMMMMMMNVp,1.XXXXXXXXXOXXXXX;;;;;;;;;;;3vmZBBMMMM",
"MMMMMMMMNSp,11.XXXXXXX%XXXXX%;;;;;;;;;;4nmZmmBmmMM",
"MMMMMMMMNANi111%OO.XO%%XXXXX;;;;;;;;;;;;666vmmmmMM",
"MMMMMMMMBAM511ooO;;%;;%XXXOO;;;;;;;;;;;;;;;;cnmmMM",
"MMMMMMM88p51###..OOO;;%XXXO;;;;;;;;;;;;;;;;;27nmMM",
"MMMMMn8222,OX++XXXXOOOOXXO%;;;;;;;;;;;;;;36666cmMM",
"MMMMMn21%%O.XXXXXXXXXXX.XO%;%%%O%;;;;;;;;cnnc6cmMM",
"MMMMbc12@@+XXXXXXXXXXXXXXXOOo++X%%%;;;;;1cMMnnnMMM",
"MMMM822gssy XXXXXXXXXXXXXX.O+-q*oX%;;;;;;28nMMMMMM",
"MMMMi<glst*@XXXXXXXXXXXXXqjGHkhq+.%;;;;;;;268nMMMM",
"MMMMi<sst0*XXXXXXXXXXXXXX@gJKFsq+X;;%%%;;;;;6bMMMM",
"MMMMi$qq@@@XXXXXXXXXXXXXXX kHfq@XX%;%;:;;;;;28nMMM",
"MMMM5&&+XXXXXXXXXXXXXXXXXX@0u=+XXO%%%;;;;;;;;3cMMM",
"MMMmc2%XXXXXXXXXXXXXXXXXXXX++XXXO%%.O;;;;;;;;38MMM",
"MMmmnc&XXXXXXXXXXXXXXXXXXXXXXXXXXX..O;;;;;;;:28MnM",
"MMMMMMi1XXXXXXXXXXXXXXXXXXXXXXXXXXXX%1;;;;11112cMM",
"MMMmMMM#X,3#XXXXXXXXXXXXXXXXXXXXXXXX;;;;168c7218nM",
"MMMMp33oX58%XXXXXXXXXXXXXXXXXXXXXXXX;;1%16cnn838MM",
"MMMM7#32,ii1XXXXXXXXXXXXXXXXXXXXXXXX;1%1117nMb68nM",
"MMMM83nnnNi1%XXXXXXXXXXXXXXXXXXXXXX#%121:17nMn8cnM",
"MMMMnbMBVNi11XXXXXX.XXXXXXXXXXXXXXXoo,31;17nMnnnMM",
"MMMMMMMMmi211%.XXX#5,+XXXXXXXXXXXoX%o%%1;;7MMMMMMM",
"MMnMMMM643111%oXX#5mb<oXXXXXXXXXoO17i,,53;7MMMMMMM",
"MMMMMMM1%6ii&;oXXomNMp4.XXXXXoO%112bM5<i3;immVmmMM",
"MMMMMMM87nNm%#XXo5mMMMb3.XX.O621%12cM73ic2pmmmBmMM",
"MMMMMMMnnpi5XX&,5nMMMMMp#o.O2b61112cMiimmvvmBBmBMM",
"MMMMMMMMmi,#X&5nMMMMMMMp,#O16M62335pMmmVAVVVBBMmMM",
"MMMMMMMMMn5#&7nBMMMMMMbi1#,4cM68cbbMMMBVAAVVBBmMMM",
"MbMMMMMMMMniinMMMMMMMi33116cMMbbMMMMmBVVVAVBBBMMMM",
"MMMMMMMMMMMMMMMMMMMMM5O158bMMMMMMMMMMBBVVVBBBBMMMM",
"MMMMMMMMMMMMMMMMMMMMi,%7nMMMMMMMMMMMMMMMBBBBMMMMMM",
"MMMMMMMMMMMMMMMMMMMM866bMMMMMMMMMMMMMMMMnMMMMMMMMM",
"MMMMMMMMMMMMMMMMMMMMMcbMMMMMMMMMMMMMMMMMMMMMMMMMMM"
};
