/* XPM */
static char *player_d_31678373082[] = {
/* columns rows colors chars-per-pixel */
"64 64 84 1 ",
"  c #190F16",
". c #1B1017",
"X c #1D161B",
"o c #1E1B1E",
"O c #20171C",
"+ c #22191E",
"@ c #251D22",
"# c #291E22",
"$ c #262224",
"% c #2B2226",
"& c #2C2629",
"* c #2D2B2C",
"= c #322629",
"- c #342B2D",
"; c #3A2C2E",
": c #332E31",
"> c #3B2F30",
", c #2E3434",
"< c #343334",
"1 c #3B3334",
"2 c #373638",
"3 c #3A3638",
"4 c #353A3A",
"5 c #3C3D3D",
"6 c #412F30",
"7 c #433535",
"8 c #433837",
"9 c #423738",
"0 c #433B3B",
"q c #4B3C3B",
"w c #513E3D",
"e c #4E403F",
"r c #52403E",
"t c #3E3F40",
"y c #413F40",
"u c #3F4040",
"i c #444545",
"p c #4A4544",
"a c #474847",
"s c #494847",
"d c #474848",
"f c #494948",
"g c #544442",
"h c #594643",
"j c #554946",
"k c #5C4946",
"l c #544D4B",
"z c #5D4E4A",
"x c #5A514E",
"c c #634E47",
"v c #624E49",
"b c #65514C",
"n c #6A534E",
"m c #70544F",
"M c #645551",
"N c #6C5651",
"B c #6E5953",
"V c #715751",
"C c #745B54",
"Z c #795D56",
"A c #775F58",
"S c #7A5F58",
"D c #6F6159",
"F c #796157",
"G c #76645C",
"H c #7D625A",
"J c #7E695F",
"K c #7B6B61",
"L c #81655C",
"P c #83695E",
"I c #846B61",
"U c #8A6C62",
"Y c #847166",
"T c #8D7569",
"R c #8F7B6E",
"E c #917166",
"W c #917568",
"Q c #947A6C",
"! c #9A7C6D",
"~ c #9E7F70",
"^ c #9E8171",
"/ c #A58575",
"( c #A88977",
") c #AE8E7C",
/* pixels */
"fddddddddddpdddddiu444uuiiuu4444uudaiauu444444,44,4uufffduu,,,44",
"fddddddpdidddiipdiu544uuiiuuu4545uuuuuuu444444444uuudffdfuu,,,44",
"sddddpddddiiiddidiuuuuuuiuuuuu555uuu4u55u4u4u444uuuuuuuuuuu444uu",
"dddsddidpdiddiiiiiiuuuuuuuuuuuuu5u4455454u444u4uuududduuufuu4uuu",
"sddidddpidpdiidiiituuet5uuuiiiuu5u54455455u5uuuuuufffuudfufuuuff",
"sdsddpdiiiiiiiiiiieu5t5555uuiiiuu555u54u55uuuuuuuuufffddfffuudff",
"sdddddididiiiiiyiuutu54555uuuduu555uuuu555uuuuiiuuffuffuffffffdd",
"sisiiiiiiiididiiiuuu5555555uuuuuuuuuuuu55uuuuiiiuufufuddudfffffu",
"dddiiiiiiiidiiiiuuuut545555uuu555uuuuiuuu5uuiiaifuuuuuuffdfffuld",
"idddiiiiiiiddidiiuuut555455555555uuuaiuu55uuiiiaffuuuufufuudfdud",
"ddiiiiiiiididddiiiuu555555555555uuudaueu5uuuiaiauuuuufuffuffluff",
"diiiiiiidiiddpddaiiu554555555555uuduuuut55uaiiaaufuuuufufdffdddd",
"ddiiiiiiiiidipddaiuu555555555555uuuiuuttu5uiiaiiffuuuffffuffuduf",
"iidiiiiddddpddiddiiu55555uuu55ttuuuiiitiuuuuiiaiuuuuuuulfffudduf",
"idiiiiiddddddpddaiiuu5555uuuut5tuiiuuuiuuuiiiiiifuufufuffuffufff",
"idiiiiiiididdddiddduuuuuuuuuu5ituuuiiiiuuuuiuiiiuufufffffffuffuf",
"diiiiiiyidididaaidiiiuiuuiuituiyui0iii0ii0iyyiiifuffidddiiiiiidi",
"ddiiiiiiiiididaadidiiiiiiuiuuitiiiuiiiuiiiiiiiiiufufiddiiiiiiidi",
"pdiiiiyiiiiiiiaaiiiiiiiiiiiiuittiitiuiyiiiyiiiiiufffddidiuiiiiii",
"tiiiiiiiiiuiiiiidiiiiiiiiitutiiiuiiiiiiiiiiiiiiifffuididiiiuiiii",
"4ttiiiiiuduiuiiiiiiiiiiiiuittyiyii5iiiuiiiiiiiyiufdddddddtiyuiii",
"4ttuiiiiiduuuuiiiitiiiiiiittutiiiiiiiiiiiuiiiiiidfdfduduiiiiiiii",
"4ttiiiiiuuetuiuiiiiiiiiiuuutuiyii0iiiiiiiiiipiiiuduuddddiitiyiid",
"tttiuityuuutiiiiiiiiiiiuitiuuiiiiiiiii0iiiiyiiyifddduuuditiiiiii",
"uuuiuuuuuuiiiiiiieuuiiyyitiiiipiiiiiyiyiiiiiiiiiiiiuuuuutiiitiii",
"uuiuuuutuiiidiiiiiiiiiiiiiiiiiifffsiipiiiiiiiyiiuiiuu5uutiyiiiii",
"5tuuu55utuiiiiiiiiiiiiiiiiy52<<255isissiiiiiiiiiiiiuuu5utitiyiii",
"455uett0t5tiiiiiiiiiiiii04:=#%#%##:iy550idddiiiiiiiuuuuuttiuiiii",
"444555555teuuiuiiiiiidiy:&=;30yy1&:0:#@&2ydiiiiiiiuiti5euuiyiiii",
"444455555555tueiiiiiisd2@=8yjlxls30q-==&##&:1iiiiiiui5i5u05iyiii",
"4445555434455teai0411<2:&0zjq0jxp087719>$@O@$<iiiiiiuiuiuiiuiiii",
"tt555545523545ti4&@@@X%2izMq##3zl>;wyggq931:#$<iiiiiiiiiuuut5uut",
"iuiui55541452&-7=#&==;>ynmy;##5ls:;gNVnhycch6##3yiiiiiiiyytt5445",
"iii0i5it55512%#%%7ypyyyvCLh;7yifd1-wNCNNbvcyw=#;ppiipiiiiyt44444",
"iiiii50t05452%@=6kVNVVnVZZzyjllffy-;yVCHSbygyw==tyiddiiyuytt54<4",
"iiiiiiiie5452%#>qNSLSSZZZCNvzliiff3&6yzNmy7ymy#O>tyiiiiiitiittt4",
"iiiiisiiuu552=&7yVLSVZVLZnvnxp3<yfp3===;-##9z7@#3tyfiiiiiiiiuiuu",
"iisidiiiiii55<<-6hZZmcvmnghnvj7&&<yiy6:-::&#;#@1yyyddpiiiiiiiiii",
"diiiifsiiiiu55y-O=wcyhhnccywqq09-@&tflpiyp3&#&:ifdiiidiiisdiiddi",
"iisfdfiffaiiy30> .6ycnnmnc76;0bDM9@-pllffffiyyiiffdidiifsiidiidi",
"diidddddddfdy:6=+6ymZLVh;=>8wvZURYh3ydsfffffffffdddpdipfisisisip",
"sdsdsissffffy:6y66yNmVnq@@7vNZZSYRKjtiddfdfffffdiddiiidididdsiid",
"issdsdddfdyt919zh;>kvvc7@@8vZLZVCETz:tffdffdffffdddddppddddipddi",
"ddidsddddy<&#=1sg>>gbnnq##7hNZZZIQK0@tffdffsffiidpiddddisidsdidi",
"pddssdiyt:-=##=:7yjhlbNh6;6qwccnIIg#O3lfsfffffifddidddddfidiiidi",
"dddsd0:==qhzh9##>yvzhzNNcwq667;=76;#O3ffffffdfffdidppfidipddiddi",
"idddy1-;9nHIKny->9ghgkNVvvw;6ww;;6w8#&yffffffdiidiydifddfpdpiiid",
"iidi33qhBSHSSLVy-&9ghznnccgwhVSZVZZv7#&3ipdidffdiiididdidddiddpi",
"tudt=>gnSSNMAKZy%+>jzkccbbnCZSSZSSVzj0#X+$+&4uaaiyiiisiiidsiisii",
"tti5#;gnLSNNSLZq+@8rbbcnVFZLSCncNNvvNMi1*-*=,eaayt2<380eiddfdidi",
"4tut&-8gnSIILLb:o-erbVCnbnVmbchkvvNNACNxllxp35e4::->q877asiidiii",
"4tii3:>:7hCGCnp&o*eecFFnhhbckhznNNCHSNvMDKGx333*=-8MLLrqpifaddid",
",tuffu&&&;30y01&@=eerCFnhrknnnVHSHLZnhgvJQG9$*>7qymU()Eh7yddddid",
",4ufut:t542432<:$#=ercncrqrvcnVnVVnhqqhnL~F%.+-ecLLLE)~c=2ffsisd",
"ttuuuttdfsdut3<4<o$errccchbbgwhrw8>;8cmmP(J#Xo=rcLLmV~~m=1dfddid",
"uuuufduddiue52<2*@@7ermLLUWFq;77>=@O7VLP/)H%o@=eyVLLE(~c=2dddisd",
"iiidddddsiii42<,,$o=errVP^^n;$=e1-$+-rn!)^eOo$%-7qvU/^N--tfffddd",
"fffdddddddiy51<,*$oo#==ercr;$$=11-*%$#;cB7Oo@**###-ykj7-1yfdfddp",
"ffdffddddiiyt553<*$$o$$o%=%$&***<*,,$@@&*@@&***$&**::<3tyidddddp",
"fffdffddssiieuue55,,*<**$$******<<<<,*****<<,***2iiuiidddddddddd",
"ffffddddfiiiuiiiiu444<4,,<<<<::<<444<<,<<<234422yiddfdddffdddpii",
"ffdduuudfffdidiiiiuu555555844<4355e5434355455554tiidddddddddditt",
"fffiuuuiffidaaddaiuu55u5uu5555555e5u55e5i5t544445uddddddffdddu44",
"fffiu5uiffddiaadeiu55eu5uue555uu5uu5euuuiit554445yddfdddfddddut,"
};
