/* XPM */
static char *player_atk_21678373085[] = {
/* columns rows colors chars-per-pixel */
"64 64 133 2 ",
"   c #050305",
".  c #0C050C",
"X  c #0E0B11",
"o  c #110711",
"O  c #140C13",
"+  c #190F15",
"@  c #160A19",
"#  c #1C0E1B",
"$  c #151215",
"%  c #1C1117",
"&  c #161218",
"*  c #1C141A",
"=  c #1E1A1D",
"-  c #21151B",
";  c #231A1E",
":  c #281B1F",
">  c #1F201F",
",  c #1F1D21",
"<  c #241D21",
"1  c #2A1E22",
"2  c #301F24",
"3  c #242324",
"4  c #2D2225",
"5  c #262529",
"6  c #2A262A",
"7  c #272929",
"8  c #2C2C2C",
"9  c #312326",
"0  c #342925",
"q  c #332629",
"w  c #342A2C",
"e  c #3B2C2E",
"r  c #2F302F",
"t  c #303520",
"y  c #3F322E",
"u  c #2C2F31",
"i  c #3E2133",
"p  c #312F31",
"a  c #3C2E30",
"s  c #2E3434",
"d  c #343434",
"f  c #3E3233",
"g  c #343837",
"h  c #373738",
"j  c #383738",
"k  c #353A3A",
"l  c #3B3D3D",
"z  c #41312F",
"x  c #412F30",
"c  c #433535",
"v  c #493636",
"b  c #443837",
"n  c #4A3937",
"m  c #4B3739",
"M  c #463939",
"N  c #4B3D3B",
"B  c #523E3C",
"V  c #3F403F",
"C  c #4A552F",
"Z  c #4E403E",
"A  c #53413E",
"S  c #58433F",
"D  c #5B5A3D",
"F  c #58782B",
"G  c #637A32",
"H  c #4D3C41",
"J  c #3E4040",
"K  c #444545",
"L  c #4B4544",
"P  c #474847",
"I  c #474848",
"U  c #484848",
"Y  c #544441",
"T  c #5A4643",
"R  c #574A45",
"E  c #5D4A46",
"W  c #5D424B",
"Q  c #5F4C48",
"!  c #614B46",
"~  c #634E49",
"^  c #6A4F4C",
"/  c #66514C",
"(  c #6B534E",
")  c #6E584F",
"_  c #70554F",
"`  c #6E4854",
"'  c #71465B",
"]  c #75495C",
"[  c #6E5650",
"{  c #6F5A52",
"}  c #715751",
"|  c #745A54",
" . c #795E56",
".. c #775658",
"X. c #7C5E58",
"o. c #677341",
"O. c #697042",
"+. c #786156",
"@. c #7D6159",
"#. c #82645C",
"$. c #83695E",
"%. c #857F54",
"&. c #866660",
"*. c #896564",
"=. c #856C61",
"-. c #8B6D62",
";. c #8D7265",
":. c #907266",
">. c #937669",
",. c #95796B",
"<. c #9B7D6E",
"1. c #9D7F70",
"2. c #8A8856",
"3. c #8CBF43",
"4. c #9ABD4E",
"5. c #92AA52",
"6. c #9AA857",
"7. c #9E806F",
"8. c #9E8171",
"9. c #A38574",
"0. c #A58876",
"q. c #A58A78",
"w. c #AB8D7A",
"e. c #AF907D",
"r. c #B1927E",
"t. c #B59581",
"y. c #B79883",
"u. c #BB9B85",
"i. c #BE9F89",
"p. c #C09E88",
"a. c #C3A38B",
"s. c #CCAB91",
"d. c #D8B69A",
/* pixels */
"U U U U U U K K U U U U K U K U P K J k g k l K I I J l k k k k k J K I K I K l k k k k k k s J s s J J J I U I I J s s V s s J ",
"U U I U U U U U K U K U U U K U P K J k k k J J K K J l k k s k J K K K J J J J J k k k k k J s J s J J I I I I I J J s s s s J ",
"U U U U U U U K U U U U U K K U K K K J J l J K K K K J l k k k k J K J k J J k l k k k J k k s J J J J I J J I I J J s s J J J ",
"U U U P U K U U U K K K K K K K K K K K K K K K K K K J J l k k k J J l k k J J J l J l J k J J J J J J I J J J J I J J J J J J ",
"I U U U P K U U K I K K K K K K K K K K K K K K H J J K V V l k l J J l J k J J J J l J l J J J J J I I I J I J I I I J J J J I ",
"P U U K I U K U K K K K K K K K J K K J M K l J J J V J J l l l l l l J l l l l l l J J J J J J J J I I I I J I I I I I J J I I ",
"P P P U K U K K K K K K K K H J J J l K J J J V l J J V J J l k k l J l l J l J l J J K J J M J J J I I I I I I I I I I I I I I ",
"P P K U U K K K K K K K J K J J J Z l J J l l V J l l H M J l l l J l J l k l l l K J J J K K J J J J I I I I I I I I I I I I I ",
"P P I I K K K K J K K J J l l l l k l l b l M V l l l l J M l l l l l l l l l l l J J V J J K K J K K K K K K K I I I I I I I I ",
"P I I K K K K K K J J l l l k l l k j l l l l l l M l l l l l l l l l k l l l M J H J J J J K V K K K K K K U I I I I I I I I I ",
"P P I K K J J K J J l l k k h g g k j k l l l l l l l f l k b l j l l l l j k l M l l V l J J J K J H J K K K K J I I I I I I I ",
"K P K I K J J J l k k k g g d s g g j k k k f j l l l l k k k k l j l l l k j k l k l l V Z J l l K K K K I K K I I I I I K I I ",
"I I K K K J k J k k h s s s s s d s s h j j j j k k k k h h h k j d h j g k h d k l j j l V Z l l J J H J K K K K U K I K I I P ",
"I K I K K l l k k k s 7 5 5 3 3 5 3 3 5 w h j d w w w w 8 w w w 4 4 6 6 6 q 4 8 L R d 5 5 w d r 8 6 5 7 8 d J K K K K P K I K P ",
"I K K K K l k k k s 5 < < = = = = 3 w ; O = d s ; 4 c x e e w w y a a a e w 6 B -.9.( w ; % O ; 6 w p w 4 & , l U P K K K P P P ",
"K I K K K J J l s < 1 q q 9 6 4 q Q ;.Q $ X 8 5 % w Y Z Z N b L [ { { { ( T Y  .9.a.r.$.) 3   % B +.@.=.| 1 . 5 H P K P K K P K ",
"I K K K K J K J 5 < a b Z R R M Q :.u.e.[ A b < 1 c N b b Y E ~ #.$.#.$.#.[ ! [ @.>.r.s.a.$.1 + ! <.w.y.a.;.e * 6 l K P K K U K ",
"U U I K K J l u 4 a N Z E | ~ N | -.<.t.y.t./ * p N N T E [  . .#.*.-.:.:.-.[ T |  .:.w.a.i.Q   b &.:.<.t.q.$.B * d K P K U U K ",
"K K K K K K p < e N N N ( @.~ A [ | } ;.a.d.+.O w N L ~ [  .@.#.#.} ^ ( [ [ B w T | #.@.-.w.=.* 4 ! }  . .{ ,.:.- 6 U P K U K U ",
"H J J K P I 6 * b Y b A | @. .~ E / } #.r.a.) O w N B T E { #.&. .m 2 2 q q 1 - q T | |  .=.>.~ - w ( } B d =.w.- 6 P P K K K K ",
"k J J J K P 6 # c N b L | #.#.X.~ Y ~ X.>.<.A % B ~ ! Y N ^ -.X.B 1 ; - ; q x x x e S X.X. .9.1.* * R T f b ;.0.- 6 K K K K U K ",
"k k J J U U 4 - c N b Y | #.X.[ E N T | X. .e - ~ #.X./ T ! ( B 2 9 b N m ! }  .( v x S ! } 9.t.A 3 y b N ~ <.8.- 6 K U K K K K ",
"k k V J K K 6 % v Y b Y [ | T N B N A / #.-.v O ^ -.@.#. .Q w ; 6 b W ' ] #.$.$.*.` i 1 b ~ :.i.9.z - b / #.t.e.% 4 K K K K K K ",
"J J Z K K K 6 - c L b b Y T b c E / S E <.r.E % ! #. .@.#.E = O c N ! #.#.#...| #.$.B - M R | a.s.B O b X.<.p.<.1 5 K K L U K K ",
"J J K K K l j 3 4 c N b b R E ~  .X.^  .w.;.n N _ @. .| / Y < % a H O.4.4.%. ...#.6.G 0 T T / a.a.n O b #.w.9.B w h K K K K K K ",
"J K J K K J H s * e R N b R | #.#.X.#.w.r.Z 0  .@. . .) Y M 4 - a H o.3.3.2.*.*.:.5.F 0 H ! @.a.y.v + N -.i.#.O u J J K K K I K ",
"l J J J J K P k - 9 c b Z R [ #.@.-.>.9.;.y z #.#.| @.) N N 4 * c f f C C R ` [ ^ D t # a ! -.y.y.n * N | >.E $ h K J J K K K K ",
"k k l V K J M l u 3 1 q c b N N T $.$.N x N ~ X. . .X.( N b 9 - c a - @ # 1 1 1 2 - o o ; T #.1.r.B * e z c f 8 l K H J K K P K ",
"k k k J l V J l h 8 3 3 9 4 1 - ; N n ; ; N } @.X. .@.} A b 4 * b T 1 + i n : O q - : 2 - n | ;.w.A O ; 5 5 8 k K J J J K K K K ",
"k k k l l l l l k h s 8 < * % < ; ; 4 d b N E #.#.X.@. ./ Y 1 + b / N y } $.S v _ S ! ! : c  .:.r.B o < 7 u d l l J K J K K K K ",
"k k k k l k l k k j h h 8 * ; c b w f E | E Y / ( | | [ [ R q = w R R E @.-.#. .$.#.} B 0 ! | $.e.A O 5 s g k k l J K H K K K K ",
"J J J l l l l l l j h g d , 4 Y Y N E | X.| E N N ( / T Z N f q ; w M Z A A T R T H x q ! } R / q.Y & 7 d h j k l l l J l J J J ",
"J K J J K l J J l l j l h < 4 Z Z b Q X.#.@.} T E [ | T f f b c 9 < ; ; - * - - * * 1 T X./ e R 9.T & u d k k k l l l l k l k k ",
"K K K M K J J M l l j j d ; 1 B N b E X.X.X.| | |  . .[ E R Q E f 1 * = * = * * * 4 T | } ! N | w.A & r k k l k V M l l k k k k ",
"K K K K l K l l b l l k h ; 1 H Z b E X.X. .X.#.X. .X.X.| |  .[ T N b b b N b b b T [ [ Y E [ :.t.T & s k l l k V V l l k k k k ",
"K K K K K l K l l l l k s * ; f w w b ~  . .| |  . .X.#.@.@.@.#...| | | | |  .@. ./ Y N N [ } X.,.b X 5 7 8 s Z J J K J J J l k ",
"P K K K J K J l l k l d < * + < ; * - x ! | | |  .@. . . .@.@.@.X.@.@.@.@.@.@.#.@.E f N ~ | T c n ; O * * * 5 g J Z l K K J K J ",
"K K K K K J J K l Z d 3 4 4 < q Q / E A x ! #.#.@.( E R E { | ! E Q / X.X./ Q ~ E N N /  .S e q q 1 f ! / Q e 5 k K K K K K K K ",
"K K K K J J J J M j 6 9 f b f Q >.r.r.,.A v / #.{ N c Z T Q Y c N Y ~  . .Q B Y Y N T ( ! e w c d b | 9.r.r.$.w u k K K K K K J ",
"K K K K H K K K J 3 1 c N N E | $.0.a.a.<.v v | R b T | [ T c N / [ [  . .| } | ) Y N v q e b b N ^ +.:.r.a.a.$.; 6 K K K K K K ",
"K K K K J J K K V < < b Z Q |  . .#.<.p.y.v 1 A N E  .#.@.[ ~ /  .@. . .X.@.@.#.@.E b p - w M N ~  . . .-.w.s.9.- 5 K P K K K K ",
"K K K K I K J K K = : c N / @. .} ) #.0.w.n * f b E / ( @.@.@.X.X. . .X.X.[ ~ [ @.Q b a * q R / | X. ._ } $.r.9.- 5 K K K K K K ",
"P K K J K K K K K ; : c Z ( #. . ._ } -.9.n O w c b c N Q / | @.@. .@. ./ N f N ~ ~ N 1 % w R ( X.X. .| } | <.<.- 5 P K K K K K ",
"K K H J J J K K K < : b Z ~ X. .} _ } >.q.N * b L N b N Z Y ~ | { |  .( R N b b Y / T ; o w N E | #.X. ._ | w.9.- < P P K K K K ",
"P J J J J K K K H , ; b N Y / +.@.@.;.e.9.c 4 ! [ / / / / ~ | } E ) ( T ~ / / ~ / | _ n : w c Y | #.X.| #.<.u.>.< 6 P K K K K K ",
"J J J J K K K K K d 6 q b N N | <.0.r.w.( e n  .#.@.X.@. . .X.| / } ~ Z [ @. . .X.X.X.X.( c w A ~ / Q } 1.u.1.N p j K U K P K I ",
"l l J J K K K K K J f 3 9 q q z } @.@.( v n E ! [ X.#.#.#.#.| ~ E ~ E T | @.X. . .} _ -.7.B % q w q 4 z _ #.B u l H K K I K P K ",
"J J J l V K K K K K J h 4 * O % : 3 - e ~  ./ N M ~ | | } [ ! A B N E |  .|  . . . .@.<.w.B . * - * * - < 1 8 l K K K I K K I K ",
"J J J J J K I K K K K l k p = + q e w v } #. .Q b b Y Y A Z E / / / [ X.X. .| |  .:.0.r.w.N * w h d d h d d j K K K K U U K K K ",
"J J J J K K K K K K K J K l 3 % b L N A | @.#.[ b a N Q E E /  .X. . . .@.@.( E { -.w.0.) w 8 l Z V K J l K K K K K K K K U K K ",
"k J J J J I I I K K J J K l 8 < w b b Y | #.@.| T L E / |  .X.@.@.#.@.X.) ^ Y N /  .<.;.w < l l V V J J J K K K P K P U U K I K ",
"k J J I I I I I K K K K K l k 8 ; w Z Y / } |  .|  .[ / |  . .| | |  ./ A N b Y ( | >.-.4 3 l l k H l K K K K K K I K U U I I K ",
"s J J I I I I I K K K K M l k d + 9 N N Z S ! #.#. .} ~ T A A Y A A A B b c T { | | 1.:.w < l k V V K K Z J K K U K K U K K U K ",
"s J J I I I I I P K K J J k l d % - e b M T | #.X.T e e 1 ; 1 ; 1 < < q c N E +.#.:.y.>.0 ; d h k l J J K J K I K K U U U U U U ",
"s J J J I I I I P K K K M k h h 4 O 3 N L ! +.-.#.x o * < ; = = = ; ; ; 4 b T | <.i.e.! - > 8 r h l M K K I K K U U U K U U U K ",
"J J J J I I I I P K P J l h r d d ; 1 e c c A } _ q * 3 8 8 8 8 8 s 8 3 ; 4 e N :.w./ % O 5 8 r h k V K K K I P U K U U K K U U ",
"K K I I I I I I P K K J l h d w r 7 ; = % * * : : > > 3 3 8 8 7 8 8 8 7 > - * - 1 q - O ; 8 r d j l J K K K K I U U U K U K U U ",
"U U I I U I I I I K K l l k h s 8 7 3 = = = = $ $ = > > 3 7 7 7 8 8 8 8 8 3 = = $ $ * > 3 r r w h l J K I I I I U K U K U U U K ",
"U U U U I U I I P I K H l l k l d 8 8 8 7 8 7 3 > > > 3 8 7 5 7 8 8 r d r r 8 7 7 7 8 8 8 r r r k M H J K I I I U U U U U U U K ",
"U U U U U U I I P K K K K J J Z M k d 8 r r r 8 7 7 0 8 8 8 w 8 d d j h d r r r r d d h r d d l J J K I K I I I K U U U U U U U ",
"U U U U I I K I U K U K K K K K K l l k d h g d d r d d r r d d k k k j d r r d g d h k k l l l J K K P I I I I U U U U U K K K ",
"U U U I K J K K U U U K P P K K K K K l l l l k V l l l h h h k l J M l l j j l l k k l l l k l J K K P I I I K U U U U U K l l ",
"U U U I J J J K U U U U U K P P P K J l V l V V V V M V l l M l M J K l l V Z V J H J l l k k k k K P I U I U U U U U U U J l k ",
"U U U K J l l K U U K P P P P K P K J V J J V J V V V V J J J l l K l V V V V J K K J l k k k k l J K I U I U U U U U U U J k s "
};
