/* XPM */
static char *cGxheWVyX2Rvd25fMQ__[] = {
/* columns rows colors chars-per-pixel */
"64 64 159 2 ",
"   c #160C13",
".  c #190E15",
"X  c #1F0E1D",
"o  c #151115",
"O  c #1C1117",
"+  c #1D141A",
"@  c #1C181D",
"#  c #21151B",
"$  c #23191E",
"%  c #281B1F",
"&  c #1F1D22",
"*  c #251D21",
"=  c #2A1E22",
"-  c #252225",
";  c #2C2225",
":  c #2E2922",
">  c #262528",
",  c #2B2629",
"<  c #232C2C",
"1  c #2D2B2D",
"2  c #312427",
"3  c #332629",
"4  c #38272A",
"5  c #352A2C",
"6  c #3A2C2D",
"7  c #332E30",
"8  c #3C2F30",
"9  c #273131",
"0  c #2D3535",
"q  c #343335",
"w  c #3D3232",
"e  c #373738",
"r  c #343A3A",
"t  c #3B3D3D",
"y  c #41352C",
"u  c #413A2B",
"i  c #422F32",
"p  c #423434",
"a  c #4A3736",
"s  c #453837",
"d  c #4A3937",
"f  c #463639",
"g  c #4C3638",
"h  c #453B3A",
"j  c #4B3D3C",
"k  c #533E3D",
"l  c #49542B",
"z  c #4E403E",
"x  c #52413F",
"c  c #58413F",
"v  c #616539",
"b  c #617234",
"n  c #60713A",
"m  c #3F3F40",
"M  c #403F40",
"N  c #553C40",
"B  c #3E4141",
"V  c #454545",
"C  c #4A4645",
"Z  c #474847",
"A  c #484847",
"S  c #484748",
"D  c #474848",
"F  c #484848",
"G  c #544441",
"H  c #5A4543",
"J  c #5C4946",
"K  c #5E4C48",
"L  c #614A47",
"P  c #634D49",
"I  c #684E4A",
"U  c #66504B",
"Y  c #6B534E",
"T  c #6E5650",
"R  c #6F5952",
"E  c #725751",
"W  c #715751",
"Q  c #705651",
"!  c #715852",
"~  c #715951",
"^  c #755953",
"/  c #755B54",
"(  c #765B54",
")  c #735D54",
"_  c #755E54",
"`  c #745A53",
"'  c #785E56",
"]  c #7A5E57",
"[  c #7A5E56",
"{  c #7B5F58",
"}  c #7C5F58",
"|  c #7B5E58",
" . c #73644F",
".. c #6A7140",
"X. c #76734B",
"o. c #776752",
"O. c #786157",
"+. c #7F6957",
"@. c #7D6058",
"#. c #7F665B",
"$. c #7E6159",
"%. c #815F5E",
"&. c #80625A",
"*. c #83645C",
"=. c #84655C",
"-. c #81645B",
";. c #846A5E",
":. c #88685F",
">. c #86745A",
",. c #8A7B5C",
"<. c #856D60",
"1. c #866B61",
"2. c #886B61",
"3. c #896C61",
"4. c #8A6D62",
"5. c #8E7064",
"6. c #8C7365",
"7. c #8E7265",
"8. c #917567",
"9. c #937569",
"0. c #937668",
"q. c #96786B",
"w. c #97796C",
"e. c #95796B",
"r. c #9B7F6F",
"t. c #9A7C6E",
"y. c #9E7F70",
"u. c #6C8A3A",
"i. c #6F8340",
"p. c #778B44",
"a. c #85924C",
"s. c #858551",
"d. c #8C8D54",
"f. c #8EA64D",
"g. c #8CAF48",
"h. c #9C806F",
"j. c #9E8170",
"k. c #A18473",
"l. c #A58776",
"z. c #A38573",
"x. c #A68976",
"c. c #A88976",
"v. c #A98C79",
"b. c #AC8E7B",
"n. c #AC8D7B",
"m. c #AF927E",
"M. c #B1927E",
"N. c #B49681",
"B. c #B39480",
"V. c #B79883",
"C. c #BB9A85",
"Z. c #BA9A84",
"A. c #C3A38B",
"S. c #C5A58D",
"D. c #C3A38C",
"F. c #C9A98F",
"G. c #C9A88F",
"H. c #CAA990",
"J. c #D5B398",
/* pixels */
"F F F F F F S Z Z Z Z Z Z Z Z C Z V m r r r m V V Z m t r r 0 r m B V V V V B B r r 0 r r r r 0 r 0 r B V D D D V B m 0 0 0 B 0 ",
"F F F F F F A F S S F D Z Z V V Z Z V B B B V Z Z Z V B r r r 0 r B D B B r B r m m r r r r r r r B B B D V V V D V r 0 0 0 0 B ",
"F F D F F D F F S F D F F F S S Z S Z Z V V V V V F V V B B r 0 m B D r r r B B B r t t B r r r B B B D V B B B B B r 0 0 B B B ",
"F F F F F F F F F F F F S F F S F S S F F F F F F V F V D D B r r B D B r r B m r t B B B r B B B B B D Z V V V D V B m B B D B ",
"D F F F F F F D F F F F F F F F F F D F F D F F F D F F F F B 0 B B D D B B B r B V V D B m B V B B V V D V Z Z D D V D B D D D ",
"A S F D F F F F F D F F F F D F F F F F F F F F F F F F F F B r B B F D D B r B V F F F V Z Z Z D B V Z D D D F D D D D B B D D ",
"F F F F F F S F F F S F F F F F F F F D F F F F F F F F C F V B B B D B B B B B F F F F F F F Z D V D Z V D D F D D D D D D D D ",
"S A F F D F A F F F F F D F F F A F S F F F A F F F F F F F F D D D B B r B B B F F F F D F S F D D D D D D F F D D D D D D D D ",
"F V F F F F F F F D F F F F F F F F A F F F F D F F F F F F F C D D D B B B B B D D F D F D F F F F S Z Z F F F D D F F F Z Z Z ",
"F D F F F F D F F F F F F D F F S F F D F F S F F F F F F F F C D D D D B B r B B D F F F F F F F F F F S D F S F D F F F Z Z Z ",
"V F D V F F F F F F F F F F S F F F A S F F F F F F F F F F F F F F D D B B B B D F F F A F Z Z S F F D F F F F F F F F S S Z Z ",
"S F F V F F F F S F F D F D F F F A A Z F D F F F F F F F F F F F D D B r t B V D F F F F A S Z D F A F F F F F F F F D S V S V ",
"Z Z Z Z F F F D F F A S F Z V q - & > 0 V F Z Z V e 5 2 5 7 7 7 q w 2 5 1 q t V F F V , - & - e V Z V F Z S S A F D F S S V F S ",
"Z Z Z Z F F F F F S Z e ; * $ @ $ 6 s ; @ 1 , ; 2 p p s p 7 w 8 7 w w s f 6 ; ; 1 0 o 3 j 7 @ $ $ $ ; 5 Z S S S F F F S F S V Z ",
"S S V S F F F V Z e 5 5 8 w p 4 p O.h.T = * 5 6 s j j f z z G G z j j h z j w 5 3 + 3 #.k._ w 6 w w w 5 ; q V Z F S S S Z Z V S ",
"Z S V V F F F V q ; 6 d C P K j R e.Z.m.;.Y p w j z f h G U ( ( U H j s f z j ; G O.6.Z.Z.0.Y z K U G j s * - V F F S S Z Z Z Z ",
"V Z V F F F S t , 6 j z J ~ U z ~ =.5.b.S.v.d * s j H P ` | | | | ! U K x j 6   ! H.S.l.3.*.( j K ( P C j p ; , Z A F F Z Z Z V ",
"Z Z S V F F M , ; d j z Y @.Y c P ~ ( e.F.N.d + 8 d K Y T T E T ! E T I G z d 6 ( J.D.3.E E P G U *.Q x j k w # q A F F Z Z Z V ",
"V V Z S S S t * 3 j j j Y @.@.Y J P E :.b.t.p * f C G H P R Y Y Y K H H Y [ Y G G e.c.$.Y I J Y [ &.( x f C p # , F F F S S V Z ",
"M V V V S S t * ; f s z T -.-.O.P x P $.4.( 4 6 P T K T *.:.( K H ( O.$.*.O.K j G K O.[ J G K [ -.=.( x p j y O , A F S S S V V ",
"t m V V S F t * 2 d j j T &.! P G j H ( Q H 6 p ^ } ^ E E Y H p 5 J ^ } ^ } } [ ! ( Y T G p H P ! -.( G s z p O , F F F Z Z V V ",
"r e V Z F F t * 3 j j j P U G s x x c ! U j s j J I g 4 3 4 4 3 2 8 k I ^ ^ [ &.-.-.$.U x x G s x Y U j h z s + , F F F Z Z V S ",
"r t V Z F S V 5 ; s f j j G z j U R Y @.[ U K U J g 5 = 2 4 g k k g p k P Y Y :.Y ( $.U H E U j j G j j f j 6 $ t V F F V V Z V ",
"B B V S F S S e > 3 j j f G U ! &.O.[ [ @.} [ ! H 5 8 f N H Y ( | I k i p x P $.G C H $.Q } $.! Y H f j z w * 1 V S S S S Z C V ",
"B V V V D F F B > * d G j G R ;.$.[ [ } @.-.@.P a 4 f P E ^ | $.*.%.E g 4 a H T K x x <.3.| =.:._ H j z H 3 . e F F F F F F V V ",
"V B V V D D V B 1 - 5 8 j G U _ [ [ [ ( ! ( [ p % 8 C X.d.d.-.| | >.s.v y g N K T Y Y O.w.8.O.! U G j w 4 ; * t F F F F V V V V ",
"B B B V D B B r r , * ; 5 w p G [ @.Y H x G U 4 * w c p.f.f.;.%.%.,.a.b u j J T O.$.$.! ! $.s w w w 6 ; * > q Z F D D F V V V V ",
"r r t V D D B t t e 1 > ; % # 5 ( ! G j c J J ; = w z n u.u. .^ ^ @.n l 3 8 N T *.&.$.T s 6 # + $ * ; > > e V F S F V V V S V V ",
"r r t V Z D D B t t B B r & # 2 f H P ! ! ( J = = 8 4 = ; ; 6 i i i 2 #   $ p I ! P P J 6 * ; 2 + * B Z F F F F S Z V V V S Z Z ",
"r r r B V V D B r 0 r B r < * f j z P ( $.&.P * * i 6 * X = 4 # . = # # $ # 6 H I x G K j w f d % , S Z F F F F S Z V V V V V V ",
"r r r r r r t r 0 0 0 r r < 2 G C c Y [ U [ P * = d G 6 i N J 8 2 a i i a % 4 k P d [ [ H j G C ; 7 A F D F D D V V Z V V V V V ",
"t t t r 0 0 0 r r r r 0 0 < = j j s P Y J J P ; = 8 G j H ` } T I E Q I k i a H J G $.O.H h j j = 7 Z Z V Z Z V V h m B t m m m ",
"V m V B B B m V B B B t t * * j j s L [ U z x 6 ; 3 8 j x K U P P P L G a a c Y E ( | ' J p j j % $ r t B B r r t t t t r r t r ",
"V V V Z D D V F F Z A Z V ; = j j f K ( ! J z h 6 ; ; ; ; ; ; 5 4 3 3 4 a L Y ^ ( ' ' ( H s j j ; $ 0 0 0 0 r r r r t r r r 0 r ",
"V V Z S F F F F F F A S V * * x j h P $.[ ( Y H z w ; $ $ $ + + + $ ; y P ( ( ^ ' ( O.| H h j C ; @ 9 0 0 0 q r r t B t t r r r ",
"V Z D F F F S S S S S Z Z 1 ; f z f J ( $.[ [ ( U c j p p p p w 6 w d J Y ( ^ ( ( | $.( H h j f ; ; 0 0 0 r r r B B V Z V B r r ",
"Z Z Z Z D D V V V V V V V V ; 2 s z z U [ O.$.@.Y U U U Y U U U U P P K L U [ | O.$.[ P z z d 2 ; t t t t r e t t V Z S Z V B t ",
"Z S V h 1 ; - & @ @ 1 M V V q = 3 s j G U O.&.! H x K Y Y Y ! ( ( ! U H j d U $.*.' L j j f 2 > q Z V Z q @ @ @ * > ; 7 V Z Z Z ",
"S S V , $ $ % 6 p p 2 q V V V q + ; w z H Y ! H j J ~ ~ P G J P J U ! ( U j j Y ! U G j w = o q V Z S t ; w p s ; @ $ = , Z D F ",
"F V 7 ; w w j #.k.l.#.8 e h V t   o 5 w j z x f G Y #.*.| ! ! ! E [ *.-.( K f d G j s p ,     z Z V t * Y k.c.r.U 8 8 w ; 7 F F ",
"F 1 3 s f z U 4.b.S.Z.#.s m V M O $ ; $ * p s s j G J ! $.$.| $.$.*.( P H C s s s 5 $ $ ; $ O Z Z Z 5 Y b.F.C.y.$.H d f s 2 1 F ",
"S # 7 j G U ( O.4.c.D.l.d e V e 3 p 8 * $ * 5 w s w w G H Y | O.Y H G h w w s w , $ $ ; w p 3 e V t 3 e.F.Z.t.&.| ( L C j 5 # F ",
"F # 8 N H ! | ! E 1.c.k.d 7 M , p z f s f y j G G z j G G K ( ( P x z j x x G G p 8 d f h z s ; V q 3 t.Z.8.^ E ( $.T G j 5 # F ",
"F # 5 j J [ $.( E ^ 8.9.d q V * p j z K Y U Y ( ! E E Y Y ! $.$.! Y T T Y E [ _ P U T H j j s * V 7 3 7.r.( Y ( ( $.( G j 5 # F ",
"Z O 6 j H ( | ( E T 4.9.d 7 M * w z H _ ( U E | $.&.$.$.$.O.( [ [ $.$.$.&.$.@.O.U U [ ! G z w ; t 1 5 8.t.E Q E [ $.! G j 5 + A ",
"t @ 6 j G U ( [ ^ #.z.y.k q M * w j P $.( P J J Y O.&.$.&.! H H T $.&.&.&.( K J P U @.$.H j w % z 0 5 e.M.;.^ E } ( J z z 5 + A ",
"r * 2 s j G R 7.y.b.M.-.w e t # w z H ! [ ( J j z P P P P J G G J P P P U H f z U [ [ Y G z w + t e 3 Y M.Z.j.t.:.P x j p ; - S ",
"m t ; 2 w w z 1.l.c.>.p e h q O s z f H ( $.( G s f x k j J Y E J z j x j w f Y @.&.! c s z p O q V e 5 ! c.c.k.R w 8 w = , t S ",
"B D m > # . # ; 4 4 5 e M M 1 # s j f H _ $.[ J s d J Y Y T | | ! Y Y U z w j ! -.$.! z s j s # , z B t 4 4 6 6 % . + $ , M V S ",
"B B D m 7 7 1 1 5 7 e h V M e * ; w j H ( #.} T K J P ( &.&.&.&.&.&.} U J J U ( &.-.! G f w ; - e t m B e 1 7 1 1 5 1 7 V S F V ",
"r m B F S V V Z Z V M V B t t 7 + 3 z G P Y ! } | ! U Y Y E T T Y ! Y P Y $.[ [ Y U P z j 3 O 1 t m m V V V V Z Z V V F F F F D ",
"r B V F S Z Z Z Z V V M B z t e O 3 z j j G Y $.*.[ P d p w p p p p p H ( =.$.[ U x j f z 5 O e t h M t M V V V Z Z V F F F F S ",
"r B D F F F D Z V V V m V h B e # 3 j f z I ( $.O.I 6 * $ $ $ $ $ $ $ ; c @.@.@.( P s f j 2 + e t h t V V V V Z V F D F F F F V ",
"B D F F F F D D V V V V m t B t 7 * 6 d G ! *.$.P i ; e z h B t t h t , 3 c @.-.$.U z d 4 * 7 t m B t V h V V V F F V F F F F F ",
"B B F D F D D V V V V B V t h t t * ; j G T *.3.J % 1 t t t t h t h t e + 6 =.4.O.K z j = * t t m B V m V V V Z S V F F F F F F ",
"B B F F F D D V V V V V h V m B t 7 = w w s J E g % q t B B t t r e e e + 2 Q ( x w w w * q h m h B V V V V Z V F F V F F F F S ",
"Z D F F F V F V V V V V h M m m M e ; # O + $ % ; q m h V t t q 0 1 0 e e > % % + O + @ - h h B M M M V V V F V V F F F F F F D ",
"V F F F F F D D V Z V V V M M M t t e 1 , - - > e m m t M V t 0 < < 9 r z t 1 - - - 1 1 t B t V V M V V V V V F D F F F F F F V ",
"F F F F F F V D S Z V V V V V h h m h t t t B h t z t V V M t 0 < < 9 e B B z B t h B B h V B t V V V Z F V V F V F F F F F F F ",
"F F F F F F D D Z V V V V V V B t V B t z t B t B B V V V h r 0 9 0 r t z V B B V m V h V B V V M V Z S V F F F F F F F F F F V ",
"F F F V D D V V S V V V m V V M B B B V t V B B V V V m B r 0 0 q r B B B B V V B V V B V V V V V V S Z F V F V F D F F F V Z V ",
"F D F D V B V V S Z C V V V V V z V V t t t V h t V V V t 0 9 0 r m Z V V V V V V V V V M V B V V V V V F F F F F F F F F Z B r ",
"F F F V B B m V Z Z V V V V V V V V V t e t B V t t t V B 0 9 0 r V Z Z V B V V V V V V t V m B t V Z S V V F V F F D D D B r r ",
"F F F D B m m V S V Z V Z V V M V V B r r t B B r r t t r r 9 0 r B V V V z V B B B z B t e t t t V V Z F D D D D F D D D B m r "
};
