/* XPM */
static char *player_d_11678373086[] = {
/* columns rows colors chars-per-pixel */
"64 64 133 2 ",
"   c #0D050D",
".  c #11050D",
"X  c #13080F",
"o  c #120415",
"O  c #140C13",
"+  c #190E16",
"@  c #151116",
"#  c #1B1117",
"$  c #161319",
"%  c #1D141A",
"&  c #1E1A1D",
"*  c #22161B",
"=  c #231A1E",
"-  c #281B1F",
";  c #1F1E22",
":  c #251324",
">  c #241D21",
",  c #2A1E22",
"<  c #311E28",
"1  c #252225",
"2  c #2C2225",
"3  c #262429",
"4  c #2B2629",
"5  c #272829",
"6  c #2D2C2D",
"7  c #312426",
"8  c #342F22",
"9  c #332629",
"0  c #38272B",
"q  c #342A2C",
"w  c #3B2C2D",
"e  c #2F302F",
"r  c #34302F",
"t  c #3F302F",
"y  c #2D2E30",
"u  c #312E31",
"i  c #3C2E31",
"p  c #2E3434",
"a  c #343434",
"s  c #3D3232",
"d  c #3A3837",
"f  c #363738",
"g  c #393638",
"h  c #353A3A",
"j  c #3C3D3D",
"k  c #402F2F",
"l  c #412E31",
"z  c #433534",
"x  c #493635",
"c  c #453837",
"v  c #4A3837",
"b  c #4C353C",
"n  c #463A39",
"m  c #4B3C3B",
"M  c #513E3C",
"N  c #3C4624",
"B  c #3F403F",
"V  c #434E26",
"C  c #42482C",
"Z  c #4E403E",
"A  c #52413F",
"S  c #5A453F",
"D  c #544A38",
"F  c #584E3D",
"G  c #4F5B32",
"H  c #52523B",
"J  c #3F3F40",
"K  c #403F40",
"L  c #503F40",
"P  c #5A3E43",
"I  c #3E4040",
"U  c #454545",
"Y  c #484747",
"T  c #474847",
"R  c #484847",
"E  c #474848",
"W  c #484848",
"Q  c #544441",
"!  c #594643",
"~  c #5C4946",
"^  c #5D4648",
"/  c #5F4C48",
"(  c #614B47",
")  c #634D49",
"_  c #66514C",
"`  c #6A534E",
"'  c #6E5650",
"]  c #6D5952",
"[  c #705751",
"{  c #745A54",
"}  c #795E56",
"|  c #765458",
" . c #7B565C",
".. c #7C5E58",
"X. c #646B40",
"o. c #6E674A",
"O. c #796156",
"+. c #7D6A55",
"@. c #7D6159",
"#. c #82655C",
"$. c #83695E",
"%. c #867B56",
"&. c #86735A",
"*. c #835D61",
"=. c #866B60",
"-. c #8A6D62",
";. c #867164",
":. c #8D7265",
">. c #8F7668",
",. c #907367",
"<. c #937669",
"1. c #95796B",
"2. c #9A7D6E",
"3. c #738240",
"4. c #778943",
"5. c #848751",
"6. c #8F885B",
"7. c #80A941",
"8. c #91AA4D",
"9. c #99BE4C",
"0. c #9E8171",
"q. c #A28574",
"w. c #A68977",
"e. c #A78A78",
"r. c #AB8D7A",
"t. c #AF907D",
"y. c #B1927E",
"u. c #B49581",
"i. c #B79883",
"p. c #BC9C86",
"a. c #BF9F88",
"s. c #C4A38B",
"d. c #CAA990",
/* pixels */
"W W W E Y Y E E E E E Y Y Y Y Y T U J h p h I I E T I j h h h h j I U E U U I I h h p h h h p I p I p I I W W W E I p p p h h h ",
"W W W Y Y Y E E U E Y Y Y Y U Y E U I j h h I U U U I J h h a h j I U I U I I I I h h h I h I p I p I I E E E E E I I p p h h I ",
"E W W W Y Y E E Y E U U U Y U U U U I I I I I I U U I I j h h h j I I I j I B j I h j h h h h p I I I I I I I I I I I I p h I I ",
"W W Y T Y U E Y Y E U T U U U U U U U U U I U U U U I U K j h h h I I I h h j I h B j j I h I I I I I I E E I I E I I I h I I I ",
"Y W Y E E U Y Y U U U U U U U U I I U U U U U B I U U U j j j h j I I j h j I h j I j I J j I j I I E E E I I E W E I I I E E E ",
"E W E Y Y E U U U U U U U U U J Z U I U j U B U j j K j I n j h h j J j I j j I j j I I I I U j I I E E E E E E W W W W I I W I ",
"E T T U U U Y U U U U U I U J I U J I I j Z I I n I I U I I j j j j j I I j j J j U I U I U U j I I E E E E E E W W E E E E E E ",
"T T T T E U U U U I U K U U U I I I I j J j I n I I j K I I j j j j B I j h I I I U U U U U U U I I I W E E E E E W E E E E E E ",
"T E E U U E U U U J I I U I j j j j j j j n j j n j j j Z j I j j j j j d j j j j U U U T U U U U K J U U U U U E E E E E E E E ",
"T E U E U U I U U J j J j j j h h d h j j B j j J j j j j I j n I j j h f u 6 3 4 u a g g u 4 6 y u f U U U U U I E E E E E E E ",
"T T U U U I I I J I j h h j h a d h h j j j j B j a 6 6 6 y u u 6 6 q 6 4 a v Q ! U s q q q m ) ) ~ d a j U U U E E E E E E E E ",
"T T E U U I I I j j h y 6 6 a d d a a q p f a q y , * = = > , 7 2 9 0 2 7 v O.q.0.-./ s s ! $.y.a.r.[ q y g K U E E E E E E E E ",
"T T U U U I j B j a 4 = ; , s Q v z 7 = & 4 6 * = 9 z v A A m M ) ` ` ( x M [ -.,.,.] Z S ` #.<.u.s.r.) 2 & a U T T U T E E E U ",
"T T U U I I j h h 5 2 w l m [ { z x ! w % = 9 9 q c ~ ] ..[ Q x S [ #.} ) Q _ } } [ _ / ' } { } :.u.p.@.7 $ & 6 U E T T E E U U ",
"E U U U I I j h 3 = s A _ :.t.$.2 z ] Q w w i q L ) [ } ` M 7 = 0 x ( _ ( M ) { [ A M ) O.@.{ [ } 1.e.$.M z q & 4 I U E U U E U ",
"U U U U U B h 6 = t Z / O.:.:.] i v ~ m v ! c w / { ` M 0 - , l M z l x l b ~ ` _ M m _ { } } [ ' O.<.:.` ] ] i O u E E E E U U ",
"E U U U U J 6 * w m m _ O.Z = w ` } ~ c z z x ) } ( 0 % * 0 ( @...[ ! k , m / ~ ` ( ! _ ` { } ` ) [ >.<._ / ;.O.X 5 T E U U Y U ",
"E E U U U J 4 * c Z d v A w = z } =.` Q d , w ' [ x , 4 z ^ } =.#.#.@.D 8 v ~ _ $.$.[ ) ( ` ` ( ~ [ :.=.~ Q ;.:.X 3 T T U U U E ",
"U U U U U U 4 * z m z z z v Q / ) { } ` Q q 9 M Q 9 4 L ' | | |  .#.%.3.V w b ` 1.1.[ ^ ! ( ~ ( _ { O.` ~ _ >.:.  5 T U U Y U U ",
"J U U U U U 4 * z m c M Q ~ ' ' ^ ~ ` ` ) c i z i 7 i Q { &.%.+.| *.6.4.N * , S -.,.[ ( M ! ) _ [ } ` ~ / { 2.=.  5 T T U U U Y ",
"h j J U U U 4 * z Z c U / ` { } ` ! L / ) Q m c 9 2 i L o.8.9.5. .*.} F - o + 0 ` $...( ! ) [ } O.} { ` ' $.q.$.  > U U U U U U ",
"h h J U U U 4 * z Z m m Q _ [ } { ` ) ' [ ) / / s , i L X.7.7.o.) P l , * * - < x { } ) Q ( [ O.} } ` ) { 2.y.} o 3 T T U U U U ",
"h h J U Y U u > 9 c Z n m _ [ { } } } } } ' [ { Q , 7 m H G C 0 0 - + * k M M k k ( } _ Q / [ @.} ) Q ! @.q.1.x % u U Y U U U U ",
"I I U K g a 6 * O = q q m _ } O.{ } } } { } } } ~ 9 < z i : o * 0 0 k M ` } ( z M ) [ [ ) _ O.#.O.L z ) <.q.~ . 4 U U K U U U U ",
"I E I f 1 * % % * = - 2 s ~ [ } } { } } } } } } ~ i 1 9 i < + 7 { #.` { } ` z 0 ` [ ` { { { { @.$.M w / =.<.v   a U U U U U U U ",
"U I f 4 2 9 7 z @.:.#.~ 0 c ` } } } } } } } } [ Q s 2 , v ! l z #.#.[ _ Q i 2 c } ..{ } ..{ ` #.-.m , z z x 9 , d U j U K U U U ",
"j a 4 9 c m A { 0.a.s.w.( t M ` } @.} [ / ) [ [ ! c 2 = c ~ Q Q ( ^ v 0 = * w _ } @.O.} } { [ =.1.z O > % % 1 g I U j K K U U U ",
"a 1 , z m Q ` { #.1.y.a.2.z 7 ~ { } [ ~ m Q _ [ ` ! w = 4 i c n l 2 = % * 0 ( { ' ' ' ` ) ) _ <.2.k   & > 5 p j U j U U U U U U ",
"a > , c L ) } } [ O.<.y.q.z = A ` ' ~ m Q / ) [ [ ` m 9 4 2 , , * % = q z / } ` ( ( ! M m m _ 1.0.z X 3 p a h d U j j U U U U U ",
"a 1 , c L ' @.} { [ ..2.2.z & m Q Q Q / ' ' ) Q ~ _ ! c s i 2 & 2 s m ) ` } O.} ` _ ~ Q S Z A #.1.k O 5 p a h j j j U U U U U U ",
"h 3 , c U ` #.} [ [ [ -.2.l * c c c ! ] } } ` Q / ' ) Q Q Q c z Q _ ] [ } } @.} [ ) ) ` ) z 7 z A =   $ 1 p h h j n I U U U n U ",
"h > , c M ( { ..{ { #.q.q.z * v c c / { } { } } } } ' ` [ ' / _ ` ` ` [ [ { { ) ! ! _ _ M 7 % @ * 0 s t 2 5 y h J I j I j I I I ",
"J 4 , z n L ( } $.$.0.y.1.w > c m n ) } } } } } } } } { } } [ ' ~ ! ` [ { [ ` ! A _ ` m 0 w s q Q >.u.y.-.w > a j j j j j j h h ",
"E c 4 < s c c ` 2.r.t.0.M % , v n n / } } { } { } } } O.O.} } { ` ) ' } } } { ` _ ~ z 7 q c m Q [ 1.u.d.a.$.w 3 h B j d h h h h ",
"E E j 4 2 2 > w ) [ _ M 1 O 2 m m m ) } } } } } } } } } } } @.@.} } } } } ..@.$.} m = > c Z Q ` } } $.e.s.r.S % a U j j j h h h ",
"T T Y j 4 > > > = = & 3 q 3 - s m m ~ [ } } } @.} ' ) ) ' } [ _ ) ` [ } { ` _ ` _ v 2 , c / ] @.} [ [ -.r.q.S % f U U j I j j h ",
"U U U U U j j j f f a a g u > , g m m ~ [ @.@.} ' Q n U ~ ) ~ m m S _ } [ ! M Q A c 2 , m ` } @.} [ [ { ,.2.( * f T U U I I U I ",
"U U T U W W Y Y T R T j j f 6 > , i m m / [ @.[ Q c Q ` ) Q c m ) _ [ } } ` ` ` ) m 1 2 c / [ @...} [ } ,.2.! % j E U U E E U U ",
"U U U U Y W Y U U T T K j j d 4 + = g c m ~ ) Q v ! { #.} _ ~ _ } @.} } ....#.$.} m = 2 c Y ` $.#.} } -.r.w.S & J W U U T U U U ",
"U E Y Y Y Y Y U Y T T U j d j u @ % 2 q i c v c m ) [ { @.@.} } } } } ..} [ ` { } A 2 = 0 m _ { ` [ =.t.p.-.l 9 U W T T T T U U ",
"Y U U Y Y U Y Y Y Y Y U j g g 6 , 9 0 * % q z z c m m Q ' } } } } } } } ` Z z ~ ` ~ u 2 > w m c s m @.r.-.z 4 U Y Y Y E Y U Y U ",
"Y Y E E E E E Y E Y Y E K j 4 , w m z 9 7 2 q n c z g c Z Q ` } } } } ` A z s n ~ / v z S w % % % = u b i y J W Y E Y U Y U U Y ",
"Y T U Y Y Y T U E E Y E U j 4 * v U m Q ! m A ) ) ( ~ ! ! ~ ` [ _ [ ` ~ ~ ~ ~ ~ ) ` ) } :.t   > 1 1 > > y K E E Y E U E E Y Y U ",
"E E Y Y Y Y Y Y E E Y E Y K 4 * z Z A _ { ' [ @.@...} } } } } ' ) ` ) Q [ ..} { { { @.<.1.w @ f K U U K U E E Y E Y Y E U U Y U ",
"E Y E Y Y Y E E T U Y Y U U 4 * z Z ~ } } ) ) { } O.@.#.#.@.{ ` _ ` ~ ~ { @...} { { ..1.<.0 $ j T U W W E Y U E Y U U Y U Y U U ",
"U Y U Y Y Y T T T T Y Y U I 4 * z Z ) ....` ! A Q ` { { { [ ) Q Q Q ( ` } } } } { { #.1.1.0 @ j U U Y U Y Y U U U U Y E Y U U Y ",
"U U Y E Y U U Y T T W Y U j 4 * z m Q _ } ..` m z Q ) / ~ ! ~ ! ~ ~ ` ....} } } #.,.0.t.0.8 + d U I T U Y U U U U Y U Y U U Y U ",
"U U U E Y E E Y E Y Y U T j 5 * c Z z Q { #.} ` A Q / ~ m Q ` @.} } } @.@.} ` _ } 2.i.t.{ 2 & g j n K U U U Y Y U U Y U Y E U U ",
"J I U U U E E E T T U U U J 1 & s v c Q } O.[ _ ( ) [ { ' [ } @.#.#.@.} { ' Q Q [ -.0.#.2 > f d J I U U U U T T U U U U Y U E U ",
"J J I U U E U T T T U U U d y , , i m ~ [ { ` / Q Q ' } } } } [ } ..O.' ~ m c m [ $.1.{ % ; j j j I U j U U U U U T U U U Y U U ",
"h J I E E E E E U E U U U h h y # w M U ~ / ~ Q m z Q ~ ! ) _ ) ) ) _ Q d z Q _ { $.2.O.* 1 j j j J j U I U U T U U T E Y U U U ",
"h J I E E E E E U U U U I j a 6 % w Z m c Q ( ( Q ! ^ U z Z Q m z z w q i M [ } [ #.0.O.= 1 j j j I I n U U U U T U U E E E E U ",
"h h I W W W E E E U U U U d f y * 9 v c A _ O.{ { O.@.' z s v z i 7 * % 7 ( @.} { -.w.#.- > j j j U j U U U U U U Y U E E Y E U ",
"p J I I W E E E U I Z U J j h f 4 = q m Q ] #.@.=.2.0.} s 2 s c d i 1 * w Q ' @.-.r.y.{ * & a a d d j U U U U E Y U E U U Y T E ",
"J J I I W E E E U U U j B d f g u & 1 m A ~ ` O.1.r.$.v 9 , q m n d u 7 9 z Q O.r.a.,.k @ 1 e e f j U U n U U U E Y Y Y Y Y U Y ",
"I I I I W E E E U E U U j f r a a > , q t w k ~ #.#.z % 1 q q d g a u 1 = 1 q S ,.:.k   @ 5 6 e f d j U U U U U E U Y Y Y Y E Y ",
"U E E E E E E E E U U j j d a y 6 5 & % % % = - 2 7 > = 4 r r r q e e 5 > % # % - - % @ > 6 e r g j j U U U U Y E U Y Y Y Y Y Y ",
"W Y E Y E E E E E T U J j g a a 6 5 1 & & = & $ & * 1 6 r r 5 6 6 6 6 6 5 1 & & @ @ & 1 5 e e e g j K U U Y Y U E E E E E Y E U ",
"Y W E W E E E E T U U J I d d d a 6 4 5 5 5 5 1 1 5 5 8 6 5 5 4 e 6 e a r e e 5 5 5 6 6 5 e e r d j K U E E E E U E Y Y E E E Y ",
"W W W Y Y Y E E T T U U U I U U B d f p e e r e 5 5 6 6 6 e 6 6 a a f a e e e e r a a f r r f h j U U U Y U Y U E Y E Y E E E U ",
"W W W E E E E E E Y U U U U U U I U d d a h a a r a a a r p r a d h d f f r a a f a f h f j j j K U U T E E E T E W W E Y E U U ",
"Y W E E I I I E Y Y Y U U U U U U U I j h j j h B d j h g g f d j j B j d h d h j d d j j j h j j U U T E E E E W W W W Y U J h ",
"Y W W E I I I U Y Y E E U T T T U U I I B B B B B B B j j j j j Z J j I j B B Z I U J J h h h h h U U T W E E E W W E E E I h h ",
"W Y E E I J J U W Y U T T T U T T U I j I I B B B B B Z j j I J I j B B B I B I U I I j j h h h j J T Y E E E E W W E E E I J p "
};
