/* XPM */
static char *cGxheWVyX3VwXzI_[] = {
/* columns rows colors chars-per-pixel */
"64 64 140 2 ",
"   c #160C13",
".  c #190E14",
"X  c #151115",
"o  c #1C1117",
"O  c #1D141A",
"+  c #1C181D",
"@  c #21161B",
"#  c #23191E",
"$  c #281B1F",
"%  c #1F1D22",
"&  c #251D21",
"*  c #2A1E22",
"=  c #252225",
"-  c #2B2225",
";  c #262528",
":  c #2B2629",
">  c #232C2C",
",  c #2D2A2D",
"<  c #312427",
"1  c #322629",
"2  c #392729",
"3  c #342A2C",
"4  c #392C2D",
"5  c #2D2F30",
"6  c #332E30",
"7  c #3B2F30",
"8  c #273131",
"9  c #2D3535",
"0  c #343435",
"q  c #3D3232",
"w  c #363738",
"e  c #393638",
"r  c #343A3A",
"t  c #3C3D3D",
"y  c #422F30",
"u  c #423535",
"i  c #493736",
"p  c #453837",
"a  c #4A3937",
"s  c #453B3A",
"d  c #4B3D3C",
"f  c #513D3B",
"g  c #4E403E",
"h  c #51413F",
"j  c #58413F",
"k  c #3F3F40",
"l  c #403F40",
"z  c #3E4141",
"x  c #454545",
"c  c #4A4645",
"v  c #474847",
"b  c #484847",
"n  c #484748",
"m  c #474848",
"M  c #484848",
"N  c #544441",
"B  c #594643",
"V  c #5C4946",
"C  c #5E4C48",
"Z  c #604B47",
"A  c #624D49",
"S  c #66514B",
"D  c #6B534E",
"F  c #6E5650",
"G  c #6F5952",
"H  c #725751",
"J  c #715752",
"K  c #715751",
"L  c #705751",
"P  c #715851",
"I  c #715A51",
"U  c #715852",
"Y  c #745953",
"T  c #765953",
"R  c #745B54",
"E  c #755B54",
"W  c #765B54",
"Q  c #735D54",
"!  c #745E54",
"~  c #755E54",
"^  c #745A53",
"/  c #785E56",
"(  c #7A5E57",
")  c #7A5E56",
"_  c #7B5F58",
"`  c #7C5F58",
"'  c #7C5F58",
"]  c #786157",
"[  c #7D6058",
"{  c #7F665B",
"}  c #7E6159",
"|  c #80625A",
" . c #83645C",
".. c #84655C",
"X. c #81635B",
"o. c #846A5E",
"O. c #88685F",
"+. c #856D60",
"@. c #866B61",
"#. c #886B61",
"$. c #896C61",
"%. c #8A6D62",
"&. c #8E7064",
"*. c #8C7365",
"=. c #8E7265",
"-. c #917567",
";. c #937569",
":. c #937668",
">. c #96786B",
",. c #97796C",
"<. c #95796B",
"1. c #9B7F6F",
"2. c #9A7C6E",
"3. c #9E7F70",
"4. c #9C806F",
"5. c #9E8170",
"6. c #A18473",
"7. c #A58776",
"8. c #A38573",
"9. c #A68976",
"0. c #A88976",
"q. c #A98C79",
"w. c #AC8E7B",
"e. c #AC8D7B",
"r. c #AF927E",
"t. c #B1927E",
"y. c #B49681",
"u. c #B39480",
"i. c #B79883",
"p. c #BB9A85",
"a. c #BA9B85",
"s. c #BA9A84",
"d. c #C3A38B",
"f. c #C4A48C",
"g. c #C6A58D",
"h. c #C3A38C",
"j. c #C9A98F",
"k. c #C9A88F",
"l. c #CAA990",
"z. c #D5B398",
/* pixels */
"M M M M M m M v v v v v v v v c v x k r r r k x x x z t r r 9 r k z x x x z z z r r r r r r 9 r r r r z m x M x m z r 9 9 9 k 9 ",
"M M M M M M M n n n m m v v x x v v x z z z x v v v x z r 9 r 9 r z m z k r z z z r r r r r r r r r z z z m m m m z k 9 9 r r z ",
"M M m M M M m M n M M M n M n n v n v v x x x x x x v x x k r 9 z z m r r r z z z r t r z r r r z z z m x m z x z z r 9 8 z z z ",
"M M M M M M M M b M M M M M M n M M M b M M M M M M x x m m z r r z m z r z z r r k z x z r z z z z z m x z x m x x z k z z z z ",
"M m m M M M M M M M M m M M M M M M M M M M M M M M M M M M z 9 r z M M z z r z z x v x x z z x z z x v v v x x m m m m z z m m ",
"n M M M M M M M M M M M M M M M M M M m m M M M M M M M M M z r z m M M m z r r x M M x m x x v z x v x v v m M m m m m z m m m ",
"b M M M M m M M M M M M M M M M M M M M M b m M M M M M M M x z z z z z z z z z M M M M m m M m m m m m v n n M m m m m m m m m ",
"n b M M M M n b M m n M M M m M m M M M M M M M M M M M M M M M m m z z r z z m M M M M m m M M m m x m x x M M m m m m m m m m ",
"v v n n M M M v M M M M M M M M M M M M m M M M M n M M M M M M m M m z z r z z m m m m M M M M M M n v n b M M m m M m M m x M ",
"v v v n n M M M M M M M m M M M M M M M M M M M M M M M M M M M M M M m z k r z m m M m M M M m M m M M b M n M M m M M M m x m ",
"v x v v M M M M n M m M M M n M M m M M M M M M M M M M M M n M m m M m z z t k m M M M M M M m M M M M M M b M M M M M M x M M ",
"n n v v m M M M M M M M M M m M M M M m M M v M M M M M M M n n M m m z r k z v m M M M m M M x n M M M M M b b M m M M M M M x ",
"v n n v M M m M M M n n M M x 0 = % ; 3 x M n v l e 4 : 4 6 6 6 0 0 1 3 , 0 t v m M z , = % = 0 x v v x n n n b M M M n M M x M ",
"v x x v M M M M M b n 0 - # # # # 7 p ; + , : - 2 u u u u 7 7 7 4 u u u u 4 & - 5 5 X 2 d 4 & + # # - 3 v n n n M M M n M M x v ",
"x v x n M n n v v e 3 4 q q q 4 u ] 4.F * & 2 7 s d a s d d N N g d s s g d q 4 3 @ < { 5.! q 4 u u 7 7 : 0 x v M m n n v v x n ",
"x v v n b n n v 0 = 4 a c C C d D ,.a.r.o.D u 7 d a s d B A ) T S B d p s g s 1 h ~ *.a.a.;.F d V A c d u & = x n M n n v v v v ",
"n x x n n n x t : 4 a d Z R S d / ..%.w.k.q.a * u l Z A H ` ` ` ` H S Z N f 6   H l.d.8.#...R d Z / A d d u - , x n M M v v x v ",
"n n x v n n l : < i d d S } S N A H T >.k.y.i O 6 d Z D L H H H H H K A l l d 2 W z.d.O.H K Z N S | K N a g u @ 0 n M M v v v x ",
"v x v v n n t & < d d l K ` ` D V A H #.e.1.u & a N N N B D D K S V h B H | F N N <.0.| L A V F ) | R N u N u @ : n n M n n x x ",
"l x x v M n t & < i d d K X.X.' A h A | %.R 2 2 S S V d A A l f d B d f ` H N a h A | | A l Z '  ...R h u d u . : v M M v n x v ",
"r k x v M M t & - a d d F X.R A B s B R K B 4 u T X.R D R S d q a l A f d V A Y I R S K N p B A K  .) h u g u @ : M M M v n x v ",
"r t l v M M t & < d d d Z S N p N N N K S d u a N  .} / ' ~ D A S A ) N N N Z ~ | | | S f N N u h S S d p N u O : M b M v x n x ",
"r k x x M n x 3 : p a s d N d d A K F / ~ S A D A } ` / ' ' ' ' ` R ) D F S I ' V I | S B K A d d N f s s a q # e m n n n n x v ",
"k z x v M M n e - 2 d d s N S I | ` / ' ' ' ' } R ) / / ' ` X.} | | Z ) ` ' ' ' u g V } K ` | K D B s d c y $ : v M n n n x x x ",
"z x x x v m m z ; & a c d N I ..} / ) ` ` | | | X.' / / R Y Y ' ` ) N ) | | K V f N N +.%.` ..#.! B a g c 2 o e m m n M n n x v ",
"x z x x m m x z , = 2 y s N S R / / ) R I T / } R ` ) L B f B S D N l S A Z V V K D S / ,.;./ R S N d q 4 - & t M m x v x x x v ",
"t z z x m v z r w , & & 4 q q N ) ` L B N N S F N ' Y N s N V V d u d F f B S | ` ` | H I { u q q q q - $ - 0 v M M m v x x x x ",
"r r k x m z z z t w , ; - & # 4 R Y N a N V V f u f V Z Y Y R Z f N B F a V D ) | | | D u 4 @ O # & = ; ; 0 x M M n v v x v x x ",
"r r z x M m m z t t z z r % O 1 i B Z Y Y Y A d c f h A ~ } X.` K T D ) V d N A A A A V 4 & - - O # s m M M M M n v x x x x x x ",
"r r r z x x m z r 9 r z r > & a f l Z ) } X.R K F F D T ` V I } } ` A S A N d N B f N A a e a a $ , m m M M M M n v x x x x x x ",
"r r r r r r t r r 9 r r r > < h N N F H A ' } ` } ` ` / / u g B S ` s N V N B V l d ' / V d h N - 0 M M m M M x x x v x x v x x ",
"t t r r 9 9 9 r r 9 9 9 9 > * d d p A F V V F ' | | | K B h N h Z / s V I Y Y A d N ' } V u d d & 6 v m m m x x x s l t t k k k ",
"z x z x z z z x z z k t t = * d d u Z ) S d h A A A A Z B F F D I ` A R ` / | ) H R ` ) B u a d * + r t t k r t t r t r t r r t ",
"x x x x m M x M M n x v x & * d d s V ) T Z h h N h N S } } ` } ' ) ` ` ) / ) ) / R ) ) B u d d * & 9 9 9 r r r t z t t r 0 9 r ",
"x x x M M M M M M M n v x & * h d s Z ` / R D Z h a V F } } } } F V | } ` ) ) ) R ) ` ` V p d c * + 9 > + X + = ; - 5 t r r r r ",
"x n M M M M n M n M v v v 3 & s d a Z / ` / ) ) D B d N A A A A V V Y K T ) ) ) ) / } R B s d a * : 5 - y u u < + $ & : x z r r ",
"n m x M n n M M n n v v x l - < s d c S ) ` ` ` F V N g N N f g A D B N N A ` ` ' } R A g d p < - e - S 8.0.4.S q 7 7 * 3 v z t ",
"M M x n n x M M n n v v x x 0 - 2 p d f S } | I N a N B V d a s d V V B s i A }  ./ A d d u 1 - 0 0 S r.j.a.4.[ B d a u , , v v ",
"M n M M x x x z x v v x x x x 0 @ * u c B D K B d B Y Y A d N N d V R / A d d S R S N d u & O 0 t < ,.j.s.2.{ / Y V c d 4 @ M M ",
"M x x 6 ; & % % o , l x x x x t   . 1 u u c N s N F }  .' K K T K / X.| ' C a d N d u u 1     x 6 2 ,.i.-.W K T } K N d 4 @ M M ",
"M x : & & & 7 u u 1 0 x x x x z . $ < @ & q s u d B V H | ` ` ` | | / Z B f p p s 4 # @ < $ o v 0 2 -.1.H L K ) } R B s 4 O x M ",
"x 3 < 7 7 a } 8.7.{ 4 e z g x e < u 7 * $ & 4 u u q u c V S / ) S Z N u e u q e : $ # - q u - e 0 2 -.2.L K H ) ` I N d 4 O M M ",
"5 1 u s l S %.w.f.i.{ u z x t : u f s p i y s N N d d N h A ~ / A N N d d N N N u y a s a g u : 5 2 >.t.#.H H ` R V l f 4 @ M M ",
"@ 7 d N D ) ` %.q.h.7.a t t s - u d d C S A F ~ R K K D D T ` ` T S F K K K / R S A D B d d u & r 3 K t.p.3.2.o.A N f u - = M M ",
"@ 6 d V T ` H H ..q.8.a 0 k l * u d B R R S K ` | | | ` ` ' R ) / } } } } } } ` A D ) T N d u & x 0 4 I q.7.8.F u 7 7 - : t x M ",
"@ 4 d Z ` ` T H H -.>.i 0 k k & q d A ` / A V V S / } | | K B B F } } X.| R Z V Z / D K V d q & k l t 4 2 2 2 & . @ @ : l n M M ",
"@ 4 d V H ` T K K %.;.d e s s + u d B F / T V d N A S A A V N N V A A A S V s f S / A B N d q @ t l x w 6 6 , 6 3 5 6 x M M M M ",
"O 4 d f S ) ` H | 8.3.d 0 z 0 @ u d a V R } R B u s h f d V F K V d f N d q N R | ) H D C g u O e l t x l x x x x x x M M M M M ",
"& 1 u d N I *.1.w.u.o.q e g > O u a p N F G F V d d V F S K ` | H S D S d q R F S ~ ' } I N u O 0 l l x x x x x v v v n n n v x ",
"e : < 7 q f @.8.0.#.u 0 x t w = & 4 s B S G R / R F A Y | | | | | | ` S V V / A B B F } R h 6 - 0 l s l l x x x x v v n n n M M ",
"r r : @ O O - 4 2 4 t z z k t , o 4 d d d B G ` X.Y N y S K F F K K D S K ` ` T S V V A B q & e t s z x x x x x x n v n M M M x ",
"r k t 6 , 3 , 6 6 0 s x z g t t : - q a B F } } D i 3 0 7 u q u y u u B S x ) / | R B N s 2 O 0 t t k z l x x v x n v n M M M M ",
"k z m M m x x x x x x x z z k t t - - a h Z )  .f * 5 t - @ # # @ # + 6 l F B F ` | R N g 1 o 0 k k x s z x x v v v m M M M M x ",
"r m M M M M M n x x x z l s t t t w & $ $ $ 1 2 1 3 e t z s k t s k k q N ` N V Z A N a d 2 o r k s l t x x x x v v v M M M M M ",
"k z m M M M m x x x x x x l t s t t 0 , : = & ; 0 t s k k t l s t s t 0 f H K Z V B s s p - # t k z x x x x x v v x M M M M M M ",
"z m m M M x x n x x x z s z z z s t t t e t t t k t k k k k t t r r e : < B ` ` } D d s 4 & 6 k k z l x x x x x n n x M M M M M ",
"v x M M M M x m x x x l x l l l t t t s t t t t s t z s x t t 0 9 , 9 6 + y X.%.[ A g s - & r z l l x l x v x x n v M M M n M n ",
"x m M M M M M m x v x x l l x s z s t t t t t k z k z t x x t 9 > > 8 9 O 2 W { A g a u $ , t z x x l x x v M M v v M M M M n v ",
"M M M M M M x m v x x x x s x t t t s t t t t k z z l x x s r 9 > > 8 w - 1 j Z u 2 3 2 $ w x g x l x x v x x M x n n M n n n v ",
"M M M M M M m x v x n x x x x l x z z k s x s z s x z x x t r 9 8 9 r t t : $ $ @ O O # ; g z x x x x v x v M M n n n M n v v v ",
"M M M m m m m x n n x x x x x x t g z z x k z z x x x x z r 9 9 0 r k z g k , = % = : , e l x x x x c x M x M x M M m M n v x x ",
"M M M x x z z v v x c x x z z x x x z z t z x s z z x l z 9 8 9 r z v x z x 5 = = = 6 5 k x x x x x x n M M M M M M M M b v z r ",
"M M M x z z z x x n x x x x x x x x x k r t z x t t t x z 9 8 8 r z v v x x x x x x x x x k z z t x x n x x M x M M M M m z r r ",
"M M M m z k k x n n x v x x x x x x t e r r z t r r t z t 9 9 9 r x v z g x x x k x k t t t r t t x v n M m m m m M m m m x r r "
};
