/* XPM */
static char *player_atk_31678373085[] = {
/* columns rows colors chars-per-pixel */
"64 64 110 2 ",
"   c #050305",
".  c #0A030B",
"X  c #0E0B11",
"o  c #140C13",
"O  c #1A0E15",
"+  c #151215",
"@  c #1C1117",
"#  c #161218",
"$  c #1C1419",
"%  c #1E191D",
"&  c #21151B",
"*  c #231A1E",
"=  c #291A1F",
"-  c #1F201F",
";  c #1F1D21",
":  c #261620",
">  c #241C21",
",  c #2A1E22",
"<  c #242324",
"1  c #2C2225",
"2  c #262629",
"3  c #2A2629",
"4  c #272929",
"5  c #2C2C2C",
"6  c #312326",
"7  c #332629",
"8  c #342A2C",
"9  c #3B2C2D",
"0  c #2F302F",
"q  c #3F322E",
"w  c #2E2E31",
"e  c #312F31",
"r  c #3C2E30",
"t  c #2E3434",
"y  c #333434",
"u  c #3D3232",
"i  c #363837",
"p  c #373738",
"a  c #383738",
"s  c #353A3A",
"d  c #3C3D3D",
"f  c #402E2F",
"g  c #41312F",
"h  c #412E30",
"j  c #433535",
"k  c #4A3636",
"l  c #443837",
"z  c #4B3937",
"x  c #453A39",
"c  c #4B3D3B",
"v  c #523D3B",
"b  c #3F403F",
"n  c #4E403E",
"m  c #53413E",
"M  c #58423F",
"N  c #3E4040",
"B  c #444444",
"V  c #4A4545",
"C  c #474847",
"Z  c #474848",
"A  c #484848",
"S  c #544441",
"D  c #5A4643",
"F  c #574945",
"G  c #5C4A46",
"H  c #5F4C48",
"J  c #624B46",
"K  c #634E4A",
"L  c #684F4A",
"P  c #655246",
"I  c #66514C",
"U  c #6B534E",
"Y  c #6E584F",
"T  c #70554F",
"R  c #6E5650",
"E  c #6F5A52",
"W  c #715651",
"Q  c #745B54",
"!  c #795E56",
"~  c #7B5E58",
"^  c #766056",
"/  c #786156",
"(  c #7D6159",
")  c #82645C",
"_  c #84695E",
"`  c #856C61",
"'  c #8A6D62",
"]  c #8E7365",
"[  c #907366",
"{  c #937669",
"}  c #94796B",
"|  c #9A7D6E",
" . c #9D7F70",
".. c #9D806F",
"X. c #9D8171",
"o. c #A38574",
"O. c #A68977",
"+. c #A58A78",
"@. c #AC8D7A",
"#. c #AE907D",
"$. c #B1937E",
"%. c #B59581",
"&. c #B79983",
"*. c #BB9C86",
"=. c #BE9F88",
"-. c #BFA089",
";. c #C09E88",
":. c #C4A48C",
">. c #CBAA91",
",. c #D8B69A",
/* pixels */
"A A A A Z Z Z Z V Z Z Z V Z Z Z C B N s i s d N Z Z N d s s s s d N Z Z Z Z N N s s s s s s N t t t N N N Z A Z Z N N t t t N t ",
"A A Z A Z Z Z Z B V Z Z B Z B V C B N s s s N B Z B N N s s t s d N Z N N N N N N s s s s s t s N N N N Z Z Z Z Z N N t t t s N ",
"A A A A Z Z Z Z Z Z Z B B Z B Z C B B N N N N B B B N N d s i s s N N N d d d N d s s s N s s t N N N N Z N N Z Z N N t t N N N ",
"A A A C B V Z Z Z Z B V Z B B B B B B B B N B B N B B B N d s s d N N d s s d d d N N N s N N N N N N N Z N N N N Z N N s N N N ",
"Z A A A A V B Z Z V Z V B B B B B B B B B N B B N B B N b N d s d N N s d d N d d N N s N d N N N N Z Z Z N Z N Z Z N Z N N Z Z ",
"C A B C Z Z V Z B B B N B B B B N B B N N N n N N N N N b N d d s N N d d d s N d N N N N N N N N N Z Z Z Z Z N Z A A A N N N Z ",
"C C C A V Z Z B B B B B B B N B N N d B N N b d x N N x b x d d d N d N N d d N N N N N N N B N N N N Z Z Z Z Z Z Z Z Z Z Z Z Z ",
"C C B A B B B B B N B B N B N N N n d d B d b b N d d N b b d d d d N d d d d d N x N B N B x B N N N Z Z Z Z Z Z Z Z Z Z Z Z Z ",
"B V Z Z Z B B B B N N N N N d d s d d d d d d x d d b x d d d d d d d d d d d d d N N b N N B N B N B B B B B B Z Z Z Z Z Z Z Z ",
"Z Z Z B B N B B B N d N N d d s p p p d d d d d x s d s d d d d d d d d d d d d d N b b N N N B B B B B B B Z V Z Z Z Z Z Z Z Z ",
"Z Z Z B B B B B N N d s s s p y i s p d d s d d b d d a d u d d d s s s d p d d d d x N N N B N N N B B B V B B Z Z Z Z Z Z Z Z ",
"Z Z B B B N N N N d s s p s t t i i p d p d a a s d d p d d d s a d d d d a p p d d d N n d d N N B B N B Z V B N Z Z Z Z Z Z Z ",
"V Z B B B N d s s s i t t t w t t t y p a a a p d p p d p p p p p p a a p p p y a a p s s B N x d d N N N B B V B Z B Z Z Z Z C ",
"B Z B B N N s N s i t 2 2 2 < 2 2 < ; 2 8 y d y 5 8 7 5 7 5 8 8 3 , 3 3 3 3 3 8 S F u 2 2 5 y 5 w 3 3 3 w e b B B B B C B B Z B ",
"Z B B B B d s s s t 2 > * ; % ; % < 8 > o % t y * , j q 9 9 7 8 r r r r r 8 7 c ` o.I 7 > $ o * 3 8 r e 3 # ; x A C B Z B C C B ",
"Z Z Z B B N N d t < , 7 7 7 3 , 7 J ' H + X 5 3 @ 9 V n V c x S R E E E U S S ! o.:.$.' Y ,   @ v Q ) ` Q , . 3 N C B B C B C C ",
"B Z B B B N N N 3 > 9 c c F F x H [ =.$.Y S j > > u n l l S D K ) ) ) ) ) R H U ~ { %.>.>._ = @ J  .O.%.:.] 9 $ 3 d B C B B A B ",
"V Z B B B B d w 1 r c n G Q K c Q ' | %.%.$.I $ r c n F G R ! ! ) ' [ [ [ ' R G Q ! ] #.*.*.P   j ` [  .%.@.` c $ y B C A B B A ",
"B Z Z B B B e : 9 c c c R ( K n U Q W ' :.,./ O r x S K I Q ) ) ) W L L R R c 8 D ! ( ( ] @._ $ 6 D W ) Q E } [ & 3 A C B A A B ",
"N N B B C Z 3 $ j V l S Q ( Q I G U W ) #.:.Y o 8 c c S G Q ) ` ~ k 6 6 7 7 , : 6 D Q ! Q ` { I * 9 L T c u ` @.& 3 C C B B B A ",
"s d N B B C 3 @ j c x S Q ) ) ! K D K ! } | m @ c U G S x I ' ~ k , : ; : 7 h h 9 9 D ! ! Q o.X.@ $ G F u x ] o.& 3 B B B A B B ",
"i d N N C C 3 @ j c j S ! ) ! R D x D Q ~ ! 9 & L ) ! U D J U v 6 7 j k v J W Q T k f v K W o.$.m > 9 x c K | o.@ 3 B C B B B B ",
"s s N N B C 3 @ x S l m R Q D c S x m U ) ' k o K ' ( ) ! K 9 * 7 x K Q Q ) ) ' ) T h 6 j I ] -.O.j $ l U ) $.#.& 3 V B B B B A ",
"N N N B B B 7 & l c x x S S x j G U M G | $.G O J ) ! ( ) G $ o j S K ~ ~ ~ ~ ~ ~ ) v 6 c F E :.>.c o j ! | ;.| , 3 B A B B B B ",
"N B N B B b a , 3 h n x x S H K ! ~ L Q @.] c v T ( ! Q I m > @ j H R ~ ~ ~ Q ~ ) ) J v L S I -.:.z o z ) @.o.v 7 y B B B V V B ",
"B N N B B b b r @ r S n x D Q ) ) ! ) #.$.n 1 / ( ! ~ Y S x 1 $ j H Q ) ) ` ) ) ) ) P v K G ( :.*.l O x ' ;.( o w B B N B N B B ",
"d N N N b B N d ; 7 j x c F R ( ( ' | o.] g j ) ) Q ( U c c 1 & a c S K K K U R T L k 6 r J ' *.&.z $ z Q { G # y B N B B B B V ",
"s s d N b b N d w , > 7 j x c c S ` ) z 9 z L ~ ! ! ~ Y c x 1 $ h j 6 7 h 7 6 6 h 7 : O * M ) | %.z $ 9 j j r 5 d B N B B B B B ",
"s s s N d N d d p w < < 1 1 , * * c z * * x R ( ~ ! ( T m x 3 @ l S 7 : h v : O 9 = , 7 & k ! ' @.v o > 2 2 w s b b N B B B B B ",
"s s s s d d d d s y t w , $ $ > * , 3 q l x H ) ) ~ ( ! I m , O x I z r T ) M k U D J D = j ! ] %.c X > 4 w y d b B N N B B Z B ",
"d s s s d d d d a p p y w $ * j j 8 u H Q D S I U Q Q Y I F 7 % 8 S S F ~ ' ~ ~ ) ( W v 7 D Q ` @.m o 2 t i p d b b N B B B B B ",
"N N N d d d d s d p p p t % 1 S S c F Q ( Q H c n T W H G S c 8 , r x n S S D D S D h 7 J W G I +.S # 4 t y p a d d d N N N N N ",
"N B B N N d N d d d p d p * , m c x G / ( ( W J J T Q D l j l u , , * * * $ * * $ $ 1 M ~ Y r G o.D # 5 y i p s d d d s d s s d ",
"B B B N B N N b d d a p p * , c c j G ! ~ ~ ! ~ ~ D j 9 1 * * = $ : * * $ $ $ O $ 1 M ! Q G x Q +.m # w s s s d d b N d s s s s ",
"B B B B B d N d d d d p p % , c c l D ! ~ ! ) ~ J 9 , * , 9 j j r , 3 z c x x x v G Q E D K W [ @.m # t p s d d d n s N s s s s ",
"C B B B N x d b d d a d p * , V x l G ! ( ! ! J 7 7 u 8 l Q | o.} S h G Q ! ( ! I m c j 8 x v ) %.D # y d s d x B d N N N d N s ",
"B C B B B N b b d s d d p * , c V x G ! ) ( G 6 8 j c n L _ o.;.-...D k Q ' ' W j = * & * 1 = D o.M % y d d d d d B N N B N N N ",
"B B B N B N n N d x d a d 5 1 8 x c m U ) ) k $ 9 c S I Q ~ _ o.*.:.Q 6 L Q v f 7 3 * 9 G I I J n 7 5 p s d N d N d B B B B B B ",
"B B B B B N n b b b d a d p 5 , r c c S R ) z + u c F Q ~ Q T ~ ..*./ 1 D S 6 , u u u J [ #.*.| z * 5 d d d x N x B B B B B B B ",
"B B B B N N b b d x d d d p p 5 % 7 c x G Q z @ r c G ~ ~ Q Q U ( O.Q , k h , l x c H ! _ O.;.:.o.g > p b d N N N N N B B B B B ",
"B B B B B N b b x N d d d d d y O O 8 x V D 9 @ u n G ! ( Q Q U Q o.^ 6 z 7 , c c G Q ! ! )  .:.;.v ; y d x N x B N N B B B B B ",
"B B B B B B B b N N d d d d x y o $ 1 1 6 j 7 $ u c V K ! ! R Q } *.^ 6 v 7 , n K Q ~ ~ W T ~ O.%.v # y d d N N N B B B B B B B ",
"A B B B b B B b N d x d d a y 5 , 9 9 > & 3 , * 7 l c S U ` { o.%...G k v 6 > c U ! ~ ! Q W U ' @.v # p N N N N N x B B B B B B ",
"B B B N B B B b B N N d d d 5 & u c l u r 7 9 j 7 7 8 7 j Q ] } } G k J M * > x S R ) ~ ! W T { %.v # y d d N N B B B B B B B B ",
"V N N N b b B B x N N d d d 3 & j V x m K J J W D 9 & & & 9 j j j m D H H 7 , j c U ( ( ! ! [ $.%.z ; y b b b n b N B B C B B B ",
"N N N N B B b B B d N d d d 3 @ j c m U ! I U ) ) J z v v z v k z I K S Y K 9 , u G K G I ' &.$.L 7 w d b b b b B B B B B B C C ",
"d N b N B B B B N B N d n s 3 O j c G ) ~ I G I T ! ) ) ) ) W G D J G G ! ) J 6 < , , > 3 G ' Y 7 5 d d b b b B B B B B B Z B C ",
"N N d b B B B B B B N b N N 2 O j c D Q ( Q K c x K ! Q W T K m m v G Q ! ~ ) K 6 & > , , = & 1 y d d d b b B b B B C B B B B B ",
"N N N N N Z B B B N N N N d 2 O j c c D Q ( ! H l x S S V v G U U I W ! ~ ~ ( Q K / ] } ' 9 + 5 N N b N N b B B B B B A B A B B ",
"N N N N B B B Z B B V N N N > @ j S l n Q ( ) W l r c H J G U ! ~ ! ! ! ( ( R J Q ] @.@.Y 9 5 d N N b b N B B B B V B A A B B B ",
"s d N N B B Z B B B N N N d w > 8 j x S Q ( ) Q G n D I Q ! ~ ) ( ) ) ! Y K m c Y ~ | [ 8 < d d x N b b B N B B B B B B A B B B ",
"s d N Z Z Z B B V B B N N d p w * 8 c S K E W ! ! ! E I Q ! Q Q Q Q Q Y S x x S T Q } ] 1 > d d d N b V B V B B B B B A A A B A ",
"s s N Z Z Z Z Z B B B B N a d e O 6 c c m S P ( ~ ! W K D n S m S S v v c a S Y W Q  .{ 6 < s d d N b B B B B A A B A B A A B A ",
"s s N Z Z Z Z Z Z B B N B d d y O $ 9 x c D W ) ~ D 9 9 , , > > = > > 7 u c J ( ) [ $.{ 8 ; p y a N N N B B B B B A B A A B B A ",
"s N N Z Z Z Z Z C C B x d d p y < O , x n H / ' ` h o $ > > $ * % * % > 7 l D Q | *.$.J & % 0 8 a a b B B B B B B A A A B A A A ",
"N N N N Z Z Z Z C B B B d p e y y > , u j u m Q L 7 $ < 3 5 w 4 5 e 5 < * 1 9 c [ @.J & o < 0 0 y d b V V B B B A A B A A A A B ",
"B V V Z Z Z Z Z C C B N d p y w 0 4 * & & @ $ = , * - - < 4 0 7 5 5 0 4 - & @ $ , 7 * O % 5 5 y a d N B B B B A A B A B A B A A ",
"Z Z Z A Z V Z Z C B B N x p p e 4 3 < % % % % + @ - - - 4 4 < 4 5 5 5 5 5 < % % # o $ ; 2 5 0 5 a d N B A B A A A A A B A A A B ",
"Z Z A A Z Z Z Z C Z B N N d d a y 5 4 4 4 0 4 - - - - 4 4 4 3 4 t 5 8 y 0 0 0 4 2 3 5 w 4 5 0 0 a N B B B A B A B A A A A A A A ",
"A Z A A A Z Z Z B Z B B B N x B d d p 5 0 0 0 5 4 4 4 5 4 0 5 5 y y p y y 0 0 0 y e y y y y p d N b B B A A A A A A A A A A A B ",
"Z A A Z Z Z Z Z A A B B B B B B B d d d i p p y y 0 y y y 5 y 0 p d d p y y 0 y y y a p a s a N N B V V Z B A B A A Z A A A B B ",
"A A A Z B N B B A A A A B C C B B B B d s d s s b d a d a p a d d d d s s a a d d a d d d d d d N b B B Z Z A Z A A A A A B N d ",
"A A A Z N N N B A A B A C C C C C B N d N b b d b b n b d d d N d B N d b d n b N B N N d s s s d B B A A Z Z Z A A Z A Z B s s ",
"A Z Z V N s N B A A Z Z B Z B C C B N b N N b b b b b b d d b N x d n N d b b b B N N N s s s s s B B A A Z Z Z A Z Z Z Z B s t "
};
