/* XPM */
static char *cGxheWVyX2Rvd25fMg__[] = {
/* columns rows colors chars-per-pixel */
"64 64 162 2 ",
"   c #160C13",
".  c #190E14",
"X  c #1F0E1D",
"o  c #151115",
"O  c #1C1117",
"+  c #1E141A",
"@  c #1C181D",
"#  c #21151B",
"$  c #23191E",
"%  c #281B1F",
"&  c #1F1D22",
"*  c #251D21",
"=  c #2A1E22",
"-  c #252225",
";  c #2C2225",
":  c #2E2922",
">  c #262528",
",  c #2B2629",
"<  c #232C2C",
"1  c #2D2A2D",
"2  c #312427",
"3  c #332629",
"4  c #39272A",
"5  c #352A2C",
"6  c #3A2C2D",
"7  c #2D2F30",
"8  c #332E30",
"9  c #3C2F30",
"0  c #273131",
"q  c #2D3535",
"w  c #343435",
"e  c #3D3232",
"r  c #363738",
"t  c #393638",
"y  c #343A3A",
"u  c #3C3D3D",
"i  c #41352C",
"p  c #413A2B",
"a  c #432F32",
"s  c #423434",
"d  c #4A3736",
"f  c #453837",
"g  c #4A3937",
"h  c #463639",
"j  c #4C3638",
"k  c #453B3A",
"l  c #4B3D3C",
"z  c #523E3C",
"x  c #49542B",
"c  c #4E403E",
"v  c #52413F",
"b  c #58413F",
"n  c #616539",
"m  c #617234",
"M  c #60713A",
"N  c #3F3F40",
"B  c #403F40",
"V  c #553C40",
"C  c #3E4141",
"Z  c #454545",
"A  c #4A4645",
"S  c #474847",
"D  c #484847",
"F  c #484748",
"G  c #474848",
"H  c #484848",
"J  c #544441",
"K  c #5A4643",
"L  c #5C4946",
"P  c #5E4C48",
"I  c #604A46",
"U  c #634D49",
"Y  c #684F4A",
"T  c #66504B",
"R  c #6B534E",
"E  c #6E5650",
"W  c #6F5952",
"Q  c #725751",
"!  c #715751",
"~  c #705651",
"^  c #715852",
"/  c #715951",
"(  c #755953",
")  c #755B54",
"_  c #765B54",
"`  c #735D54",
"'  c #755E54",
"]  c #745A53",
"[  c #785E56",
"{  c #7A5E57",
"}  c #7A5E56",
"|  c #7B5F58",
" . c #7C5F58",
".. c #7B5E58",
"X. c #73644F",
"o. c #6A7140",
"O. c #76734B",
"+. c #776752",
"@. c #786157",
"#. c #7A6057",
"$. c #7F6957",
"%. c #7D6058",
"&. c #7F665B",
"*. c #7E6159",
"=. c #815F5E",
"-. c #80625A",
";. c #83645C",
":. c #84655C",
">. c #81635B",
",. c #85695E",
"<. c #88685F",
"1. c #86745A",
"2. c #8A7B5C",
"3. c #856D60",
"4. c #866B61",
"5. c #886B61",
"6. c #896C61",
"7. c #8A6D62",
"8. c #8E7064",
"9. c #8C7365",
"0. c #8E7265",
"q. c #917567",
"w. c #937569",
"e. c #937668",
"r. c #96786B",
"t. c #97796C",
"y. c #95796B",
"u. c #9B7F6F",
"i. c #9A7C6E",
"p. c #9E7F70",
"a. c #6C8A3A",
"s. c #6F8340",
"d. c #778B44",
"f. c #85924C",
"g. c #858551",
"h. c #8C8D54",
"j. c #8EA64D",
"k. c #8CAF48",
"l. c #9C806F",
"z. c #9E8170",
"x. c #A18473",
"c. c #A58776",
"v. c #A38573",
"b. c #A68976",
"n. c #A88976",
"m. c #A98C79",
"M. c #AC8E7B",
"N. c #AC8D7B",
"B. c #AF927E",
"V. c #B1927E",
"C. c #B49681",
"Z. c #B39480",
"A. c #B79883",
"S. c #BB9A85",
"D. c #BA9A84",
"F. c #C3A38B",
"G. c #C5A58D",
"H. c #C3A38C",
"J. c #C9A98F",
"K. c #C9A88F",
"L. c #CAA990",
"P. c #D5B398",
/* pixels */
"H H H H H G H S S S S S S S S A S F u y y y N Z Z Z N u y y y y y C G Z Z Z C C y y y y y y y y y y y C Z G G G G C y y q q N q ",
"H H H H H H H F F F G G S S Z Z S S Z C C C N Z S S Z C y y q y y C G C C y C u C u y y y y y y y y C C Z G Z Z G C N q q q q C ",
"H H G H H H G H F H H H F H F F S F S S S S S F G Z S Z Z C y q y Z C y y y y C C y y u y y y y C C C Z Z C C Z C C N q q C C C ",
"H H H H H H H H D H H H H H H F H F F H F F S S F H Z Z G C N y y Z G C y C C C y N C C C y C C C C C G Z Z Z Z G Z C y C C C C ",
"H G G H H H H H H H H G H H H H H H H H G H H H H Z H H H H C q C C H H C C y y N Z Z S C N C Z C C Z Z Z Z Z G G G G C C G G G ",
"F H H H H H H H H H H H H H H H H D G H H H H H H H H H H H Z y C C H H G C y C S H G G S S S S G C Z S G Z H H G H G G C C G G ",
"D H H H H G H H H H H H H H H H H H F H H H H D H H H H H H Z C C C C C C C C C H H H H G G H S G S S S G Z H H G G H H G H G G ",
"F D H H H H F D H G F H H H G H H G H H H H H G H H H H H H H H G G C C y C C G H H H H H G H H G G S S G G H H G G H H H G G G ",
"S S H H H H H H H H H H H H H H H H H H H H H H H H H H H H H H G H G C C y C C G G H G H H G H H H F S S H G H G G H H H G G G ",
"S G H H H H H H H H H H G H H H H H H G H H H H H H H H H H H H G H G G Z y N C C G H H H H H H H F H H F H H D H G H H H G G G ",
"S S F Z H H H H F H G H H H F H H H H G H G H H H H H H H H H H G G G G C C u C G H H H H H S S D H H H H H H H H H H H G G G G ",
"S S H Z H G H F H H H H H H G H G H H G H H H H H H H H H H H H H G G C C y C Z H H H H H H G S H G G H H H D F H H G H H G G G ",
"F F F F H H H H H H G G H S Z w - & > 7 F H F S B e 5 1 5 5 w 5 t w 3 3 5 w u S H H Z 1 - & - t Z S Z H S F F F F F F F H S S S ",
"F F F F H H H H H H S t ; * $ @ $ 9 f : @ 1 , ; 3 f s s s 6 9 e 6 e s s f 8 ; ; 1 q o 3 l 5 @ $ $ $ ; 5 S F F F F F F S H S S S ",
"S S Z S H H Z S S t 5 5 6 e s 5 e @.l.E % * 4 e d l l k l A J J c l k k c l e 6 3 @ 2 &.v._ e 5 e e 9 9 ; w Z S H G S S S Z F F ",
"F Z Z S H H F S w - 6 k J U P l E r.D.B.,.R s 9 l k k k J T ( } T K k k k c f 2 J _ 9.D.D.e.R c L Y A l f - * Z D H S S F F F Z ",
"Z F F F S S F t 2 6 k l L _ T c ` >.8.M.G.m.g = s c L Y ~ | *. .| ^ U U J l 6 . ^ L.G.c.7.>._ l U { U c l s ; 3 S S H H Z Z Z H ",
"Z F F S S S B , ; g l c R %.R b U / ( r.J.C.g + 8 l L R E ~ ~ ^ ~ ^ E Y J c l 6 _ P.H.5.~ ^ Y v T -.^ c k l s # w Z H H H G S S ",
"Z S Z S F F u * 2 l l c R *.{ R L Y ~ ,.m.l.s = k c v J K T E T T L J J T ( R J J y.b.*.R Y L R { *.( J f c d . , G H H S Z S S ",
"C Z Z S F F u * 2 f k l ~ >.>.{ U v U *.7._ 4 4 Y R L v T E L J J K c K #.] J k J P #.{ I v U { >.;._ v f l s + , H H H S F F F ",
"y N Z F F H u * 2 k k z ~ -.^ U K f K ( E J e s ( -.{ *.5.:.( L K (  .#.E R R _ ^ ( T ^ v f K U ^ >._ v f c s + , H F F F Z Z S ",
"y u N S F D u * 2 l l l U T J f J v J ^ T l f k K -.( ~ ~ ~ K e 6 L ( { { #.#.#.&.-.*.T v v v f v R T v f A s + , F F F F F F Z ",
"y u Z S H H Z 5 2 f l k l J l l T ^ ~ { _ R U T T Y l 4 3 4 6 3 2 a z Y ^ ( _ ;.T ^ -.T K Q T l l J c k g l e $ y F S S F S Z S ",
"C C S Z H H Z t ; 3 k l f J T ^ *.#.{ { #.{ { { T j 3 ; 2 6 h V z j s z Y T ^ ;.J c K &.~ { %.^ R K f k v 9 % , S H S S Z F Z Z ",
"C Z Z Z G G G C > = k c c v ` ,.*.{ { #.*.-.-.( I 4 6 h V V E _ _ R V a a V Y [ U A v ,.7.{ :.<.` K k c J 5 . t F F Z F F S F Z ",
"Z C Z Z G G Z C 1 - 4 9 k J T ` { { { ( ^ ^ { I s 4 h U ~ ( ....-.-.R j 4 a K E ] R R { t.e.@._ T J l e 6 ; * u D F S S F S Z Z ",
"u C C Z G Z C y t 1 - ; 6 e s J { #.R K v K R 9 * 9 A O.h.h.-.} ..1.g.n 9 l K U @.*.*.( ^ &.f 9 e e e ; * - w S H H G S S Z Z Z ",
"y y N Z G G C C u r 1 - - % # 4 ( ^ b l J K L 2 * s v d.k.j.1.=.=.2.f.m p V L T #.-.*.R s 6 # + $ * ; - > t Z H H F S S Z Z Z Z ",
"y y u Z G G G C u u C C y - + 2 k L U ^ ] ] P ; = a l M a.s.' ( } +.M x : 6 J R ( U U K 6 = ; 2 + $ u F H H H H S S Z Z Z Z Z Z ",
"y y u C C Z C C y q y C u < = g l c U _ *.&.R = = 9 4 = ; , a a a a 4 # . $ s Y T v J U k e k k % 1 H D H H H H A S Z Z Z Z Z Z ",
"y y y y y y u y q q q y q < ; A c J R ( Y | T ; = a 9 * X = 4 # O = X X # # 6 K U k *._ L l v v ; w D H G H H G F Z S Z Z S Z Z ",
"u u y y y q q y y y q q q 0 = l l f Y R K K K * * h J 4 6 V I 4 2 j a a d 2 4 z U v *.| K f l l = 8 S F G G Z Z C k N B u u B u ",
"Z C Z C C C C Z C C C u u - = l k f I { T c J ; = e v v K ^ &.R Y Q ~ T b a s I ( _ | _ L f l l = $ y u u u y u y u u u y t y u ",
"Z Z Z F G H Z H D S S F Z = = l l f U _ ^ P c 6 ; 2 9 l J K U P I I I J d g b Y _ _ | _ K f l l = @ q q q q y u u u y u y y q y ",
"F Z Z H H H H H H H F F Z * = l l f U { { ( R f 9 ; = ; ; 3 2 4 4 2 3 4 d I ~ ~ ( _ | #.K k k v = $ q < @ @ @ - > ; 7 u y y y y ",
"F S G H H H H H F F F S S 1 ; k c k L { %.{ _ R K e , % @ $ @ + # $ ; s U ( ( ( ( | *._ K k c k ; , 0 ; 6 s f 2 @ % = , Z C y y ",
"F S F F H H H F F F S Z Z c - 2 f c c T { %.%.{ R J l s s f s e 9 s g K R R ( { #.*._ U l l g ; ; r * R v.b.l.T 9 9 9 ; 5 S C u ",
"S S S Z F F H H F F S S Z Z w - 4 f l v T #.>.^ K P T R T T T Y T U I U L v T -.;._ U l l k 2 ; w 8 R B.J.S.l.%.K l k f 1 1 S S ",
"F F S S Z Z Z C Z S S Z Z Z C t O ; f c K R ^ K c U ` _ E R ] _ ( ^ R T Y l l T ] T J l f = + w t 3 r.J.D.y.&.{ ] P c l 5 # H H ",
"H F B 1 > * & & o 1 k S Z Z Z t   . , e k c v k v E %.>.| ^ ] ( ( { -.*._ L g l J l f s ;     Z t 2 y.D.q._ / _ *.E J l 5 $ H H ",
"H Z , * * * 6 s s 2 w Z Z Z Z Z O % 2 $ = e f f c K K ^ *.*.#. .*.-.{ U K c k k k 5 $ % ; % O S w 3 e.l.( ~ ( _ *.( J l 3 # H H ",
"Z 5 2 9 9 l *.v.c.&.6 t C c Z t ; f 9 = $ * 5 e e e t v K R { { T P v f e e e e 1 # # ; e f ; t w 3 q.i.~ ~ ^ { *.^ J l 5 + H H ",
"7 2 s k J T 7.M.H.A.&.f Z Z N , s c k f s s k J J c z J J U _ _ U v c c c v J J i 9 g f f c s , w 3 r.V.<.( ( { ( L c l 4 # H H ",
"# 9 l J Y ( *.7.m.F.v.g t u u ; s l l P R T R { ( E E R R ` *.%.( R E R ^ ^ _ _ Y T W K l l s ; t 4 R V.D.z.t.,.T c l f ; - D H ",
"$ 6 k L ] | ^ ^ ,.m.v.l w N c * e c K ( ( Y R #.*.-.*. .*.#.( { { *.*.*.-.*.*.%.Y T { ^ J l s * Z q 3 W n.n.v.W s 6 9 = 1 u F D ",
"+ 8 k L _ #.} ~ ~ q.e.g w u u % e l T *.} Y L L R { -.*.*.^ K K R *.*.*.-.( P K P | E ~ P l e * C c C 8 3 4 4 % . + $ , C H G H ",
"# 5 V L (  .( ~ ~ 6.e.g t u u # e l K ^ | ( L l v U Y U U L J J L U U Y T K k J T { U J v k e + C C Z t 8 8 8 7 5 1 8 Z H H H F ",
"# 6 l J Y ( } ( >.v.l.l t C t + s c k K _ *._ J f k l v l L E ~ L v l v l e J _ *. .^ R U c s # t u C c B Z F Z Z Z S H H H F S ",
"* 2 f l J ^ 8.l.B.V.&.e u C 1 + s l f J R ` ^ L l l P T T ~ *.*.^ T T T A e ( E T { { { ( A f O w u Z c Z Z Z Z Z Z H H H H F G ",
"t , ; e e c 3.v.n.3.f w C k r - % 6 l J T E ( _ ^ E T ( -.-.-.-.-.>. .Y K P [ U J K R *.} z 8 - t u u C Z Z Z Z Z G Z H H F H Z ",
"y y , # O + = 3 4 5 t k C u C 1 + 3 l l l L ~ *.>.( K s T ~ E E ^ ^ T Y ~ { #.] R I L Y J e = t u k C C C Z Z Z Z Z H H H H H G ",
"y C C 5 5 1 5 1 8 t Z Z C c u u , ; e k J ^ *.*.R g 2 8 9 s e e s s d K R B _ @.*.( L v l 3 + q u u u Z k Z Z F G G H H H H H H ",
"u C G H G G Z F Z Z Z Z C u k u t , ; f v I { >.b * 7 u ; % $ * # $ @ 8 c T L W *.*.^ J l 4 O t u B k C Z Z Z S F Z Z H H H H Z ",
"y S H G H G F F Z Z Z C Z u u u u t ; % % = 2 6 3 5 t u u u u u u k C e J #.J K U U J k l 3 O t u B u Z Z Z Z Z H H H H H G H H ",
"C Z G G H S S F Z Z Z Z Z C c u u u t 1 , - - - w u u C k u u c u k u w z ( R U L K k k k 2 * y B k C C Z Z Z S Z H H H H H H H ",
"C Z G G H S S S Z Z C C c C u u k u t u u y u u u u k C C Z u t y y t , 2 b %.*.*.R l g 5 * 8 N B Z Z Z Z Z Z Z Z H Z H H H H H ",
"S G H H H Z H Z F Z Z u Z B B k u u u k u u k u u u C k Z B u w q 1 q 7 # i >.6.#.U v l ; * u k Z C Z B Z F S H H H H H H H H S ",
"Z H H H H H G G F Z Z Z B B Z C u N u u u u u u k N C u Z Z u 0 < < 0 q @ 4 { -.T c k s = , C C N k Z Z Z S S H H Z H H G H F S ",
"H H H H H H Z G S Z Z Z Z Z B B k N C k u N u B C C N Z B Z u q < < 0 r - 3 b I i 4 5 4 = t k Z Z Z Z Z Z F H Z H H H H F F F S ",
"H H H H H H G G F Z S Z Z u Z Z u Z C u k B B B B Z Z k Z u y q 0 q y u u ; % % # + + # - Z Z C Z Z Z Z F Z H Z H H H H F S S S ",
"H H H Z G Z G Z Z F Z Z Z k Z C u c C C Z C N C Z Z Z B C y q q w y C C Z k 1 - $ - 1 1 t Z Z Z Z Z Z Z H G Z H H H H H F S Z Z ",
"H H H G Z C Z Z Z F F Z Z Z Z Z Z Z C C u C C c u Z Z Z y y 0 q y C S Z Z Z 8 - - - 1 7 u Z C Z Z Z Z S Z H H H H H H H F S C y ",
"H H H Z C C u Z S S Z Z Z Z Z Z Z Z Z u y y Z C u u u Z C q 0 q y Z S Z Z Z Z Z Z Z Z Z Z C C C u Z F Z Z F H Z G H H G G C y y ",
"H H H Z C u N Z S S F Z F Z Z Z Z Z C u t y u C y y u u y y 0 q y C Z C c Z Z Z Z Z u u u u u u u N F S H G G G G H G G G Z y y "
};
