/* XPM */
static char *player_d_41678373083[] = {
/* columns rows colors chars-per-pixel */
"64 64 81 1 ",
"  c #191017",
". c #1D161B",
"X c #1E1B1E",
"o c #20171C",
"O c #221A1E",
"+ c #241E22",
"@ c #291E22",
"# c #262225",
"$ c #2B2225",
"% c #2C2629",
"& c #2D2B2C",
"* c #322629",
"= c #332B2D",
"- c #392C2E",
"; c #2F2F30",
": c #332E31",
"> c #3A2F31",
", c #2E3535",
"< c #343334",
"1 c #3B3335",
"2 c #383837",
"3 c #373738",
"4 c #3B3738",
"5 c #353B3B",
"6 c #3C3D3D",
"7 c #433636",
"8 c #463837",
"9 c #433C3C",
"0 c #4A3C3B",
"q c #4E403F",
"w c #51403E",
"e c #3E3F40",
"r c #423F40",
"t c #3E4040",
"y c #444444",
"u c #4A4545",
"i c #474847",
"p c #4A4847",
"a c #474848",
"s c #484848",
"d c #544441",
"f c #594743",
"g c #554946",
"h c #5B4A46",
"j c #574C48",
"k c #5D4C49",
"l c #5A504C",
"z c #5A5451",
"x c #634E47",
"c c #634F4A",
"v c #65514C",
"b c #6A534D",
"n c #6E584F",
"m c #70544F",
"M c #655751",
"N c #6C5651",
"B c #6E5B55",
"V c #725751",
"C c #735C55",
"Z c #795E56",
"A c #795E58",
"S c #756158",
"D c #7C625A",
"F c #79695F",
"G c #7A6B60",
"H c #82655C",
"J c #83695E",
"K c #856C62",
"L c #8A6C62",
"P c #867367",
"I c #8C7266",
"U c #8D7669",
"Y c #917166",
"T c #937B6C",
"R c #997C6D",
"E c #9E8171",
"W c #A58575",
"Q c #A88977",
"! c #AE8E7C",
"~ c #B4937F",
"^ c #B49580",
/* pixels */
"ssaaapaauaaayauaiyt5556tyytt5555etyyyytt5555555,555taaaaat5,,55t",
"ssaaaaauyauaaaayiit555tttatt6655etytyttt65555555556tyayaatt,,,,5",
"aaaaaauaaaaayayayyytt6tqtttttt665ett5e5t55e55555ttttytttttt,,ttt",
"aaapyaaaayuyyuyyyyytytttttttttetee566656et556665ttasaattatt5tttt",
"paaayaaaayyayyyyyytyteq6tttyyytt66655656eee6ttttttaaaitataatttzt",
"paauaayyyayyayyyyytyte66ettyyyytt666t6665e6etttttttaiiyisaasttaa",
"piyauyaayuuyyyyyttttt66656ettyttt66ttt66e5ttttytttaaiyiyaaaaaaaa",
"iiaayayyyyyyayyyqttte62666ettytt6tttttt6eettyyiyatattiyiaasaaaaa",
"ayyayytyetyyyatayttte556566ette6tttttyttt6ttyyiyyyytttyyaaaaaaya",
"aaaayyyttetttaayyttttt66656666666ttyiytt66ttyiyayyttyyyyaaaaaaaa",
"aayyytryyytyyaayyytt666666666666ttyyitqtetttyaayiyyeetyyaaaaiiii",
"yaayyayyyyayyyaaiyyt56655e6666666tyttttt6ttyyyiiyyeeeyyytaaaiaay",
"aayyyyyaayyaaaaayytt6666t5t66666ttttyttteetqtiayyeeeryayyaaaiiyi",
"yaayyyyaauaaaayaaiytt6656teq6666ttyttytttttytyyityeyyyaaaayayiyi",
"yayyyyyyysauaaaaayttt666teee6yt6tttiyytytttyyyiyyyyyyyyuauyyayiy",
"aayyyyaysyaayayaaayqttettttt6ytrqtytytytttytyytyteyyyaaaayiyyiyi",
"yyyyyyyyyyiiiiiyaaayyryetty6yy6ytyyyyyttyttyyyyyyyyyyaaayyyyyyyy",
"asyyyyyyyyyiyiaaayyyyyyyyytyy6yeyrytytyqyyyyyyyyyyyiayayuyyyyaya",
"yyyyyyyryyyyyyayuayayyyyyyyytyyyyyyyyyyy6yyy6yyyyyiiaiyayyytyyya",
"yyyyyayyyytyyyyiyyyyyyyaiy6t6ytyqyyyytyty66y6yyyyyiyayayyyyyyyyy",
"eeeyyyyayytytyyyyyyyyyyyyy666yyrtytyyyty6ttytyyyyiuyayyayeyyyyyy",
"55eyyyyyyyy6ytryyyyyyytyyytyteyytyyyyyyttttt6yyyyiaayayaiyyryyyy",
"55eyyyyyyey6eyyyyyyytteey6y6yyyyyyyyytyttetyyyyyyayyyyyyyyyyyyyy",
"eeeytyrry6yeyyyyyyytye6ett6y6yryyyyyyyyytttyryyyyyyyyyyyryyryyya",
"ttyyttttttyyyyyyyyyet555ttttyyyyyyyyyyyry9yyyyyyytyyyt6ytyyyyyyy",
"ytytt6tettyipyyyyyte6555tttyryyyyyyyyyyyyyyyyyyyytq66y6tytt9yyyy",
"6eee6q966yyyyyyyyyytt666tttyyyyyyyyyyyyyyyyyyyyyyy6yt6tteyeyyyyy",
"556ey6t666tyyyyyyyyttt66tytyyryyyyyyyyyyyyyyyyyyyyyyty6teeyyyyyy",
"55569t9666tyqtyyyyy9tt6yytyyyyyyyyyyyyyyyyyyyyyyyyyt9ttttt6yyyyy",
"555566666669ttryyyytyy6yyytyyyyyyyyryyyyyyyyyyyyyyyyy6ytteqytyyi",
"565565655466ttyyyyryytyyyyyyyyyyyyyyyyyyyyyyyyyyyytyyytyttytyyyy",
"e66666666666ttyyyyyyyyyyyyyyyyyyyyyyyyyyryyytyyyyyyyyyyytttt6ree",
"tyytrer66666ryyryytyyty6yryyyyyyyyyyyyqyytytttttayyyyyyrrt666556",
"yyyryre66696rryuyyy9yytyyyyyyyyyyyyyyyyytyttttttyyyyyyyytyt655,5",
"yyyyytyr696yyyyyyyyyy6yttyryyyyyyyyyyyyrtttete6tyyyyyyyyy6y66555",
"iyyyyyyrt9eyryyyyyyyyyy6yyyyyyyiyyyyyyyytte66555ttyyyyyyrytqtt56",
"yyyyyiyyyytyryyyyyyyyyeyyyyypy99yiyiyryyyee6e555yyyyyyyyyyyytytt",
"yipyiyyyyyyyyyyyyyyyyryyyyypuy4<<4yiyyyyeyyeyeyryyyyyyyyyyyyyyiy",
"ayiyuaiyyyyyyyyyryyyyyyipu96114=++:9uyyyyyyyyyyyyyyyyyyyyyyiyiiy",
"yyipaypyiyyyyyryyyyyyyyyp9=@+>gj:@%:yiyyyyyyyyyyyyyyyyyiyaiyiiay",
"ayaayauyayyyyrryyyyiyy661::>8hAKPGj6riyyyyyyyyuyyyyyyyyyauayyayy",
"uauaaaaayayayrryryyyytt6&*7hNAAHITFgryyyyyyyyyyayyyuyyaaayuaayaa",
"ayaaaaaaayyyrrruyytty6t5$&9cAAAVCIFu4yyyyyyyyyuaayyyaiiyyyayayuy",
"aaaupaauar41<:9y66666555&$>dbCZVDKM>:ryyyyyyayayauayayyiauyauaya",
"yaaspurr61::*&:4666656554=%10hhvCBd:<riyyyyyiiyauyayayaiyaatyaya",
"aassar:=:8gkf4%%4yy9t6ttr91:::1499446yyyyuipayaayayaayiyyatteyey",
"yassy>*>8NAKDN0=<9yyttttypr1<<<<=:4yyyyapaasaaauayyayaayatteetee",
"yysy170gVASSAAc4&=<5ttttypyyyyte66yyyyyreryryaauayyuaaaayateettt",
"rtae*>dbAANBCc0:#+#%1qyyyyyyye66ttyuayy4$%&%;tiiyyryypiyyyyyyiyy",
"eea5@-dNHANBAV0$O$=*&5iiyyyyy666eeeyyyr1+%<=;qiire3<229qiaiiaayy",
"eeye**8dbAKFVbr@O>711uppaayyy6eettyau444$6zp2tq,:=&1q878iaiiaayy",
",ety4::>7hACd8>@O>41uu94699uuiyyyayr9:>00MFl4<<$**8bJDw0qiiiayii",
"55tsae:$*=797<:%O=-:qq>%#&>rauyyiyr1%$1xCUG7$%==9dmLQ~Yw7raaiayi",
",5taa5:455<<64<<%@*8qqq>@@*>ruyyy5:&$=rmKRD@ X=qhZHHY!Wx*4ssyaya",
"eetay5espsiyy533;O$0qgxxr0819yyiy:$*1fNVHQF@.o*qcHHmVRWm*<asyaaa",
"etttayyuaayy6<<<;+@>qgnHHLCu4rypa3+%9vHHW^Z$X+*qfbAHYQRf*4aaaaua",
"iaaassaaapyr54<<&#X$8wwCJEF8<6yyy4&+%0NR~R0oX#$-70cKWEV*:esssaau",
"apaaaasaapyr64<;&&XX$=-7wbw:<tyyyy4&+@7hn8oo#&%+@$*0hh4:1rsasaua",
"apapaaaaiayrt656<&##+##X#*%=4yyyyye1%++$%O#%&;&#%;;;;:4eryaaaaaa",
"aaaaaaaayayyyttqt6,;;;=%##&<46tqrye5<;&&;;;<;;&&4rtyyauaaaaapaay",
"aapaaaaauayyyyyytyt22<,<<;<22596ttq55<<<<<424633eyaaaaaasssssayy",
"apaatttaaaaiyiiytqtt66666666256t6ee5544565566555eyyaaaaasssssyee",
"sssateryaapaiyiiiyt66tt6tt665e5et6eet66qryy655555yaaaaaassasat55",
"sssyteeyaayiiiiiiyt6tttttt6qe6qeeqeq6tttyy6e5555eraasaaassaaaee,"
};
