/* XPM */
static char *player_walk_21678373084[] = {
/* columns rows colors chars-per-pixel */
"64 64 137 2 ",
"   c #070507",
".  c #07040A",
"X  c #0A050A",
"o  c #0D080E",
"O  c #11090F",
"+  c #0D0513",
"@  c #130716",
"#  c #140C13",
"$  c #190E15",
"%  c #1C0C1B",
"&  c #161117",
"*  c #1B1117",
"=  c #161319",
"-  c #1D141A",
";  c #1E1A1D",
":  c #21161B",
">  c #241A1E",
",  c #281B1E",
"<  c #1F201F",
"1  c #24221B",
"2  c #2A201E",
"3  c #1E1F23",
"4  c #281622",
"5  c #241D22",
"6  c #2A1D21",
"7  c #252325",
"8  c #2B2225",
"9  c #262529",
"0  c #2B2629",
"q  c #272A2B",
"w  c #2C2C2C",
"e  c #322426",
"r  c #362B26",
"t  c #332629",
"y  c #392729",
"u  c #342A2C",
"i  c #3A2C2D",
"p  c #353527",
"a  c #363628",
"s  c #2E2E31",
"d  c #312F31",
"f  c #3B2F30",
"g  c #2E3434",
"h  c #343434",
"j  c #3D3233",
"k  c #373837",
"l  c #363738",
"z  c #383638",
"x  c #353A3A",
"c  c #3B3C3C",
"v  c #412535",
"b  c #412F30",
"n  c #433535",
"m  c #493635",
"M  c #443937",
"N  c #4A3837",
"B  c #463939",
"V  c #4B3D3B",
"C  c #513E3C",
"Z  c #3D403F",
"A  c #4E403E",
"S  c #52413E",
"D  c #58433F",
"F  c #585039",
"G  c #4E6828",
"H  c #5D663D",
"J  c #617C30",
"K  c #3E3F40",
"L  c #403F40",
"P  c #4B3A40",
"I  c #3E4141",
"U  c #444545",
"Y  c #4A4545",
"T  c #474847",
"R  c #474848",
"E  c #484848",
"W  c #544441",
"Q  c #5A4543",
"!  c #574945",
"~  c #5C4A46",
"^  c #5D4748",
"/  c #5C4D48",
"(  c #624C47",
")  c #634E49",
"_  c #625446",
"`  c #66514C",
"'  c #6B534E",
"]  c #6E584F",
"[  c #70554F",
"{  c #6E5650",
"}  c #6E5952",
"|  c #725751",
" . c #745A54",
".. c #7A5E56",
"X. c #77515A",
"o. c #7C5F58",
"O. c #766056",
"+. c #7B6457",
"@. c #7D6159",
"#. c #7E685E",
"$. c #7C5060",
"%. c #805D5E",
"&. c #82645C",
"*. c #85695F",
"=. c #8A7F57",
"-. c #8C7F59",
";. c #866461",
":. c #866B60",
">. c #8A6C62",
",. c #8D7365",
"<. c #917367",
"1. c #917F60",
"2. c #937669",
"3. c #957A6B",
"4. c #9A7C6E",
"5. c #9D7F70",
"6. c #7BA43E",
"7. c #86974D",
"8. c #898456",
"9. c #9AAC57",
"0. c #9C806F",
"q. c #9F8171",
"w. c #A28473",
"e. c #A68977",
"r. c #A88977",
"t. c #AB8C79",
"y. c #AF907D",
"u. c #B2927E",
"i. c #97C34A",
"p. c #B49581",
"a. c #B79882",
"s. c #BB9B85",
"d. c #BF9F88",
"f. c #C5A48C",
"g. c #C9A88F",
"h. c #CAA790",
"j. c #D9B79B",
/* pixels */
"E E E E R R Y Y R R R R R R R R U U U x g x I I R U U c x x x x c I U U U U U c x x x x g I g g g g x I R R R R R I x g g x x x ",
"E E E E R R R R U Y R R Y U U R R U I c x c I I U R I c x x g x Z I U U U I I I I x x x I g I g I I I I R R R R R I I g g g x x ",
"E E R E R R U Y U R R U R U Y U U U I Z I I I U U U U I c x x x c I I I c I c I I x x x g g I g I I I I I I I I I I I I x x I I ",
"E E E R R R R R R R Y U U U U U U U U U I I U U U U U I I c x x x I I K x x c Z x I I c I I I I I I I I R R I I I R I I x I I I ",
"E R R R R R R R U U U U U U U U U U U U U U U U I U I U I I c x c I c c x c K x c I I c c K I c I I R R R I I R R I R I I I R R ",
"R R R U T R R R U U U U U U U U U I I U U I B U Z K I B U K c c c c I c I I c I c K I K I I I c I I R R R R R R R R R R I R R R ",
"T T T U Y R U U U U U U U U L U U B c U K K L L U L U U U c c c c I I U I Z I I K K I U I U U U I I I E R R R E E E R R R R R R ",
"T T T Y U U U U U U L U U U U L U c U I U c c K c c c c c c c z x x c c x x x g c K c c x U U U I I E E R R R E R R R R R R I R ",
"R R R U U U U U U U K K U L K c c c c c c c c c w 8 8 0 e 8 8 8 5 5 5 6 5 8 5 0 Q ~ M 7 q x U U U U U U U U U U R R R R R R R R ",
"U U R U U U I U U K c g s d s s q q 9 q h c x s 8 i n j n j i i n V N N n f i Q <.u.+.n u u s h h s s g d z U U R R R R R R R R ",
"E E U U U U U U I c s 6 5 5 5 3 > 8 u 6 - 7 s 8 i V A V V V V Q } .. ...} ~ Q ..4.s.u.4.:.S 5 > 8 u u u 0 5 7 U R R R R R R R R ",
"E U U U U I I I c w 8 t t t t 6 e ~ #.~ - * 8 f V Y V V V ~ ` ` o.;.>.:.:...` ' ..>.e.f.f.4.i O n } ..@.] e @ w I R R E R R R R ",
"E R U U I K c x w 8 i B V W W M ~ >.a.r.` S B r n V A ~ )  .o.o.@.&.*.*.>.*.) P | ..*.5.y.s._ X W 4.r.u.a.:.i ; u c T R R R R R ",
"R R U U U K x w 5 i B V ~ } ) V  .>.4.u.u.t.' * u n A ) '  .&.&.&.] D Q ( ( n 6 V | &. .&.w.*.e f  .<.4.p.e.:.B ; h T R R R R R ",
"E U U U U K w > i V V Y ] @.) P `  ...<.g.j...O y Y A W W | *.*.| n : - : 6 , : 6 C  .o...%.4.O.# f %.%...} 3.,.: 0 T R U R R U ",
"U R U U U U 7 : N Y M S ..@. .` ! '  .@.y.f.` - C { ) W n ` >. .b > > > > y N C m e N o...| r.r.- , [  .V f #.t.> 0 R R R U U R ",
"R R U U U U 0 - n V n W  .@.&.@.) Q ` o.3.4.D : ` >.%. .( ( ( n 6 d W ^ (  .&.*.o.C y B Q { q.y._ 8 n D j B ,.e.: 0 U E U U T U ",
"R R U U U U 0 - n V B W ..&... .~ B W  .o. .i : ' >.&.&.@.~ e * t B ^ $.$.%.&.&.;.X.v : n ) ,.d.u.m - j V ( 4.0.: 9 T U R T T T ",
"U U U U U U 0 - n Y M S {  .~ V S V A ' %.*.n $ ( &...@.o.! > # n P _ 8.-.@.X. .&.1.F 4 V W } f.g.N O n ` &.u.r.: 9 U E U U U T ",
"U L U U R U w : n A B V W ~ V B ~ ` W ) 3.r.D * ( &... .) A 6 & f P J i.9.8.%.%.*.9.J r ^ Q } f.f.N & B ..3.s.4., 0 U T U U Y U ",
"c c I I U U z 8 8 n V V B W ~ )  ...) O.r.,.C N { @.@.' A B 8 - n P H 6.6.=.&.%.*.7.G 2 C ( ;.f.s.m & N &.t.w.D 0 h U U U U U U ",
"x c c U U U U h - i W P B ~  .&.&.o.&.t.u.F e  .@...o.{ A B e : f f u a r n C ( C A 1 O e ) >.y.u.N * B >.d.*.& d U U U U U U T ",
"x x c U U U U c ; 8 n B V !  .@.&.,.4.w.<.i i &.@...@.' V B 8 : n b % + % , : $ , @ o # : P @.2.y.N ; N  .2.( & l U U L U U U U ",
"I I K K U I I B u 8 6 0 M V A S ~ <.*.m i N ' &.@...@. .W B 8 * B ( y : N ( , $ b , e n : m  .>.y.S - f n n i u K U U U U U Y U ",
"I U U I U I I c c w 7 8 e 8 6 - > V N & - ~ &.&.o.o.o.o.{ W 6 $ B ' S N @.,.` Q o.` { ( 6 m  .<.y.S # 5 7 7 u c L L U U U U U U ",
"I I I U I I c U c h g w 7 * * : : > r m V { ../ ( |  .' ' ! u > t P W / ..:.@.o.#.@.' N b (  .;.t.S @ 5 w g x c L L c U U U U U ",
"I c I I L B U c c x l h q & > n j t V ..@.o.` V A ' ' W V B n u 5 8 f n n n B B B n i f (  .C ) e.D # q l c c c U L U U L U U U ",
"x c c K U c c c l h x g s - 8 S A B / @.&...{ / )  . .~ B B V V u 5 : ; - - - - * - y ( o.` f / e.D & g h z c c c L L U U U U U ",
"x x c Z I c c c x h h g g ; 8 A V B ~ ..o............. .) ( ` ) B t 6 5 5 6 6 > 5 i ( o.' ~ C  .t.S & s g x x k I I c U U U U U ",
"x x x x c c c c z c l h s ; 6 A V M ~  ...............o.....o. .) W W W W W W W Q / { ( V ~ { *.y.S & q g l c c c I B U U U U U ",
"c x x x c x c x x k h l s ; 8 S V n ~ @... .......o.&.&.&.&.&.&.@.&.&.....&.&.>.@.` V n B ' @.5.f.F & q h x h c I I U U U U U U ",
"c K c c c c c c z z k x g > 8 N Y M ~ ..@... ....... . . .o.o...o.....&.@.o...&.o.W j B ( ' ;.p.a.A = q g h h c c c c K I I I B ",
"I U U I U I B c c c c c l d 8 r B Y A ) ..@...@.@.` W W W {  .W W S ) ....) S W W V V `  .| 3.u.` 8 q g g l c c c c c c c x x x ",
"U U U U U U I U c c c x z l w 5 r B V A ) ..&.@.' B n W ~ ~ V j A W )  ...) W Q W V A  .2.3.s.y., = g h x c c c Z I K K x x g x ",
"U U U U l d h d 0 7 5 9 h c k w - 8 n V W ` ..' A B (  . .~ V S ' |  ........... .W j ^ 4.s.s.O.; < x l w w s w w 9 9 s x x x x ",
"U E U h 8 > : ; 8 8 6 7 9 h c s $ $ t j n A ~ P M ~  .@.@. .' { ..@...........@.&.^ j M / 3.>.j 9 h k s 5 > ; ; 8 8 6 8 q x K I ",
"E U z 0 u u 8 j } *.@._ 0 0 c s * > e 5 > i B n M W W )  .o.o.........o...) W ) ..~ j u 6 f M 0 h x w 8 t u 8 j  .#.@.( q s U I ",
"U z 0 t j M B ` 3.u.d.r.` r 7 7 e n b 6 > 5 0 n M j j B W / ' o.....o...~ B h M Q ( M u m , ; h c w 8 u n n B ` 3.p.d.r.` h h U ",
"U 0 6 n V W ) ..;.5.s.g.r.N o > n V B n N i n W W V P A C S ) ...... .` Q V V V W ] D D *.m & c h 5 6 n B A / ..*.4.s.h.r.n 5 U ",
"U 6 , B V ) ....} ..,.s.s.V   > B Y V W { ' ` .... .}  .] '  .o.@.@.) W `  .| | ]  .] *.e.S ; k c > , B W ` ....| ..<.s.p.n 3 I ",
"U 5 6 n V ' &... .[  .4.t.B   : n V W  ...` ' &.&.&.@.&.o.o.o...o.@.( V { &.o.o..... .2.r.N ; c c 5 6 V ' ..o... .]  .4.r.m 5 K ",
"U 6 5 j P { &... .| [ >.w.N   > j A / @.@.' ~ Q ) ..&.&.&.&.| ~ Q ~ W )  .......o... .<.e.m ; c c 5 > B )  .@... .| ' >.5.m 5 L ",
"U 5 6 B A ~  ... .[  .4.u.C   : j V W | ....` V B ~ { ` ` ) ~ W A W )  .......o... . .>.e.m . q h 5 6 B W ' @.@... . .4.t.N 3 K ",
"U s 6 b V A ) @.>.>.4.u.w.n X : B A B !  .@.o.) n n Y W D S ~ { ' `  .o.o.@. . ..... .>.0.~ , t w 5 8 j A ` @... .&.5.a.4.n 9 U ",
"R x 8 e n n B ` 4.e.u.w.~ u ; : n V B V  .@.&.| V j V ) ` ' [ o.@...@.o.....) Q | .. .o.&.*.,. .8 7 0 0 n W Q V Q *.u.w.( f c U ",
"I I l w 8 6 > e D ( ( S h g h 8 e j B D  .@.&. .) ~ ^ ` ..@.@.&.&.&.@...' ~ V V | o.|  . .>.a.4.6 5 z w 8 6 6 4 6 N ) W j c U U ",
"K I I c w 8 5 7 0 t 8 0 h c I s - t V Y ~ ) ] ..@.&...' { ....} |  . .' W V W ` @.*.>.3.4.w.h.t.> 3 L z 8 5 7 7 7 8 0 u K U R U ",
"I K K K L L L L c c z c c c c h $ t V V V V / @.&...{ ( V n B B B B B B j j A ]  .[ :.w.w.4.r.,.6 7 U L c c K B L c c U U R R U ",
"I I I I I R R R R I U I I c x g * r V W ) { | %.o.C 6 , - * - & - * $ - - - 6 6 6 > 6 r r r e i j c K U I U U U U U U E E T U U ",
"I I I I I R R R U R I U K c x g & e V W ..@.&. .N 6 5 8 8 0 0 8 7 8 8 7 8 0 8 8 8 9 8 0 9 8 8 8 c K K L U I U U U U R U R R U U ",
"K K I I R R R I U U I U B c c w - r A W ' @.<.[ : 5 l x h z c h h h h h h h h z l h h h z l z c B c L U B U U U U U R E E U U U ",
"g K I R R R R R U U U I I c x h > e j j M Q | W > 7 c c z c h z h z c h h c c z z c z l c c c c I c U L U U U U U U U E E E U U ",
"g I I I R R R R U U U U I c h x w 2 > > > 6 e e w h x z h z l l c z z h l h l h h h z z l z c c c I U I U U U T U Y U R U R U U ",
"g K I I R R R R U U U L U x h c h q 7 8 7 1 ; 7 w h h h h h h h h h z h h h h h h h h h h h h h c c c U U U U U U U R R E E E E ",
"K K I I R R R R U U U U U z h c h g w w 0 q q 9 w s s p h h w p h h h h h p h h s s h h d s w h h c c U U U U U R R R R T T R R ",
"I I I I R R R R T U U L c l s p h w 9 7 < w w q 0 0 w q w w w w w p w w w w w q 0 w p w p w q w h c B U U U U U R R U Y T T R R ",
"U R R E R R R U R U U L c z h u w w 7 < ; 7 w p q 1 7 7 7 q w 0 9 w w 8 9 q 8 1 9 9 w w q w w h z c K U U R U R R Y R R Y Y U R ",
"E R R E R R R R T T U L c z h h w 8 7 < < < 7 7 < < < < 7 9 7 q w w w w w q q 7 < 1 q q 8 w w w z c L U R U R E R U R R R R R R ",
"E R E E R R R R Y U U L c c c c h w 0 7 q q 7 1 < < 1 7 q 8 9 0 w w g h s s w q 9 9 w w q w p d c c L U U R U E R Y U R R R R Y ",
"Y R E E Y R R R U R U U U U c U Z c h w w h h q q q q w w w w w h h h h h a w w u h h h a h x c B L U Y R R R E R R R R R R R U ",
"E E E E R U R R R R U U U U U U U I c c h h h h h a h h u g p h h c c x h h a h h h h h x x c K I U U U R U E E E E E E R R U U ",
"E E E E U I I R R R R Y U U U U U U U c c c c c c c c x c z l c c B c c k z l c c c c c c c c c K I U R R R R U R E E E R Y K x ",
"E E E U I K K U R R T T Y T T T U U I I I I I K I B c c c c c I c U K K c c K L I U I K x x x x c I R E E R R R E E E E R I K g ",
"E E E U I K K U Y R R R U T U T U U I c I I I I I K U L c c I I B c I I B U c U U I I c c x x x c U U E E R R R E E E E R I x x "
};
