/* XPM */
static char *player_walk_11678373084[] = {
/* columns rows colors chars-per-pixel */
"64 64 141 2 ",
"   c #070506",
".  c #0E070F",
"X  c #0F0810",
"o  c #100314",
"O  c #150C13",
"+  c #190F15",
"@  c #170618",
"#  c #1E0C1D",
"$  c #151216",
"%  c #1B1117",
"&  c #151218",
"*  c #1D1419",
"=  c #1C1A1D",
"-  c #21161B",
";  c #23191E",
":  c #291B1F",
">  c #1F201F",
",  c #22201B",
"<  c #1F1D22",
"1  c #241D21",
"2  c #2A1D22",
"3  c #301E25",
"4  c #242225",
"5  c #2B2225",
"6  c #272529",
"7  c #2B2629",
"8  c #272A2A",
"9  c #2C2B2C",
"0  c #312426",
"q  c #332629",
"w  c #39262A",
"e  c #342A2C",
"r  c #3A2C2D",
"t  c #2F302F",
"y  c #323226",
"u  c #3E302E",
"i  c #2D2F30",
"p  c #322F30",
"a  c #3A2E30",
"s  c #2E3233",
"d  c #333434",
"f  c #3E3132",
"g  c #343837",
"h  c #363738",
"j  c #383638",
"k  c #353A3A",
"l  c #3B3D3D",
"z  c #432736",
"x  c #412F30",
"c  c #423535",
"v  c #493635",
"b  c #453936",
"n  c #4A3937",
"m  c #4E363A",
"M  c #463A39",
"N  c #4B3D3C",
"B  c #513D3C",
"V  c #3E403F",
"C  c #4E403E",
"Z  c #52413E",
"A  c #58423F",
"S  c #595538",
"D  c #4E6728",
"F  c #5F673F",
"G  c #3D3F40",
"H  c #4D3B40",
"J  c #573F40",
"K  c #3E4040",
"L  c #444545",
"P  c #4A4645",
"I  c #474847",
"U  c #474848",
"Y  c #484848",
"T  c #544441",
"R  c #5A4643",
"E  c #574844",
"W  c #5C4946",
"Q  c #5E454A",
"!  c #5E4C48",
"~  c #604A46",
"^  c #614548",
"/  c #634E49",
"(  c #6A4F4A",
")  c #635845",
"_  c #66514B",
"`  c #6B534E",
"'  c #6C5A4F",
"]  c #784E5D",
"[  c #6E5650",
"{  c #6C5951",
"}  c #715651",
"|  c #745A54",
" . c #7A5E56",
".. c #7A535C",
"X. c #7C5F59",
"o. c #6D7A42",
"O. c #756055",
"+. c #7A6157",
"@. c #7D6955",
"#. c #7D6159",
"$. c #805F5E",
"%. c #82645C",
"&. c #84695F",
"*. c #886B5F",
"=. c #817C53",
"-. c #876562",
";. c #886363",
":. c #866B60",
">. c #8A6C62",
",. c #8C7164",
"<. c #917567",
"1. c #927669",
"2. c #957A6B",
"3. c #9A7D6E",
"4. c #9E7F70",
"5. c #64852F",
"6. c #79A33D",
"7. c #7CA440",
"8. c #87984E",
"9. c #8D8956",
"0. c #8F8858",
"q. c #92845E",
"w. c #9CB455",
"e. c #9D806F",
"r. c #9E8171",
"t. c #A28474",
"y. c #A68976",
"u. c #A98977",
"i. c #AB8D7A",
"p. c #AF917D",
"a. c #B1927E",
"s. c #9ED14A",
"d. c #B59681",
"f. c #B69883",
"g. c #BB9B85",
"h. c #BE9E88",
"j. c #C3A38B",
"k. c #C8A78F",
"l. c #C9A88F",
"z. c #CCAB92",
"x. c #D8B69A",
/* pixels */
"Y Y Y Y U Y U P U U L U U L U U U L K k k k K K U L K l k k k k k K L L U U L l k k k k k k k k s s k K U U U U U K K s s k k k ",
"Y Y U Y U U P U L P P U U P P U U L K k k k K K I I K l k k g g K K L U K K K K k k k k k k s V K K K K U U U U U K K s s s k k ",
"Y Y Y Y U P Y L U P L U P U L L U L K V K K K L L L L K l k k k k K K K k K G k k K k k K k k s K K K K K K K K K K K k s K K K ",
"I Y Y I U P Y Y U U L U L L L L L L K H L K L L L L L K K l k h K K K k k k K K V K K K K k K K K K K K U U K K U K K K k K K K ",
"Y Y Y Y L Y Y Y L P L L L L L L L L L L L L L L l L L H K V l k l K K l K l K k K K V k K l K K K K U U U U K U K U U K K U U U ",
"U Y Y L L U L U L L L L L L L K L L G L L K K K L l l L K V l l h l K l l l l K k V K K G K K K K K K U U U U U Y U U U K K U U ",
"I I I Y Y P L L L L L L L L L G L K K K l L V M l K K l V l l l l V K l K l l l V K L K K K K L K K K U U U U U Y U U U U U U K ",
"I I L Y U L L L L L L L G L L G K K K M l l V l l M l L l V l l l l K l l l k K H l K K K L L K K K K U U U U U U U U U U U U U ",
"I I U L L L L L K K L G G L l l l k l l l l l M M l l l l l M l l l l l l l l l l L l L l L L M L L L L L I I L U U U U U U U U ",
"I I U U L L L L L K G G l l h h l k l l l l l l l l l l l l l l l l l l l l l l V V K M K L V L L L L L L L L I U U U U U U U U ",
"I I L L L K L K G G l l k h h k h h l l l l l l l l l l l l l l l l l l h l l l l l l K K K K H K L L L L I I L U U U U U U U U ",
"I I U L U K K K G G k s s s s s s s 9 d f l g d j g g g f d d j p d d d d d e d l l g d g l l l j h l k k H L L U U U U U U U U ",
"L P L L L K k k l h s 4 4 4 4 < 4 < < 4 4 d d 7 5 7 q q q q 7 0 5 5 5 5 5 5 2 q ! ` M 4 4 d g 7 7 7 6 6 5 9 h L I L L I U U U I ",
"U U U L K K l V k 9 4 5 4 ; ; ; ; p N q O & 4 5 5 r c b c f d x n N m N N f d ! 1.a.:.n a 7 6 0 r c N N x $ * l L I I L L L I L ",
"U L L L L K l k s 4 7 r d f f r f | t.@.0 * q r r N C N M N N T }  .| | } W E } 1.f.f.t.<.T 5 u W &.1.3.<.B o 1 j L I I L I I L ",
"L P L L L K k d 4 2 c N Z / ! C [ 1.g.h.,.| Z 0 N P M M n ! _ ` X.:.>.>.>.| _ _ | %.t.z.z.r.M 1 ! 3.t.f.k.y.! ; 1 l L I I I L I ",
"L U L L L K h 7 2 c N N !  ./ N | %.>.t.j.z.} O r N P ~ _ | X.X.$.&.>.>.>.>.` T } X.:.3.i.j.'   r | %.>.4.r.2._ * i I I L L L Y ",
"U U L L L L i ; c B N T } #._ J / } } >.j.x.| X 5 M B / '  .$.&.%.` A A ^ R f 2 N } X.| #.r.*.5 2 B }  .` E ,.r.- 6 L I L U U L ",
"P U U L I I 7 # b P c T | %. .[ W / [ #.y.f._ $ f C Z Z T [ -.&.} x : - : : : - 3 B }  .| #.3.#.* 7 [ ` M a &.u.; 6 I U L L L P ",
"G K L L I I 7 % c N b T | &.%. ./ T ~  .>.,.n - T } _ R N ~ &.} x : 2 4 5 u B B v r B | | | t.y.: * B P c B 1.t.- 7 I L L L U L ",
"k K K K L I 7 % c N M T | %.} / R c Z |  . .r % ( >.X.| / ~ R x 5 e N Q Q } X.%.X.B w v T [ 4.d.' 0 0 M T ' t.t.* 6 L U L L P L ",
"k k K K L I 7 - c T M N _ _ T b T T Z _ >.2.B O / &.X.%.#.! 0 * e N Q ] ..X.%.&.%...z : c / >.h.a.n * c [ >.f.u.; 6 L L P L P L ",
"k k V K L L e 1 a N M M N R N N _ } R ~ 3.i.R 2 ( %. .X.X.W - O f H ) 9.0.%.} } X.q.S 2 N R { j.l.n $ n  .4.f.>.2 i L L L L L L ",
"K K K H L L l 7 1 f T M M R ` } #.X.' >.a.O.x ^ | +. .} ! C 5 - a N o.s.s.0.$.$.*.w.5.r ^ R { j.h.v $ c &.d.1.r 9 l L L L L L L ",
"K K L L K K L d + q T C N R | :.&.X.>.f.f.c , %.%. .X.` N N 5 % c H F 6.7.=.-.;.>.8.D , B ` &.j.g.n $ N >.g.| . p P H K K U L L ",
"K L L K L K L l 1 5 r f N T _ |  .<.3.>.| r n %.%. .X.' P M 0 - a a 0 y y c J R B b ; X 5 ~ >.p.d.n - n / +.C < k H L G L L L L ",
"l K K K M K L V d 5 1 5 d c c f M #.} q 2 R  . . . .X.` H M 2 ; c c # o # : - % : @ o + - B %.<.p.N % q q q r d G K K L L L L L ",
"k k l K L l l l h 9 8 6 2 : ; * = r u 1 5 ~ %.X.X. .%.} R N 2 + M Q w ; m ^ 0 - v 3 w x ; v  .>.p.Z O ; 6 6 s l K G L L L L L L ",
"k k l l K l l l l g d 9 4 % - 5 5 2 7 b R ! ' X.X. .#. .' T 2 + M _ H M  .>.` W +._ [ ! 2 v  .<.a.Z X 4 s s h l V K l L L L L L ",
"k k k k l l l l l h g g 9 * 2 N N f N _  ./ R ! ~ } } / / T r 1 7 N E W } #. .} +.| / n x / ' #.i.Z O 8 s k h k l K H L L L U L ",
"k k k k k l l l h g g g s = 5 T C M W | #.| / N Z ' ` T N b j r 1 5 a f f c c b f f w a ( } N ! y.T $ 8 g g h k l K K L L I L L ",
"K K K l K l l h l g j g d < 2 N N b ! +.#.X.| / _ } | ~ b c N N e ; + + + O O O O O w ( #.( p ! y.Z & i s d l h l l G G l G K G ",
"L V L K K V H l l l j l d 1 2 N N c !  . . . . . . .X.| / / ` / N 5 1 1 2 1 2 1 1 a (  .` R J  .i.Z % s g g h h l l l l k k l k ",
"L L L V K K K l l l j j d ; 2 N N c R |  . . .X.+. . .+.X. .X.| / R R T R T R T W / ' ~ N W [ %.i.B & 8 g h k l l V l l k k k k ",
"L L L L L l l l l l j l d < 5 Z N M !  .X.|  .|  . .#.%.%.#.%.%.#.#.#.#. .%.%.&.#._ N c N / X.4.h.B & s k h l k V l l l k g g k ",
"L L I L L L L K V M l l g 4 2 N C M R  .#. .|  .X. .} } |  .+. .| |  .#.#. .| +.| E f N W [ >.d.p.N < d l l K H L L L I K V V k ",
"I I L H L l l l h g h l g e 4 0 M C C / | #.+.#. ._ Z Z R ` ` T T Z /  . ./ T R E N N ` | | 2.d.~ 7 9 h l l l l G G G G K L K K ",
"I I l 8 7 7 1 < = & 8 h l l p 5 7 c N N / | %.#._ n M R ! R N c Z ! / | | _ T W W N N } 1.4.g.y.: * l l l 9 1 6 6 1 < * 4 k U U ",
"U H 7 1 ; = 0 c c f 5 6 h l l 9 - 2 c C T _ | _ N N _  .| ! N T ' } |  . . . .#.| T j W 2.h.g.| ; 4 l l e 5 1 ; ; w c c a 7 g U ",
"l 7 5 a u f _ e.y.t.` 5 9 g l d O O 7 f M C T N M !  .#.%. .{ } X.$. . .X.X. .&.%.W f f E 2.&.0 9 g l p 1 e c e f  .t.i.1.N 6 h ",
"4 0 f M N ! #.r.h.l.p.` 0 7 l i % : 0 : * e M b b P R ~  .%.#.#.X. . .X. ./ T / | W M e ; w r 9 h l p 1 q c M N _ :.i.j.j.3.T ; ",
"* e C H ! }  .#.2.f.l.2.0 4 d 5 5 c f 5 1 ; 7 f M f d v Z W `  . . .+.| ! M p c R / c e v : * d l l 7 ; c N P /  . .:.t.h.j.} O ",
"* e N T { #.| } } <.g.2.w < 6 ; c C M M N a c T E Z N Z Z Z /  . . .| _ R C B N R ` B W ,.v % g V l 5 ; c T _  . .| } #.t.g.O.O ",
"* w N E  .#. .} }  .3.<.q 4 6 * c C N R ` ( /  .| } } } ` ` } #.%.%._ Z _ } } ' [  .` &.t.N = d l l 7 - c / | #. .| } } %.i.| O ",
"% e N T } #. .} ' } 3.<.w 4 1 - c N T } X./ (  .#.#.#.#.X.X. . . . .! B [ #.X. . .| | <.t.v * g l l 5 - f E ` #.X. .} ' #.i.O.O ",
"% e C Z ! | X.| | :.p.2.q 4 4 - f N ! #.X.` ! W ~ | %.#.%.$.` R R A R / | X. . . .} } >.t.v * g V l 7 ; f N ! #.%.X. . .3.f. .O ",
"1 0 c N C / &.3.r.g.p.` e i 4 - c N T [  . ._ Z M W _ / ~ / W T Z T / |  . . . . .&.>.t.a.n * g K V d 1 0 b W | } ' &.y.g.r.Z 1 ",
"l 7 2 f f f [ t.y.y.| e d l 4 * c N b T } #.X.` M f N Z Z N ! ' } ' |  .#.X.| }  .1.i.f.r.v 1 g l M l d 5 w c c c a _ t.r.Z e l ",
"I l 7 ; # + : r r w r d G k 6 * c N b C } #.%.} N u C _ ` _ } X.+. .#. .X. ./ Z } %.t.3.Z 7 t j V l L l d 4 * - + + ; w r a G L ",
"K K h i p 9 e 9 7 7 d l L l d 4 5 c M T | %.%.| / ! W _  .%.%.%.%.%.%. ./ ! N M `  .2.,.5 4 l l l L K L H d 9 9 i e p 7 p l U L ",
"k G K L I L L L L K L l V l h i * w M T ~ _ [  . .#.[ / ` } ' ' ' [ } / N c M W } } 2.,.0 4 l l l l C K l L G L L L L L L U L L ",
"g G K U Y U U U I L L L L l l i $ q C M N C _  .#.%.| R c c c c x c c b M M R |  .+.t.1.w 4 l l K K K K L L I I U U U Y U U I L ",
"k k K U U U U U I L L V l j h d * 0 N M n W  .+.#.#.R 0 ; - - ; 1 ; ; 2 f M ! X.%.r.g.*.0 4 l l l C M L L L L I L U U L U U P L ",
"k k K U U U U U L I L L L l j g 8 : r M N _ %.&.X.R 0 4 6 5 6 5 5 7 7 1 5 u N ' 3.h.e.n * 4 d d h k l L L L L L P U U P L U U U ",
"k K K U U U U U I I L V C k h h d = : N Z _ O.*.%.r $ 9 d d t 9 d d d 9 4 2 0 r ' %.B + * 9 t t h l l L L L L I L U P U P U P U ",
"K K K K U U U U I L L V V j t d d 1 2 f f f Z | } w * 6 9 t 9 9 9 9 i 9 9 : % $ * - % - 8 9 9 e h l V L L L I L U U U P U U L U ",
"L L I I Y U U U I L L K l h d t t 9 , - * % * : 5 = > , , 8 y 6 8 9 9 6 6 6 , = = > 4 8 8 9 t d j l G L L L P P P L U P U L U U ",
"Y Y U Y Y Y U U I I L l l h d d 6 8 4 = * = = $ $ > > 4 8 8 4 9 9 9 9 7 t 9 8 4 4 , 8 t 6 9 t 9 h l G L L P U U U U P U U P P U ",
"Y Y Y Y Y U U U L L L H V k l l d 9 9 6 9 9 9 > , > > , 6 6 6 6 t 9 t d t 9 9 8 6 6 7 7 9 9 t t j G G P U U U U U P U U U U U U ",
"Y Y Y Y Y Y U U I I L L L K K C V j d s t t t 9 9 8 9 9 9 t t 9 d d g g t t t t t d d d y d h l l L L L P U U U U U U U U U U L ",
"Y Y Y Y U U U U P U L L L L L L H K l k g d g d d t d d t t d p j j l h d t d d g d g j h l l l M L L U U U U U U Y Y U Y P L G ",
"Y Y Y U K K L L U U U U I L L L L L K V l l l l l l l j j j j l l l l l l j j l l l l l l l l G K K I U U U U U Y Y Y U Y P G G ",
"Y Y Y I K G G L U Y U P L I I I I L K K l l l K K V V l l l l l C V l V l V C V K K K l h k k k k L L U Y Y U U Y Y U U K K G s ",
"Y Y Y L G G G L Y Y P I Y I L I I L K l l L K V K K V C l l V V V V V V C V V V L L K K k k k k k K I U U Y U U Y Y U U U K G k "
};
