/* XPM */
static char *cl9hdGtfMg__[] = {
/* columns rows colors chars-per-pixel */
"64 64 229 2 ",
"   c #080308",
".  c #0F0A10",
"X  c #140C13",
"o  c #1A0D14",
"O  c #160A16",
"+  c #1C1116",
"@  c #1D141A",
"#  c #1D191D",
"$  c #151117",
"%  c #220E16",
"&  c #22151B",
"*  c #241A1E",
"=  c #291B1F",
"-  c #2E151D",
";  c #3B1B1B",
":  c #30351F",
">  c #1E1D21",
",  c #251D21",
"<  c #2B1E22",
"1  c #1F2020",
"2  c #242224",
"3  c #2D2225",
"4  c #2C2629",
"5  c #2C2B2C",
"6  c #262C2C",
"7  c #332326",
"8  c #332629",
"9  c #352A2C",
"0  c #3A2C2D",
"q  c #382626",
"w  c #3E342F",
"e  c #3C2F30",
"r  c #382732",
"t  c #2D3535",
"y  c #2B3535",
"u  c #333334",
"i  c #3D3233",
"p  c #343A3A",
"a  c #3A3D3E",
"s  c #373638",
"d  c #520D0C",
"f  c #54110F",
"g  c #5B110F",
"h  c #491715",
"j  c #5B1311",
"k  c #571917",
"l  c #4B0F0E",
"z  c #65130D",
"x  c #631512",
"c  c #691914",
"v  c #731B15",
"b  c #7B1C14",
"n  c #761914",
"m  c #54221E",
"M  c #4B201D",
"N  c #69241C",
"B  c #79241C",
"V  c #5A1535",
"C  c #561434",
"Z  c #53142A",
"A  c #681937",
"S  c #711A39",
"D  c #432B2B",
"F  c #482828",
"G  c #592B27",
"H  c #47312E",
"J  c #432F33",
"K  c #433534",
"L  c #4A3535",
"P  c #443837",
"I  c #4A3937",
"U  c #463A39",
"Y  c #4B3D3B",
"T  c #4B3638",
"R  c #513D3B",
"E  c #543A35",
"W  c #582931",
"Q  c #6C2B24",
"!  c #732A28",
"~  c #7E382E",
"^  c #6D3532",
"/  c #49542F",
"(  c #4E403E",
")  c #53413E",
"_  c #58433F",
"`  c #584D3E",
"'  c #5B5A3D",
"]  c #74483E",
"[  c #627A32",
"{  c #58782B",
"}  c #3F3F40",
"|  c #4D3B41",
" . c #3E4141",
".. c #454545",
"X. c #4A4645",
"o. c #474848",
"O. c #484848",
"+. c #484748",
"@. c #544441",
"#. c #5A4543",
"$. c #5D4A46",
"%. c #5D4C48",
"&. c #584747",
"*. c #614B46",
"=. c #634E49",
"-. c #684B46",
";. c #7C4B41",
":. c #66524C",
">. c #6B544E",
",. c #6E584F",
"<. c #73554D",
"1. c #76564C",
"2. c #6E5650",
"3. c #6E5953",
"4. c #715651",
"5. c #755A54",
"6. c #7A5D56",
"7. c #7C5E59",
"8. c #775558",
"9. c #714859",
"0. c #687242",
"q. c #7D6159",
"w. c #7C6257",
"e. c #91180E",
"r. c #881915",
"t. c #961B12",
"y. c #AA1E12",
"u. c #A71D0E",
"i. c #83241D",
"p. c #8C2A1E",
"a. c #89231A",
"s. c #96251A",
"d. c #A72216",
"f. c #B92616",
"g. c #8D1D28",
"h. c #852D23",
"j. c #8B2C22",
"k. c #832721",
"l. c #932D21",
"z. c #81362E",
"x. c #953629",
"c. c #8F3C30",
"v. c #983835",
"b. c #902A32",
"n. c #A32726",
"m. c #A93929",
"M. c #B53423",
"N. c #A5293B",
"B. c #AD3B38",
"V. c #C82A19",
"C. c #C62D2B",
"Z. c #C73423",
"A. c #CB3535",
"S. c #D13E2B",
"D. c #8C4639",
"F. c #984438",
"G. c #A64534",
"H. c #A74A39",
"J. c #B04A37",
"K. c #D64833",
"L. c #C34631",
"P. c #EF5036",
"I. c #992847",
"U. c #A62C48",
"Y. c #B4314F",
"T. c #834D40",
"R. c #895247",
"E. c #995547",
"W. c #965E52",
"Q. c #A24C46",
"!. c #A45144",
"~. c #B55B48",
"^. c #AF504C",
"/. c #82645B",
"(. c #83695E",
"). c #8E7155",
"_. c #B3614D",
"`. c #B16954",
"'. c #856C61",
"]. c #8A6D62",
"[. c #886562",
"{. c #8D7265",
"}. c #8C776A",
"|. c #917366",
" X c #947669",
".X c #947A6B",
"XX c #9B7D6E",
"oX c #9D7F70",
"OX c #937D71",
"+X c #A77564",
"@X c #B57B69",
"#X c #BB6B62",
"$X c #CE4243",
"%X c #C65A43",
"&X c #D84444",
"*X c #C9634B",
"=X c #C9755D",
"-X c #C06B56",
";X c #E06B52",
":X c #8CBF43",
">X c #9ABE4E",
",X c #96A955",
"<X c #9E806F",
"1X c #9E8171",
"2X c #A38574",
"3X c #AB8D7A",
"4X c #A58977",
"5X c #BC8C78",
"6X c #AF907D",
"7X c #B1927E",
"8X c #B8806F",
"9X c #8A8856",
"0X c #D69678",
"qX c #C78B76",
"wX c #FD8665",
"eX c #B59581",
"rX c #BB9B85",
"tX c #B99B88",
"yX c #BDA38F",
"uX c #C19F89",
"iX c #C3A38B",
"pX c #D6A38C",
"aX c #C8AB94",
"sX c #D7B49C",
"dX c #D9A790",
"fX c #D6BBA5",
"gX c #DEC9B2",
"hX c #DBC1AB",
"jX c #E4CDB5",
/* pixels */
"O.O.O.O.O.o.o.o.O.O.o.+.+.+.+.+.o.X. .p p a  .X.......a p p t p a  ..... ... .a p p p p p p p p t t a  ...o.o.o... . .p t p p p ",
"O.O.o.O.O.O.o.o.O.O.O.O.o.o.X.o.o.X.X. . . ........... .a p t p a .... . .a a  .a p p p a p p p p  . . .............p t y t p p ",
"o.+.O.O.O.O.O.O.O.o.O.O.O.O.o.o.O.O.o.X.X.......o.o..... . .p t p ....a p p  . .a a a a a p p p  . . . ... . ... . .a t t p  . .",
"o.O.O.O.O.O.O.O.O.+.O.O.o.O.O.o.o.o.o.O.....o.o.+.o.o.o.o... .p p  ... .a a  .a a  . ... .a  . . . .o.o............. .a  . . .o.",
"o.o.O.O.O.o.O.O.O.O.o.o.O.O.O.O.O.O.O.O.O.o.O.O.o.o.O.O.O.O. .y a  .O.O. . .p p  ....... . ..... . ...o...o.o...o....... .o.o.o.",
"o.o.O.O.O.O.O.O.o.O.O.X.O.O.O.o.O.O.o.O.O.o.X.O.o.o.O.O.O.O. .p a  .O.O.o. .p  .O.O.O.O.o.......o. .o.o...o.O.O.O.o.o.O.o.o.o.o.",
"o.O.O.O.X.O.O.O.O.O.O.O.o.O.O.O.O.O.O.O.O.o.O.O.o.O.O.o.O.O.X.(  . .o. . . . . .O.O.O.O.O.O.O.O.o.o.o.o.o.O.o.O.O.O.O.O.O.O.o...",
"o.O.O.o.O.O.O.O.O.O.O.O.O.O.O.O.o.O.O.O.O.O.O.o.o.O.O.O.O.O.o.o.O.O. . .p  . .o.O.O.O.O.O.O.O.O.o.o.o.o.o.o.O.O.O.O.o.O.O.O...o.",
"O.o.O.o.+.O.O.O.O.O.O.O.O.O.O.O.O.O.O.O.o.O.O.O.O.O.O.O.O.O.O.O.O.O.O.o. .a  . .o.o.O.O.O.O.O.O.O.O.o.O.O.O.O.O.O.O.o.O.O.O...O.",
"+.+.O.o.o.O.O.O.o.O.O.O.O.o.o.X.O.O.O.O.O.O.O.O.O.O.O.O.O.O.O.O.O.O.O.o. .a a  ...o.O.o.O.O.O.O.O.O.O.O.O.O.o.O.O.O.O.O.O...o.o.",
"+.X.+.o.o.o.O.O.O.O.O.o.O.O.o.O.O.O.O.O.O.O.o.O.O.O.O.O.O.O.O.o.O.O.O.o. . . . .O.O.O.O.O.O.O.O.O.O.O.O.O.O.o.O.O.O.O.O.O.o.o.o.",
"+.+.+.+.O.o.O.O.O.O.O.O.O.O.O.O.O.O.O.O.O.O.O.O.o.O.O.O.O.O.O.O.O.O.o. .a a  ...O.O.O.O.O.O.O.O.O.o.O.O.o.O.o.o.O.o.O.O.O.....X.",
"X.o.o.o.O.O.O.O.o.o.o.o.o.o.o.O.o.o.O.O.O.O.o.o.O.O.O.O.+.+.o.O.O.O...p t p a ..O.O.O.O.o.O...O.O.O.O.O...o.o.o.O.O.O.O.O.o.o.X.",
"....X.o.O.O.O.O.o.o.o...( a ....o.o.O.s s ..#.+...s  .| a s s U O.O...p t t p  .O.O.O...s y 5 a a s a a ( o.o.o.O.O.O.O.O.o.o...",
"o.o...o.O.O.O.O.o.4 $ 3 9 9 8 3 # . $ 2 8 ,.2X].) 4 9 i 0 i i e u 9 0 0 K H 3 * o.O.> X , 9 3 # # # # * * a O.O.o.O.O.O.O...o.X.",
"X.o...o.O.O.O.O.a   , w.(.(.5.R +   3 ,.'.6XiX2X5.) @.:.5.2.4.-.X.U ( ( ( X.0 $  .... + *.{.%.8 3 8 7 8 8 2 u O.O.O.O.O.O.....X.",
"..+.o...o.O.O.a + e {.iX7X3XXX$.o = (.iXaX7X X/.2.=.2./.[./.(./.:.%.@.P U Y K , * U ) ,.6XiX{.$.U &.#.( Y 0 , s O.O.o.O.O...O...",
"+.o...o.o.O.O.@ ( '.3X7XXX|.'.P   *.yXrX7X|.6.<.@.2.].{.{.].(.q.5.8.>.$.@.Y Y e + :.7XrX7XXX].8.( *.5.&.( Y 0 u O.O.o.o.O.o.O...",
"X.....o.o.o...& {..X3.6.6.4.#.3 + (.6X{.q.q.5.$.9 Y <.2.>.-.8.(./.q.6.2.:.X.U 9 $ w.sXiX{.1.5.>.Y :.w.:.| Y Y 0 = ..o.o.o.o.o...",
"(  ...o.o.+.a & 3X(.i Y <.,.0 # :..X(.5.5.6._ 7 # < q 8 7 7 Y 6.(.(.4.$.@.R Y 0 X :.iXeXw.2.>.$.:.5./.5.R P X.P @ | o.o.o.o.o...",
"a  ...o.o.o.U & 4X|.L i @.#.@ + 2X2X6.6.7.#.0 0 D J 8 * @ * < I 7.].-.Y @.*.:.Y + ) XX Xw.*.&.*.6././.6.@.K Y P +  .o.o.o.+.X...",
"p a ....O.O.a + <X<X=.X.O.o.4 ) 6XoX4.=._ D L >.6.5.*.Y Y P 8 3 R >.*.#.:.5./.:.& 0 5.q.8.@.U $.,.6./.5.@.P Y K + ( o.o.o.o.X.+.",
"p a ....O.O.s & 3X7X/.:.O.# L 2XrX|.=.P < r 9./.]././.9.9.&.a 7 * 9 %.w././.].-.X L ]./.>.) Y ) Y #.5.,.X.P @.P @ s o.o.O...X...",
" . ...o.O.O.U < XXiXXXw.O.X I aXiX5.#.T % ) ].7.8.8.8.(./.*.| i X # %./.q.6./.*.o $.7XXX$.@.:.$.i U @.) I U Y K & ..O.O.o.......",
"........o.o.o...( 2X6Xw.o.X I iXiX:.@.#.q [ ,Xw.5.8.9X>X>X0.| i o < | >.8.6.w.2.I I {.3Xw.=.7.6.*.%.@.U U Y K 3 s +.o.o.X.X.....",
" .......o..... .X w.uX{...$ L rXaXw.%.#.7 { ,X{.[.].9X:X:X0.| i & < Y R ,.w.6.q.w.7 ( 7X7Xw.6.(./.5.&.U ( ) 0 + o.o.o.+.+.X.X...",
" . .a X.o... .p $ $. X5. .@ I rXrX].=.r $ : %.-.>.9.` / / w i K @ 3 U | ,.7.6.q.(.D e {.2X.X].w.w.3.@.Y P K 3 # o.O.O.+.........",
"p p a ..o.o. .a  . . .a a & Y 7XoX/.#.& . X & 7 < < < O @ 3 D 0 q q 7 q #.6.6.7.q.:.I 0 I (.(.#.Y Y U K 8 , i O.o.O.+.+.........",
"p s a ( ..o.o. .a a t u 2 X R 3X].8.L & q , & 9 o * T e D D D F H H H H L /.6.6.q.<.U * * Y T , , < < 7 s s o.o.o.....X.........",
"p p a  . ...o. .p p p  .> . ) 7X].6.K = #.*.) >.L L X.3.6.<.1.5.R.D.R.D.E R 6././.%.U U 0 3 < * , @ + u O.O.O.O.o...............",
"a p p p a p a p p y p p y X ) 3X'.6.#.q R 4.q.[.0 L '.yXaXyXtX5X`._._._.D.W R 2.:.) &.5.%.i 9 K K , + o.O.O.O...+.X.X.......(  .",
"a a a p p t p t p t t p t $ ) 4X:.#.5.#.q J @.Y _ }.aXjXjXgXfXpX=X*X%X*X_.T.L Y Y %.5.w.8.@.Y X.@.< , ............ .a  . . . . .",
".. . ... . .( .. ... ... .$ _ 2X&.e >.w.) 3 , 3.tXsXsXhXhXgXjXdX=XL.J.*X*X_.] _ #.3.7./.6.$.U ( ( < > a a a  .p a a a a a p p a ",
"....X...o.....O...o.o.O.O.$ ) 6X3.Y $.5.6.I L OXhXsX7X5XqXsXjX0X-XJ.G.J.%X*XR.E *.6.6.q.7.$.U Y U 3 * y t t p p p a a a s p p p ",
"..X...o.o.O.O.O.o.O.O.O.O.# ) eX{.>.%.) :.9 P OXyX2XH.F.`.8X8X@XF.l.j.x.J.J.D.H ( 6.5.w.w.$.U ( ( < > y y t u p s a  . .a p t p ",
"....O.O.o.O.O.O.O.O.+...p $ L  X6.5.:.( Y e U q. XR.h.p.G.H.F.] N B i.i.x.G.D.Q q %.6.w.=.L 3 0 i = @ t p p p p a  .....X. .p s ",
"..O.O.O.o.o.O.O.O.a + @ @ . = I K #.5.-.Y i &.3.<.^ v a.l.G.~ Q x c b b a.m.L.v.G 2 K =.w & + * = o + 5 a a a a  .X.O.O..... . .",
"o.o.O.O.o.o.O.O.u 0 *.:.%.i , 7 7 0 #.5.:.Y Y *.R k z b p.~ N c g x z z e.f.P.;X`.( K H ) =.:.%.8 , 3 3 u ........o.O.O...o...o.",
"o.o.o.o.o.o.+.+...(.7XeX1X5.U i i 7 0 *.:.#.| &.0 h g v p.B N j f f g n e.V.P.wX0X,.L )  X7X7X X$.i P i 3 s O.O.o.o.O.O.O.O.O.O.",
"o.o.o.o...X...* (.iXiX7X Xq.*.Y U K 0 9 U ( @.@.F l g c p.x.Q g f f g b s.V.P.;X+XH K <XiXyX4X(.5.$.Y U K = s O.O.o.O.O.O.O.O.O.",
"O.O.O.O.O.O.a % 2XaX3X].6.6.5.:.Y Y 9 & 9 U &.$.D l g c l.G.~ f d f z b d.V.M.D.) = I eXyXXX/.8.w.5.&.( U = 2 O.o.o.O.O.O.o.O.O.",
"O.O.O.O.O.O.s % 2XeX(.1.5.5.w.6.:.@.9 @ 0 U %.*.M l g b x.H.D.g d g v r.s.p.! G K + Y 3X4Xq.<.5.6.q.:.( K = * O.O.o.O.O.O.O.O.O.",
"O.O.O.O.O.O.a & XXoX5.4.5.6.6.w.3.@.9 + < Y *.*.M f c p.J.=X~.B c v B p.h.N h L 9 4 I 1X].<.4.8.5./.2.Y K , 2 O.o.O.O.o.O.O.O.O.",
"O.O.O.O.o.O.s & 2X4X5.<.5.6./.8.&.( 8 . * #.:.R ^ ! h.G.8X0X`.x.p.i.i.j.h.N m F P = I 3X X<.,.5.6.7.-.Y P = * O.O.O.O.O.O.O.O.O.",
"......O.O.O.U ,  XrXXX/.5.w./.5.) P 8 * L 4.6.:.W.Q.U.`.0XqXv.g.j.h.h.x.x.v.~ E #.3 L 2X6X{.w.q.7.:.) Y K = 4 O.O.O.O.o.O.O.O.O.",
"a  ...O.O.O.O.O.X.<XrX<X3.&.:.*.( 8 K ,.q.$.6.|.+XQ.I.`.qX#Xb.r.i.k.k.x.!.W.W.1.-.T 0 :.3X7X4XXX3.( U U q s O.O.O.O.O.O.O.O.O.O.",
"a a ..O.O.O.O.O...) /.,.K 3 8 9 8 $ I 1X*.q _ /.R.b.g.v.^.^.N.r.r.r.B z.] 1.1.] H #.T L :.w.w.5.i 3 8 3 e o.O.O.o.O.O.O.O.O.O.O.",
" . .O.O.O.O.O.O.....< = @ + @ & + . ) 6X&.q q H G B r.s.s.n.y.t.r.r.b G 0 0 D F q #.6.=.0 * < * o o & 5 O.o.O.O.O.O.O.O.O.O.O.O.",
" .o.o.O.O.O.O.O.O.O.O.O.O.O.o.O.O.+ +.3XeXY 9 q F k v r.e.u.f.y.e.e.b h = 5 K e 0 6./.,.U 8 i 8 o # o.o.O.O.O.O.o.O.O.o.O.O.O.o.",
" . .o.o.O.O.O.O.O.O.O.O.O.O.O.O.o.O...,.4X4X].4.T M x r.u.y.f.u.e.s.a.N D Y u U 4./.q.5.@.U ( P + u o.o.O.O.o.o.O.O.O.O.O.O.o.+.",
"a a ..o.O.O.o.O.O.O.O.O.O.O.O.O.O.O.5 8 {.XX6.>.Y ; g e.u.f.f.y.s.d.m.l.Q R ) #.8.w./.5.) U U 8 < O.o.o.X.O.o.O.O.o.O.O.o.O.O.+.",
"p  ...o.O.O.O.O.O.O.O.O.O.O.o.O.O.o.5 3 {. X5.>.U ; z u.f.f.V.V.M.M.L.L.m.Q R 6.6.5.3.:.@.U 0 & O.O.o.o.O.O.O.O.O.O.O.O.O.o.o.+.",
"a  .o.O.O.O.O.O.o.O.O.O.O.o.O.O.O.O.9 8 |.2X5.5.9 h r.V.V.V.V.V.Z.S.K.K.K.m.! L q.-.@.X.Y Y 7 o O.O.O.O.O.O.O.O.O.O.O.O.X.O.o.O.",
"a ..O.O.O.O.O.O.O.O.O.O.O.O.O.O.o.O.2 q  XeX}.%.F ! N.A.A.C.C.C.S.A.$X&X&X&XY.! J 4.&.T U 0 @ + o.o.O.O.o.O.O.O.o.O.O.O.o.O.O.O.",
" .o.o.o.O.O.O.O.O.O.o.O.O.O.O.O.o.o.2 & *.6X}.q A I.Y.U.U.U.N.N.U.U.U.U.U.Y.Y.I.W i *.X.Y < X u o.O.O.o.O.O.O.o.O.O.O.o.O.O.O.O.",
" . .o.o.O.O.O.O.O.O.O.O.O.O.o.O.o.+.u X + :.9 = Z S A C V V C V V V V C C C A A Z - , K i = 2 o.o.o.O.O.O.O.O.O.O.O.O.O.O.O.o.O.",
"..o.O.O.O.O.O.o.O.o.O.O.o.o.o.o.O.O.O.# $ & 5 & % % + + o X X $ O o o + o + + % o o o = 9 ,  .o.O.o.O.O.O.o.O.O.O.X.O.O.o.O.O.O.",
"O.O.O.o.O.O.O.O.O.O.O.O.o.o.o.o.O.O.O. .4 @ $ # 4 5 u X..... .p y 5 6 5 4 2 4 5 5 5 4 2 # 2 ( o.O.O.O.O.O.O.O.O.o.o.O.O.O.O.O.O.",
"o.o.O.O.O.o.O.O.O.O.O.O.O.O.O.O.O.O.O.....O.(  .....O.O.o.o. .p 6 6 t a s 1 1 1 u ...... ...o.o.O.O.O.O.O.O.o.O.O.O.o.O.o.o.o.+.",
"o.o.O.O.O.O.O.O.O.O.o.O.O.O.o.O.O.O.O.O.O.O.o.o.O.O.O.O...X. .p t p a  ...X. ...O.O.O.O...o.o.o.O.O.o.O.O.O.O.O.O.O.O.O.o.o.+.+.",
"o.O.O.o.......O.o.o.o.o.O.O.o.O.O.O.O.O.O.O.O.O.O.O.O.O. . .p t p  ...O.O.O.O.O.O.O.O.O.o.o.o.o.o.o.O.O.o.O.O.O.O.O.O.O.O.+.X...",
"O.O.O.o.........O.o.o.o.o.o.O.O.O.O.O.o.....O.o.....O.O. .t y y p ..O.O.O.O.O.O.O.O.O.O.o.o.o.o.o.o.O.O.o.o.O.O.O.O.O.O.O.X. .p ",
"O.O.O.o. . . .X.O.O.o.o.o.X.+.o.o.o.o. . . .o... . ..... .p y y a ..O.O.o...O.o........... . . .( ..o.O.o.o.O.O.O.O.o.O.....a p ",
"O.O.o.o. .a a X.O.o...X.+.+.+.O.o.o...a a  . . .a a  ...a p y t a  .O.O.....X.X....... . . . .p  .X.X.O.o.o.o.O.O.o.........p p "
};
