/* XPM */
static char *cl9hdGtfNA__[] = {
/* columns rows colors chars-per-pixel */
"64 64 225 2 ",
"   c #060307",
".  c #0F0A10",
"X  c #140C13",
"o  c #190E15",
"O  c #1C1117",
"+  c #151218",
"@  c #1C141A",
"#  c #1E191E",
"$  c #141117",
"%  c #21151A",
"&  c #2D1318",
"*  c #231A1E",
"=  c #281217",
"-  c #33131A",
";  c #3C171A",
":  c #351C1E",
">  c #3D181A",
",  c #391214",
"<  c #2C0E12",
"1  c #1E1D21",
"2  c #241D21",
"3  c #2B1E22",
"4  c #251620",
"5  c #3C1822",
"6  c #381922",
"7  c #252326",
"8  c #2D2225",
"9  c #2E2528",
"0  c #2B292C",
"q  c #26282A",
"w  c #322325",
"e  c #3C2425",
"r  c #332629",
"t  c #3D2628",
"y  c #352A2C",
"u  c #3B2C2D",
"i  c #312E31",
"p  c #3D2F30",
"a  c #3C2731",
"s  c #2D3535",
"d  c #2F3838",
"f  c #333435",
"g  c #3D3232",
"h  c #373739",
"j  c #343A3A",
"k  c #3A3E3E",
"l  c #3A3738",
"z  c #373030",
"x  c #4C1B16",
"c  c #431719",
"v  c #4B1B1A",
"b  c #461817",
"n  c #531A15",
"m  c #5B1B16",
"M  c #541C1A",
"N  c #5B1D19",
"B  c #591613",
"V  c #75150E",
"C  c #601A16",
"Z  c #6D1B16",
"A  c #6D1E19",
"S  c #611A17",
"D  c #751610",
"F  c #741A14",
"G  c #771E18",
"H  c #5C221B",
"J  c #58231B",
"K  c #4A221E",
"L  c #64231C",
"P  c #6B241D",
"I  c #6A281E",
"U  c #73221C",
"Y  c #7D231B",
"T  c #74291E",
"R  c #471628",
"E  c #561B22",
"W  c #661C35",
"Q  c #452524",
"!  c #432D2D",
"~  c #492827",
"^  c #542522",
"/  c #5E2421",
"(  c #552926",
")  c #5D2C25",
"_  c #542D2A",
"`  c #5A2C2A",
"'  c #4C312F",
"]  c #41312F",
"[  c #55312E",
"{  c #5B322E",
"}  c #412D31",
"|  c #433535",
" . c #4C3433",
".. c #4A3937",
"X. c #453A3A",
"o. c #4B3D3B",
"O. c #463837",
"+. c #543432",
"@. c #593432",
"#. c #543936",
"$. c #533C3B",
"%. c #5D3C39",
"&. c #5B3837",
"*. c #632522",
"=. c #6A2622",
"-. c #622A24",
";. c #6B2A24",
":. c #632D29",
">. c #6C2E2A",
",. c #66262B",
"<. c #762521",
"1. c #732C24",
"2. c #7C2B23",
"3. c #712D29",
"4. c #7D2A25",
"5. c #6C352C",
"6. c #69362B",
"7. c #73332B",
"8. c #7B352A",
"9. c #6C3B34",
"0. c #673B35",
"q. c #743B33",
"w. c #7C3D33",
"e. c #703630",
"r. c #6E2B34",
"t. c #4E403E",
"y. c #47403F",
"u. c #52413E",
"i. c #5B423F",
"p. c #6B433C",
"a. c #714136",
"s. c #75453A",
"d. c #75493E",
"f. c #7A493D",
"g. c #3F3F40",
"h. c #413F40",
"j. c #3E4141",
"k. c #454646",
"l. c #4A4544",
"z. c #474848",
"x. c #484848",
"c. c #484848",
"v. c #544441",
"b. c #5A4542",
"n. c #5C4946",
"m. c #584B47",
"M. c #644641",
"N. c #624B45",
"B. c #6A4943",
"V. c #634E49",
"C. c #6A4E49",
"Z. c #684742",
"A. c #714944",
"S. c #764C44",
"D. c #66514C",
"F. c #6B534E",
"G. c #6A554B",
"H. c #71534C",
"J. c #7C5248",
"K. c #6E5650",
"L. c #6E5A53",
"P. c #715651",
"I. c #745B54",
"U. c #795D56",
"Y. c #7B5D58",
"T. c #7D6159",
"R. c #7A6156",
"E. c #892E28",
"W. c #962D28",
"Q. c #8B372C",
"!. c #94382B",
"~. c #993B36",
"^. c #822A37",
"/. c #A7382E",
"(. c #A23B35",
"). c #B53A32",
"_. c #AF2E29",
"`. c #87473B",
"'. c #974438",
"]. c #AA4136",
"[. c #D2513D",
"{. c #844D43",
"}. c #834943",
"|. c #994B42",
" X c #845346",
".X c #83554B",
"XX c #89584B",
"oX c #9C534A",
"OX c #825D54",
"+X c #8B5E52",
"@X c #9F5D53",
"#X c #A75746",
"$X c #BB5E46",
"%X c #8D6254",
"&X c #82645C",
"*X c #83695E",
"=X c #8A6358",
"-X c #926B5B",
";X c #916456",
":X c #AA6759",
">X c #856C61",
",X c #8B6D62",
"<X c #8D7265",
"1X c #917266",
"2X c #937669",
"3X c #9B7C6D",
"4X c #967667",
"5X c #9E7E70",
"6X c #D45E46",
"7X c #D4674D",
"8X c #E86849",
"9X c #9E8170",
"0X c #AC8D7B",
"qX c #A38674",
"wX c #B78C75",
"eX c #AF907D",
"rX c #B1927E",
"tX c #BE846E",
"yX c #D78767",
"uX c #BA9B85",
"iX c #B79783",
"pX c #C19F89",
"aX c #C4A38C",
"sX c #CCAA91",
"dX c #D8B69A",
/* pixels */
"x.x.x.x.x.x.x.x.x.x.x.k.c.k.x.c.c.k.j.j j k g.k.c.k.j.j.d d d j k y.k.k.k.k.g.j.j j d j j j j d j j k j.j.z.x.z.k.j.k d d d d j ",
"x.x.z.k.k.x.x.x.x.z.x.x.x.x.k.x.c.c.k.j.j.j.j.k.c.k.k.g.k d d j j k.c.j.j.j j j.j.j j j k j j j j j j.j.k.k.c.k.c.j.j d d d j j ",
"x.x.x.k.x.x.z.x.x.x.x.x.x.x.x.x.z.x.c.c.c.c.k.k.c.k.c.k.k.j.j d j j.k.j j j g.j.j.k k j.k j j j j.j.j.j.k.k.j.j.k.j.k d d j j.j.",
"x.x.x.x.c.x.x.x.x.x.x.z.x.x.x.x.z.c.c.x.c.c.c.c.c.c.c.c.c.k.j.d j k.c.j.k k j.j.j j.j.j.j.k j.j.j.j.z.z.k.k.k.k.k.j.j.k j j.k.z.",
"x.z.x.x.x.z.x.x.x.x.x.x.x.x.x.x.x.z.x.x.x.z.x.x.c.c.x.x.x.x.j.d j j.x.x.j.j.k j j.j.z.z.j.j.j.y.j.j.k.z.z.k.c.c.c.k.k.k.k.k.c.c.",
"x.x.x.x.x.x.c.x.x.x.c.x.x.x.x.x.x.x.c.x.x.x.x.c.c.c.x.x.x.x.j.j j z.x.x.k.k j k z.x.z.z.z.z.z.k.z.j.k.z.z.z.x.x.z.c.c.z.c.c.c.c.",
"x.x.x.x.x.x.x.x.z.x.x.z.x.x.x.x.x.x.z.x.c.x.x.x.c.z.z.z.x.x.c.j.j.z.z.j.j.j.j.j.x.m.x.x.x.x.x.x.z.z.z.z.z.z.x.x.z.z.z.z.c.c.k.c.",
"x.x.z.x.x.x.z.x.c.x.x.x.x.x.x.x.c.x.x.x.x.x.x.z.c.z.z.z.x.x.x.c.z.z.j.j.j j.j.z.x.x.x.x.x.x.x.c.z.z.z.z.z.z.x.x.z.z.c.c.c.c.c.c.",
"x.x.x.x.x.z.x.x.x.x.z.x.c.x.x.x.x.c.x.x.x.x.x.x.x.x.x.x.x.x.x.x.x.x.x.j.j.j j.k.z.x.x.x.x.z.x.x.x.x.x.x.x.x.x.x.z.x.x.x.x.c.c.c.",
"k.x.x.x.x.x.x.x.x.x.x.x.x.x.c.x.x.x.x.z.c.x.x.x.x.x.x.x.x.x.x.x.x.x.x.x.j.j.j j.k.z.x.x.x.c.x.x.x.z.c.x.x.x.c.x.z.x.x.x.x.c.c.c.",
"x.k.k.x.x.c.x.x.x.x.c.x.x.x.z.x.z.z.c.c.x.z.x.c.x.x.x.x.x.x.c.c.x.x.x.z.j.g.j.j.x.x.x.x.x.x.x.x.x.x.x.x.x.x.c.x.x.x.x.z.c.c.k.c.",
"c.x.c.k.x.x.z.x.z.x.x.x.z.x.x.x.c.c.c.c.x.x.x.x.c.x.x.x.x.x.c.c.x.x.z.j.j j.j.k.x.x.x.x.x.x.x.c.c.x.x.c.x.z.c.c.x.x.x.x.c.c.k.c.",
"k.k.x.c.x.x.x.x.c.c.c.c.x.x.x.x.c.c.c.c.z.z.x.x.x.c.c.c.c.c.c.c.x.x.k.j d d g.k.x.x.x.x.x.x.c.c.k.k.c.c.c.c.c.c.z.x.x.x.c.c.c.k.",
"x.c.x.k.x.x.x.x.c.c.c.g.l h l k.c.c.c.f i k.m.k.k.i X.l f f i l k.z.y.j f s d j.x.x.x.k.f 7 q s q 7 s s j k.c.c.x.x.x.x.c.k.c.z.",
"k.c.c.k.x.x.x.x.c.7 + 8 z z y 8 * . + * 9 K.qX,Xo.r y p p g p a y y u u p g w # z.c.# X 2 y 8 # # # # * 2 q k.x.x.x.z.x.z.k.c.k.",
"x.x.k.x.x.x.x.x.f   8 I.*XT.I.$.O   8 L.>XrXaXqXI.v.v.D.L.K.P.K.l.X.y.t.t.u.y O k g.. $ N.>XV.9 8 r w w r 8 q x.x.x.z.z.z.c.c.k.",
"c.k.k.x.x.x.x.f @ u <XaXiX0X5Xn.o 3 T.sXsXeX2XR.K.n.K.&X>X&X&XY.D.n.v.O.X.o.| 3 1 | v.K.iXuX<Xn.X.v.m.y.X.p 2 f z.z.x.x.x.c.k.c.",
"c.c.c.c.x.x.x.% y.>X0XrX3X<X>X|   N.pXpXiX<XR.L.b.K.,X1X1X,X>XU.I.I.F.n.b.t.o.i @ G.rXiXeX3X,XU.t.V.I.n.o.o.u 8 k.x.c.c.x.c.c.k.",
"k.k.k.k.x.x.l % 4X2XL.U.U.I.b.8 @ T.eX,XR.T.I.n.y o.P.P.C.C.U.>X&X&XU.F.N.l.X.y X R.dXaX<XP.P.F.$.N.T.G.t.o.o.u * c.c.c.c.c.k.k.",
"k.k.k.k.x.x.f * qX>Xg o.F.F.! : p.<X>XR.U.U.b.w * 3 r r w w ..U.*X&XL.n.b.$.o.u X F.aXiXT.P.K.n.D.I.&XI.v.| v.| O k c.c.c.c.k.c.",
"k j.k.k.x.x.l * qX<X| | b.i.Q P U q.H.Y.Y.b.y u } } 6 4 @ * 3 o.Y.,XF.o.u.n.F.o.O u.3X4XR.N.b.V.U.&X&XI.u.| l.| O l c.x.x.x.k.k.",
"h k k.k.x.x.l % qX5XV.o.X.u e -.D D ,.N.v.!  .H.Y.P.V.h.o.O.r 8 $.F.V.v.F.I.&XV.@ u U.Y.I.b.X.n.F.U.*XU.v.O.o.| O k x.x.c.k.k.c.",
"j g.k.k.x.z.i % 0XrX&XD.| @ ] 9Xw.F G +.6 ~ K.>X>X&X&XI.I.V.X.r * r n.U.&X&X,XC.X | ,X&XF.u...u.o.m.P.F.u.X.u.| % i x.x.c.c.k.c.",
"j.j.k.k.x.z.l 3 9XpX3XU.O.X o.sXaXZ.%.h.3 h.&XY.Y.I.Y.Y.Y.V.v.| X * n.&XY.U.&XN.o n.rX3Xn.u.F.n.| X.b.u.X.X.t.| * X.x.c.c.c.k.k.",
"k.j.k.k.k.z.z.g.t.9X0XT.O.X ..aXpXD.v.D.o.N.&XT.U.U.U.&XY.K.N.| o 4 v.D.P.I.T.P.$...<X0XR.V.T.U.N.n.b.X.X.o.| 8 i k.x.x.k.k.c.k.",
"j.k.k.k.c.c.k.j.X &XaX<X..O O.uXaXT.n.V.$.D.*X*X&X*X&XT.=XU.N.l O 8 X.v.F.T.U.T.R.8 t.rXeXT.T.*X>XI.b.X.o.b.y O x.c.x.x.x.k.k.k.",
"j.j.j.k.c.k.j.j + i.4XP...@ o.rXiX,XV.p 8 ..F.F.P.C.N.N.V.h.o.g % 8 X.t.K.R.U.T.&X] p <XqX4X>XT.Y.K.v.t.X.| 8 # x.x.x.x.k.k.k.k.",
"h l k k.c.k.j.j.j.g | p u O u.rX3X&Xv.4 o 4 r } 8 w y u r w | g % 8 X.o.F.Y.U.Y.R.C.o.u ..*X>Xv.o.o.X.g r 2 8 k.x.c.k.k.c.k.k.k.",
"j j j.k.c.c.k.j.j.j 7 7 3 X u.0X,XU...% r 3 4 a o * $.| 4 w b.| O 8 X.u.P.T.U.Y.T.P.o.* * ..o.4 * 3 8 8 8 i k.z.c.k.k.k.k.k.k.k.",
"j j j j.k.k.k.j.j d j j * . u.rX<XU. .4 M.M.%.H. .0.OXP.a ..D.X.o 3 v.D.Y.T.R.&X&Xn.O.O.z 9 3 * 2 O O 7 k.x.z.x.c.k.k.k.k.k.k.k.",
"j l j j j j j j d d d j q $ u.0X>XU.b.r $.}.|.oX|.|.@XY.n.m.v.y @ r m.F.K.U.P.F.D.u.n.P.n.| y | | 4 @ k.x.x.x.k.c.k.k.k.k.k.h.l.",
"j.k k j d d j j j d d d s $ u.qXD.b.P.b.t E 3.>.1.4.>.&.o.X.y 2 w l o.o.v.F.F.t.o.n.I.T.P.m.o.l.v.3 # k.x.k.k.k.h.k.g.g.g.j.j.h.",
"k.j.y.j.j.j.j.y.j.j.k.j.k $ i.qXm.l K.T.i.6 = = = < = % * * * r o.o.X.X.n.I.I.n.n.Z.7.e.A.n.X.h.h.6 2 k j j.k j k k k k h k h j ",
"k.k.k.k.z.z.z.x.x.x.z.x.j.$ i.0XI.$.V.I.R.b.9 # @ @ @ @ @ # 8 y.n.D.n.N.I.&XT.P.p.=.D ;.H.n.| X.$.3 # d j s j j h k k k j j d d ",
"k.k.x.x.x.x.x.x.x.x.x.x.x.# i.0XF.u y u v.b.u r X.t.X.X...t.g y | ..o.u.b.b.C.9.=.F A H.I.b.O.o.o.3 * s s s j h j k g.g.k j j j ",
"k.z.x.x.x.x.x.x.x.x.z.z.z.# | *X$.8 r 8 * 3 3 w u.R.R.R.L.N.l s y u e 3 3 3 ' =.A ;.C.U.U.n.| o.t.3 # s d j j h k j.k.c.k.g.k j ",
"z.x.x.x.x.x.x.x.x.x.x.x.x.1 % t.I.*X*XH.| 8 y y u N.*X*XH.+.+.R.>X>XD.t 6 e r ( 5.A.Y.&XU.n.X.o.o.8 * k k k k k j.k.c.x.l.k.j.j.",
"z.k.x.x.x.x.x.x.x.x.x.x.z.w J 9.=XwXtX:XC.o.X.l r y n.P.i.I '.yXuX0X=X9.( ' p r u F.&XY.F.u.o.o.y 3 k.c.k.k.k.k.k.c.c.c.c.c.k.c.",
"z.c.x.x.x.x.x.x.x.x.x.x.x.: P V 2.;X:XoX.XD.t... .* u n.K Q.8XyX0X2XOX}.9.&.o.y @ $.T.K.u.o.o.i 8 k.c.x.c.x.x.x.c.c.x.x.x.x.c.x.",
"z.x.x.x.x.x.x.x.x.x.x.x.t.: P V F 7.{.}..XI.A.:.:.- u u.: '.8X$X+XL.I.OXI.b.y.g o o.I.m.o.X.w * k x.x.c.c.x.x.x.c.c.x.x.x.x.x.x.",
"x.x.x.x.x.x.x.x.x.x.x.x.x.@ { I D G }.}..XXX|._.T < e t.: Q.[.a.q.P.L.P.U.n.o.g O u m.y.X.r o o c.c.c.x.x.x.c.x.c.c.x.x.c.x.x.x.",
"x.x.x.x.x.x.x.x.x.x.x.x.z.@ +.@X2.<.~.(.~.(./.W.I : z t.: '.[.2.1.3.3.3.I.n.o.g O r | w 8 8 = % c.v.l.x.z.x.x.x.x.c.z.x.x.x.c.x.",
"x.x.x.x.x.x.x.x.x.x.x.x.z.# { 7X].W._./.).).W.<.{ w z | * '.6XQ.G G <.3.F.v.y.| O % 8 * * ! ( E ` -.) l.x.x.z.x.z.c.x.x.c.x.x.x.",
"x.x.x.x.x.x.x.x.x.x.x.x.z.q ~ $X8X[.)._.(.(.E.*.~ e z l e a.'.T D E.4.q.b.t.X.y * * y g g [ A D D D F $.x.c.x.x.x.x.x.x.x.x.x.x.",
"j.k.c.c.x.x.x.x.x.x.x.x.z.x.k { 6X6X].T r.0.B.0.t.) a.p.p.p.OXa.<.>.9.9.! | y w $.M.V.N.v.o.` F A A P h.x.x.x.x.x.x.x.c.x.x.x.x.",
"j.j.k.c.x.x.x.x.x.x.x.x.x.x.x.y.u.H.B.( ( 0.d.A.a.a.a.a.J.XX9XXXa.Z.i.: % * r i.U.K.K.I.K.o.#.A A =.@.v.z.x.x.c.x.x.z.x.x.x.x.c.",
"j j.k.c.x.c.x.x.x.x.x.z.x.x.z.x.y.L.OX6.H J H H a.s.d.a.a.d. X X X Xd...| ! $.F.K.n.D.T.T.n.o.=.A ` c.c.x.x.x.x.x.c.x.x.x.c.x.x.",
"j.k.l.@.I Z Z F { x.x.x.x.x.z.z.y.3 6.L n n n -.J.-X-X%XXXJ.XX`.f.>.1.Q.S.H.V.o.o.N.U.T.U.v.o.| % h c.c.c.x.x.z.x.x.x.x.x.x.x.x.",
"j.k.$.I P A Z A &.x.x.x.x.x.x.x.X.t K H H H H -.XX4X-X-X;X;X%X;X`.;.T ].#XH.y.O.n.U.T.I.m.o.y.| o 0 x.x.x.x.x.x.z.x.c.x.x.x.x.z.",
"j.j.k.t.u.v.t.l.x.x.z.x.c.x.x.k.| : v / >.9.5.6.f.-X-X-X;X+X`.f.a.I T !.`.i.g X.P.&XT.P.o.| t.O.o 0 c.x.x.x.c.x.x.x.x.x.z.x.x.k.",
"j k k.k.x.x.x.x.z.x.c.x.x.x.x.k.Q K J J 6.s.f.a.d.XXXX X%XXXf.I -.7.8.w.0.m.u.n.I.T.&XP.u.X.O.r 4 k.x.x.x.z.x.x.x.x.z.x.x.x.x.c.",
"j g.k.c.x.c.x.x.x.x.x.x.x.k.o.! K x n H 6.s.f.f.J.d.9.a.`.`.f.I I 1.8.7.' F.I.I.U.I.F.F.v.o.u @ k.x.x.x.c.x.x.x.c.x.x.x.x.x.x.k.",
"j.j.z.x.x.x.z.x.c.c.k.k.#._ ~ Q x x J 6.q.}.{.{.`.9.H I 6.a.8.T T I I I ) #.C.C.Z.M.v.o.o.o.w O x.x.x.x.x.x.z.x.z.x.x.x.x.x.x.x.",
"j.k.x.z.x.x.x.x.c.l.~ E b ~ u.B.0.J H ;.3.w.'.`.8.L m H H I I I I L I I ) ^ K b v H =.`  .u O O x.x.x.x.x.x.x.c.x.x.x.x.x.x.x.x.",
"k k.z.z.x.x.x.x.l.+.M x , t i.L.p.( n H N L 4.!.8.H H m m J H L P I T I H J b c c B Z L _ w o q x.x.x.x.x.x.x.x.c.x.z.x.x.x.x.x.",
"j.k.c.z.x.z.x.x.+.H Z m , : ~ #.r.` J n n n U W.!.T L C m m H L P I I I N n n x c , C F =.e * c.x.x.x.x.z.x.x.x.x.x.x.x.x.x.x.x.",
"z.x.x.x.x.x.z.z.` m Z Z b , 6 R W W E x x x / r.^.,./ J M n M M J H H n x M M v > - B F P w k c.x.x.c.x.x.x.x.c.x.x.x.x.x.x.x.x.",
"z.x.x.x.x.z.z.z.#.N A F B , & - 5 5 R , ; c 5 5 5 5 ; c > > > > > , > > > - - & & < B A ^ 9 q y.x.x.x.z.z.x.x.x.k.x.x.x.x.x.x.x.",
"x.x.x.x.x.x.z.z.l.#.*.S m n c v M n N N C m m B B m S S S S N m C C B B B n n M b c M ^ ' k.k.c.x.c.x.x.x.c.z.x.x.x.x.x.x.x.x.k.",
"x.x.x.x.z.x.z.z.c.c.l.#.[ [ ` ` / *.;.=.U G G G G F F G U P =.P P U U L *.) :.` { +.o.l.c.x.k.c.x.z.x.x.x.x.x.x.x.x.x.x.x.x.k.z.",
"z.x.x.z.z.z.z.z.c.c.x.l.h.h.h.h.$.#.$.%.:.-.;.=.P S L S *.( _ _ _ { @.#.' o.l.x.x.x.x.x.z.x.z.z.x.x.x.x.x.x.c.x.x.z.x.x.x.x.k.k.",
"x.x.x.z.j.j.z.z.c.c.c.x.x.x.x.V.x.x.x.k.c.l.l.l.$.o.%.h.X.f f f k k.x.x.c.c.c.c.x.x.x.x.c.z.k.k.k.k.x.x.z.x.x.x.x.x.x.x.x.k.j.k ",
"x.x.x.c.j.g.g.k.c.c.x.x.x.x.x.x.z.x.z.j.g.j.z.z.j.j.k.l.g.d s s j k.x.x.c.k.c.c.k.k.c.k.k.j.j.k.k.k.x.x.x.x.x.z.x.x.z.x.z.k.j j ",
"x.x.z.k.g.g.g.k.c.c.x.l.x.x.x.x.k.z.k.j.j g.j.j.g.j g.k.g.d s d j k.c.c.c.l.k.k.k.k.k.j.j.g.k k j.k.k.x.x.x.x.x.x.x.z.z.z.k.j j "
};
