/* XPM */
static char *cl9hdGtfMw__[] = {
/* columns rows colors chars-per-pixel */
"64 64 219 2 ",
"   c #060307",
".  c #150C13",
"X  c #1A0E15",
"o  c #141216",
"O  c #1C1117",
"+  c #161218",
"@  c #1C1419",
"#  c #1D1A1D",
"$  c #0E0B10",
"%  c #22151B",
"&  c #2A131A",
"*  c #231A1E",
"=  c #2A1A1E",
"-  c #38151D",
";  c #260F13",
":  c #241D21",
">  c #2A1D21",
",  c #261620",
"<  c #351C21",
"1  c #1F2020",
"2  c #242324",
"3  c #2C2225",
"4  c #2E2528",
"5  c #2B2B2C",
"6  c #262729",
"7  c #322326",
"8  c #342629",
"9  c #352A2C",
"0  c #3B2C2D",
"q  c #3C2424",
"w  c #312E31",
"e  c #3B2F30",
"r  c #3C2730",
"t  c #2D3535",
"y  c #2F3838",
"u  c #343436",
"i  c #3E3232",
"p  c #373739",
"a  c #393738",
"s  c #343A3A",
"d  c #3A3E3E",
"f  c #373030",
"g  c #4E110F",
"h  c #44151B",
"j  c #551614",
"k  c #4F1011",
"l  c #631B15",
"z  c #671417",
"x  c #771613",
"c  c #5B241D",
"v  c #6C211A",
"b  c #662418",
"n  c #73241B",
"m  c #7F261C",
"M  c #7A2B1F",
"N  c #471623",
"B  c #57172B",
"V  c #69182A",
"C  c #761928",
"Z  c #7D1E33",
"A  c #6E1932",
"S  c #422D2D",
"D  c #4A2B2A",
"F  c #5E2A24",
"G  c #5D332F",
"H  c #433535",
"J  c #4B3433",
"K  c #443837",
"L  c #4C3937",
"P  c #453A3A",
"I  c #4B3D3B",
"U  c #473739",
"Y  c #513E3B",
"T  c #573835",
"R  c #413030",
"E  c #652A22",
"W  c #742B23",
"Q  c #7B2D22",
"!  c #64342D",
"~  c #6C342D",
"^  c #663127",
"/  c #74332B",
"(  c #7C3327",
")  c #623732",
"_  c #633B37",
"`  c #6D3A33",
"'  c #693A35",
"]  c #733A33",
"[  c #743F39",
"{  c #4E403E",
"}  c #53413E",
"|  c #59413E",
" . c #63443E",
".. c #6C433D",
"X. c #734138",
"o. c #3F3F40",
"O. c #413F40",
"+. c #3E4141",
"@. c #454546",
"#. c #4A4646",
"$. c #474848",
"%. c #484848",
"&. c #494848",
"*. c #544441",
"=. c #5A4643",
"-. c #5D4A46",
";. c #5F4C48",
":. c #544A46",
">. c #624A46",
",. c #6A4A44",
"<. c #634E49",
"1. c #694E49",
"2. c #694743",
"3. c #724A43",
"4. c #7B4F46",
"5. c #66524C",
"6. c #6B534D",
"7. c #69544A",
"8. c #71534C",
"9. c #7C5248",
"0. c #6D5650",
"q. c #6E5952",
"w. c #715651",
"e. c #745A54",
"r. c #7A5D56",
"t. c #7C5D58",
"y. c #7D6159",
"u. c #786156",
"i. c #861D12",
"p. c #A61C17",
"a. c #B51B13",
"s. c #83251A",
"d. c #89281C",
"f. c #932B1C",
"g. c #9C311E",
"h. c #A5281B",
"j. c #B5231A",
"k. c #B82213",
"l. c #A8331F",
"z. c #8A1E2A",
"x. c #842D23",
"c. c #8C2E22",
"v. c #962925",
"b. c #8A3323",
"n. c #8D3B2A",
"m. c #843528",
"M. c #9A3322",
"N. c #963927",
"B. c #952736",
"V. c #873138",
"C. c #BB2F27",
"Z. c #A53724",
"A. c #B93A26",
"S. c #BB3735",
"D. c #A7292F",
"F. c #C72B1B",
"G. c #C7311F",
"H. c #D3311C",
"J. c #D22F1B",
"K. c #C52C22",
"L. c #C93825",
"P. c #D53826",
"I. c #8D4535",
"U. c #984933",
"Y. c #93412C",
"T. c #A6422C",
"R. c #B4422C",
"E. c #BA432A",
"W. c #B64B34",
"Q. c #A8543A",
"!. c #B8533D",
"~. c #AD4932",
"^. c #C15738",
"/. c #D14D33",
"(. c #962A44",
"). c #9D5745",
"_. c #8C5B4C",
"`. c #A75542",
"'. c #BA5B46",
"]. c #BB4F43",
"[. c #82645C",
"{. c #84695E",
"}. c #8B675C",
"|. c #9B695A",
" X c #B16049",
".X c #AF624F",
"XX c #856C61",
"oX c #8A6D62",
"OX c #8D7365",
"+X c #937669",
"@X c #947A6B",
"#X c #9A7D6E",
"$X c #917266",
"%X c #9D7F70",
"&X c #A07F6D",
"*X c #C46844",
"=X c #DB6941",
"-X c #D9764C",
";X c #E7784B",
":X c #EF7E4F",
">X c #9C806F",
",X c #9F8271",
"<X c #A38474",
"1X c #AC8D7A",
"2X c #A68977",
"3X c #AF907D",
"4X c #B2937E",
"5X c #B8917B",
"6X c #BB8871",
"7X c #D98156",
"8X c #E68656",
"9X c #B69581",
"0X c #BB9C86",
"qX c #BE9F88",
"wX c #B79983",
"eX c #C09E87",
"rX c #C4A38C",
"tX c #CCAA91",
"yX c #D8B69A",
/* pixels */
"%.%.%.%.%.$.%.%.$.%.%.%.@.%.&.&.@.@.+.p s s d @.@.@.@.d s y y s d @.$.@.@.+.+.+.s y y s s s s y s s o.+.@.$.$.$.@.+.+.y y y s s ",
"%.%.%.@.%.%.&.%.%.%.@.%.%.%.@.%.&.$.@.@.+.+.@.@.$.@.@.o.d s y y s { @.+.d d d +.o.s s s +.s s y s s +.+.@.@.@.@.@.+.s y t y s s ",
"$.%.%.%.%.%.%.%.%.%.%.%.%.%.%.%.%.%.@.$.$.@.$.@.@.$.@.@.@.d s y s @.+.d s s +.+.+.o.o.+.s s s s +.+.+.+.@.+.+.@.@.+.s s t s +.+.",
"%.%.%.%.%.$.&.%.&.$.%.%.%.%.%.%.%.%.%.%.&.&.$.@.&.$.&.&.$.@.d s s +.$.+.d d +.d s +.+.+.+.+.+.+.+.+.+.$.@.@.@.@.@.@.+.s s d @.$.",
"%.%.%.%.%.%.%.$.%.$.%.%.%.%.%.$.%.&.%.%.&.%.$.%.&.&.%.%.%.%.+.y s +.%.$.+.+.s s +.+.$.$.+.+.@.@.+.+.@.$.$.$.$.@.$.@.@.@.@.@.$.$.",
"%.%.$.%.$.&.%.%.&.%.%.%.%.%.%.%.%.$.$.%.%.%.%.%.&.&.%.%.%.%.+.s s $.%.%.$.+.s +.$.%.$.$.$.@.@.@.+.$.$.$.@.$.%.%.%.&.$.%.$.%.&.&.",
"%.%.%.%.%.%.%.&.%.%.&.$.%.$.%.%.%.%.&.%.$.%.&.%.$.$.%.%.%.%.$.+.+.$.$.+.+.+.+.+.%.:.%.%.%.%.%.%.$.$.$.%.$.%.$.%.%.%.%.%.%.%.@.$.",
"$.%.%.%.%.%.$.%.$.%.%.%.%.%.%.%.%.%.$.%.%.%.$.%.&.&.%.&.%.%.%.$.$.$.+.+.s +.+.$.%.%.%.%.%.%.$.%.$.$.$.%.$.%.%.%.$.%.%.%.%.%.%.@.",
"$.&.$.$.%.%.%.%.%.%.%.%.$.%.&.$.%.%.%.$.&.%.%.%.%.%.%.%.%.%.&.%.$.%.$.$.+.s +.+.$.%.%.%.$.%.%.%.%.%.&.$.%.$.%.&.%.%.%.%.%.&.$.@.",
"&.&.$.&.%.%.%.%.&.%.%.&.%.%.%.%.%.$.%.%.%.%.%.%.%.%.%.%.%.%.%.%.%.%.$.$.+.o.s +.$.%.%.%.%.%.%.%.$.%.%.%.%.%.%.$.%.%.&.$.$.@.&.&.",
"&.&.&.&.%.%.%.%.$.%.%.$.%.$.%.%.%.&.%.&.%.%.%.%.%.%.%.%.%.%.%.%.$.$.$.$.+.+.+.+.%.%.%.%.%.%.%.%.%.%.%.%.%.&.&.%.&.%.%.%.%.@.@.%.",
"@.&.@.&.&.&.%.%.%.%.%.%.%.&.%.%.%.%.%.&.$.%.&.$.%.%.%.%.%.%.%.%.%.$.$.+.+.s +.@.%.%.%.%.%.%.%.%.&.%.%.%.%.$.$.&.$.%.%.%.%.&.%.@.",
"&.@.&.&.%.%.%.%.&.$.$.$.%.%.%.%.$.$.$.@.%.%.%.%.%.&.%.%.%.%.%.%.%.%.+.d y s +.@.%.%.$.$.%.%.%.%.$.@.$.$.$.$.&.&.%.%.%.%.%.$.@.&.",
"@.&.$.@.%.%.%.%.&.&.&.o.a p a @.$.$.@.u w $.*.&.O.w P a u u w a @.$.{ y t t u +.%.%.$.&.u 6 6 u 2 6 u u d $.&.$.%.%.%.%.%.%.@.$.",
"&.&.&.@.%.%.%.%.$.2 o 3 9 9 9 3 % . o 2 8 0.<XoXY 7 9 e e e R r 8 9 9 0 i i 3 * $.%.# $ : 9 3 @ # # # : : u @.%.%.%.%.%.%.@.&.@.",
"@.$.@.$.%.%.%.%.u   3 e.XX{.e.Y O   3 0.XX3XrX<Xe.#.*.0.0.0.e.6.{ P { { I *.0 o d +.$ O <.XX;.4 3 8 4 8 8 > 5 %.%.%.%.%.%.&.%.@.",
"$.&.&.&.$.$.$.u @ e OXqX9X1X#X=.X > {.rXtX4X+Xy.0.-.0.[.XX[.[.t.5.;.*.U K I H > # K } 0.4XeX+X-.U =.:.I U i : u $.$.%.&.%.&.&.@.",
"&.@.$.@.$.$.%.@ I XX1X9X#XOXXXU   ;.qXqX4XOXr.e.=.0.oX$XoXoXXXt.e.e.6.=.=.I I 0 O 6.4XwX4X#XoXe.I <.e.-.{ P 0 3 @.$.%.%.%.@.&.@.",
"@.&.@.&.%.%.d % OX@Xw.e.r.w.=.4 @ {.3XoXr.[.r.=.9 I w.w.6.6.e.XX[.[.r.0.5.#.P w . u.yXrXOXw.e.1.I 5.y.6.{ P I 0 * &.&.%.%.@.@.@.",
"+.@.&.@.%.%.u % 1XXXi I w.0.0 @ 5.+X{.r.e.e.=.7 % > r < < 7 L t.XX[.w.=.=.I I 9 . 0.rX9Xy.w.5.;.5.e.y.e.*.K { K O d %.%.%.%.@.&.",
"d d @.%.%.%.a % 2XOXK H =.=.# o <X<Xe.r.r.=.0 S S R 8 , @ * > L t.oX1.U } >.5.I O } #X+Xr.1.=.;.t.[.[.e.*.K I H % a %.@.%.&.@.@.",
"p d @.@.%.%.a X <X&X<.I P f = | 9X%Xw.<.| T G ,.e.w.<.O.I K 8 3 Y 6.<.=.1.e.[.1.@ 0 e.[.e.*.U -.6.r.{.e.*.H I H X d %.%.%.%.@.@.",
"s o.@.@.%.%.w % 1X4X[.7.K @ H <X0X$X<.U 8 ) ~ 3.[.XX[.e.e.<.U 4 * 0 -.t.[.[.oX<.. J oX[.5.} U } I =.w.6.*.K #.K O u %.%.%.%.&.@.",
"+.+.@.@.%.%.a > #XrX#Xe.K . L tXrXe.*.L q _ ~ [ w.e.t.t.t.<.:.i . @ ;.y.[.r.[.>.X ;.3X#X;.=.7.-.H U =.*.U P } H % P %.%.&.@.&.@.",
"@.+.@.@.$.&.&.{ { ,X3Xy.K . L rXrX5.*.5.I  .` ' w.r.t.y.[.6.>.H . : O.1.8.e.t.w.L L OX1Xu.5.y.r.>.;.:.K U I H 4 w &.&.&.@.@.@.@.",
"+.@.@.@.$.$.@.d $ y.rXOXU O J 2X1Xe.-.<.Y 5.8.8.y.{.[.y.[.t.<.H % 0 _ ] ] [ w.[.r.3 { 4X3X[.r.{.[.e.=.L #.*.9 O &.&.&.&.&.@.&.@.",
"o.d @.@.$.@.+.s + | +Xw.U q ! ~ X.9.<.e > U 1.1.6.1.<.<.<.O.I i 7 ) m.c.x.] w.[.[.R i OX,X@X{.u.y.0.:.I K H 4 @ &.$.%.&.@.@.@.@.",
"s p d @.$.$.+.d d i H i T W s.s.Q ] T * X , r S 7 7 0 r 8 7 H i T ( d.f.x.[ w.t.y.7.L 0 L {.oX=.I I K H 8 , > @.$.$.&.&.@.@.@.@.",
"p s d @.&.&.$.+.+.d 6 4 G M s.s.s./ T * 8 > < S . = Y H & 8 =.U _ x.i.c.( ..t.t.r.8.U * * L I , * > 3 3 2 w @.%.&.&.@.@.@.@.@.@.",
"s s s o.@.@.@.+.d y s s J ~ Q Q / ` T , =.>.O.1.-.>.1.1.J L 5.U T ] m.] ..t.t.[.[.;.I K e 4 : : * % O 2 &.%.%.%.$.@.@.@.@.@.@.@.",
"d s s s s s d s y t y s 5 S _ 3.3.2.=.8 Y 0.r.4.X.` ` ! ) Y =.0 <  ...2.8.e.e.6.5.:.-.e.;.i 9 H K , @ @.%.%.%.@.&.@.@.@.@.@.@.@.",
"d d d p y y s y y y y y t o | 2X5.<.q.=.S D G F c b c b E G S > r *.=.=.-.e.w.O.P -.e.y.w.=.P *.*.3 @ @.&.&.@.@.+.@.+.P d o.o.d ",
"@.+.+.o.+.+.+.{ +.+.@.+.d + } ,X:.q.q.0.J E E j j l v s.N.I.) 0 a O.K K =.w.w.<.;.w.y.y.y.;.K { { > * d d d d s d d d d a d s d ",
"@.@.$.$.$.$.$.%.%.&.$.%.@.+ } >Xq.q.oX9.X.I.N.m s.m d.l.A.R.U.! S r 8 3 0 H =.t.y.r.r.t.r.=.K I P 3 # t y y s s p d d d s p y y ",
"@.@.$.&.$.$.%.%.%.%.%.%.&.+ | 2X{.8.|.`.Q.!.R.Z.Z.Z.f.f.Z.E.R.Y.^ J 0 : * > 0 >.y.[.r.r.e.=.H P I > * t t t u s s d +.d d s s y ",
"@.$.%.%.$.$.%.%.%.%.%.%.$.@ =.4Xu. ._. X].W.R.R.E.Z.b.s.g.Z.E..X&X#Xr.U 9 0 8 8 >.r.r.r.r.;.K I } > # t y s s p d +.@.&.@.o.d p ",
"$.&.$.&.%.%.%.%.%.%.%.%.&.# | <X=.0 ..Q.~.T.M.T.~.T.m.n m g.Q.qXqX<X{.1.I U K 8 7 =.[.[.e.-.K { I 3 : d d d d d d @.&.%.$.@.o.o.",
"#.$.$.&.%.%.%.%.%.%.%.%.&.d 4 } <.<.5.2.n.g.b.N.Y.n.M v n ( 6XqX,X{.t.r.5.*.I u O J [.[.6.} P I 0 : @.&.@.@.@.@.@.$.&.&.$.$.$.$.",
"&.$.&.&.%.%.%.%.%.%.%.%.&.@.* L #XwX1XOX..N.N.Y.n.M l v Q m.5X,Xy.0.e.r.e.=.I i O L [.6.*.I { 0 > @.%.%.@.%.%.%.&.&.%.%.%.%.&.%.",
"&.&.&.$.%.%.%.%.%.%.%.%.$.# H <XrXrX2XXXu...!.*XQ.Q l Q U.U.<Xu.0.w.e.y.y.} I i O I e.:.{ P 8 % O.%.%.%.%.%.%.%.%.&.%.%.%.%.%.%.",
"$.%.%.%.%.%.%.%.%.%.%.&.%.# L rXrX,X[.e.r.e.*X:X*Xb.b Y.Q._.2Xu.6.w.e.t.e.=.} K O 0 -.{ U 8 X . %.%.%.%.&.%.$.%.%.&.$.%.%.$.%.%.",
"%.%.%.%.%.%.%.%.%.%.$.%.$.+ I wX2Xu.w.w.r.t.'.:X7XQ.M Y.U.9.4X>Xr.8.r.t.1.} } K O 7 i 4 3 4 @ X &.$.%.%.$.%.%.%.%.%.%.%.&.%.%.%.",
"%.%.%.%.%.%.%.%.&.$.%.%.&.+ { 2XoX5.w.r.r.r.Q.=X8X XU.n.m.` >X4X,X@XoX6.#.I I 7 * > 4 # * 0 0 * o.$.&.$.%.%.&.%.%.%.&.%.%.%.%.&.",
"%.%.%.%.&.%.%.%.%.%.%.$.$.@ | 1X+X6.w.t.[.[.X.~.-X7X).W b M  .OX@XOXq.H 9 9 9 7 H 0 9 0 i K { i # { %.%.%.%.$.%.%.%.$.%.%.%.%.%.",
"@.@.$.&.%.%.%.%.%.$.%.%.$.# L 1X4XOXu.u.r.y.W N.=X8X`.v l M b.` H J 0 = @ = 0 =.6.<.>.<.*.U { H @ u &.&.$.%.%.%.%.$.%.%.&.%.%.%.",
"d d @.$.%.%.%.%.&.$.&.%.$.$.9 7.4XwXOX<.>...f.T.-X8X=XN.m n.Q.W.N.! L L L I >.[.[.1.,.3.<.} I H O s &.$.&.%.%.%.%.&.%.%.%.%.&.%.",
"d d $.$.%.%.%.%.&.&.$.&.$.#.} P w.oX .6 = g.A./.;X:X=XW.Q.'.'.!.R.d.b  .y.[.y.6.>.` W W ] | I H O a &.$.%.%.%.&.%.%.%.$.%.$.%.%.",
"+.+.%.%.%.%.%.$.$.&.&.#.| ` | &.3 % % q x.A.F./.=X/.A.S.*X.XW.R.A.l.b.! ,.e.<.I  ./ m m W _ I H X u &.&.%.$.%.%.$.%.%.&.%.%.%.%.",
"+.$.$.%.%.%.%.%.%.%.%.#./ Q _ #.$.o D ( l.k.a.F./.C.p.D.].].D.h.l.l.Z.m.) Y U H =.] / / ~ T I H X 5 &.%.&.$.%.%.&.$.%.%.%.%.%.$.",
"+.+.$.$.%.%.%.%.%.%.%.%.~ T :.%.$.P ^ g.j.a.a.F.F.k.j.C./.L.p.i.d.f.g.b.^ S 9 H w.e.8.2.} K { H O 5 %.%.%.%.%.%.%.%.$.&.&.$.&.&.",
"d d @.$.%.%.%.%.%.%.%.%.*.&.$.$.@.T ( f.f.p.k.J.J.J.G./.P.H.a.x c l b b c - < 8 5.[.[.w.} K K 9 * @.%.%.%.%.%.%.%.%.%.%.$.$.$.&.",
"s d @.$.%.%.%.%.%.%.%.%.$.$.&.&.{ D b x x x h.H.H.J.G.G.L.P.K.z.j g g k j j N < 2.w.6.7.#.{ 0 @ @.%.&.%.%.%.$.%.$.%.%.%.$.&.&.&.",
"d +.$.%.%.%.%.$.%.&.$.%.$.$.&.$.U < j k g j x.L.P.K.p.v.v.K.S.B.z z z V C C A N U ;.:.I { L 4 O &.&.$.$.$.$.&.$.%.%.%.$.$.$.%.%.",
"+.@.%.$.%.%.%.%.$.%.%.%.&.&.$.&.a N j z z l C B.D.D.z.C Z (.(.(.z.Z C C C C V h 8 -.-.U P f O O %.%.&.&.%.%.%.%.%.%.%.%.$.%.%.%.",
"d @.$.$.%.%.$.%.%.%.%.%.%.%.&.%.@.D z z z z z V A A B B B B B B B B h h < - & & 8 <.;.#.L 3 . 5 %.&.&.&.%.%.%.%.%.&.%.%.$.$.%.%.",
"+.@.$.$.%.%.%.%.%.%.$.&.%.%.%.$.@.U k k k g h - - , & & , , , > > > < > 3 : 8 1.8.Y H H i > * %.%.%.&.&.%.%.&.$.$.&.%.%.%.&.&.%.",
"$.&.%.%.%.$.%.$.%.&.%.%.%.$.%.%.$.$.9 = ; & < > @ @ # 2 6 5 t 5 5 5 5 2 2 1 * > * % @ O % * d $.%.%.%.%.$.%.%.%.$.%.%.%.%.%.&.$.",
"$.%.%.$.%.&.%.$.%.$.$.%.%.&.%.%.@.$.@.6 2 % $ o # # 5 $.$.{ 5 y 6 6 6 2 1 1 # + + @ # # # 2 5 +.%.$.%.%.%.%.%.%.%.%.%.$.%.%.%.%.",
"&.&.%.%.%.%.$.$.%.%.$.%.%.%.%.%.$.$.@.{ #.$.a o.o.{ $.%.%.%.+.y 5 2 6 5 2 2 1 1 2 a @.d a { +.$.%.%.%.%.%.%.$.%.%.&.$.%.&.&.%.&.",
"&.$.&.%.%.$.$.$.%.%.%.&.$.%.&.$.$.$.$.%.%.%.#.%.$.$.%.%.$.$.d y t y d d @.+.a o.@.&.@.$.%.%.$.$.%.%.$.%.%.%.%.%.%.%.%.%.&.&.&.&.",
"&.&.&.$.$.$.$.$.$.&.&.$.%.&.&.$.%.%.%.%.%.$.$.$.$.%.%.%.+.+.y y y +.@.$.$.&.&.%.%.%.%.%.$.$.$.$.$.$.%.%.%.$.%.%.%.%.%.$.$.&.@.+.",
"$.&.$.$.@.@.@.@.&.&.$.&.$.$.&.&.%.%.%.$.$.$.$.$.@.@.%.$.+.y t t s @.%.%.%.$.%.%.%.%.%.%.&.&.@.@.$.$.%.%.%.%.%.%.%.%.%.%.$.@.+.o.",
"&.%.%.$.+.+.o.@.&.$.$.@.$.$.$.$.$.%.$.+.d +.$.@.+.+.@.$.+.y t t d @.%.%.$.@.$.$.@.$.@.@.@.+.+.@.+.@.&.$.%.%.%.%.$.%.$.$.$.+.s s ",
"$.&.$.$.+.d d @.&.&.&.$.$.$.$.&.$.@.@.+.d d +.+.+.d +.+.d y t y d +.$.$.$.@.{ $.@.@.@.+.+.o.+.d +.@.&.$.%.%.$.%.%.%.$.$.$.+.o.s "
};
