/* XPM */
static char *cl9hdGtfMQ__[] = {
/* columns rows colors chars-per-pixel */
"64 64 234 2 ",
"   c #070408",
".  c #0F0A10",
"X  c #140C13",
"o  c #190E15",
"O  c #160A17",
"+  c #141115",
"@  c #1B1116",
"#  c #161319",
"$  c #1D141A",
"%  c #1D191D",
"&  c #0E1014",
"*  c #21151B",
"=  c #231A1E",
"-  c #281B1F",
";  c #2C161A",
":  c #341513",
">  c #30351F",
",  c #12032D",
"<  c #1E1E22",
"1  c #231D21",
"2  c #2A1E22",
"3  c #351F24",
"4  c #360F37",
"5  c #1F2020",
"6  c #242325",
"7  c #2C2225",
"8  c #262629",
"9  c #2B2629",
"0  c #2B2A2C",
"q  c #272A2A",
"w  c #312326",
"e  c #332628",
"r  c #352B2C",
"t  c #3A2C2D",
"y  c #352825",
"u  c #3F372F",
"i  c #2F2E31",
"p  c #322F32",
"a  c #3B2F30",
"s  c #3D2032",
"d  c #2D3535",
"f  c #2F3838",
"g  c #343335",
"h  c #3D3233",
"j  c #373738",
"k  c #393739",
"l  c #343A3A",
"z  c #3A3E3E",
"x  c #373837",
"c  c #4F221E",
"v  c #501E30",
"b  c #422E2E",
"n  c #5A322E",
"m  c #5B2439",
"M  c #592436",
"N  c #433535",
"B  c #493434",
"V  c #443837",
"C  c #4B3937",
"Z  c #453A39",
"A  c #4B3D3B",
"S  c #4D3639",
"D  c #513E3B",
"F  c #573436",
"G  c #4C2D2A",
"H  c #692F2A",
"J  c #67233B",
"K  c #6C3229",
"L  c #49542F",
"P  c #4E403E",
"I  c #53413E",
"U  c #59433F",
"Y  c #584D3E",
"T  c #5B5A3D",
"R  c #6F473F",
"E  c #627A32",
"W  c #58782B",
"Q  c #3F3F40",
"!  c #521D4E",
"~  c #461C50",
"^  c #473D41",
"/  c #732E47",
"(  c #3E4141",
")  c #454545",
"_  c #494645",
"`  c #474848",
"'  c #484848",
"]  c #484848",
"[  c #544441",
"{  c #5A4643",
"}  c #5D4A46",
"|  c #5F4C48",
" . c #564747",
".. c #614B46",
"X. c #634E49",
"o. c #6A4F4C",
"O. c #66514C",
"+. c #6B534D",
"@. c #6D584F",
"#. c #71554F",
"$. c #73465A",
"%. c #6E5650",
"&. c #6D5952",
"*. c #715651",
"=. c #755B54",
"-. c #7A5D56",
";. c #7C5E59",
":. c #775558",
">. c #734A4A",
",. c #687242",
"<. c #7B6157",
"1. c #7D6159",
"2. c #766058",
"3. c #7B6C61",
"4. c #9F0F35",
"5. c #BF1C3E",
"6. c #AC3B30",
"7. c #DB3722",
"8. c #CA3934",
"9. c #E43A24",
"0. c #A94634",
"q. c #B64734",
"w. c #BB503E",
"e. c #DB4D37",
"r. c #D9533B",
"t. c #C74E38",
"y. c #E44937",
"u. c #F74E34",
"i. c #E3563B",
"p. c #E4593D",
"a. c #EA573B",
"s. c #F15336",
"d. c #8E3145",
"f. c #AD3953",
"g. c #AD3754",
"h. c #B73957",
"j. c #AD2F45",
"k. c #82564A",
"l. c #AE4851",
"z. c #82655C",
"x. c #84695E",
"c. c #886E5F",
"v. c #857F54",
"b. c #8A516D",
"n. c #B64F67",
"m. c #866C61",
"M. c #8B6D62",
"N. c #886562",
"B. c #8D7264",
"V. c #877364",
"C. c #917366",
"Z. c #937668",
"A. c #95796B",
"S. c #9A7C6E",
"D. c #9E7E70",
"F. c #9A686D",
"G. c #A47478",
"H. c #B76F7F",
"J. c #DB4E4E",
"K. c #D44A4F",
"L. c #D65945",
"P. c #C65A5E",
"I. c #E45640",
"U. c #F15D41",
"Y. c #E65151",
"T. c #E75150",
"R. c #DB6650",
"E. c #EB6749",
"W. c #FA6042",
"Q. c #F27456",
"!. c #C25B62",
"~. c #C9716F",
"^. c #8CBF43",
"/. c #9ABE4E",
"(. c #96A955",
"). c #9D8271",
"_. c #988576",
"`. c #9D806F",
"'. c #A28473",
"]. c #A68877",
"[. c #AC8D7A",
"{. c #A78A78",
"}. c #AE907C",
"|. c #B1927E",
" X c #BD967E",
".X c #AC806F",
"XX c #8A8856",
"oX c #D59077",
"OX c #EA9679",
"+X c #AA9A88",
"@X c #B59581",
"#X c #BA9A84",
"$X c #B89889",
"%X c #B6838C",
"&X c #BFA68E",
"*X c #A9A18F",
"=X c #C3998A",
"-X c #CF918A",
";X c #C5A48C",
":X c #C8A892",
">X c #D9A895",
",X c #D8B79D",
"<X c #D4AC94",
"1X c #FDBA8E",
"2X c #E6B79C",
"3X c #EBAD92",
"4X c #CABAA9",
"5X c #D3B9A3",
"6X c #D7BAA4",
"7X c #D5ADA4",
"8X c #E8BCA1",
"9X c #EFC29A",
"0X c #D5C2AE",
"qX c #DDC3AB",
"wX c #D6C6B1",
"eX c #DCCAB4",
"rX c #D5C9B5",
"tX c #DED4BB",
"yX c #E5C6A8",
"uX c #FDCDA5",
"iX c #F4C8A6",
"pX c #FFD2A6",
"aX c #FDD5AA",
"sX c #FFDBAC",
"dX c #F4D3A9",
"fX c #E1CDB6",
"gX c #E7D3B7",
"hX c #FCDCB1",
"jX c #F4D8B1",
"kX c #FFE2AE",
"lX c #FEE3B3",
"zX c #FFEBB6",
"xX c #F6DFC3",
"cX c #FDF1C7",
/* pixels */
"' ' ' ' ' ' ' ' ' ' ` ) ] ) ' ] ] ] z z l l z ) ] ] ( z l f f l z ( ) ) ) ( ( ( l l f l l l l f l f z ( ) ] ] ` ) ( z f f f f l ",
"' ' ` ) ) ' ' ' ' ' ' ' ' ' ] ' ] ] ) ( ( ( ( ) ] ) ] ( ( z l l z z ( z z z z ( ( l l l l z l f l z ( ( ) ] ) ) ) ( l f d f l z ",
"' ' ' ) ' ` ' ' ' ' ' ' ' ' ' ' ` ' ] ] ] ] ) ) ] ] ] ) ) z l f l ( ) z l l ( ( z z z z z z l l ( ( ( ) ) ( ( ( ) ( z f f f ( ( ",
"' ' ' ' ' ] ' ' ' ` ' ' ' ] ' ' ` ] ] ` ] ] ] ] ] ] ] ] ` ] z f l ) ) ( z z ( z z ( ( ( ( l ( ( ( ( ( ` ] ) ) ) ) ( ( z z ( ) ` ",
"` ' ' ` ' ' ' ` ' ' ' ] ' ' ' ] ' ' ' ] ' ' ' ' ] ] ` ` ' ' ( f f ( ` ` ( ( l z ( ) ] ] ( ( ) ) ( ( ) ] ] ) ] ] ] ) ) ) ( ) ] ` ",
"' ' ' ' ' ' ' ] ` ' ' ' ' ` ' ' ' ` ' ' ' ` ] ' ] ] ` ` ' ' ( l l ` ' ` ` z l ( ' ' ' ` ] ) ) ) ) ` ) ] ] ` ' ' ` ] ] ` ` ] ] ] ",
"' ' ` ' ' ` ' ' ' ] ' ` ' ] ' ' ' ] ' ' ' ' ' ' ] ] ] ' ' ' ] ( ( ` ` ( ( ( ( ( ' ' ' ' ' ' ' ' ` ) ` ` ` ` ` ' ` ` ` ` ] ] ] ] ",
"' ' ' ' ' ' ' ' ' ' ' ' ' ' ' ` ' ' ' ` ] ' ' ` ] ] ' ' ' ' ' ] ` ` ( ( l ( ( ` ' ' ' ' ' ' ' ' ` ` ` ` ` ` ' ` ` ` ] ] ] ] ] ] ",
"` ] ' ' ` ] ' ' ' ' ' ' ' ' ] ` ' ' ' ` ' ' ' ] ] ] ' ' ' ' ' ' ' ' ' ` ( z ( ) ) ` ' ' ' ' ' ` ' ' ' ] ' ' ` ] ' ' ' ' ' ] ] ] ",
"] ] ' ` ' ' ' ' ` ' ` ] ' ' ' ' ' ' ' ] ' ' ' ' ] ] ' ' ' ' ' ' ' ' ` ` ( ( l ( ) ` ' ' ' ' ] ' ' ' ` ' ' ' ' ' ' ` ' ' ] ] ] ] ",
") ] ] ] ' ' ' ' ' ' ' ' ' ` ' ' ` ` ] ] ' ] ` ' ] ` ' ' ' ' ' ' ' ` ` ` ( z z ( ' ' ' ' ' ` ' ' ' ] ' ' ' ] ' ' ' ' ' ' ] ] ) ] ",
"] ] ' ) ' ' ` ] ] ' ' ' ' ] ' ' ` ] ] ] ' ' ' ' ' ' ' ' ' ' ' ' ' ` ` ( z z ( ] ' ' ' ' ] ' ' ' ` ' ' ' ` ' ' ' ' ' ' ` ] ] ) ] ",
") ] ) ] ' ' ' ' ] ] ] ] ' ) ' ' ] ] ] ] ' ' ] ] ' ) ] ] ] ' ' ' ' ' ) z f l z ) ' ' ] ] ] ] ` ` ) ) ] ` ] ] ' ' ' ' ' ' ] ` ] ] ",
"] ] ] ] ` ] ' ' ` ] ] Q j j l ^ ) ] ] i 0 ' _ ] ^ d k j g p r j Q ] z l d i j z ' ' ] ) g 5 6 g 6 8 g d l ] ' ] ` ' ' ` ] ) ] ) ",
"] ] ) ] ' ] ' ' ' 6 + 7 r r r 7 $ X $ = r @.'.M.A w t t h a a t r r t r b h 7 % ` ' % + 1 r 6 % % = % = 1 6 ) ' ' ' ' ' ` ) ] ) ",
"] ) ] ] ' ' ' ' g   7 =.x.x.=.D @   7 @.m.|.;X'.-.[ [ +.*.%.*.o.P Z P P P [ t @ l Q . @ | m.O.w 7 w 9 e w 7 q ' ' ' ` ` ` ] ] ) ",
") ) ] ] ` ` ' g $ a B.;X|.[.S.} o - x.;X:X|.A.1.+.| %.z.x.z.z.z.O.| [ Z V A N 2 % V U @.}.=XZ.} Z {  .A Z a 2 p ` ` ' ' ' ] ] ) ",
"] ] ) ] ` ` ' $ A m.[.|.S.C.m.N   X.;X#X|.B.-.=. .%.M.C.C.M.x.z.=.=.+.} { P A r @ O.}.|.|.S.M.=.A X.=.} P Z t 7 ) ` ' ' ' ) ] ) ",
") ) ] ] ' ' j * B.A.&.=.-.*.{ 9 @ x.}.B.;.z.=.{ t A #.#.o.O.=.z.z.1.-.+.X.P Z r @ 2.,X;XB.=.*.o.A O.1.+.A A A t = ' ' ' ' ] ] ) ",
"( ) ) ] ' ' g * [.m.h A #.@.t * O.Z.x.=.-.=.{ w * 2 e e 3 w D =.x.x.*. .{ P A r . @.;X|.z.@.+.} O.=.1.=.[ Z [ N $ j ' ' ' ' ) ) ",
"z z ) ' ' ' g * ].B.C N { { % @ D.'.=.-.;.U t t t b e = $ 1 2 D ;.M.o.Z I ..O.D @ U S.Z.;.X.{ X.;.z.z.*.I V ^ N o j ' ' ' ] ) ) ",
"l z ) ) ' ' g * `.`.X.A Z t 1 I @X'.*.X.U b B +.-.*.X.A S V e 2 D +.X.{ +.=.z.X.$ t =.;.=.[ Z } @.-.x.-.[ V A N * j ' ' ' ) ) ] ",
"l z ) ) ' ' r * }.|.z.O.V % B '.#XC.>.C 2 b $.z.N.m.;.$.$. .V e * t } ;.z.z.x.o.X N M.z.+.[ Z I Z { =.@.D Z [ V @ p ' ] ' ] ) ] ",
"z ) ) ) ' ' g 2 `.=XS.<.V . C :X;X=.^ B * I c.;.=.:.;.N.z.| ^ a X $ } z.z.;.z...@ } |.S.} [ +.} N V { I Z Z A V * V ' ] ] ) ] ) ",
") ) ) ) ] ` ` z P '.[.1.V o C ;X;X&.[  .y E (.1.:.-.v././.,.Z N @ 1 [ O.=.-.;.*.A C B.{.2.X.;.-.X.} { Z Z A N 7 p ] ] ] ] ] ) ) ",
"^ ( ) ) ) ] ) ( X z.=XB.Z o N #X;X2.o.^ w W (.B.N.N.XX^.^.,.^ N $ w Z [ @.;.-.1.-.w P  X}.1.-.x.z.&.{ Z P [ t @ ] ] ] ] ) ) ) ) ",
"z ( ( ) ] ) ( z # U Z.@.C $ C #X#XM.X.t O > T o.#.o.{ L L u h h * 7 Z A @.;.-.1.z.b h B.'.A.c.<.1.%.{ A V V 7 $ ] ] ] ] ) ) ) ) ",
"z l z ) ` ) ( z z u N N t $ A |.D.z.[ * . O @ 3 3 2 2 @ O * t u * 7 Z A +.;.-.-.<.O.C t A x.x.{ A A Z h e 1 7 ) ] ] ] ] ) ) ) ) ",
"l l z ) ] ] ) ( z z 6 6 2 X D |.M.-.S * y * * t O * S a o 3 U V @ 7 Z I *.<.-.;.;.*.Z = 1 Z C 1 = 2 7 7 6 r ) ` ' ) ) ) ) ) ) ) ",
"l l z z ) ) ) ( l f l l = . D |.C.:.B - ....U +.S [ 1.&.a V O.V o 2 I O.-.1.;.z.1.| Z C a 7 2 = 1 $ $ 6 ) ' ` ` ' ) ) ) ) ) ) ) ",
"z l j l l l z l f f f l q & D [.x.=.{ w D *.1.x.#.1.=.X.D C F B t B { U +.=.=.+.O.[ } *...h r V N = $ ^ ' ' ] ) ) ) ) ) ) ) ) ) ",
"z z z l g f f f f l f f d + [ {.+.{ *...t b A [ _.0X5X$XG.`.'.'.`.{.{.z.C D +.A A | =.1.*.{ Z [ [ 7 % ) ] ) ) ) ) ) ^ z z ( ^ z ",
") ) z ) ( ( Q ) ( ) ( ) z + U ]. .a %.;.{  .3._.4XcXxXeX,X,X5X5X5XqXqX;X1.B } } U =.<.z.=.X.V P P 7 % z z z z z l z z z z l z l ",
") ) ) ) ` ' ) ' ) ' ] ' Q + I [.@.Z } %.;.:XgXwXeXgXfXrXeXeXeXeXqXfXfXqX;X1.C *.=.-.<.;.=.} V Z A 2 % d f f l l l z z z l g l f ",
") ) ] ] ' ' ' ' ' ' ' ' ) # I [.z.+. .[ M.fXxX6X4XwXwXwXwXwX0XwXwXwXeXeXeX:Xx...=.-.=.-.=.{ N A A 2 = d d d d l l z Q Q z x f l ",
") ) ] ' ' ' ' ' ' ' ' ' ' # [ #XZ.=.X.Z ;.+X:X;X6XfXyXyXqXqXqXyXyXqX0XrXtXeX+XX.U -.=.<.<...V A P 2 = d g l l l z ( ) ) ) z z l ",
") ] ] = $ % % = 1 = j ] ` % D #X|.x.%.[ A A &.}.9XhXuXiXiXiXiXdXdXdXyXwXeXqX@XO.t #.-.<.;.{ Z A A 7 1 Q Q z z z ( ( ) ] ] ) ( Q ",
"] ) z U O.O.A 1 2 w 7 j ` ^ r <.@XC.*.o...D A *.9XzXhXpXuXuXpXkXkXkXkX,X>XoX~.l.K G =.-.+._ A A t 7 Q ) 8 # # % q r 9 ) ] ] ] ] ",
") r +.{.@X[.x.A h V t 7 z p < e |.|.C.M.=.^ C D @XhXhXpXuXpXuXiXyXyXpX1XE.e.e.i.l.k.P X.I A A t 7 0 0 0 9 N N N 1 * = 2 ) ' ] ' ",
"$ O.|.;X#XS.z.@.[ Z Z t 2 0 < * c.;X#XG.X.V ^ ..$.>XdXsXaXpX2XG.b.D.2X9XE.7.9.u.Q.oXV.I A Z y = 0 d 6 t x.].{.Z.[ r h t 7 ] ' ' ",
"X =.:X#XC.<.-.-.@.[ A a = j ` g N `.}.2.V j { *.4 b.8XhXhXhX=X! , ~ $X1XE.7.9.u.Q.3X`.P Z r o o i 0 b c.#X:X|.Z.*.[ Z Z b 2 ] ] ",
"o 2.@XA.=.#.=.-.1.*.} V * g ` ] p P I 7 r u } o.4 b.8XhXlXaX$X! , ~ $X1XQ.7.y.u.r.k.b 2 7 7 * o g 6 C |.:X[.M.;.-.@.[ _ N 2 9 ' ",
"X =.].<.+.=.-.-.<.=.| b * h ] ] _ = = y e N } t / $XiXaXaXpX>XF.$.F.>X9XOXR.R.q.K y 6 * = t t 7 6 $ C |.[.x.*.*.-.;.X.A N - 7 ' ",
"X <.}.x.#.=.;.;.1.O.I h * g ] ] ] # b 2.A D D t #XlXlXaXpXpXaX9X8X2XuXaXyX;X'.R : 7 y u h V A j 1   C ].C.=.*.-.-.1.@.A V 1 7 ' ",
"@ *.@X].x.-.-.1.1.| Z h = z ] ] ` $ P '.-...b M.dXcXzXhXpXsXkXzXzXhXjXgXtX0X+X2.C t U X.I Z P u =   A {.B.@.#.*.-.;.o.[ N - 1 ' ",
"l Q x.#X[.1.} X.O.U h 7 u ' ' ] ] $ B {.M.U B.;X8X8X8XuXaX9X2X2XgXtX4X7XrXwX5X&X).X.B X.+.I P V *   C |.].z.*.-.-.&.{ A V 2 2 ' ",
"z ( ) =.<.C 2 w y w 7 p ' ' ` ` ] % B '.-.Z.&X:X~.n.!.3XiX-Xn.n.=X4X%XH.7XgXgX,X;XS.o.I 1.| P h % . N x.@X|.D.A.1.[ A Z t 1 Q ' ",
"z ) ' 7 = * $ * @ % p ` ' ' ` ` ` $ C {.=.B.).F.K.5.h.~.OXP.4.4.~.-X!.f.G.*X+X_.Z.C.o.B =.{ P a * < P ' x.].].Z.I r a t 2 ) ' ' ",
"( ] ` ' ' ' ' ' ' ' ' ` ' ' ' ' ] % C ].-.A V n 6.y.y.J.R.e.8.8.L.I.I.6.n j u N B D b U } Z A N * 6 ) ' ) w y w * o @ = ) ] ] ) ",
"( ( ] ` ' ' ' ' ' ' ' ' ' ' ' ` ] ) r +.z.} { B K q.i.s.y.y.r.i.e.s.s.6.: & 6 r ..;.=.+.P V P N @ 6 ' ' ) g Z z Q ^ ) ' ] ] ] ] ",
"z z ) ] ' ' ' ' ' ' ' ' ` ' ' ' ` ' q e B.S.-.o.B K t.s.i.e.p.p.e.s.s.q.c = g [ =.z.1.=.I Z N y = ) ' ' ` ' ' ' ` ' ' ` ' ' ] ] ",
"l z ) ] ' ' ' ' ' ' ' ' ' ' ' ' ` ` 2 7 B.Z.*.@.V c t.U.U.r.r.r.r.r.p.t.0.n k 2.-.*.%.O.[ A t $ Q ' ' ' ] ' ' ' ' ' ' ] ' ' ' ) ",
"z ( ` ' ' ' ` ' ' ' ' ' ' ' ' ` ] ] 6 y Z.S.=.#.{ n t.W.a.p.i.i.p.p.p.a.p.q.n &.;.X.{ P P A 7 @ ' ' ' ' ' ' ` ' ' ' ' ' ' ' ' ' ",
"( ) ' ' ' ' ' ' ` ' ' ` ' ' ' ' ] ] 5 y A. XC.z.D K r.U.W.I.p.p.p.I.I.W.W.U.q.K X.*.{ A Z t * @ ' ] ` ] ' ' ] ' ] ' ' ] ' ' ' ' ",
"( ) ` ` ' ' ' ' ' ' ' ' ' ' ' ' ) ) = * ..}.&XA.F d.K.T.J.J.J.J.J.J.J.J.Y.T.Y.j.m #.| _ A 2 X 9 ] ' ' ' ' ' ' ' ` ' ` ' ' ' ' ' ",
"( ( ` ` ' ` ' ' ' ' ' ' ' ` ' ' ) ) 6 @ @ X.[.#.d.g.h.h.f.f.f.f.f.f.f.f.f.h.h.g.d.B h N h - 5 ] ` ' ' ' ] ` ' ' ' ' ' ' ' ' ] ' ",
"] ] ' ' ` ' ' ' ' ' ' ' ' ' ' ' ` ' 0 % + * w 3 M J m m M m m m m m J J m m J / J G o $ * = z ] ` ' ' ] ` ' ' ' ' ' ' ' ' ] ' ` ",
"] ' ' ' ' ' ' ` ' ` ' ' ` ' ' ' ` ` ` q 5 $ + + % % 6 ) ) ) q q q q 9 6 6 = * ; $ = = $ % 5 q ( ' ' ' ' ' ' ' ' ] ' ` ' ' ' ' ' ",
"] ] ] ` ' ' ` ` ' ' ' ' ' ' ' ` ` ` ( P ) ) x x k P ` ' ` ` ( f 0 6 6 9 6 5 = 5 6 z Z z x P ( ` ' ] ' ' ' ' ' ` ` ' ' ] ' ' ' ) ",
"] ] ' ' ' ' ` ` ' ' ' ` ' ] ' ' ` ` ` ' ' ' ] ] ` ` ' ` ` ) ( f d d z z ) Z x z ( ` ` ` ' ' ` ` ' ' ` ' ' ' ' ' ' ' ' ' ' ' ) ] ",
"] ] ' ` ` ` ` ` ] ] ] ] ' ] ] ` ' ' ' ' ' ' ' ' ' ' ' ' ( ( f d l z ) ' ` ' ` ' ' ' ' ' ` ` ` ` ' ' ` ' ' ` ' ' ' ' ' ' ' ` ) ) ",
"` ' ] ] ) ( ) ] ` ] ] ) ] ] ` ` ' ' ' ` ) ) ' ` ' ` ' ' ( f d d z ) ' ' ` ` ' ' ' ' ' ' ] ] ` ) ) ] ' ' ' ' ' ' ' ' ' ' ' ) ( z ",
"' ' ' ] ( ( ( ) ` ` ] ] ] ] ] ] ` ' ` ( ( ( ` ` ( ( ) ) ( f d d l ) ' ' ' ` ` ` ) ) ) ) ) ( ( ) ) ) ) ' ' ' ' ' ` ' ' ' ` ( z l ",
"' ' ` ) ( z ( ) ` ` ] ] ] ] ] ` ` ' ( z z z ( ( z ( ( ( ( d d f l ) ' ' ] ) ) ) ) ) ) ) ( z z z z ) ' ' ' ` ' ' ' ' ` ' ` ( z l "
};
