/* XPM */
static char *r_enemy_31678373273[] = {
/* columns rows colors chars-per-pixel */
"64 64 190 2 ",
"   c #030303",
".  c #070708",
"X  c #0B0B0B",
"o  c #050515",
"O  c #141414",
"+  c #16161A",
"@  c #1B1B1C",
"#  c #21211F",
"$  c #090E26",
"%  c #0C112B",
"&  c #121629",
"*  c #191B28",
"=  c #121836",
"-  c #211F23",
";  c #242424",
":  c #292826",
">  c #24252A",
",  c #282828",
"<  c #2B2B2B",
"1  c #262732",
"2  c #2D2D32",
"3  c #252A3F",
"4  c #2C2C3A",
"5  c #2C3535",
"6  c #2F3838",
"7  c #333334",
"8  c #34363B",
"9  c #333A3A",
"0  c #3B3C3D",
"q  c #58011D",
"w  c #5D0326",
"e  c #533533",
"r  c #3B403F",
"t  c #40403F",
"y  c #0B1B42",
"u  c #122951",
"i  c #272A48",
"p  c #3B2C45",
"a  c #2B334A",
"s  c #333644",
"d  c #3E3E41",
"f  c #39384A",
"g  c #2C3354",
"h  c #2F3659",
"j  c #353B56",
"k  c #363D55",
"l  c #47374A",
"z  c #3E4141",
"x  c #3F404B",
"c  c #3D4156",
"v  c #3D425D",
"b  c #2A436B",
"n  c #3E4361",
"m  c #315279",
"M  c #444545",
"N  c #464649",
"B  c #4C424A",
"V  c #474848",
"C  c #494949",
"Z  c #50504F",
"A  c #424253",
"S  c #474951",
"D  c #4E4E51",
"F  c #43465B",
"G  c #4B4B5E",
"H  c #4F5052",
"J  c #525354",
"K  c #585755",
"L  c #55565A",
"P  c #5A5A5A",
"I  c #444C67",
"U  c #4B5061",
"Y  c #575962",
"T  c #5C5E65",
"R  c #4F5777",
"E  c #535B76",
"W  c #575B78",
"Q  c #5E616C",
"!  c #596379",
"~  c #5C617C",
"^  c #636362",
"/  c #66676A",
"(  c #62667B",
")  c #63697C",
"_  c #6D737F",
"`  c #75777B",
"'  c #8A1E1B",
"]  c #962A26",
"[  c #9B502F",
"{  c #B54F2C",
"}  c #DE5E29",
"|  c #E26230",
" . c #B83E56",
".. c #8E5646",
"X. c #BA425E",
"o. c #98635D",
"O. c #DD5443",
"+. c #81807F",
"@. c #596686",
"#. c #5F6C8B",
"$. c #656984",
"%. c #636F8C",
"&. c #6B6F88",
"*. c #6D7284",
"=. c #75788B",
"-. c #647294",
";. c #677997",
":. c #767C94",
">. c #7C808D",
",. c #73859B",
"<. c #7482A2",
"1. c #878788",
"2. c #908F89",
"3. c #818699",
"4. c #878B9F",
"5. c #888C99",
"6. c #8D9196",
"7. c #939496",
"8. c #A2A19D",
"9. c #898DA0",
"0. c #9397A8",
"q. c #989BAA",
"w. c #8A99B2",
"e. c #949EB6",
"r. c #969EBD",
"t. c #9BA0B6",
"y. c #AAA9A6",
"u. c #A9AEB9",
"i. c #BABBBB",
"p. c #D89F9D",
"a. c #DDA1A1",
"s. c #90A2C2",
"d. c #9BA3C1",
"f. c #A5ADC1",
"g. c #A6AECB",
"h. c #ACB2CC",
"j. c #B4B9C7",
"k. c #B1B6CF",
"l. c #AFB6D2",
"z. c #B3BAD4",
"x. c #B1B9D7",
"c. c #B9BFD6",
"v. c #BFC8CD",
"b. c #B7C4D7",
"n. c #B9C0D6",
"m. c #BCC3DB",
"M. c #BCC8DA",
"N. c #C6C7C7",
"B. c #C5CAD2",
"V. c #CBCDD6",
"C. c #C0C6DD",
"Z. c #C4CBDD",
"A. c #CCD1D6",
"S. c #CCD1DC",
"D. c #D5D5D5",
"F. c #D9D8D7",
"G. c #D2D1D9",
"H. c #D7D8DB",
"J. c #DADAD9",
"K. c #F4CAD3",
"L. c #C4CDE1",
"P. c #C4CBE7",
"I. c #C3D2E2",
"U. c #CCD3E2",
"Y. c #CFD9E6",
"T. c #CAD2EC",
"R. c #D1D7E6",
"E. c #D5DBE7",
"W. c #D0D7EB",
"Q. c #D4DAEC",
"!. c #D9DFEB",
"~. c #D6DCF3",
"^. c #D6E2EC",
"/. c #DCE2EC",
"(. c #D9E0F6",
"). c #E5E4E5",
"_. c #E2E5EB",
"`. c #E8E7EC",
"'. c #EDEDEE",
"]. c #E0E5F2",
"[. c #E4EAF5",
"{. c #EBEEF5",
"}. c #E4ECFB",
"|. c #E9EFFB",
" X c #EDF2F9",
".X c #F2F2F4",
"XX c #FAF9F7",
"oX c #F3F5FB",
"OX c #F6F9FC",
"+X c #FCFDFE",
/* pixels */
"9 6 6 5 5 z z C C V V V M M V M C C V V t M M r M M V V V V V M M M t M M M C C V t 9 5 5 r C C C C C C C M V M M M M M M V C C ",
"9 9 5 5 5 r x V V z V V V V M V t V V V M V t M M M M V M V M M M M M M V V C C V C r 9 r r C C C C t C V V M M M M z M M V V V ",
"z 0 6 5 5 z M M z z z C C V V V C V V C V V t t M M M M M M V V M M M C C C C C V t C t t M C V C C C V M M M t t M z M M C V V ",
"V M 9 6 6 e M M z z V C C V V V C V V C t V V M z M z 0 M M M M M V V C C C V V C C C C C C V V C C C C V M M M M M r M t V C C ",
"C V M M t M V V V t C t V V V V V t C t M M M t z M z z M M M M M V M C M C C M t C C C C C C C C C C C C C C t C M t t V V C C ",
"V C C C V V C C C C C C C V M V V V C V M V M t z M M z M V V M M t C C C C C C C C C C C C C t C t t C C C V t M V C C C C C C ",
"C V C C C C V V C C C C V V V V V V V V C V C V M z M M M V V M M M C C C V C C C C C C C C C C C C C C t V C C C C C C C C C C ",
"V V V V V C C C V C V C V V V V V V V V V V C t V M M M V V M M M M C C C C t C C C C t C C C C C C C C C C C C t C C C C t C C ",
"C t C C C C C C C V C C t C C C C t C C C C C C M V M M M C C V C M C C C C C C C C C C C C C C C C V V V M M M M M V C V V V V ",
"C C C C C C C t C C C C C C C C C C C C C C C C V V M M M M C V C C C C C C C C C t C C t C C C C V V V V M r r t M M C V V C V ",
"C C C C C C C C C C C C C C C C C C C C C C C C V M M M M V V V t C C M C t C C C t C C C C C C C C V V M M r t t M M V t C C C ",
"C C C C C t C C t C C C C C C t C C C t C t C C M M M M V V V C C C C C C C C C C C C C C C C C C C V V M M t t V V C C C C C C ",
"C C t C C C C C t C C C C C C t C C V C C V V V V M M M M V V C C V C C C C C C C C C C C C C t C C C C C M C C C C C C C C C C ",
"C C C C t C C C Z C C C C C C C V C C V V C C V V M M M M M V C C V V C C C t C C C C C C C C C C t C M C V M V C C C C C C C C ",
"t C C C C C C C C C C C C C C C C V C C C C V V M M M M M M C C C C C C C C C C C C C C t C C C C C M M t C C C C C C t C C C t ",
"Z C C C C C C C C t C t C C C C V C V V C C V V M r M M M C C D C C C C C C C C C C t C C C C C C C M C C C C C C t C C C C C C ",
"C C C C C C C C C t C C C C C C C C C C C C C C C C V M M M C C C C C C C C C C C C C C V V V V C C C C C C C C C C C C C t C C ",
"C t t C C C C C C C C C C C C C C C C C C C C C C C V M M V C C C C C C C C C C C C C C C V V V M C C t C C C t C C C C C C C C ",
"C C C C C C t C C C C C C C C C C C C C C C C C C C C C V V C C C C C C C C C C C C C C C C C C C C V C C C C C C C t C C C C Z ",
"C C C C C C C C C C C t C t C C C C C C C C C C C Z C C V C C C Z C C C C C C C C C C C C C C C C C C C C C t C C C C C C C C t ",
"C C C C C C C C C C C C C C C C C C C C C C C C C C C C C C C C C C C C C C C C C C Z V C C C C C t C C V C C C C C C C C C t t ",
"C Z t C C t C C C C C C C C C C C C C C V C C C V B C C C Z C C C C C C C C C C C C V V C C C C C C V C C C C C C C C C C t r 9 ",
"t C C C C t C C C C C C C C C C C C C C C C Z Z Z Z Z C Z Z J V C C Z C C Z C C C V C C C C C C C C C C C C t C M C C C C M r 5 ",
"C C C C C C C C C C C C C C C C C Z C C Z C V t 0 7 0 0 8 0 8 8 0 9 0 0 0 0 r M C Z C C C C C C C C C C C C C C C C C C C M t 9 ",
"C C C C C C C C C C C C C C C C C C C Z S C z < ; ; ; < ; < < < < < < > > > ; 2 e x S C V C C C C C V C M C M C C C C C C C t C ",
"C C C t C C t C C C C C C C C C C C C C S e r H / / ^ P K P P P K J H L P P L M 0 0 V C C V V V C C C M C M C C M C C C C C t C ",
"C C C C C C C C Z C C C C C C C C C C Z M < s 7./.).F.F.F.D.F.J.D.B.B.B.A.S.k.=.< < M C C V z V C C M C M C M C C C t C C M M t ",
"C C C C C C t C C C C C C C Z C C C C C M : 9 u.oXOXoXOX+X+XOX{.[.[.}.[.|.|.Y.,.> , M C V V V V V C C C C C C C C C C C V M M r ",
"C t C C C C C C C C C C C Z C C Z C C D M < 7 0.^.Q.R._.{.[./.Z.m.c.m.C.L.L.g.&.; , M C C V V V V C C C C C C M V V V V M M r r ",
"C Z C C C C C C C C C C C C Z C C C C C M < 7 4.T.Y.U.E././.R.Z.z.h.h.k.l.l.r.( ; < z M V V V V C M V C C C C C V V V V M t r z ",
"C C C C C Z C C C C C C C Z C C C C C D C 2 7 4.T.~.E.E.!.!.Q.S.c.h.g.l.c.z.d.( @ , z M V V V M M M M V C C C C V V M M M M M M ",
"C C t C C t C C C C C C C C C C C C D C C < 2 4.T.T.I.E./.!.U.m.z.h.h.k.c.z.d.) @ , z V V M M M M z M C C C C C C C V M M M M M ",
"r 0 0 z z z M V C C C C Z C C C C C C H N < 7 0.~.~.E.[.oX|.!.U.C.C.n.c.n.c.d.) @ ; r C C M V V M M N N C C C C V V V V V V M M ",
"5 5 6 6 0 z V C C C C C C C C Z C C C C N : 8 u.+X+X+X+X+X+XOXoX|.].!.U.C.z.d.) @ ; t C C C C V C C C C C C C C C C V C C C C C ",
"5 5 5 6 z V C C V C C C C C C C D C C H C < 8 6.H.J.F.F.F.J.J.F.B.B.!._.T.x.r.) @ : M C C C C C C C C C C C C C C C C V V V V V ",
"6 5 9 z V C C C V C C C D C C C C C C Z H 8 > M P P K K J J K C t ^ i..X!.z.r.) @ ; 0 C D C C C C C C C C C C C C C C C C V V V ",
"z z z M C D C C C C C C D C C H D D C H H 0 @ X X X X X X . X .   ; 8.XX(.x.t.$.@ ; z C D C C C C C C C C C C C C C C C V C C C ",
"N V C V C C C C C C C D C C C C C C C D H 0 @ X X X X X . . X .   ; 8.XX].z.t.~ @ ; r V C C D C C C C C C C C C C C C M C V C C ",
"C Z C C C C C C C C C C H C D C D C H D H 7 > D ` =.K ; . O M ^ P ` N.{.Q.x.s.~ @ ; M D J C C C D C C C D C C C C C V C C V V V ",
"C C C C C C C C C C C D C C C C C C H D C < 9 y.XXXXy.7   @ +.)..X_.[.}.W.m.t.( ; , M J C C x z M M C C C C C C C C C V C C V V ",
"V C C C C C C C C C C C Z C C D C H D H C : l j.+X+XN.e   @ 7.XX+X+X}.(.W.P.g.*.< > f c x f s s s f N C C C C C C C C V V C V C ",
"C C C C C C C C C Z C H Z C C Z D C H D D 2 9 5._.'.i.d   @ 2.'.{.Z.z.k.z.k.t.~ < 1 c n c j c n F g j C C C C C C C C C C C C C ",
"V C C C C C C C C C C C C C D C C H D J J M 8 S _ 7._ a $ * / 6.>.T Y Q ( $.W F i x ! -.@.R -.r.t.E s N Z C C C C B C C C C C C ",
"C C C C C C C C C C D C C D C H H C C D H C 0 > > > 4 l a g i 4 ; O O @ i h h g g %.d.b.b.u.Z..XG.) s V C C Z C C C C C C C t C ",
"V V C C C C C C C C D Z C C Z C C Z D H C M 0 A c = < [ ..k y % o o o & n @.#.@.#.u.[.OXOXoXoXB.:.A x C C C C C C C V V t r M V ",
"V V C C C C C C C C C C H Z C H D C D H C 7 M ,.s.-...} { f u g h i i n w.M.I.M.M.S.H.J.`..XS.&.f d M C C C C C C C C V t 0 r t ",
"V V C V C C C Z C Z C H C H D C C Z H H N 1 C i. X^.p.O.] p m ;.<.-.-.w.E.OX+XOXOXV.:.! &.,.$.l s z C C C C C C C C V V M z 0 9 ",
"V V V C C C C C C C C C C C C Z C D C H C ; N N.+X+XK.X.w i ,.M.^.I.L.Y./._.`.{.{.j.*.g = = i C C V V V V V C C C C V V V M r 9 ",
"C C C C C C C C C C C C Z Z C Z C H C J N > M N.XX+XK. .q i w.OX+X+X+X_.q.W R E ( u.G.1.1 * z D C C C V M V V V C C C V M r r r ",
"V C C C t C C C C C C C C C Z C D C H C V 7 0 1.v.U.a.| ' l ,.Z.).J.G.q.k o & & % *.j.2.M 0 C Z Z C C V V V V C C C V V r 9 0 M ",
"C C C C C C C C C C C Z C C C C C C C M V d 0 M U R o.| { l b W ( ~ T A ; O ; ; + 2 Z C z M C C Z C C V V V C C C C C V z 0 r r ",
"V C C V C C C C C C C C C C D C C C N M M M 0 < * = e [ ..l u = i v G M < # < 7 ; @ # 5 M C D C C C C V C V C C C C C C V M r 9 ",
"C V C C t C C C V V V N V N V V V N M M M z z 9 2 > < B G v 3 > j :.w.:.S ; : 0 0 7 7 0 M V C C C C C C C C C C V V C C C V r 9 ",
"V C C C C C C C V V M M M N C V M z z 0 0 z z e 0 : s ! @.I 8 7 S :.g.h._ : # 0 l M t M z M V C C C C C C C C V V V V C C V r 6 ",
"C C B C C C C C V V V V V V C V z d e 0 0 9 0 0 7 ; D e.w.U 1 < 8 B 3.z.4.0 # 9 z z 0 0 s z M C C C C C D C C C V V C C C M 0 6 ",
"C t C C C C C t V V V V V C V V z z z 8 0 0 0 0 8 < Y q.5.N ; 7 7 < Y 0.>.M 2 9 s z e t e M C C C C C C C C V C C C V C C M z 6 ",
"C C C C V V V V V V M C C C C N z z z 0 0 0 r t z z N J J 0 9 z 0 7 r C C z 0 z t M M t M C M C C C C C C C C C V C V C C V t t ",
"C C t C C V V V M V C C C C C C z e z z 0 0 t r s e 0 7 0 0 M M d l 9 7 9 e d z M M M M M C C C C C C C C C C C C V C C C V C C ",
"C C C C t C C C V V V C C N M C M M t M M l r t z M M M M M V V V M M M z M z M V M M V V C C C C C C C C C C t V V C V V C C C ",
"C C C C C C C C V V V V C C N C C C C V C C M C V V C C C C C C V C V V M C C N V V V V C C C C C C C C C C C C C C C V C C C C ",
"C C C t C B V C C C C C C C C C C C C V C C C C V C C D C C D C C C V V C M M C V V V V C C C C C C C C C C C B C C C C C V C V ",
"C C C C C C V C C C C C C C C C C C C C C C C C C C C C C D C C C V V N N M M M V M z M t C C C C C C C C C C C C C C C V C C t ",
"z z C C C C C C C C C C C C C C C C C C C C C C C C C Z C C C V C C N M M M z M M z M t t C C Z C C C C C C C C C t C C C C C C ",
"r e C Z C C C C C C C C C C C C C Z C C C C C C Z C C C D C C V V V N M z M M z r r M t r t t C Z C C C C C C C C C t C C C C C "
};
