/* XPM */
static char *r_enemy_21678373274[] = {
/* columns rows colors chars-per-pixel */
"64 64 204 2 ",
"   c #030303",
".  c #070809",
"X  c #0C0C0C",
"o  c #0D1515",
"O  c #121212",
"+  c #181B1B",
"@  c #1B1B1C",
"#  c #291312",
"$  c #20201F",
"%  c #1F1F21",
"&  c #391C22",
"*  c #1F2223",
"=  c #1D2929",
"-  c #232324",
";  c #262729",
":  c #25292A",
">  c #2C2C2D",
",  c #352B2B",
"<  c #31312F",
"1  c #2E2F31",
"2  c #2B2D3D",
"3  c #3D2B35",
"4  c #2D3434",
"5  c #2F3838",
"6  c #343434",
"7  c #383837",
"8  c #353638",
"9  c #333A3A",
"0  c #3B3D3D",
"q  c #771D20",
"w  c #512F32",
"e  c #39403F",
"r  c #111F44",
"t  c #2B3147",
"y  c #343A45",
"u  c #3E3F41",
"i  c #343A54",
"p  c #503842",
"a  c #3E4141",
"s  c #3B464B",
"d  c #3B4152",
"f  c #3B4B51",
"g  c #38486C",
"h  c #444546",
"j  c #464749",
"k  c #474848",
"l  c #494949",
"z  c #53474F",
"x  c #41514F",
"c  c #51504E",
"v  c #434657",
"b  c #454951",
"n  c #4E4E51",
"m  c #4C4E59",
"M  c #4F5052",
"N  c #4D5259",
"B  c #525354",
"V  c #515359",
"C  c #5B5B5B",
"Z  c #6F4C4D",
"A  c #444965",
"S  c #575A67",
"D  c #4F5D72",
"F  c #5F6060",
"G  c #4D6070",
"H  c #5E6372",
"J  c #666466",
"K  c #6B6C6D",
"L  c #70716E",
"P  c #636672",
"I  c #666C7F",
"U  c #6D6D79",
"Y  c #677577",
"T  c #747573",
"R  c #7C7C7C",
"E  c #930E16",
"W  c #921D25",
"Q  c #B83F26",
"!  c #A12F36",
"~  c #FF0E1B",
"^  c #ED121E",
"/  c #EB1824",
"(  c #EB2933",
")  c #E82D38",
"_  c #FF2935",
"`  c #FF2E39",
"'  c #EC313C",
"]  c #F1323D",
"[  c #CF653B",
"{  c #953A44",
"}  c #FF3642",
"|  c #83574C",
" . c #B1525A",
".. c #996C71",
"X. c #ED454F",
"o. c #F9404B",
"O. c #EF4E56",
"+. c #F5755A",
"@. c #FF5A63",
"#. c #C26167",
"$. c #FA616A",
"%. c #EF797F",
"&. c #F9757A",
"*. c #81807C",
"=. c #5E7586",
"-. c #676D80",
";. c #666C82",
":. c #6B7185",
">. c #6E7489",
",. c #747889",
"<. c #70858A",
"1. c #788898",
"2. c #878988",
"3. c #878C9D",
"4. c #8A9196",
"5. c #96989A",
"6. c #A49399",
"7. c #838BA7",
"8. c #858DAA",
"9. c #8E92A4",
"0. c #8992AD",
"q. c #9A9EA6",
"w. c #9598A8",
"e. c #8E96B4",
"r. c #8E99B4",
"t. c #929AB6",
"y. c #9A9FB4",
"u. c #949DBB",
"i. c #9CA4A9",
"p. c #99B3AF",
"a. c #99A1BC",
"s. c #9CB0B0",
"d. c #A3A6A8",
"f. c #ACACAB",
"g. c #A2A8BD",
"h. c #ACB5B5",
"j. c #B1B1B4",
"k. c #BCBBBB",
"l. c #D09DA7",
"z. c #FE9FA5",
"x. c #D7B1B3",
"c. c #F2A3A8",
"v. c #FFAEB1",
"b. c #FBB3B8",
"n. c #969EC2",
"m. c #9BA4C4",
"M. c #9CA6C9",
"N. c #A2AAC4",
"B. c #A9AFC6",
"V. c #A3ACCB",
"C. c #A9AFCA",
"Z. c #AEBAC4",
"A. c #AEB4CD",
"S. c #B1B6C6",
"D. c #B0B6CF",
"F. c #B6BCCC",
"G. c #B9BCCB",
"H. c #A5AFD1",
"J. c #ADB6D3",
"K. c #AFBBDA",
"L. c #B4BBD4",
"P. c #B4BCDA",
"I. c #D3B7C2",
"U. c #E1BEC2",
"Y. c #F2BDC1",
"T. c #A8C3C8",
"R. c #B7C1C1",
"E. c #BAC0D6",
"W. c #BEC4DB",
"Q. c #C8C7C6",
"!. c #C5C7CB",
"~. c #CCD0CF",
"^. c #C7CCD3",
"/. c #C2C7DE",
"(. c #C3CADC",
"). c #C7D6D7",
"_. c #D5D5D4",
"`. c #D3D9DF",
"'. c #DBDBDB",
"]. c #F8CFCE",
"[. c #C4CBE5",
"{. c #CDD4E4",
"}. c #CBD6E8",
"|. c #D5DAE7",
" X c #D3DDF2",
".X c #FFDEE1",
"XX c #DEE3EE",
"oX c #DCE3F2",
"OX c #DBEBF8",
"+X c #E2E3E4",
"@X c #E2E7EF",
"#X c #E3E9EA",
"$X c #F0EFEE",
"%X c #E2E6F4",
"&X c #E6EBF6",
"*X c #EAEEF4",
"=X c #E3EBFA",
"-X c #EAF3F4",
";X c #ECF3FB",
":X c #F4F3F4",
">X c #F0FAF6",
",X c #F3F5FB",
"<X c #F4FAFE",
"1X c #FCFDFD",
/* pixels */
"9 5 5 4 5 e s l l k k k h h k k l h l l h h 0 h h h l h l h l h h h h h h l l l l 0 e < < e h l l l l l l l h l h h h h h l l l ",
"9 9 4 4 4 e a k h h h k h k k k h l h h h h h 0 h h h h h l h h h h h h h h l l l a 7 e e e l l l l l l l h h a h a a h h l l l ",
"a e 5 4 4 e h h e e k k l k k k l h l l h h h h h h h h h h h l h h l h l h h l l h a a h h l l h l l h l h h a h h h h h l l l ",
"l h 9 5 e w h h a a h l h k l k l l h h h h h h h h 0 0 a h l h h h h l l l l l l h c l h l h l l l l l l h a a h a a a h l h l ",
"l k h h a h l h h h h l l l h l l h h h h h u h a h a a a h l h h l l h h l l l l l l l l h h l l l l l h h h h h h h w h l l l ",
"l k l l l l h l h l l l l l h h l h l h h h h h 0 h h a h l h h a h h l l l l h l l l l l l l l l h l h l l l h h l l h l h l l ",
"k k l l l l l l l l l h l l l h h l l h h l h h h h h h h l l h h h l l l l l l l h h l l l h l l l l l l l l l h l h l h l l h ",
"k k k k l h l l h l l l h l l l l l l h l l l l h h h h l h h h h l h l l l h l l l l l l h l l h l h l l h l h h l l l l l l l ",
"l h l h h l l l l l l l h l h l l l l l l l l l h k h h h l h k h l l l l l h l h h l l c l l l l l l l l l h h h h l l l l l l ",
"l l l l l l h l h l l l l l l l l h h l l h h l k k h h h h l l l l l h l h l l l l h l w l l l l l h l h h 7 e e h h l h l l h ",
"l l l l l l l l l h l h l h h l l l l l l l l l h h h h k l l k l l l l l l l h l l l l l l l h l h h l h h 7 e h h h l h l l l ",
"l h h l l h h l l l l l l l l l l h l h l h l h k h h h h k k l l l h l h l l l l h l l l h l l l l l l h h h h h h l l l l l h ",
"l l p l l h l l l h h l l l l h l l h l k l k l k h h h h h k k h l l l l h l l l h l l h l l l l l h l l h l h l l l l l l l l ",
"l l l l l l l l l l l l h l l l l l l l l l l k h h h h h h k k l l h l l l h l l l l h l l h l l h h h h h l l l l h l l h h l ",
"l l l l h l l l l h l l p l l h l h l l h l l l h a h h h h l l l l l l l l l l l h l l h l h l l l l h h l l l h l l h l l l l ",
"h l l l l l l h l l l l l l l l l l h l l l l l h h a h h h c l l l l l l l l l l l l l l l l l l l h l l h l h l l l l h l h l ",
"l l l l h l h l l l l l l l l l l l l l l l l l l k h h a l l l l l l l l l l l l l l l h l l l h l h l l h l h l l l l l l l l ",
"l h h l l l h l h l l h l h h l l h l l l l l l l l k h h k l l l l l l l l l l l l l l l l l h l l h l l l l l h l l h l l l l ",
"l l l l h l l l l l l h l h l l l l l l l l l l l l l l k l l l l l l l l l l l l l l l l l l l h l l l h l h l l h l l h l l l ",
"l h h l l l h l l h l l l l l l l l l l l l l l l n l l l l l x l l l c l l l l l l l l l l l l l l h l l l l l l l l l l h c w ",
"h l l l l h l l l h l l l l l l l l l l l l l l l n l l l n l l l l l l l l l l l l l l l l l l l l l l h l h l l l l l l l e 7 ",
"l l h l l l l l l l l l l l l l l l l l l l l c l l l l l l l l c l l c l l l l l l l l h c l l l h l l l l l l h l l l l h e 7 ",
"l l l l l l l l c l l l l l l l l l l l l l l l l M n n l n l l l l l l l c l l l h l l l l l l l l c l l l h l l l l l l h e < ",
"l h h l l l h l l l l l l l l l l c l h l l c h p j h 7 < < 6 8 7 < e e < < e e l c h c l l l l l l h h l l l l l l l l l l e e ",
"l l l h l h l l l l l l l l l l l l h a j V B l 0 0 0 > - - - $ $ $ - $ @ + @ > e l l l l l l l l l l l l l l l l l l l h l h h ",
"h l l l l l l l l l l l l l l c l h k C U K F C C B C C C V n n c c b j n N V h e e l l l l h l l l l l h h h h l h l h l l h h ",
"h l l h h l h l l l l l l l l c l 9 x 9.j.K k *.j.k.Q._._.^.^.).~.!.Z.g.N.L.S.,.< < h c h h h l l l l h l l h l l h l l l l h h ",
"l l l l l l l l l l l l l l l l k 2 A G.'.J ; 5.:X1X1X:X*X&X=X&X>XOX[.L.P.[.[.3.$ < c l l h h h h l l l h l l l l l l l h h h 7 ",
"l l l l l l l l l l l l l l l c l 2 A G.+XK ; q.1X<XXX{.W.W.W./.[.P.N.t.t.V.M.>.= < c c l l l l l l l l l l l l h l l l h h e e ",
"l l l l l l l l l l l l c l l l j 2 A F.+XL 4 q.<X,X|.(.E.A.A.A.F.C.u.7.8.t.t.;.$ < k k h h l h h l h l l l l l l l l h h e e h ",
"l l c l l l l l l l l l l l l c l 2 A G.+XL 1 q.<X;XXX{.W.A.A.A.L.D.y.0.0.u.u.;.$ < h h h l h h h h h l l l l h l h l h h a h a ",
"l h w l l l l l l l l c l l c l l 2 A G.+XL 1 w.<X;X}.(.L.A.A.A.L.D.u.0.0.u.u.:.+ < h h l h h h h h h l l l l l l l h l h h h h ",
"e e e a a a k k k l l l l l l l a t g E.#XL 4 i.1X1X X{./.W.W.E.L.D.y.0.0.u.n.:.@ > k k k j j j k k k k l l l l l l k k k k h h ",
"4 4 4 5 9 a k l k l l l M l l b i r g E.#XT 8 h.1X1X1X1X;X&X X{.(.D.u.0.0.u.u.:.@ > k l k k l j j l l k l l l l l k l l k k k k ",
"4 4 4 9 a l l l k k l c l l j d i t | x.U.J 6 2._.'.'._.~.!.`.*X|.A.t.8.0.u.u.>.@ , l l l l l l l l l l l l l l l l l k l l k l ",
"5 5 9 a k l l l k l l l l l j d i Z [ +.#.w - y C C B c h V d.:X&XL.t.8.0.u.u.>.@ < l l l l l l l l l l l l l l l l l l k k l k ",
"a a a h j l l l l l l l l c l d p Z [ Q q & @ O X X . .   X R :X,XL.t.7.0.u.n.>.@ > k l l n l l l l l l l l l l l l l l l l h l ",
"k k l k l c l l l l l M l l l n b B Z w , - @ X X X X .   O *.1X,XL.e.8.0.u.u.:.@ > l l l l l l l l l l l l l l l l l h k l l l ",
"l l l l l l l l l l l l n l l B n t t G Y l $ O O @ 6 C J K f.:X%XD.t.7.0.u.u.;.+ , l n n l l j l l l l l l l l l l l l l l l h ",
"l l l l l l l l l l l n l l l l l : y s.'.R O   . O C Q.:X@XoX;XoXP.u.e.e.m.m.;.% 6 B n n l n l n l l l n l l l l l l l h l l l ",
"l l l l l l l l l l l l l c l B l ; w R.>X2.X     X J '.1X1X=XOX X[.C.n.n.H.V.,.; 8 V n l l n l l l l l c l l l l l l l l l l h ",
"l l l l l l l l c l l M n l l B l > h f.+X4.$     . F ~.-X}.J.A.D.B.t.7.8.t.e.-.8 u V c n l l l l l c l l l l l l l l l l l l l ",
"l l l l l c l l l l l l l l M l b 0 h K 5.q.U -   . y <.1.=.G S S m v p v m N b h l n c l n n l M l l l l l l l l l l l l l l l ",
"l l l l l l l l l l M l l n l B l B j 0 B 3.y.S 1 e j p 3 3 s f y : * * * - > 8 j n B l c l n l n l c l l l l l l l l l l h h l ",
"k k l l l l l l l l c n n l l B l M l h u m :.5.h.T.6.{ E W ..p.p.4.R H S D H S u h B n l c n l l l l l l l l l l l k k w e a l ",
"k l l l l l l l l l l l l l n l n n M l u - l R.<X:Xc.X.^ ( %.].>X#X{.V.r.u.u.,.8 0 n n n l n l l M l l l l l l l l l k a e a a ",
"k k l l l l l l l n l c l B l n l M B B h @ k ).1Xv.@.} _ _ o.&.].1XOXE.n.m.M.1.1 7 B n l l c l l l l l l l l l l l k k h e e e ",
"k k l l l l l l l l l l l l B l l n l l h 4 f i.x.z.} ' ) ) ( O.b.,XOXW.A.A.M.>.> 7 n n n n l n n n l l k l l l l l k k k h e 9 ",
"l l l l l l l l l l l l c c l c l B l n l l 8 9 T x.z.O./ ( &.Y.|. X=X,X,X%XJ.;.- 6 l c l c c l l l l l k k k l l l k k h 0 e e ",
"k l l h l l l l l l l l l l c l n l n l n n > O x ).$X$.~ ` v.<XT.3.!.1X1X@X9.y - 7 l c l l c c l l l l k k k k l l k k e 9 0 h ",
"l l l l l h l l l l l c l l l l l l l j l l < O x )..X@./ ] b.>X<.s 5.$X1XQ.V @ > 0 h l l l l l l x l l k k l l l l l k h 0 e e ",
"l l l l l l h l l l l l l l n l l j j h j h 6 % N S.I. .E ! l.{.1.s J f.k.R < $ 4 w a h h l l l l l b l l l l l l l l l k h a 7 ",
"l l h l l l l l l l k k h j l l k k h h h h < - m r.9.z # , U N.M.1.m 6 7 6 < 6 9 a h h h l l l l l l l l l l l l k k l l k 0 5 ",
"l h l l l h l h k h k h h h l l h a a 0 0 e < - N a.r.s o = y I J.K.S X O : 7 a a a 0 0 0 l l l l l l l l l l l k l l l l k 0 5 ",
"l h l h l l l l k k h h j h l j a a w 0 0 0 , ; N a.9.f : 6 ; 0 3.B.P @ * 9 0 0 0 0 0 0 0 h h l l l l l l l l l l l k l l h e 5 ",
"l l l l h l h l k k l l l l l j a a a 7 7 0 6 < u H F 8 1 0 8 6 V P j ; 4 s w 0 e 0 e p 0 h l l l l c l l l l l l k l l l h e 9 ",
"l l l h l h l h h k k l l k l k h a w e e 0 a 0 8 1 ; - < 0 h 0 6 ; - : 8 w s a h a h h h h l l l l l l l l l h h l l l l h h w ",
"h l l l l l l l k h k k l l l k h e a e 0 e e e 0 1 , 6 0 a j h 0 > , 8 0 a a a a h a h h h l h l l l l l l l l l l l l l l k k ",
"l l l k p l l h k k k l l l k l k h s w h h w s h h j j h h k k h h h h h h h a h h h l l l l l l l l l l l l l l l l h k k x l ",
"l l l k l l l l k k k l l l h l k k l k h h k k k k l l l j l n l l l l k k k k l l l l l l l l l l l l l h l h l h l l l k k k ",
"l l l l l l l h l l l l l l l l l l l l k l l l k l l l l c l l l l l k k k h k l h l h l l l l l l l l l l l l l l l l k l l k ",
"h l l l l l l l l l l l l l l l l l l l l l l l j l l l l l l l l l k k h h h h h h h a l l l l l l l l l l l l h l h l l k k l ",
"0 h l l l l l l l l l l l l l l l l l l l l l l c z n l n l l k l k k h h h a a h a a a 0 h l l l l l l l l l l l l l h l l l l ",
"7 u h l l l l l l l l l l l l l l l l l l c l l l l l l l l l k k k h a h h k a 0 a h h 0 0 l z l l l l l l l l l l l l h l l h "
};
