/* XPM */
static char *r_enemy_11678373273[] = {
/* columns rows colors chars-per-pixel */
"64 64 185 2 ",
"   c #040404",
".  c #0D0D0E",
"X  c #07181C",
"o  c #131212",
"O  c #131C1C",
"+  c #1A1A1A",
"@  c #1F1F22",
"#  c #1F2126",
"$  c #172D32",
"%  c #252525",
"&  c #292927",
"*  c #262628",
"=  c #27282C",
"-  c #2B2B2C",
";  c #3C292C",
":  c #242831",
">  c #2D2E31",
",  c #2C3535",
"<  c #2F3838",
"1  c #333334",
"2  c #393937",
"3  c #34363A",
"4  c #333A3A",
"5  c #3A3D3D",
"6  c #461D26",
"7  c #49242E",
"8  c #4E2F37",
"9  c #4B313A",
"0  c #413C3A",
"q  c #3B403F",
"w  c #40403F",
"e  c #363843",
"r  c #3E3F41",
"t  c #3A3E4A",
"y  c #3E4141",
"u  c #3D404B",
"i  c #3F585C",
"p  c #444546",
"a  c #464648",
"s  c #474848",
"d  c #494949",
"f  c #454855",
"g  c #4E4E51",
"h  c #4D4F59",
"j  c #49515A",
"k  c #535353",
"l  c #50525A",
"z  c #595A5C",
"x  c #535561",
"c  c #585B67",
"v  c #615360",
"b  c #596669",
"n  c #5E6478",
"m  c #5D6A7B",
"M  c #696969",
"N  c #71706F",
"B  c #616677",
"V  c #696C74",
"C  c #61677A",
"Z  c #646A7D",
"A  c #6B7275",
"S  c #747679",
"D  c #A80F1B",
"F  c #AE1724",
"G  c #B82D39",
"H  c #A4323D",
"J  c #FF0C19",
"K  c #ED1521",
"L  c #FD2D38",
"P  c #EA303A",
"I  c #FC333F",
"U  c #BD3E49",
"Y  c #AF424B",
"T  c #805A60",
"R  c #A45F60",
"E  c #807F7D",
"W  c #B76470",
"Q  c #FC444D",
"!  c #FB4953",
"~  c #FF555E",
"^  c #F25D67",
"/  c #FB636A",
"(  c #686D81",
")  c #6D7385",
"_  c #6A7C82",
"`  c #6D748A",
"'  c #7C7E83",
"]  c #71768B",
"[  c #747989",
"{  c #7B7F8D",
"}  c #6F7792",
"|  c #747B94",
" . c #7B8987",
".. c #7B8196",
"X. c #7A8598",
"o. c #848382",
"O. c #898987",
"+. c #848689",
"@. c #898B8B",
"#. c #85899C",
"$. c #868A9C",
"%. c #899A9E",
"&. c #999896",
"*. c #A99191",
"=. c #9FA29E",
"-. c #A0A09F",
";. c #858BA4",
":. c #8B93A9",
">. c #969AA7",
",. c #858FB0",
"<. c #8C95B0",
"1. c #9097B0",
"2. c #979BB1",
"3. c #999EB4",
"4. c #949CBC",
"5. c #9CA3AA",
"6. c #9CA3BD",
"7. c #A5A6A6",
"8. c #A1A5B9",
"9. c #A8ADB8",
"0. c #A9B6B5",
"q. c #B2B3B3",
"w. c #B6B8BC",
"e. c #FD9DA2",
"r. c #C0BFBB",
"t. c #FBA0A6",
"y. c #C3C1BC",
"u. c #97A1C5",
"i. c #9BA4C3",
"p. c #A4ABC3",
"a. c #A6AECC",
"s. c #AFB5C5",
"d. c #ACB2CC",
"f. c #B0B6CF",
"g. c #A5AED1",
"h. c #ABB4D3",
"j. c #B4BBD6",
"k. c #B8BED7",
"l. c #B4BCDA",
"z. c #D1B9C4",
"x. c #BEC1C1",
"c. c #BBC2CB",
"v. c #BBC1D6",
"b. c #BDC4DB",
"n. c #BCC8DB",
"m. c #BDC6E2",
"M. c #C4C3C2",
"N. c #C9C9C8",
"B. c #C2C7DD",
"V. c #C4CBDD",
"C. c #C5D5D6",
"Z. c #CED5DD",
"A. c #D7D8D9",
"S. c #FBCACA",
"D. c #FFD2D4",
"F. c #F9D4D8",
"G. c #C5CBE3",
"H. c #C8CFE7",
"J. c #C3CBE9",
"K. c #CDD4E4",
"L. c #CCD3EB",
"P. c #D1D7E3",
"I. c #D4DBE4",
"U. c #DBDFE5",
"Y. c #D5DCEA",
"T. c #D9DFEC",
"R. c #D4DCF1",
"E. c #D7E2E4",
"W. c #DBE1EC",
"Q. c #DDE3F3",
"!. c #DCEAF4",
"~. c #E6E6E5",
"^. c #E4E6E9",
"/. c #ECEBEA",
"(. c #E1E5F3",
"). c #E4EAF4",
"_. c #EDEFF4",
"`. c #EBF3F8",
"'. c #EDF1FA",
"]. c #F7F7F6",
"[. c #FBF3F3",
"{. c #FAFAF7",
"}. c #F3F6FC",
"|. c #F6F9FD",
" X c #FBFCFD",
/* pixels */
"4 < < , < 4 s s d s s s p p p s d w d s w s p q s s d s d d p p p q p p p p s d d w q , , q w d d d d d s w s s s w q s d s s s ",
"4 4 , , < 4 p s p p p s s s s s d d d d d w w p p p p p p d s p p s w p s s d d d w q < q q s d d d d d s s s w p s p p s s s s ",
"y 5 < , < 5 p d w q p s d d s s d w s s s s p w p p w p p d d p s p s s s s s s d d w w w s s s d d d d s s s w w p y y w s s d ",
"d p 4 < 2 q p w y y p s d d d s d s s s s w p p y p q q y p p d p s s s s s s s d w k d d s s s d w d d s s w s p p y p s s d d ",
"d s p p w p d p w p w d d d d w d d s s p p s w y p y y y d p p s d d d s d s d d d d d k w d d d d d w d d s w s s s w s d d w ",
"s s d d s s d d d d s d d p d d d w s w s s p w y p p y p d p p w w d d s d d s d d d d w d d d d d d d d d d w s w d d s d d d ",
"s s d d d d d d d d d d d s d w s s s s s p w s p y p p p d p p s s d d d d w d w d d d d d d d d d d d d d d d s d d d d d d d ",
"s s s d d s s d s d d d d d s d d s s s s s d d d p p p p d d p w s w d d d d d k w d d d d d w w d d d d w d d d w d d w d d d ",
"d d w d d d d d d d d d d d d d d d d w d d d d s p p p p s s s d s s s d w d d d d w d d d d d s s s s d d p s w d s s s s d w ",
"d d d d d d d d d d d d w d s s d d d d d d d d p d p p p p s s d d s s d d d d d d d d d d d d s s s s s w q q w s s s s s d d ",
"d d d d w d d w d w d d d s s s d d d d d d w d d p p p s s s s d s s d d d d w w d d d w d d d d s s s p w w q w p s s w d d d ",
"w d d d d d d d d d d d s s s s w d d d d d d d p p p p p s d d w d d s d d d d d d d d d d d d d d s s s s w s s s s s d d d d ",
"d d d d d d d d d d w d d w d d d w d d s s s s d p p p p p d d d d d d d w d d d d d d d d d d s w d d d d s w d d d d d d d d ",
"d d d d w d d d d d d d s d d d s d d d s s d s p p p p p p d d d d d d d d d d d d d d w d w d d s s s w d d d w d d d d d d d ",
"d d d w d d d d d d d d d d d d s d s s s s d d p p p p p p d d d d d d d d d d d d d d d d d d d s w d d d d d d d w d d d w d ",
"d d d d d d d d w d d d d w d d d s d s d d d d p p q p p d d d d d d d d d d d d d w d d d d d s d s d w d d d d d d d d d d d ",
"d d d d d d d d d w d d d d d d d w d d d d w d d s p p p p d d d d d d d d d d d d d d d s s d d w d d d d w d d d d d w d d d ",
"w d d w d d d w d d d d d d d d d k d d d d w k d d d p p s d d d d d d d d d d d d d d s d d s s d d d d d d d d d d d d d d d ",
"d d d d d d d d d d w d d d d d d d d d d d d d d d d d s d d d d d d d d d d d d d d d d d s d d w d d d d d d d d d d g w d d ",
"d d d d w d d d d d d d w d d d d d d d d d k d g d d d d d d d g d d d d d d d d d d d d d d d d d d d d d w d d w d d w g d w ",
"d d d d d d d d d d d d d d d d d d d d d d d d d d d d d d d d d d d d d d d d d d d d d d d d d d w d d d d d s d d d k d w w ",
"d d d d d d d d d d d d d d d d d d d d d d d d d g g d d d d d d d d d d d d d d d d d d d d d d d d d d d d d d s d d w d q q ",
"w d d w d d d w d w d d d d d d d d d k d d d d d d d d g d d d d d d d d d d d d d d d d d d d d d d d d d d d w d s d d p q , ",
"d d d d d d d d d d d d d d d d d d d d d d d k d g g d k d g d g d d g d g d d d d d d d d d d d d d d d d w d d d s d d p q 2 ",
"d d d d w k w d d d d d d d d d d d d d d d d d d d d d d d d d d d d d d d d d s s d d s d s d d d d s s s s s d d d d d d d w ",
"d d d w d d d d d d d d d d d d d d d k d d d 2 - = > > > - 1 - > ; - - - & - 2 s d s d d s s s d d d s w s s s d d d d w d d d ",
"d d d d d d d w d d d d d d k d d d d d d d p 1 * & * * * * & * & % % % % % & 1 w s d d s s p s d d d s d d s s d d d d s s w s ",
"w d d d d d d d d d d d d d d d k d d d p 2 5 c o.O.o.o.o.O.O.O.E S A A S S V l 2 5 s s d s p p s s d s d s s s w d d d s s w w ",
"k w w k w d d d d d d w d k d d d d d d w ; 5 5./././.~./././.^.U.P.Z.P.U.Y.b...- - p s d s d d s s d s d d s s d d d d p p q q ",
"d d d d w k d d d d k d d d d d d d d g 5 % 3 9.}.}.'.|. X|.}.(.T.R.Q.Q.(.Q.G...% % q s p s s d s s s d d d s s d d p d w w q p ",
"k d d k k d d d d d d w d d d d d d k d 0 & 3 >.R.L.H.T._.(.I.B.k.k.k.v.b.b.i.Z # % q p p s p p p p s s d d d s s p p p p p p w ",
"w d d w w d d d d d d k d d d k d d d d w - > $.J.R.P.Y.T.T.P.V.j.d.d.h.j.h.6.B + & q s s s s p p p w s d d d s d s p d p p p p ",
"q q q q q s w d s d d d g d g d d d g d p & = $.L.R.Y.I.T.T.U.P.v.d.d.f.j.j.6.Z + % 0 a a a a a a u d d d d d d d d s s s p s p ",
", , , , q w d w s d d d d d d d d d d d q & > $.J.L.V.I.W.Y.K.k.f.d.d.h.k.j.i.Z + % p a d d d d a d d d d d d d d d s s s s s s ",
"$ , , q q d d d s s d d d d d d d g d g p * 3 3.(.(.Q.`.|.}.).Y.K.H.B.v.k.j.i.Z + & p d d d d d d d d d d d d d d d d d s d s s ",
"q , q q d d d d d d a d k d d g d d g d a % r 9. X X|.]. X{.}.}.).Q.Y.K.B.j.i.Z + % 0 d g d d d d d d d d d d d d d d d d s s s ",
"q q w d d g d d d d d g d d d d g g d g d - 3 +.M.N.M.M.y.M.N.y.q.w.A.).K.j.4.Z + % 0 d d d d d d d d d d d d d d d d w s d s d ",
"w d d d d d d d d d d d k d d d d d g g d 3 * 1 p a p p q w w 2 - k q.{.Q.j.4.C + & p d g g d d d d d d d d d d d d d d d s d s ",
"d g d d d d d d d d g d d d d d d d d k d 5 +                     + &.{.Q.l.4.C + & s d g d d d d d d d d d d d d d d d d d d d ",
"d d d d d d d d d d d g g d g d g d g g d 3 + . . . . . o . .     - 7.}.^.l.4.n + - s g g d d d d d d g d d d d d d d d d d d w ",
"d d d d d d d d k d d k d d d g d g k g d > - z @.@.b &   o d S S O.N.'.Y.l.4.n % 1 s g d d d d d d d g g d d d d d d d d d d d ",
"d d d d d d d d d d d d k d d g g d d g d % t 7./.].q.2   + E ~./.^.).Q.L.l.i.( : 3 d g k d d g d d d d d d d d d d d d d d d d ",
"d d d d d d d d d d k d d d d d d g g g p % t s. X XA.u   + &.{. X'.Q.R.Y.J.h.` > 1 d g d g g d g d d d d d d d d d d d d d d s ",
"w g d d d d d d d d d d d k g g g d g k d > 3 { C.E.0.e   O +.E.Z.p.6.6.p.p.1.Z 2 5 d g g g d d g d d g d d d d d d d d d d w s ",
"d d d d d d d d d d d d d d g d g g d g d a 3 3 x _ b , X $ i _ b t e u f h g u p d g g d g d g d d d d d d d d d d s d w q w d ",
"d d d d d d w g d a d k k k d k d g g g k d 5 1 2 8 8 9 9 9 7 6 ; , - * & > 3 5 p d g g d g k d d g d d d d d d d d d s w 5 q p ",
"w k w d d d g d d k d g d d k d g d g g p , y  .*.Y F G U G D D R =.%.] n Z ( x 2 5 d g g d g d d d d d d d d d d d d s p q q 4 ",
"d w k w d d d d d d d d d g d g d g g a 1 % A !.].t.! I L I I / S.{.`.m.h.g.u.| t 1 w g g d d g g g d d s s d d d d s s s p q 4 ",
"d d d d d d d d d d d d g k d d d g k a > x s.|. X[.e.Q J L / D. X X`.m.g.i.4.,.} f r d g d g d d d d d p p d d d d d d q q q q ",
"d d k w d d d d d d d d d d d k g d g z V 8.B.c.C.`.D.~ J L t.{. X`.G.4.] | 6.H.G.] w d d g d d d d d d d p d d d d d p q q q y ",
"d d d w d d w k d k w k d d d k d a d N z.).8.c b C.F.^ K P *.x.C.n.a.} e g w. X{.>.p w d d d g d d d d d d d d d d d p y q q q ",
"d d d d d w k w d d k w d d d s g w w E E. X:.: , 5.z.W H U T m X.<.4.` % q y. X{.q.d 5 p d d d d d d d d d d d d d d d d y q q ",
"d w d d d d w k d d d d s s d d d w a o.A.W.| : , ..2.) v v c n ` ;.4.| t z r.|.{.7.d r w d d d g d d d d d d d s s s d d d q < ",
"w k w k d d d d p d p w w s d d p p d M O.{ f * p $.<.m j j c ( X.;.,.X.) ' &.*.-.M 5 5 r p d d d d d d d d d d s s s d d d q < ",
"d d d w d w d d d d s s s s d s w w g d 2 = + o g 2.:.j 3 e u c ) ) B ` 6.3.v - - 1 1 2 0 a s d d d d d d d d d d s s d d p q , ",
"d d d d w k d d p s s s s d d s w 0 p 0 - # + + a [ V , @ @ * e f u 3 h $.$.g o + > 2 r 0 w d d d d d d d d d d d d d d d p q 4 ",
"d w d d d d d w d p d d d d d p p w w 5 3 2 2 3 > 1 , - * % & - - # % > p d 5 1 2 q p p p s d s d d d d d d d w s d d d d d w w ",
"d d d d d d d s p s p d d d d d p 0 w 0 0 r w 5 1 - > 1 3 5 q y 5 1 - - 1 3 5 p p p p p p s s d d d d d d d d d d s d w d d d d ",
"d d d d d s s d d p d d d d d p w p p 0 w w p w p w p p p d d g d d p p 0 p w p p s p s s s d s d d d d d d d d s d d d s d d d ",
"d d d d w d d d d d d s d d d d d d d d a d a a d d d d d d g g d g d d d s s s d s s d d d d d d d d d d d d d d s s d d d d d ",
"d d d w s s s s s d d d d d d d d d d d d d d d d d d d g d d d d d d d d p a p s s p s d d d d d d d d d d w d d d w d d w d d ",
"d d d d s s s d s d d d d d d d d d d d d d d d d d d d d d d d d a d d d p p p p p p y w d d d d d d d d d d d d d d d s d d d ",
"w d d d d d d d d d d d d d d d d d d d d d d d d d d g d d d d d a a p p p p y p p p w w d d k d d d d d d d d d d d d d d d d ",
"q w w g d d d d d d d d d d d d d d g d d d d g d d g d g d d a a a a p y p a y q q p w w w w d d d d d d d d d d d d d d w d d "
};
