/* XPM */
static char *r_player_d_31678373331[] = {
/* columns rows colors chars-per-pixel */
"64 64 82 1 ",
"  c #1B1017",
". c #1E1B1E",
"X c #20171C",
"o c #22191E",
"O c #251D22",
"+ c #291E22",
"@ c #262224",
"# c #2B2226",
"$ c #2C2629",
"% c #2D2B2C",
"& c #322629",
"* c #342B2D",
"= c #3A2C2E",
"- c #332E31",
"; c #3B2F30",
": c #2E3434",
"> c #343334",
", c #3B3334",
"< c #373638",
"1 c #3A3638",
"2 c #353A3A",
"3 c #3C3D3D",
"4 c #412F30",
"5 c #433535",
"6 c #433837",
"7 c #423738",
"8 c #433B3B",
"9 c #4B3C3B",
"0 c #513E3D",
"q c #4E403F",
"w c #52403E",
"e c #3E3F40",
"r c #413F40",
"t c #3F4040",
"y c #444545",
"u c #4A4544",
"i c #474847",
"p c #494847",
"a c #474848",
"s c #494948",
"d c #544442",
"f c #594643",
"g c #554946",
"h c #5C4946",
"j c #544D4B",
"k c #5D4E4A",
"l c #5A514E",
"z c #634E47",
"x c #624E49",
"c c #65514C",
"v c #6A534E",
"b c #70544F",
"n c #645551",
"m c #6C5651",
"M c #655953",
"N c #6E5953",
"B c #6F5F59",
"V c #715751",
"C c #745B54",
"Z c #795D56",
"A c #775F58",
"S c #7A5F58",
"D c #6F6159",
"F c #796157",
"G c #7D625A",
"H c #7B6B61",
"J c #81655C",
"K c #83695E",
"L c #846B61",
"P c #8A6C62",
"I c #847166",
"U c #8D7569",
"Y c #8F7B6E",
"T c #917166",
"R c #917568",
"E c #947A6C",
"W c #9A7C6D",
"Q c #9E8171",
"! c #A58575",
"~ c #A88977",
"^ c #AE8E7C",
"/ c #B59580",
/* pixels */
"22:::tttsssttttt2:222222ttttayt32232tttatt222tyaasysaaaaayaapapa",
"322::ettststttt:22222222ttttttt32332ttyyy3222tyaayyauaiyaaaaapap",
"tt2::2tyttsatttt2:t22222ttttttt332ttttttytt2ttyyyiayyauyaayapaap",
"ttttettytttstttttt2ttttt22tt3t2tttttttttttttyyyyyiisyiaiuaaaaass",
"aaytatiystsststtttttt233t2t23232ttatattt3tttyyyyyyyiyiyiaaaraaau",
"aaaaaaiisstttstttttttt332t223tttttyytt3t33tqtttyyyiyyyiyraaaaaaa",
"aaaaaaaatssssstttytttt332tttt2t2tyyytt33333tttttyyyyyyyyaaaauraa",
"aaaaaaaasststtstyyatttt3ttttttttttttt333233ttttqyyyyiyyyyuaasaaa",
"uayaaaaattsttstsyyyyre33etyyy3tttttt3333223tttttyyayayyyyyyayaay",
"aaaaaayytstttttsiyiyyet33ytyyyt3t2333333333tttyyyyuayayyyryyyaaa",
"ayiyaayasstttttsyiyyye33ttyyyttt333333333233ttyyyaayyayyyyyyyuaa",
"yaaayiaasttttttsiyiyee33tttyytt3333333333333tyyyaaaaayaryyyyyyaa",
"ayayayayaaattttsyiiyyt3tt3tytttt333333333333tyyaauyayayaayyyyyaa",
"yayuayaaastttttsyyyyytt8tytyyyttt23tttt32333tyysaaayaaaayyyyyyay",
"yaayayaaaaaaattayyyytyy33yytyteyttttttttt33ttyyyuaaaaayayyyyyyyy",
"ayayaataaaataattyyytyt3yytyyt8y3ttttttttttttyyyyyaaayaaaayyyyyaa",
"yyyyyyyyayaayyyyyyryyyyryryyyyyyyyy3tettyeeyyyuyaaauayayyyyryyaa",
"yayyyyyyayayyyyyyryyryyyyyyryreyr3yyyyyyyyyyyiaiaayyayyyryyyyyya",
"yyyyyyyyyaaaayyyyyyyryryyrryyyyyyttt3yyyyyyyyyyiyaayyytyyyyyyyay",
"yyyyyryyayyyyaayyyyyyyyyyyyyryeyyyye3yyyyyyyyyyiyayrtyyyyyyyyyye",
"yyyyytyyiiyiiyiyyyyyyyyyyyyyyryrt3y3tyyyyyyyyryyyyyttyyyyayyyte3",
"yyyyryyyyyiyyiyiyyyyyyyyyyryyyyyyyyttttyyyyyyyyyyrryttyyyyyyee22",
"yyyrytyyyyyyyiyyyyryyyryyyyyyyryy3tt3teeyyyyyyyryryryyttyyyytt32",
"yyyyyyeyyeyyyyiyyyyyyyyyyryyryyyyyyyy3yyeytyyyyyyyryrttyttttytte",
"yyyytyttttytyyyyyyyyyyyyyryrraaayyyyyyryyryyyyyyyyyyyyttetettyty",
"yyyyyyytttetttyt8iyyyyryyyyyaupguyyyuityyryyyyyyyyyyyyyteeq3ttyt",
"yyyrytttt33ttytyyyyyyyyyuauuarr1,>><3yyyyyyyyryyyyyyyy33e3yytt33",
"yyyytttqtt3ytyyyyyyyaaaae33ty>OO@#+##-<eyyyyyyyyyyyyytq3333rt332",
"yyyy3ytty33ytyyyyyiyiyr<$O+-8-#<rrr1;#$-riyyyyyyyyyyyt3333333222",
"yyyyy83yeyy3qyyyyyr<-$#O#&&=888ukljg97$+<aiyiiyiyyt3333333332222",
"yyyyty33yytytyyayy>@OOX#,155668pld89glr$-<,>><8yuy33313133233223",
"3eee3ttyryyytyyyy>++*,,79ddr9=;gl1+#9xku<OOXOO%1u8233212233333t3",
"23233eeryryyyyyy1++;rxxrfvVVd=-js1++=zVmr4===#+&7-$<231338ttttyy",
"2:233tryyayaayar-+&9hxzxvVZZr-;psar,*rZCcrrrfr5+#+#<1333q3ttyyyy",
"2223etyrrayyurrr$#9frrcSSAVr==rssjlg9xZCVnvvVVh;#O#<12333tttyyyy",
"333eeyrryryayrr<O+0bf4rcvxr;+,paaapkxvZZZZZZJZn9,+#<313ttqtiyyyy",
"tytyryyyyyyuarr1+O4h7++=*&+*1aae<,ucmxvCJVZZJJb05$%<33yyyysyyyyi",
"tyiyayyyyayyurrr,++=+O--&-,ray;$$,dxvhfcbbzzbZf4*->33yyyysyyyiiy",
"yiyiayyuaaayaaasr,$$$eryrsjj3#O-7r90frhvbrfrz0&X-8t3qyyyysyssyyi",
"yiyiyayayyayraaaarrrysjssjjy%O7MAx5=44fvbbbx0=  *81ttyaasyssyyyy",
"iyyayuairusyaasssssssssssspr,gLYIAxr5;&=fZZZcr4+*;;rasaasyuyyysy",
"iyyaaaayaaaarasuasassyssaaa8gHYPSSZCx5+o9cVmVr459;;rpssassissssy",
"yyauaaausaraaaaraassasssase;kUUCVZJZb9+o5xxxh;*hk7-7rraassyssssy",
"iyyaaayasusaaaaaysssssssas<+9HEKZZZbr4++0nnxd;,ug,$#$-easssssyss",
"yaayayaaaarsasaaaaassaaass3X+dJKvzzr05=4hvnghf05-$++&->3eyaasiii",
"aayauyaauausasrayassasssss1Oo=55&=54400zbnhghkr-+$,hxf6*$-8ussuy",
"uyyyaauyaaarrayssaassssjsr$#904==50440vzVmhffg7-&8mSKJv6=*,yaiyi",
"yyuayasyaaaaaayyyaaaayyr3#O5zCZVZJbf00zzvvxff7$%rNJHAGSVf9,<yiiy",
"yysyrsaaruayyryytsi2@@@..@8gkNGZZJJCbvcczhhhf;o#rZLCmnAGvd;&eitt",
"yyyaaaaarr81><3rqii:$%%%-qnNxxmvzcVJJJZVvcczf1O+0CJSmnSJvd=+3yte",
"ryaaaasu7486,*-->q36qljjlMBAVvzxffhcbbvcmCVcfq*.;bSLLLAvd6=$tat2",
"aaaaasur9fSKv5*&*26,lHHDccmZGCVmczfxczffvGFkiq=X$rcCGAh5=**1tt22",
"aasaaar5wE/!Pbd9q%#@qFQJcdfvZJGGZVvvvhdfvFVfq5#.$<898,-##%2aatt2",
"aayyss1*z!^TJJVhq*. ONQJvf09fvVVbVvxkd9dzvzdq&+#-><<<<311>1aate2",
"uaauss<+b!WVbJJzw&..+F~KVbh5=4600f0fcxdxcxw9q+.%<<2eyiissetatt22",
"yaaass<&zW!TKGmfq&+.#F^QPJm5oo&;54=9FRPJGmd94+@:<-<eyyiyaytaattt",
"aaaassr&&VQQLc95=#@..wQ^Qbw=.@*,5*O=cQQKVhw6#o@:>><3ryaaayapsayy",
"aaaaasy,*5ff9*##@@%...qNw=+@&%:>,%$#=wvw4*&#oO@$*><3ryyaaaapssss",
"uaaassar32>-%%%$@%%%@.@&&@@@%:%>*%*%@@##O@@@@$%>323eryayaaaaasss",
"yaaasapasiiyyyy<*%::>>%%%%%:>>>>%%%%%%@#$:%%%>3tqyrryaaaaaapasss",
"ryyaapsaaaaaaiy326226222:::>226>>>%>>:%><<<>223ytyyyyyaaaaayaaus",
"eeyapasaaiaaiiye233322326>>333t32<<<333323328yyyyayyaaaaattyaass",
":eyappaaaaasaye3222233tqttq3t3q3q3333tq33tt33yyiayaaaassyteeasss",
":2yapaaaaaaaaat322223tttqtt33ttt33333ttttttt3tiyaaayaasstterysss"
};
