/* XPM */
static char *r_player_d_41678373332[] = {
/* columns rows colors chars-per-pixel */
"64 64 80 1 ",
"  c #191017",
". c #1D161B",
"X c #1E1B1E",
"o c #20171C",
"O c #221A1E",
"+ c #241E22",
"@ c #291E22",
"# c #262225",
"$ c #2B2225",
"% c #2C2629",
"& c #2D2B2C",
"* c #322629",
"= c #332B2D",
"- c #392C2E",
"; c #2F2F30",
": c #332E31",
"> c #3A2F31",
", c #2E3535",
"< c #343334",
"1 c #3B3335",
"2 c #383837",
"3 c #373738",
"4 c #3B3738",
"5 c #353B3B",
"6 c #3C3D3D",
"7 c #433636",
"8 c #463837",
"9 c #433C3C",
"0 c #4A3C3B",
"q c #4E403F",
"w c #51403E",
"e c #3E3F40",
"r c #423F40",
"t c #3E4040",
"y c #444444",
"u c #4A4545",
"i c #474847",
"p c #4A4847",
"a c #474848",
"s c #484848",
"d c #544441",
"f c #594743",
"g c #554946",
"h c #5B4A46",
"j c #574C48",
"k c #5D4C49",
"l c #5A5451",
"z c #634E47",
"x c #634F4A",
"c c #65514C",
"v c #6A534D",
"b c #6E584F",
"n c #70544F",
"m c #655751",
"M c #6C5651",
"N c #6E5B55",
"B c #725751",
"V c #735C55",
"C c #795E56",
"Z c #795E58",
"A c #786156",
"S c #7C625A",
"D c #79695F",
"F c #766960",
"G c #7A6B60",
"H c #82655C",
"J c #83695E",
"K c #856C62",
"L c #8A6C62",
"P c #867367",
"I c #8C7266",
"U c #8D7669",
"Y c #917166",
"T c #937B6C",
"R c #997C6D",
"E c #9E8171",
"W c #A58575",
"Q c #A88977",
"! c #AE8E7C",
"~ c #B4937F",
/* pixels */
"55,,,ttassaate,,,5555,55ttttait65555tttat65,5tyyaaaasuasaassssas",
"65,,,5ttaaattt5e55555555ttttttt66566ttityt656tiaaysysyaysyssssss",
"tt5,,5tyttaatttt55555t5tt5ttttt556ttttttttt6ttitusysaaausaassssu",
"attteeyytttaatttt5ttt5t5tt5t56t66tttittttttytiiiyyyyyayauaysasaa",
"aaityiyyattaaatttttt6t66555666t6ttyytte66qttyyyyyyyayaysaaauysss",
"aaayiaaaaaaaaatttttttt665t66665tttiiit66666t6y6yyyyyyysyyyassasy",
"aiaaaayaaiaaatttitttt666t6tt6666tyittt66566e9tyyyyyyyyyyyaysyass",
"iiiaaiayatataatatiattt666tttttttetttt666666t6t6yiyyyyayyyyaysssy",
"ysyssyysityttyyyyyyyi6t6eyittttt6te6665656666yttytaaatttyyyyaaya",
"sssssasytitytyyysysyy666ettyitt666e6666666666tyyaaytttttytyyyaya",
"sysysyayaytteyyyysayye66etiyttt6666666665666tttyyaatattyyyyayyaa",
"yssysssyayte6etyayayy666tttitite6666t6666666etiiaaayaayyyttyyaya",
"sysyssyayyy6e6yyyyuyy666e6yty66q6666e6666566tttiaayasuuyayyyaaaa",
"ysauysasayiyyetyyyyyytyttytyy6y66666et666666tiiiuaaaysaayyyyyyyy",
"syyasyysayaityyyyyyyy6y6ytyytyyet6tteee6666ttyiiuauaysaaayyyayay",
"yayyyysyasyyyytyyyytyy6ytrytyytyttttyeeqttttyiiiaaayssysyyyyyyya",
"ysyyyyayasyyyyyyyyyeyrytytyqttyt6yyettttytyyyayaaaauayayyyyyyyay",
"yyyyyyyyyasayayyyyyyyyyyyyyytiryyytyyyyyyyyyyyayyaayayyyyyyyyaas",
"yyyyyyyyysaasyyyyyyyyytyyyyyyytyyry6eyyyyyyyyyyiuayyyyyyeyyyyyya",
"syyyryyayayyyssyyyyr6tt6ty9ytiyyyyyettiyyyyyyyyiayyyytyyyyyyyyyr",
"yyyryyyyyayaayyyyyytttetyyyyyyyryy6eetyyyyyyyyyyyyytytyyyayyyee5",
"yyyyytyyayayyauyyyytyttt6y6yyyyytyyyyttyyttiyyyyyttyeyyyyyyyy655",
"yyyyyyyyyyyyysyyiyyyttttyyyryyyyyy6ytttteetyiyyyytyeeeyyyyytyte5",
"uyyyeytytyiyyyyyyyytiytt6yyyyyyyyyyeyttt66eytyyyyyyeyyeeeyytytee",
"yyyytyyy6ytyyyyyyyyytyyryyyyyyyyyyyryee6655tttiyyyititt6eetttyty",
"aiyyyyett6t66yyyyyyyyyyyyyyyyyyyqyyyyett5,6ttttiyyyiiitqe66tytyt",
"yyyyitttttet6yyyryyyyyyyqyyyyyyytytyyytt666tttaiyyyitiee66tqtt66",
"yyyytttty66yyeyyyyyyyyyytyyyyyyryyyyytytt6ttttityyititee9ty66665",
"yyyy9y6q66eytyyyyyyyyyyytiyyyyyyyyyyyyy66ettyryyyyyyt66666666555",
"yyyyyey6yyytyyyyyyyyyyyyyyyyyyyyyyryytyyyeyyyyyyyry6q66666665555",
"yyyyty6yqtiiyyyyyyyyyyyiyyyyyyyyyyyyyyyyyyy9ryyyyr66664666655656",
"eeet6ty6ttyteyyyyy9yyyy9yyyyyyyyyyyyyyyyyityyyryyyyr664566666666",
"5556eetrryyyyyyyttttttytryyyyyyyyyyyyyyytyttyytyyy9t666566tty6yy",
"53555eyeyyyyyyyytttttetyyyyyyyyyyyyyy9yyy6yy9yyyyyytq6666y96yyyy",
"5556eyyyyyyyyyyttteeetytyyyyyyyyyyyyi9eyyyeyyyyyyyyyr6969tyyyyyy",
"5666yetryyyyyyyye556eettyyyyryayyyyytyyy6yyyyyyyyyryy6y6yyyyyyyy",
"yytyyyyyyyyyyyyt555teettryyyyyuy9yysyyiyyryeyyyyyyyryryyyyayyyyy",
"yyyyyyyyyyyyyyyrtttttryyyyyyuy4<:1yusuyyyyyyyyyyyyyyyyyyyyayyyyu",
"yayyayuyyyyyyyyytiatyyyyyyuue:++=41199yyyyyyyyryyyyyyyyysysusysy",
"yyauyauauyyyyyyyitiayyyyyyay<%%>gg>@#=9uyyyyyyyyyryyyyyyyssyssys",
"yssyaayssyyuyyyyyiyyyyyyyuar1jGPKVk8>::1eeyyyyyyyrryyuyyssaayayy",
"syyayusyyyuyyuyyyyyayyyyyuyegFTIHSCMf7*&5yeyiyyryryyyyauauusssss",
"yuayayysysyayyyyiyyyyyyyyyr6uDLVBZSCc9%%5t6ttyyyurereyuaayssaaua",
"syyayauyayauaauayaayyyyyyye:1mKSBVVvd>%&5656566rr9<:34ruasssusya",
"aaaaayyaaysyysyasysyuuyyyye<:dNZckfq1*=356656t664:*::<46eyspsaay",
"tttttyyyyyyssyausasayyuyyyye444911:==19yt6tttty1%%7gkf9:*:9ssssa",
"ttt56tyyaauyyyysysssaaaaauyyy4:&<3<:59uuttttiy9<:0MZHSc8>=1rssyy",
"ttttttayaaassyyyysayryyeeyyyuyeeqtyyyyyytttt3;&:4kVSSZZBf014ysay",
"iaityaysyusyyyyyiat;%&%%3yyayttteeeyyyyyiy9<%#+#=0xVNMZSvd>*6yyt",
"taaasysyr964<36eii6;=<%+<ryyatet65etyyyuyi6=*=$O$0VZNMZScg-@4ate",
"yaaaaasu97881==:2qq2pl6%444uayteteeyyuauysq219>O@rvBSKZvd8=%eat5",
"iyayussr8fCHv7=*%<<1kFm0r>*9yyuyttyauree69pq11>O@>8dNSh7---4at55",
"yysssar7wT~QLvw8*=##7DUVx>@%4rruaiyur1%##>ur--*O$:1781=*%=5aate,",
"aaysss4*zW!YHHBzq=X.$AEJBr:%*:eyaiy9>*@@>0dd8*+%:45554654:3aatt,",
"asasss<%nWRBnHHxw*o @SQJBvf1%%<yyyy91800xxf0q$X;435yyyysa5tatte5",
"ayayss4*zRQYHSvfq*+#$A~ELHv7%@<yyir4uVLHSMf0>@+,<<36yysusataattt",
"aaaaas9:*BEWJz07=$#X.qE!Rb0&+&6yay6<8SRLBhw8$O#;;<45ryasayasaayy",
"uuassay<=7jh0=#@#%&#.o8bh-#O&3qyyy9<:dcw>=**OO#&;456ryysssusssss",
"aassssur65<::&=%+&;&##X*%##%<eyyyy62=&%$O#####;,4659yyayssssssss",
"yussassyiiyyity4&;;;2;;;&&;<6eytyy64<&%#&;;&;<2qtqyryysyssssssss",
"taaasssssaaayayy226323<3;;<32qt6q6622<<,,33<36yyityyyaaaaaaasssa",
"eetassssaaayayy65666656662266e6t6622622656566yyyiiiyaassiattasss",
",etasssaaaaaait6555566tite66ee6q666666qt6te66tyyssiyaaaattetssss",
"55aassssaaiaait655556tttqe6qtt6eee6etttttqee6yyyiyiaaaaateerysss"
};
