/* XPM */
static char *r_player_walk_31678373333[] = {
/* columns rows colors chars-per-pixel */
"64 64 140 2 ",
"   c #060506",
".  c #0A040B",
"X  c #0E0B0F",
"o  c #10090F",
"O  c #0F0513",
"+  c #130615",
"@  c #140D14",
"#  c #190E15",
"$  c #141117",
"%  c #1A1117",
"&  c #161218",
"*  c #1E141A",
"=  c #17181A",
"-  c #1D1A1E",
";  c #21161B",
":  c #231A1E",
">  c #281B1F",
",  c #1F1C21",
"<  c #251222",
"1  c #241D22",
"2  c #2A1E22",
"3  c #242324",
"4  c #2C2225",
"5  c #27262A",
"6  c #2B262A",
"7  c #272A2B",
"8  c #2C2B2C",
"9  c #322426",
"0  c #372D27",
"q  c #322629",
"w  c #3B242F",
"e  c #342A2C",
"r  c #3A2D2D",
"t  c #2F302F",
"y  c #2D2E31",
"u  c #312E31",
"i  c #3A2F30",
"p  c #2E3333",
"a  c #333434",
"s  c #3D3233",
"d  c #333837",
"f  c #353738",
"g  c #3A3738",
"h  c #353A3A",
"j  c #3C3D3D",
"k  c #412F2F",
"l  c #422E31",
"z  c #433535",
"x  c #493635",
"c  c #443837",
"v  c #4B3937",
"b  c #47373C",
"n  c #4A3238",
"m  c #453A39",
"M  c #4B3D3B",
"N  c #513D3B",
"B  c #3E403F",
"V  c #405025",
"C  c #46403E",
"Z  c #4E403E",
"A  c #52413E",
"S  c #58433F",
"D  c #515339",
"F  c #5E6635",
"G  c #647F39",
"H  c #403F40",
"J  c #4E3C42",
"K  c #563E40",
"L  c #3E4141",
"P  c #444545",
"I  c #4C4443",
"U  c #474847",
"Y  c #474848",
"T  c #484848",
"R  c #544441",
"E  c #594643",
"W  c #574844",
"Q  c #5C4945",
"!  c #5F4D49",
"~  c #614A46",
"^  c #604148",
"/  c #634E4A",
"(  c #694F4B",
")  c #66514C",
"_  c #6B534E",
"`  c #6D584F",
"'  c #664651",
"]  c #694952",
"[  c #6E5650",
"{  c #6D5951",
"}  c #715651",
"|  c #755A54",
" . c #795D56",
".. c #7C5E58",
"X. c #666344",
"o. c #71694B",
"O. c #6D7A43",
"+. c #747D48",
"@. c #756156",
"#. c #7A6257",
"$. c #7D6259",
"%. c #7C685D",
"&. c #815B5E",
"*. c #82645C",
"=. c #84695E",
"-. c #876262",
";. c #866C61",
":. c #8A6D62",
">. c #906F65",
",. c #8D7365",
"<. c #8F796B",
"1. c #917367",
"2. c #927669",
"3. c #96796B",
"4. c #9A7D6E",
"5. c #9D7F70",
"6. c #8E8D58",
"7. c #949F54",
"8. c #95945B",
"9. c #92A052",
"0. c #9BB455",
"q. c #9C806F",
"w. c #A48574",
"e. c #A58876",
"r. c #A88976",
"t. c #A78B79",
"y. c #AB8C7A",
"u. c #AE907D",
"i. c #B1927E",
"p. c #96CD46",
"a. c #9ACD4A",
"s. c #B59681",
"d. c #B79883",
"f. c #BC9C86",
"g. c #BF9F88",
"h. c #C19F89",
"j. c #C4A48C",
"k. c #C9A78F",
"l. c #C9A88F",
"z. c #D9B79B",
/* pixels */
"h h d p d L L L Y Y Y Y L L d d h d h h d d h h L L L L Y P L j h h h h h L Y P P j h d h L P Y Y Y P T P T T T P T T T T Y T T ",
"j h d p p L L L Y Y Y L L L L h h h h h L h h h L L L L P P L j h d h h j L P Y P j h h h L P Y Y P Y T T T P T P T Y Y T T T T ",
"L L h p p h L P L L L Y L L L L h h h h d d L L h L L L L L L j d h h j H P P P P j L j L L Y P Y P P P P T T T T Y Y Y T T T T ",
"L L L L h L P P L L Y Y L L L L L h L j L L h L L L L L j L L j h h j L L L P P P P P P P P P P P P Y I T P P P T I Y Y P T Y T ",
"Y Y P L L Y P P Y L Y L Y Y L L j L L L L j L j L h h L h L j h h j L P P P L P P L P P P P P P P P P P P P P P T T P T T Y Y Y ",
"Y Y Y Y Y Y Y Y P Y Y Y Y Y L L L j L j L L H B h L j j j L H j j j j L H H H j P L P j m P j P P P P P P P P P P P T T I Y T Y ",
"Y Y Y Y Y Y Y Y Y Y Y Y Y Y L L j P P j L L j j L h L j L L j h j j m L L L j H m L j P L P P P L P P P P P P P P Y P T P Y Y Y ",
"Y Y Y Y Y Y Y Y P Y Y Y Y L Y L P L P P L P L P L h h L j j L j j j L L L m j H P j j j L L j L P H P H P P L P P P P Y T T P Y ",
"T P T P P Y Y Y Y Y P P P P P P C L P j P C j j j j B j j j j j j j j j j j m L j j m L j j h j j j H P L L L L P P P P P P Y Y ",
"T Y Y Y T T P Y Y Y P P L L L L P P L P L j j j j j j h j j j j j j C j j j j j j j L j h d a h h h j j j j P P P P P P Y Y P Y ",
"P T P Y T I T T L y y M I I P g f g g a p g C C a 8 u e e 8 y a a a a a s a a g j f 5 3 s C g 8 y y u a f f j H P P L P Y I T Y ",
"I T Y Y Y Y I H 8 @ q } %.@.[ K r 4 4 3 4 R =.{ s 4 9 6 e q q q q q q e q e q 6 u y & * Q =.~ 9 4 q 9 q 9 6 8 j H H L P P P T P ",
"Y Y P Y Y U P 8 * r =.s.y.w.3...R 4 q M ~ 3.g.4._ c M R Q E ~ E b z c c c M z 2 1 z M ) e.i.:.E z R R c c r 3 8 h j j P P Y Y Y ",
"P Y Y P T T a * M ;.w.s.3.:.:.} z e ) t.d.s.e.:.} Q ~  .*...*.| Q A R c m M I e * ) u.s.i.4.=.| M / | Q Z m r 2 y d L P P P Y P ",
"P P P P T T 6 ; ,.<.{ .... .} z X v y.k.j.4.$.| ~ { ;.>.>.:.:.$.} [ / A I M R i # #.z.l.1.| | _ M / $.[ Z M M r 1 8 L P P Y Y Y ",
"T T P Y T P 6 : y.%.i v | *.[ q   @.g.3.;.$. .[ m ! -.*.*...*.*.*.*. .` ( R c e @ ` j.u.%.} } E / | $.| A b M b * 3 L P P P P P ",
"P I Y P T P 6 ; w.,.z s E ` M 4 c ,.1.| | #._ r ; 9 z x l x ~ *.*.*.| ) ! Z c 0 @ E 5.3.$./ E / $.*.*.| R z M z * 5 P P P P Y P ",
"Y Y P Y T P 6 * q.4./ v M Z : & ,.q. . .&.( k 4 > 9 > % # % q ~ *.:._ M Z R W x # l  ... .E c Q } $.*. .R m Z s % 6 Y P P P Y Y ",
"P P P P T P 5 ; r.i.*.) M s * 0 u.w.| [ _ x k S / ~ M i e q 2 q ( $.~ Z Q ` &.S @ x ;.$._ M M A M Q | } R c Z z ; 6 P P P P P P ",
"P Y P P P P 6 2 4.f.3.@.M 1 r ;.d.4._ N 0 w ^ *.-.*...] ' E s 4 q v ~ `  .*.=.( ; S t.2.~ E ) Q c M Q R M c M z ; 8 P I P P P P ",
"P P P P P P f 6 S w.u.*.z % x j.j.%.Q z ; n &.*.......&.&.~ b i # 1 ~ *.*...*.} v N ,.e.| ( .. .~ ! R c M J z 9 5 h P P L L j h ",
"P P P P P P P u % *.f.=.c % v j.j._ E S 4 F 8.*.| | =.9.7.X.b z # 1 R }  . . .#. .9 A s.y.*. .*.*.| Q m Z I e * a m P P L j h h ",
"P P P P P P P f $ Q 3.| v * x f.j.{ Q Q 0 G 0.1.-.-.6.a.p.O.J i * 9 M W [ #. .*.=.0 r ,.e.3.,.*.*.{ W M c z 9 - j P P P L L j h ",
"P P P P P H P j e z k s s * v f.j.,.( k % V +.*.-...o.G G D b z ; 6 c M _ .. . ...( A r v ;.2.Q R M M c q 1 4 e m j L P P L L L ",
"P P P P P m L H j 8 3 4 1 @ N i.w.=.Q > . # 2 l l l 2 * * < q s ; 4 c I _ .. . . .*.~ * * M M : * 2 4 q 4 3 8 f L L L P P P P j ",
"I T P P P j L P j f p y 1 X N u.:. .N * ; + + 2 + # 9 < O ; b z ; 2 m Z [ .. .| ..;.[ r q q : * ; % * 1 8 a f j H H L P P j H P ",
"P P P P P P H L j j j f 7 $ A u.=.| x : N v k S 9 l } ^ 9 z ) M # 2 M Q  ... .$.$.| ~ R M i e z z : = 7 p f d j j P j L L L j j ",
"P P P H P j P H j j h a 8 % A u.>.| N 9 E } | %._ | 1.$.A R ! s % 9 E [ |  . .| | ~ ! / I c M I A 9 = t p d g d j j m L L j h h ",
"P P P P H H j H h g f d t $ A t. .( _ v z N ) [ _ [ ` ) R I z 2 2 i R Q ~ [ _ E R E / | ) R m Z M 4 : p p d d g j j j L j j h h ",
"P P P P P P P j j h d d 7 $ S e.Q z { } v q 4 9 q 6 4 9 q 9 1 2 s c g c R ` } R R _  .*.| W m M M 2 * p a f d j j j j j h h h h ",
"P P P P m L L j f f a p 7 $ R t.) z ~ ..} n ; # + % # & % % : s R R M N /  .| [ ` | ..$.$.Q z M M 2 - p a a g f j j j h h h h h ",
"H P H H L j j j g f d p y $ A y.%.Q E Q  .} N e e e e e e e i M [ } ` }  ... ...#.$.| ..| E m M M 2 - a j h j j j j L L j B j L ",
"h h h j j j j j j h a a 8 & N i.:.} ~ c R ~ ) _ [ _ _ _ ) _ ) _ ..$.$.$.$. . . . . .|  . .E c M M 2 : a g f f h L P H L P P P P ",
"h h h h j j j j h j h h 8 % S j.r.*.` N g g ) -.:.;.*.*.%.*.=.*.*.$.$.*.*.$... . .|  ...$.Q g Z I 9 1 y 3 = * , 3 6 6 u j T P P ",
"h h h h L L P H j j j h p 3 b 4.s.:.[ / S z M [ [ [ } ..$.| _ [ [ ..| [ ( ` | .. . .....| R v Z z 4 * 3 e e r e 1 * : 2 u L P I ",
"j h j j P j a u y a u a p p 3 v s.e.*.*.[ Z M W R M ~  . .~ R Z M ~ _ R M M Q | $.$.$.} E M Z z q 1 , i %.4.4.;.v e i r 4 u P Y ",
"L L P P j 8 * = * : 1 : 3 y * 1 4.j.t.4._ c Z ~ _ ~ _  .| _ ~ Q b c E ~ / M c Q | *.| Q M M i 4 6 , r =.s.j.i.1.{ Z c M i 4 a P ",
"P P Y j 6 s E / ~ g 1 2 4 4 , , Q y.d.:.R s W  .*... ... . . .} Q W /  .*.[ R M Q [ Q I M i ; ; 8 , M u.j.y.,.*. .[ E M b > 1 P ",
"P Y L u s %.i.s.w.{ z s z e 1 1 6 [ | s a z Q $...{ | $. . .$. .|  .*.*. .{ E c m R M e e 9 @ # p 3 v s.i.;.} }  .$./ Z z > 1 P ",
"P P a q $.f.j.s.3.$./ Z c c e : 6 8 : ; e z Q [ R z E } $. . . .$. .| ` R M b c z s 4 % ; e 9 1 8 * v w.,.} | | | *.[ M z 1 1 P ",
"P P y 9 3.k.y.:. . .| / N M e ; 8 - q ~ s x / A g s z E } $.| #. ./ R M g s z c c 4 ; 4 u z M r 1 o M e.:._ } |  .*._ Z z > 1 P ",
"L P 6 9 3.y.;.| } | .. ._ W q * y - N 4.) ~ } Q R E E E ~ { .. . ./ R E E E Q Q ! M N E M c I z :   N i.w...} | ..} R M c 2 1 P ",
"P P y 9 :.3.} } |  .$.$.[ Q q ; 8 , N t.:.}  .| |  . ._ Z ~ *.*.$. .| | |  . .$.$.` _ | ! M M z ; o z <.s.r.3.2. .W M M i 2 u P ",
"Y Y 5 q 3.5.} } | $.$.| Q I q * 8 , v t.1. .| .... .$.} R Q } { ` | *.*.*.*.*.| } ~ ) ....E M z ; : e N :.5.4.:.R r s r 6 u H T ",
"Y P y q 1.s.3.$. .$.*.| R M 9 : 8 : v w.1. .|  . . . . .` E A A A _ |  . ..._ R R ~ { $. .E M i * 3 f a z n v z 2 ; 1 3 e h P Y ",
"Y Y j r E w.h.5.{ Q ) ~ M r 4 8 f - v e.1. . . . .|  .....` Q Q Q E Q E Q Q Z c R } $.| ~ M M i % 3 j g y 6 e y e u u a j L L L ",
"P T U j e / :.| l 4 e e q 4 6 j j & N y.$.E _ |  . .} / ~ | .. .| ~ R R R R R Q  .| } | / W I s 2 3 a j j j j j H H L P L L j j ",
"P P U P B e 4 4 * * ; * : e j j f 1 v <.[ M E ..*. ._ I M ~ | *.*...| | } | | | | Q E }  .| _ R b 2 2 j H H P P P Y Y L L L L L ",
"P P Y T P j a a g g g a f j H H g a 6 M %./ A | $.| } _ / Q / #.*.*.$.*.*.*.} Q R v E  .*.*.#.} R > 1 j P L P P P P P P L h L P ",
"P P Y I T P P P P H P H H H H H j j 1 9 ,.@.z A Q _  .$...[ / / ~ / ) ( ) ) Q m m Q | *.=.| ) ) R > 1 B P L P P P P P P L L L L ",
"P Y Y Y T P P P P P H H L H H j j j 3 9 3.q.W z N _  .%.*.( z e e e e e r e 0 9 e c S E S z 0 e e 2 8 m P P P P P P I U L L L h ",
"P P P Y T P T T P P P P P P L m j j 6 9 %.i.%.c E |  . ._ k : : - ; - ; ; - : : : 2 2 > > ; - ; : 8 h L P P P P P P Y P Y L h h ",
"Y Y T P T P P P P P P P L L j j j j a 7 k 1.q.! } :.=.} k 4 t 8 e y 8 u t 0 t t 8 8 7 8 t 7 6 8 8 f j P L P P P Y Y Y Y Y L L d ",
"Y P T P T T Y P P P P P P H j j a a f 5 - @.i.3.5.r.4._ : 3 d g a a f f g a a p t t 8 a t t t a g j j L P P P U Y Y Y Y Y L L d ",
"Y T P Y I Y Y Y P U P P P m j a 8 8 t 7 1 A #.o.|  ._ n 2 7 a a t t a a t t t t 5 7 8 7 7 8 t d f f g m B P P P Y Y Y Y L L h h ",
"P T T T Y Y P Y P P P P P j g g t 8 0 8 8 3 ; ; * * * * 5 8 t 8 8 8 8 5 3 7 6 7 6 8 5 : 3 3 t t t a f j C P P P Y Y Y Y Y L L L ",
"T T T P Y Y T P T P I Y P H j j p 8 8 5 t 5 = = = = , , 6 8 t 5 5 8 7 3 3 3 3 3 t t 3 - - 3 8 t e a f j P P P Y Y P Y T P Y P P ",
"P P T T Y I T T Y T P T P j j f t e 8 7 8 7 3 3 3 7 t t t 7 8 8 7 3 3 3 3 - - 3 3 3 3 , 3 3 3 7 p a g j m P P T Y Y T T T T T T ",
"T T T Y Y Y P T Y T U P P m j g t t e 7 8 8 3 6 7 t 0 t t t t t 8 3 6 6 3 3 3 - 1 5 7 7 3 7 0 t j j j j L P Y P Y Y Y T T T T T ",
"T P T T Y Y T Y P T P T P P P j j f a t a a t a 8 t t a a a a a 8 t t 7 7 0 3 7 7 t a 8 t d B B L C P L P P T T Y Y Y T T T T T ",
"P P Y T T T T T T T T P U P P L B j j g g a f a p a a a f g h a d t t 0 B t t p a a a a j j P P P P P P P Y Y P Y Y Y Y T T T T ",
"h L P T T T T T P P T Y Y P P j h B j h j g j j j a a j j j C j g g d d B t B B j j j j j j P P P P P P Y Y Y T P P L P Y T T T ",
"h j P Y T T T T T T Y T Y Y L j h h h h B B L P C j C B j C B B B B B g B B B B j P L j j H P P T T T P Y Y Y Y P L j L T T T T ",
"d h L Y T T T T Y Y Y T Y Y L h h h h h B B L P C B B C B C j B B C B B B B C B B j P L j L P Y P P T T Y Y T Y L L j L Y T T T "
};
