/* XPM */
static char *r_player_walk_21678373333[] = {
/* columns rows colors chars-per-pixel */
"64 64 138 2 ",
"   c #070507",
".  c #07040A",
"X  c #0A050A",
"o  c #0D080E",
"O  c #11090F",
"+  c #0D0513",
"@  c #130716",
"#  c #140C13",
"$  c #190E15",
"%  c #1C0C1B",
"&  c #161117",
"*  c #1B1117",
"=  c #161319",
"-  c #1D141A",
";  c #1E1A1D",
":  c #21161B",
">  c #241A1E",
",  c #281B1E",
"<  c #1F201F",
"1  c #24221B",
"2  c #2A201E",
"3  c #1E1F23",
"4  c #281622",
"5  c #241D22",
"6  c #2A1D21",
"7  c #252325",
"8  c #2B2225",
"9  c #262529",
"0  c #2B2629",
"q  c #272A2B",
"w  c #2C2C2C",
"e  c #322426",
"r  c #362B26",
"t  c #332629",
"y  c #392729",
"u  c #342A2C",
"i  c #3A2C2D",
"p  c #353527",
"a  c #363628",
"s  c #2E2E31",
"d  c #312F31",
"f  c #3B2F30",
"g  c #2E3434",
"h  c #343434",
"j  c #3D3233",
"k  c #373837",
"l  c #363738",
"z  c #383638",
"x  c #353A3A",
"c  c #3B3C3C",
"v  c #40302F",
"b  c #412535",
"n  c #412F30",
"m  c #433535",
"M  c #493635",
"N  c #443937",
"B  c #4A3837",
"V  c #463939",
"C  c #4B3D3B",
"Z  c #513E3C",
"A  c #3D403F",
"S  c #4E403E",
"D  c #52413E",
"F  c #58433F",
"G  c #585039",
"H  c #4E6828",
"J  c #5D663D",
"K  c #617C30",
"L  c #3E3F40",
"P  c #403F40",
"I  c #4B3A40",
"U  c #3E4141",
"Y  c #444545",
"T  c #4A4545",
"R  c #474847",
"E  c #474848",
"W  c #484848",
"Q  c #544441",
"!  c #5A4543",
"~  c #574945",
"^  c #5C4A46",
"/  c #5D4748",
"(  c #5C4D48",
")  c #624C47",
"_  c #60454D",
"`  c #634E49",
"'  c #625446",
"]  c #66514C",
"[  c #6B534E",
"{  c #6E584F",
"}  c #70554F",
"|  c #784D5E",
" . c #6E5650",
".. c #6E5952",
"X. c #725751",
"o. c #745A54",
"O. c #7A5E56",
"+. c #7C5F58",
"@. c #766056",
"#. c #7B6457",
"$. c #776058",
"%. c #7D6159",
"&. c #7E685E",
"*. c #805D5E",
"=. c #82645C",
"-. c #85695F",
";. c #8A7F57",
":. c #8C7F59",
">. c #866461",
",. c #866B60",
"<. c #8A6C62",
"1. c #8D7365",
"2. c #917367",
"3. c #917F60",
"4. c #937669",
"5. c #957A6B",
"6. c #9A7C6E",
"7. c #9D7F70",
"8. c #7BA43E",
"9. c #86974D",
"0. c #898456",
"q. c #9AAC57",
"w. c #9C806F",
"e. c #A28473",
"r. c #A68977",
"t. c #A88977",
"y. c #A78C79",
"u. c #AB8C79",
"i. c #AF907D",
"p. c #B2927E",
"a. c #B49581",
"s. c #B79882",
"d. c #BB9B85",
"f. c #BF9F88",
"g. c #C5A48C",
"h. c #C9A88F",
"j. c #CBA990",
"k. c #D9B79B",
/* pixels */
"x x g g x U U U E W E E U U g x x x x x x x g U U U U U R Y U c x x x x U U Y Y U U x g x U Y E R R R R R Y W W W Y W W W W W W ",
"c x x g g x U U E E E U U U x L x g x x x x x x U U U U Y Y U c x g g x U U Y E Y c x x U U Y E R R E Y E E E Y W W W W W W E W ",
"U U x g g U U Y U U U E U U U U x x x x U x U U L L U U U U Y x x g x L U U Y Y Y U L U U U E E W Y Y Y T E E Y Y T E W W W W W ",
"U U U U x U U Y U U E E U U U U U x U U L x U x x U U U c U U c x x U U Y Y Y Y Y Y U Y U Y Y Y Y Y Y E Y Y E R W W E Y E W W W ",
"E E Y U Y Y R Y E U E E E E U U L U c x x A U x U A L x x U U c x c c L U Y Y c U Y Y Y Y Y Y Y Y Y Y Y Y R Y R W W Y W E W W W ",
"E E E E E E R E Y E Y E E E U U U U U U U U U U U x U U U U U x x c Y Y Y U c Y V Y Y U U Y U Y P Y Y Y Y Y Y Y Y Y W W Y W W E ",
"E E E E E E E E E E E E E U U U U Y Y Y Y U A x U U U U U U U U c U Y U Y U Y c U U c Y U Y U U Y Y P Y Y Y P Y Y E Y W W W E Y ",
"E E E E E E E E E E E E E E E E Y R U L x U S c g g g x x x x x z x c c c V c c U U V c Y c S Y P Y Y Y Y Y Y Y Y Y Y W Y Y W W ",
"W W W Y W Y R W E E W R Y P Y Y Y Y h q 9 m ^ Q 0 5 6 5 5 5 5 6 8 t 8 8 e 8 8 u x V L L c c c x c A U Y P L P Y Y Y Y Y Y E E R ",
"T Y W E W R R W E U z d s s d d h s u t m #.p.4.! f f N B B B m i i f m m m i 8 w x x h q 9 q q w w s s d x Y Y Y Y Y Y Y E Y R ",
"E E Y E Y W W W U 9 ; 0 i d d e 5 7 D -.5.p.d.6.o.! ~ o.O.o.O.X.Q S C C C T C i 0 w 7 - 8 t 8 5 5 5 5 5 8 s c Y Y Y Y Y Y Y E E ",
"E Y E E T W W P s # e } #.o.X.M O i 5.h.g.t.<.+.] ] O.,.<.<.-.O.[ ] ^ C V B T C i 0 & ; ^ &.! t 8 t t t t 8 w x L L L Y Y Y E Y ",
"Y W Y W E R P w ; i ,.s.p.e.7.I X ' f.u.7.-.O.} I ` ,.<.=.-.=.=.#.+.X.) / Z V V y N D ] t.s.<.^ N Q Q C V f 5 q x x c Y Y Y W W ",
"Y W W Y W R h : B ,.r.p.7.2.O.m e -.e.=.O.=.X.Z 0 m ! ) ! ! } =.=.%.O.[ ` T N t * [ p.p.p.6.,.o.C ` o.~ C V f 8 s l L Y Y E Y E ",
"Y E Y Y W R 0 : 1.5.o.$.%.#.i # o.6.*.O.O.X.Z , : 4 6 > : > n X.,.,.X.Q D Z T i @ @.k.g.2.o.o.[ C ] %. .Q C C i 5 q L Y Y E E W ",
"Y T Y W E R q > u.&.i C o.X., - t.t.o.O.O.Z e m Z B y , ; > , n O.,.` N Q ` X.Z $ ] g.p.%.X.{ ! ` o.%.o.Q V I N : 7 Y Y Y Y Y Y ",
"E Y E Y W Y 0 : r.1.m j Q m 8 ] p.e. .! B y Z +.-.=.} I _ I d 4 m ) ` ) X.=.,.[ : D 7.5.%.` ! ) %.=.=.o.Q m S m * 0 Y Y Y Y Y R ",
"Y E Y E E Y 0 % 6.7.` C j * m a.f.<.) m > b | >.-.-.*.*.*._ V t * 8 ^ %.=.*.<.[ : i o.+.o.Q V ) X.%.=.o.Q V C j * 0 R Y Y R Y R ",
"Y Y T Y R R 0 : t.p.=.] m # C j.g...Q C , G 3.%.X.o.=.0.:.[ C m # : ! #.*.o.=.) $ n ,.%.[ Q C D C ^ O. .I B T m - 0 R R Y Y Y R ",
"Y W Y Y Y E q 6 6.d.5.O.V $ M f.g.[ ^ / r K q.-.O.=.0.q.q.K C m * 8 D ) o.#.=.) : ! r.4.) Q ] ^ V C ^ Q C B C m : s R Y Y Y Y P ",
"Y Y Y Y Y Y h 0 ! e.u.=.B * M f.g.=.) Z 2 H 9.-.*.=.;.8.8.J I n : e V C } +.=.} B Z 1.t.o.` O.O.` ^ Q V B T m e 8 z Y Y L U L x ",
"Y Y Y Y Y Y Y d & =.f.<.B & B p.i.<.) e # 1 S Z ) Z m p a t f j : 8 V S [ #.O.+.o.e D s.u.=.+.=.=.X.~ V C Q i * h L Y Y U c x x ",
"Y Y Y Y Y Y Y l & ! 5.o.V - B p.4.%.Z : @ o # : * : 4 % + % m j : 8 V C [ O.o.=.=.i i 2.r.6.<.&.=...~ S V m e ; x R Y Y U L c x ",
"Y T Y Y Y P Y L p f M f j : D u.<.o.M : m y , v $ 6 ! C : y ) V * 8 V Q } =.#.#.=.[ B i m -.4.^ Q C C m t 5 6 d U V L Y Y U U U ",
"Y Y Y Y Y V U U c u 7 7 5 # D p.2.O.M 4 ) X.[ %.! [ 2.+.B C  .V $ 6 Q ..%.#.+.+.=.=.) * & B C , - 6 e 8 8 7 u c U L Y Y Y Y c Y ",
"Y Y Y Y Y c U Y c x d s 5 o D u.=.X.) i B [ +.%.+.#.>.O.( ~ S 0 > i Q [ [ X...) ( o. .C m u , * : * * 7 w g h c U c c U c Y c Y ",
"T Y Y Y Y Y L U c c c l q & F t.` Z o.) n i m M B V m m m j 8 5 u c B C Q {  .I C ] +.%.+.C t m m , = q g x x z c L U Y U U c c ",
"Y Y P Y Y c Y U c c x h s & F t.( j [ +.) y ; & - - = - : - , u C C m V ^ o.o.` `  .O.=.%.^ V T Q 8 - g g h z k c S c U U c c x ",
"Y Y Y Y P P U U x x k h g & D t.o.T ^ [ O.) i 5 5 5 5 5 4 6 t V ` ` ) ` X.O.O.O.O.O.O.+.O.^ N C C 8 ; g g h x x c U c U c x x x ",
"Y Y Y Y Y Y V Y c x x g q & D i.-.[ ^ V ) { ) Q ! Q ! Q Q Q Q ` o.O.O.O.+.+.O.O.O.O.o.O.O.! c C C 6 ; s h k x x c c c U x x x x ",
"Y Y Y Y L Y c c z z h h q = ~ g.7.*.] B m V ] =.-.=.=.#.#.=.=.%.=.=.=.=.=.=.+.O.o.O.O.O.%.^ m C Q 8 - g k h k k x c c x x x x c ",
"P Y L L c P c c x z h g q = S s.a.>.} ) V z ! #.=.O.+.%.%.+.O.O.O.=.O.o.o.O.O.O.O.o.O.%.O.^ V Q V 6 > h h z x z c c c c c c L U ",
"x x x x c c A A c c x h g q 8 ] a.5.o.o.[ C C Q Q Q ) O.O.` Q D !  . .! Q Q ] #.%.O.%.O.` S S V u 8 w h x c c c A Y c Y P P Y Y ",
"x l x x A A A A c c x x h g = , u.d.5.4.X.T B Q ! Q ` O.O.` Q S m C ^ ! Q m C ] =.=.O.` S C B u 8 w z x x c c V A Y Y Y Y Y Y Y ",
"x g x x w q q q w s q w h x 3 : +.f.d.5.^ m Q o.o.o.o.O.O.X.X.[ T B ^ X.o.( V I [ o.] Q C m 8 - 0 k c h 7 5 9 0 u h d l P R Y Y ",
"U U x s 0 6 8 8 ; ; , 7 w k h w j ,.5.( N j ! =.=.+.#.%.O.O.+.O.} [ o.=.=.o.^ V S ^ I j j t $ $ g A h 0 7 8 7 7 ; ; 5 8 h Y R R ",
"U U g 0 ^ &.=.o.f 8 u t 8 w x h w m j 5 t m ~ +.` Q ` o.O.O.O.O.O.+.+.o.` ! D m m N d , , e , & w c q 8 ) &.-.o.j 8 t t 0 z T T ",
"U l d [ t.f.p.4.] B N m t 8 w x h - 6 m i m ` ~ N f V ` O.+.O.O.+. .^ Q B z j m m 0 5 , 8 f m e 7 7 u [ t.f.p.4.] V N B t 0 z R ",
"U 5 M r.h.d.7.,.O.] I V m 6 5 x x - M -.Q D  .Q C C C ! ] o.O.+.o.` D D C C T Q Q n n B m V T m > o B u.h.d.w.-.O.] S V m 4 0 Y ",
"U 5 M s.d.2.o.X.O.o.] Q V 4 5 z c - D u.,.X.o. . .X.o.] Q ] %.%.+.o.{ { X.X.o.O.O.[ [ ..Q V S V :   C s.d.2.o.X.O.O.` S V , 5 Y ",
"U 5 M r.6.o.X.o.o.+.+. .C 5 5 l c ; B y.4.O.O.O.%.%.=.X.C ) %.+.O.+.%.+.%.=.%.=.=.[ ] O.X.Q S j :   B u.6.O.X.X.o.=.[ C m 4 7 R ",
"Y 3 M 7.>.[ X.o.O.#.o.` C > 5 c x - B r.2.o.O.O.O.O.O.o.` Q ^ ! ^ X.=.=.=.=.O.` / ! [ %.%.) S j :   C e.-.} X.o.O.=.{ Z m 5 5 Y ",
"U 3 B u.6.o.X.+.%.=. .Q B 6 5 l q . B r.2.o.o.O.O.O.O.O.o.` Q S Q ^ [ ` [ [ / V C ] o.#.X.Q C m > X Z i.6.O.} o.O.o.^ C V , 5 R ",
"U 0 M 7.s.7.=.O.o.#.[ I f 6 5 s t 2 ! w.<.o.o.o.X.O.O.+.O.X.[ [ [ ^ D Q ! T j N ` +.%.X.Q B T m : X M 7.a.6.,.,.%.` T C m 6 0 Y ",
"R c h ^ e.p.-.! Z ! Q m t 0 7 8 X.1.-.=.O.o.O.X.! ` O.O.O.O.O.%.%.X.` [ ` C j C X.=.=.X.Q m C m : ; u ( e.i.t.6.] m N m e 0 c R ",
"R T x j D ` Z , 5 6 6 6 w h 7 , w.s.<.X.X.o.%.X.C C ) ] O.=.=.=.=.%.=.O.` ^ ^ ` o.=.=.o.Q N j e 8 h h h D ) ) F t 4 6 6 0 x L U ",
"Y E Y c u t 8 8 5 9 5 0 z P 3 , u.h.e.5.6.<.-.=.] T S Q [ X.o.o.X.o.o.X. .+.%.+.O.{ ` ^ C C u : u A x h t 0 0 0 7 5 7 w x U L L ",
"Y Y R Y Y c A c V c c c c Y 8 8 1.u.6.e.e.-.} X.{ D j m V V V V V N N C ) X.+.=.%.` C C C C 0 & g c c c z z c c L Y L U U U L U ",
"Y Y E E W Y E Y Y Y Y P P U x h i y u u r 6 , 6 6 , : * - * * & * * & : , 6 B +.=.X.[ ` Q C t & g x c V P P Y Y Y R E Y L x U Y ",
"Y Y R E W Y Y Y Y Y Y P Y V Y c 0 7 8 8 7 8 7 8 8 0 0 8 7 8 8 8 0 8 0 8 0 9 6 B o.=.=.o.! V y * g x c U Y P Y Y R Y Y Y L L U U ",
"Y Y R Y W Y Y Y Y Y P Y L Y L c c k k k l z z k z z h h h h h h h x z z l h 5 : [ 2.=.{ Q T u * h x c U Y Y Y Y Y Y T Y U U L x ",
"Y Y E W W Y E Y Y Y Y P Y U U V N c c z x x k k z x k x z z x h z x z z c x 9 5 Z X.! m i m 8 5 h x c U P Y Y Y Y R R R Y U L x ",
"E E W Y W Y E Y Y Y Y Y P P L c c x k z k k h k h z h z h z z z k z h z k k h q y e 6 , > , 5 w h x c P Y Y Y Y E E W E E U U g ",
"Y E W Y W W T Y Y Y Y Y Y L V x h h h h h h h h h h h h h z h h h h h h k h h p 8 > 5 7 q 7 0 h c h c P P Y Y Y E E W E E U U x ",
"W E Y E T Y E W Y R Y Y R c c h w w w h h p w h a h h h h a h h h d a h a w w w 9 q w q w w h k k h z L Y Y R R E E E E U U U g ",
"W T E E E E E Y Y Y Y Y Y L c h h w w w s s w 0 q w w w w w s w 0 w w w 0 w q q q w 0 ; 1 7 w h h p l L c Y Y Y E E E E U U U U ",
"Y E E E Y W W W T R E Y Y P c z h w w q w u q 7 7 9 0 7 0 w s q 0 w 0 1 7 7 7 9 w w 7 ; ; 7 0 w u h z c P Y Y Y E E W W E E E Y ",
"W E Y T W W Y Y R R T Y Y c c z w w w q q 7 3 < 7 9 w w q w w q 9 9 q 1 1 < < 1 7 7 7 7 < 7 q q h h z c P Y W R E E W W E E E W ",
"W Y W W W W W W R W Y Y R L c c h u w 0 w w 9 9 q q s d h w w p q q q q 7 1 < < 3 q w q 9 w s a x c c P P Y Y E Y E E W W W W W ",
"Y W W W W W W Y Y W W W R R U V x h h h k a h p w p s p h z h h w w w w w w 9 q q p g u s a x A S Y P P Y Y R R E E W W W W W W ",
"Y Y E E W W W W Y E R R Y Y Y L c c c x x h h h h h a h z x c l h h u h h h w h h h h h x c Y L U Y Y Y R R R R E E E E E W W W ",
"c L Y E W W W W W W Y E E Y Y c c c c c c c c c x x z z c c N c k x h x c c c c c x c c c c Y Y Y Y R Y E E E E Y Y U U E E W W ",
"g L U E W W W W W W E W E Y U c x x x x c L U Y Y L P L c Y U V V c c c A U A A c Y U c P Y Y Y E E E R E E E E Y U L U W W W W ",
"x x Y E W W W W E E E E E E Y x x x x c c U Y U V P P P U U U A U U c c U V A Y L c Y U c L Y R R Y R R E W W E U U L U E W W W "
};
