/* XPM */
static char *r_player_d_21678373335[] = {
/* columns rows colors chars-per-pixel */
"64 64 117 2 ",
"   c #0C030C",
".  c #190F16",
"X  c #1D091C",
"o  c #151116",
"O  c #1B1117",
"+  c #161118",
"@  c #1D151A",
"#  c #1E1A1D",
"$  c #200F1D",
"%  c #21161B",
"&  c #241A1E",
"*  c #2D2C1F",
"=  c #1F1E22",
"-  c #251D21",
";  c #2A1E22",
":  c #252325",
">  c #2C2225",
",  c #272629",
"<  c #2C2629",
"1  c #272828",
"2  c #2D2C2C",
"3  c #322426",
"4  c #332629",
"5  c #39262B",
"6  c #342B2C",
"7  c #3A2D2E",
"8  c #2F302F",
"9  c #34302F",
"0  c #2E2E30",
"q  c #322E31",
"w  c #3B2E30",
"e  c #2E3434",
"r  c #343434",
"t  c #3C3333",
"y  c #3D3B30",
"u  c #343738",
"i  c #3A3638",
"p  c #343A3A",
"a  c #3C3C3C",
"s  c #402F2F",
"d  c #41302F",
"f  c #412F30",
"g  c #433535",
"h  c #493736",
"j  c #463837",
"k  c #4A3937",
"l  c #443B3A",
"z  c #4B3D3B",
"x  c #513E3C",
"c  c #3E403F",
"v  c #42442B",
"b  c #4D562C",
"n  c #40403F",
"m  c #4E403E",
"M  c #52413E",
"N  c #59423F",
"B  c #595E35",
"V  c #57513A",
"C  c #403F40",
"Z  c #553E41",
"A  c #3E4141",
"S  c #454545",
"D  c #494646",
"F  c #474847",
"G  c #484847",
"H  c #474848",
"J  c #484848",
"K  c #544441",
"L  c #594643",
"P  c #544943",
"I  c #5C4946",
"U  c #5D4D49",
"Y  c #5E524C",
"T  c #614B46",
"R  c #634D49",
"E  c #684F4A",
"W  c #66514B",
"Q  c #6B534E",
"!  c #6A5A4D",
"~  c #6E5650",
"^  c #645A54",
"/  c #6D5A52",
"(  c #705751",
")  c #745A54",
"_  c #795E56",
"`  c #785759",
"'  c #775F58",
"]  c #7B5E58",
"[  c #756B4F",
"{  c #7B6456",
"}  c #7D6159",
"|  c #7F695E",
" . c #7E6E62",
".. c #81645C",
"X. c #83695D",
"o. c #827356",
"O. c #877E57",
"+. c #86715B",
"@. c #866C61",
"#. c #8A6D62",
"$. c #817266",
"%. c #8D7265",
"&. c #927367",
"*. c #947769",
"=. c #95796B",
"-. c #9A7D6E",
";. c #9C7F70",
":. c #9E8171",
">. c #A48675",
",. c #A68977",
"<. c #AB8C7A",
"1. c #B2937F",
"2. c #B79984",
"3. c #B99A84",
"4. c #BF9F89",
"5. c #C2A28B",
"6. c #C8A78F",
/* pixels */
"p p u e p A A A H H H H A A p e p u u e p p e a n G G G S S S p p p p p c A H S S p p p p A S H H H H S J S J J H J J J H J J J ",
"a p p e e p A A A H H H A A c A p p p c p e a P  .$.^ D A S S p u p p p p S S H S a p p p A S S H S J J J S G S S J J J J J J S ",
"A A p e e A A S A A A H A A A A p a A a c p D | >.>.X.P t l S a u u p p a S S S A A A c A A S H H S S H J H H H J J J J J J J J ",
"A A A A A A A A H A A J A A A A S S S A c S ) %.&.+...R g t S a u p c A S A S S S S S S H F H H S S S S S J S S H S J H J J J J ",
"H H S A A S S S H A S S H H A H S G G S S Y @.*.] _ ] Q z g l a p a A l A S S A S S l S n m n v c C S D D D S S S J J S H J J J ",
"H H H S S S S S H S H S A H H A S G G S S Y | #.) ) ) I t w a c p a A S S a A l a g t < < * c c g C D D D D S S S S J J H S J J ",
"H H H S S S A S S S H H H H H A S G S S S S U Q T E R l 6 q a a a c S a A A S n t h d % . * b B I Z x k j S S S H S S J J J H S ",
"H H H S S S S S H S H H A H H H G S S S S l l j g k g 4 6 a l a a a a n c A l a h T N ; O v [ O.{ Q T x 5 t S S S S S H S S J J ",
"S S S S S S A S S S S S S S S S S S S S S D C l t a t 6 i l C c A S S a a c i t m / Q 4 % V O.+..._ ] L 3 r S S S S S S S H H H ",
"S S S S S S S S S S S S S S S S S S S S S D G C S l a i l S S S S J S n c a r < z ) Q 5 % N ....] } ..E 3 9 m S S S S H S H D H ",
"S G S S S a S S S S S S S S S S S S S S S S S S S S S C S S S c l i r 6 r r < & t ~ E s & x ` _ ) ] _ T 3 7 S S A S A S S S S H ",
"S S S S S S S S S A S S S H S S S S S S S S S S S n S S H S i 6 < > & - > 7 4 @ 4 T ) N 5 k ~ } } ] ` U 4 4 a c c A A S S S H H ",
"J S S S A S S S a S S S S S S S S S S S S S S S S S S S G i ; % 5 w 7 t g z t & - N | ) f 7 R { X..._ L 7 4 i a p a A S S S H H ",
"S S S S S a a S S S n A S S S S S S S S S S S S S S S G S 6 & 4 g l z z K I z & @ j _ ) 5 $ k [ o.{ ( I j 7 t p r 0 u A S S H H ",
"S S S A a S S a S S S S S S S S S S G G H S S G H S l r > : g I P m m l l L M < O t U K 5 X 5 ! [ ! T L x t 3 < - - : 6 q i S H ",
"S S S S S a S S S c S S S S S S S G J J J S S C a i 4 @ & j ~ } ( Q I l l K K 5 O 4 z z k 5 5 C K z z L x t 7 h h 7 & X - < i H ",
"S S S S A A S S S C S S S S S C S S H J S i q > & ; 5 7 x Q } } } } ( R U L K g & & 7 z L j 5 w w w z Z g M +.2.2.&.I j 7 5 r C ",
"S S S S S S C S S S S S S S C S S S i > - 4 w g g g z N K L L E ) ' W T E U M z 5 ; 3 t g 5 : 3 ; h x g g | 5.6.<.%.) I M j g a ",
"S S S S S S S S S S S S S S S D H a > @ & g I ~ Q T T R U L K M I R U I L P L T K t < : - & ; 3 f I x 4 h :.5.-.} ) _ E L m g q ",
"S S S S S S S S S S S S S S S c a i w w z R ) ` _ ~ Q ! ( ) Q K N T W L M L R ~ Q M t 4 3 7 t g K I k ; g %.>...Q ( .._ U z w - ",
"S S S S S S S S S S S S S S C 6 - g U P U ~ ) ~ Q Q ( ( ( ) Q T R Q W L z L ( _ Q L m m N K L L Z C t ; h %.-.) Q ~ } ] R z 5 & ",
"S S S S l A S S S S H S S S r @ % C U I U E U L I R Q ( ( Q Q T I W ~ Q Q Q _ ) L K U W ~ Q / Q x l w ; h *.,...( ] } Q L D 7 % ",
"S S S S S S A S S S D D S a : % g I I L E Q T U R Q Q ( ) ) W K L Q ' ] ) ) ] ( L I Q ) _ ) } ~ x l t ; 7 X.2.<.-.+.' U K l 5 & ",
"S S S S A A S S S D S D S r % - I ' Q E ( ) ) ) _ ) ) ( ] ) W L R ~ Q W Q Q ) _ ~ ( ) ] _ _ _ ~ m l g < & m =.1.<.#.I g t 7 < 2 ",
"S S S S l A S S S S S H S q @ ; L ) ) ) ' ] ) _ _ _ ~ Q ( Q T L T W L N I W Q ' ] ) ) _ _ _ { ( K z l 5 & > h U T h > - - > u C ",
"S S S S S S S S S S S S S i - % t R ) } _ ] ' ) ) ) Q Q ( ) W L Q ~ W W W W W ( ] ' ) _ _ _ } _ I z t 3 & & & ; 6 5 > > > q a S ",
"S S S S a S S S S S S H S C 2 & > x ~ ] ] _ _ _ _ ) ) ( _ _ ~ Q Q ] } } ] ) ! ( ' Q W T ( } } ( z t < & ; ; : , 0 u i a i q u c ",
"S S S A S S C S H S S S S S C 6 < w K E Q ~ ~ ~ ( ] ' ( Q Q T I L E Q R T Q ] ] ( W m z I ( ( N 7 > ; : > 1 2 p a c C S c 2 < u ",
"S S S S S S S S S S S S S S J S t : 4 z z I I I Q } ) T M h g h k k g 7 7 z ~ } ] R L M m I I g 5 & & < 0 e p a c c C A a 0 0 u ",
"S S S S S l S S S S S S S S J J r & > l K U E ~ ) } ] N 7 z { %.&.Q h 7 7 5 g Q _ Q E W U K l j g : & r u u i i p a c a p u u p ",
"S S S S A S S S S S S S S S J S r & 4 L U I E ( ] } Q d k X.4.5.1.X.U z j w 3 7 N W Q ' ( E L I I h 7 r u r p i i a p a p p p a ",
"a a A A A A c S S S S S S H J J i ; > L E I x K Q } x 3 ) 2.5.>.X.] / L m m 7 % < I } ..} ] ) _ ) U g u u u i p a a a a c c c c ",
"p p p a a c c C S S J S S S H H l : & K ( Q N z T ( h 3 ' 3.<.X.~ ) _ ) T K 7 O > L ) ' ( ) } ..) g ; r i i a a a c a S c a S S ",
"p p p p a a S S S S S S H S H H a - & t R E U U Q ( x 3 ) >.#.) Q ) _ ..) E t % 5 D K N N W _ _ R ; @ r p a a a c c n n S S S S ",
"p p p a c c S C S S S J S G S S i - - t g z W } ....x 4 ' =...Q ) _ _ _ ( U w % 4 z I I I Q ) Q x ; @ u p a a a a n n S S n S S ",
"a a c c c S C S S S S H S S S S i - > l z g P ) ] ] k 3 { >.=.{ ) _ ....W z 6 % < L ) } { ) W P j - : u i a l a S S S S S S S S ",
"A A S S S S S S S S J S S S S S a : 5 E W m z K K L g 3 R ,.1.&.] ( ) ) I t > > g R ) _ ( Q L j > : e i i c S S S S J S S S S S ",
"S S S S S S S S H S S S S S S A S : g } ) m z I U L I x h ) 1.>./ z z k g 4 3 h L W E L K z g & : q i a a S S S S S S S S S S S ",
"S S S S S J G S S G J S S S a S S q z / I l N _ _ _ ..) x h T Q j 5 3 - - 3 h K Q / R M j 7 & . 2 i a c S S G S S J J S S S S S ",
"S H S H S S G S J S S S S A l a t g t 7 t g L ...._ _ ..] L 3 ; 7 k h 4 ; z E R ( } ( U j 4 @ o q i i a n S G S J J S G G G G S ",
"H S D S H H D S S S G J S S a a t 6 & & 7 g I ' U z K ~ } ) Q E ( ) ) Q N I ! ~ ~ ' ( L d 7 5 & < i p a D H H S S J J H S H S S ",
"S D S H H D H H G G S S S S S a p = 3 z 7 g R L g t g K Q } ......] ] ..( T L K K E ( T x z z w - 2 a C D H H D S J S H J D H D ",
"S D S H S H D S J S G S S S S a p @ g %.L x Q L N L T L U ( } ( ) _ ] _ ] Q U K L U U U K z m j - ; A S D H H H J J J D S D H D ",
"H S S S H D H H S G S G S S S C t # k >.X.Q ' ( ) ] _ ~ P W } / Q ~ ] _ _ _ _ ] ] E L T T D m g % < C S D H H S H S G D H D H D ",
"D S S H H H D D F S S S F S S S p @ h ,.&.) _ _ _ ] .._ U I ( Q L T ~ ' ] ] } ] _ Q Q ) ) T m g @ < C H H H D D D D H H H D H D ",
"S H S S D S S S S S G S S S S S a @ d :.*._ _ ) ) ] ) _ ~ T U K z K T Q ( ) / R T Q ( ] { R m g % < C D H H H D H H D H H D S S ",
"H S S D H D H S S F S F S S S c a o 5 -.<.;.#...) _ _ _ _ Q U T R K z m L W L z K Q ] ] W M m g @ < C S S H H S D S D S H H S S ",
"S S H S S S H S S F S S S n l c u # 3 ) <.2.-._ E ~ _ ..} _ ] } } Q K M L U N m R ) } ( K g z l % , A S D H H D H H H H H S S S ",
"S S S H H H D H H D S S S C C A a r - < X.:.#.) x K ~ ) ] } } } } _ ( ( ( ~ R T W ( } ) K l z g % > c S S J G J S G S J S S c c ",
"S H S S H C C H S S H S C C C c a a = O ) =...Q x j z I ~ } } ' ) ' ) ] ] Q K K U Q _ ( L z w & - e a A S S S J G S S G H S c c ",
"C D H H H D S H H D C C C c c c a a : & { -.X.) R K t g K W W E T Q T L I K l l N I U L M m 5 @ 0 u p S S S J S H J S S H A c p ",
"H S D H H H S S C H S S S c c C a a = & { -...) _ ~ K w 5 w t g z K m g K P L L T U M l l m 7 @ 2 p a A S S S G S J J H H A a p ",
"H H H S H S H S S S S S C c C C a a : & ..,.#.' _ } U 3 O & < 7 g z g d Q X.} ( ) ] W z l k 4 & 0 u a n S S F S H H H H S A a p ",
"S H D H H H S S S S S C S C a u r r # & ' 1.,.+.] ~ L 5 & > w y l w 3 w ' :.-.X.} ..( K l 5 & 1 r i i S n S S S H H H H H A p p ",
"H D S D D H H D S S S S S C a r 8 8 - o 7 &.4.<.} Z g 4 : 6 i l l 4 > < k X.<.*._ Q I D z > # e i r i n S S S S H H H H H A p p ",
"H H H H H S D H S S S S S c a i 8 6 1 o   d %.&.P q ; - : r r t y 9 4 > O g ....T g 7 7 7 ; & 8 u r u a c S S S H H H H H A A A ",
"J S S J J S S J J S J S S C a i r 2 2 # o @ & > % o # = 1 8 9 2 r r 9 < & - 3 > & & @ @ % & , 2 q r i p C S S D H D D H D H D S ",
"J H J J H J J J J J S S S a a i 2 8 8 1 : # o o @ # : 2 2 2 2 2 < < 2 9 1 * # @ # # # # + * 1 2 q u p c C S S H D H J H H H H H ",
"S J J J J S H S S S J H S l a a 9 8 2 2 2 8 1 1 2 2 2 9 r 8 2 9 1 1 2 2 2 1 : : : 1 2 1 1 1 2 r i a a C C S S H D H H H J J J J ",
"S J J J J J J S J G H S S S S a a u r r r r r 9 8 8 e 9 r u r r 6 8 2 2 9 2 1 2 2 8 r 8 8 u i c S S C S A S H D H H H H J J H J ",
"S S H H J J J G J S S H H S S c a a a i p r t r r 9 e r i a i p r 9 2 r r 9 8 r u r u r i a C S S S S S D D H H H H H H H H H J ",
"p c S J J J J J J H J H H S S a a c a p a a a a p i u a a a c a a i u i a a a a a i a a A a S S S S S S H H H H H H A A D H J J ",
"u c S H J J J J H H S J H H A p p p p a a A S n n n n a A A a n a a a a a c c c a A A a c A S S H S S S H H H H A A a A H J J J ",
"e p A H J J H J H H H H H H A c p p p p a c n S n n n n l n n c n c n a n n n c a S A A A A S S H H H S H H J H A A c C D J J J "
};
