/* XPM */
static char *r_player_walk_11678373333[] = {
/* columns rows colors chars-per-pixel */
"64 64 140 2 ",
"   c #070506",
".  c #0E070F",
"X  c #0F0810",
"o  c #100314",
"O  c #150C13",
"+  c #190F15",
"@  c #170618",
"#  c #1E0C1D",
"$  c #151216",
"%  c #1B1117",
"&  c #151218",
"*  c #1D1419",
"=  c #1C1A1D",
"-  c #21161B",
";  c #23191E",
":  c #291B1F",
">  c #1F201F",
",  c #22201B",
"<  c #1F1D22",
"1  c #241D21",
"2  c #2A1D22",
"3  c #301E25",
"4  c #242225",
"5  c #2B2225",
"6  c #272529",
"7  c #2B2629",
"8  c #272A2A",
"9  c #2C2B2C",
"0  c #312426",
"q  c #332629",
"w  c #39262A",
"e  c #342A2C",
"r  c #3A2C2D",
"t  c #2F302F",
"y  c #323226",
"u  c #3E302E",
"i  c #2D2F30",
"p  c #322F30",
"a  c #3A2E30",
"s  c #2E3233",
"d  c #333434",
"f  c #3E3132",
"g  c #343837",
"h  c #363738",
"j  c #383638",
"k  c #353A3A",
"l  c #3B3D3D",
"z  c #432736",
"x  c #412F30",
"c  c #423535",
"v  c #493635",
"b  c #453936",
"n  c #4A3937",
"m  c #4E363A",
"M  c #463A39",
"N  c #4B3D3C",
"B  c #513D3C",
"V  c #3E403F",
"C  c #4E403E",
"Z  c #52413E",
"A  c #58423F",
"S  c #595538",
"D  c #4E6728",
"F  c #5F673F",
"G  c #3D3F40",
"H  c #4D3B40",
"J  c #573F40",
"K  c #3E4040",
"L  c #444545",
"P  c #4A4645",
"I  c #474847",
"U  c #474848",
"Y  c #484848",
"T  c #544441",
"R  c #5A4643",
"E  c #574844",
"W  c #5C4946",
"Q  c #5E454A",
"!  c #5E4C48",
"~  c #604A46",
"^  c #614548",
"/  c #634E49",
"(  c #6A4F4A",
")  c #635845",
"_  c #66514B",
"`  c #6B534E",
"'  c #6C5A4F",
"]  c #784E5D",
"[  c #6E5650",
"{  c #6C5951",
"}  c #715651",
"|  c #745A54",
" . c #7A5E56",
".. c #7A535C",
"X. c #7C5F59",
"o. c #6D7A42",
"O. c #756055",
"+. c #7A6157",
"@. c #7D6955",
"#. c #7D6159",
"$. c #805F5E",
"%. c #82645C",
"&. c #84695F",
"*. c #886B5F",
"=. c #817C53",
"-. c #876562",
";. c #886363",
":. c #866B60",
">. c #8A6C62",
",. c #8C7164",
"<. c #917567",
"1. c #927669",
"2. c #957A6B",
"3. c #9A7D6E",
"4. c #9E7F70",
"5. c #64852F",
"6. c #79A33D",
"7. c #87984E",
"8. c #8D8956",
"9. c #8F8858",
"0. c #92845E",
"q. c #9CB455",
"w. c #9D806F",
"e. c #9E8171",
"r. c #A28474",
"t. c #A68976",
"y. c #A98977",
"u. c #AB8D7A",
"i. c #AF917D",
"p. c #B1927E",
"a. c #9ED14A",
"s. c #B59681",
"d. c #B69883",
"f. c #BB9B85",
"g. c #BE9E88",
"h. c #C3A38B",
"j. c #C8A78F",
"k. c #C9A88F",
"l. c #CCAB92",
"z. c #D8B69A",
/* pixels */
"k k g s s K K K U U U K K K K K k k k k k k s K K K K K U U K l k g k k K K K U L l k g k K L U U U L U Y L Y Y Y L Y Y Y Y Y Y ",
"l k k s s V K K U K U U K K K s k s k k V k K s K K K K K L K K k s s k K K U U L l k k l K L U L U L U Y Y Y L Y Y Y Y U Y Y Y ",
"K K k s s K K L K K U U K K K K k k k l k s K V k K K K K K K k k s k K K L K L L l K j K K U U L Y L Y Y L Y L L L Y U Y Y Y Y ",
"K K K K K K K K K K K U K K K K K k K l K K K K K K K K l K K K k G K K K K L L L L L L K L L L L L L L L L U P Y Y Y P U Y Y U ",
"K U U K U K U L U K U U K U K K K K l G K l K l K k K K V K K k l l K L L L L l L L L L L L L K L L L L L L L L Y Y Y L L Y Y Y ",
"U U Y Y Y Y U U U U U U U K K K K K K G K K K l K K s V K k k K k l G K K V l L K L l L K L K K L L L L L L L L L L U U Y Y Y U ",
"U U U U Y Y Y U U U U U U U K K K L K K K K l l s K s K K K k k l l M K L K l M K l l L K L L C L L L L L L L L L L L Y P Y L Y ",
"U U U U Y Y U U U U U U K U U K L K K K C L L V K K K K k K K k l l l l l l K K G K M l V l V V l L K L L L G L L L L U U Y L U ",
"U Y P U P U U U U U L L L L L L H K K K L V K V l l l l l l l l l l l M l l b l l M G l l j l l l l l L K L K L L L L L L U U L ",
"L L U Y U Y L L U K L L L L L L L G K K L V V V M l l j l j l l l l l G l l l l l l l l l l l k k l l l l l K L L L L L L U Y Y ",
"Y Y L Y U L P U U U U U L L L L L L L K l l j l l k l l l l l l l j l l l l l l C l l l l j k k k g l k l l G K L L L L L L L Y ",
"Y L U Y Y L L L U K K G l j h h j l l h d h M l d p d p d d d d h h d d d h h h s j j h d s 9 s 9 s s s s k l l G G l L L L U Y ",
"L Y Y L Y L Y Y L h 9 7 6 6 6 6 7 h d 1 < b ' ! e 1 5 5 5 5 5 5 q 5 q 7 e q q 7 6 s s 6 4 = < 4 < 4 < 4 4 s k l l l G L L L Y Y ",
"Y L L Y L L L Y j * % u N N c r 7 6 9 r M :.i.2.W a c N n N n N f f f c b b r 5 5 6 & $ q N r = ; 1 ; 4 1 4 i k l l l L L Y L U ",
"L L L Y P L L l 1 O B <.3.<.&.~ r 5 T 2.r.d.s.1. .T W [  .|  .} T N N M M P N a r q - 0 %.r.O.f r c f f f 7 < s k V l L L U Y Y ",
"U U P L L P l 4 * E y.j.s.y.3.W : M e.l.l.t.&.} / _  .*.>.*.*.X.' / W N v M N N q Z | ,.f.f.<.' N ! / P N c 5 < g k V L L L L L ",
"L Y U L Y L i % _ 2.e.e.,.:. .e   ' g.u.3.-.X.} P ` >.>.*.*.%.%.X.#.} _ ! T N r $ } l.h.y.:.%.| N /  .! N N c 5 7 j L L L L L U ",
"L L L U Y L 7 - e.,.E _ | } Z 4 5 *.r.%.| X.| n 2 c R ^ ^ A ` &.%.%. .` / H b 7 .  .z.h.:.} | / Z ` #.} P M B c - p L L L U L U ",
"Y L P L Y L 7 - y.:.p v [ _ 7 * @.3.#.|  .} B 5 - 2 2 1 - ; x } &.&.[ T T C B a O _ d.y.X.} / W ` X.%.| T c P b % 7 L L L L L Y ",
"L Y L L L U 7 - r.1.B c J H = : t.r.| | } B r v B B x 7 : 5 : x | %._ M R _ } T - n >.>. .~ C / X.%.%.| T v N c - 7 L L L K L L ",
"L L L L L L 6 - r.r.[ T b q q ' s.3.` R v w B X.X.X.[ ^ Q H a 2 c R ~ / } +.*.( % r  . .} T M R / } %. .T b N c % 7 U U L K l l ",
"U L U L Y L 6 - y.f.:.[ v % v p.g.*./ b : z ..;.:.-.....] Q M a % 0 W %.%.%.*.( O B 3.*./ T T Z b Z _ _ C b T v - 8 L L K l k k ",
"L L L L U K i 2 >.d.4. .b O n l.h.{ A N : S 0.X.| | @.9.8.) H a O - R X.+.X.%./ : R y.3.~ R } / N N T N M v N a 1 e L L K l l k ",
"L L L L L H l p e 1.s.:.v & v f.h.{ R ~ r 5.q.*...X.8.a.a.o.H a - 5 C W } X.X.| ~ c O.p.>.} X.%.} ` W b N P a : 7 l L L K K K K ",
"L L U L L l L i .  .f.>.N % b d.h.:._ N , D 7.*.-.-.=.6.6.F H c % q M C [  . .#.%.5 x p.f.*.X.%.-.| E N C T e % h L K L L L L l ",
"L L L L L L L h = B +./ v = N s.i.>.~ 7 X : C B R A c y y q a f - 5 M N [ #. .#.%.v u O.,.3.<. .O._ T N c r 5 1 j L K L L l G L ",
"L L L L L l K K j p e q q % B p.<.$.B - O o @ 2 - - 2 # o # c j - 5 M C ' X. . . .| R 5 0 { @.b f f c r 5 ; 6 d l l M K K K l l ",
"L L L L L K L K l i 7 4 ; O Z u.>. .v - x w 3 c - 3 ^ m - w Q v % 2 N R } #. .#.%.%.^ 5 ; u f = * ; : 4 6 7 9 g V L K K l l l l ",
"L L L L L K M K j g d s > O C i.<. .v 2 ^ ` `  .A ` >.X.N N _ b + 5 T { X.#.X.#.#.' W T b q 2 5 5 * % 6 9 d g l l K l K l k k k ",
"L L U L L K L l l j g g 8 $ T u.#.[ / x v / | +.| | @.| W T N 0 1 r T _ / } { Q W T /  ._ M f n N 2 * 9 h g k j l l l l l g k k ",
"L K L K L L l l k k d s 8 & T t./ N | ( x q r c c c c f f a 7 2 e c c M Z ' ` Z C /  .#. .W M P T 5 = s g h l j k l l k k k k l ",
"G H K K l l l l k k d d 8 & T t.W p / %.( q + O O + O O + % - e N N c M W  .| _ _ }  .#. .W b N N 5 ; d k g g j k l l l G l K K ",
"k k k l l l l l k l g d 9 $ Z u. .T W _ X.` a 1 ; 1 1 1 : 2 7 M / _ ! _ | X. . . . . . . .R c N N 2 1 h j l j l l V l C K K K L ",
"k g k k l l l l l j k g 9 $ B p.&.` R N ~ ` / R E R R T E T E /  .X.X.#.X. . . . . . . . .W l N N 2 = d k l l l l C V V K L L L ",
"k g k l G K K G l j j k s $ A g.3.X.` N c N _ #.%.%.#.#.+.#.#.#.#.#.#.#.%.#.+. .|  . .X. .W b N Z 5 ; h k j l l V V K L L L L L ",
"k K K K L L K K V V l l h = N u.p.:.' Q N f T  .+. .#.#.#. .| |  .X.#.| } }  . . .|  .#. .T M N N 2 1 h k l C K V K L L L L L L ",
"K K U K l l G H l l j V j s 7 ~ s.3. .} [ N N T R T /  . ./ A T T ` ` R T Z _  .#.#.#.| ~ P N v q 2 e j l g d k l G H L L L Y L ",
"K Y k 4 = = 1 6 6 5 e k V j = : y.d.4.1.{ C N W W R / |  ./ E A b N W W T N M _ #.%. .! N H v 0 6 9 k l j 8 * * < < 6 6 8 l Y Y ",
"L h 9 a c M e - ; ; 4 9 l l 4 - } f.g.2.! f T | +. . . . .| | ` T N W |  ./ N N _ | _ T C c 2 - 9 l l k 7 5 c c c 7 - 1 2 7 l Y ",
"k 4 N 1.u.e.+.c r c e 5 d j h 9 q &.2.R f f R %.%. .#.#. . .X.X.} }  .%.#. ./ M N T N b f q O + d l j 9 4 ` r.t.w._ a a a 0 7 l ",
"< J w.h.h.y.:._ N M M q 4 e l k 9 f q - e c Q +./ Z / +.+. . . .#.#.%.| ! E Z b b M r ; ; 0 ; + e l 7 q ` i.j.f.4.#.W N M c q 4 ",
"O | h.h.r.&.#. ./ C N f ; 7 V l d * : v r c / E c d b Q  .#.|  . .` W T b f f b j 7 ; ; 5 f b 5 6 s 4 q 2.k.s.3.#. .} W C C r % ",
". +.g.e.#.} |  . ._ T f - 7 l K g & b ,.R A ` T N C Z R / |  . . ./ T Z Z C C A T c a n M M C c - 6 4 q 2.d.<.| } | X.} T N e % ",
"o | u.%.} } |  .#.| / c - 8 j l d = n y.&.`  .[ [ } } / T _ #.%.#.} ` ` ` } } |  ./ ( [ E N C c * 6 4 q <.4.| } |  .%.| T N r % ",
"X O.u.#.` |  .X.+.' T c * 7 k V d = n y.<.} | X. .X.#.[ Z W  . .|  .X.X.%.$.+.%. ./ _  .} T N f - 5 4 q <.3.} ` }  .%.} T N e % ",
"+ +.d.3. . .X.%.%.! N f ; 7 l V h * v r.>.} | |  . .X.| / R W T R [ %.+.+.%.| / W W ` #.#.W N f * 4 4 e 2.p.*.| |  .| ^ C N r % ",
"1 A w.f.t.&.` } | Q c 0 5 d l V h * n p.r.>.*. . . . . .| / A T T ! / / / ` E M Z ` | X.[ T N c * 4 9 q ' p.d.e.3.%./ P N c 7 1 ",
"l 9 A 3.r._ f c b c q 2 d l C l g = n 3.s.i.1.| } | #.#.+.} ` } { Q C C Z n f M ` X.#.} T M C c - 4 l h e | y.t.r.} c f a 2 7 l ",
"L l d r r : + + % - 4 j H K K K k e q Z 3.r.%.} A /  . . .+.+.X.+.} ` ` _ C f N } %.#.} C c N c - 4 l l d r r r w : # - - 7 l L ",
"L U G e 7 i e i i q h K K K K K l l 4 5 ,.3.| ` N N W /  .%.%.%.%.%.#. ._ W W /  .#.%.| T M c q 1 s l L l d 7 9 9 9 9 p e k K K ",
"L L L L L L L L L L H L L l l l l l 4 5 ,.2.| } W M b N / } } ` ` [ } ` / } X.X. .` _ / C N w % t l l K L l K L L L L Y U K K k ",
"L U Y Y Y L Y Y L L K K C L l L l l 4 q 1.r.+.| | R M M c c c c c c c b R | %.%. ._ C M N C q % s j k L L L L L L P Y Y U K k k ",
"L Y L Y Y L U L L L L L K K l l l l 4 q ,.d.r.&. .W N f 2 ; ; ; ; ; - ; 0 A +.#.+.} ! M M N q % i j l C K K L U Y U U U U K K s ",
"U U Y Y Y Y Y L L L L L K K l j d d 4 * n 3.f.w.[ N r 5 5 6 6 6 4 5 6 4 6 7 A #.%.%.` C M r 1 6 g l k V K L L U Y U U U U K K k ",
"L L Y L L P U Y L L L L L K l j e t 9 * + n %.' r 7 2 4 8 d d d t t d d 9 * r %.>.+.! Z N 2 = d g d k C L L U L Y Y U U K K G k ",
"Y Y Y Y Y Y U L U L L L L M l h t 9 9 8 * - = * % % 1 7 9 t t 9 9 9 9 9 6 * w ` | A f f c , ; t d d j l K L L U U U U U K K K K ",
"P Y Y L Y L Y L U L L L L l l j d 9 9 7 8 4 = = = , 8 7 8 9 9 8 7 9 8 , 4 > , 2 : * * - - , 8 t e d k l G L P L U U U Y U L L U ",
"U Y L Y Y U U U P I Y L L L l k e t 9 8 y 8 4 , 4 7 8 9 9 9 9 9 8 8 8 4 , > = & $ * = = = 4 8 8 s h j l L L U U U U Y U Y Y Y Y ",
"U L Y Y Y Y Y P U I I L L L M j p t 9 8 9 9 8 8 8 9 9 t d t 9 t 7 8 6 8 8 , 4 > 4 8 9 8 8 7 t t j l l G M L L Y U U U Y Y Y Y Y ",
"L Y Y Y Y Y Y L U L P U L L L l l g d t d d t t t t t d d d d d 9 9 y 7 9 7 8 8 9 t d 9 t d g C C L K L K L U U U U U Y Y Y Y Y ",
"L L L U Y Y Y Y Y L L U L L L V l l j l k d d h t t d d j j l g d t 9 d d d t d d g g h k V C L K L L L L L U U U U U U Y Y Y U ",
"l K L U Y Y Y Y Y U Y U L P L l l l l l l l l l l k j l l l M V l k j j g l l l l j l l l K K L L L U L U U U Y U K K L U Y Y Y ",
"s G L U Y Y Y Y Y U U Y U L K l k k k k l V L K C V C l K K K C M l l l l V C V l K K l V K L L U L U U U U Y Y L K l K Y Y Y Y ",
"k l K U Y Y Y Y U U U U U U K l k k k l l V K K V V V V l K l l V V V l V K K V K K K K K K L L U U U U U U Y Y K K l L L Y Y Y "
};
