/* XPM */
static char *r_player_atk_21678373334[] = {
/* columns rows colors chars-per-pixel */
"64 64 133 2 ",
"   c #050305",
".  c #0C050C",
"X  c #0E0B11",
"o  c #110711",
"O  c #140C13",
"+  c #190F15",
"@  c #160A19",
"#  c #1C0E1B",
"$  c #151215",
"%  c #1C1117",
"&  c #161218",
"*  c #1C141A",
"=  c #1E1A1D",
"-  c #21151B",
";  c #231A1E",
":  c #281B1F",
">  c #1F201F",
",  c #1F1D21",
"<  c #241D21",
"1  c #2A1E22",
"2  c #301F24",
"3  c #242324",
"4  c #2D2225",
"5  c #262529",
"6  c #2A262A",
"7  c #272929",
"8  c #2C2C2C",
"9  c #312326",
"0  c #342925",
"q  c #332629",
"w  c #342A2C",
"e  c #3B2C2E",
"r  c #2F302F",
"t  c #303520",
"y  c #3F322E",
"u  c #2C2F31",
"i  c #312F31",
"p  c #3C2E30",
"a  c #2E3434",
"s  c #343434",
"d  c #3E3233",
"f  c #343837",
"g  c #3F3B30",
"h  c #373738",
"j  c #383738",
"k  c #353A3A",
"l  c #3B3D3D",
"z  c #41312F",
"x  c #412F30",
"c  c #433535",
"v  c #493636",
"b  c #443837",
"n  c #4A3937",
"m  c #4B3739",
"M  c #463939",
"N  c #4B3D3B",
"B  c #523E3C",
"V  c #3F403F",
"C  c #4A552F",
"Z  c #4E403E",
"A  c #53413E",
"S  c #58433F",
"D  c #584D3E",
"F  c #5B5A3D",
"G  c #58782B",
"H  c #637A32",
"J  c #4D3C41",
"K  c #3E4040",
"L  c #444545",
"P  c #4B4544",
"I  c #474847",
"U  c #474848",
"Y  c #484848",
"T  c #544441",
"R  c #5A4643",
"E  c #574A45",
"W  c #5D4A46",
"Q  c #5D424B",
"!  c #5F4C48",
"~  c #614B46",
"^  c #634E49",
"/  c #6A4F4C",
"(  c #66514C",
")  c #6B534E",
"_  c #6E584F",
"`  c #70554F",
"'  c #6E4854",
"]  c #71465B",
"[  c #75495C",
"{  c #6E5650",
"}  c #6F5A52",
"|  c #715751",
" . c #745A54",
".. c #795E56",
"X. c #775658",
"o. c #7C5E58",
"O. c #677341",
"+. c #697042",
"@. c #786156",
"#. c #7D6159",
"$. c #82645C",
"%. c #83695E",
"&. c #896564",
"*. c #856C61",
"=. c #8B6D62",
"-. c #8D7265",
";. c #907266",
":. c #937669",
">. c #95796B",
",. c #9B7D6E",
"<. c #9D7F70",
"1. c #8A8856",
"2. c #8CBF43",
"3. c #9ABD4E",
"4. c #92AA52",
"5. c #9AA857",
"6. c #9E806F",
"7. c #9E8171",
"8. c #A38574",
"9. c #A58876",
"0. c #A58A78",
"q. c #AB8D7A",
"w. c #AF907D",
"e. c #B1927E",
"r. c #B59581",
"t. c #B79883",
"y. c #BB9B85",
"u. c #BE9F89",
"i. c #BFA089",
"p. c #C09E88",
"a. c #C3A38B",
"s. c #CCAB91",
"d. c #D8B69A",
/* pixels */
"k k a a k K K U U U U U K k k k k a k k k k k K K K K K L L K l k k k k l K L U L l k a k K L U U I I I U U L I L U U U U U Y Y ",
"l k k a a k K K U U U U K K k k k k k k K k a K K K K K L L K l k a k k K K L U L V k k K K L U U I I I L I U U P U U U U U U Y ",
"K K k a a K K L K K K K K K K K k k k k k a K k K K K K K L K k k k k k l L L L K K l l K K U L L I L L I I U U U U L U Y Y Y Y ",
"K K K K k K K L K K U U U K K K K k K l K K K K K k K K l K K l k k K K L K L L L L L L K L L U L L L I L I U U U U U P U Y Y Y ",
"U U U K K U I L L L L U U U K K l K K K l K l K k K K k l K l l k l K K L K L K K L L L L L L L L L L L L L U L U P L U P U U U ",
"U U U U U U I I L U L L U U K K K l K l K K K l K k k K l K K k k l V K l M L K K K K L Z L l L L L L L L L L L U L U U U U U U ",
"U U U U U U U I U U U L U U K K K L L K K K K l K k K k K K l l l l l J K K l K V V l K l K L L K K L L L L L L J L L U U U P U ",
"U U U U U U U U U L U L L U K U L K L K L K K K k K k K k K K l l l K l K K M l V J l K K l l V J K K L L L K L L L U U U P U U ",
"L U U P U U U L U L L L L L L L L K L l J V K l l l l l l l l l l l l M l l M l l M V l l l j l l l K K K K K K L L L U L U U U ",
"P U U U U L U U I U L L L L L K K K l L V K Z K M l l l l l l l l l l V l l l l l l V l l l l k k j l K K K L L L K L L L U U L ",
"U U L U P U U L L L L L K L J K K K L l V l l l l k l j l j l j l l k l l l l l l l l k j j f k f f k k j l K L L K L L L L U U ",
"U U U U U L L L L L L I L L K K Z K l K l l k l h l j j l l l j l j l j j l l l j j j j j k f f a s f f f k k l K K K L L U U U ",
"L P U U I L L L L L L L L K l K l Z V k l j j k s h h h j j f h h f f k j j j j h j j j j f a a a a a a a f k k l K K K L U U U ",
"U L L U I L L U L l s 8 7 5 6 8 i s u 3 3 d E A 8 4 w 7 6 6 4 6 w w w 8 w w w 8 h l f 8 5 3 3 5 3 5 5 5 6 a k k k l K L L L U U ",
"L U U L I L L U J , $ 4 e s w 4 - O & < 8 ) 8.*.A 4 w e d p x e w w e p d z 4 ; r s = O ; e 4 = < = = , < 3 a k k l K K L U L U ",
"U L U L I L I K 5 . 1  .%.#...B %   9 _ *.e.a.8.@.T T ) | { | ) Z b N Z Z P e + 7 7 X & ~ *.! 4 1 q 4 q w 3 3 a k K l J L L L L ",
"L L U L U L K 6 & y -.a.r.0.<.W + 1 %.a.s.r.:.#.) ^ { $.%.$.%.$./ W T b b N c < = b A _ e.u.-.! M E E N M d < 5 l L K I L L I L ",
"U P L L U L i * Z *.q.r.,.;.*.b   ~ u.i.w.-... .E { *.;.=.;.%...X...) E E Z N e * ) e.y.e.,.=.X.J ^ | W Z M e 4 i l K L L L U U ",
"U L U L U L 6 - -.>.} ....| R 4 & %.w.=.#.#. .W e N ` ` / / X.$.$.#...{ ^ P b p $ @.d.a.-.`  .) Z ( #.{ A N N e ; s L L L L L I ",
"L U J L I U 6 ; q.*.d n ` { e - ) :.%.......R 9 - 2 q 9 9 9 B ..%.%.| W R N N w O ) a.e.$.` ) W ( ..#.X.A b P c * 4 I I L K K J ",
"L I L L L L 6 - 9.;.n c E E = % <.8.X.o...R e x z z q ; - - 1 N #.=.( N B ~ ( B % A ,.:.../ R ^ ..#.$. .A v Z c * 6 U L K K l k ",
"L L L L L L 5 - 6.<.^ N b e 1 A e.8.` ^ S e v ) X.| ^ B N M q 2 B ) ~ R ) ..%.^ - z .... .T b W ) @.%...T b N c % 8 U U L K k k ",
"L L L I U L 5 - q.e.$.( b = c 8.p.;./ m 1 x ' $.*.%.o.[ ] Q M 6 - e W ..$.$.%./ O v =.$.) A N A N E X._ Z b T b % 5 L L K K l k ",
"L L L L L J 5 1 ,.a.,...c O n s.a. .J m - B =...X.X.o.%.$.! J d O = W $.$...$.~ % R w.,.W R ( R c b T A b b P v - 4 L U K K K K ",
"L L L L L K f w B 8.q.#.v O N a.a.( E R 0 H 5.$.X.X.1.3.3.+.N d + 1 T ( ....@.{ N n -.0.@.^ $...^ ! E b b N c 4 4 l K L L L L l ",
"I L L L L K K a O #.p.-.N $ v t.a.#.! R 0 G 4.=.&.&.1.2.2.O.J p - 4 b T { ..o.#...9 Z t.w.$...%.$.X.R b P T e % i L V L L l K L ",
"L L L L J K L f & R :. .n * n y.t.=.^ p + t F / ' / D C C g c c - 4 b Z ) o.X.#.$.z y -.8.>.%.#.#._ E N M v 4 = k K K L K K l l ",
"L L L L L K L l 8 y c c e - N e.<.$.T - o @ - 2 1 2 1 # @ # p d - 4 M Z ) #.o.@.@./ N e n %.%.R N N b c q < 4 w l J K K K K k k ",
"L L L L L K K K j i 3 3 < O B q.=.X.m - 0 : - q + : m p # 2 T v * 4 b A  .#.....#.} N ; < n n ; ; 1 4 4 3 3 w k K l K l l l k k ",
"L L L L L L K V j f a 8 < o A e.-...v : ~ ~ R ) v S $. .e v ( N + < T ( ..#...$.$.! b v d 4 1 ; < * % 3 8 a f k l l l K k k k k ",
"L L K L K J K K k h f a 5 X T q.*.X.R 0 B | $.%...#.=.#.W E E w - w E ) _ X. .) ( A E  .! d w c v ; * 8 f h l j j l l k k k k l ",
"J K K K l K k l k j f a 7 & T 0.( R  .R q x J R R T T T Z b w ; q c N A T ) ) N N W X.$.| R N P T 4 = f h f k j l l l l K l l V ",
"k k k l l l l l k k k a a & S 9.E d ) @.S 2 & * ; ; * ; ; ; ; 4 c b d b E | { W R ` #.#...! M Z Z 4 ; f j j l l l Z l L L K L L ",
"k k k k l K l l l l k k 8 $ S q.} N !  .X.R 4 % $ & * & * * 4 c E ! T R { ....X.......#.#.W b N N 3 ; s k l l l l V l L M K L L ",
"k k k l l K K l l j k l a & S r.-.) R A ) | T N N N M N N v N T  ...| ......@...........@.R N Z B 4 < f l j l l K K K l L L L L ",
"l k l l L K K L l f 8 7 5 $ c :... .) Z Z A ( ..@.X. . . .|  ...#.#.$.#.$.#............./ c 9 e d ; * u j l l l V l L L K L L L ",
"K K L L L Z K K j 5 = % & O : n c R ..~ N d E #.$.#.#.$.#.#.#.#.#.#.#.......@.o... . ./ z - * : < + $ 4 s j k V K K K M L L L L ",
"L L L L L K K k 5 e ^ ^ ^ d 1 q q e B ..) Z N ^ ^ W ( ....( W W ~ |  .^ R W ) #.$...R z A ! ( R q < 4 4 4 f J l K L K L L L L L ",
"L L L L L L j w w %.r.r.7.} c d c q z ~ ) T N T A A ~ X...! A N c T ! T Z b Z | $.) n A :.e.e.>.~ d c d 4 5 j l J K L L L L I L ",
"K L L L I L 8 ; %.a.a.w.:.@./ N M c e q b N T _  .|  .@... ._ / M b R { | E b R  .c c 6.a.a.9.=.X.! Z M c 1 4 K K K l L L L L L ",
"L L L I L L 5 * 8.s.9.*...o.../ N M w - w M W #.%.#.#.......#...) ^ { #.$...R Z A 1 n r.a.6.$.X.....! Z v 1 < K L K L Z K L L L ",
"K L L L I L 5 % 8.r.%...` ......) E w - p b ! #.) ! ) ..$...#...@.#.$.o.) ( R M d $ n q.8.#.{ | ..#.( N b < < K L L L L K U L L ",
"L L L L L L 5 - ,.<. .` | ......{ E w + 1 N ^ ^ N d N ( ......@.@.| ) ! N l b c e $ n 7.=.| `  ...#.) N d 1 < L L K L L L L L U ",
"L L I L I P 5 - 8.9...` ....$...R N q o - T { T N b N R ) ..X. .X./ T N N M N N v $ N q.:.` `  .o.../ N M < , K L L L K K K L L ",
"L U U L L I 6 < :.y.,.$.....#. .A b w : n  .X.( ^ ( ( ^ R ) ) ~  . .( ( ( ( )  .^ 4 c 8.e.-.#.$.o.( T N v ; < J U K L K K K L L ",
"U P L L L L j w B <.y.,.} W / ^ Z w z ) o.o.......#.#.) A ^  .(  .@.........#.$.X.N e ) q.e.9.,.} N N b q 4 f L L L L L K K K K ",
"L L L L L L U j 8 A %._ e 4 q e w $ N 6.=.` | ......#. .E E ^ W ^ X.$.$.$.$...) ^ R n v ) @.#._ c 4 q 4 4 f K L L L L K K K K k ",
"J U U L U U L U l 8 : : - * * - - . B q.,.#.@.........X. .W N A N ^ _ |  . ./ b N ( ..^ 0 ; 4 : + + - 3 f K L L L L L L K K K K ",
"K L U U U L L P L j s s s s s s u % N q.r.9.;... .........) ( ( ( R Z Z A Z M b ^ @.#. .M q p q + ; r j l L L L L L L L J V K K ",
"K U U U L U L L L L L K K L J L l 8 w ) 9.0.=.| W ) #.#.#.....#.@.) W W ! Z d M { $.#. .T M P v # 3 l L K L L L L L L L K K K K ",
"L L U U U L U U L L J L L K l l l l 3 0 ;.,...) N A / ) @.#.$.#.$.......( E A R  .#.#.X.A b b e < 8 l L L K L L L L L L K K K k ",
"L L U U U L L P L L K K L K K K K l < 4 -.:.| ` T b N A )  .X. .X..... .( { ..X... .{ ) T N e - 8 h l K K L L L L I L U K K V k ",
"U U U P U L L L L L L L K J l l k l 3 9 :.6. . .{ T b M Z T A T A T Z T /  ...o.#.( T Z N N q $ a l l V L L L I U U U U K K K K ",
"U U U L U U U L L L L L L K l k s s ; 0 >.e.;.#.#.! M b q ; 1 < : : ; 4 q e S $.$.{ T N b e * % f j j L Z L L I U U U U U K K a ",
"U U L U P U U U I I L L K K l f r r ; - ^ w.i.,...T c 4 < ; , ; = = ; ; * O x %.=...^ Z b 4 $ 3 f j j V K L U L U U U U K K K a ",
"L U U U U U U L I L L L L J j f r r 3 % % ^ q.-.N e 4 ; 3 8 8 8 8 8 8 8 3 * q )  .A d c y 4 ; s s 8 j V K K L I U U U U K K K K ",
"U U U P P L U U I I L L L l l k s 8 8 = $ - 9 1 * * = 3 7 8 a 7 8 8 8 3 3 > ; 1 : * * * - > 7 r w s f l J L L U U U U U U U U U ",
"U P U U U U U P I I U L L J l f 8 8 8 7 3 * $ $ = = 3 8 8 8 8 8 7 7 7 7 > > = % $ * = = = 3 7 7 s f j l K L L U U U U U U Y U U ",
"U U U U U U U U L I L L L L l l w s r 7 8 8 7 7 7 8 r i s w 8 r 7 3 7 7 7 > > > 3 7 8 7 7 7 w r j j j K K L I L U U U U Y Y Y Y ",
"L U U U U U U P U U U U I L K M l f s s s s s i r r r i f h s s 8 8 8 8 t 7 7 7 8 r s r i s k Z L L L K L L I I U U U U Y Y Y U ",
"J K U U Y U Y Y U P U L L L L l l l l j j f f f s s i s k j j k s i i s f f s s f f f h j l J L L L L L I I I I U U U U U Y Y U ",
"k K L U Y Y Y Y U U U I U I L K l l l k l j l k g k j j l K Z k j j f j j j l j j j l j K K K L I I L L U U U U L L K K U U Y Y ",
"k K L U Y Y U U U U U U U U K k k k k l l K K K L l Z k K K l V Z k l l l l Z K l L K l K K L L L I I I U U U U L K K K Y Y Y Y ",
"a l K U U U U U U U U U U U K l k k k k l K Z L V L K K M K K V V V l l K K K K K K K K K K L U L I L I U U Y U K K V K U Y Y Y "
};
