/* XPM */
static char *r_player_d_11678373334[] = {
/* columns rows colors chars-per-pixel */
"64 64 132 2 ",
"   c #0D050D",
".  c #11050D",
"X  c #120415",
"o  c #140C13",
"O  c #190E16",
"+  c #151116",
"@  c #1B1117",
"#  c #161319",
"$  c #1D141A",
"%  c #1E1A1D",
"&  c #22161B",
"*  c #231A1E",
"=  c #281B1F",
"-  c #1F1E22",
";  c #251324",
":  c #241D21",
">  c #2A1E22",
",  c #311E28",
"<  c #252225",
"1  c #2C2225",
"2  c #262429",
"3  c #2B2629",
"4  c #272829",
"5  c #2D2C2D",
"6  c #312426",
"7  c #342F22",
"8  c #332629",
"9  c #38272B",
"0  c #342A2C",
"q  c #3B2C2D",
"w  c #2F302F",
"e  c #34302F",
"r  c #3F302F",
"t  c #2D2E30",
"y  c #312E31",
"u  c #3C2E31",
"i  c #2E3434",
"p  c #343434",
"a  c #3D3232",
"s  c #3A3837",
"d  c #363738",
"f  c #393638",
"g  c #353A3A",
"h  c #3C3D3D",
"j  c #402F2F",
"k  c #412E31",
"l  c #433534",
"z  c #493635",
"x  c #453837",
"c  c #4A3837",
"v  c #4C353C",
"b  c #463A39",
"n  c #4B3C3B",
"m  c #513E3C",
"M  c #3F403F",
"N  c #434E26",
"B  c #42482C",
"V  c #4E403E",
"C  c #52413F",
"Z  c #5A453F",
"A  c #544A38",
"S  c #584E3D",
"D  c #4F5B32",
"F  c #52523B",
"G  c #3F3F40",
"H  c #403F40",
"J  c #503F40",
"K  c #5A3E43",
"L  c #3E4040",
"P  c #454545",
"I  c #484747",
"U  c #474847",
"Y  c #484847",
"T  c #474848",
"R  c #484848",
"E  c #544441",
"W  c #594643",
"Q  c #5C4946",
"!  c #5D4648",
"~  c #5F4C48",
"^  c #614B47",
"/  c #634D49",
"(  c #66514C",
")  c #6A534E",
"_  c #6E5650",
"`  c #6D5952",
"'  c #705751",
"]  c #745A54",
"[  c #795E56",
"{  c #765458",
"}  c #7B565C",
"|  c #7C5E58",
" . c #646B40",
".. c #6B6946",
"X. c #6E674A",
"o. c #796156",
"O. c #7D6A55",
"+. c #7D6159",
"@. c #82655C",
"#. c #83695E",
"$. c #867B56",
"%. c #86735A",
"&. c #835D61",
"*. c #866B60",
"=. c #8A6D62",
"-. c #867164",
";. c #8D7265",
":. c #8F7668",
">. c #907367",
",. c #937669",
"<. c #95796B",
"1. c #9A7D6E",
"2. c #738240",
"3. c #778943",
"4. c #848751",
"5. c #8F885B",
"6. c #80A941",
"7. c #91AA4D",
"8. c #99BE4C",
"9. c #9E8171",
"0. c #A28574",
"q. c #A68977",
"w. c #A78A78",
"e. c #AB8D7A",
"r. c #AF907D",
"t. c #B1927E",
"y. c #B49581",
"u. c #B79883",
"i. c #BC9C86",
"p. c #BF9F88",
"a. c #C4A38B",
"s. c #CAA990",
/* pixels */
"g g i i i L L T T T T L L L G i i g g g g g g g L L L L P P L g g g g g h L T I L G g i g L P U U U U U P I I I P T T R T R R T ",
"h g g i i g L L T T T T L L g L g g g g g g g g L L L L P U L h g g g g h L U U P h g g L L P T U P U U I I P I I I T T R R R R ",
"L L g i i G L L L L L L L L L L g g g g L g L L L L L L L L L h g d g g h P P P P L h h L L T U I P P P P I U U P I I T R R R R ",
"L L L L g G P P L L T T L L L L L g L L L g G g L L L L h L L g g g h L P h P P P L P P L T P P P P P P I P P U T T P T I T I R ",
"T T T L L T U U L T L T T T L L h L L g g G G h g L g g L L L h g h h P h b L P P P b P P P P P P P P P P P P P T T I I I T T T ",
"T T T T T T U U T T T T T T L L G G L L L L G h L g L g h L h h h h h L H P L L h P P L b P h P P H P P P P P P I P P T I I T T ",
"T T T T T T T U T T T T T L L L L P L P P L G G g L g L L L h h h h G L b P G h P h P L L L P M G L P P L P P P P P P T I I I I ",
"T T T T T T T T T T T T T T T L P U U P P P P L L L L g h L h h h h G L L h h L h h h h M M M M L P P H P P G P P P P T P I I I ",
"T T I T I I I I T P P P P P G L P P P P P P P G h h h s h M h M h h P h G h h G h h h h h h h s h M L L P L L P P P P P I T P T ",
"I P I T P I I P P P P P G d y t 5 5 y p f f u 3 2 5 i p g h h b h h h h h h h b G h h h h h g g g h h L h h L P P L L P P T I T ",
"I P I P I I P P P U P h p s W ( / b q 8 8 a I Q E b q 5 5 5 8 3 y y 0 5 5 5 p h h h h h h s g h p g g g g M L L P L P P P I I P ",
"T T I P I P U P P L g t u ` e.p.r.*.W k a Q %.1.9.[ c 6 1 9 9 , 6 > : * * & > 5 0 d f y 5 e p s g p 5 5 t d h M G L L P P P T T ",
"I I I I U P U U P p % > / w.a.u.<.@.) Z I ` ;.>.=._ m c ^ ) ) / m n C C n l 9 * % 3 3 * * 8 j c Z l < * * 5 p g G g L P P P P T ",
"P P P P P U I P 0 % + 8 +.i.y.;.[ ] [ ) ^ ( ' [ [ ) W / [ @.' m l W ' [ ' Q c 0 8 8 * $ r W z l ' ` m j q > 2 d g G L L P P I T ",
"I P P T I U P 5 $ 0 l V #.w.<.[ ) ] @.[ / n E ' ] / W W ) ^ z 9 > 6 m ) [ ' / n q r q 0 C ` l 1 #.e.=.( C a : 2 g L L P P P P T ",
"P P I P I I t o q ` ` ) ;.,.+.) ] [ [ ] ( n V ) ( Q c u k j z m j = = 9 m ( [ ^ q b W n V W n q ` :.;.+.~ V u : t i L L P P P I ",
"P T P P T I 2 o o.%.~ ( :.:.` ( ) [ ] ) ) ^ ^ _ W ~ n > q ! ' @.| ^ 8 % $ 9 ^ [ / x l l x Q [ ) q * m +.( b n a * 5 h U P P P U ",
"I P I P T T 2 o ;.-.E ~ *.;.' ~ / ) ( ^ ^ ) #.#./ ^ v 7 A [ @.@.*.| ! l 1 > l ' _ q 1 a E ) *.| l * 0 C n l V l & < P P P P P U ",
"P P I P I I 2   ;.:.( W ( o.] ( ^ ^ W W Q ' ,.,.) v q N 2.$.@.{ { } { _ E 8 9 E J 9 8 E ) ] ] ( ~ E c l a l V l & 3 P P P U P U ",
"P T P P I I 2   #.1.] ~ ~ ) ] ] ( ^ Q Z W ] >.=.W > & N 3.5.&.} O.$.%.] E q 8 u l q x ^ _ ) Q W ` ) Q W n b V l & 3 P P P H P H ",
"P P P P I P 2   #.0.#.' ) ] [ [ ] ' / W ^ [ #.) 9 O . = S [ &.} 4.8.7.X.J u 1 8 l n E / / E E ) ] [ _ ~ V b V l & 2 P P H G h g ",
"P P P P I P < X o.r.1.] / ) [ o.| ' ^ E / [ ] z , = & & > k K / ..6.6. .J u > u ~ ~ / ' ) / ) ] ] ' ( E n n n l & 3 P U P h g g ",
"P P P P U P t $ z <.0.+.W Z / [ +.' Q W / [ / j j m m j & @ > 9 q B D F n 6 1 C ] ' _ | [ [ [ ] ] ] / n b n x 3 * p U U P L g g ",
"P P P P P P L 3 . ^ 0.>.^ l C [ #.[ ) / ' ' / m k ^ [ ) v j q 9 $ X ; u a 1 9 ~ ] | [ ] [ [ [ [ [ [ ) c u 0 : o % 0 p g L P L L ",
"P P P H P h P p   c ,.=.^ q m #.+.' ] ] ] ) ' ) 9 l ) | ] ) | ] , O , u 9 1 q W ] +.| [ [ [ [ [ o.' W r 1 = = & $ @ % > d P P P ",
"P P P P P P P s : 8 z l l 1 c ;.+.` ] | [ ' +.[ z > q E ( ] *.+.c k E n > > a E ' [ [ [ [ [ [ [ [ ( b 0 Q @.=.@.x 6 8 1 , p P L ",
"P P P P L L L b f 2 $ $ * + l <.*.' ' ] [ [ | | ) q % : 0 c Q ~ E E W x : 1 b W _ _ / ~ ) o.| [ ) m r ~ q.a.i.1.] E n b 9 2 p g ",
"P P H P P P L P s t 2 < $   r 1.,.) / ( ) _ ' ' ] ^ 9 $ $ * 1 a x x u 8 * q E _ ' ( V n Q ' [ [ ^ 6 l 9.p.t.1.@.[ / E n l > < d ",
"P P P P P h h h h g p i 2 o l 9.1./ n n n Q ^ ^ ' ] Q l 8 : $ $ > 1 1 1 8 n ( ] _ / W W V Q ) ) m : l 9.t.,.[ ' ] [ / J x > : i ",
"P P P P P b P L s g g i 4 o j <.+.E m E E Q ( ) ] +.[ ) / m u 1 * 1 q f x E ( W W / ` _ ~ C E E c * l 1.1.| ' ] | +._ E l > < d ",
"P P P P L L L h s g t < #   * C l 6 l / ) / / ' [ +.[ [ ' ` ( W l l E E E / _ ~ W ( [ o.' W b b l & l <.=.' ' ] [ +.) m x > : g ",
"h G h L L L h G g i 3 1 q a 0 * # $ 6 m ) / W W ) ' ] ' ' ) ) ) ( / ) ] ) _ [ | [ [ [ ] ] ~ b b b * l 0.0.@.' ] +.] ^ I x > > g ",
"g g g h h g G h p : j #.r.u.>.C u p q 8 n ) ( E Q ) ' ] ' ) W W ` ' ] +.] ] | [ [ [ ] [ [ ^ n b b : q ,.y.9.*.#.| ^ n n a > 3 H ",
"g g g g h h L p < q #.i.s.u.<.' E n x q 9 l W ( _ ] ] ] [ ' ( ( ] | [ +.[ | [ [ [ ] [ [ | ^ b n b < $ C 1.t.w.1.` c x l 8 3 h I ",
"g g g h h L P p $ Z e.a.q.#.] [ ) W n b : * n ] @.+.| [ [ [ [ [ [ +.[ [ [ o.[ [ [ [ ] +.[ / b n n 1 o : n ) ' / 0 > > 1 2 h I I ",
"g h h h P L P d & W q.r.=.' ' [ [ ` ~ b > > b ( ) ) ) ] | ' ) ( ( ] ] ) ( ( ) [ o.[ | +.' W n n a : 1 5 2 % * & : : : 1 h I I I ",
"P L P L P P P f $ Z 9.>.{ ' ] [ | | ) n > 1 c E E n W ' | ( E n n Q ( W C c E ` | +.+.' W n n l > * y s p p d d h G G G P P P P ",
"P P U U P U I h & Q 1.>.[ ' [ [ +.' ~ b > > c ( ) ) ) [ [ _ ) ^ n c E / ) E x E ` +.' Q V b r > : 0 s h G U I U I I R I P P I P ",
"P P P U U I R h * Z w.e.=.[ ] @.#.( E a > : n [ #.#.+.+.[ [ +.[ ( W / | @.] W b E ( Q V n a * O 5 g s h L P U U P I I I I P I P ",
"P P U P Y Y R P 3 j #.i.r.*._ _ ] ( V 0 : 6 m [ ] ) ) [ [ [ [ [ | +.+.+.] _ ~ n x b l q 0 3 @ O t h s h P U U I I I I I I I I P ",
"P U P I I I I I P 3 a ;.e.@.n a l n q < < q Q ) W x J ( +.| [ | | | ] _ W b b s b a 0 & & 8 0 : 5 f f h U T T T I I I P T I P I ",
"P P P I I I I R T G y a c q & $ $ % q Z l z / Q c a a E _ ] o.] [ ( E V b l l n b q 1 3 0 l c u : 5 h G U T T I I I I I T I T P ",
"P P I I I I I I I T H 3 : - 2 < :   l =.] / ) / Q W Q Q W ` _ ( ' ) Q W Q Q ~ / / m m W E n I b & 2 G P I I T T P P I I P I I P ",
"U P P U P P I I I I I P P P P h g o q <.<.| ] ] [ [ o.' W ~ ) ^ ` [ +.] [ [ [ +.+.' ) ] ( m n l & 1 G P I I P I I I I T T I T T ",
"P I P P I I P I P U U I T T U P M + 9 <.<.[ ' [ [ [ @.] W W ( ( ) ] +.+.@.+.[ ] ] / / [ [ ^ V l & 3 P P T T I I I I I T I I I I ",
"P P T I I P P P P U P P U U P P h + 9 <.1.@.] ] [ [ [ ] _ Q W W W / ] ] ] ] ) W E W ) | | ^ V l & 3 H P T T I I I I I T I I T P ",
"I P P P T I I P U P U P U P L L s + 9 1.r.0.>.[ [ [ [ | +._ Q W W W W W / / W l n ) +.[ ( I n l & 3 H P P T T P P T P T P T P P ",
"P P I P P P T P P U P U P M V h g % 6 ] e.u.1.+.( ) [ | | | [ | +.) E n W ~ E V / | @.] W l n z & 1 h U I I T I I T I I T P P P ",
"P P P P I P P I P P P P P P G G s d * 3 #.9.>.' m W _ ] [ +.+.+.+.[ ' ] ] _ / ~ ) ' +.] W b n j & < h P P I I U P I P P I P G L ",
"P T P T P P T P P I P P G G G h h h - @ ] <.@.) m x n W _ o.+.| ] ] [ ] ] ( W W ~ ) ] ' W n a = < i s P P P I U I P I P P P G G ",
"P P T T T I P T P P P G H P G h s h < * o.1.#.] ) m a x W ( ( / / ( / W ~ E b c W W ~ W V V 0 @ 5 d h L P P P U I I I I L L G g ",
"P P I I T P I P P P P P P H h G h h < * O.1.@.' [ ' I u 0 q l l n E n l E W E W ~ ^ E b b V q $ 5 g g P P P P P U P I I T L G g ",
"P T I I P P I P P P P P H H h h h h < * @.w.=.] [ | Q 8 @ * 3 q l b a l ) #.+.] ] [ ) n b c 8 * t d s L P P U P T R T T T L G i ",
"T T T T T T P P P P P L P h h s p p % * ] t.e.=.| ' W 0 * > a s n a 1 l [ 1.1.#.+.@._ W b q : 4 d s g L P P P P T R T T T L L g ",
"I T T P I P T I P U P P L L h f 5 w < O j :.a.w.+.E l 8 1 0 s b c 0 > 3 n #.e.<.o.) W I c 1 % e s d s V L P U U T T T T L L G i ",
"I P I I I I T I U P P P P V s d w 5 3 +   j %.:.C q 1 % 2 e p a a p 8 > @ l @.@.Q l q q q > - w p i d h L P P P T T T R L L L L ",
"I I I I T T I I U P P P P h h d p 5 5 % + $ > > $ @ $ - 4 w e 5 p p e 1 * = 7 1 * * & $ & * 4 w 5 p d h L P P I T T T R T T T P ",
"I I I T I P I I U U I P P G h f 5 w w 4 < % + + % % < 5 5 5 5 5 3 3 5 e 5 < % $ # % % % % - 4 4 p d f h L P P I T T T R R R R T ",
"P T T R T I I I U I I P P G h s e w 5 5 5 5 4 4 5 5 w w p w 5 w 4 4 5 5 7 4 < < < 4 5 4 4 4 w p s h s G P P P I T T T R T R R R ",
"P T T T T T T I U P I I U P P G h d i p d p e p w w w p p p p p e 5 5 5 w w 4 4 5 e i i e p s M M P P H L P P I T T T T R R R R ",
"L L T T R R R R I I I I P P P h h h s s g g d p w e e d s h s d p e 0 p p p p p p d p p s h H H P P P P U U U I T T T T T R R R ",
"G L P T R R R R P T P I U P P h h h G g s s h s h g s g h h G h s g d g s h h h h s h h h G P P U P P P T T I I T L L L T T R R ",
"i G P T R R T T T T I T I P G h g g g h h L L P M M M h G h h h h h h h L g h M h L G G G L P P U P U U T T T T T L G L I R R R ",
"i G L T R T T T T T I T I U P g g g g g h L P L L M V M L h V P h M h h L V L M L G L L L L P P U U U P T T T T L L G L I R R R "
};
