/* XPM */
static char *r_player_atk_31678373334[] = {
/* columns rows colors chars-per-pixel */
"64 64 110 2 ",
"   c #050305",
".  c #0A030B",
"X  c #0E0B11",
"o  c #140C13",
"O  c #1A0E15",
"+  c #151215",
"@  c #1C1117",
"#  c #161218",
"$  c #1C1419",
"%  c #1E191D",
"&  c #21151B",
"*  c #231A1E",
"=  c #291A1F",
"-  c #1F201F",
";  c #1F1D21",
":  c #261620",
">  c #241C21",
",  c #2A1E22",
"<  c #242324",
"1  c #2C2225",
"2  c #262629",
"3  c #2A2629",
"4  c #272929",
"5  c #2C2C2C",
"6  c #312326",
"7  c #332629",
"8  c #342A2C",
"9  c #3B2C2D",
"0  c #2F302F",
"q  c #3F322E",
"w  c #2E2E31",
"e  c #312F31",
"r  c #3C2E30",
"t  c #2E3434",
"y  c #333434",
"u  c #3D3232",
"i  c #363837",
"p  c #373738",
"a  c #383738",
"s  c #353A3A",
"d  c #3C3D3D",
"f  c #402E2F",
"g  c #41312F",
"h  c #412E30",
"j  c #433535",
"k  c #4A3636",
"l  c #443837",
"z  c #4B3937",
"x  c #453A39",
"c  c #4B3D3B",
"v  c #523D3B",
"b  c #3F403F",
"n  c #4E403E",
"m  c #53413E",
"M  c #58423F",
"N  c #3E4040",
"B  c #444444",
"V  c #4A4545",
"C  c #474847",
"Z  c #474848",
"A  c #484848",
"S  c #544441",
"D  c #5A4643",
"F  c #574945",
"G  c #5C4A46",
"H  c #5F4C48",
"J  c #624B46",
"K  c #634E4A",
"L  c #684F4A",
"P  c #655246",
"I  c #66514C",
"U  c #6B534E",
"Y  c #6E584F",
"T  c #70554F",
"R  c #6E5650",
"E  c #6F5A52",
"W  c #715651",
"Q  c #745B54",
"!  c #795E56",
"~  c #7B5E58",
"^  c #766056",
"/  c #786156",
"(  c #7D6159",
")  c #82645C",
"_  c #84695E",
"`  c #856C61",
"'  c #8A6D62",
"]  c #8E7365",
"[  c #907366",
"{  c #937669",
"}  c #94796B",
"|  c #9A7D6E",
" . c #9D7F70",
".. c #9D806F",
"X. c #9D8171",
"o. c #A38574",
"O. c #A68977",
"+. c #A58A78",
"@. c #AC8D7A",
"#. c #AE907D",
"$. c #B1937E",
"%. c #B59581",
"&. c #B79983",
"*. c #BB9C86",
"=. c #BE9F88",
"-. c #BFA089",
";. c #C09E88",
":. c #C4A48C",
">. c #CBAA91",
",. c #D8B69A",
/* pixels */
"s s t t s N N N Z Z Z Z N N s s s s s t s s s N N N N N B B N s s s s s s N Z Z B d s s s N B Z Z C C C A A A A V Z A A A Z A A ",
"d s s t t s N N Z Z Z N N N N s s s s s s s t N N N N N B B N N s s s s N N B Z B d s s s N B Z Z Z C C B A B A B Z A Z A A A A ",
"N N s t t N N B N N Z Z N N N N s s s d N N s s N s N N N B N s s s s N N N B B B d d d N N Z Z B Z B B B A B Z Z B A Z A A A A ",
"N N N N s N B B N N N Z N N N N N s N d N s N N N N N N s N N d s s s N N B B B B B B B B B B B B B B Z Z B Z Z Z Z A V Z A Z A ",
"Z Z Z N B Z B B Z N Z N Z Z N N N N d d d N N N N s N s N N N d a d N N N b B b B B B B B B B B B B B B B A A V Z A A A B A A A ",
"Z Z Z Z Z Z C C Z B Z Z Z Z N N N N N N N N d d N s s s N s d d d d b b N b b b N B d B n B N B B B B B B B B B B B Z B A A A Z ",
"Z Z Z Z Z Z B Z Z Z Z Z Z N N N N B N N B N d d N s N N N N d d d d b b b b b b N N d N d N B b N N B B B B B B B V A A A A B A ",
"Z Z Z Z Z Z Z Z Z B Z Z Z Z Z N N B B x B N B N s N s N s N d d d d b x b b b b x N d N N d b b N B B N B B B N B B B A B B Z A ",
"Z V B Z A A Z B C B C B B B B B x N N N N N N d d d d d d d d d d d d d d d d d d x N d d d d d d d N N B N N B B B B Z B B Z Z ",
"Z A A A Z B Z Z C C B B B B B N B B B N N x d B d d d d d a d N d d d d d d d l d d d d d a s a p d d d d d B B B B B B Z Z B Z ",
"B Z B A B A B V B B C B B B N B B d B d N d d d d a d a a d N a a b a d d d d d d d d d a a i s i s s s s d N N B N B B B Z A Z ",
"B Z A A A B A B B B B B B B N N b b d d N d d a a a a d a d a a N a a a d a a d u a s s s s s i t t i p s s s d N N N B B V B Z ",
"A A V Z A Z B B B B B N x N N N b b b d a s a s s y s a a a a a a a p p a a s a s s a a i y t t t t t t t s s p d d d B B B Z Z ",
"B A B B B B B Z V d y 5 4 4 3 3 8 y 5 2 2 u F S 8 3 5 1 3 3 3 3 8 8 5 8 8 8 8 w p a p 5 2 - < 2 2 < 2 2 4 w s s s s N B B Z A B ",
"A B Z B Z B Z Z N > # 1 8 r e 6 * o # > 7 R o.` v 6 8 r r r h 9 8 8 9 r r j , : y y % o > 8 1 % % % ; % > 2 t s d s d B B Z B A ",
"B A B Z B B Z N 3 . 1 W ` ) Q v @   1 E ` #.:.o.! S S U R R W L n x c c n V 9 @ 2 3 X # J ' H 7 , 8 7 1 8 > < t d N N B B B B Z ",
"B A Z B Z B b 3 # q ] :.%.O. .G O , _ :.>.$.} ( U H R ) ` ) ) ) K G m x l c j > ; j S R $.*.[ G x F F x x r , 2 d B N B B B B C ",
"A B B Z Z B e & n ` @.$.| [ ` l   G *.:.#.] ! Q G R ' [ ' ' ' ) ! ! U G F n c r # U $.&.$. .' Q n K Q H n c r 1 w d B B B C B C ",
"B A B V Z V 3 & ] } E ! ~ Q D 1 $ _ #.' ~ ) ! D 8 c T W U L Q ) ) ( ! U I V x 8 O / ,.:.' Q Q U n K ~ R n x c 9 : y B B B B Z B ",
"A B B B Z B 3 & @.` u c T U 9 & I } _ ! Q Q D 6 : , 7 7 6 6 z ~ ' ) W G D c c 9 o Y :.$.) W U H K Q ) Q n l S x $ 1 C C B B N B ",
"B B Z B B B 3 & o.[ k j S F % @ o. .Q ~ ~ M 9 f h h 7 : % ; , v ~ ' U x v J U c @ m | { ~ K D J ~ ) ) Q n x n j $ 3 Z B B N d s ",
"V B B B B B 3 & .. .K c x q , m %. .W K M f k T Q W K v x l 7 1 v U G D L Q ) K & 9 Q ) Q S x G R ~ ) ! n x x j $ 3 Z Z N d s s ",
"Z B B B B B 2 $ $.$.) I x $ j o.=.[ L j 1 h T ) ` ) ~ ~ ~ K x 1 & 9 J ( ) ) _ L o k ' ) U m z m z F W W m x S x @ 1 B Z N N d s ",
"B B V B B B 3 , | ;.| ! l o c >.:.Q D z 6 v ) ~ ~ ~ ~ ~ Q K F u o % G ( ) ) ) J O D #.| H S U J l x S S k x n j & 3 B B B N N d ",
"B B B B B b a 8 v  .%.~ x O k ;.:.I V L v J ) ( ! ~ ~ ( ~ W H l O > S I Q ~ ~ R v z ] +.Q P ( Q J G F x x c j 1 1 d b V B b B N ",
"Z B B B B B b e o ) ;.' x @ l *.:.~ H K v L _ ) ) ) ) ) ( Q K j $ 1 x S R ~ ! ( / 1 n &.#.) ~ _ ` Q F x n S 9 @ e N b B N B N B ",
"B B B B B b B a # G { Q z $ x &.&.' K r 1 k L L U L K K K m c u & 1 x n U ( ! ( ) g q ] o.} ' ( ~ R S c x j 6 ; d B N b N d N d ",
"B B B B B b N d w r k h 9 $ c %. .) S : O : 9 h 6 6 9 9 7 6 j j $ 6 x c U ~ ! ~ ( I z 9 z _ _ S v x x j 7 , , w d N N N N d d a ",
"B A B B N B N b p w < < > o v @.' Q k & 7 , , 9 O = v j & 7 S x $ 1 x m E ( ! ~ ( W x > > c z > > , 1 1 < < e a N N N N d s s s ",
"B B V B B N N b a y w w > X v %.[ ! k = M J M L k M ) U 9 k I x O > S I ! ( ~ ) ( H z x u 1 > = : $ $ < w e y a a d d d s s s s ",
"B B B B B N b b p s s t 2 X S @.` ! D 7 v W ) ` ! ( ' ( G F F 9 $ 8 F U W Q Q U I S H W H u 8 j j = $ 5 y s s s d d d s d s d s ",
"N N N N N d d d s p i t 4 # S O.K D Q D 9 h m S D S S S c z 8 , 8 z m F H W T n c H Q ( W D c V S 1 % y a y s d a d d d d d N N ",
"s d s d d d d d a s i t 0 # M o.F r R ~ D , @ % * * $ * * = , 1 u x u l D W W K G W ( ( ~ G x B n 1 = y d a a a b b d N B b B N ",
"t s t d s d d N d d s y 0 + M O.E x H Q ! D , $ @ $ # $ % * % @ : > * 1 9 j D ! ~ ! ! ( ! G u c c , % p a d b d d b N B B B B B ",
"s s s d N N d x d d d s t # m #.' W K F W Q G v c x x c k 6 , q l l 9 = = = 9 J ) ) ! ~ ! D j c c = * p i a d d b n b N B B B B ",
"N N d N B N d B d d s d y # M &.) M k 8 j v S J ! ( ( W H q m } o.| ! x 8 q 7 7 J ! ! ~ ! G l c n 1 * i d a d d b d b N B B B B ",
"N N Z N N N N d d d d d p % S o.D , , : * * , j W _ ' Q k M ..-.:.o._ K n x j 7 6 D ( ) ! D l n n 1 < p a d d d N N x B x B B C ",
"N N B B N N B N d b d a a 5 7 c J K I H 8 > 1 7 q S Q L 6 E :.-.X._ ~ Q I S c u $ k ) ) U V c c 9 < 8 a d a d b N N N N N B B B ",
"N B Z B B n B N b d d d a 5 : k | &.#.{ H u j u , 6 v D 1 Q =.o.~ W Q ~ ! D n y @ c ) E m c c 9 , 5 p a a d d d N N N B B B C B ",
"B B B B B B d b b b d n s > j o.:.-.O.' Q G c x j , f k 1 ^ o.( U W Q / ( H x 9 @ z Q D c x 7 % 5 p a d d d n d b b B N B B C B ",
"B B B B B B d B x N d N y $ c ;.:.X.) Q ! Q D c c > 8 k 6 ! o.Q U Q Q ~ ~ G c u @ 9 F n x 7 @ O y d a d x d b b B b B B B B V B ",
"N B C B B B B N N N d d i # v &.O./ T Q ! ~ ! K n > 9 v 7 Q *.} ! T Q ! I V c j @ 7 l 1 1 1 $ O y N a d d d b b b B b B B B B B ",
"B B Z B B B N N N N N d i # v @.' U W Q ! ~ ! U n * 6 v k G ..$.X.{ ' U S c j 7 = 1 1 * : q 9 , 3 a x d d d b b b B B B B B B V ",
"B B B B B N B B x B d d y # v %.{ U Q ! ~ ( R S x = = S J k G { } { W l 8 8 7 7 u 8 7 u u x c r : 5 d d d d b b V b B N N N B B ",
"B B B Z B b B b N N x N p % z $.%.] ( ~ ( ) R c j : 7 G J D v l j j 9 = $ * 9 D W K G K S x V j $ 3 N d x N N b N B B N N N N B ",
"B Z B B B B B V N N N N d t 7 E %.*.' J G J G u 1 9 K R F K U z k v z v z z J ) ) U I ! U m n j @ 3 d N d b b B B N B N N N N N ",
"Z B V B B B B b B B B N d d 5 1 U ` G 1 > > < , 6 J ( Q H D J D G T ) ) ) ) ~ U K H I ( ( G c j $ 3 N N b b B N B B B B N N N N ",
"B B B C B V B B N B x d d d a p 1 @ = 6 , , & 1 L ) ~ ~ W H m c m K W W Q Q L z c J Q ( Q D c u O , d d b b N B B B B B N N N N ",
"Z B Z B B B B B B B b b b b b b 5 O 9 ` | ] Q P ! ) ~ ! ~ E K U I D n m S S x x G ! ( ! D c c j O 2 N N N B B B B B B B N d N B ",
"B B A B Z B A B B N B N B b b b d 5 8 Q @.+.[ Q J U ~ ( ~ ! ! ( ( U G G H c r x R ) ( W n l n j @ > N N N B B B B B B B N d N N ",
"B B B A B A B B B B N B B N b d d d < 7 { | / U c S I U ! ( ( ) ( ( ! ! I D m D Q ( ( W S x x 8 > 3 d N x N B B B B C B N N s s ",
"Z B A A A B Z B V B B N b N x b d d < 1 ] } Q T S x z S U ! Q Q Q ! ! E I E ! Q ! Q E I S c 9 $ e s d N B B B B C B B Z Z N N s ",
"Z B A B A B V Z B B B B B B N d d d > 7 { ..Q W R S l l V m S m S m m S K Q ~ ) ~ I S n n c 7 @ e d a B B B B B Z Z Z Z Z N N s ",
"Z A A A A A B A B B B B b b d a y p % 8 } $.{ ) ! J c j 7 = > , : > = 1 7 9 M ( ) W D c x 8 @ @ y d d N N B B B B Z Z Z Z N s s ",
"B A B B A A B B A B B B B d d u 0 5 * & K #.=.| ! F j 1 * % > % % % % > % o 9 ) ' ! H V c 1 @ < y p a N B B C C Z Z Z Z N N N s ",
"A A A A B A A A B A B B B b d p 0 5 < O @ P +.{ c 9 1 * < 5 5 5 5 5 0 3 1 $ 7 T W v j j u = * t y w u N b B C B Z B Z Z Z N N N ",
"Z A Z A A B A B V A B B B b d a y 5 5 * + & 6 = @ @ * < 4 0 t 4 4 5 5 < < - * , = * @ @ * * 4 0 e y a a N B B A Z Z Z A Z Z C B ",
"Z B Z B A Z A A A A B Z B N d a 5 0 5 4 - $ + + % % < 5 0 5 3 5 4 4 4 < - - * + + # % % % < 4 4 e a a d N B B A Z B Z A A A A Z ",
"B A A A A Z B A Z A B B B N x d y 0 0 3 5 0 4 4 4 0 5 0 y 5 0 0 4 4 4 4 4 - - - < 4 5 3 4 4 0 0 a d d b b V C B Z Z Z A A A A A ",
"B Z A A A A A Z B A A A B B N N a y y t y y 0 y 0 0 y 0 y p y y 5 5 5 5 5 5 4 4 5 0 y w 0 y a n N B B N B B Z A Z Z Z A A A A A ",
"B B B A A A A A B A Z A V B B N b d s s a i p i y 0 y y s a d u y 0 0 0 y 0 y y y s y y p x N B B B B B Z Z Z B Z Z Z Z Z Z A A ",
"d N B A A A A A A A B A A A B d s d d d d a d a a a a d d N d d d a i y a b d d a d d d d N B B V C B B Z Z Z Z B B N B Z A A A ",
"s d B Z A A A A A A B A Z Z N d s s s d d b B b b b b d d x d b d x d d s b n b d N N N N N B A C C V Z Z Z Z Z B N d N A A A A ",
"t s B Z A A A A Z Z Z Z Z Z N d s s s d d b N B N b b n B d N b b b b b b b b b N N N N N N B B B C C Z Z Z A Z N N d N Z A A A "
};
