/* XPM */
static char *r_player_atk_11678373333[] = {
/* columns rows colors chars-per-pixel */
"64 64 139 2 ",
"   c #050305",
".  c #080507",
"X  c #0B050C",
"o  c #12070F",
"O  c #0E0B11",
"+  c #110711",
"@  c #140B13",
"#  c #190E14",
"$  c #160A19",
"%  c #1C0E1B",
"&  c #151215",
"*  c #1C1117",
"=  c #161219",
"-  c #1C141A",
";  c #1D191D",
":  c #21151B",
">  c #231A1E",
",  c #281B1F",
"<  c #1F201F",
"1  c #1F1E23",
"2  c #241C21",
"3  c #2A1E22",
"4  c #301F24",
"5  c #242224",
"6  c #2C2225",
"7  c #262629",
"8  c #2A2629",
"9  c #272929",
"0  c #2C2C2D",
"q  c #322326",
"w  c #342925",
"e  c #332628",
"r  c #342B2D",
"t  c #3A2C2D",
"y  c #2F302F",
"u  c #303520",
"i  c #3F322E",
"p  c #2E2E31",
"a  c #3E2133",
"s  c #312F31",
"d  c #3C2D30",
"f  c #2E3334",
"g  c #333434",
"h  c #3D3233",
"j  c #353837",
"k  c #363738",
"l  c #383738",
"z  c #353A3A",
"x  c #3B3D3D",
"c  c #402F2F",
"v  c #41312F",
"b  c #412F30",
"n  c #423535",
"m  c #483635",
"M  c #443837",
"N  c #4B3937",
"B  c #4B3739",
"V  c #463A39",
"C  c #4B3D3B",
"Z  c #523E3B",
"A  c #3F403F",
"S  c #4A552F",
"D  c #4E403E",
"F  c #53413E",
"G  c #59433F",
"H  c #584D3E",
"J  c #5B5A3D",
"K  c #58782B",
"L  c #637A32",
"P  c #3F3F40",
"I  c #4D3C41",
"U  c #3E4141",
"Y  c #444545",
"T  c #4A4645",
"R  c #474847",
"E  c #474848",
"W  c #484848",
"Q  c #544441",
"!  c #594643",
"~  c #574945",
"^  c #5D4A46",
"/  c #5D424B",
"(  c #5F4C48",
")  c #614B46",
"_  c #634E49",
"`  c #694F4C",
"'  c #66514C",
"]  c #6B534E",
"[  c #6E584F",
"{  c #70554F",
"}  c #6E4854",
"|  c #71465B",
" . c #75495C",
".. c #6E5650",
"X. c #6E5952",
"o. c #715751",
"O. c #745A54",
"+. c #795E56",
"@. c #775658",
"#. c #7C5E58",
"$. c #677341",
"%. c #776056",
"&. c #796156",
"*. c #7D6159",
"=. c #82645C",
"-. c #84695E",
";. c #857F54",
":. c #866660",
">. c #896564",
",. c #856D61",
"<. c #8B6D62",
"1. c #8D7265",
"2. c #917367",
"3. c #937668",
"4. c #95796B",
"5. c #9A7C6E",
"6. c #9E7E70",
"7. c #8A8856",
"8. c #8CBF43",
"9. c #9ABD4E",
"0. c #92AA52",
"q. c #9AA857",
"w. c #9D806F",
"e. c #9E8171",
"r. c #A38574",
"t. c #A68877",
"y. c #A88A77",
"u. c #A68A78",
"i. c #AB8D7A",
"p. c #AE907D",
"a. c #B1927E",
"s. c #B59581",
"d. c #B79883",
"f. c #BA9A85",
"g. c #BE9F89",
"h. c #C09E88",
"j. c #C4A48C",
"k. c #CCAA91",
"l. c #D8B69A",
/* pixels */
"z z f f z U U U E E E U U U z z z z z z z z f f U U U U Y Y U z z z z z U U Y E Y x z f z U Y E R E R R E R Y E Y T T E E W E W ",
"x z z f f z U U E E E E U U U z z f z z P z A U U U U U Y Y U U z z z z U U R Y Y x z z U U Y E R Y R R Y R E E E E E E W W W W ",
"U U z f f U U U U U E E U U U U z z z A z f U f U U U U U Y U z f f z z x Y Y Y Y x x x U U E E Y E Y R R R E E E E E T W W W W ",
"U U U U z U Y Y U U U E U U U U U z U z U U U U U U U U z U U U z U U U Y U Y Y Y Y Y Y U E Y Y Y Y Y Y R Y E E Y T E E E W E W ",
"E E E U U E R Y Y Y U Y E E U U U U U P U U z U U U U z U U U z z x U Y x Y I U Y Y Y Y Y Y Y U Y Y Y Y Y Y Y Y E T E E E T E E ",
"E E E E E E R R Y E E E E E U U U U U U U U U x U f z U U z z U x x x U Y x U A x Y x Y U Y U U I Y Y Y Y Y Y Y E Y Y E E E T E ",
"E E E E E E E R E E E Y E E U U U U Y U U U A x U f U z z U z z x x x V x Y A x U U x Y U Y Y D U U Y Y Y Y Y Y Y Y T E E E E E ",
"E E E E E E E E E Y E E E U E U V Y U U Y U U A U A U A U U U z x x x Y x x x A U V x x A x A A U U Y Y U Y Y Y Y Y Y Y E Y E E ",
"E E T Y E E E E E Y R Y Y Y Y P Y x Y x V U U A x A x x x x x x x x x x x x M x x z A x x x x x x x x U U Y U Y Y Y Y Y Y E E E ",
"Y E E E Y Y E T R E Y Y Y Y Y Y U Y x Y Y U A I x x l x l x x x x x x x x x x x x D x x x l l z z x x x x x U Y Y Y Y Y Y E E E ",
"T E E E T E Y Y Y Y Y Y Y Y I U U U U D x x x x x l l x x x x x x x x x x x x x x x x x l z j z k z z z x x P U Y Y P Y Y Y E E ",
"E E T Y E E R Y Y Y Y Y Y U U U U x U U x x x x l l x l x l l l l x l l x l x x j l l j l z z g g f z g z z x x P P P Y Y Y E E ",
"Y T E E E Y Y Y Y Y Y Y U U P x A A A z j x l z j j j l l l k l l l z j l l l l l l l l j g f g f f f f f z z z P z P Y Y Y E E ",
"Y E Y Y E Y Y E Y x g 9 9 9 8 0 r g p 5 5 h ~ Q r 8 8 8 8 8 8 8 r r e 0 r r 0 r j l l 0 7 5 5 9 5 5 7 7 7 f z z z z P Y Y E E Y ",
"E T E Y Y Y E E V 1 * 6 r r r 8 : @ * 5 e [ r.-.F q t i d d b d e r r t h v q ; y g ; @ 2 r 6 ; ; ; ; ; 2 7 f f z x P U Y E Y T ",
"Y Y Y E R Y E U 8 X 6 O.,.=.+.Z *   6 X.,.p.j.r.%.Q F ' X...o.] D C D D D T t * 9 0 O & ) ,._ 6 8 e e e e 5 5 f P P P Y Y Y Y E ",
"E Y E Y E Y P 8 = i 1.j.s.y.6.^ # 3 -.j.k.s.4.*.] _ ..=.:.=.=.=._ ^ Q V M C n 2 ; n F X.p.g.2.^ N ~ ~ C N t 2 7 x Y V Y Y Y E Y ",
"Y E T Y E Y s - D ,.y.s.5.2.,.M   ) g.g.p.1.+.o.! ..<.<.2.<.-.=.+.+.] ^ ~ D C d - [ a.d.a.6.<.O.D ( O.^ T N d 6 p x Y Y Y Y E E ",
"Y Y E Y W T 8 : 1.4.X.+.+.O.! 6 * -.p.<.+.=.+.~ t C { { ] ` O.=.=.=.+.] _ T C r & &.l.j.1.@.O.] Q _ *...F C C t > g Y Y Y R R Y ",
"T E Y Y E Y 8 : y.,.h C o.] t : ' 4.-.+.+.O.! q > 3 e q q q B +.-.=.o.^ Q Z C r @ [ j.p.=.] ] ^ _ O.*.O.F M T n - 8 R Y Y U Y U ",
"T Y Y R E Y 8 : r.2.M n ~ ~ ; * 6.r.O.+.+.! t t c b e > - > 3 Z #.<.] N F ) ' C * F 5.3.+._ ! _ #.=.=.O.Q M D n - 8 E E U P P z ",
"Y Y Y Y Y Y 8 % w.6._ Z V r 3 F a.6.O.) G c m { O.O._ Z C M e 6 Z ] _ ~ ] O.=.` : c O.+.O.Q N ^ ] +.=.O.I M C n - 9 R Y Y x z z ",
"Y Y Y Y Y Y 7 : a.a.=.' M ; n r.h.2.` M 3 b } =.-.-.=. .| / n 8 > t ^ #.=.=.-.` o m 2.=.] F N F N ~ O...F V Q V * 6 Y Y U P z z ",
"Y Y Y Y Y Y 8 3 5.j.4.+.m @ N k.j.+./ B % Z <.#.@.@.#.=.=.^ I n @ ; ! =.=.+.=.) * ) a.4.( Q ] ^ n V ~ Q N V D n > 8 Y Y Y U U U ",
"Y Y Y Y Y U g 0 Z r.i.*.V # N j.j.' ~ ! w L q.=.@.@.;.9.9.$.C h # 3 Q ' O.#.#...Z N 1.u.%._ *.+._ ^ Q V V C n 6 6 l U Y Y Y A U ",
"Y E Y Y Y Y Y 0 @ =.h.1.N = M f.j.%._ Q w K 0.1.>.>.7.8.8.$.I d : 6 C Q ..#.+.*.+.6 D d.p.=.+.-.=.O.! V D Q t - f I U U Y U U Y ",
"Y Y Y Y Y U Y z * ^ 3.O.N - N d.d.<._ a # u J ` } ` H S S n n h : 6 M C ..#.+.*.=.v h <.r.4.-.*.*.X.~ C M n e ; z U Y U U U x x ",
"Y Y I Y Y U U z 0 t n n t - Z a.5.=.! ; + $ : 4 6 4 3 % $ % d n - q V C ] #.+.#.*.` N d N -.<.Q C C V n e 3 6 0 x Y x I U U z z ",
"Y Y Y Y Y P x I l 0 5 7 2 @ F i.<.+.N : q , : e # , N d % 4 Q M - 6 V Q ..*.+.#.*.o.C 2 2 N N 2 > 3 6 6 5 5 r z x U x U x z z z ",
"Y Y Y Y Y Y Y U x g f 0 1 + F p.<.+.m , ) ) ! ] m G -.o.t B ] m # 2 Q ' #.*.*.*.=.^ V V d 6 3 > 2 : - 5 0 g g l x x x x z z z z ",
"Y Y Y Y x Y x P z j j f 7 O F i.,.+.! e Z O.=.:.+.*.1.*.^ ~ ~ r : e ! ] ..O.o.] ' Q ~ o.( h t n n , - 0 g z z x x x x z z z x z ",
"U U U U P x x x z j g g 0 & Q u.' ! O.! e b Z Q ! Q F F D V r > e n C D Q ] ] D N _ O.*.O.~ N T Q 6 ; g z j j l l x x x A x U U ",
"z z z x x x x x z l j j 0 = G u.~ d ..#.G 3 = ; > > ; ; > > 2 e M M h n ! O...^ ~ ..*.*.+.( N I D 6 ; g l l x x x x x U Y x Y Y ",
"z j z z A x x x x z z z 0 * F i.X.N ~ O.+.G 4 = # - - - - > 2 h ~ ( Q ! ..#.+.O.O.+.+.#.+.^ l C C 6 > g z x x x x D A A Y Y Y Y ",
"z f z x U Y Y Y A x z z f = Z i.*...^ Q ] o.! C M N N V N M V ! X.+.O.O.+.+.+.#.+.+.+.#.+.^ n C C 3 > g z l x x U U Y A D Y Y Y ",
"U U z f f g g g g g g A g = F f.4.O._ N C Q ' +.#.O.O.O.O.O.O.+.=.*.*.=.*.*.+.+.+.+.O.+.+.~ n C F 3 > z A U V Y U U Y Y U Y Y Y ",
"U U f 1 = > 1 > 2 2 8 l k 1 Z f.s.:...Q V h ^ *.:.*.*.*.*.*.*.*.*.*.*.+.+.#.+.+.+.+.+.*.+.~ V D C 6 2 k k g k l x P A I U Y R Y ",
"U f s Q ' ' C 6 3 8 6 8 g 8 r #.s.1.O.] ( C C ( ( ^ ' #.+.] ^ ^ _ o.o._ ~ ^ ..*.#.#.+.+.] Q C C t 6 0 g 5 = = ; 5 7 5 s U E E Y ",
"s r ] t.d.y.-.C h n t 6 0 g ; w p.p.<.<.O.C V Q Q Q _ O.+.( Q C n Q _ Q F M C o.*.=.*.] F C C t 6 0 p 5 r n M n 2 > 3 2 0 Y E E ",
"# _ s.j.d.e.*...Q C V d 3 0 1 > <.k.f.6._ n Q ..O...O.#.+.o.X._ C n Q ..o.~ n Q X.*...Q C N e > 0 g 5 r -.t.y.1.Z r h t 3 p Y E ",
"@ +.j.d.4.*.+.+...Q C h > 8 g 7 n 5.i.%.M h ! =.=.*.*.#.+.+.*.+.] _ ..*.=.O.^ V Q ^ Q C V r # = s 8 b -.f.j.a.3.O.Q C V d 6 s Y ",
"O +.s.4.O.] O.+.*.o.( n > 8 x g 8 Z F q r x ^ +...( ..#.#.+.*.+.&.*.*.*...' ! M n C h 6 6 6 : * g 5 N a.j.i.2.+.+...! C n 2 5 Y ",
"@ O.r.*.{ O.+.+.*.o._ h : 8 x x g > > e r n ) _ C h C ] +.*.+.*.*.o.] ( C l M M n r 6 ; 2 t t 6 8 = Z a.p.-.o.O.O.*._ D M , 3 R ",
"o +.p.-.{ O.+.*.*.' Q h > 8 x x g = v &.N Z ] Q V V C ! ] +.O.o.O._ Q D C V C C C t e d h V C h 2 X N t.2.O.o.O.#.*...C n 2 2 Y ",
"* o.s.y.<.+.+.*.=._ C d > 0 x x l = N w.*.` O.] ' ] ' _ ! ] ] ^ o.O._ ' ] ' ] ....^ ^ _ Q V D n > . Z t.1.{ o.O.+.*.' D n , 3 Y ",
"0 M -.d.y.*.^ _ _ Q d 6 6 g x A l > N t.1.O.O.O.+.+.+.] F _ O.' O.*.+.+.+.#.*.*.=.] ' +.] F C n : . Z p.y.=.O.O.*.X.Q I M 3 2 z ",
"Y s M +.+.N 6 q w e 6 8 l A x A l ; m r.<.{ O.O.+.+.#.O.~ ^ _ ^ _ O.=.=.=.=.#..._ ^ ' *.*.~ C n > @ h ,.d.a.5.4.+.! C C t 2 0 x ",
"R Y g 6 , > - - - : 8 z D x x A l = B i.4.*.#.+.+.+.+.+.o.^ D C C _ o.o.o.O._ N N _ +.#.+.~ C h : 2 9 n -.r.y.4.F r h t 2 p P U ",
"Y Y Y k l x x P l l x P Y P P P k ; B y.s.u.2.+.O.+.+.*.#...' ] ] ~ C Q Q Q V M ^ +.*.O.~ C C n : 5 k g t e t q : # - 2 8 P U Y ",
"Y Y E E T E Y Y Y Y Y U P P Y P x 0 r ] u.y.<.o.^ ] *.*.+.+.+.+.+.] ^ ^ ^ C d B o.=.*.o.D n D n * 2 x x p 8 0 0 0 r r g P U U U ",
"Y R E R E Y E Y Y U Y Y U U x x x x 5 w 1.5.+.] C F _ ] +.*.*.*.*.#.#.O.' ~ Q ^ O.=.=.o.Q V M e 2 0 x U U U I Y Y Y E E U U P z ",
"Y Y R R E Y E T Y I Y U Y U I x x x 5 6 1.3.o.] Q N C Q ] +.+.+.O.+.+.O.' ..O.O.+.o.X.' Q C t : 0 k x Y Y Y U R T E E T E U P z ",
"Y E E Y T E Y Y Y Y Y Y U Y x x x l 5 e 3.w.O.O...Q V V D F Q F Q Q Z Q ` O.+.=.*.' Q D D C 6 * f z x U Y Y Y Y E E E E E U U P ",
"R E E E E E E Y Y Y Y Y Y A x l g g > w 4.a.2.*.+.( V n e > > 3 2 , 3 3 e t Z =.=.o.~ C n t - - g x z U U Y Y R E E E E U U U f ",
"Y E E E Y Y T E R Y Y Y U D x g y y > : _ p.g.w.+.Q n q > > ; 2 ; 1 > 2 > + c -.2.+.^ T C 6 # 5 g g l D Y Y R Y E E E E U U P f ",
"T E Y T E E E E R R Y Y Y x x l y y 5 # * ' y.2.C t 8 > 7 0 y 9 9 0 0 9 5 - q ] o.Z b n i 3 > g g g l x x R Y R E E E E U U U U ",
"E T E E E E E E R Y Y Y Y P x l s y 0 > & : q , - * : 5 9 y g 9 0 0 9 6 5 < < 3 , - - : : < 9 y g g g x I Y Y E E E E W E E E Y ",
"E Y E W E T Y E R R E Y Y P x l y y 0 9 < * & & ; < 5 9 0 0 9 0 8 8 9 9 < < ; & & - ; ; ; 5 9 9 r g l x U Y Y E E E W W E W W E ",
"E E E W T E E E R E R E Y U x x y y 0 9 y 0 9 9 9 0 0 g g r 0 y 9 5 9 9 9 5 < < 5 9 9 8 9 9 y y l x x P U Y R Y E E E W W W W W ",
"E Y E T E E W E R Y Y T R Y I x l l g g g g g g y y y g g j g g 0 0 0 0 w 9 9 9 0 y g f y g l D Y Y U U Y Y R R E E W W W W W W ",
"I U U E W W W E R R R R R Y Y x A x z z l g g g g y s l z x l l g y y y g g y g g j j g z x U I Y Y Y Y R R R R E E E E E E W W ",
"P P E E W W W W R R R E R Y Y x z A x x x x x x x l l l z D x x l l l j l A A l x l x x x U Y Y Y R Y Y E E E E Y Y U U E W W W ",
"z U U E W E E E E E E E E E U x z z z z x A A Y A A D A A x A x D x x x A A A A x x U x U U Y Y R Y R R E E E E Y U U U W W W W ",
"f U U E T E T T E E E W W E U z z z z z A A Y U A A A A U x A A A A x A A A A A Y U U U A U Y Y R R R R E E E E U U P U E W W W "
};
