/* XPM */
static char *r_player_atk_41678373334[] = {
/* columns rows colors chars-per-pixel */
"64 64 192 2 ",
"   c #070307",
".  c #0E0B11",
"X  c #140C13",
"o  c #1A0E15",
"O  c #141216",
"+  c #1C1116",
"@  c #161318",
"#  c #1C141A",
"$  c #1D191D",
"%  c #2C0E13",
"&  c #261116",
"*  c #2C1216",
"=  c #22151A",
"-  c #2E161A",
";  c #231A1E",
":  c #2A1A1E",
">  c #321114",
",  c #391B1B",
"<  c #1F1C21",
"1  c #251721",
"2  c #241C21",
"3  c #2A1E22",
"4  c #361F21",
"5  c #1F2120",
"6  c #242325",
"7  c #2C2225",
"8  c #272827",
"9  c #262629",
"0  c #2A2629",
"q  c #272929",
"w  c #2C2C2C",
"e  c #322326",
"r  c #382021",
"t  c #332629",
"y  c #3B2728",
"u  c #342A2C",
"i  c #3B2C2E",
"p  c #2F302F",
"a  c #3F322E",
"s  c #2D2F31",
"d  c #312F31",
"f  c #3C2E30",
"g  c #2E3434",
"h  c #333434",
"j  c #3D3232",
"k  c #363837",
"l  c #363738",
"z  c #383738",
"x  c #353A3A",
"c  c #3C3D3D",
"v  c #461C1D",
"b  c #432627",
"n  c #4A2324",
"m  c #462A27",
"M  c #562321",
"N  c #592B29",
"B  c #48312F",
"V  c #5D342D",
"C  c #412E30",
"Z  c #433535",
"A  c #4A3635",
"S  c #443837",
"D  c #4A3937",
"F  c #463A39",
"G  c #4B3D3B",
"H  c #523533",
"J  c #573836",
"K  c #523D3B",
"L  c #5C3C3A",
"P  c #6C2422",
"I  c #622A28",
"U  c #6C2F2B",
"Y  c #752421",
"T  c #772A27",
"R  c #65342D",
"E  c #723A2E",
"W  c #673D38",
"Q  c #723A31",
"!  c #3F403F",
"~  c #4E403E",
"^  c #53413E",
"/  c #5C433F",
"(  c #3E4040",
")  c #444444",
"_  c #4A4545",
"`  c #474847",
"'  c #474848",
"]  c #484848",
"[  c #544441",
"{  c #5A4643",
"}  c #574A46",
"|  c #5C4946",
" . c #5E4C48",
".. c #614B46",
"X. c #684944",
"o. c #634E49",
"O. c #714A45",
"+. c #655246",
"@. c #66524C",
"#. c #6B534E",
"$. c #6E584F",
"%. c #71554E",
"&. c #6E5650",
"*. c #6F5A53",
"=. c #715751",
"-. c #785651",
";. c #745B54",
":. c #7A5D56",
">. c #755F58",
",. c #7B5D58",
"<. c #7A6156",
"1. c #7D6159",
"2. c #982C27",
"3. c #8D382B",
"4. c #97302B",
"5. c #903D2A",
"6. c #8E3B38",
"7. c #973C37",
"8. c #9C3934",
"9. c #AF2F2A",
"0. c #B12B26",
"q. c #A5342F",
"w. c #AC3630",
"e. c #A73932",
"r. c #B43B34",
"t. c #BC3D32",
"y. c #86463C",
"u. c #994339",
"i. c #A94135",
"p. c #B1463B",
"a. c #C84639",
"s. c #D44C3B",
"d. c #CC513C",
"f. c #D9553E",
"g. c #884741",
"h. c #844A44",
"j. c #854F49",
"k. c #934740",
"l. c #954C45",
"z. c #9E4B41",
"x. c #85534C",
"c. c #8E524B",
"v. c #9B564A",
"b. c #835D55",
"n. c #8A5C54",
"m. c #9F5E54",
"M. c #A75547",
"N. c #B05340",
"B. c #BB5E46",
"V. c #A35E54",
"C. c #82645C",
"Z. c #8A635A",
"A. c #83695E",
"S. c #926D5E",
"D. c #BB604E",
"F. c #A76859",
"G. c #856C61",
"H. c #8B6D62",
"J. c #946D61",
"K. c #8E7365",
"L. c #917266",
"P. c #937669",
"I. c #957A6C",
"U. c #9B7C6D",
"Y. c #9E7E70",
"T. c #AB6D60",
"R. c #CE5F48",
"E. c #C9654B",
"W. c #DE6248",
"Q. c #C56E57",
"!. c #D76B52",
"~. c #E86949",
"^. c #9D806F",
"/. c #9E8271",
"(. c #AE826F",
"). c #BE846F",
"_. c #A28473",
"`. c #A58977",
"'. c #A58A78",
"]. c #AC8D7B",
"[. c #B58C76",
"{. c #AD917D",
"}. c #B1927E",
"|. c #B9937C",
" X c #D4866A",
".X c #B59481",
"XX c #B79883",
"oX c #BD9F89",
"OX c #C19D85",
"+X c #C4A38C",
"@X c #CAAA91",
"#X c #D8B69A",
/* pixels */
"x x g g g ( ( ' ' ' ' ' ( ( g x g x x x x x x ( ( ( ( ( ' ) ( x x x x x x ( ' ' ) c x g x ( ` ` ` ' ' ` ' _ ) ) ] ] ] ] ] ] ] ] ",
"c x x g g ( ( ( ' ' ' ( ( ( g ( x x x x ( x g ( ( ( ( ( ) ( ( ( x x x x ( ( ) ' ) ( x x x ( ) ' ` ) ) ` ' ' ] ] ] ) ] ] ] ] ] ] ",
"( ( x g g x ( ) ( ( ( ' ( ( ( ( x x x x x g ( x x ( ( ( ( ( ( c x g c ( ( ( ) ) ) ( ( c ( ( ' ' ' ] ) ' ) ] ] ) ] ] ] ] ] ] ] ] ",
"( ( ( ( x ( ) ) ( ( ' ' ' ( ( ( ( x ( c ( ( ( ( ( ( ( ( c ( ( x x x x ( ) ) ) ) ) ( ) ) ) ' ) ) ) ) ) ) ' ) ' ] ] ) ) ] ' ] ] ] ",
"' ' ' ( ( ' ` ) ' ( ) ) ' ' ( ( ( ( ( ( ( c ( c ( x ( x ( ( ( c x ( ! ! ( ) ! ) ( ) ) ) ) ) ) ) ) ) ) ) ' _ ) ' ) ] ] ] ) ] ] ] ",
"' ' ' ' ' ' ` ` ' ) ' ' ' ' ( ( ( F ( c ( ( ( c x ( x x x ( c c x F ! ( c ( ( F ( ( ( ) ) ! ) ) ) ) ) ) ) ) ) ) ] ) ' ) ] ] ] ' ",
"' ' ' ' ' ' ' ' ' ' ' ' ' ' ( ( ( ) ) ( ( ( c ( ( x ( ( ( ( ( c z ( c ( ( ( ( ( c ~ c ( c F ) ( ( ) ) ) ) ) ) ( ) ) ] ] ' ] ) ] ",
"' ' ' ' ' ' ' ' ' ) ' ' ( ' ' ( ( ) ( ( ( ) ) ( ( x x ( x ( c c z ( c ( ( F ( c c ) c ! ( ( ! ! ( ( ! ) ) ) ) ) ' ) ) ] ) ] ) ] ",
"' ' ' ' ' ] ] ] ` ) ` ) ) ) ) ) ( ) ( ( ( ( ( ( c c c c c c c c ( c ( c c F ! c c c ! c c z c c z ( ( ( ) ( ) ( ) ) ) ) ) ' ) ' ",
"' ) ' ' ) ] ) ) ` ' ) ) ) ) ) ( ) ) ( F ( ) F ( c c c z z c c c z ( c c z c c c c c c c c c x z x c z ( ( ( ( ( ) ) ) ) ' ' ) ' ",
"_ ) ' ' ] ] ) ] ) ) ` ) ) ) ( ) ( ( ( c c c c ( c z z c c c z c c c z c c c c c c c c z z z z x z x x x l ( ( ( ) ) ) ) ) ) ] ] ",
"' ' ' ] ] ) ] ) ) ) ) ) ) ) ( ( F ( ( ( c c c z z z z c c z c z c z z z z c c c z z z c x x l x g g g l x l c c c ( ( ) ) ] ) ' ",
") ' ' ' ] ) ] ) _ ) ) ( F ( c ( c ~ ! x z z z z z z z x z z l z z z z z x z z z z z x k z l g g g g g g g x l c c c ( ) ) ) ] ] ",
"' ) ) _ ] ) ) ) ) c h w q q 0 w p h w 9 8 z } ~ u 0 0 0 0 0 0 0 u u w u u t w u z k z u 9 < 5 8 9 9 9 6 q s x x x c c ) ) ' ) ] ",
"' ) ' ) ) ) ' ) ( 2 @ 7 u f u 7 = X # 2 t $.`.H.G t u i f f f i u u i i j j 0 ; p h $ X 2 i 7 $ $ $ $ < 2 q g x c x c ) ) ' ] ] ",
"' ) _ ' ] ) ) ) 0   7 =.G.C.>.K +   7 $.G.{.+X_.:.[ [ #.&.&.;.#._ D G G ~ [ i o 8 w . O  .A. .t 7 t t t t 2 6 g x ( ( ) ) ) ) ) ",
") ) ) ' ) ) F 0 # i K.+XXX'.U.| o 3 A.+X@X}.I.1.#.o.&.b.G.G.G.,.o.| [ F S G Z 2 2 S [ *..XOXL.| F } { G F f 2 9 c ) c ) ` ) ` ` ",
") ' ' ) ' ) d 1 G G.].}.U.L.G.Z   ..oXoX}.L.:.=.} &.H.L.H.H.H.,.:.:.#.| } ~ G d # @.}.XX.XU.H.;.G o.;. .~ G f 7 s c ) ) ) ) ) ` ",
"' ) ' ) ' ' 0 = K.I.*.:.:.-.{ 0 # A.{.H.:.C.:.{ f G &.&.#.@.;.C.C.1.:.#.o.[ ~ u X <.#X+XH.=.;.#._ o.1.&.~ F G i ; h ) ) ) ) ) ] ",
") ' _ ) ) ) 0 = ].G.j G %.&.i $ +.I.A.:.:.:.{ e = 3 t t 4 4 G ,.H.C.=.| } G F i X $.+X.X1.&.#. .X.;.1.;.[ S [ S = 0 ` ) ) ) ) ( ",
"' ) ) ) ) ) 0 = `.K.S Z } } # + _.Y.;.,.:.{ i i C C 4 1 $ 1 3 K :.H.#.F ^ | @.K + ^ U.I.:.o.{ ..,.C.C.;.[ S G Z # 0 ' ` ( ( c z ",
") ) ' ' ' ) 0 # ^.^.o.G S i 3 ^ .XY.=.o./ i A %.,.=.o.~ G F t 3 K #. .{ #.:.C.o.# i :.:.;.[ F  .&.:.C.;.^ S G Z + 0 ` ' ( ( c x ",
") ) ) ) ) ) 9 = ].|.C.@.S # Z `.oXL.o.F 3 C &.C.G.C.,.,.;. .F 0 = i  .:.C.C.H.X.X A H.C.#.^ G ^ G } =.&.^ S _ A + 7 ) ) ) ( c x ",
") ) ) ) ) ) 0 3 U.+XU.:.S X D @X+X>.{ ~ 4 ^ b.,.,.,.,.,.,.o.} j X $ | C.1.:.C...o | }.U...[ #.| Z F { [ G F G S = w ) ' ( ( ( x ",
"' ) ) ) ) c z u ~ _..X,.S X G +XoX@._ #.K ..A.1.:.:.:.1.,.&.o.S o 3 [ @.;.:.1.=.K D K.'.<.+.1.:.o. .} F F G Z 7 0 z ! ) ) ) ! ) ",
") ) ) ) ) ) F d X 1.oXH.G o A XX+X1. .o.K @.A.C.C.A.A.C.1.;. .S # 7 F [ &.,.:.1.:.0 ~ |.{.C.:.C.C.;.{ F G } i + d ( ! _ ! ) ) ! ",
") ) ) ) ) ) ) z @ | P.;.G # D XXXXH.o.f 3 D #.#.&.@.....o.[ G Z # 7 F G #.1.:.1.C.Z a K._.I.H.1.1.&.[ G F Z e < c ) ( ! ( ( c c ",
") ) ) _ ) c ) c s f Z C i # K }.U.C.[ 1 o 1 y i 7 4 i f t 4 Z f = 7 F G &.,.:.:.1.X.D i G C.A.[ G G F Z t 3 3 s c ( ( ! c c c l ",
") ' ) ) ) ! ) c z d 9 6 2 X ^ ].H.:.A = y 3 1 C X 2 ~ Z 1 4 { F + 7 F [ =.1.:.,.1.&.G ; : D G : ; 3 7 0 2 9 s z c ( ( c c x x x ",
") ) ) _ ) ( c ) z h s w 2 . K {.H.:.S 1 { X.L #.A W n.&.f D o.F o 2 [ @.:.1.:.C.C...F F j 0 : ; 1 # + 7 s g h z c c c c c x x x ",
") ) ) ) ) ( ( c z x x g 9 . [ ].H.;.| t J g.l.v.k.7.m.b.} } { d = t } #.=.;.;.#.@.[ } =. .j i z S ; # q l x l l l c c c x x c c ",
"( ( ( ( c c c c x z l g q @ [ `.@.{ -.{ y M T U T 3.U K ~ F t 1 t z G ^ [ #.#.G G | :.1.=.} F [ ^ 7 $ l x l l x c c c c ( c c c ",
"c c x c c c c c z x l l s @ / _.| j &.1.{ r & & * % & = ; : : u G G S F | ;.;. .{ =.1.1.:. .F ~ ~ 7 $ z c z c c c ~ c ) ! ! ) ) ",
"g g x c c c c c c x k k s O / ].:._ ..:.1.{ e ; $ $ # # $ = 8 S ..o. .o.:.1.1.;.;.:.:.1.:.| S G F 7 $ z z z c c c c ( c ) ) ) ) ",
"x x x c ( ( c c c c x x g $ / {.@.i i i ^ / i u S ~ G F S G j p Z K D K { { #.C.C.:.:.:.:.{ S F G 3 ; z z c c c ! ! ! ) c ) ) ) ",
"x ( c c ( ) ) c c c c x g $ A A.G 7 t 7 2 3 1 e ^ >.<.<.*.o.S w t i i 3 3 3 C #.C.1.:.:.:.{ S G ~ 3 $ z c z c c ! c ! ) ) ) ) ) ",
"( ( ( ) ~ ( ( ( c c c z z < = G :.A.Z.%.C 0 i i i ..C.H.%.H H <.G.G.X.y 4 t e f #.C.:.1.1.{ S ~ ~ 7 2 k z c c c ! ! ! ! ) ) ) ) ",
"( ' ) ) ) ) c ( c ! c c z 2 3 *.{.OX).F.#.F S z t u | =./ P u. XoX].Z.W N N f t C #.C.1.@.~ G G u 7 w z z c c c ! ! ! ) ) ) ) ) ",
") ) ) ) ) c ) c ! ! c c z < S .X@X|.F.z.x.@.G A Z : i | m 3.~. X[.K.b.j.W J G f # K 1.*.^ ~ G i 7 w z c c c F ! ) ! ! ) ) ) ) ) ",
"( ) ) ) ) ) ( ) c ! ( F z $ G OXoXJ.j.h.x.:.O.U I - i [ , u.~.E.n.*.;.b.-.} G j + D >.{ F F u = 0 k z c z c ! ! ! ! ( ) ( ) ) ` ",
") ) ) ) ) ( ) ( ! ! c c z # K [.T.g.h.h.x.c.u.4.Y > y G 4 5.f.p.j.&.>.1.1.{ F j # i { ~ F u o o d c z c c c F c _ ! c ) ) ) ) ) ",
") ) ' ) ) ) ( ) ! c c c h < L T.p.4.e.8.u.i.q.2.P > t G r 6.d.9.6.j.-.1.<. .) j + t S 0 7 e = X l c c j c c ( ) F ) ) ) ) ) ) ) ",
") ) ) ) ) ) ) F ! ! ! c l < N !.s.0.9.w.r.r.q.P N : 7 j : u.W.p.q.8.l.x.%.[ G Z + # 7 ; 1 i i 3 0 z c c c c c c ) c ) ) ) ) ) ' ",
") ) ) ) ) ) ) ( ) ! c c l 2 m B.~.s.t.q.e.q.4.P m 3 u j e E E.f.a.t.p.g./ ~ F i : : t Z j F G i 1 0 c c c ) ) ! ) ) ) ) ) ) ) ) ",
") ) ) ` ) ) ( ) ! F ) c z g t V B.~.i.Y P P I m : Z ..| Z b O.E.R.d.i.U B z u t K | ..@.[ F _ S = 0 c ( ! ! ! ! ) ( ) ( c ( ) ) ",
"` ` ) ) ) ) ) ) ) ! ) c ( ( h t V Q M > % & & 3 S #.C.=.~ D J W R U M - = ; t { :.&.#.:.#._ G Z + 0 ( c c ! ( ) ) ) ) ) c ( c ( ",
") ) ) ) ) ) ) ( ) ! ! ( ( c c z 0 O 7 S i 7 e Z #.C.C.;. .{ G 2 ; i S C C C K #.#...@.,.:.| G j o 0 c c c ! c ) ) ) ) ( ( ( ( c ",
") ' ` ) ` ) ) ) ! ) ! ( ( c c c h @ D /.P.:.>.-.<.<.:.<.=. .G G F { #.#.#.%.o.G G o.:.1.:.{ G Z o 0 c ( ) c ) ( ) ) ) ) ( ( ( ( ",
") ) ' ) ) ) ) ) ) ! ) ! F ) c ( x $ G {.XX].I.1.;.:.:.:.:.*.@.&.&. .[ } { [ G F ..:.1.;.{ G ~ Z o 9 c ) ! _ ) ( ) ) ) ) ( ( ( ( ",
") ) ) ] ) _ ] ) ) ) ) ! ) c ( ( c w u #.`.].K.=...#.1.1.1.:.:.1.,.#. .....~ f F &.C.1.=.~ Z _ Z = 2 c ( ! ! ) ) ) _ ) ) ( ( ( ( ",
") ' ] ] ) ' ) ) ) ) ) ! ! ! ! ! c c 6 e S.U.<.#.F K @.&.:.1.1.1.1.1.:.;.&.} _ { ;.1.C.=.[ F Z u 2 w c ) ( ) ) ) ) ) ) ) ' ( x x ",
") ) ] ) ] ) ' ] ) ) ) ( ) ) ! c c F 6 , v.F.;.#.[ F G [ @.:.:.:.;.:.:.*.@.&.:.:.:.;.=.o.[ G i = w k c c ( ) ) ) ) ] ] ] ' ( x x ",
"] ) ] ] ' ) ] ) ) _ ) ) F ( ! c c c 7 v N.D.x.-.*.[ S F _ K ^ [ [ ^ ^ { o.;.,.b.1.@.[ _ G F t + g z x ) ) ) ) ` ) ' ' ' ' ( x x ",
"] ] ) ] _ ] ) ] ) ) ) ) ) ( ! z h z 6 , N.!.M.b.1. .F Z t 1 2 2 ; 1 2 3 t i L n.n.=.{ G F i # # h c x ( ! ) ) ) ' ' ' ' ) ( x x ",
"' ] ' ] ' ' ' ) ) ) ) ) ) ! c h g w 2 = Q Q. XU.>.[ Z t 2 $ ; ; $ $ ; 2 $ . n M.V.-.| _ G 3 X 7 z z x ~ ) ) ` ` ' ' ' ' ' ( ( x ",
") ] ) ] ) ] ) ] ) ' ) ) ) c c z w w 8 X & X.(.K.G f 7 $ 8 w p 0 0 w p 0 9 # v 7.y.J Z Z a 3 ; h h p z c c ` ) ) ' ' ' ' ' ( ( ( ",
") ] ) ] ] ) ] ) ] ) ) ) ) ( c c h p 0 $ O = e 7 # + ; ; 8 p p w q p w 6 6 5 : , : # + + = 6 8 p s h l z ( ) ) ' ' ' ) ] ] ' ) ) ",
"] ] ] ] ] ' ] ' ] ] ] ) ) ( c z w w p 8 6 $ O O $ $ 6 w w w w w 8 8 8 8 5 5 5 O O $ $ $ # 6 8 w d z z F ! ) ) ] ' ) ' ] ] ] ] ] ",
"] ) ] ] ] ) ] ' ' ' ' ] ) ) F z h p w 8 q w 8 8 8 p w h h w w w 0 8 8 q 6 6 5 5 6 8 q 8 8 8 p p z c c ! ) ) ' ) ' ] ' ] ] ] ] ] ",
") ] ] ] ] ] ] ] ) ] ) _ ) ) ( c z z h h z h h p p p g p z k h g p w w q q 8 8 8 0 h h s p k c ! ) ) ( ( ) _ ' ] ' ' ] ] ] ] ] ] ",
") ) ' ' ] ] ] ] ' ] ' ] ' ) ) ( ! c x x k z z z h p h h z c z k h h w g k h p h h z z z x F ( ) ) ) ) ) ' ' ' ) ' ' ) ' ] ] ] ] ",
"c ( ) ' ] ] ] ] ' ] ) ] ' ) ) ! x ! c c c z c z c k z z z c ~ c z k z z c z c c c z z c ( ( ) ) ) ` ` ) ' ' ' ' ) ) ( ) ] ] ] ] ",
"x c ) ' _ ] ' ' ' ' ) ] ] ' ( c x x x x c ! c ) ( ! ~ c c ) ! ! c c c c c ! ~ ! c ( ( c ( ( ) ) ] ] ` ) ' ' ] ' ) ( ( ( ] ] ] ] ",
"x x ( ' _ ' ' ' ' ' ' ] ] ) ( c x x x c c ! ) ) ( ! ! ! c ) c ( ( F ! c ! ( ( ! ( ( ( ( ( ( ) ) ' ) ` ] ' ' ] ' ( ( c ( ' ] ] ] "
};
