/* XPM */
static char *r_player_idle_11678373332[] = {
/* columns rows colors chars-per-pixel */
"64 64 138 2 ",
"   c #070506",
".  c #0E070F",
"X  c #0F0810",
"o  c #100314",
"O  c #150C13",
"+  c #1A0F16",
"@  c #170618",
"#  c #1E0C1D",
"$  c #151216",
"%  c #1B1117",
"&  c #151218",
"*  c #1C1419",
"=  c #1D1A1D",
"-  c #21161B",
";  c #23191E",
":  c #291B1F",
">  c #1F201F",
",  c #22201B",
"<  c #1F1D21",
"1  c #241D21",
"2  c #2A1D22",
"3  c #301E25",
"4  c #242225",
"5  c #2B2225",
"6  c #272529",
"7  c #2B2629",
"8  c #27292A",
"9  c #2C2C2C",
"0  c #312426",
"q  c #332629",
"w  c #39262A",
"e  c #342A2C",
"r  c #3A2C2D",
"t  c #2F302F",
"y  c #323226",
"u  c #3E302E",
"i  c #2D2F30",
"p  c #322F30",
"a  c #3A2E30",
"s  c #2E3233",
"d  c #333434",
"f  c #3E3132",
"g  c #343837",
"h  c #363738",
"j  c #383638",
"k  c #353A3A",
"l  c #3B3D3D",
"z  c #432736",
"x  c #412F30",
"c  c #423535",
"v  c #493635",
"b  c #453936",
"n  c #4A3937",
"m  c #4E363A",
"M  c #463A39",
"N  c #4B3D3C",
"B  c #513D3C",
"V  c #3E403F",
"C  c #4E403E",
"Z  c #52413E",
"A  c #58423F",
"S  c #595538",
"D  c #4E6728",
"F  c #3D3F40",
"G  c #4D3B40",
"H  c #573F40",
"J  c #3E4040",
"K  c #444545",
"L  c #4A4645",
"P  c #474847",
"I  c #474848",
"U  c #484848",
"Y  c #544441",
"T  c #5A4643",
"R  c #574844",
"E  c #5C4A46",
"W  c #5E454A",
"Q  c #5E4C48",
"!  c #614B46",
"~  c #614548",
"^  c #634E49",
"/  c #6A4F4A",
"(  c #635845",
")  c #66514B",
"_  c #6B534E",
"`  c #6C5A4F",
"'  c #784E5D",
"]  c #6E5650",
"[  c #6B5951",
"{  c #715651",
"}  c #745A54",
"|  c #7A5E56",
" . c #7A535C",
".. c #7C5F59",
"X. c #6D7A42",
"o. c #756055",
"O. c #7A6157",
"+. c #7D6955",
"@. c #7D6159",
"#. c #805F5E",
"$. c #82645C",
"%. c #84695F",
"&. c #886B5F",
"*. c #817C53",
"=. c #876562",
"-. c #886363",
";. c #866B60",
":. c #8A6C62",
">. c #8D7265",
",. c #907467",
"<. c #937669",
"1. c #957A6B",
"2. c #9A7C6E",
"3. c #9E7F70",
"4. c #64852F",
"5. c #79A33D",
"6. c #87984E",
"7. c #8D8956",
"8. c #8F8858",
"9. c #92845E",
"0. c #9CB455",
"q. c #9D806F",
"w. c #9E8171",
"e. c #A28474",
"r. c #A68976",
"t. c #A98977",
"y. c #AB8D7A",
"u. c #AF917D",
"i. c #B1927E",
"p. c #9ED14A",
"a. c #B59681",
"s. c #B69883",
"d. c #BB9B85",
"f. c #BE9E88",
"g. c #C3A38B",
"h. c #C9A88F",
"j. c #CCAB92",
"k. c #D8B69A",
/* pixels */
"k k g s k J J J I I I J J J J k k k k k k k k k J J J J P K J k k k k k F J I P K l k g k J K I I P P P I K I L I K I I I L U U ",
"l k k s s k J J I J I I J J J k k k k k k k k k J J J J K K J l k k k k k K K P K l k k k J K I P P K P I K I I I I I I L I U U ",
"J J k s s J J K J J J I J J J J k k k k k k k J k J J J J J J l g k k k l K K K J J J j J J I I K I K P P I P P L I I I U U U U ",
"J J J J F J J K I J J I J J J J k J J l J J J J J J J J l J J k k k l J K F K K K K K K K K K K K K K K K I K P I K L I I U U U ",
"J I I I J I K K I J J I J I J J l J J J k J J V J k J k J J J l j l l K G J J K K K K K K J K K K K K K K I K I I U I L I I I I ",
"I I I I I I P P I I I I I I J J l l J l J J l l k J k k k V J k l l l l V V J J J K l K J J C K K K K K K K K K K K K I I I L I ",
"I I I I I I I I I I I I I I J J K K J J J J J l J k J J J J l l l l l K J M l K J J l K J J K V G J K K K K K K K I K I L I I I ",
"I I I I I I I I I I I I I J I J J K K K J K J V J k k J l F l l l l l K J l l l M l l l K J J J J J J K J K K K K K I K I L I L ",
"I L I I P I I L I K K K K K K G K K J K l K G V l l l l l l M l l l V l l l l M V l l l l l l V l l V K l K J K K K K K I I I I ",
"I I L K P L I K K I P K K K J J J M J J K l F F l l l l l l l l l l M l l l l l V l l l l j k j k k l J l F J K K K K K K I I I ",
"K I L I K I P K K I K P P P K K K K F K l l l l l l k j l l l j l j l l M l l l l V l l l j k k k k k k l l J J G J J I K K I I ",
"L I I I I K K K K K J F j k l k j l l d d d b l s e d d d d d d h h h d d d j j d j j j s s i s 9 s s s d k l l J F J K K P K I ",
"K I I L L P P P K h 9 6 6 6 6 6 9 h d 6 1 b ` Q r 2 5 5 6 5 5 5 5 q q 9 q q 7 6 6 t t 6 4 = < 4 4 4 > 4 4 s k k k l F K K K I I ",
"K I K K K K P K j * % u N N c r 5 6 7 r M %.u.1.E d f n m n N n d u f c c M r 5 5 5 & O q C r ; ; ; < 2 2 6 i k l l l K K I K I ",
"I K I K K P P j 1 O Z <.2.<.%.~ r 5 Y <.e.s.a.<.} R E { | } | { Y C N M N G N f r q = 0 +.e.} f r c d a a 7 4 i k F l K K I I I ",
"K L K I P P l 4 - R t.h.i.t.2.E 4 M w.j.j.r.%.{ ^ ) | :.:.&.&..._ / E n b M L n q A o.>.d.d.<.[ N Q ^ Y N c 2 1 k k F K K K K K ",
"I K K I I I i # ) 1.w.w.>.$.| p   ` f.y.2.%.| { L _ :.:.&.&.$.$...@.} ^ E Y N r + { h.g.e.:.$.} N Q | ^ N N c 2 5 j J P K K K P ",
"K L K I L K 6 - w.>.R ) | { B 5 5 &.e.$.} $.{ m 2 c T ~ ~ A _ %.=.@.| ] ^ C M 7 X o.k.g.:.{ { ^ Y / @.] H N L c ; p K K K P K P ",
"I K K K P P 7 - y.;.r M ] _ 5 - O.2.@.} | { B 5 - 2 2 1 - ; x { %.%.] Y Y Z Z r O ) a.r.@.{ ) E ] | $.} Y c L b % 7 P P K I P K ",
"K I K L K P 7 - w.1.N c L N * , y.e.} } { B r v B B x 7 : 5 : x { %.^ n R ) { Y - n >.:.| ! C Q | $.%.} Y c N c % 7 P P J J J G ",
"K K K K K K 6 - w.e._ A M 9 q ` a.2.{ Y v w B ..$...] ~ W G a 2 x T ~ ) { @.%./ % r | | { T b T ~ { $.} Y c N c % 7 I K K J J k ",
"K I K K P K 6 - t.d.:.{ c % n i.g.&.^ c : z  .$.$.=. . .' ~ M p % 0 Q @.$.$.&.^ O B 2.&.) A Z Y b Y ] ) L M Y v % 7 P P J J k k ",
"I K K K I J 9 2 :.s.3.O.M O n h.g.[ Y B : S 9...} } +.8.8.( N f O ; E | @.| $./ : R t.2.Q Y { ^ N N R N v M N a 1 p K I J J k k ",
"K K K K K G l p r <.a.%.n O v d.g.` E ~ r 4.0.&. ...7.p.p.X.G a % 5 C E { ....} ! f o.i.:.{ ..#.{ _ R c n Y a 1 7 l J K K J J J ",
"I K K K K l K s . } d.:.N % v d.g.+.) G , D 6.&.&.-.*.6.5.( C c * 0 M C _ @.| $.$.2 c i.d.&.| %.&.} Y N C Y e % j K K V K J J K ",
"K K K K K K K h = B @.^ M - n s.u.:.~ 7 X ; C Z T B x y y q d f - 5 M C _ @.| @.$.v u } >.2.,.| | ) T N f r 5 ; j K l K K M K J ",
"K K K K K J J V h a e q q % C u.,.#.Y - + o @ 2 % - : # o # c f - 5 M N _ | | | | } Y 5 q [ +.M a f f d 5 ; 6 d l J J K J J F k ",
"K K K K K J J J l t 6 4 ; X Z u.:.| v - x w 3 c - 0 ! n - w Q M % 5 N T { @.| | $.$.! 5 ; u r ; * ; : 5 6 8 t h V M J J J J k k ",
"K K K K J K l G j h s s 4 X Z u.,.| v 2 ~ _ _ | A _ >.O.n B / c # 2 Y [ O.@.| @..._ E T b q 2 5 5 - % 4 t s g l l l l J l l k k ",
"K K K K K J K l k k g g 8 $ Z y.@.{ ^ x v ^ } O.} | O.} R R N 7 : p Y ) ) { ] ^ ! Y _ } ) M f n N 2 * 9 g g k j l l l J k k k k ",
"K K K J K J J F k j g s 8 & Y r.E N { _ x q u f v c u f f a 0 2 r f b M Y [ [ B L ! | @.| E N L Y 5 = s g h j j l l k l l k k k ",
"F F G J l l l l j k g d i & Z r.E a ) @./ q + O O O $ O & & - r M N c c E | { / ) { | O.| E b M N 2 1 d g h l j k l l l l l J J ",
"k k k l l l l l k h g d 9 % Z y.} H E _ O./ a 1 1 2 1 2 2 2 9 M ) ) ^ ) } | | | | | | | | E b N N 2 1 k k j l k M V l J K l K K ",
"k k k k l l l l l l h h 8 % B u.;.] E N ~ _ ^ E Y R R T T Y Y ^ | @.| O.@.| | | | | | | | T c N N 2 = d h l l l V V V V K K K K ",
"k k k l F J l l l k k k s & A f.3.| / M b M ^ @.$.$.@.@.O.O.O.O.@.@.@.$.@.@.O.| } } | | | E c n L 5 = d j l l l C V V K C K K K ",
"k k F J K P K K C V l l g = N y.a.;.] E N b T | @.} | @.@.| | { | O.@.{ { } | | | | | ..| R M L v 2 2 j l j K J V V K K J K K K ",
"K K J F l l F F k l l l l 9 7 Q a.2.} } [ N N T T Y ~ | | ^ T Y Y ` ] T Y Y / | @.@.@.} ^ L N n q 5 9 j l k d k l F J G J P I K ",
"K I k 4 = = 1 6 6 4 9 j V j = : e.s.3.<.{ N N T E R ) | | ) T Z c N E Q R M M / @.$.| ^ N N M q 5 p k l k 7 * * < 1 6 6 9 l I I ",
"K k 7 r c M q ; : ; 5 9 l l 4 = { f.f.1.E j Y } O.| | | | } { ] Y N Q { | ^ N G ) } / Y N c 2 % 9 j l j 6 5 c c c 7 - 2 2 7 l I ",
"j 6 m 1.y.w.O.f r f e 5 d j k 7 q $.1.R f c T $.$.| O.| | | @.| { ] | $.@.| Q b M R N c c 0 O O d l l 9 5 ) e.r.w.) a a a 7 7 l ",
"< Z 2.g.g.t.&.) N M b r 2 i l h 9 d w - e b E | ^ A ^ | | | | ....@.$.} Q R Z M b M r ; ; 0 : % i V 9 5 ) y.h.d.3.O.T N M f q 6 ",
"O { g.g.e.&.O.| ) C M f 1 6 V l h * : v e c ^ R c d c ^ | @.| @.@._ E Y b f c f f 9 = ; 5 f c 5 5 d 4 0 2.h.d.2.$.| } E Y N r % ",
"O o.d.w.$.{ } | | ) T f - 7 l J h & v >.Y A _ Y N N C T ) } { _ } ^ Y B Z C C A A c a m M M L c - 6 4 0 <.d.,.} ] } ..] Y N r & ",
"o o.y.%._ { } | @.{ ^ c - 7 j l d * N e.&._ | { ] ` { ) Y ) ] Q } } ] [ [ { { } } ) ) _ E n C c * 6 4 q ,.q.} { } | $.} T N q % ",
"X o.y.@._ { ....@.` Y f - 6 l V d = n t.,.{ } ..| ..@.{ Z ! [ ) { ......$.#.@.@.@.) ) | { T N f - 6 4 q <.2.{ _ { | @.{ Y n r % ",
"O o.d.2...| ..$.$.! N f ; 6 l J h * v e.:.{ } } | | ..} ^ E Y T T { #.$.O.$.} ! R E _ @.O.E N f % 6 4 w 1.i.&.} } @.} Q N L r % ",
"2 A q.d.r.%._ { } E c q 5 t k V h * n i.e.:.&.| | | | | } ^ T T T E ^ ! ! _ E M Z _ | .._ Y N f * 6 9 q _ i.d.e.2.%.^ C G c 5 2 ",
"l 9 A 2.e.) f c M c q 2 d l C l h = v q.a.u.<.} _ | ..@.| } _ { ] E N L Z n f M ) @.@.{ T b C c % 4 l d e { t.e.e.[ f f f 2 7 k ",
"K l d r w 2 + % % - 6 j G J J J l t q Z 2.e.$._ A ) | O.| ....@.@.{ ) _ ) B d N { $.$.{ C b C c - 4 l l d r e r r : # % : 7 l K ",
"K I F q 7 p q i q 9 k J J J J J l j 4 5 >.2.| _ n N E ) | $.@.$.$.$.$.| ) E ! ^ } @.$.} Z M c 5 4 d l K J d 7 9 9 9 i q 9 j J J ",
"K P I P K K K K K K G J K J l M l l 4 0 >.2.} { T M c C ) [ [ ] _ { { _ ^ { ..O..._ ) ! Z N q % 9 l j J K J J C K K K P J J J k ",
"K P I I I I I I I K J J K J J J l l 4 q >.<.{ } { Q b u c c c f c c c c E } $.@.| ) L N M C q % s k l K J K J I P P L I I J J k ",
"K P K I I L I K K K K K J M J l l j 4 q <.e.} } @.| B 2 % - ; : - : - - 0 A @.@...{ E n M N 0 * s j k K C J K K I I I I I J J k ",
"K P I L K I K L K K K K K l J j g d = e <.i.,...| [ H 5 + < 7 6 4 4 6 6 6 q A @.$.$._ C M e 2 7 h l k V K J I K I I I I I J J s ",
"I I I I I L I I P P K K J C l d t 9 - - / y.f.2.| Y b q 2 7 d d t t d d 9 % x $.>.O.Q C N 2 = d h g j C J K I I I I I I J J J k ",
"I L K I I I K I P K K I J l l h t t 5 O - ) y.,.N p 0 - 4 s s 9 9 9 9 9 6 % 0 _ } Z f c u 5 ; t d t j V J I I K I I I I J J J J ",
"L I I I I L I I P P I K K G k k d t 7 > $ - 0 , - % ; , 8 t 9 8 8 9 8 , 4 > , 5 : % % - - , 8 t 9 d j l G K I K I I I U I I P K ",
"I L I L I I L I P P L K K l l j 9 t t 4 > % $ $ = = 4 9 9 9 9 9 8 4 8 5 , > = & $ = = = = 4 8 8 d h j l F K K I I I I U U U U I ",
"L I I I I L I I K K I K K M l l a t 9 9 t 9 8 8 8 9 t d t t 9 t 8 4 8 8 8 , , > 4 8 9 8 8 9 9 t j l l F J K I L I I U U U U U U ",
"K I I I I I U I I P I P I K K l l d d t d d d s t t t t d j d d e t 9 8 9 8 8 9 9 t s t t d k C J C J J K K I K I I U U U U U U ",
"K K I U U U U U I K P P I K J F V l k k h h h g d t t j j l j j d t t d d d s d d k h h k F J M K K K K P P P P I I I K I I I I ",
"k F K U U U U U I P P P I P K F l k l l l j l k l j f k l l V l j j h j j l l l k l l j l J K K K I K K I I I I K K J K I I L I ",
"s F K I L U I I I I P I I I J l V k k k V V V C J V V V l J C V C k l l l V V V k J J l J J K K P P I I I I I I K J F J U U U U ",
"k F J I L I L I I I I I I K K k k k k k l V K K J J V C F J l V V J l l V V V C C J J J J J K P P P I I I I I I J J l K I U U U "
};
