/* XPM */
static char *start_21678373500[] = {
/* columns rows colors chars-per-pixel */
"64 64 90 1 ",
"  c #1C1217",
". c #1D1419",
"X c #1F181D",
"o c #21161B",
"O c #24191E",
"+ c #291B1F",
"@ c #261D21",
"# c #2A1E22",
"$ c #272025",
"% c #2C2225",
"& c #2C2529",
"* c #2D292C",
"= c #322426",
"- c #332628",
"; c #342A2C",
": c #3B2C2D",
"> c #342E31",
", c #3C2F30",
"< c #2E3636",
"1 c #363334",
"2 c #3C3334",
"3 c #393638",
"4 c #343B3B",
"5 c #3C3D3D",
"6 c #402F2F",
"7 c #402F30",
"8 c #433434",
"9 c #493736",
"0 c #453837",
"q c #4A3937",
"w c #433738",
"e c #433B3B",
"r c #4B3C3B",
"t c #513E3C",
"y c #47403F",
"u c #4E403F",
"i c #54413E",
"p c #413F40",
"a c #3E4141",
"s c #454545",
"d c #4A4444",
"f c #474847",
"g c #4C4847",
"h c #474848",
"j c #484848",
"k c #554441",
"l c #5A4643",
"z c #5D4946",
"x c #524C4B",
"c c #5F4D49",
"v c #56524F",
"b c #5C514E",
"n c #595350",
"m c #614B47",
"M c #634E49",
"N c #694F4B",
"B c #66514C",
"V c #6B534E",
"C c #6E5650",
"Z c #6E5951",
"A c #705751",
"S c #745A53",
"D c #795E56",
"F c #7B5F58",
"G c #7D6159",
"H c #81655C",
"J c #84695E",
"K c #88685F",
"L c #866C61",
"P c #8A6E62",
"I c #8D7365",
"U c #907367",
"Y c #927668",
"T c #957A6B",
"R c #9A7D6E",
"E c #9B806F",
"W c #9D8171",
"Q c #A28574",
"! c #A78877",
"~ c #A78B78",
"^ c #AB8C7A",
"/ c #B1937E",
"( c #BB9B85",
") c #BE9E88",
"_ c #BFA089",
"` c #C09E89",
"' c #C2A28A",
"] c #CDAB92",
"[ c #D4B398",
"{ c #DAB79B",
/* pixels */
"jhhhhhgjjhhgjjhjjja4<45sjjhaa4aaashhhhhhshssaa444<4ahhjjha5<<444",
"jjhhhhjjhhhhjjjjjjp544ahjjsa5aaashhhhhjshhsaa5444aaashhhha4<<<44",
"hhhhjhghhjjhjjjhjjhpaashjhssapspsshssssjhshhaaa4aaahsaaasa4<<4aa",
"hhghjjjhhgjhjghhjjjjhhhhhhhhhshshhhhjhshhhsaaaaaashjhsasssa44ash",
"ghhhhhhhjjjjhhhgjpjjjjjjhjhjjhhhjsjjshsjhhshsasaaahjhssshssssshh",
"hhghhgjjjjjjhhjjhjjjjjjhhjjjhjjjjjjjjjsjhhsasasaaahhhhshhhhjhhhh",
"ghhhhhhgjsjsjjjjjjjjjjjjjhjhjhjjjjsjhjjjjhhhsshshshhjjjjhhjjhhhh",
"hhghhghhjjjjjjjjhjjjjjjhjjjjjjjhjjjjjjjjjjjjjjjjhhhhjhjhghjghhsj",
"jjjjjjjjjjjjjjjjjjjjjjjjjjjjjjjjjsjjjjjjjjjjjjjjjjjdjjjjjjjjjjsj",
"jjjjhjhjjjjjsjjjjjjjjhhjjjjjjjjjjjjjjjjjspspp33pshjjjjjjhjjjjjjs",
"hjsjjjjhjsjjjjjjjjjjjjjjjjjjjjjjjjjjjjjj5>&#@##%>3jjjjjjhhgjsjjs",
"sjjjjhjhjjjjjjjsjjjjhjhjjjjjjjjjjjjjgjjp;##-;,8-#=pvxjjjhhjjjjjj",
"jjjjjjhjjjjjjjsjjjjjjjjjjhhhjjjjjjhhssp2@#pASSAM8&wbvjjjjsjjjjsj",
"jjjjjhjjjjjjjjjjjjjjvjjjj5&&&$&$&#&#&#@@.@qDHHHHM;,bnxjjjjjjjjsj",
"jjjsjjjjjjjjjjjjjjhpsjjp5,&%%####@@#@#@;mm8,9lNAS7;lbxjjjjjjjjjs",
"jjjjjjjjjjjjjjjjpp1&;5e>;ekrrreekzkkdpqS^(G,=%6mNp-8xxjjjjjsjjjj",
"jjjjjjjhjjjhp2>&@##@#-:67qrredklDGFFSzlSI^/QG8+qNN7=pbjjjjjjjjjs",
"jjjjjhjjjjj5*@@%>==9ttqqrrrerzNVDHHHFAczAK~'/J2=MS7#wjjjjjghjjjj",
"jjhhjsjhjgp*=,8wq,,kNNkrprklkMAAVVNNVAmkCGJT~El+lDr=edjjgjhhjjsj",
"pshhjjjjhh3$8zMlr,7rkptpkklcMNCVBlr89tiiVSSDJJi#8Nr=pxjjjjhhjjjs",
"4ashjjjjjp;&elzlp08ettrkMNmllNDSMi0,-:6qlNNVAAz=.99=pjjjjjjsjjsj",
"44ahjjjjje>,rtrtlrrrrlcmVNNNNAHDVmliqq6-8qimVSGt @:>djjjjjjjjjjs",
"44phjjjjs58erd96ttkzlzzmNAAASDHNBVVVVVi:=-tmBDYIz#=ejjjjjjjjjjsj",
"apjjjjjjp>2dlt-=tlzVNzklADSSDNptlBSFACCk:;tNVVY'Q8%dxjjjsjjjjjsj",
"hshhjjjjp&;kVt#-mNNBVBmmCAASA7#8mVSVmkmVCzkMMmP'Q8#pjjjjjjjjjjjs",
"sshhjjjjp#-pNq=:lcmCACCBCCCSm==lBVBl9tmCHFNlkzL)T2#pjjjjjjjjjsjj",
"aashjjjjs3-9m9-qzlMSSACBCCCNr=9SABMltilitNAktzL^R,#sjjjjjjjjjjsj",
"aapsjjjhsp,,q6-tBMNCCCVccBCN8:kDBMBmt98;-kCczNGTY9#pxjjjjjsjjjpj",
"4aashhhhsjd,-#=iZCBBBCCllcZCr,kNtkCm7-=-tNNmzMCLPq#exxjjjjhhjjjj",
"4aashhhhhhhe;o#tZZBBCAACmcMCl,7lqkCVkttkCNNcklmSPq.;pxxjjjjhjjjj",
"aaashhhhjssd5##tAClMCCCSACNzkq,,8kmmmVVmlkmmpmmSH9.%7dxjjjhhhhjj",
"aasshhhhhjhhs;=kSClcVBMcBDZzlmt##78879kkqrmmlmCDD8#,7pxjsssssspp",
"ffhhhhhhjjjjj:-lAAVVSSVlmADASDCi,==-=6tAllBBlcNSZ:;8;uvgssaaa444",
"hhhgghhhjjjxg-=tmmVSDFSCCSDHDSSCMzmzplNSVBCSClkBC28i:0xgffsa44<<",
"hhhhhhhhjjjgk-+6uuzASFFFHSSDSSSSSDFDSAAAVVCSSmdcC69m:2gxgjfsa44<",
"ghhghhjjjjjgr%+:reiAFDSDDDDFFHHGDDFSSSSABBBCCmlNA66l:2xgjjjfaaa4",
"hghhjjjjjjjs;+o-relSGFSSDDHDGGGFDHHDHHHSZclBBBBGS6,i:8xxjjjjfsaa",
"hhhhsjjjjjfe=+o=0ekVFFFFHSVNBFDVNNADSSASZzlmBZGIV8ui:2ggjjfhfjff",
"hhghjjjjjjd0:=%-2rukVGGHGzrtkBmrtpmDSmmmzkzZGGEI8-ii::yxjjjjjhfs",
"hghhjjjjjjf8:=6q-;0elSHGB80lzle2tNNSSNmmlriSE~~GO%ii:2uggjjhjffs",
"hghhghghjjf2,=iV-o;wrlZBeuVHGmilSHSDDGHHDk2cW_Ei8iMt%1gjjjjjjjss",
"hhhhhhhhjjs2:-qz6o#=;wueelAHKHSFHHHDGDSHHl23iGZqNSM8+,gjjjhjhjfs",
"hhhhjjhgjxdw,=-qq8;=+&;2wrtiBDGHHHHHSlrmNr;%o+;9mi8688ejjjjjhhss",
"ghjsjjjjjgy2:++:rzl9-=:e8;--:8rlNNNmi2;::#ooooo;6%#tMr2fjjjjjhhs",
"hhsssjjjgy1-#+o+-tBmkiiir8:;=%==:6:-:-=##OoO%:8q6+:MCr3sjhhhjjsh",
"ssshhjgjs1&@O=2888iADVziilllttmtqq96qt:%=;;;rGTYGt8ik8>sjghhhssj",
"sshhjjjh<=-;-iKQEm:iSGmklmNCNCSSCSCNNt:-8erkZW'['Ii8,->sjjhhjhjs",
"shhjjjh1%:uycG!]{~t-zAVBBmMCNNMmmASmi6=7rrxVGT^]{'J9=#>fjjhjjhjs",
"ssssjja&;8pmADHT)]G+;lVASVVACCNzkNAk0#%empNSDSDT'[Wi+O>sgfjjjsss",
"ssssjx4&;3dCFDNAY'I%+tVSFBmBSDDCCADNq#%rmVSDDNNDW/TtoO>afffjfjss",
"aaahjj5$=,kAHHANSQI-+9BSVttMASDSSADDk=#eNDHHDACVJRJqoX<yffffjjfs",
"4aahjj3#=8kCDDANNQU6-6tmztkVSVVCAADFM:#qMASHHDNMGTPt.O1asfffjhhs",
"44ahjh1&-0pcADDAL(Ttq8;8tlNSSCNCSDHSl-=elNDLHDCAU^Ei @3ypshhjhfs",
"45asss3*%7tkmKTR)(Grii8::tVDDDSDFFNr:##7pNSKGGHT/`P6X*5apdhhhshh",
"4aasspa1*-;,7NU!/Hrqklu0;-9ttlmmlk6#%%#=ezNCBVI`]!i#$15asshhhfff",
"aaahspp53&##o-qlt==,0ryrr;%#+ooo+##-22;#;80,:0SQWM-=15aypsdhhfff",
"sfdfsp5a51&$XXX  X$*3aa5e55,&@Ooo@$1552-@#O. o;t8%;5e55pssdhhhhj",
"hhhfssps55331<***>1135555se551111>135553&@OXo@@@@&1ea55ppsjghhhd",
"gjhhhssap555aeaas5s555555asss5aa55e555553>>>11>;>255555ppsfhhhhj",
"hhhhhhhssseaa5ssssssyayaadssssssspsssayaa5e5paea5apsppsshhhhhhds",
"hjjhjssssssdsssshhsssassssshhsssssssssdspspspspsssssssshsjjjhhsp",
"hjhhsaajffshsfffhhsssssssssfhssssffssfsssfsssssdsssshhhsjjjjhsa5",
"hgjha5ashhhhhhhhjhasassssshhssssssfjjjsjgjhhhhhhhhffhhhjjjjjjs5<",
"ghhj55ashghghhghjhaaasssshhshsssssfjjjjjhhhshshhfhhfhhhjjjjjha5<"
};
