/* XPM */
static char *start_11678373500[] = {
/* columns rows colors chars-per-pixel */
"64 64 83 1 ",
"  c #1D1117",
". c #1F141A",
"X c #22161B",
"o c #261A1E",
"O c #281B1F",
"+ c #261C20",
"@ c #2A1E22",
"# c #2D2225",
"$ c #2D2529",
"% c #2D292C",
"& c #322426",
"* c #342628",
"= c #342A2C",
"- c #3B2C2D",
"; c #3F302F",
": c #2F2E30",
"> c #332E30",
", c #3C2F30",
"< c #2E3636",
"1 c #363435",
"2 c #3C3334",
"3 c #333638",
"4 c #3A3738",
"5 c #343B3B",
"6 c #3C3C3D",
"7 c #402F2F",
"8 c #412F30",
"9 c #443434",
"0 c #483636",
"q c #453837",
"w c #4A3937",
"e c #423738",
"r c #423C3C",
"t c #4C3C3A",
"y c #513E3C",
"u c #3E403F",
"i c #45413F",
"p c #4E403F",
"a c #53413E",
"s c #3C3F40",
"d c #413F40",
"f c #3E4141",
"g c #454545",
"h c #494646",
"j c #454847",
"k c #4B4846",
"l c #474748",
"z c #484748",
"x c #474848",
"c c #484848",
"v c #554442",
"b c #5A4643",
"n c #504947",
"m c #5D4945",
"M c #5F4C48",
"N c #614B46",
"B c #634E49",
"V c #66504B",
"C c #6B534E",
"Z c #6E5650",
"A c #6E5851",
"S c #705751",
"D c #735A53",
"F c #795E56",
"G c #7B5F58",
"H c #7D6259",
"J c #82655C",
"K c #856A5F",
"L c #866C60",
"P c #8C6D63",
"I c #8D7366",
"U c #8F7568",
"Y c #907467",
"T c #927669",
"R c #97796C",
"E c #997C6D",
"W c #9E8271",
"Q c #A28373",
"! c #A78A78",
"~ c #AA8C79",
"^ c #AD907C",
"/ c #B0917E",
"( c #BA9884",
/* pixels */
"cccccccccxclcchcczf5<56jccju5uuffjlllxhljjggfu555<5fgjzzzgu<<555",
"cccxxcczccccccccclg555ujccjfuuffjjjhllhlhxgffu555fffgjlllf5<<<55",
"cxzccccxccxcccccccjggugxcxjgfffgjlllgljllhjjffu5fffjjffggf5<<5ff",
"cccczcccczccccxclllzllxxxllllglhjlljljjhlxgffffufjxxljffgff55sjx",
"czccccccccxhccccczcccczccccccllxxcclhxllxgggfggfffcccjlllhggjlll",
"ccxclcczcxcccxcccccccccccczcxcccccccjxjhhlxgjfgfffjczzjxxxlcllxl",
"cccccccccccccccxccccccccxcccczcxccxccxxxhllljjhgjjjzccccxxcccxcl",
"xcczcccxxczcxcccccccccxccccxcccccccccxxxxxxxxlcxxxjjcczccxcccxlh",
"xcccccclccxcccxcccjccccccccclcccxcccccxczhxxcccchccccccxccxccchx",
"cccxcxhcccxhcccccczccczccclcccccczcccccccccccxccxzccxcccxchccxhl",
"cccccxccccccccccccccccccclccccclcchxccxxccccccxcccxccchxccccxxxh",
"xhcccccccxcczcxcxczczcccccclcccccccxxxlxccxccccccccccccccccxxxlx",
"cccccccczccccxcczccczjcccclcccccxcxxlhlxcccccccccccccccchcccxchx",
"cxcccxcxcxccccxhcccxccccccccccccccggfflxccccccccxcxccclcxcxcxcxh",
"cccxcccxcccccccccczccccxcczccccccccgfuflcxccxccxxcccxcccccccxxhj",
"ccccccccxhxcccxcccccccczccxcccccckcu5<56hhccccccccccccccxcxcxxll",
"xcxcccccccxczcccccccczccccccccclrr41:%%=4slccccccxcccxcccccxcchx",
"cccxczcxcccccccczjccccxcccccccd1%###-qe=@$2gccccchcxcccccxccccxh",
"cxxxxcccczccxccxccczxccccccccs>%t0;9VKLB9*,246gcccccccccccccxxhj",
"gghxccxhcxcccczcccccczccccccj>@vTYAAI!^UFVb0*$rnccccccccccxcxxhx",
"uufhccccccccccccccccccclcccl4,NE/QJSHIUPJGSN0=0kkcccccccccxcxcxl",
"<5flcccczzczcccccccccccccccg2bE(~PCNBBVZCCZVMp0q4icjccccccccxxxh",
"5uuxcccczzjjcccccccccccccch62ZRRJVaabmbmNvmBVABw=1hjcccccxccxxhx",
"ufhxczcczjggjcccccccccccncz6,dBNw09ymBBBNmmBZHHB;%4hcccjccxxxxhl",
"fjjjcccchjfufjxccxcccnccccl1&=8=&@&-aVVVNNBCZDHAp$%hcccccccccchl",
"jjzjzccxhffuffjccxxcd>%%>%@+X.X+XX X*0wyvmBCVBADa#=hkcccxccxcxxh",
"fgllccxljgfffffjljj64*@@@@+++@@@o@-w8OX-ybBCVBBBp*2kcccccchcxxlh",
"56flcxxxjjffff644r41erwq90ddyyy0-0CYKy#-7yNVZBmvp9tnkcccccxcxxhx",
"5ffjllxxjgffjge-=,220rtrddNZDDDCabGT~WKm#&wNACMMa09iccccccxxxccx",
"5ffjllxxjggjd20aaywwwtrtNCVJJJJFCbVJR//UtO-NDZCAN0;icccccccxxccc",
"fffjllljljfre-0MBvhttvvmVSSSBVVCAvbFJIQWZ*-BSCDDb*$icccxccxxxxcx",
"ffjllhlhljlr9-0ypttavMMMVSCNywyNVmNCDDHJV-&tbNDHt+#icccxllggggfi",
"llxccccczzdbyw0ddybNCNNdCDFNywbNVVNNNCDFCq@O-pVDw@-icccccxgu6555",
"xccccccczmNdydddbNNVCCCNDJDCNNNNCCBawaVDHV-@*pNN7&qkccccxxgu55<<",
"xxccccccnd88yNmMNNNCSSDJDCNVCSCBZZVa08wmZDBw7wa0O=ixcccccclgu5<5",
"xxcccccnnd&7NNBCNbbNJSDDSdyNCDSCVVVap7**9aAb*-w*o=hjccccccclffu5",
"xcxczzccz,@0MCCZCBBZSSSSByyNCSNdaaaaa9#Xo0Na990#.-xcccccczccjjfg",
"cccczzzcn,&dMBCDDSCCCCCBBBNBVBdyap9777@o&aVCCAN;o#icccccccccxxjj",
"cccczzznd7*dMMCDDSCBCSBNBCSSBBNba7@@@-0avVVAHTUD0@%icccccccccllj",
"cclczznMd--BCCCCCCBNBSSBBVJSCCDSa*&*7aVFDVabVHUEH9+$6gcccczczlgg",
"ccccccccn-*NSZVCZSVmmVCCSSSSCSDSa&*aNmCDZmbmNNVHJCw-$=rlcccccclh",
"cxcclcccd=&NSCVCCSSCCVNBSCBNNBVNw&0FFSSSVbmVVNmmVZFFy$=gccccccgg",
"zcllcccnm-*NSCMCSSCSDCdBSCbyNNN0-OwJHFFSCBBCDVBvyaJQK9$6ccccllhg",
"clllccccd7*BDVmVSSBVDDBCCJNaNZN8&OwDDDHDACVVNNNNayDQWN-6ccccljjj",
"jjjxxxxcn,-NCNybSSVCBNNVSJCNVJJy@O0VVZHDVBVVaaNVVNVKYB;4xcccxlhl",
"jjxxxxccd&@dy870bbNNb88bNJJCSSJdOOwNVAHSMbVCbvNZCNNSDa-3lccxxljh",
"gjxcccccd@X&@O&-77807O&ySJJSJJFNOX0NVDHAMMCAVBCVNbNCB9$1lcccxjlj",
"ggcccccc0OXOO@*7-&@@OXOySJJJJDJZ@X7NZHHZBVACVVCByyVDV;#4xcxxxhlg",
"jjgllgxi=*;90aNayt0w0=o-CJDDDFJZ*o9VDGGSVVSCbbBVbaSJD9#3lcxcclhg",
"fgglxgx6#;MCADHDSCDDDv&@vBvvyZJV*@yFHGGZVVCVbbBZCVDJC;#3hcxxchgg",
"ssfllhle*yCSDHGDDGFJJDw#--9tNZJC=@wFJHDZVBCVBCDDSZDSa*#3gllxxlgg",
"ssfllg6raBVVCCCCZSDDGDm*@O9BSDJD8o*NJJDZVVBVSDDACVBme##4igllxxxg",
"5sflld4eNCVBVVVVVCVCSGB*@-ySJJKJt#@wDHDZVVBVZADZVNvh-#%4ighxxxhj",
"<56ggs420ybNNNBVVVCCSDb=*0NVDJJSw$@,MZDSVCSSZVVVBvvw=#=4fugxxhll",
"5sssds41-7tBVBMBVCAACVy&&-88wNNw>#@*qmADZDGGZMbMmvp2&$16guggxhhx",
"ssssrs662-yCVVVVSDCNva9*&&#@&&&7-*$@$0BZADDDAVvvvt2&#>366ggxxljh",
"ggg666662-0NVNVACVvwqtq2tp922-=9e9;=$-0tyytyyyw0-&@@$266giilllll",
"gli66r664-=89;78--1qrrr6ihrru44re66432ee-**-77-*&&-2466sgfglxxlh",
"glg6g66653>=%$#$##16g66466666666666646641-=----=--ezg66r6gglxxhx",
"hlggg6666444444443464666666666464646666rre2229qqreer6666dgdlxxjh",
"llhgg66666646u6u66645666u6uu66666666666666666rrre66666r6gulcxhgf",
"lzggf6ufruu6iuiigu6666uuugghg6666sr6iui6r6rur6if6i6r6dgfghlcchu5",
"cclgu56fggugggjxlgf66guggggggggfgugdggif666fsgi6gfgggfighjccxf55",
"cxlgf65uigggghlxxjf6fugfggllgggffggdgguggfr6666g66rgigfgglxcxg55"
};
