/* XPM */
static char *start_31678373501[] = {
/* columns rows colors chars-per-pixel */
"64 64 99 2 ",
"   c #150D15",
".  c #190E15",
"X  c #1B1117",
"o  c #16131A",
"O  c #1D141A",
"+  c #1D1A1D",
"@  c #21161B",
"#  c #231A1E",
"$  c #281A1F",
"%  c #1F1D23",
"&  c #241D22",
"*  c #2A1E22",
"=  c #262125",
"-  c #2C2225",
";  c #242228",
":  c #2B2529",
">  c #2D2B2D",
",  c #312426",
"<  c #332628",
"1  c #342A2C",
"2  c #3A2C2D",
"3  c #2E2E31",
"4  c #312E30",
"5  c #3C2F30",
"6  c #2E3636",
"7  c #343335",
"8  c #3D3233",
"9  c #363638",
"0  c #393738",
"q  c #343B3B",
"w  c #3B3C3C",
"e  c #402D2E",
"r  c #412F31",
"t  c #423434",
"y  c #4A3736",
"u  c #453837",
"i  c #493937",
"p  c #413738",
"a  c #453A3A",
"s  c #4A3C3B",
"d  c #523E3C",
"f  c #4F403E",
"g  c #52413F",
"h  c #3E3F40",
"j  c #403F40",
"k  c #3E4141",
"l  c #454545",
"z  c #4B4544",
"x  c #474847",
"c  c #474748",
"v  c #474848",
"b  c #484848",
"n  c #544441",
"m  c #5A4643",
"M  c #574844",
"N  c #5D4A46",
"B  c #5F4C48",
"V  c #604746",
"C  c #614B46",
"Z  c #634E49",
"A  c #684F4B",
"S  c #66514C",
"D  c #6B534E",
"F  c #6E5650",
"G  c #6C5850",
"H  c #705751",
"J  c #745A54",
"K  c #795E56",
"L  c #7C5F58",
"P  c #776056",
"I  c #7A6157",
"U  c #7D6159",
"Y  c #82645C",
"T  c #83695E",
"R  c #88685F",
"E  c #866C61",
"W  c #8A6D62",
"Q  c #8D7165",
"!  c #917367",
"~  c #937568",
"^  c #957A6B",
"/  c #9A7D6E",
"(  c #9D7F70",
")  c #9D8171",
"_  c #A38474",
"`  c #A68977",
"'  c #AB8D7A",
"]  c #AE917D",
"[  c #B1917E",
"{  c #B49681",
"}  c #B79883",
"|  c #BA9A85",
" . c #BF9E88",
".. c #C19F89",
"X. c #C3A38B",
"o. c #C9A78F",
"O. c #CEAC93",
"+. c #D7B499",
"@. c #DCB99D",
/* pixels */
"b c x b b c x c x b b c b b b b b x l q 6 6 w l b b l k q k k k k l v v v b c c x l l l k k k q 6 6 q k l x b b x k k 6 6 6 q q ",
"b b c b b b b b c b b c b c z b x c l q q w k l b b l k w w w k l v v x x x c c x x l k k k q q q k k k l c x x c k q 6 6 6 q w ",
"b b x b c x c b b b c b b x x x x x c l k l l c b b v l k l l c l v v x l x c c x x l l k k q q k k l l l k k l l k q 6 6 6 k k ",
"b x c b b b x b c b b b b b b b c c c c x c l v v v v l l l l c l v v v c x l c x l l l k k k k k l v v c l k k l l k q q k l v ",
"c x x b b c x b b b b b x c b x b b b b b b x b b b x b b c c c b b c c c c c l c c l l l k k w k k v b b c c l c c l c l l v v ",
"b b c b c b b b b x c x b b b b z b b b b b b b b v b b x x b x c x x b x x x x c c l l k l l l k k v v v v c b c c c b v b b b ",
"c b c b b b b b c c b c b b c b b c b b b b b b b b b b b x b c x b x b b x x x c c c c x l c c l l x v b b b b x x x b b x v v ",
"x b x b b c z b b x b b b b b z b x c b x c b b b v b v b c b b b b c b b b x x v x x v v v c c v v x v c x c x x x c b b b c x ",
"b b c b c b v b b c z b b b b b x b b b b b b b b b b b b b b b c b b b b b b b b b b b b b b b b b b b b x x b x x b c b b c c ",
"c b x b b b b b b x c b b b b b b b c x x c b b b b b b b b b b b b b b b b b b b b b b b b b b b b b b b b b b b b c b b x c c ",
"c x b x b c b b b b b b b b b c b b c x b b b b b b b b b b b b b b b b b b b b b b b b b b b b b b b b b b b b c b c b x x c z ",
"b b b x c b b b x b b b b b b b b b b c b b b b b b j j j c j j l j j z l j h w h w c b b b b b b b b b b b b b x b x b x x c c ",
"c b c x b b b b b b c l l l l l l l a l j c b c b 4 & & & & # # & # & # # & # # , 1 7 w l c c h l l h j l l l b b c b x b b c c ",
"x b b b b b b b b b h 1 - & & & & - ; = * 9 w : - , < 2 2 < < < < < < , < - , y I T g & : 0 0 - - = - = & : 0 b b b b b b x c c ",
"b c b c b b b b b c 1 - - * * * # t D g @ % - * * t s s s a a s C A Z Z C s z K _ | ^ N s 8 - , y C D Z y X O j b b x b x c c z ",
"z b b x b b b b v : - 8 s g n u s U | ' A 2 2 5 a s s u a s n N K Y U Y K A N D U / } X.` N t N Y _ [ | _ n . * c b b x x c c x ",
"b b b x b b b b : , t a g D Z z A K ~ ' { [ J # 2 s s s n S J J L Y Y Y Y Y Z m J Y / { ' E D N D Y Q _ { ) B : = w b b b b b x ",
"b b x x b b l > - r a s B K D g A H J W } O.T O : p n Z D K Y U Y K J J K J n t A L U E Q E K A D D J K U T E B # 7 b b b b x x ",
"b c c x b b 7 # 2 s a s D U K Z N D D K / ' J , 5 u g N B H U Y J d 2 e e r < * t A K K K L K J J J K A s M W T = 6 x b x c x c ",
"c l c c b b 7 & < s a s S L Y K Z m A J W Q D d n m m g s S T L j , @ @ # , < 2 2 y D K K U E I K J H n u B ! I + 7 b b x c c c ",
"q h k c b b h ; 1 s u s D U U J D g g H L K J D H J J D n A J g < , t s d Z H H A r t A J U E E K J D n n I ) P + 7 b b x c c c ",
"6 h k c B b 0 & < s a s A J D n g s g D J K J J J K Y L J C r $ e d A H H Y R Y L A r r n P W E L H D A H ! _ I & 9 b b b c z c ",
"q h l c b b 0 & 1 s s a n N s u g Z D H K K J H J J K U Y N #   s A J Y K K K K K Y V t n S U ! U H D D R _ ' F & 7 b b x x x c ",
"k k c b b b l 4 - 5 s s p s g N J Y K J J K H H J J K K F n - . s H K K K K J K K Y D A G B J / Y J H J ! [ ^ t > h b b x z c c ",
"k l v v b b b k ; : a s a n D U Y U K J J J J J J J L H n a - @ d H K K K K K K L Y D V A D Y _ Y H J L ^ ) N % 0 b b b b b v v ",
"l l v v b b B v > - 5 a a d D K K J K K K J J J K K U H f a - @ a A F H D F H J K J d 2 s J ^ _ Y J J L E T u & l b v b b v c c ",
"k k l v b b b v 0 > * , 8 s N J K K K K J K J K J K U H g a - O u m C A A A V d y r $ @ , A ~ W U K K A d s w 0 v b b b x c c c ",
"k k k l b b b b c 9 : & , t C J J H J H J J K K L K L J n s - X s C Z A H Y j 2 e $ $ * # m W R U J A s : : h b b v b b b x c c ",
"q k k l v v b b v l k 6 > 1 g H D A N A D S H L U K K K Z f - X a F J J Y Y V d D d d s $ d W Q R C t p k k l b b b x x b x b b ",
"q k k l v v b v v v v k q : t Z Z n g N G S N S D J K J F M , O 8 Z K K Y K J H Y I D d 2 N T Q ~ s ; a B b b b b b b x b b x c ",
"k k k l v v v b b v v l k : , n n s g D K H N n g D H m n f 8 : - i A H D A V V n g y r V H S P ^ u ; l b b x x b b c c x c c c ",
"k k k v c v v c c l l k q % # 8 s p n J U U H n g D J g 8 8 s u - * 2 t 8 , $ @ @ @ , g U S p G ^ u % l b x x c c c l l l j l l ",
"c c b b c c a 9 7 4 7 7 : . . < p p n J L K K K K K K H n n m n p # . O O X     X - m Y H g d U ^ u & l b b b b b c l w w q q q ",
"b b b b b h 4 - & & & : : * @ * 2 t n J K K K U U L L U K J K F n u t p t t p t u N J D g m J Q / t % l b b b b x c l l q q 6 6 ",
"b b b b l 4 - : * * 2 z D J Z r - 1 g J K K K J J K K U Y Y R U J J K J J K K K K S M u s D W ( ) t % l b b b b x c c l k q q 6 ",
"b b b j 4 1 5 t 8 p B W ' X.| W t * s H U K J K K L K K K K I I U Y U U U U Y R I g 8 u n J ~ [ ) 8 & l b x c x b b x c k k w q ",
"b b c 7 - 5 u s g m K ! ' o.@...Y 2 2 N K K K K U H Z N A J J S Z Z D L K D B A B s s Z H I ) ' G 1 9 c b x c c b b b x v c k l ",
"b b a : , 8 s z N J K I E ( ..@.] f - u A K Y Y J g a d n A m u s d Z K J N s g g i g I Q ~ ' ) : ; c b b b b b b x b b b v l l ",
"b b h - - 8 a m F L K F A J ( O.[ g * 8 n S K K Z s n D D D g s Z S D K J H D G S f f P ' X.[ G + 6 b b b b b b c c x b b b x l ",
"b b h : - 1 a N J Y U K D D W ' ^ i & 2 u z B Z m Z J Y Y U D D K Y L K L Y Y E I g 4 g Q [ ~ 8 1 w b b b x c x b x b b v v l l ",
"b b h - - 1 a N K Y U K H C H ( ^ i @ , 5 s g Z S D F F I Y U U L L K K K H F J K n 7 1 1 g f : 0 l c c x c b b b c c x b x c c ",
"b b h : - 8 s n D U K H A V K [ ' g $ 2 g C Z D D Z m Z D J J U K K J K J F D F F m 5 * $ @ & 6 l l l b b b c b b x b b b c l l ",
"b b c : - 8 j n N G Y U J Y ( o.' g < g D H D H D C N S D H H J J J K K J H G A C A s s S - o j c c b b b b b v b b b x x c c l ",
"b b l 7 : 2 s s f B I Q / [ o.| U 8 1 g H J H U K H D H K J K J F J K J J J H F D H A Y ) s o q l w w h h l c c c x b c x z c l ",
"c c c w 4 : 2 8 8 t B R ) } { U t - u S K H H U U U K K K L K K J J J J K K K K J J L ^ _ u   : 1 > > > > 4 h c b b b b x c c c ",
"l l c c l 5 : , - & 1 g S G S 2 * 1 n I U D B S H K U L L L J H F J J J J K K L K H J ! ! t   = & - 2 u t 1 7 l b b x x b c c c ",
"l l c b b a 4 - = $ & : > < # . - t g J U H Z m D J K K K K J H F H J J K K K K K Y R Q K r - 2 1 p J ) ) K t 7 l c x b x c l x ",
"l l c c b l w 7 4 > > > > : + O 2 s s M H Y J D D H H K K H H J J H J K K K K K L ^ ` W s 2 8 f g G /  .+.X.Y 2 4 l x x x c x l ",
"l l l l l l f l 0 w 0 0 0 0 : + 8 f p u D U Y K Z Z F J J J J K K K K K U U D N P / _ P 2 2 s f S K Y Q [ O.[ C : 7 x b b x c l ",
"k l l l l l k k w w w w k k 7 : < t t f D Y Y K Z N S J K I U Y Y Y Y I J D g s F R Q D - 7 M S K K H D T [ [ D & 7 x x b x c l ",
"k k k l l l k j w w 0 0 0 w w 4 @ 1 p f D G J K H F H J K I U U I K I J m s u g J U T S : 2 S K Y K J D J ~ ^ B = 6 l x c c l l ",
"q k k v l l l j 0 0 0 0 0 0 w 4 X - s s g g Z J U R U S B m m n n m m g p 8 g D J U Y S , 8 B G Y Y K D D R ) D & 3 l l c x z l ",
"q q k v x l l j w 0 q 8 9 0 w 4 X , s s p g A H U E H y , - : - - - - & - g K L J K W F 1 1 g S Y R U J E _ ' D = 3 l l l l x l ",
"6 k k v c l k w w w w q 9 0 w 7 : : 5 p u C I Y L D i - & & # = & = O . - m U U J W ` U , - s B J H J W { ..Q t : q k l l c c x ",
"q k k l c l l k w w w 8 q 8 7 q 7 + - u g D T ! W y # : 4 7 > 3 3 1 = @ < g D T )  .[ G @ O 2 u y t s K _ ^ d : 7 w w l l l c z ",
"k k l l c c l f w f q p q q 8 w 0 $ # 8 u s C Y Y e @ 7 w 0 0 w 0 0 9 > : 2 u D '  .I $ X & : $ # @ # 2 g t - 7 w w f l l c x x ",
"c c c c c c x l k k k k q w q w q 7 : * * $ : 5 t 1 4 w k w j w j w w 0 4 : @ < g C , . > 0 7 : = = = & & = 3 0 j k j l l l c c ",
"x x c b x x l l k f k k w w w 0 0 w 7 4 4 > 3 7 8 0 w j w j w j w j j j w 7 1 4 0 7 1 3 w l j q 9 7 7 3 > 3 9 w w f l l c l x l ",
"x x x b x c x x f x k k k k w w w w w w f k f k l f k k f k j j f k k k l k l f l j l l x l f l k w k w w w w w k k l c z c x c ",
"b x b x x x v x k x f k k f w f l k k f k l k v l k l l l l l l k v l x x v v k l l x x x x l k k f k k k f j l l l l c x c x l ",
"b b c x x l v x x l x l f k x l j l j l l k l l k l l l l l l l l l c c l l x l c c c c x x x l l l f k l f k k l l c c x c l l ",
"b b x c l k k x x x x x k x x k l l k k k l l k v l l l l l l k l l c x x x x x c x c c l l x l l l v k l l l l z l c x x l j q ",
"b b b c k k k l x x x x x x x x x x l k l l l l l l l l l l l l l l x b b v x x v v x x x x x l l l v v x l l x c c x x x l q q ",
"b b x c k w w l x x x x x x x x x l k k k k l k l l v x l l l k l l x v x v x x v x x l l l v x l v l v z l c l c c x x c l q 6 "
};
