/* XPM */
static char *result[] = {
/* columns rows colors chars-per-pixel */
"50 50 114 2 ",
"   c #1A1A1A",
".  c #221E1E",
"X  c #25201F",
"o  c #252223",
"O  c #2A2425",
"+  c #2D2729",
"@  c #2E2C2D",
"#  c #322625",
"$  c #302728",
"%  c #332B2D",
"&  c #3B2C2B",
"*  c #34302F",
"=  c #3B302F",
"-  c #362D31",
";  c #3B2F31",
":  c #343333",
">  c #3B3135",
",  c #3F3439",
"<  c #3C3B3B",
"1  c #402E2D",
"2  c #42302F",
"3  c #402F30",
"4  c #453231",
"5  c #4C3432",
"6  c #473836",
"7  c #4E3836",
"8  c #41353A",
"9  c #45393E",
"0  c #493B3D",
"q  c #513735",
"w  c #533936",
"e  c #543C3A",
"r  c #5C3E3A",
"t  c #603F3C",
"y  c #54403F",
"u  c #5D413E",
"i  c #64423E",
"p  c #68433F",
"a  c #433F41",
"s  c #4C3C43",
"d  c #503F46",
"f  c #444243",
"g  c #4A4749",
"h  c #4D4C4C",
"j  c #514047",
"k  c #5B4543",
"l  c #5A4847",
"z  c #554E4D",
"x  c #5D4C4B",
"c  c #504F50",
"v  c #555354",
"b  c #585555",
"n  c #5B5A5A",
"m  c #654541",
"M  c #6B4542",
"N  c #634845",
"B  c #6D4945",
"V  c #644D4B",
"C  c #6B4D4A",
"Z  c #704844",
"A  c #714E4B",
"S  c #61504F",
"D  c #6D514E",
"F  c #72514E",
"G  c #645553",
"H  c #6F5351",
"J  c #645857",
"K  c #6D5856",
"L  c #635B5B",
"P  c #6A5C5B",
"I  c #735552",
"U  c #785653",
"Y  c #735956",
"T  c #7A5955",
"R  c #745D5B",
"E  c #69605F",
"W  c #75615F",
"Q  c #79615F",
"!  c #646262",
"~  c #6D6363",
"^  c #6C6B6B",
"/  c #736564",
"(  c #7A6462",
")  c #726867",
"_  c #7C6866",
"`  c #746B6A",
"'  c #7D6B69",
"]  c #75706F",
"[  c #7D706F",
"{  c #747373",
"}  c #7C7473",
"|  c #7D7877",
" . c #7D7B7A",
".. c #806765",
"X. c #826E6C",
"o. c #85716F",
"O. c #827574",
"+. c #827877",
"@. c #887977",
"#. c #837A79",
"$. c #8A7C7B",
"%. c #8C807E",
"&. c #848383",
"*. c #898685",
"=. c #888887",
"-. c #898989",
";. c #908483",
":. c #918887",
">. c #938D8C",
",. c #97908F",
"<. c #959494",
"1. c #999393",
"2. c #9C9B9B",
"3. c #A3A2A2",
/* pixels */
"j j j j j j j j j j j d s 8 - o                                     . @ , s d d d d d d j j j j j d ",
"j j j j d j j j s s s 0 8 , : : @ @ @ @ @ @ @ @ @ @ @ @ @ @ @ : : : : < 8 8 a s s d j d j j j j j j ",
"j j j j j j j j s 9 8 > > , f g h h h h c h h h c c h h c c v v n n v g a > > 8 s d j j j j d d j j ",
"j j j j j j j j s 8 - + @ < h L ^ ^ ^ ^ ^ ^ ^ ^ ^ ^ ^ ^ ^ ^ { {  . .^ b f @ + - , s j j j j d d j j ",
"d d d d j d d d 9 > + . o a b { -.-.=.=.=.=.=.=.-.-.-.-.=.=.-.2.2.3.*.^ g + o @ ; a d d d d d d j j ",
"d d d d s s a , 8 < < < a h n ~ { { ] } } } } O.O.O.O.O. . . .%.%.;.+.) n g f < 8 8 , a s s d d j j ",
"d j d d s 8 ; - : f g v n n n J J K P R R R W Q Q Q Q _ Q ( ( _ ' ' ' ` ^ ^ E v f > - - 8 s d d j j ",
"j j d d a > + . @ f b ^ { ^ J x j k N N C C C F F I F I F F F D D D R ' +.=.&.! z - o @ ; a d d j j ",
"d s s s , > - + : h n { | ) G k 5 q r u i p p p Z Z Z Z Z Z p p i i F ( $.>.-.] n < @ : , 8 s f d d ",
"d s , ; < < a f c v ! ! W J V k r r r u i p p B p Z Z Z Z Z Z p p i C R _ @.@.` ! n c g f < > < s s ",
"a , % + < f c ! ! L n G V x k u r r u u i i p Z Z Z Z Z Z Z B p p t M C I R ( ) ` } { ! h < @ @ - s ",
", - o   : c !  .| / G d w w r r i i i i i i p p Z Z Z Z Z Z B p m t m M m m D ( +.,.<.{ n <   o % 8 ",
", % o   : h ^ &. .) G y q w w i i t i i p p B Z Z Z Z Z Z Z B p M t M t m t C ( $.1.2. .n <   o % , ",
", % o   : c ! &. .) S y q w r t i i i i p p B p B Z Z Z Z Z Z p M M M t t t H ( $.1.2. .n <   o % , ",
", % o   : c ^ &.+.) G j q w r r i p p p p Z Z p Z Z Z Z Z Z Z Z M M M M M t C ( $.<.2. .n <   o % , ",
", % o   : g !  .} ~ G j w e e i i p p p Z Z Z B Z Z Z B Z Z Z Z Z B B M B B H _ #.>.<.{ n :   o % , ",
"< @ o   @ < h n ! L n G S V k u u i i i p M M M M B M M M B M M M M C F Y Q ( ' ` { ] n f :   o % , ",
", : o   o @ < a g v J ~ ~ K S y w r r i p i p p p p p p p p p p p p F R X.@.+.` ! b h a : O   o % , ",
", % o       X o : h ! { | ) J k w e r r i i i i p i i u i u p i p i F ' @.,.-.] b < o o .     o % , ",
", % o       . . * f n ` } ) P V u k k i C C S D D C C C C C D D D D R o.%.>.*.) c : X . .     o % , ",
", % o     X X # = y z L ~ E P P E P E W W W W W W W W W W W / _ ' X.X.o.O.@.' P l 6 & # X X   o % , ",
", % o   X O # 1 2 7 y l S J ~ ` ] ] } } } [ } } | O.} } } } +.%.;.:.%.O...Q K C u y 5 & # X   o % , ",
", % o   X # & 5 5 5 5 5 e S / | -.-.-.-.-.-.-.-.-.-.-.-.-.-.,.<.2.3.,.@.Q C t i i i u 5 & X   X % , ",
", @ o   O * 0 x l y y 7 e V J ` @.O.+.+.+.O.+.O.} } } +.+.} %.*.;.>.$...Y N m C D Y K l 6 #   X @ , ",
", % o   @ < z P P S k w w k S Y _ Q _ Q _ Q Q Q W W W ( ( _ _ X.X.o...T F m M K Q X.O.L d -   o % , ",
", % o   : g ! { ] E x y w y N C F U I I I F I I D D F F I F F U U U U A M m C R o.;.>.] c ,   o - , ",
", @ o   : h ! | } ) J k y u i M Z Z Z Z B p p p i i p p Z Z Z Z Z Z Z B C C Y _ +.>.,.{ b <   o @ > ",
", - o   @ 9 v ~ / E P J G D D B Z Z Z Z Z Z p p i i p p p Z Z Z Z Z A I T ( _ X.O.$.+.E h -   o % a ",
", % X   O > y z J P E ) ) W Y F Z Z Z Z Z p p p p p p p Z Z Z Z Z Z I ..o.$.$.@.X._ R x s +   X + ; ",
", % o   o # = 7 l J `  .%.[ Q F Z Z Z Z Z B Z p i p p p Z Z Z Z Z Z T X.;.1.1.$...Y m e 1 O   . - a ",
", % O   X # = 5 y S E ] } ` ( W U U U I I I I H D D H I I U U U U U ( X.$.:.*.o.W C r 5 & O   o % s ",
", % X   X # & 5 7 k S P W E / ( _ _ _ _ _ _ / ( / / ( / ( _ _ _ _ _ ..X.o.o.X.W I B r 5 & O   o + - ",
", % o   . & 1 4 q w e k V J / [ #.#.#.#.#.#.#.#.| | #.#.#.#.#.#.#.#.} ' ( R H C C M t 5 & X   O % , ",
", % o   . # 1 5 5 q q q e S / { *.*.*.*.*.*.*.*.*.*.*.*.*.*.*.*.*.*.#.) Y N t t i t t 5 & O   O % , ",
", @ o   . # & 5 q q w w k V R _ O.O.O.O.} O.} [ [ } [ } O.O.O.o.O.O._ R F M t t i i r 5 1 O   O % 8 ",
", - o   . # 1 5 q w r t m N H R Q Q Q ( Q Q W W R R W W Q Q Q Q Q Q R H Z Z t t t i t 7 1 #   O - , ",
", - o   o # 1 5 q r t M M Z A A A F F F A A A Z C C C C A F F F F F A B m i t t t t r 7 1 # . + - 8 ",
"8 - + . + # & 3 5 w t t M M M Z Z Z Z Z Z Z M p i i p M Z Z Z Z Z Z M M M i t t r r r 5 1 # o % - 8 ",
"a 8 - % % # & # & 5 w r t p M M Z Z Z Z Z Z p p i i p M M Z Z Z Z Z M M i i t t q 5 4 4 ; & - > a s ",
"s s 9 8 ; - $ O # & 3 q r t p M Z Z Z Z Z Z M p i i p M Z Z Z Z Z Z B M i i d w 4 & # & ; 8 8 a s d ",
"d d d d a - +   . O & 3 w r r M Z Z Z Z Z Z M p i i p M Z Z Z Z Z Z M M p p r 5 & + . $ > s s s j j ",
"d d d d s > - O + # & 3 5 q r t M M Z M M M p p i i p p M M Z M M M p t r e 5 3 & # + - 8 a d d j j ",
"d d d d s 8 8 ; & - & # & 4 q t p p p p M p p p i i p p p p p p M M t r 5 3 3 3 3 ; ; 8 s s d d j j ",
"d d d d s s s s 8 ; % + # & 5 r t p p t p t p t t i t p t p p t t t r q 3 & $ - , 8 a s s d d d j j ",
"j j d j j j j j s 8 - + + & 4 q r r r r r t t t r r r r t r r r t t w 4 & + + - 8 d d d s d d d d j ",
"j j j j j j j j s 9 , - - ; 3 4 5 5 5 5 5 5 4 5 5 5 5 5 5 5 5 5 5 5 4 4 - - ; , s d d d d d d d j j ",
"j j j j d j d d s s s 8 8 ; ; & % & & & # # & # % % $ & - % % % % & & ; ; 8 , s s s j j j d d d j j ",
"j j j j d d d d d s s s s 8 - $ X X . X X X X X X . . . . . . o O o $ - , s s d d s j j j d d d j j ",
"j j d j j j j j j j j d d s > @ O O o + o o o o o o + o o + o + O O % ; a s d d d d j j d j j j j j ",
"j j j j j j j j j j j j d s 8 > - - - - - - - > - - - - - - - - - - , 8 s s d d d d j j j j j j j j "
};
