/* XPM */
static char *result[] = {
/* columns rows colors chars-per-pixel */
"50 50 100 2 ",
"   c #514047",
".  c #5D4547",
"X  c #544349",
"o  c #5B4549",
"O  c #564851",
"+  c #594C56",
"@  c #554E5A",
"#  c #5A4E59",
"$  c #5D535D",
"%  c #624744",
"&  c #604749",
"*  c #65494A",
"=  c #6C4C4B",
"-  c #724F4C",
";  c #77514C",
":  c #7A534E",
">  c #605055",
",  c #64565E",
"<  c #765251",
"1  c #7E5550",
"2  c #434F65",
"3  c #445167",
"4  c #4F5061",
"5  c #46536A",
"6  c #49566D",
"7  c #4B586F",
"8  c #525364",
"9  c #5C5562",
"0  c #545668",
"q  c #555A6D",
"w  c #5D5B6A",
"e  c #4D5A72",
"r  c #505D76",
"t  c #525F78",
"y  c #625A65",
"u  c #655D69",
"i  c #546076",
"p  c #56637C",
"a  c #5A657A",
"s  c #6B626D",
"d  c #74646B",
"f  c #79666C",
"g  c #7D686E",
"h  c #666677",
"j  c #6A6574",
"k  c #646A7E",
"l  c #6C6A7B",
"z  c #706774",
"x  c #716973",
"c  c #766E7A",
"v  c #815751",
"b  c #865A54",
"n  c #895B57",
"m  c #8A5D58",
"M  c #576580",
"N  c #596782",
"B  c #5C6984",
"V  c #5E6D89",
"C  c #636D84",
"Z  c #696F84",
"A  c #606E88",
"S  c #64718A",
"D  c #69758C",
"F  c #6E798F",
"G  c #727587",
"H  c #76798D",
"J  c #79798A",
"K  c #657493",
"L  c #687795",
"P  c #6A7996",
"I  c #6F7F9F",
"U  c #727D93",
"Y  c #7A7F93",
"T  c #717F9F",
"R  c #7A8197",
"E  c #73819C",
"W  c #7B849C",
"Q  c #7584A3",
"!  c #7A87A2",
"~  c #7A88A5",
"^  c #7D8BA9",
"/  c #808497",
"(  c #82869A",
")  c #80889F",
"_  c #838DA4",
"`  c #818FAA",
"'  c #8590A6",
"]  c #8692AC",
"[  c #8895AF",
"{  c #8D98AD",
"}  c #8794B0",
"|  c #8A97B1",
" . c #8E9AB3",
".. c #919DB5",
"X. c #94A0B7",
"o. c #95A1B9",
"O. c #9AA6BC",
"+. c #9DA8BE",
"@. c #A0AABF",
"#. c #A2ACC1",
/* pixels */
"                                                    j _ ] } [ } }  .+.#.+.} Q Q E E E K I K V r 2 2 ",
"                                                    j _ } } [ [ }  .O.#.+.} Q Q E E Q Q I I V t 2 2 ",
"                                                    h _ [ } [ [ }  .O.#.+.| ^ Q I I I I I I V t 2 2 ",
"                                                    h ! [ [ [ [ } | O.#.+.} ^ Q I I I I I I V t 2 2 ",
"                                                  X j _ [ [ [ } }  .o.#.+.} Q Q I I I I Q K V e 2 2 ",
"          X o o o o                               X j _ [ [ [ [ }  .+.#.+.^ Q Q I Q I I I I V t 2 2 ",
"        o . * * * * o                               j _ } [ [ [ }  .o.#.+.} Q Q I I I I I L V e 2 2 ",
"        o * - - - - * o                             j _ [ [ [ [ } o.o.#.+.} Q Q I I I I I I V t 2 2 ",
"        o * - ; ; ; * X           X X o X         X j _ } [ [ } }  .+.#.+.} Q Q I I I I I I V r 2 2 ",
"        X & - ; ; ; * X           o % * & X       X z _ } [ [ [ }  .O.+.+.} Q Q I I I I I I V r 2 2 ",
"          . - ; ; - .           X . = - * .       X j _ [ | [ [ }  .o.#.+.} ^ Q Q I I I Q K V t 2 2 ",
"          o * * %               X & * = * o       X z ' [ [ [ [ }  .O.#.+.} ^ Q I I I I Q I V e 2 2 ",
"                                  . & * . o       X z _ [ [ [ [ } o.o.#.+.} Q I I I I I Q K V t 2 2 ",
"                                    X X X         X z ' [ [ [ [ }  .O.#.+.} Q I I I I I Q K V e 2 2 ",
"                  X & ; ; ; ; *                   X z _ [ [ [ [ }  .+.#.+.} Q I I I I Q K Q V t 2 2 ",
"                X . = ; ; ; ; = & & .             X z ' [ [ } [ }  .o.#.+. .I I I I I I Q Q V t 2 2 ",
"                & - ; ; ; ; ; ; - - = .           X z _ [ [ [ [ ^ X.O.@.+.{ Q E E E E E L Q M e 2 2 ",
"                & ; ; ; ; ; ; ; ; ; - - &         X j _ [ [ [ [ { ..O.@.+.{ E E E E E E Q E V e 2 2 ",
"                & ; ; ; ; ; ; ; ; ; : b < o       X u Y / ( _ ! ! ! ' ' ^ E E E K K V K K K M e 2 2 ",
"                & ; ; ; ; ; ; ; ; ; : b < o         $ j z c G Z k k E R E E i i M M M M M M t 6 2 2 ",
"                & ; ; ; ; ; ; ; ; : : n ; o         o O > , u r 7 7 7 e e e 6 6 5 5 6 6 6 6 5 3 2 2 ",
"                & ; ; ; ; ; ; ; ; v n n < o         O , j z k a i i i i t r e e e e e 6 6 6 6 5 2 2 ",
"                . - ; v v : : v v n n v = o         + l Y ) W U E k E E E V N M M N N M M M t 6 2 2 ",
"                  % ; n n n n n n n b - . X         9 J _ } ` ` ! ^ ^ X.^ Q Q L K K E K L L M e 2 2 ",
"              X + y d g g g g g g g g u u u u , + X $ H ` [ [ [ }  .+.#.O.} ^ Q I I I I I I V e 2 2 ",
"              O y c J J J J J J J J J H H H H l 9 O $ H ` [ [ [ }  .o.+.o.} ^ Q I I I I I I V t 2 2 ",
"              @ j W [ [ ' [ [ ] ] [ ] ] ] ] ] Y j O $ U ] [ [ [ }  .o.o.o.} ^ Q I I I I I L V t 2 2 ",
"9 y y y 9 # X + j R [ [ } } [ [ [ [ [ [ [ [ [ Y j O $ H ] [ [ }  . .o.o. .} } Q Q Q I I I I V e 2 2 ",
"_ ) _ G l y O + j / } [ [ [ [ [ [ [ [ [ [ [ [ R h O $ H ' [ [ |  . .o.o. .} ^ ^ Q I I I I I V t 2 2 ",
"' ] ] ` W l # + j W } } [ [ [ [ [ [ [ [ } [ [ R j O $ H ' [ [ |  . . . . .} ^ Q Q Q Q I I K V t 2 2 ",
"| [ [ [ W Z $ @ h W [ [ [ [ [ [ [ [ [ [ [ [ } Y h @ 9 Y ] [ [ |  . .o. .} } } ^ Q Q I I I I V t 2 2 ",
"[ [ [ [ ! Z 0 8 C W [ [ [ [ [ [ [ [ [ [ [ } } U k 4 0 Y ] [ [ [ }  . . . .} ^ ^ Q Q Q I I I V t 2 2 ",
"[ [ [ [ W S r 7 C W [ [ [ [ [ [ ^ | | ^  .| [ E C 6 i R ^ | | | |  . . .| | ^ ^ Q Q Q Q E I V e 2 2 ",
"| | |  ._ D r q D !  .X. . . . . . .o. . . ...^ A 7 e E [ } |  . ..... .o.^ | ^ ~ Q Q E I I L e 2 2 ",
"......O.[ F r e D ' O.O.O.O.O.O.O.O.O.O.O.O.O.^ D 7 i W [ ......X.X.X.X.X. .o.^ Q Q Q E I I I e 2 2 ",
"+.O.O.#.{ Y i q F { @.@.@.#.@.@.#.#.+.#.#.#.#.^ D 7 a W ..+.+.+.O.+.+.+.+.O.O. .~ Q Q Q I Q L e 2 2 ",
"@.@.#.+.} U r r L } +.+.O.+.+.O.+.+.+.+.+.+.O.^ D 6 i E { O.O.O.O.O.+.O.O.O.O.^ Q Q I Q I I K e 2 2 ",
"......| _ S r 7 S ~ }  .| | | |  .^ | | } } } Q k 6 i D ^ | | } | | | }  .^ ^ ^ Q Q I I I I K e 5 2 ",
"] ` ` ~ I B e 7 B P Q Q ~ ~ ~ ~ Q ~ Q Q ^ ^ Q L a 6 r A E Q Q ~ ~ ~ ~ Q ^ Q Q Q Q Q I I I I V e 5 2 ",
"Q Q Q T K N 7 6 p K I I E E E E I I Q I Q E I K p 6 e B E E E E E E E E Q E Q Q Q I I I I Q V e 5 2 ",
"I I I Q L M 6 6 N K I I I I I I I I I I I I I K M 5 e N L I I I I I I I I I Q I I I I I I I V e 5 2 ",
"I I I I L M e 6 p K I I E I I Q I I I I I I I K M 6 e V L I I I I I I I I I I I I I I I I I M e 5 2 ",
"I I I I L N e 6 N K E E I I I I I I I I I I I K M 3 e N L I I I I I I Q I I I I I I I Q I I V e 5 2 ",
"I I I I L N 6 6 p K E E I I I I I I I I I I I K M 5 e N I I I I Q I I I I I I I I I I I I Q M e 5 2 ",
"I I I I K M 6 6 M K I I I I I I I I I I I I I K M 5 6 V L I I I I I I I I I I I I I I I I I M e 5 2 ",
"I I I I K M 6 6 M V I I I I L I I I I I I I I V M 2 6 M K I I I I I K I I I L I I Q I I I I r e 2 2 ",
"V V V V M M 6 5 e M V V V V V V V V V V V N V M e 5 6 M N V V N V V V V V V V V K K K K V M e e 5 2 ",
"e e M e e 6 5 3 6 e e e M e e M e t e t t t t e 6 2 5 5 6 M e M r r r t r r r e 6 6 e e r e e 6 5 2 ",
"2 2 2 2 2 2 2 2 2 2 2 2 2 2 2 2 2 2 2 2 2 2 2 2 2 2 2 2 2 2 2 2 2 2 2 2 2 2 2 2 2 2 2 5 5 5 5 2 2 2 ",
"2 2 2 2 2 2 2 2 2 2 2 2 2 2 2 2 2 2 2 2 2 2 2 2 2 2 2 2 2 2 2 2 2 2 2 2 2 2 2 2 2 2 2 2 2 2 2 2 2 2 "
};
