/* XPM */
static char *result[] = {
/* columns rows colors chars-per-pixel */
"50 50 256 2 ",
"   c #514047",
".  c #625A66",
"X  c #737587",
"o  c #8590A9",
"O  c #8895AF",
"+  c #8F9BB4",
"@  c #98A4BA",
"#  c #A2ACC1",
"$  c #9CA7BD",
"%  c #8A97B1",
"&  c #7988A6",
"*  c #6F7F9F",
"=  c #6C7C9C",
"-  c #5E6D89",
";  c #505D76",
":  c #434F65",
">  c #544147",
",  c #574348",
"<  c #5A4448",
"1  c #5B4448",
"2  c #584348",
"3  c #534147",
"4  c #5E4649",
"5  c #65494A",
"6  c #674A4A",
"7  c #614749",
"8  c #564248",
"9  c #554247",
"0  c #747587",
"q  c #704E4B",
"w  c #734F4C",
"e  c #724F4C",
"r  c #684A4A",
"t  c #5B4548",
"y  c #524047",
"u  c #635A66",
"i  c #757588",
"p  c #8690A9",
"a  c #664A4A",
"s  c #734F4B",
"d  c #77514C",
"f  c #594448",
"g  c #665760",
"h  c #736D7A",
"j  c #7F8194",
"k  c #80859A",
"l  c #7D859D",
"z  c #7A869E",
"x  c #7E8AA2",
"c  c #8591A8",
"v  c #8D98AD",
"b  c #8894AA",
"n  c #7B88A1",
"m  c #6D7B97",
"M  c #657492",
"N  c #637290",
"B  c #586681",
"V  c #4D5A73",
"C  c #604749",
"Z  c #66494A",
"A  c #64494A",
"S  c #695358",
"D  c #736168",
"F  c #7A6D76",
"G  c #766F7D",
"H  c #6E7081",
"J  c #666F86",
"K  c #667289",
"L  c #6A768C",
"P  c #6F7A8F",
"I  c #6C788E",
"U  c #647088",
"Y  c #5C6983",
"T  c #576580",
"R  c #56647E",
"E  c #49566D",
"W  c #524147",
"Q  c #5F4649",
"!  c #694B4A",
"~  c #5D4649",
"^  c #6B4E4E",
"/  c #755555",
"(  c #785959",
")  c #6D5A5F",
"_  c #5F5966",
"`  c #52596D",
"'  c #4E5A70",
"]  c #4F5B71",
"[  c #505C72",
"{  c #4D5970",
"}  c #4B576E",
"|  c #49556D",
" . c #47536A",
".. c #455167",
"X. c #6E4D4B",
"o. c #54454E",
"O. c #584B53",
"+. c #65545B",
"@. c #70595C",
"#. c #785C5E",
"$. c #7A5D5E",
"%. c #6F5D63",
"&. c #615C69",
"*. c #545C71",
"=. c #515D73",
"-. c #525E74",
";. c #546076",
":. c #535F75",
">. c #505C73",
",. c #4D5971",
"<. c #4B586F",
"1. c #4A576F",
"2. c #48546B",
"3. c #455268",
"4. c #634849",
"5. c #5D4549",
"6. c #524148",
"7. c #5A4E59",
"8. c #645D69",
"9. c #736D7B",
"0. c #79707C",
"q. c #7E727D",
"w. c #7F737D",
"e. c #797381",
"r. c #717285",
"t. c #687289",
"y. c #69758C",
"u. c #6E7990",
"i. c #727E93",
"p. c #707B91",
"a. c #67738B",
"s. c #5E6B85",
"d. c #596782",
"f. c #586680",
"g. c #515E77",
"h. c #4A566E",
"j. c #554248",
"k. c #524149",
"l. c #605864",
"z. c #6F6E7F",
"x. c #80869B",
"c. c #83889D",
"v. c #85899D",
"b. c #82889E",
"n. c #7F89A0",
"m. c #7D88A1",
"M. c #818DA5",
"N. c #8994AB",
"B. c #919BB0",
"V. c #8C97AD",
"C. c #7E8AA4",
"Z. c #6F7E9A",
"A. c #677695",
"S. c #4E5B73",
"D. c #624849",
"F. c #75504C",
"G. c #644849",
"H. c #524249",
"J. c #645D6A",
"K. c #76788C",
"L. c #8793AD",
"P. c #6D4D4B",
"I. c #76514C",
"U. c #6A4B4A",
"Y. c #74504C",
"T. c #6C4C4B",
"R. c #6E4D4D",
"E. c #61484B",
"W. c #7B534E",
"Q. c #845853",
"!. c #745151",
"~. c #5A4449",
"^. c #865954",
"/. c #765251",
"(. c #5A454A",
"). c #75788C",
"_. c #78514C",
"`. c #7A534E",
"'. c #7F5550",
"]. c #875A55",
"[. c #78524D",
"{. c #805651",
"}. c #875A54",
"|. c #8A5B56",
" X c #5D4547",
".X c #6F4D49",
"XX c #78524C",
"oX c #7D554F",
"OX c #7E5550",
"+X c #8A5C56",
"@X c #815751",
"#X c #6D4D4C",
"$X c #564144",
"%X c #614642",
"&X c #885A55",
"*X c #6D4C48",
"=X c #5B4344",
"-X c #544146",
";X c #534045",
":X c #584243",
">X c #6A4B48",
",X c #714E4A",
"<X c #5F4545",
"1X c #544044",
"2X c #524046",
"3X c #5C4341",
"4X c #5A4242",
"5X c #544145",
"6X c #524045",
"7X c #554143",
"8X c #5C4549",
"9X c #714E4B",
"0X c #605763",
"qX c #6D6C7C",
"wX c #7B8197",
"eX c #7C8298",
"rX c #7B839A",
"tX c #7A849C",
"yX c #79859E",
"uX c #6B4B4A",
"iX c #514148",
"pX c #5A4D57",
"aX c #6A6676",
"sX c #6A6777",
"dX c #68697B",
"fX c #676C80",
"gX c #646F85",
"hX c #54444C",
"jX c #564851",
"kX c #594C55",
"lX c #594C56",
"zX c #564F5C",
"xX c #525364",
"cX c #4E586C",
"vX c #54454D",
"bX c #574952",
"nX c #585260",
"mX c #545668",
"MX c #515B70",
"NX c #594D56",
"BX c #625A67",
"VX c #6B6878",
"CX c #6B6D7F",
"ZX c #696F84",
"AX c #667188",
"SX c #5F5561",
"DX c #6D6B7C",
"FX c #7B8297",
"GX c #7D869E",
"HX c #7C87A0",
"JX c #7C88A1",
"KX c #724F4B",
"LX c #5C4548",
"PX c #757688",
"IX c #777688",
"UX c #8691A9",
/* pixels */
"                                                      . X o O O O + @ # $ % & * * * * * * = - ; : : ",
"                                                      . X o O O O + @ # $ % & * * * * * * = - ; : : ",
"                                                      . X o O O O + @ # $ % & * * * * * * = - ; : : ",
"                                                      . X o O O O + @ # $ % & * * * * * * = - ; : : ",
"                                                      . X o O O O + @ # $ % & * * * * * * = - ; : : ",
"        > , < 1 1 2 3 3 3                             . X o O O O + @ # $ % & * * * * * * = - ; : : ",
"        , 4 5 6 6 7 8 9 3                             . 0 o O O O + @ # $ % & * * * * * * = - ; : : ",
"        < 5 q w w e r t y                           y u i p O O O + @ # $ % & * * * * * * = - ; : : ",
"        < a s d d d a >         y 9 , f 8 >       y 8 g h j k l z x c v b n m M M M M M M N B V : : ",
"        > C s d d d Z 3         3 < C A 4 ,       y 1 S D F G H J K L P I U Y T T T T T T R ; E : : ",
"        W 4 s d d q < y         > Q ! q 5 1       W ~ ^ / ( ) _ ` ' ] [ ] { } E E E E E E |  ...: : ",
"        W 2 5 ! C >             > 4 r X.A <     o.O.+.@.#.$.%.&.*.=.-.;.:.>.,.<.<.<.<.<.<.1.2.3.: : ",
"          y 9 W                 3 f Q 4.5.,   6.7.8.9.0.q.w.e.r.t.y.u.i.p.a.s.d.d.d.d.d.d.f.g.h.: : ",
"        y y W         W W       y > 8 , j.3   k.l.z.x.c.v.v.b.n.m.M.N.B.V.C.Z.A.A.A.A.A.A.M d.S.: : ",
"                  y D.d d d F.G.j.            H.J.K.L.O O O O O O + @ # $ % & * * * * * * = - ; : : ",
"                j.4 P.d d d I.U.Q 5.< >       H.J.K.L.O O O O O O + @ # $ % & * * * * * * = - ; : : ",
"                ~ e F.d d d d Y.e e T.<       H.J.K.L.O O O O O O + @ # $ % & * * * * * * = - ; : : ",
"                C d d d d d d d d d F.R.E.j.  H.J.K.L.O O O O O O + @ # $ % & * * * * * * = - ; : : ",
"                C d d d d d d d d d W.Q.!.~.  H.J.K.L.O O O O O O + @ # $ % & * * * * * * = - ; : : ",
"                C d d d d d d d d d W.^./.(.  H.J.).L.O O O O O O + @ # $ % & * * * * * * = - ; : : ",
"                C d d d d d d d _.`.'.]./.(.  H.J.).L.O O O O O O + @ # $ % & * * * * * * = - ; : : ",
"                C d d d d d d d [.{.}.|./.(.  H.J.).L.O O O O O O + @ # $ % & * * * * * * = - ; : : ",
"                 X.XXXoXOXOXOXOX'.}.+X@X#X2   H.J.).L.O O O O O O + @ # $ % & * * * * * * = - ; : : ",
"                $X%X[.}.&X&X&X&X&X+XQ.*X=X-X  H.J.).L.O O O O O O + @ # $ % & * * * * * * = - ; : : ",
"                ;X:X>Xd d d d d d d ,X<X1X2X  H.J.).L.O O O O O O + @ # $ % & * * * * * * = - ; : : ",
"                  2X:X3X3X3X3X3X3X3X4X5X      H.J.).L.O O O O O O + @ # $ % & * * * * * * = - ; : : ",
"                    6X7X7X7X7X7X7X7X1X2X      H.J.).L.O O O O O O + @ # $ % & * * * * * * = - ; : : ",
"                                              H.J.).L.O O O O O O + @ # $ % & * * * * * * = - ; : : ",
"                                              H.J.).L.O O O O O O + @ # $ % & * * * * * * = - ; : : ",
"                                              H.J.).L.O O O O O O + @ # $ % & * * * * * * = - ; : : ",
"                  > , 1 8X8X8X8X8X8Xt 2 >     H.J.).L.O O O O O O + @ # $ % & * * * * * * = - ; : : ",
"                  8 4 5 ! ! ! ! ! ! Z Q ,     H.J.).L.O O O O O O + @ # $ % & * * * * * * = - ; : : ",
"                  f A q F.F.F.F.F.F.9XZ <     H.J.).L.O O O O O O + @ # $ % & * * * * * * = - ; : : ",
"            > , < 7 U.s d d d d d d s 6 1     k.0XqXwXeXeXeXrXtXyXx c v b n m M M M M M M N B V : : ",
"            , 4 5 uXq F.d d d d d d s 6 1     iXpX. aXsXsXsXdXfXgXK L P I U Y T T T T T T R ; E : : ",
"            < 5 q Y.F.I.d d d d d d s 6 1       hXjXkXlXlXlXzXxXcX' ] [ ] { } E E E E E E |  ...: : ",
"            1 6 w d d d d d d d d d s 6 1             vXbX7.nXmXMX=.-.;.:.>.,.<.<.<.<.<.<.1.2.3.: : ",
"            1 6 w d d d d d d d d d s 6 1             NXBXVXCXZXAXy.u.i.p.a.s.d.d.d.d.d.d.f.g.h.: : ",
"            1 6 w d d d d d d d d d s 6 1             SXDXFXGXHXJXM.N.B.V.C.Z.A.A.A.A.A.A.M d.S.: : ",
"            f 4.P.KXY.I.d d d I.Y.KXP.4.f             . 0 o O O O + @ # $ % & * * * * * * = - ; : : ",
"            8 LXD.r X.Y.d d d Y.X.r D.LX8             . PXo O O O + @ # $ % & * * * * * * = - ; : : ",
"            3 j., Q ! s d d d s ! Q , j.3             . IXUXO O O + @ # $ % & * * * * * * = - ; : : ",
"                  2 4.P.KXKXKXP.4.2                   . IXUXO O O + @ # $ % & * * * * * * = - ; : : ",
"                  8 LX4.Z Z Z 4.LX8                   . PXp O O O + @ # $ % & * * * * * * = - ; : : ",
"                  3 8 2 f f f 2 8 3                   . 0 o O O O + @ # $ % & * * * * * * = - ; : : ",
"                                                      . X o O O O + @ # $ % & * * * * * * = - ; : : ",
"                                                      . X o O O O + @ # $ % & * * * * * * = - ; : : ",
"                                                      . X o O O O + @ # $ % & * * * * * * = - ; : : ",
"                                                      . X o O O O + @ # $ % & * * * * * * = - ; : : ",
"                                                      . X o O O O + @ # $ % & * * * * * * = - ; : : "
};
