/* XPM */
static char *wall_u1678373548[] = {
/* columns rows colors chars-per-pixel */
"64 64 123 2 ",
"   c #040807",
".  c #060A0A",
"X  c #0D0C0E",
"o  c #06120D",
"O  c #0A120E",
"+  c #0D0F10",
"@  c #0B1513",
"#  c #0D1916",
"$  c #0F1A19",
"%  c #111215",
"&  c #1E1714",
"*  c #101D17",
"=  c #1F1815",
"-  c #16171A",
";  c #181619",
":  c #121D1C",
">  c #1A1B1F",
",  c #201916",
"<  c #221C1A",
"1  c #15221D",
"2  c #18251F",
"3  c #161F20",
"4  c #1B1E22",
"5  c #162121",
"6  c #1A2424",
"7  c #1C2A24",
"8  c #1D2629",
"9  c #1E292A",
"0  c #202626",
"q  c #222927",
"w  c #23262B",
"e  c #222B2C",
"r  c #2A2E2D",
"t  c #23312D",
"y  c #2C302F",
"u  c #252D32",
"i  c #292E35",
"p  c #263234",
"a  c #2A3235",
"s  c #293833",
"d  c #2D343A",
"f  c #2D393C",
"g  c #323534",
"h  c #363837",
"j  c #31363E",
"k  c #39363B",
"l  c #35393B",
"z  c #3B3D3C",
"x  c #3F403F",
"c  c #2E3940",
"v  c #323740",
"b  c #343A43",
"n  c #3D3D45",
"m  c #363F49",
"M  c #393F49",
"N  c #403F47",
"B  c #403F48",
"V  c #354146",
"C  c #3F4040",
"Z  c #37424A",
"A  c #3B434D",
"S  c #3D494E",
"D  c #3E4651",
"F  c #3E4A52",
"G  c #454545",
"H  c #484747",
"J  c #41414A",
"K  c #48474F",
"L  c #474848",
"P  c #484848",
"I  c #404752",
"U  c #424A55",
"Y  c #494A54",
"T  c #444D5A",
"R  c #4A4E5A",
"E  c #455156",
"W  c #46515C",
"Q  c #49525E",
"!  c #4A585B",
"~  c #52525F",
"^  c #4B5562",
"/  c #4E5964",
"(  c #4F5A6A",
")  c #505665",
"_  c #515B67",
"`  c #545D6B",
"'  c #5A5E6F",
"]  c #595F71",
"[  c #57626D",
"{  c #58626F",
"}  c #566171",
"|  c #5B6573",
" . c #5E6976",
".. c #5D6678",
"X. c #5F697C",
"o. c #606273",
"O. c #626B7C",
"+. c #696C7E",
"@. c #66717F",
"#. c #656D82",
"$. c #686F85",
"%. c #667183",
"&. c #6A7286",
"*. c #6C748B",
"=. c #6E7889",
"-. c #71768B",
";. c #73798E",
":. c #6E7790",
">. c #6F7891",
",. c #727A94",
"<. c #787E95",
"1. c #777F99",
"2. c #7A829B",
"3. c #7F87A1",
"4. c #7F88A2",
"5. c #8087A2",
"6. c #8189A5",
"7. c #868EAA",
"8. c #8991AF",
"9. c #8A93B1",
"0. c #8F98B6",
"q. c #949DBC",
"w. c #9BA4C4",
/* pixels */
"< < < < < < < < < < < < < < < < < < < < < < < < < < < < < < < < < < < < < < < < < < < < < < < < < < < < < < < , < < < < < < < > ",
"< < < < < < < < < < < < < < < < < < < < < < < < < < < < < < < < < < < < < < < < < < < < < < < < < < < < < < < < < < < < < < < , ",
"< < < < < < < < < < < < < < < < < < < < < < < < < < < < < < < , < < < < < < < < < < < , < < < < < < < < < < < < < < < < < < < < ",
", , , = , = = = , , , , , , , , , , , = , = , , , , , , , , , , , , , , , , , , , , , , , , , = = , = , = , = , = = , = , , , , ",
"= = = = = = = = = & = & , , = = = = & = = = = = = = , = = , , , , , & & , & & & = = = = = , , > = = = = = = , = = = & & = = = = ",
"J J B A B B J n B N B N n n n n n n N B J J n Z N n n n n n n n n n n N N n N N B B B B B B B M J J J J J J B I B J B I J J J J ",
"#.#.$.$.&.*.#.#.#.#.#.O.#.#.$.#.#.#.#.$.#.$.#.#.#.#.#.$.O.#.O.#.#.O.O.#.#.#.#.#.#.#.#.$.$.$.$.$.*.*.*.$.$.*.$.$.$.*.*.$.$.$.$.$.",
"*.*.>.1.,.,.,.,.,.,.,.,.,.,.,.,.,.,.:.:.:.*.:.:.,.,.,.,.,.,.-.,.>.:.,.,.,.,.,.:.:.:.:.:.*.,.,.,.,.,.>.,.,.,.,.,.,.,.1.,.,.>.:.,.",
"*.:.1.-.#.#.*.,.,.*.>.>.,.$.#.#.,.1.>.,.,.,.>.1.,.,.#.#.:.,.,.:.-.:.>.*.#.#.,.,.,.,.,.,.,.,.1.>.#.#.,.;.,.,.*.,.,.$.O.$.,.,.,.,.",
"1.6.6.*.Q ~ *.1.:.$.*.>.,.#.T ^ 1.4.4.3.3.3.4.4.5.,.) ) *.1.*.*.*.:.,.$.R ] 1.6.6.4.4.4.4.4.4.*.T ` -.,.*.$.$.,.1.#.) ] 1.6.6.5.",
"1.6.6.O.n K ;.5.:.#.*.1.6.+.n n *.4.4.3.3.3.3.4.3.#.B Y <.3.*.$.-.,.6.-.N Y *.3.4.4.2.5.3.3.4.#.k ~ 1.1.*.$.*.1.7.+.B R :.6.6.5.",
"..#.$.) i K 2.8.2.,.1.8.q.-.k g } %.#.#.#.X.#.#.#.) v K 5.8.1.;.1.7.q.<.b m | #.O.#.O.O.#.#.$.( w ~ 6.7.1.,.1.9.w.-.n b ] #.O.O.",
"^ ( ` D w B <.q.8.6.7.q.w.$.g w ^ ( ^ ^ ^ ^ ^ ( ( T d M 5.q.7.6.7.0.w.,.k d ^ / ^ ^ ^ ^ ^ ( ` F 4 Y 6.0.7.6.7.q.w.$.j d ^ ( ( ^ ",
"D D F c ; w ' -.;.*.-.,.-.R 4 4 A F F F F U D D D c 4 i ] ;.-.-.-.>.-.~ 4 w A D F U U U F D F c - g o.-.,.:.-.,.<.Y 0 w Z D D F ",
"m c d 3 . % j R ^ Q Q ^ Y r X % u d b m M M m c i 5 + % v R ^ Q ^ ^ Y i X - u d m m M m m c i 3   ; n R ^ Q Q ^ Y r % : p d m M ",
"u 8 3 @   ; d I D D D I M i % . 3 6 9 i i u e 6 3 @ X ; d D D M M I M d % + : 6 w i i u e 8 3 @   4 v I D M D D B r @ O $ 6 u i ",
"6 6 1 # @ 6 V F D D A I I v 3 @ # : : 5 5 5 5 6 1 # # 9 M F D D A D D b 3 @ $ $ 3 5 5 5 2 6 1 # + w A D D D M I U v 3 @ : 1 1 5 ",
"d u 6 * * 9 d m A M M M m d 6 : 1 1 9 p p d d t 1 1 : 6 d M M M M M m d 5 1 1 1 9 p p d s t 5 1 - 9 c m M M M M m i 5 1 1 6 u p ",
"D c p 7 5 3 6 i d d d d u 5 5 5 7 f Z F F D F c t 7 5 1 9 i d d j d u 6 5 6 7 f A F D D F V p 7 5 5 8 i d c d d i 9 5 5 9 d Z D ",
"D A V p 5 : 3 6 e e 9 9 5 3 : 6 s A ^ W D D F D b t 1 1 5 e u e e e 8 5 5 7 s Z T F Z A D A b t 6 3 5 8 9 e i u 9 5 5 6 p m D D ",
"b c s 7 1 $ 1 1 6 5 5 : $ : : 5 u m D Z b b v c s 7 1 1 5 6 6 5 5 6 5 5 : 1 9 d c d p i d c d t 6 5 5 5 5 6 6 9 7 1 1 2 7 p p d ",
"u 9 6 1 * * $ $ $ $ $ $ $ $ $ : 5 9 e i d i u 8 1 1 1 1 5 : 3 : 3 : 1 3 $ # $ 5 9 9 7 6 6 6 6 5 5 5 : 1 3 3 3 : 1 1 * * # 1 5 7 ",
"d f V V S S F V u $ 5 f Z f 9 : # # $ 3 e s c b V V E F V u 3 # # # $ 5 p m S F E E F Z p 1 # 1 6 1 1 1 $ # 5 p S E Q F F F V f ",
"F Q [ { |  . .[ Z 7 p ! X.| U f 7 $ : 9 d Z U Q ( | @.O.` F u 3 $ $ 5 d T [ @.@.@.=.&.X.^ f t 2 7 t e 1 $ 5 d ^ X.=.=.=.=.&.| / ",
"^ F A A J D I A b j b ^ ` ` ` ^ c 6 u A W U A m m n I D A M b p 9 e p b M D A A I Q ` ] ( ( S s e a d e e d m m A F I I I U ^ ( ",
"A m j d j v d i i v b A A D T T c 6 8 c A A b d d j j d i d b j 9 7 u d p i i j d b M D U U A s q t u 8 u v b i i d d i i j b D ",
"d j b b b v d u 9 e i v j j d d t 5 5 7 e d j b M b j i u u u e 5 : 5 6 w d b M b b v d d d u q 7 t 8 3 5 u p u u d v b b v j i ",
"e p j j p e 5 5 3 : : w w 8 5 1 1 1 1 7 8 e s f j p w 5 3 3 : $ # # # 1 9 i j j d i u 6 3 3 1 2 6 5 : # : : 6 6 5 6 e d j d e 5 ",
"7 7 7 t t 7 5 5 3 $ : 5 6 6 5 1 5 5 5 3 5 6 7 t e t 7 5 5 5 1 : : : 1 6 7 t 7 7 5 5 6 6 6 : 1 : 1 5 6 5 : $ $ : 5 7 9 t t t e 7 ",
"1 1 7 s S ^ [ | ` U F Q [ | / U F S p 5 $ * 1 7 s S _ } | ` U A A F S c t 2 1 # : f [  .` T m m F [ [ F d : o : b _ ( F A S F F ",
": 5 e b T `  .O.} ^ T `  . .[ Q ^ T A i 1 $ 5 p Z Q '  . .[ Q T F ^ W J f 9 2 7 c ^ O.O.| ^ U T ^ | | / A e $ : V | ..R U U W T ",
": e b m m j j b b v j b j b b b c m M b u 5 9 m M b j b b b b b b m m m d 6 6 f T R b d b b b j d d v b M b u 1 6 d M b b b b b ",
"3 9 d b b v d d d b v b d d d b v v m b u 5 e b b b j d d j v v b v b d 6 $ : u m A v d v v c i 9 8 u c m m i 3 $ 9 d c b c i u ",
"$ 5 9 p i p i p d v b d d i d p u e w 5 5 : : 8 i p d p i d v v d d i 9 $ # $ 3 6 u p d d i u 9 9 9 u u u e 3 3 $ 5 8 p d i u 5 ",
"@ # # 5 6 9 7 7 5 w 9 8 5 5 6 5 : @ @ @ @ @ # : 3 5 9 9 6 8 u 9 5 3 $ $ * 1 5 5 1 5 6 6 4 5 5 3 5 3 3 3 : # $ $ 3 5 5 7 6 7 3 : ",
"d f p 7 5 6 7 1 5 9 u 6 : : 5 9 9 9 e p s d s p 7 5 1 6 5 5 6 9 9 e p c V s 7 5 7 6 1 : 5 6 u u u e e e e e 6 3 5 7 6 1 9 p d i ",
"X.| Q l 9 6 2 2 p A F p 5 2 p A U W ( ..#.O.| T f 7 7 2 5 p Z U T ^ | &.@.E t 2 7 7 1 7 e m T Q F F T T T T m 9 2 7 7 e c Q  .X.",
"/ ^ T Z d 9 1 t j U A p 6 u V S D U R ^ ` _ ^ I M p 8 2 u b A U U T / ' / U f 7 1 1 5 t b A U U T F I D T T M c 7 5 7 d Z T / _ ",
"i p d j d 6 5 e d b p 5 3 u c m b b b d i i i j b p 8 5 u c c p p d j v b n m u $ @ 3 u f b b b b b v d i i v c e 5 8 d c i p p ",
"u u 9 u 9 5 3 6 u i 9 5 3 6 u c b b b b d u 9 e u 8 5 1 6 e u e e i d b b j d e 5 $ : 5 u d b b b c c u 9 u u 8 5 1 3 8 u u e e ",
"9 9 6 5 : # # $ 3 6 9 3 $ $ 5 9 u u a j d e 8 6 1 : # # * 1 6 9 u u u u u 6 5 1 1 1 * # 5 9 u u u u 9 8 9 9 5 3 : : : 5 5 9 9 9 ",
"3 $ : # @ # @ # # 3 : $ # # $ : 3 3 6 6 6 1 : : # # @ # @ # $ 5 3 3 3 3 1 # 1 1 2 1 # @ # $ 5 5 : : 3 : 3 3 $ % $ : : $ : : : 3 ",
"p c A A Z Z V c p u p d c c u 5 : 1 * 1 9 p b A Z Z V m f d p u 7 1 $ $ 1 s K ! F c f p p 9 * # 5 u c d p d c d 9 : @ 5 f S m i ",
"^ ` %.%.%.&.@.` ^ T Q R ^ W A d 7 6 7 e f W } %.&.&.%.O.` ^ ^ D s 7 1 1 t S X.;.%.` ^ W E l 6 # 8 Z ^ ^ W W ^ Q m 6 @ 5 F X.| T ",
"M A I U U I K A M M A D D D A b s t t d b M D U I I I D D A D D b p 5 6 d A U U U S A A A M u 5 5 c D D M M I I m d 5 5 d U U M ",
"u i j j j f d f j v v v v b v d e 9 e i i d d d j v j j j v v b d 9 5 8 j m b d j j b b v j u 5 3 9 c b b b b b v d 6 3 u d d i ",
"e u d j b m m d d d d d j j s 9 6 5 5 6 6 u i d v b b v d d d p 9 3 : 5 e d d d d d d d d u 5 : : 3 9 d c c d d u 6 3 3 9 d p u ",
"4 5 8 u j j j u 6 4 8 8 8 8 5 $ # # @ # : 3 6 9 i j v d e 8 6 5 # @ @ # : : 8 w 9 9 e 8 5 - # @ @ @ @ 3 6 6 u u 6 3 $ 3 6 9 e 6 ",
"5 $ : : 1 7 7 7 7 6 $ $ $ # $ $ : 1 6 1 1 : $ $ 1 5 7 7 7 5 1 # $ $ $ 5 7 5 : $ : $ $ : : $ # : $ $ $ $ : : 1 7 7 7 5 1 $ 5 3 $ ",
"/ m 1 # 1 1 7 l F F f 6 6 d Z A Z D ! [  ./ f $ @ # 1 t f m V A W T F A V p : @ # # 5 u m Z A T ( / ` ^ Z e 1 2 7 2 6 6 6 6 6 6 ",
"[ T d 7 2 7 p M E W Z d d Z F F D I ^ } @.| U p 7 2 7 t b Z A U Q Q F F A c 8 $ $ 6 p m D D F ^ _ ` ' ( U a 2 1 1 : 6 u u u u u ",
"j m m p 8 7 i d d d d c c d d d d d c c j V A A p 5 7 e i i u u p p i i d d d 6 5 u c d i u u i u u p p p u 8 : @ 1 6 e i i d p ",
"u p d e : 3 w u i u u u 9 8 8 e i i i i u d j d 7 : : 8 w q w 9 q 9 u u u i i q 5 7 9 8 w 8 e w q 8 w q e u 8 : @ $ 5 8 u u i u ",
"8 9 0 : $ $ : 6 6 w 5 5 : 3 5 8 9 e e e e e e 8 3 # # : 5 5 8 0 9 e e u u e 5 5 : 5 5 6 5 8 5 8 5 8 8 8 8 8 3 $ @ : 5 0 6 9 8 6 ",
"8 8 6 6 3 1 6 6 5 8 4 5 5 8 9 6 0 0 8 5 6 8 8 0 5 1 : : 3 - : 5 6 8 w u r 9 2 > 3 5 6 6 1 1 > 1 5 > 5 6 6 5 5 : : 5 5 5 5 5 3 3 ",
"r r r r r r r r r w q r r r r u r r r q r r r y i y r 0 8 1 5 5 6 8 r e e q r e q 9 9 6 0 6 6 6 8 6 0 0 q q r r r r 0 8 5 5 6 5 ",
"g y y g g g g g r y y g y g g g g h h h h g g g g g y y r q q 6 0 q q r r r r r r y r r q q q q q q q q r r r r r r q q q q q q ",
"g g g g y g g a y y a y g g g g h h h h h h h g g g y y y r r q q r r r r r r a g a y y y y r r r y y r r y r r r r r r r q r r ",
"h h h x h h l l k h h h h h z h x l x x z z h z h h h g g g a g g g g h g a g h h z h k h h g g g g g g y g a g a y g y y y y y ",
"C C C C C G G C C x G x x G x G C G C C G x x x z z z z z h l z z z z z h g g k z x G z x z z z z z z z z z z z z z z k z z h z ",
"C G C G G G C G C G G x G G G G G G G G G G C C x z x z x z z x C C x g a s l x C G G x x x z z z x z x x x z x x z z z z z z z ",
"G G G G G H H G G G G G G G G G H G G G G G H G G G G G G C C G G C x l g l x G G H G G G G G G G x x G x G C G C G G G G x G x ",
"H H H P L L H H H H H H G H H H H G H H H H H H H G G G L H H G G L G C C G G H P P P H H H H G G H G G G G H G H H H H H H G G ",
"H H H H H L L H H H H G H H G H H H G H H H H G H H G G G G G G H L H L L P P H L H H H H H H H G G G G G G H H G H H G G H G H "
};
