/* XPM */
static char *result[] = {
/* columns rows colors chars-per-pixel */
"50 50 61 1 ",
"  c #272E3D",
". c #282F3E",
"X c #2A303F",
"o c #2D3341",
"O c #303644",
"+ c #353B4A",
"@ c #393F4F",
"# c #363F52",
"$ c #39404F",
"% c #374053",
"& c #3A4354",
"* c #3B4559",
"= c #3F4A5E",
"- c #3F4B60",
"; c #434B5C",
": c #424E64",
"> c #445066",
", c #495265",
"< c #46526A",
"1 c #49566D",
"2 c #4B586F",
"3 c #4A5770",
"4 c #4D5A73",
"5 c #515D76",
"6 c #515F79",
"7 c #576073",
"8 c #53617C",
"9 c #59657C",
"0 c #5D697F",
"q c #566481",
"w c #596785",
"e c #5B6984",
"r c #5B6A89",
"t c #616E85",
"y c #616F8C",
"u c #667186",
"i c #63718D",
"p c #6B768C",
"a c #647392",
"s c #697793",
"d c #6A7995",
"f c #6D7D9D",
"g c #727F97",
"h c #77849C",
"j c #7A869E",
"k c #7D899E",
"l c #7685A3",
"z c #7A86A0",
"x c #7B88A1",
"c c #828EA6",
"v c #838FA9",
"b c #8691A7",
"n c #8592AC",
"m c #8895AF",
"M c #8A97B1",
"N c #8C99B2",
"B c #949FB6",
"V c #95A1B7",
"C c #97A2B8",
"Z c #99A5BB",
"A c #9DA8BE",
/* pixels */
"oXoooX  XXXXOXXOXOXXXXXXXXXXXXXOoXOOXXXXXXOXoooOoO",
"XoooXXX XXXOXXXXOXXXXXXXXXOXXXXXXOOXOX XXXOXXooooX",
"ooooXX XXXOXXXXXXXOXXXXXOXOXXXOXXXXOXXX XXXXXXoXXX",
"oooooXXXXOXXXXOO++XOXXXXOOOXOOOXXOOOOX XXX XXooXX ",
"OOOOoXooOOOXXO+&;;&&&;&$;$&&;&$;&$$+OoXXOXXXOOOOXX",
";;;;;;;;;;;&+*uxbbmmbbmmbmmmbNMbmmbu;+&=;;;;;;;;;;",
"ppppppppppu7;;ubbMMmMmmmMMmmmmmmmmcp;;7ppppppppppp",
"MMmmMmmMmMbp2,pxMbmmMmmmMbmmmmmmmmxp,,pnMMMmMMMmmm",
"mmmmMmmMmMxf72ujmmmmmMMMMmmmmmmmmnji27pxmMmMmMmMmm",
"NNNNNNMNMNnh02ejmNNMMMMMNNNNNNNNNmju28hmMNMNMNMMNN",
"ZZZZZZZZZZBj04uxVZZZZZZZZZZZZZZZZVbu79jVZZZZZZZZZZ",
"AAAAAAAAAAVk07ubZAAAAAAAAAAAAAAAACbp79kZAAAAAAAAAA",
"MMMMMMMMMMnf92ejmmMMMMMMMMMMMNMMMnhr49fmMMMMMMMMMM",
"llllllllllhi728slllllllllllllllllhsq24illlllllllll",
"lffffffflffy638iflflfffflffffflfffa824rfflflflffhl",
"fflflflffffr438ifffflfflffflflfflfa824rffffffflfff",
"fffffffffffr518ifffflffffffffffflfa834rfhlfflfffff",
"lfllffllflfi618afflffffllflflfflffa634iffflfffflff",
"rryyaryyiri83<4wyrryyyiryryyyyyyyyw411qryirriiyyay",
"444344444432<><<3444444444444444343>:>133444443134",
">>>>>>>->>>::>:**->>>>::>>>>->--:>:-**->>>>>>>:=-:",
"---->->-*=:::>:*-->><--->>>><-*********:>--::>:**-",
"-**----**&***---------*-<----*****&*&**:=**=--::-*",
"#%%##%%%%%@@####%%%%%**--*##*###########%%%%#%*--*",
"1>11>11<-33<1<<1,11,1>>><<<<1<11<3<33<<31<<<<<<>:-",
"eeeeeeeewrwrerwweeeew82>36wweeeewrwwwwwreeeeew83::",
"fffffffffffffffffffffe4>6rffffgfffffffffffffhdr4>:",
"lffddfddfafadddfddfffr6>6ylfdfddfafadddddddfffr6:>",
"fffaaaayaaraaaraaadffr6>qrffdaaaaaraaaarayadffr4:>",
"ffaarrrwrrrrrrrrrraffr4>6rffarwwrrrrrrrrrrradfr6::",
"ffaarrrwwrwrrrrrrrraar6<4raaarrwrwwrwqqqwwraddr4>:",
"aaarrrwrrwrwrwrwrrrayq4-4waarrwrwrrwqq64qwrryyq4:>",
"rwrwwwrwwrwwrwwwrrrqrqq-qqrrwwwwwqwwq61<4wwwrrq3-<",
"qqqqq6q6qqqqqqqqqrqqq----3qqqqqqqqqq61::34qqq43:--",
"----<<<<<3433<-<-------*----<<<<<<<31<-=-<<<<<--**",
"-**-=#*##:<<-****--****#******##*--<::###*#****###",
"------:=::::-----*---------==-----:::-:;*:*:-*----",
"qq66646633<>36q46qq36668qq3q3qq4q43<<15665654q6666",
"raaaayaaw6<3qryyraaaraaaraaaaaaayrq<16yaaayaayaaaa",
"fffdffffaq33wdffffffffffafffdffffaq<1wafffffffffff",
"aaaaaaffa911wsfdaaaaaaaaaaaaaaaffaq<3wafddaaaaaaaa",
"araraaafaq13wsfdararaarrarararaffaq33wafaayyarraar",
"rrrrrrafa913wafarrrrrwrrrrwrrwrafaq<3wafayrwwrrrrr",
"wrrrrraay611qyayrrwwrrrwwrrwrrraarq<<qraarwrrwrrww",
"rrwrrrrrw6<36wyrrrwrwrwrrrrrrwrraw6<qqqrrwwwrrrwww",
"wwwwwwwwq4<<3qwwwrwwwwwqwwrqwwwwwq6--qqqwwwqwwwwww",
"6qqqq66q43<<36q6666666qqqqq6q66qq63<q-qqqqqqqqqq6q",
"-q--<3333-<-<<3333333333-33-3<33<3<-----q-33-3<<33",
"---q---q-3---33--3-3--<---3<<-<<--<<-<-<<-<::>>::>",
"3----------3---3---3-3-33----<-<-<-<<--<-<-<:::>>:"
};
