/* XPM */
static char *wall_d_r1678373547[] = {
/* columns rows colors chars-per-pixel */
"64 64 128 2 ",
"   c #060A06",
".  c #090C0B",
"X  c #0B130C",
"o  c #1B130E",
"O  c #0F0F12",
"+  c #0B1512",
"@  c #0E1916",
"#  c #0F1A18",
"$  c #141514",
"%  c #1D1613",
"&  c #141A16",
"*  c #1E1815",
"=  c #111719",
"-  c #121D1B",
";  c #1C1D1B",
":  c #201A17",
">  c #221C1A",
",  c #15221D",
"<  c #1D211E",
"1  c #25201E",
"2  c #161F21",
"3  c #1D1E21",
"4  c #162121",
"5  c #1A2424",
"6  c #1C2925",
"7  c #1D2629",
"8  c #1E2A2B",
"9  c #232222",
"0  c #292525",
"q  c #272926",
"w  c #292927",
"e  c #232529",
"r  c #212B2D",
"t  c #2B2C2B",
"y  c #302E2E",
"u  c #23312E",
"i  c #2C312C",
"p  c #31312F",
"a  c #242D31",
"s  c #2B2E33",
"d  c #322F32",
"f  c #263233",
"g  c #2B3235",
"h  c #2B3837",
"j  c #2C343A",
"k  c #2E3A3D",
"l  c #343434",
"z  c #383736",
"x  c #363837",
"c  c #393837",
"v  c #33353C",
"b  c #323A3C",
"n  c #3C3D3C",
"m  c #403F3F",
"M  c #31403F",
"N  c #3F403F",
"B  c #40403F",
"V  c #2F3A41",
"C  c #333740",
"Z  c #383740",
"A  c #333B42",
"S  c #3A3D45",
"D  c #363F48",
"F  c #393E49",
"G  c #364345",
"H  c #3D4141",
"J  c #374249",
"K  c #3B424D",
"L  c #3D484F",
"P  c #3E4651",
"I  c #3E4953",
"U  c #444444",
"Y  c #484747",
"T  c #424449",
"R  c #44494C",
"E  c #484848",
"W  c #414752",
"Q  c #424A55",
"!  c #4A4B55",
"~  c #454D5A",
"^  c #4A4E5A",
"/  c #445057",
"(  c #46515B",
")  c #4B515E",
"_  c #50525C",
"`  c #4B5463",
"'  c #4E5963",
"]  c #4E5969",
"[  c #525B66",
"{  c #525668",
"}  c #545B6B",
"|  c #595D6D",
" . c #555F70",
".. c #595E71",
"X. c #56616D",
"o. c #5A626E",
"O. c #566072",
"+. c #5C6375",
"@. c #5D667A",
"#. c #5E687A",
"$. c #606475",
"%. c #616578",
"&. c #626A7D",
"*. c #646D82",
"=. c #696F85",
"-. c #677085",
";. c #697087",
":. c #6C748C",
">. c #6F788D",
",. c #71778E",
"<. c #71798E",
"1. c #6F7790",
"2. c #6F7891",
"3. c #707791",
"4. c #737B94",
"5. c #767E99",
"6. c #77809C",
"7. c #7A829C",
"8. c #7D86A1",
"9. c #7E88A4",
"0. c #8087A3",
"q. c #8189A5",
"w. c #838DAA",
"e. c #8590AE",
"r. c #8891AD",
"t. c #8A94B3",
"y. c #949CBA",
"u. c #9DA7C8",
/* pixels */
"E E Y Y E E E E E E E E E E E E E E E E E E E Y Y E U H N q L 6.7.6.&.>.>.-.6.7.5.$.l : : : > > > > > > > > > > > > > > > > > > ",
"E E U U Y E E E E E E E E E E T E E E E E E E Y H E U U N i R 6.7.>.>.6.6.6.6.7.5.%.v : : > > > > > > > > > > > > > > > > > > > ",
"E R H H T E E E E E E Y E E E E E E E E Y E E Y E E Y N N q L 6.q.7.6.7.0.7.6.7.5.%.v : : > > > > > > > > > > > > > > > > > > > ",
"E U N b H E E E E E E E E E E E E E E E Y E E Y E E U H N i N >.q.7.6.7.q.7.7.7.5.%.d : : > > > > > > > > > > > > > > > > > > > ",
"E Y b h N U E E Y E E E E E E E E E E E E E E E U U U U N i N &.w.7.7.q.q.0.7.q.5.$.d * : > > > > > > > > > > > > > > > > > > > ",
"E T N M N Y E E Y E E E E E E E U E E E E E E E U E U U N i M #.q.8.7.q.q.0.0.q.8.%.d : : > > > > > > > > > > > > > > > > > > > ",
"E E T N U Y E E Y E E E E E E E E E E E E E E U E U U B n p h ) 7.q.7.7.7.7.7.r.q...d % : : > > > > > > > > > > > > > > > > > > ",
"E E E E E Y E E E E E E E E E E E E E E E E E E U E U U N p w x X.>.#.X._ $.7.r.w...d % : > > > > > > > > > > > > > > > > > > > ",
"E E E E E E E E E E E E E E E E E E E E E E U E U U U B m n t > h I G , 3 _ 5.t.5...d : : > > > > > > > > > > > > > > > > > > > ",
"E E E E E E E E E Y Y E E E Y E E Y E E E T E E U U U B m m z w w u , X > _ 5.e.5...d : : : > > > > > > > > > > > > > > > > > > ",
"E E E E E E E E E E E E E E E E E E E E E U E E Y U U S m m n n y < + X s ..5.9.5.| d : : > > > > > > > > > > > > > > > > > > > ",
"E E E E E E E E E E E E E E E E E E E E E E E U U Y U U U m m U z 1 X   t *.t.w.5.| d % : : > > > > > > > > > > > > > > > > > > ",
"E E E E E E E E E E E E E E E E E E Y Y Y Y Y Y U Y U U U m m n n p & . 1 | q.e.5...d * * > > > > > > > > > > > > > > > > > > > ",
"E E E E E E E E E E E E Y H E E T Y Y Y Y Y U Y Y U U U U B B m m n y & ; ^ 5.e.e...d % * > > > > > > > > > > > > > > > > > > > ",
"N N N N L E E E E E E E Y Y E E Y Y Y U U U Y U U U U U U B B B m U z 0 3 F 3.e.w.%.d * * > > > > > > > > > > > > > > > > > > > ",
"M x u M N H E E Y Y E H Y Y U Y Y T Y Y U U U U U U U U U U U S m m c w 3 W :.q.8...d * : : > > > > > > > > > > > > > > > > > > ",
"x h f h N U Y Y Y Y U U Y U U U U U U U U U m U U U m U U m U n m m c 0 e ` 5.e.8...d % : > > > > > > > > > > > > > > > > > > > ",
"M x x b N Y Y Y Y U Y U Y U U U U U U U U U U U U U U U U U U m m U c t e { 9.t.w.$.d o % > > > > > > > > > > > > > > > > > > > ",
"M n N N U U T U U U U U U U B U B U U B U U U U U U B U m U m n m U c t e { 9.t.w.$.d o o > > > > > > > > > > > > > > > > > > > ",
"c N N U U U U U U U m U U S B U U m m m n m m m B U U B m m m U T m z 9 e ) 5.9.5.| d o o : > > > > > > > > > > > > > > > > > > ",
"N n n U U U B U U m U U B m B B U B m U U n n B U U B U B m m m U m y 9 a ) *.;.*.{ C ; % : > > > > > > > > > > > > > > > > > > ",
"| ! l l N N B N m S n n m m U U B n Y [ +.! l p c B U B B S U U n l s s Q  ...@...*.{ C 1 : : > > > > > > > > > > > > > > > > > ",
":.} v q p N U n c c c c n m U m m B _ ,.8.&.Z 9 y B U m U B m c l t Z +.1.;.*.*.*.2.1.} d > % * > > > > > > > > > > > > > > > > ",
":.| Z 9 w c N c x x x c c m B U U Y | 8.q.4.W ; 0 c U U B B n t 0 l $.w.e.5.;.:.1.5.8.;.! 1 o * > > > > > > > > > > > > > > > > ",
"*.{ Z w 0 t l l l l l z z c S n n R &.9.0.1.) 0 > y l l l l t 0 c ..8.w.q.4.1.1.1.5.5.4.^ 0 o * > > > > > > > > > > > > > > > > ",
"*.} T t 9 0 t t t t y t w t l l l H +.0.q.3...S > ; 5 9 ; 3 9 S %.4.8.5.4.1.:.:.3.4.5.3.^ 1 o % > > > > > > > > > > > > > > > > ",
"*...W s 3 3 3 9 9 0 9 ; 1 w t w 9 g o.0.r.5.:.[ s 3 e a 3 3 s } 5.5.2.:.;.:.:.:.:.3.5.:.^ 1 o * > > > > > > > > > > > > > > > > ",
"*.+.` P F F S C j s s v S R ! m c U $.0.w.5.,.&.~ F ) { ` P Q @.5.4.1.;.:.:.:.:.:.3.5.:.! 1 % * > > > > > > > > > > > > > > > > ",
":.:.*.*.*.:.:.*.......*.;.3.3.=.&.&.:.5.6.<.:.*.@.@.1.4.1.@. .@.:.:.;.:.:.:.:.;.:.3.4.;.^ 1 o * > > > > > > > > > > > > > > > > ",
"4.4.3.3.5.5.7.4.4.2.4.4.5.5.5.5.7.7.6.5.4.4.:.:.1.2.5.4.2.;.@.*.;.:.:.:.;.:.:.;.:.3.5.:.! 1 o * > > > > > > > > > > > > > > > > ",
"4.3.:.:.:.3.,.3.1.1.1.1.3.:.;.3.,.4.4.4.4.,.:.:.2.4.2.1.1.:.*.;.:.:.:.:.1.:.1.:.:.3.5.3.! 0 % * > > > > > > > > > > > > > > > > ",
";.:.:.:.;.=.;.;.;.;.;.;.;.=.;.;.:.:.;.:.:.:.:.,.4.4.1.:.:.;.:.:.1.4.1.1.1.1.1.1.3.3.4.=.! 0 % * > > > > > > > > > > > > > > > > ",
":.:.:.;.:.:.:.:.:.:.:.:.&.%.*.3.5.,.;.:.;.:.1.2.4.2.1.:.:.,.:.:.1.4.4.1.1.1.1.1.4.4.4.-.! 0 : : > > > > > > > > > > > > > > > > ",
":.:.:.:.:.:.:.:.:.:.1.:.#.O.;.8.8.5.:.,.2.4.2.;.#.*.:.3.2.:.:.:.:.*.*.:.5.4.2.1.<.6.7.:.^ 0 : > > > > > > > > > > > > > > > > > ",
"1.:.:.:.:.:.:.:.:.:.1.1.@.O.:.8.w.0.7.7.9.9.5...^ ..:.4.:.:.:.5.4.{ ! *.8.q.8.7.7.q.q.2.^ w > > > > > > > > > > > > > > > > > > ",
"4.:.:.:.:.:.:.:.:.:.1.1.+.'  .:.6.5.5.5.8.9.1.^ S | 7.8.4.:.7.t.r.^ l ..6.8.7.5.6.7.6.#.R 0 : > > > > > > > > > > > > > > > > > ",
"4.1.:.:.:.:.:.>.:.:.3.3.+.~ Q ] +.+.O.+.@.*. .F l | q.t.8.7.w.u.y.! 9 Q #.#.+.O.O.@.O.` S 0 : > > > > > > > > > > > > > > > > > ",
"5.4.4.4.6.6.<.<.3.5.8.8.&.~ W ` ] ' ` ^ ) ` I f e ! 4.q.7.7.q.t.0.Z - V ) ` ( ( ` ] ] ~ S 0 : : > > > > > > > > > > > > > > > > ",
"7.5.4.8.0.7.4.:.,.7.r.w.=.~ L / ` ` I K F D j = O s _ %.+.O.+.+._ ; O 8 D F P I ~ ` ` ~ S 0 : > > > > > > > > > > > > > > > > > ",
":.-.;.:.4.:.&.+.@.;.5.5.O.K h M A j f a a 7 - . . 3 Z R P P P K v $   @ 5 a f j k V V k h 0 > > > > > > > > > > > > > > > > > > ",
"] ] ' ] ] ] ] ` ] ] O.O.I j , , , , - 4 5 , @ X = a F W P P P I F 3 O + # 4 5 7 4 4 , 6 8 9 > > > > > > > > > > > > > > > > > > ",
"] ' ` ` ` ` ` ] ` ` ' ` J 8 , 5 7 a a f h 7 - @ 2 a D K K F K P Z 7 # # , 7 a f a a 6 - , 9 1 > > > > > > > > > > > > > > > > > ",
"( ^ Q ~ ~ Q I Q ! Q Q R j 5 5 f J I P P J k u , , 4 r g j j j s 7 4 4 6 h J I I I P h 7 - 1 > > > > > > > > > > > > > > > > > > ",
"s s d t t s d g s y g t 5 < 8 j P I Q Q I J h 6 - # 4 5 7 r e 5 # # , u J ) ` Q I I J f 5 ; > > > > > > > > > > > > > > > > > > ",
"$ & & $ $ 3 9 ; , , % & $ - 7 f C D F F D V f 5 # @ @ , - - - - # # , 8 h J P D A A A j 7 3 > > > > > > > > > > > > > > > > > > ",
", 2 & X O = 5 , @ @ + + + # 2 7 r s j j f r , , , , @ @ @ @ # - 2 4 # - 2 8 a f a a j j 8 ; ; > > > > > > > > > > > > > > > > > ",
"J k 7 # + = & , , , , , # # # # 4 8 r 5 , - , , , , , - @ # - , 4 , , @ @ # 5 7 5 2 7 7 7 ; > > > > > > > > > > > > > > > > > > ",
"} / b r = + + 7 G G M h f f 8 a a a 5 @ + - r M G k h f f 8 6 5 6 , 6 u a a a a a a 5 - - 5 > > > > > > > > > > > > > > > > > > ",
"/ I D t ; X - D [ +.' I J P Q I I P j - + 7 J O.+.' W I I P V r 6 u D Q ) I J P I / V 4 - 3 1 > : > > > > > > > > > > > > > > > ",
"j j g e ; ; r K { [ ) W P ~ ` ` ^ ~ P j 4 8 P { } ( W W Q Q D a u V ~  .] ^ P Q O.O.` j 5 9 1 > > > > > > > > > > > > > > > > > ",
"2 4 - $ $ - 8 j C D S F F K W P F F P A 8 7 f A S F K S K F C r 6 h P ~ ~ F A K ` O.` j e ; > > > > > > > > > > > > > > > > > > ",
"7 4 3 ; = = - 4 5 r j v A C b j j j f r - # 2 7 a g C D C f 7 4 , 4 8 j j V j j J P C r 5 ; > > > > > > > > > > > > > > > > > > ",
"V G K A a & + # 5 5 8 a s a 7 7 7 7 4 # # # , 4 5 r a a a 7 , # @ # # 5 7 7 7 7 7 8 7 - & & > > > > > > > > > > > > > > > > > > ",
"( ' X.{ K e 2 f V V a 5 2 2 - # # 4 5 8 8 a h C k r 4 # 5 f k h a 8 8 7 4 # # 2 7 a f f 5 & ; > > > > > > > > > > > > > > > > > ",
"^ ` ' ~ S v F ~ [ ' V 5 4 5 5 - @ # a J P P ~ [ ` A - + 8 Q X.' I K J V 7 # @ 7 h J ` I b 5 ; > > > > > > > > > > > > > > > > > ",
"V D Z t t S ^ ' [ ] P f a j j a 2 7 V Q ~ ~ ` } [ K 8 7 D ] #.| ` ^ ^ I V 5 - a D ~ ] ] L r ; > > > > > > > > > > > > > > > > > ",
"7 a a > 1 v P P L K V a a j D a 4 7 j F K F F P J j 8 8 V P I K D D K K v 7 4 8 j D F F V r ; > : > > > > > > > > > > > > > > > ",
"4 5 e 5 1 a v V j r 5 , 2 5 7 7 - 2 8 j j j C s a 5 , , 2 7 r a r a a a 7 < # - 7 8 a a r 3 ; > > > > > > > > > > > > > > > > > ",
"f 7 , < 3 3 7 r r 5 - - @ - 4 - # # 4 5 7 r a r 4 2 # # & 4 4 4 - 4 5 , 5 - # # # 4 5 5 4 , ; > > > > > > > > > > > > > > > > > ",
"I j 5 < ; = @ , 4 5 8 f k M k j a 8 7 5 2 , 2 2 5 8 h k k j f 7 - # , u f f r 7 8 u 8 5 5 < > > > > > > > > > > > > > > > > > > ",
"/ J a , ; ; - , , 5 b Q ' X.) / J D C a 5 , @ - 7 V ( X.[ / J j 6 , 6 k I / J J K K j 8 < 5 1 > > > > > > > > > > > > > > > > > ",
"J D r ; 0 a r , 4 f J ^ X.[ X.) ~ Q P A f 6 , , h J ' [ } ^ Q K h 6 u A / ) Q P ~ ~ K f 5 9 > > > > > > > > > > > > > > > > > > ",
"j j r ; 9 s f , 6 h D K K K L G K F S D j 6 , 6 v F K K K K F F v r 8 v K K K D K K D j 5 > > > > > > > > > > > > > > > > > > > ",
"g g r ; 9 r 8 , 5 g v v g j g v j v j v a 5 , 8 j v j g j v C b j r 7 j C Z j j j C C s 5 ; > > > > > > > > > > > > > > > > > > "
};
