/* XPM */
static char *wall_d_l1678373546[] = {
/* columns rows colors chars-per-pixel */
"64 64 131 2 ",
"   c #050A06",
".  c #060E0C",
"X  c #0A0C0B",
"o  c #0A130E",
"O  c #1A130E",
"+  c #0E0F11",
"@  c #0C1412",
"#  c #0E1916",
"$  c #0F1A18",
"%  c #141513",
"&  c #1D1613",
"*  c #141A16",
"=  c #1E1916",
"-  c #141619",
";  c #121D1B",
":  c #1C1D1B",
">  c #201A17",
",  c #221C1A",
"<  c #15221D",
"1  c #1C221E",
"2  c #25211E",
"3  c #151F20",
"4  c #1C1E20",
"5  c #231F23",
"6  c #162121",
"7  c #1A2424",
"8  c #1C2925",
"9  c #1D2629",
"0  c #1E292A",
"q  c #232222",
"w  c #292525",
"e  c #282A26",
"r  c #242529",
"t  c #29272A",
"y  c #212B2D",
"u  c #2B2B2B",
"i  c #302E2E",
"p  c #23312D",
"a  c #2D322E",
"s  c #30302E",
"d  c #242D31",
"f  c #2C2E32",
"g  c #322F33",
"h  c #263233",
"j  c #2A3236",
"k  c #2D3B37",
"l  c #2D343B",
"z  c #2E393C",
"x  c #343434",
"c  c #383735",
"v  c #393936",
"b  c #33353C",
"n  c #323B3C",
"m  c #3C3D3C",
"M  c #403F3F",
"N  c #3F403F",
"B  c #40403F",
"V  c #2F3A41",
"C  c #323740",
"Z  c #333B43",
"A  c #3A3C45",
"S  c #363F48",
"D  c #393E49",
"F  c #403F40",
"G  c #354145",
"H  c #3D4142",
"J  c #37414A",
"K  c #3B434C",
"L  c #3E4A4D",
"P  c #3E4651",
"I  c #3E4954",
"U  c #444444",
"Y  c #484747",
"T  c #484847",
"R  c #434449",
"E  c #47494B",
"W  c #484848",
"Q  c #414753",
"!  c #424A55",
"~  c #4A4B55",
"^  c #454D5A",
"/  c #4B4E5B",
"(  c #46515B",
")  c #4A525E",
"_  c #51525E",
"`  c #475360",
"'  c #4B5563",
"]  c #4E5964",
"[  c #4E5968",
"{  c #525764",
"}  c #525B66",
"|  c #585866",
" . c #545C6B",
".. c #585D6E",
"X. c #565F71",
"o. c #5A5F71",
"O. c #56616D",
"+. c #5B616D",
"@. c #566072",
"#. c #5C6375",
"$. c #5D6679",
"%. c #5E687B",
"&. c #616576",
"*. c #606578",
"=. c #626A7E",
"-. c #646D82",
";. c #686F85",
":. c #667085",
">. c #697186",
",. c #677288",
"<. c #6C748C",
"1. c #71778E",
"2. c #6F7790",
"3. c #6F7891",
"4. c #707790",
"5. c #737B94",
"6. c #767F99",
"7. c #787F99",
"8. c #77819B",
"9. c #7A829C",
"0. c #7D86A2",
"q. c #7F88A4",
"w. c #7F8AA8",
"e. c #8187A2",
"r. c #8189A5",
"t. c #848DAA",
"y. c #8690AE",
"u. c #8992AF",
"i. c #8792B0",
"p. c #8B95B3",
"a. c #9AA2C2",
/* pixels */
", , , , , , , , , , , , , , , , , , , > = g *.7.7.5.4.4.<.<.4.0.5.L j N U U T T U W W W W W W W W W W W T W W W W W T T U T E T ",
", , , , , , , , , , , , , , , , , , , > > b *.7.9.5.5.5.5.1.5.r.5.L a v B T U T T T W W W W W W W W W R W W W W W W E T U R W W ",
", , , , , , , , , , , , , , , , , , , > > b *.7.0.7.7.r.9.6.7.t.5.L a v U U T T T W T R W W W W W W W T W W W T T W W H H H T W ",
", , , , , , , , , , , , , , , , , , , > > g *.7.0.9.0.r.e.8.9.t.1.N a v H U T U T W W W W W W W W W W W W W W W W W R N n N T W ",
", , , , , , , , , , , , , , , , , , , > , g #.7.0.9.9.t.e.9.e.t.%.N s v U U U U T W W W W W W W W W W W W W W W E W U N k n T W ",
", , , , , , , , , , , , , , , , , , , > = g #.0.r.0.e.t.e.9.r.t.O.N x m U U U Y W W W W W W W T W T W T W W W W W W U H n N T W ",
", , , , , , , , , , , , , , , , , , , > & g *.r.t.9.7.9.9.9.t.8.( k x m U U T U W W W W W T W R W W W W W R T W W W T U H U T W ",
", , , , , , , , , , , , , , , , , , , > & g #.t.i.7.#.{ ..=.<.O.k e x m U U U T U T W W W W W W W W W W T W W W W W W W W W T W ",
", , , , , , , , , , , , , , , , , , , > & g o.w.u.9.~ 1 < S I f 2 u m N B U U U T Y T W W W W W W W W W W W W W W W W W W W W W ",
", , , , , , , , , , , , , , , , , , , > & g o.7.t.9./ : o 7 d w e v B m B U U U T Y U W W W W Y W W W R W W W W W W W W E W W W ",
", , , , , , , , , , , , , , , , , , > > & g ..6.r.r.+.u o * 7 i m m B U U U U U W W W W W W W W T W W W W W W W W W W W W W W W ",
", , , , , , , , , , , , , , , , , , , = > g o.5.t.t.&.e   X q v M B M B U U U Y W U T W W W W W W W W W W W W W W W W W W W W W ",
", , , , , , , , , , , , , , , , , , , > = g o.0.y.r. .5 X = j m M F B U B U U U U W W U W W W W W W W W W W W W T T E E ~ W W W ",
", , , , , , , , , , , , , , , , , , , > & g #.t.i.6.^ : = g m m M F A M U U Y U W U W W U W Y Y T T W U U W W W W E T W T T T T ",
", , , , , , , , , , , , , , , , , , > = & f *.y.t.<.D 4 w v F M M U U U U U Y U U U W U W W Y Y W W W U T T T W W T U U N N B U ",
", , , , , , , , , , , , , , , , , , , > & g o.0.w.<.P 5 u v M m U m U U U U U U U U U U U Y U W U W U W T T T T W W U N k j k N ",
", , , , , , , , , , , , , , , , , , > = & g #.0.t.6./ r t v M M m M F U U U U U U U U U U U U U U U U U U U Y U W W Y m k h x n ",
", , , , , , , , , , , , , , , , , , > & O g *.t.p.w.[ r i b U F U U F U U U U U U U B U U U U U U U U U U U U Y Y W U H n b n v ",
", , , , , , , , , , , , , , , , , , , & O g *.y.p.r.' r u m M M m U U U m U U U U B B U B U U U U U U U U U U U U Y U U H N N n ",
", , , , , , , , , , , , , , , , , , , O O g o.6.w.6./ 5 w v U M U m m U m U m U U B M N B B B B U U H U U U U U U U U U U N N v ",
", , , , , , , , , , , , , , , , , , > O = A  .-.,.-.` r q s m U F U m U B U U U m m m U B B B U N H m F U F U F B U U U N m m N ",
", , , , , , , , , , , , , , , , , > > 5 C [ $.o.#.#.X.I x u x M M F U m B U M v s x ~ &.| U B U U B U F M m M A M U M m x c ~ O.",
", , , , , , , , , , , , , , , , > & , b X.<.<.-.$.-.<.<.@.A i x m F M U U U M u 5 A -.9.1./ m U U M M m v v v v m U m i r b ..1.",
", , , , , , , , , , , , , , , , & O 5 ! <.0.6.<.<.1.9.u.t...b t s v F m B U v 2 4 ~ 5.t.9.O.Y U B U m v v b c c v M v w q A #.<.",
", , , , , , , , , , , , , , , = & O 2 _ 5.7.6.2.2.2.5.r.y.6.X.b e i x x x c u , t _ 2.r.0.*.E H N N m b b c x x x c i w r A  .;.",
", , , , , 5 , , , , , , , , , , > O q ~ 2.6.5.2.<.<.2.5.6.0.6.o.m q : 4 4 7 : 2 A o.4.t.e.#.H c x s u e u u g f e r q q u R ..-.",
", , , , , , , , , , , , , , , , > O , / <.6.2.<.<.<.<.<.2.3.0.6.{ f 4 5 d 9 : x  .;.7.u.e...x w e e w , , q 5 4 q 4 4 q j Q o.-.",
", , , , , , , , , , , , , , , , > > , ~ <.5.2.<.<.<.<.<.;.2.5.5.#.! P '  .^ K ! -.2.9.r.9.#.H n U E ~ D b f f l C A D D K ` $.-.",
", , , , , , , , , , , , , , , , > O w ~ 1.5.2.<.;.<.<.<.;.<.2.<.-.[ -.2.5.<.-.X.-.<.5.6.7.1.=.=.<.1.1.>.*.o.o.$.-.<.<.;.-.-.<.<.",
", , , , , , , , , , , , , , , , > O , / 1.5.2.<.;.<.<.<.<.<.2.;.-.-.;.5.6.6.2.,.<.<.5.6.7.7.9.7.6.6.8.8.5.4.3.5.5.9.7.5.5.4.5.6.",
", , , , , , , , , , , , , , , , > O , / <.5.5.<.2.<.2.<.<.<.<.<.-.-.,.2.2.2.5.5.<.<.1.4.5.5.5.<.<.<.1.<.<.1.<.<.2.4.1.<.<.1.1.5.",
", , , , , , , , , , , , , , , , > & w ~ >.5.5.2.2.2.2.2.2.2.2.2.<.;.,.<.<.2.5.5.<.<.<.<.>.<.<.<.<.;.;.>.<.>.<.;.<.;.;.;.<.>.<.>.",
", , , , , , , , , , , , , , , , > = w ~ -.6.6.3.2.2.4.5.5.3.5.1.<.<.2.<.2.2.2.5.<.<.<.<.;.<.1.6.1.=.$.=.<.<.<.<.>.<.<.<.>.>.<.<.",
", , , , , , , , , , , , , , , , , , w / <.8.6.5.2.5.5.5.<.=.-.1.2.<.,.2.2.,.-.-.<.5.5.4.<.<.6.r.9.>.@.=.<.<.<.<.<.<.<.<.<.<.<.<.",
", , , , , , , , , , , , , , , , , > w / 5.t.q.9.9.0.r.0.-.! ..8.5.<.,.2.5.<. ./ #.8.q.0.9.9.e.t.e.>.@.*.5.5.<.<.<.<.<.<.<.<.2.5.",
", , , , , , , , , , , , , , , , , > w E =.5.0.8.7.8.0.6. .x _ p.i.6.2.5.0.6.| A ` 2.0.0.8.8.8.8.<.X.] $.<.2.<.<.<.<.<.<.<.<.<.3.",
", , , , , , , , , , , , , , , , > > q A ' @.$.@.@.#.-.%.Q w / a.a.t.7.q.p.e.| g D X.-.%.$.@.$.@.] Q ^ $.5.4.<.<.2.<.<.<.<.<.<.5.",
", , , , , , , , , , , , , , , , , > w A ^ ' [ ` ) ^ ` ` C - A e.p.r.7.0.t.4.~ 5 l I ` ` ^ ` [ [ ` P ^ =.0.0.6.1.1.5.6.8.6.4.5.9.",
", , , , , , , , , , , , , , , , , > t A ! ' ' ^ I P K G 9 X 5 { #.#.$.$.o._ t + 3 l D D K I ` ` ^ K ( <.t.t.8.1.<.5.9.r.9.6.6.0.",
", , , , , , , , , , , , , , , , , > w z z V V l j h 0 8 -   - C K P D Q Q C 5 X . ; 0 d d j z G z l K #.7.6.>.$.$.=.<.5.2.;.:.<.",
", , , , , , , , , , , , , , , , > , q 8 8 < < 8 0 7 3 $ @ . 9 D Q P P P I J d @ . # 6 7 3 3 $ 6 < < h ^ @.@.[ ] ] ] [  .[ ' [  .",
", , , , , , , , , , , , , , , , , , q 6 < 6 0 h h d 0 < $ $ 0 S K K D D K S d 3 $ < 8 h h d d 0 < < 0 K ` [ ` ' ] ' ` ] ' ' [ [ ",
", , , , , , , , , , , , , , , , , 5 , : 0 V K I I I J j 8 < 3 0 j l C b h y 6 < 6 0 V K P P P D h < 9 b I ^ ~ ~ Q ! ! ! ! ! ^ ^ ",
", , , , , , , , , , , , , , , , , , : 7 h K Q I ^ ` ` G p < $ $ 7 9 9 9 9 < $ $ 8 k K I ! ! ! P Z 8 ; q u f u a j j g u f f f f ",
", , , , , , , , , , , , , , , , , : 4 0 l Z Z A D P D l 8 ; $ < ; ; $ < $ $ # < 8 h V S S S Z C j 0 ; - # * < < 7 q : + & - - % ",
", , , , , , , , , , , , , , , , , : : y l j y d h d 0 3 $ < ; < ; $ @ # # $ $ < < < 0 h j l j y 7 ; # @ # # # * < 7 - . X ; < < ",
", , , , , , , , , , , , , , , , , > : 7 0 9 3 7 8 7 $ # $ < < 6 3 $ $ # $ < 6 < < < $ < 9 9 0 7 $ # $ ; < < < < ; ; $ @ # 0 n K ",
", , , , , , , , , , , , , , , , , , : ; 3 7 d d d d d p h 8 < 8 7 0 d h h k N G N 0 $ # $ 9 d d 0 0 h h h N L V 9 @ o < 0 N ( O.",
", , , , , , , , , , , , , , , , , , 7 * 7 V ^ I K J I ` I G h 8 0 C P Q I Q ] #.@.J 7 @ 3 V P I I I I P Q } #.} Z ; @ 2 a Z Q ( ",
", , , , , , , , , , , , , , , , , q , 9 l ' #. .^ P `  . .^ z 0 j S ! ^ I Q `  . .J 7 7 l P ! ^ ' ' Q K Q `  .] J 0 * = r f j j ",
", , , , , , , , , , , , , , , , , , 2 9 V ` X.` D Z P ! ^ P z 8 d C D D D D A D Z d 9 0 V P D D P Q K S D D S Z l 0 ; % % 3 3 7 ",
", , , , , , , , , , , , , , , , , , : 3 y Z P S C j l l j 0 7 $ 6 9 j C Z Z j d 9 3 $ 3 y j l l l l A Z C f y 7 6 < - - - 6 6 7 ",
", , , , , , , , , , , , , , , , , , - $ 3 9 0 0 0 9 7 7 7 ; $ $ $ 6 9 d h d 0 7 3 ; $ $ ; 3 0 9 9 9 d d d y 7 6 $ @ - d S K G V ",
", , , , , , , , , , , , , , , , : = * 8 d h d 9 3 ; $ 3 0 y y d l z d 6 $ 6 d z Z j d d 0 7 3 $ ; ; 3 6 7 d Z V d 3 d R } O.] ^ ",
", , , , , , , , , , , , , , , , , = 7 V ^ ( P h 9 # $ 0 V D K I } O.I 0 @ 6 S ] ] ( K K J h $ # 3 7 7 $ 7 J ] ] ! S b A ~ ' ' ^ ",
", , , , , , , , , , , , , , , , , : y P ] [ ^ Z 0 3 9 C I ^ ^ ^ O.$.} V 7 d K } } ` ( ^ ! V 7 3 d z j d h I }  .' ^ A u u A S l ",
", , , , , , , , , , , , , , , , , , y n S D Z b 9 6 y C D D S D K Q K z 0 d l K P D D D D C 7 7 h S z d d C D K I I b 5 5 d d 9 ",
", , , , , , , , , , , , , , , , , : 9 y d y 0 9 ; $ 6 0 d f y d d y 9 6 ; 3 7 d j b b l j y 3 $ 7 0 6 < 3 9 d l C C u 5 5 9 7 3 ",
", , , , , , , , , , , , , , , , , = < 1 7 7 6 $ $ $ < < 6 7 < ; 6 6 < < ; ; ; 7 y y 0 0 9 3 - $ 6 6 $ $ ; ; 7 d y 3 4 6 1 6 7 l ",
", , , , , , , , , , , , , , , , , 1 1 < 7 0 d 0 0 0 k h 8 1 ; ; 9 h l z z h 8 6 6 6 ; 6 3 0 0 d h z N z h 8 6 6 3 $ - : < 7 k I ",
", , , , , , , , , , , , , , , , , q 1 1 0 l K K S P ! I k 8 < 7 l K ^  .O.( k 8 ; # < 7 d C S P ( ] O.] ! z 8 < $ ; : 1 8 p K ( ",
", , , , , , , , , , , , , , , , , , q 9 j K ! ^ I ! ) ^ n p y k J Q )  .O.) K h < < 8 j Z P Q ^ ' } O.} ^ K d < 6 p u , : y S K ",
", , , , , , , , , , , , , , , , , , : 9 j K K D D D K K l y y Z D K D D K K K z 8 < y l S A D D D P K L J S j 6 8 h j 5 : 0 j l ",
", , , , , , , , , , , , , , , , , , : 7 d C b l l l Z C j 0 y l b C b l j l b z 8 ; 7 d b l l C l j j f l V k 8 < 0 u 2 : y j l "
};
