/* XPM */
static char *result[] = {
/* columns rows colors chars-per-pixel */
"50 50 86 1 ",
"  c #524047",
". c #5B4342",
"X c #534249",
"o c #5D4649",
"O c #564750",
"+ c #564851",
"@ c #594C56",
"# c #554E5A",
"$ c #5A4E59",
"% c #5D535E",
"& c #634746",
"* c #644847",
"= c #6A4946",
"- c #60474A",
"; c #664A4C",
": c #6C4C4B",
"> c #724F4B",
", c #77514C",
"< c #79534E",
"1 c #62545D",
"2 c #775251",
"3 c #7C5551",
"4 c #434F65",
"5 c #4F5061",
"6 c #46536A",
"7 c #4A566D",
"8 c #4C586F",
"9 c #525364",
"0 c #5E5662",
"q c #545668",
"w c #555A6D",
"e c #4E5A72",
"r c #505D76",
"t c #525F78",
"y c #615761",
"u c #625A66",
"i c #655D6A",
"p c #725E66",
"a c #546076",
"s c #55627C",
"d c #5A657A",
"f c #666677",
"g c #696574",
"h c #63697D",
"j c #6C6A7B",
"k c #7D717D",
"l c #815651",
"z c #855953",
"x c #895B55",
"c c #576580",
"v c #596782",
"b c #5E6D89",
"n c #636D84",
"m c #6B6F83",
"M c #65718A",
"N c #69758C",
"B c #737486",
"V c #76798D",
"C c #657492",
"Z c #687796",
"A c #6B7996",
"S c #6F7F9F",
"D c #727D93",
"F c #7A8197",
"G c #73819C",
"H c #7B849B",
"J c #7584A3",
"K c #7A87A2",
"L c #7A88A5",
"P c #7D8BA9",
"I c #84879A",
"U c #828CA4",
"Y c #818EAA",
"T c #8590A6",
"R c #8692AC",
"E c #8895AF",
"W c #8D98AD",
"Q c #8794B0",
"! c #8A97B1",
"~ c #8E9AB3",
"^ c #919DB5",
"/ c #94A0B7",
"( c #96A2B9",
") c #9AA5BC",
"_ c #9DA8BE",
"` c #A2ACC1",
/* pixels */
"44rbSGSSSSSJ!_`)~~QQEEF%XX                        ",
"44rbASSSSJSJP__)~PQQEEF%X              X          ",
"44rbSSSJSSJP~_`)~!!QEEF0X        XX-;>,,,:o       ",
"44rbSSSSSSSJ~_`)~QQ!EEF0X          o;,,,,;o       ",
"44rbZSSSSJSJ!)`(~!!!!QF%          oo=,,,>:-oX     ",
"44rbSSSSSSSJ!)`)~Q!!QQF0X     XOo&-=>,,,,>:;-X    ",
"44rbSSSSSSJL!_`)~Q!PQEF%X    X;:::::>,,,,<32>;X   ",
"44rbSSSSSSSPQ__)~!!!QQF%X  XXo:,<><,,<,,,3zx2;X   ",
"44rbSSSSSSSJ!_`)~EEEEEF0X Xoo::,<,,,,<,,23zx2;    ",
"44rbSSSSSSSL!_`)~EEEEEF0X oo:>>,,,,,,,,,23zx3;X   ",
"44rbSSSSJSSL~_`)~EEEEEF%X o:>,,,,,<,,,,,23zx2;X   ",
"44rbSSSSSSSLP_`(~EEEEEF0X o:,,,,,,,,,,,,<lzx3;X   ",
"44rbSSSSSSSLQ_`)^EEEEEF%X o:,,,,,<,,<,<<<<xx3;X   ",
"44rbSSSSSSSLQ_`)~EEEEEF%X o:,,,,,,,,,,,<<3xx2;X   ",
"44rbSSSSSSSL!_`(~EEEQEF0X o:,,,,,,,,,<<<lzxx3;X   ",
"44rbZSSSSSSP!_`)~EEEQQF0X o:,,,,,<,,,,<lzxxx3;X   ",
"44rbSJZJGGGLW__)~EEE!!F0  o:,,,,,<<,<<lzxxxx2;X  4",
"44rbSZJJGGGJW__)^EEE!!F0X o*=><3l<lllllxxxl<:o   4",
"44ecbCCCCCCGLWTTKHKUTKm%X  .&:<zlxzxxlxxxl,=.o    ",
"446rccccccvdMNFNNMNBxji@    .=<zxxxxxxxxzl=.      ",
"4466777767778eeew8wgp1@@+X  .=:<<<<<<<<,,=. .     ",
"44667ee7778eeeaaeadmkg0+     .&==&========..      ",
"446tccvvcccbNGGGNNGHIFf@      ............        ",
"46rcCZZZZZCGLE~PTKKRETV%  XX   .. ........        ",
"44rbSSSZGSGJP``(~EEE!TV%X@%iiiiiiiiiiiiiy$X       ",
"44rbSSSJGGJJP()(~EEE!RV%+0jVVVVVVVVBVVVVju+       ",
"44rbSSSSJGPP/()(~!EEERV0+gFTERERERREERERFg@       ",
"44rbZSSSGJLPP(((^!!EETV%+gFTEEEEEEEEEEEEHg$X@0uu7q",
"44rbSSSSJJJP!~^^^!!!!TD%+iFEEEEEEEEEEEEEFg@+ujBBBB",
"44rbSSSJJJPPQ~^^~~!!!TV%+gFQEEEEQEEEEEEEHj@$jFYRYY",
"44rbSSSJJJPP!!^^^!!Q!PF0#fFQEEEEEEEQEEQ!Hf$0jKEE!E",
"44rbZSSJJJPP!!~^~!EE!TVw5dFEEEEEEEEEEEQQHn9qmKEEE!",
"44rbSSSJJJPPQ!~~~!!P~PGe7nHEP~PP~P!PP^PPPM8wGKWWQQ",
"44rbSSSJJJPQQ~~/~~~!~~Ga7hH^~~(////((P)/LM8whK~~~~",
"44ebSSSJJJQQ~/(((~(~/PPs7NP)())))())))))PN8aGW)))(",
"44rCSSJJJJQ()_____)_)~Ls8NW_````````````^G8aG^__`_",
"44eCSSSJJJP/(__)_))_)!St8NP__)__)____)``PGerFW))__",
"44eCSSSSPJPPQQQQQQQ!QLCt8hJ!WW~P/P~P/PPPKberdKWWQQ",
"44rbSSSSJJJJJJPPJJJJLJbe6dGJLJLJLJJJLJJJGd8ecGLLSJ",
"44ebJSSSJJJJJJJJSSJJJZbr6dCGGGJGJGJJJJJJGs66cGGGSS",
"44rbSJSSJJJSSSSJSSSSSSc76tCSSSSSSSSSSSJSbs88vCGGSJ",
"44ebSSSSSJZJSSSSSSSSSZbe6cCSSSSSSSSSSSSSGs68vGGGSS",
"44rcSSSSSSSSSSSSSSSSSZbe6cCSSSSSSSSJSSSSbc68cCGSSS",
"44rbSSSSSSSSSSSSSSSSSZb76cCJSSSSJSSSSSSSCc78cCZJSS",
"46rcSSSSSJJJSJSSSSSSSZbe6cbSSSSSSSSSJZJJCc77cZJJJS",
"46rcCSCSSZZZSZSZZSSSSCce6cbSSSZSZSZSZJZSCc77cCSZZS",
"46rrttrcbbbbbbbbbbbbbbt66rcbbbbbbbbbbbbbcr66tcbbbb",
"466rrrrrrrrrrrrrrrrrre6666etrrrrrrrrrrrrr6667eretr",
"44466666444444444444444444444444444444444444444444",
"44446446444444444444444444444444444444444444444444"
};
