/* XPM */
static char *result[] = {
/* columns rows colors chars-per-pixel */
"50 50 75 1 ",
"  c #514047",
". c #5B4342",
"X c #544249",
"o c #5B4548",
"O c #5F484B",
"+ c #574952",
"@ c #5A4C55",
"# c #5B4F59",
"$ c #634746",
"% c #644847",
"& c #6A4946",
"* c #614749",
"= c #65494A",
"- c #6B4C4B",
"; c #724F4B",
": c #77514C",
"> c #79534E",
", c #614F57",
"< c #6A5357",
"1 c #63545B",
"2 c #69585F",
"3 c #775251",
"4 c #7C5551",
"5 c #434F65",
"6 c #465369",
"7 c #49566D",
"8 c #4B586F",
"9 c #5D5663",
"0 c #5E5966",
"q c #52596D",
"w c #5C5A69",
"e c #4E5A71",
"r c #505D75",
"t c #605763",
"y c #625A66",
"u c #6A5A63",
"i c #645D6A",
"p c #546076",
"a c #6A6777",
"s c #6D6B7B",
"d c #706976",
"f c #716C7B",
"g c #815651",
"h c #855953",
"j c #895B55",
"k c #576580",
"l c #596782",
"z c #5E6D89",
"x c #656F86",
"c c #6C6F81",
"v c #6C7084",
"b c #667289",
"n c #69758B",
"m c #6E798F",
"M c #737486",
"N c #75788C",
"B c #667593",
"V c #6E7A94",
"C c #6F7F9F",
"Z c #717D92",
"A c #7B7F94",
"S c #7B8197",
"D c #7D849B",
"F c #7D87A0",
"G c #7A88A5",
"H c #80889E",
"J c #818DA5",
"K c #8691AB",
"L c #8895AF",
"P c #8D98AD",
"I c #8A97B1",
"U c #8F9BB4",
"Y c #919BB0",
"T c #9AA6BC",
"R c #A2ACC1",
/* pixels */
"55ezCCCCCCCGGTRTIUIIKMy                           ",
"55rzCCCCCCCGGRRTIGGIKMy                           ",
"55rzBCCCBGCGUTRTTUUIKMw           Xo-;>:3-o       ",
"55rzCCCGGCCGURRTUGIIKMy           Xo-;3::-o       ",
"55rzCCCCSCCGUTTTUGUUGSy           o*-:::;-*o      ",
"55rzBGCCCCCGUTRTUUGIKmy       XOo*$&;::::;--*o    ",
"55rzCCCCCCGGLTRTUIGIKMy      o=----;;:::::>3;*    ",
"55rzCCCCCCCGUTTTUIUIKvy    XXO=:::::::::>ggj3,X   ",
"558kBBBBBBBBDKPKGDDSAs9   Xo*--:::::g:::33hj3=    ",
"557rkkkkkkklxmmmbxcfdy+   o=--::::::::::3ghj3,X   ",
"5566777777778reqe802<@XX Xo=;:::::::::::>ghjg=X   ",
"56667888887erpprrqwu<1##+XO-:::::>::::::3gjj3=X   ",
"557kkkzllllzzVZVnbvMffssi#O-::::::::::::3ggj3-X   ",
"55ekBBBBBBBCGIYKJFDDDDDDs0O-;::::>:::::>>ghj3=X   ",
"55rzCCCCGCCGIRRTULILLLLLNiO-::::::::::>>ghjj4=    ",
"55rzBCCCCCCGITRTULLLLLLLNiO-:::::::::>gghjjj4=X   ",
"55rzCCCCCCCGITRTULLLLLLLNiO-:::>g::::gghjjjj>=    ",
"55rzCCCCCCCGITRTULLLLLLKNio*-->>gggggghjjhgg-o    ",
"55rzBCCCCCCGITRTULLLLLLLNiX.&->hhhhhghjjhg:&..    ",
"55rzCCCCGCGGITRTULLLLLLKNiX..&>hjhhghhjjhg&..     ",
"55rzCCCCCCCGITRTULLLLLLLNi ..$-:g:g:g::::&..      ",
"55rzCCCCCCCGITRTULLLLLLKNi  ..$&&.&&&&&&&&..      ",
"55rzCCCCCCCGURRTULLLLLLLNi   ..............       ",
"55rzCCCCCCCGGTRTULLLLLLLNi       .. ......        ",
"55rzCCCCCCCGGRRTULLLLLLKNiX        .              ",
"55rzCCCCCCCGITRTULLLLLLLNi                        ",
"55rzCCCCCGCGITRTULLLLLLKNi           X            ",
"55rzCCCCCCCGITRTULLLLLLLNiX     Xo**.o.           ",
"55rzBCCCCCCGITTTULLLLLLKVi     X*&&=-=o           ",
"55rzCCCCCCCGITRTULLLLLLLNiX    o=;3:3;=           ",
"55rzCCCCCCGGITRTULLLLLLLNiX    o=3::3-+           ",
"55rzCCCCCCCGIRRTULLLLLLLNi     o&;::3;+           ",
"55rzCCCCCCCGLTRTUIIIILILNi     X=;3::;%X          ",
"55rkzBBBBBBCGGUGFDDDAAAAc9X    X*-;--=*X          ",
"557rkkkkkkkkbBGBbxvffaaaw#X    Xo*****o           ",
"5556777777778ee7eqy1,@@@+X        XXX X           ",
"5567777r8877reprrqiu1+X                           ",
"557rklkzllllbSSmnbMcsy@                           ",
"55rkBBBBBBBSGPPKJFJHAct                           ",
"55rzCCCCGGGGUTTTUKKIKMw      XXX      XXXXXX      ",
"55rzBCCGBGCGGTRTULLLKMy     XO**o    Xo*==**oX    ",
"55rzCCCCBGGGITRTULLLKMy     o*;=o    X%-;;;;*o    ",
"55rzCCCCGBGGITRTULLLKMy     o=;=*    X*;3::;=o    ",
"557zCCCCBGBGITTTULLLJMi     XO*Oo    o*;:::;=o    ",
"55rzCCCCCCCGITRTULLLKMy      +XXX    o*;:::;=o    ",
"55rzBCCCGCCGITRTULLLKMy              X*;;:;;=o    ",
"55rzCGCCBGGGITRTULLLKvy              Xo%&===%X    ",
"55rzBCCCCCGGITRTULLLKMw               XoooooX     ",
"55rzCCCCCCCGITRTIIIIGBr                           ",
"55rzCCCCCCCCITRTIIIIIBw                           "
};
