/* XPM */
static char *result[] = {
/* columns rows colors chars-per-pixel */
"50 50 84 1 ",
"  c #514047",
". c #5B4342",
"X c #544248",
"o c #5C4549",
"O c #564750",
"+ c #564851",
"@ c #594C55",
"# c #5B4F5A",
"$ c #5E5056",
"% c #624745",
"& c #644847",
"* c #6A4946",
"= c #604749",
"- c #65494B",
"; c #6C4C4B",
": c #724F4B",
"> c #77514C",
", c #7A534E",
"< c #645157",
"1 c #6D5355",
"2 c #6E5A5F",
"3 c #765251",
"4 c #7C5551",
"5 c #795C5C",
"6 c #434F65",
"7 c #465369",
"8 c #49566D",
"9 c #4B586F",
"0 c #565565",
"q c #5E5561",
"w c #51596D",
"e c #5B5969",
"r c #4E5A71",
"t c #505D75",
"y c #625761",
"u c #625A66",
"i c #6D5E64",
"p c #645D6A",
"a c #546076",
"s c #56647E",
"d c #6D6069",
"f c #716169",
"g c #7B656A",
"h c #7D686E",
"j c #6A6675",
"k c #6C6A7A",
"l c #736D7B",
"z c #7A6E79",
"x c #815651",
"c c #865954",
"v c #895B55",
"b c #8A5D58",
"n c #576580",
"m c #596782",
"M c #5D6A84",
"N c #5E6D89",
"B c #666E84",
"V c #6F6F80",
"C c #6F7183",
"Z c #667289",
"A c #69758B",
"S c #6E798F",
"D c #737587",
"F c #757588",
"G c #75788C",
"H c #797989",
"J c #667593",
"K c #6E7A94",
"L c #6F7F9F",
"P c #717D92",
"I c #797E93",
"U c #7B8197",
"Y c #7D859C",
"T c #7A88A5",
"R c #81859A",
"E c #818DA5",
"W c #8691AB",
"Q c #8895AF",
"! c #8D98AD",
"~ c #8A97B1",
"^ c #8F9BB4",
"/ c #919BB0",
"( c #9AA6BC",
") c #A2ACC1",
/* pixels */
"                                                  ",
"                                       X          ",
"                                  Xo-:>>:;oX      ",
"                                   =;:>>:;oX      ",
"                                X .=*>>>>;=XXX    ",
"      Xooo X                   O=o=-:>>>>::-=o    ",
"    oo---=X                 XoO-;:;::>>>>,43;-X   ",
"    o-::::-o               XX=-:>>>>>>>>>4cc3-X   ",
"    o-:>>>*X      XXXX    Xo=-::>>>>>>>>34cb3*    ",
"    X=:>>>-X     o-==X    o-;::3>>>>>>>>>4cv4<    ",
"     o::::o     X=;;-o    o;:>>>>>>>>>>>>xcv4-X   ",
"     o-@=        =;;;X    o-:>>>,>>>x>>>>4cb4-    ",
"                Xo==oX    o;3>>>>>>>>>>>>4cv4<    ",
"           X       oXX    o;>>>>>>>>>>,>4xvv4-    ",
"          =>>>:-          =;>>>>>>>>>,,4xxvv4-    ",
"        X=;>>>>;==o       =*>>>>>>>>>>,xvvvv4-    ",
"        =:>>>>,:::;oX     =;:>>>,,,>,,xcvvvc>&   +",
"        =>>>>>>>>>>;-X    o**:>xxxxxxxcvvvxx*.X  +",
"        =>>>>>>>>>,c3X    X.%:,xccccccvvvx>*..    ",
"        =>>>>>>>>>,c3X      .*,cvccccccvc>*%.     ",
"        =>>>:,>>>xxv3o      .&:>>>,,x>>>>>...     ",
"        =>>>,,>>>xvv3X       .%**.********.       ",
"        .:>x4444xvvx:X        .............       ",
"        .%>cvvvvcvc;oXXXX XX   . ..... ...        ",
"         .*35ghhzbgdppppuppppppppy@XX             ",
"          .-iVHHIHGFGKGGGFGGGGGGIkuO              ",
"           $kYQWWQWQQQWWQWWWWWWQWIj@              ",
"weuuuuueq@X#kRQQQQQQQQQQ~Q~~~QQ~~Ul<-<yuuuuuueuutu",
"DDDDDDDDkyO#kYQQQQQQQQQQQQQQ~QQQQRz31flFDDDDCDDCDD",
"WWEWWEWWIj@#kTQQQQQQQQQQQQQQW~QQ~Rz55zRWWWEWWWWWWW",
"QQQQQQQQIB#qVTQQQQQQQQQQQQQQQQQQQYz2iVRQQ~QQQQQQQQ",
"QQQQQQQQYB0eCRQQQQQQQQQQQQQQQQQQQYVupDTQQW~QQQQQQQ",
"QQQQ~QQQTBwwAEQQ~~~~~~~~~~~~~~~~~TJ9wAY~QQQQQQQQ~T",
"^^^^~~^^TZ9tAE^/^~~^^~~~~^~~^~~~~TJ9tAE^^^^^^^^^^^",
"((^(((((WAttGW(((((((((((((((((((WJrtSQ(((((((((((",
"))))))))QKwaP!))))))))))())))))))!KraP^)))())))())",
"(((((()(QArtK!(()((((((((()(()(((WArtP~(((((((((((",
"~^~~~^~~TZrrAT~^~~~~~~~~~~~~~~~~~YZrrAT~~~~Q~~~^~T",
"TTTTTTTTKM99MKTTTTTTTTTTTTTTTTTTTKM9rMLTTTTTTTTTTT",
"LLLLLLLLJs99mJLTLLLLLLLLLLLLLLLLLJn8rnJULTLLLLLTTL",
"LLLLLLTLJs89nJTLLLLLLLLLLLLLLLLLLJn8tmJLLLLLLLLLLL",
"LLLLLLLLJn89mJLLLLLLLLTLLTLLLLLLLJn88nJLLLLLLLLLLL",
"TLLLLLLLJn89mJLLLLLLLLLLLLLLLLLLLJn88mJLLTLLTLLLLL",
"LLLLLLLLJs89mJLLLLLLLLLLLLLLLLLLLJn8tmJLLLLLLLLLLL",
"LLLLLLLLJn89mJTLLLLLLLLLLLLLLLLLLJn88nJLLLLLLLLLLL",
"LLJLLLLJJn89nJLJJLLLLLJLLLLLLLJLLNn88nJLLJLLJLLLLL",
"NnNNNNNNnr77tmNNnNNnNNnNNNNNNNNNNnt78nnnNNNNNNNNmN",
"nn9nttttr8779rttn8nn8nn8n9n98nt8tt8668tn8ntttttt8n",
"66666666666666666666666666666666666666666666666666",
"66666666666666666666666666666666666666666666666666"
};
