/* XPM */
static char *wall_r1678373547[] = {
/* columns rows colors chars-per-pixel */
"64 64 98 2 ",
"   c #0E140E",
".  c #0E1A14",
"X  c #141412",
"o  c #141B14",
"O  c #1F1915",
"+  c #141E19",
"@  c #1C1D1B",
"#  c #201A17",
"$  c #221C1A",
"%  c #1B221C",
"&  c #21211F",
"*  c #1D2622",
"=  c #1D2B27",
"-  c #242523",
";  c #252A26",
":  c #292926",
">  c #25262B",
",  c #28272B",
"<  c #262B2C",
"1  c #2C2C2C",
"2  c #302D2F",
"3  c #2C312C",
"4  c #31312E",
"5  c #2D2D33",
"6  c #312E31",
"7  c #2D3435",
"8  c #2B373A",
"9  c #2E3838",
"0  c #333334",
"q  c #363936",
"w  c #393937",
"e  c #36353A",
"r  c #38363B",
"t  c #343B3B",
"y  c #3C3D3D",
"u  c #403F3F",
"i  c #3D403E",
"p  c #40413F",
"a  c #2F3C40",
"s  c #323E40",
"d  c #383F45",
"f  c #374146",
"g  c #3D4141",
"h  c #374449",
"j  c #3A464B",
"k  c #3E484A",
"l  c #3F4A53",
"z  c #454545",
"x  c #484747",
"c  c #484847",
"v  c #404549",
"b  c #474848",
"n  c #484848",
"m  c #424D53",
"M  c #455055",
"N  c #45515B",
"B  c #49525D",
"V  c #4A4F61",
"C  c #4B5362",
"Z  c #4E5964",
"A  c #4E5A68",
"S  c #535665",
"D  c #535967",
"F  c #525769",
"G  c #565A6A",
"H  c #595C6D",
"J  c #5A5F70",
"K  c #55606B",
"L  c #5A626F",
"P  c #576271",
"I  c #5C6274",
"U  c #5D6875",
"Y  c #5D6679",
"T  c #5D697A",
"R  c #626679",
"E  c #62697D",
"W  c #696C7E",
"Q  c #646D82",
"!  c #696E83",
"~  c #667083",
"^  c #6C7185",
"/  c #6C748C",
"(  c #6E7790",
")  c #6F7991",
"_  c #737C95",
"`  c #767F99",
"'  c #787F9A",
"]  c #788097",
"[  c #77809B",
"{  c #79829C",
"}  c #7D86A1",
"|  c #7F88A4",
" . c #8087A3",
".. c #818AA5",
"X. c #848CA9",
"o. c #8790AD",
"O. c #8891AE",
"+. c #8B92B1",
/* pixels */
"t t t t 9 t z n n n b b g t t t t t t t t t t y z b c b i i U o.X.{ } X.X.{ { ..{ J 6 # # $ $ $ $ $ $ $ $ $ $ $ $ $ $ $ $ $ $ $ ",
"g t q 9 t t z z b z z g g g t t t t t t t f i i z v c z i i K | o.X...X...{ ] X. .J 6 # # $ $ $ $ $ $ $ $ $ $ $ $ $ $ $ $ $ $ $ ",
"z g t t 9 t z n z t t y g z g t y g g t t g z b c n c z p w m ~ { { _ ^ ^ / ] X.{ H 6 # # $ $ $ $ $ $ $ $ $ $ $ $ $ $ $ $ $ $ $ ",
"n z g t t t z b g t t g g g g g g g g y i g z b n n n c p 0 7 v U Q Z f v I ] X.' H 6 # # $ $ $ $ $ $ $ $ $ $ $ $ $ $ $ $ $ $ $ ",
"n n z g t y z z g t s g g g g g g g g z z d g z c n n z z y 2 0 m N f % 1 G ' | _ H 6 # $ $ $ $ $ $ $ $ $ $ $ $ $ $ $ $ $ $ $ $ ",
"n n n z t t g x z g g g g g z b z g g z z g g z n n x x z z w 0 t 8 = + 1 H { ] ( G 6 # # $ $ $ $ $ $ $ $ $ $ $ $ $ $ $ $ $ $ $ ",
"n n n b g t g c n z g i g g z b z z z c z z z b n b z z z z u u 0 * . o 0 W  .[ / F 6 $ # $ $ $ $ $ $ $ $ $ $ $ $ $ $ $ $ $ $ $ ",
"n n n n g g v c b z i y z b n b n n n c c z n n n n c z z u u u e -     e ^ X.{ ( F 6 # # $ $ $ $ $ $ $ $ $ $ $ $ $ $ $ $ $ $ $ ",
"n n n n z b n n g i g g b n n n n b n n z n n n x x x u u u y y y 2 @ X 5 ! X.' ) F 6 # # $ $ $ $ $ $ $ $ $ $ $ $ $ $ $ $ $ $ $ ",
"n n n n n n n n g y g g z b n n n x n n n n n n x x z z u u w y y y 2 $ , J } } ' G 6 # # $ $ $ $ $ $ $ $ $ $ $ $ $ $ $ $ $ $ $ ",
"n n n n n n n n b g g g z z n n n n n n n n n z z z u u y y y y y u w 1 > V _ } ' G 6 # # $ $ $ $ $ $ $ $ $ $ $ $ $ $ $ $ $ $ $ ",
"n n n n n n n n b z g g z b n n n b n x n n n x z z u u y u y u z p y 0 > V ) } ' F 6 # $ $ $ $ $ $ $ $ $ $ $ $ $ $ $ $ $ $ $ $ ",
"n b n x n n n n v g i v z b b b n n n n n n n z z z u u y y u u u u u 4 5 F _ { _ S 2 # $ $ $ $ $ $ $ $ $ $ $ $ $ $ $ $ $ $ $ $ ",
"n n n n n n n n i t t g z b n c x n b n n n n x z z z u u y u u u y w 0 5 H | } _ S 6 # # $ $ $ $ $ $ $ $ $ $ $ $ $ $ $ $ $ $ $ ",
"n n n b n n n n y t q t z x n n b n n n n n n x z z u u y u i p y u y 0 5 Y X...' S 6 # # $ $ $ $ & $ $ $ $ $ $ $ $ $ $ $ $ & $ ",
"n x n n n n n n t q 9 t g c n n n n n n n n n z z z z u u p p p u u w 2 5 R ..} _ S 2 # # $ $ $ $ $ $ $ $ $ $ $ $ $ $ $ $ $ $ $ ",
"b n b n n n n n y t t g z z n n n n n n n b n n z c z z z z z i i p w ; 5 J ' ' ^ S 2 # $ $ $ $ $ $ $ $ $ $ $ $ $ $ $ $ $ & $ $ ",
"n n n n n n n x g y g z b b n b n n n b x n n n b b c c z z i t q q 3 * 5 J ' ' ^ S 2 # # $ $ $ $ $ $ $ $ $ $ $ $ $ $ $ $ $ $ $ ",
"x b n x n n n n z z z n n n n n n n n n n n c n c c c b z i i g f g 9 5 s J ' ' _ S 2 O $ $ $ $ $ $ $ $ $ $ $ $ $ $ $ $ $ $ $ $ ",
"n n n n n n n n n n n n n b n n b n c n b n n b c c c b u t l P P L A N C Q '  .' S 2 # # $ $ $ $ $ $ $ $ $ $ $ $ $ $ $ $ $ $ $ ",
"n n n n b n b n n n n n b n n n b n n n x n n n n n n b i i Z ] ) / Q Q ! ^ ' ..' S 2 O # $ $ $ $ $ $ $ $ $ $ $ $ $ $ $ $ $ $ $ ",
"n n n n z n b z b n n n n n x n n n x b n n x b n n n b i i P o.X.} ` } ' ' ' ..' G 2 # $ $ $ $ $ $ $ $ $ $ $ $ $ $ $ $ $ $ $ $ ",
"n b n z z b z b b z z b n n n n n n n n n b n n c c b v i i U O.+.X.X.+.+.{ '  .' G 2 O # $ $ $ $ $ $ $ $ $ $ $ $ $ $ $ $ $ $ $ ",
"n n n x b b z b b z n b x n n n n c n n x n n n c b b g i i Z [ X.X.| |  .{ {  .' G 2 O $ $ $ $ $ $ $ $ $ $ $ $ $ $ $ $ $ $ $ $ ",
"n n b z n z b b b z n n n n n n n n n n n b n n n n z z u 0 g L ) _ Q L H ! { X.] H 2 # # # $ $ $ $ $ $ $ $ $ $ $ $ $ $ $ $ $ $ ",
"n b b c z n n z z n b b n n n n b n n x n n n x z n n x p w 1 f J Y N t t H ' ..] G 2 # # $ $ $ $ $ $ $ $ $ $ $ $ $ $ $ $ $ $ $ ",
"b n z n z n c n z b z n n n n n n z b n x n n n z n z x x z 0 0 j l 8 + : G ` { ( S 2 # # $ $ $ $ $ $ $ $ $ $ $ $ $ $ $ $ $ $ $ ",
"b n z x n n z z n b b n n n n n n n n n n b n n n n z x x x z w s 7 * . : J { ' ( S 2 # # $ $ $ $ $ $ $ $ $ $ $ $ $ $ $ $ $ $ $ ",
"b n n n n n n n n n n n n n n n n n n n n n n n b z z z z n n x y 3 % o 0 W ..` ( S 6 # $ $ $ $ $ $ $ $ $ $ $ $ $ $ $ $ $ $ $ $ ",
"b b n n n n n n n n n n n n n n n n n n n n n n z z z z z n n n z y - @ e ! X.' / S 6 $ $ $ $ $ $ $ $ $ $ $ $ $ $ $ $ $ $ $ $ $ ",
"b c n n n n n n n n n n n n n n n n n n n n n z z z g g z z n n n n 0 & 6 R ..| _ H 6 # $ $ $ $ $ $ $ $ $ $ $ $ $ $ $ $ $ $ $ : ",
"b z z z b n n n n x n c n z n n n b n b n n n z z g g g z z z n n n y 1 , F { } { J 6 # $ $ $ $ $ $ $ $ $ $ $ $ $ $ $ $ $ $ $ $ ",
"n v g t y y g y g y g y t y y t t y t y t y g y y y y d p z z c n n z 1 , V _ } ' Y e # # $ $ $ $ $ $ $ $ $ $ $ $ $ $ $ $ $ $ $ ",
"n b g t t 9 t t t 9 t t t t t t t t t t t t t t t t y t y p z z n n p 0 , C _ { ' J 6 # # $ $ $ $ $ $ $ $ $ $ $ $ $ $ $ $ $ $ $ ",
"n c z g t 9 9 9 9 9 t g z g z g z g z g g t t 9 9 q t t y z p p z z y 4 5 G ' } ' J e O # $ $ $ $ $ $ $ $ $ $ $ $ $ $ $ $ $ $ $ ",
"n n n z g t t t t t z b n b b n b b c z z d t t t t y w y y u u i y w 2 5 I } X.' J e O # $ $ $ $ $ $ $ $ $ $ $ $ $ $ $ $ $ $ $ ",
"n n n n b g t t t z z n n n n n n n n n x z z g g g g g y y u y y w w 2 5 Y X.| ' Y r O # $ $ $ $ $ $ $ $ $ $ $ $ $ $ $ $ $ $ $ ",
"n n n n n z y t g b n n c b z n n n n n n z z z z z z z u u u y y y 0 : 5 J | | ' R e # # $ $ $ $ $ $ $ $ $ $ $ $ $ $ $ $ $ $ $ ",
"n n n n n b t t z n n n n b x n b n n n n n n x z p y y i y i t w w 7 - < J } ' _ R r # # $ $ $ $ $ $ $ $ $ $ $ $ $ $ $ $ $ $ $ ",
"n n n n n b g y g n n n n n b z b n n n n x x z p z u u i w q 9 0 0 < * 8 J ` } _ J r # $ $ $ $ $ $ $ $ $ $ $ $ $ $ $ $ $ $ $ $ ",
"n n n n n b z z z n n n n n n b n n c n n b b z z u u u y w t h f j f 8 h I ` } [ Y e O # $ $ $ $ $ $ $ $ $ $ $ $ $ $ $ $ $ $ $ ",
"n n n n n b z z z n n n n n n n n n b n n n z b z z z u y y M T T P A Z A T _ ..| R e O # $ $ $ $ $ $ $ $ $ $ $ $ $ $ & $ $ $ $ ",
"n n n n c z g g z b n n n n n n n b n n n n c c z z z p y y L { { _ ) / ^ / [ X...E r O # $ $ $ $ $ & $ $ $ $ $ $ $ $ $ $ $ $ $ ",
"n n n n n b g t g x n n n n b n n n n n n n n x z x x p u i U o.X.} { { { [ [ X...E e O # $ $ $ $ $ $ $ $ $ $ $ $ $ $ $ $ $ $ $ ",
"n b z n n z t t g z n n n n n n n z z n c n n b z c z z i i L X.X.....X.X.{ ] X...E e O # # $ $ $ $ $ $ $ $ $ $ $ $ $ $ $ $ $ $ ",
"n n n c b z g t g b n n n b n n n x n n n n n n c c x z q i B ) X.} ] ` ' ` ] X...R e O # # $ $ $ $ $ $ $ $ $ $ $ $ $ $ $ $ $ $ ",
"n b b c b b z g z z n n n n n n n n n n n n c n c z b p i q t S / ( T Z S R ] X.} R r O # $ $ $ $ $ $ $ $ $ $ $ $ $ $ $ $ $ $ $ ",
"n b b n c n c b b n x n n b n n n n n n n n n z c c z p i w 2 0 C A h ; 1 D ] X.{ I e O # $ $ $ $ $ $ $ $ $ $ $ $ $ $ $ $ $ $ $ ",
"b b b c n n n n n n n n n n n n n n n x n n c z z z z z u y 0 2 t a = X - H ' | _ J e # $ $ $ $ $ $ $ $ $ $ $ $ $ $ $ $ $ $ $ $ ",
"b b n n n n n n n n n n n n n n n c b n n n n n n z z z z u u w e < + X 6 R | ' ( J 6 # # $ $ $ $ $ $ $ $ $ $ $ $ $ $ $ $ $ $ $ ",
"n n n c n n n n n n n n n n n n b b b n b x x n z z z u u u u d y < + + s ! ..' ( H 6 # # $ $ $ $ $ $ $ $ $ $ $ $ $ $ $ $ $ $ $ ",
"n b n n n n n n n n n n n b n n b n n x n z z z z z z z z u z z g e & $ r ! .. ._ H 6 # $ $ $ $ $ $ $ $ $ $ $ $ $ $ $ $ $ $ $ $ ",
"x n n n n n n n n n n n n n n n n b n n n x x z u z u z z z z x z p 4 - s R  .X.' J e # # $ $ $ $ $ $ $ $ $ $ $ $ $ $ $ $ $ $ $ ",
"b n n n z b z b b n n n n b n b b b n n n x z z p u z u z z z n c v w 1 5 G ' X.} I 6 # # $ $ $ $ $ $ $ $ $ $ $ $ $ $ $ $ $ $ $ ",
"n n n x z g y g z n n n n n n b z n n n n z z z p u z z z z z x z z 0 1 , F ' ..' J 6 # # $ $ $ $ $ $ $ $ $ $ $ $ $ $ $ $ $ $ $ ",
"n n n x g t 9 t g b n n n b n b b n n n n n n z z u u z z z z z z y 0 ; 5 J ' ' _ H 6 # # $ $ $ $ $ $ $ $ $ $ $ $ $ $ $ $ $ $ $ ",
"n n n b y 9 7 t g b n n n n n n n n n n n z z z z z z z z z z z z y 0 1 0 R | { ( G 6 # # $ $ $ $ $ $ $ $ $ $ $ $ $ $ $ $ $ $ $ ",
"n n b g y 9 9 t z b n n n n n n b b b b n n n n z z p z z z z i u y 0 1 y E  .{ ( S 6 # # $ $ $ $ $ $ $ $ $ $ $ $ $ $ : $ $ $ $ ",
"n n z g t t y g z c n x n n b b n n b b b c z z z z z p z p i q w q 3 ; t I { } ( S 6 # # $ $ $ $ $ $ $ $ $ $ $ $ $ $ $ $ $ $ $ ",
"n b g t 9 t g b b c n n n n b b z b b b z n x z z i i i p i i k b v g 9 d I ` } _ H 6 # $ $ $ $ $ $ $ $ $ $ $ $ $ $ $ $ $ $ $ $ ",
"n b g 9 9 t z n n n n n c n z b b b b n z b b g g g y y y 0 k W / E I D A T ' X.' J 6 # $ $ $ $ $ $ $ $ $ $ $ $ $ $ $ $ $ $ $ $ ",
"z g y 9 t t z b n n n n n n n z z b b b b b z z y g d w q 3 M { | _ / ^ Q / _ .. .R e # $ $ $ $ $ $ $ $ $ $ $ $ $ $ $ $ $ $ $ $ ",
"g t t t t t n n n n n n n n z z z b z b b z z z g g y w q ; M } X.` ` ` _ _ ' |  .R r # $ $ $ $ $ $ $ $ $ $ $ $ $ $ $ $ $ $ $ $ ",
"t t t 9 t t b n n n n n n b b z z z z b z b z z g g y w t ; M } O.{ { { ' ' ' | { R r # $ $ $ $ $ $ $ $ $ $ $ $ $ $ $ $ $ $ $ $ "
};
