/* XPM */
static char *result[] = {
/* columns rows colors chars-per-pixel */
"50 50 75 1 ",
"  c #272E3D",
". c #282F3E",
"X c #2A303F",
"o c #2C3341",
"O c #303745",
"+ c #323847",
"@ c #343B4A",
"# c #383E4E",
"$ c #363F52",
"% c #374053",
"& c #3A4254",
"* c #3B4559",
"= c #3F4A5E",
"- c #3F4B60",
"; c #414857",
": c #424B5C",
"> c #484E5F",
", c #434F65",
"< c #445066",
"1 c #4D5464",
"2 c #46536A",
"3 c #4A566D",
"4 c #4B586F",
"5 c #4A5770",
"6 c #4E5A73",
"7 c #515D76",
"8 c #515F79",
"9 c #556076",
"0 c #596377",
"q c #54627C",
"w c #59657C",
"e c #5E697F",
"r c #576580",
"t c #596784",
"y c #5C6984",
"u c #5C6B89",
"i c #626E85",
"p c #616F8A",
"a c #657087",
"s c #6A7285",
"d c #64728C",
"f c #69758D",
"g c #6D788E",
"h c #657492",
"j c #687793",
"k c #6B7994",
"l c #6E7E9E",
"z c #717D94",
"x c #717F9A",
"c c #768196",
"v c #7B8395",
"b c #74819C",
"n c #79869E",
"m c #7483A2",
"M c #7986A2",
"N c #7B89A5",
"B c #7E8CA8",
"V c #818DA5",
"C c #818EA9",
"Z c #8590A6",
"A c #8C95A7",
"S c #8593AD",
"D c #8895AF",
"F c #8D98AD",
"G c #919BAE",
"H c #8A97B1",
"J c #8E9AB3",
"K c #939FB6",
"L c #95A0B6",
"P c #95A2B9",
"I c #9AA6BC",
"U c #9DA8BE",
"Y c #9FAAC0",
"T c #A2ACC1",
"R c #A6B0C4",
/* pixels */
"ooooooooOoooooo.ooooX@XXXXXXXX+X.XXXXOOXXXXOXXX...",
"oXoooooooo.o.oo...ooX+XX@XXXXXXXXXXXXXXXXOXXXXX...",
"XoooooooX....o.. .oOXXXXXXX@XOXXX.XXOOXOXXXXOXX...",
"oooooooooOo...o..ooo+XXXX@XX+XOXXXXXXXXXOXXXXoXX..",
"oooooXoOoX.. o  .oXOXXXXXXXXXXOXXOXOX...XX.XXOOOX.",
"ooooO@@+Oo..ooooO+@@@#;;1#XXX++XO;1>;#@@;#;;;>>;>;",
"ooo+akkky3238snDGKKKITRRRG;X;XO@1GRRRTUKGGAVzggggg",
"oOofmlmbmlxNHIRRTRRRRRRRRRRAs10VGRRRRRTTRTTUTTUUIK",
"oo&mmllmlmlNDYYYYYYYYYYYTTYVs2wvKYUYIYYUYYYYYYYYII",
"oo8xlllllllNDYYYPKJKJKKKKGKni2wzHKKKKKKKJKJKJJJPKI",
"$@exmllmlllNDYYPJHHHDHHHGDHxi2qkCHHHHHHHHHJJJJJJKK",
"==elllllmllNDYYYJDDDDDDDFDFxe29gCDHDHHHHHHHHHHHHHJ",
"&=whlllllllBHYYPJDDDDDDDDDDcy29gCDDDSHHSHDDDSSSSCH",
",,7plllmlllBBYYYJHDDDDDDDDDbe29kBHDDHHSHDDDSBBBBBB",
",,6ullllmlmmHYYPJDDDDDDDDDDcy29kBHHSSHSHHSSBBNMNMM",
",,7ulllllllBHYYYJDDDDDDDDDDce29gBHSHHSHSHHSSBNmmml",
"--8ullmlllmNDUTPJHDDDDDDDDDcy29kCDDDDSSSSSSCBMmmll",
"--6uhllllmlNFITIJHDDDDDDDDDba6ekCSCSSSCCVxMNBNNMll",
"5-8umlmbmlbmHUTPJDDDDDDDDDDnfqydxxlllxxxhsfkxxxxll",
"5-8uhmmmllmMHUTIJDDDDDDFDDDbp6698r8r77877677ww8rrr",
"--qujjjjhjjmBFLDBBNNZNNNZNNke2<<,,,,2-**,,<<<<<2-5",
"-55qtuutuutugccckjdaaaaaaagy72<==,,22,**,,<<,,$:--",
"---66668566699w99944313314432<<=*-------,,$*$*$,--",
"55--5-3-3323344442<>:====&%%%*===*$$$$$$##$$$$$$%*",
"-336qqqqrr8ruffdaypaaappe62232<<--r-55525-r--522-5",
"--6tphhhhhhjnZAZnbnMNNNNbfytyq4<-rtttttuutruuutuuu",
"33quhbmblllNHIYPJDDDDDDDBMlllp7<rthlllllllllllllll",
"--8ummbmllmNHURPJDDDDDHHNmllluq<rulllhlhlhhlhllhlh",
"--8uhhmmlllNDURIKDDDDDDBNlhllp8<5ullhhuhhuhhuhuhhh",
"--8ummhmlmmmHUUPJDDDDDDDMjhllp8<rulhhuuuuuuuuuuuuu",
"-58uhmmmllmMHUTPJDDDDDDDmkhhju6<8uhhhuutuuuuutuutu",
"--5ummhmlmlNHUTIJDDDDDDDNkupht6<5thhuututtutuuutut",
"55ruhmmhmmmmSYYPPBBPBPJBBcrtur6-8ruuuuuutuuuuuuuuu",
"--8uhmmmhmmmHPYPPBPBBBBPNc8888---888rtr888rtr88888",
"--8ummhmmhmmHYYYBPPBPBJBbu22---*---5------5855-522",
"--8uhmmmmmmmHYYPPPBBBPBJc8***%%%%**-*--*-------***",
"5-8ummhmmmmmHPYYPBBPJBBJc6---------*--*-----------",
"5-8ubbmmmmmmHYYPUBPBBJJBbu858686888888888rr-558888",
"--ruhmmmmmmmHYYYPBBBPBBBNbcubuhuhhhhhhhuuur--ruhhh",
"-58ruhhhuuhmmHHBBBBBBBBmNmbbbhmmmhmhbhmmmhtr-rhlll",
"<<28rtrurrruubccceccbbmmmmhhumumhhhhhhhlmht5-thmlh",
"<-<222255525565-66<58bbbuhuuuuuuuhuuuuhllht56thllh",
"-2-555-5555544864688rubbuutuuuutuuuuuuuhlht8-rhlhu",
"-<58ruuurttuccccwccbbbbruuuuuuuuuuuuuuuuhur-58uhuu",
"<-8tuhhububbmBPBBBBBmmhuuuuuutuuuuuuuuuuutr8-8tuuu",
"<<8ummmmbbbNBIRUYBBBBmhuuttttuttuttttttttr8-58ruuu",
",,8uummmmbmNBUTIPBBBBmu8888888888888tr5rr-8--68r88",
",-8ummhhmbbNKUTPIBPBBmt5555555555555-r-r-r8--6--55",
",,8ummhmhmmmHYYYJHSHBm8,<,,,,<,,--2-22-2-2-2-2-2-2",
",,2bbmhmmmhmHPYPJHHHBm8,<<<,<-<<-2-2-22-2-2-2-2-2-"
};
