/* XPM */
static char *wall_d1678373546[] = {
/* columns rows colors chars-per-pixel */
"64 64 132 2 ",
"   c #070B0A",
".  c #09110F",
"X  c #0D0E11",
"o  c #120F10",
"O  c #0C1513",
"+  c #0E1916",
"@  c #0E1718",
"#  c #0F1A19",
"$  c #131514",
"%  c #121B16",
"&  c #1D1917",
"*  c #111718",
"=  c #121D1B",
"-  c #1B1D1B",
";  c #201B1A",
":  c #15221D",
">  c #1C221E",
",  c #24201F",
"<  c #141F20",
"1  c #1A1E21",
"2  c #172221",
"3  c #1A2424",
"4  c #1C2925",
"5  c #1D2629",
"6  c #1E2A2B",
"7  c #232323",
"8  c #2A2526",
"9  c #232B27",
"0  c #292826",
"q  c #24262A",
"w  c #292728",
"e  c #222B2D",
"r  c #2B2B2C",
"t  c #302F2D",
"y  c #24302D",
"u  c #2F302E",
"i  c #31302D",
"p  c #242D31",
"a  c #2C2E32",
"s  c #302E31",
"d  c #263233",
"f  c #2B3336",
"g  c #2A3836",
"h  c #273338",
"j  c #2C343A",
"k  c #2E393C",
"l  c #333434",
"z  c #383533",
"x  c #363837",
"c  c #383835",
"v  c #33363C",
"b  c #39373C",
"n  c #343A3A",
"m  c #3A3D3D",
"M  c #403F3F",
"N  c #31403F",
"B  c #3F403F",
"V  c #40403F",
"C  c #313740",
"Z  c #343B43",
"A  c #3A3D44",
"S  c #363F48",
"D  c #393E49",
"F  c #413F45",
"G  c #364245",
"H  c #3D4141",
"J  c #364149",
"K  c #3B424C",
"L  c #3D494A",
"P  c #3E4651",
"I  c #3E4953",
"U  c #444545",
"Y  c #484747",
"T  c #474847",
"R  c #42444C",
"E  c #474849",
"W  c #484848",
"Q  c #414752",
"!  c #434A55",
"~  c #484B56",
"^  c #454D5A",
"/  c #4A4F5B",
"(  c #46515C",
")  c #4A525E",
"_  c #53545F",
"`  c #475260",
"'  c #4B5563",
"]  c #4D5865",
"[  c #4F5969",
"{  c #515664",
"}  c #525A66",
"|  c #515669",
" . c #535C6B",
".. c #595F6E",
"X. c #555F70",
"o. c #5A5E70",
"O. c #56616D",
"+. c #576071",
"@. c #5A6374",
"#. c #5E667A",
"$. c #5F687C",
"%. c #606478",
"&. c #626A7E",
"*. c #686B7E",
"=. c #656D83",
"-. c #686F84",
";. c #677085",
":. c #697086",
">. c #6C748C",
",. c #6E788E",
"<. c #70768D",
"1. c #71798F",
"2. c #6F7790",
"3. c #6F7891",
"4. c #707790",
"5. c #727A93",
"6. c #767E9A",
"7. c #787F99",
"8. c #7A8097",
"9. c #77819D",
"0. c #7B839C",
"q. c #7D85A1",
"w. c #8087A2",
"e. c #828AA5",
"r. c #838CAA",
"t. c #8A91AD",
"y. c #848FB1",
"u. c #8791B2",
"i. c #8C95B2",
"p. c #8B96B8",
"a. c #929DBE",
"s. c #9DA6C7",
/* pixels */
"f g g n k n n m m m H U U H H H U U U U m n n n n n g l g n g g f n n H E W W W E E T E E T T E W T E T W W W W W W W W W W W W ",
"m m m m m m H U H H H U U U U U T T U H H m m N n n n k n n m m m m B U W W E U H m m H H U E E U H A H H H H H H H B H H U U U ",
"T E U U T T E W E E T T T T E E T W W Y U U U E U H m n n H U T U U U E W W T H n n g n n H E U n n l n n n n n n k n n n l n k ",
"W W W E W W W W E W E W W W E E W W W W E W W W E H m n n H T W E W W W W W E H m n m m m U W U g l N n f g n H B m n n g d g g ",
"W W W W W W W W W W W W Y W Y W W E Y W W W W W T H m k n B T E W W W W W W W W W T T T U T U H n n H H n n H H W W W T m f f f ",
"W W W W W W W W W Y W W W W W W W W W W W W W W U H n n n B U W W W W W W W W W W W W W Y U G n B H H H H H B H W W W W T m n g ",
"W W W E W W W W W W W W W W W W W W W W W W W E U H G B H U U Y W W W W W W W W W W W W Y H m B U U m m U H m N U W W W W T B n ",
"W W W W W W W W Y W Y E W W W Y W W W W W W W Y U U U H H E E E W W W W W W W W W W W Y T U H U E T H N m m m H T W W W W Y T U ",
"W W W W E W T W W W W W W W Y W W W Y W W Y E W E E U H H T E T W W W W W E Y W W E W Y W T T W W W T H m B U Y W W W W W W W E ",
"W Y E W Y W W W W W Y W E W W W W W W E W W W Y E U H H H T T W W W W W W W W W Y W W W W W W W W W W T H H T W W W W W W W U H ",
"W Y T W W W W W W W W W W W W E E W W W W Y W W E T H H U T T W W W W E T W W W W W W W W W W W W W W Y T E Y W W W W W Y T m k ",
"E W W W W W W W W Y W E W W W Y W W W E W E W W T T U U U T W W Y W W Y W W W W W Y E W Y E W Y W W W E E E W W W W W W Y T n g ",
"W W W W W Y W Y W W Y E T Y W W W W W W W W W W T W W W W W W W W W W Y W W E Y W Y W W Y W W W W W W W W Y W W W W W W W T A n ",
"Y W E W W W W E Y W W W W W W E E W W W W W W W W W W W W T W Y W E W W Y E W W W W W Y W W W Y W W W W W W W W W W W W W Y T U ",
"W Y Y W E Y W W W W W W E W W Y W W W W W W W W W W W U U T W W Y W W Y W W W W E W W E E W W E W W W W W W W W W Y W W W W Y W ",
"W W W W W W W Y W E W Y W W W W W W W W W W W W W W H m B Y W ~ W W W E W W W T Y W W W Y W W W W W W W W Y W W W W W W W W W W ",
"E Y W W E W W W T W E T Y Y Y Y Y Y Y Y Y Y Y W E H n f n T W W E W W W W W Y W W W W W W W Y Y W E Y W Y W W W W W Y W W W W W ",
"W W W Y Y W E W E T T U T T Y Y T T T Y T Y W W H m k g n U W W Y W W Y W W W W W Y W W W Y Y Y W W W W Y Y W Y W W Y Y W W W W ",
"W E Y W Y E Y W T U H H U U U U U U U U U T W W U m n g n U W W W W W W W Y Y Y W E W W W W Y Y T T T T Y Y U T Y Y Y Y W W W W ",
"W W W W W W T T H H H m n m F V x m M U U T Y Y E H m n m U W W Y W W W W W Y Y W Y Y Y Y Y Y U U T U T U U U U T T E T E E W W ",
"Y E W Y W W T U m m B B m n m m x n m M U U U Y U H B H U Y W Y W Y T T Y Y Y Y W T T T U U U U U U U M U U U U U U U U T T U U ",
"U T Y Y W Y T H m m m m n n l l x x m U U F U U U B m H U Y Y F U U U U U U U U T T U U U U M m m M U F U M U M U V V U H m n n ",
"x x U Y T U M U B n l n n i w 0 r i x U m U M M U m m U U M b z z z c V M U U U U U U F b c t s t l c M M M M U V V U A x l w r ",
"v x x m m m x n n n n l l r a A A l r l b x c m V V A m c l z F F v t c M U M U V U U x r 8 b A b 8 t c m M M U U U U U x w s U ",
"@.D r n m n l l x n x n w s | 7.<.~ r w f l f l n V U m s a ~ 7.7.| v 8 b V V U U F m z 3 b o.6.-.D q i m A U T U U Y U r x %.t.",
"4./ r x m x n n n x m c 8 v =.p.r.| a w l x x x m V V M t r | y.u.-.C 8 z M x x n v x r 7 R 2.y.6./ w r c m x H m m U V t A :.a.",
"4.| l t l x l l x c l 0 r ~ =.q.6.o.A r t l l s l l z i 8 v X.6.7.;.~ r 0 w 0 w r q 7 7 r _ :.6.6. .x w 0 r q w r r r r t ~ -.q.",
">.%.~ l l b b v x b s r A X.>.2.2.-.) l a x b b l x l a v ^ =.2.2.:. .C 7 q a f a p 5 q R @.>.2.2.=.^ r 7 r a p r a p w A o.>.2.",
"4.>.@.^ ^ | | ) / ' / ^ | =.2.>.2.2.#./ ! / ' ) ^ ' | / ' %.:.:.;.;.%.' P ^  .| | | ^ D | =.2.2.2.>.o.! ! | | | |  .' ^ { =.>.>.",
"4.4.:.%.=.>.>.;.-.:.;.=.=.>.2.>.>.>.;.#.%.=.-.:.-.>.:.=.=.>.2.:.>.=.=.#.$.=.>.>.:.2.=.=.=.:.2.2.2.>.=.#.=.>.2.2.>.2.2.=.=.-.>.>.",
"2.>.>.>.3.3.3.2.4.5.5.4.>.2.2.>.:.:.:.:.:.>.2.4.5.3.3.2.2.>.2.>.:.=.=.=.2.3.3.3.3.3.3.2.:.2.2.3.2.2.:.2.2.2.2.2.2.3.5.3.>.>.>.4.",
">.2.2.2.2.>.2.>.>.4.4.4.2.>.=.=.:.2.5.2.2.>.>.2.2.5.5.2.2.2.>.2.2.>.>.2.2.5.3.2.2.3.3.3.6.6.5.:.=.:.2.2.2.>.2.2.>.2.>.>.2.3.5.5.",
">.:.:.>.>.>.>.:.:.:.>.:.>.&. .@.:.0.0.4.3.,.,.3.3.4.5.4.5.4.5.5.2.3.5.4.5.3.5.3.3.,.3.5.0.q.6.#.O.&.>.>.>.>.>.<.>.>.>.>.>.2.4.5.",
":.:.:.:.:.>.:.=.=.*.*.-.-...'  .<.0.8.1.,.4.4.5.4.>.=.*.>.4.<.:.>.2.4.:.=.=.3.6.6.5.3.4.0.r.0.&. .#.>.>.>.>.>.>.>.>.:.>.>.<.5.5.",
":.:.=.:.:.>.;.>.:.-.:.-.-...{ ..>.8.8.7.6.5.8.0.4.@.) } -.4.>.-.=.>.6.-.~ ' >.q.0.0.0.0.0.e.0.=.X.$.>.>.>.>.>.>.>.>.>.>.>.>.3.6.",
"4.>.:.>.;.>.>.>.>.>.:.:.<.@./ ' @.>.1.1.1.1.6.9.:.{ F { 5.0.1.-.>.0.i.1.b n #.0.0.8.4.5.6.6.:.} ' @.:.>.:.>.>.>.>.>.:.>.>.>.3.6.",
"6.4.>.>.>.>.>.,.>.>.>.5.5.&./ P ) O.+.+.+.@.#.=.O.K v { w.t.w.5.w.i.s.0.b w ) =.#.@.+.@.@.+.] P ~ @.>.>.>.>.>.>.>.:.>.>.>.>.5.e.",
"0.6.>.6.8.8.6.3.4.4.6.q.w.>.' K ~ ] [ ' / ` ` ' ! j r R <.w.0.5.0.e.t.*.q 1 D ' ' ^ ( ` ] [ ( K ^ =.7.9.9.4.4.1.4.6.8.8.>.2.q.i.",
"q.0.4.0.q.e.0.5.>.1.0.r.i.<.' K I ( ' ( P D K S j 1 o q / %.@.X.@.@...F $ @ p J J K I ! ( ] ^ G ~ -.w.e.0.5.>.>.8.q.e.0.4.1.q.p.",
",.:.&.>.,.1.>.&.@.%.:.6.0.%.Q g k G Z f p p p 5 = X X 1 C L P P K R K a X   = 4 p d j j k Z k g S @.4.4.>.&.@.$.;.1.5.>.=.&.>.6.",
" .[ ] [ [ [ [ ] ' ] ]  .@.` k 4 : : : = 2 3 4 : + . # e J Q P K K Q Q C = . O : : 3 5 2 2 2 : : h !  . .[ ] ' ' ] [ [ [ [ [ [ X.",
"] ] ' ` ` ' ' ' ' ' ' [ ] I p : : 4 6 6 p h d 4 : = : e Z K K K K K K j 2 # # : 4 p d p p 4 : # 4 J ` ' ' ] ] ' ' ' ' ' ' ' ] ` ",
"^ ~ ! ~ ~ ~ I ^ ~ ~ E ~ I Z q = 6 Z K I L P J k y : : : q d j j j j p 3 : : 4 g J I P P P S p = 2 f R ^ ! ! Q ! ! ~ ! ^ ~ ~ I P ",
"r a f a a a a a f u f i a 3 = 3 d J P ! ! ! P J g 4 : # : 5 5 5 5 5 2 = = 2 d J ` ' ^ P ! P j 5 = 3 w a a f u u a a w w w a a a ",
"O $ - - o $ 1 7 : > : % % $ # 3 p j Z Z S Z D j y 4 : # # # # = = = = % # : 6 k J K D Z C Z Z p - $ % % : > > > - & o . % - 7 3 ",
"% : : %   X 1 3 # + % O O O @ = 3 5 p j j j p 6 : : : + # + + + # # = : = = # : 5 p j p q p C p 3 @ O O + # % : < - $ O = : 2 3 ",
"K G d : @ O = = : : : : : = # # @ = 5 5 5 3 2 = # : 4 > : = # # # : : : : : + + = 2 5 5 2 5 p 5 : : = : 3 2 : @ < q p y 6 : 4 2 ",
"O.) K d 5 * X @ 6 G L N g d p 6 e p d p < + @ < 6 N G k g d d p 6 5 4 3 3 6 y y p e p p p 5 < # 2 y g k G G d @ @ q H L g 4 4 4 ",
") ! K Z 0 & O 3 S  .@.' ! P P I ^ P P S p < O 5 J O.@.] ! P P I J d 4 4 d J ^ ` I K K I ^ J 6 # 3 Z I ( O.@.^ 6 + 1 x A a 2 2 4 ",
"f f h p 7 & = p L {  ./ Q L Q ( ' / ^ I P d 2 e P ] } ( ^ Q ! ^ P k y y G '  . .` P ! | #.[ Z 3 5 Z I ( {  .( f 2 % q a q = # 5 ",
"2 1 : % $ $ 2 p j Z Z D D D D P Q P S K P j 5 6 j Z A A D D D K Z j 6 y G I ^ ! P S K (  .| K e 5 j H K D Z Z h q - - > 4 : = : ",
"5 3 3 1 * $ # < 3 3 q j C Z Z C j j j j p 5 # # < 3 e j C Z Z j p 3 : 2 4 e j j j j j S J S d 5 2 p j j a e 5 5 2 - - 7 e 9 5 4 ",
"h S G K n 5 O X # 2 5 e p a a 6 5 5 5 3 2 @ # # < 1 5 6 p p p 5 1 = # # # 2 5 5 5 5 6 6 e 6 3 = % 2 4 p e 5 3 : % $ 2 n L L n g ",
"P ( O. .) Z 3 2 h Z k e 2 < < < = @ = 2 5 e 6 p d Z k y 3 = < e j k h e 6 e 5 < % % < 5 6 d f 6 = @ # 4 k Z k y 1 = r Q } } ( P ",
"I ^ | { R A Z S ( ] ] G 5 = 2 5 2 # # 2 Z J P K ( } ) G 3 O 2 G  .O.( P K J Z 4 # @ 5 p Z ! ' L e + # h ( } ' P C a a R ) ' ^ ~ ",
"j Z J v 8 s R ' ] } | I h 6 h Z j 3 < p J ^ ^ ^ (  .} P p 2 h ( #.#.] ! ^ ^ P j 5 < e Z Q ' | ^ k 5 p K ' } } ' P Z t r v S S S ",
"e a g r , w A ! L K D Z p p j S Z 5 2 p Z D D D K K S Z p 5 g K ! L D D D D D C e 2 6 j A D J S j 6 p S S D P P D l q , q p h p ",
"5 5 q 5 , 8 h C v j p 5 2 = 2 q 6 2 # 3 e j j j j a p 5 = = : : 5 p p p p p p q 2 = = 3 6 q e p 5 2 5 5 5 5 p h p q 7 1 1 5 5 1 ",
"k 6 : 4 > - 1 5 p p 3 = : # # 2 2 # # = 3 5 5 e p q 5 = # = : : 2 2 2 < : 3 2 2 = # # # < 3 5 3 2 : = < < 5 6 5 1 7 q 7 < # < 5 ",
"( S q : 4 - @ % < 2 2 5 y k N k k d e 4 3 2 = < 2 2 2 4 g k N k h p 2 % : > e g h 6 5 e p 6 5 : : 2 4 p p h p e 5 p a p < < e h ",
"' I k 4 > > - = = = 5 g I ] O.} ] Q K S k e 2 : # : 4 Z ~ ] } ) P S p 2 : y N L ^ K S S K Z e 5 > y N J K D S S Z C l d 5 5 h G ",
"D J f 5 - w d e : : d D ( } } O.' / ! P K n d 5 : 2 d J '  . .) ! P S p 4 y G ) / ^ P ^ ^ P j 5 4 y G I ! P I ^ Q A a 7 5 4 h C ",
"j j h 2 & w f e : 4 j D K D H L K D D D D Z f 4 : 5 j D D D P D D J D j 4 e n L P D S S K K C 5 2 5 g Z D D D D Z s q , 5 e p p ",
"f f d 7 ; q d 4 : 5 j C j a j j j C v j v j p : = 4 j Z j a j v C C C j 4 6 j Z C j j j C Z j 5 1 5 p a v C Z j p q , 7 9 p d p "
};
