/* XPM */
static char *wall_l1678373547[] = {
/* columns rows colors chars-per-pixel */
"64 64 96 2 ",
"   c #0F140F",
".  c #0F1B15",
"X  c #141512",
"o  c #131A13",
"O  c #1F1916",
"+  c #161E19",
"@  c #1B1D1B",
"#  c #201A17",
"$  c #221C1A",
"%  c #1A221D",
"&  c #1A2723",
"*  c #1E2D2A",
"=  c #232523",
"-  c #242925",
";  c #282927",
":  c #26262B",
">  c #28272B",
",  c #262C2C",
"<  c #2B2C2C",
"1  c #302E2F",
"2  c #2C312D",
"3  c #32322F",
"4  c #2D2E33",
"5  c #312E31",
"6  c #2D3435",
"7  c #2E383A",
"8  c #333334",
"9  c #383737",
"0  c #353936",
"q  c #393936",
"w  c #36353B",
"e  c #38363B",
"r  c #343A3A",
"t  c #3C3D3D",
"y  c #403F3F",
"u  c #3D403F",
"i  c #40413F",
"p  c #353E42",
"a  c #344145",
"s  c #3D4141",
"d  c #3B454A",
"f  c #3F4A4E",
"g  c #3E4B56",
"h  c #454545",
"j  c #484747",
"k  c #484847",
"l  c #43474B",
"z  c #474848",
"x  c #484848",
"c  c #404752",
"v  c #474E5D",
"b  c #494E5F",
"n  c #45515D",
"m  c #48535B",
"M  c #4A4F60",
"N  c #4D5563",
"B  c #4E5964",
"V  c #4D5A69",
"C  c #535665",
"Z  c #535A66",
"A  c #525769",
"S  c #555A6A",
"D  c #595D6D",
"F  c #5A5F71",
"G  c #56616D",
"H  c #576271",
"J  c #5C6273",
"K  c #5B6877",
"L  c #5F6578",
"P  c #5E687B",
"I  c #616475",
"U  c #616679",
"Y  c #646A7C",
"T  c #6A6D7F",
"R  c #646E82",
"E  c #6B6E81",
"W  c #677186",
"Q  c #6C7386",
"!  c #6B748C",
"~  c #6E798F",
"^  c #6E7790",
"/  c #6F7892",
"(  c #737C95",
")  c #767E99",
"_  c #787F9A",
"`  c #798097",
"'  c #77809A",
"]  c #7A829D",
"[  c #7D86A1",
"{  c #7F89A4",
"}  c #8087A4",
"|  c #818AA6",
" . c #848DAA",
".. c #8690AC",
"X. c #8891AF",
"o. c #8B93B1",
/* pixels */
"$ $ $ $ $ $ $ $ $ $ $ $ $ $ $ $ $ $ $ # # 5 F ] | _ ] ..| | ] .. .J u u h x h h t r r r r r r r 7 r r h z x x x x h r r 7 r r r ",
"$ $ $ $ $ $ $ $ $ $ $ $ $ $ $ $ $ $ $ # # 5 F [ | _ _  .| | | o.{ Z u u h x h h s s r r r a t r r r s s s h z z x s r r 7 0 r s ",
"$ $ $ $ $ $ $ $ $ $ $ $ $ $ $ $ $ $ $ # # 5 F [ | _ ! Q Q ( [ ] T f 0 u h x z z h h s r t s s r r s s s t r u h x s r r r r s h ",
"$ $ $ $ $ $ $ $ $ $ $ $ $ $ $ $ $ $ $ # # 5 D _ | _ F h d V R J f 6 0 h k x x x z h s s u s s s s s h s r 7 r s z h r r r h z x ",
"$ $ $ $ $ $ $ $ $ $ $ $ $ $ $ $ $ $ $ # # 5 S _ } _ C < = a n c 8 1 q h h x x x h s s s s s s s s s s s s r r s z s u r s h x x ",
"$ $ $ $ $ $ $ $ $ $ $ $ $ $ $ $ $ $ $ # # 5 S / _ _ D < + * 7 e 8 q h h k k x x h s s h h s s h h h s s s s s h z s r r h z x x ",
"$ $ $ $ $ $ $ $ $ $ $ $ $ $ $ $ $ $ $ # # 5 S ! _ } Y 8 o . & 8 y y h h h x x x h h h z h h h z z h h u s s h x x s r u z x x x ",
"$ $ $ $ $ $ $ $ $ $ $ $ $ $ $ $ $ $ $ $ # 5 S ^ [  .E 8     = q i y h h h h x k x x x x x x x h z x z s s s s z z h s s h x x x ",
"$ $ $ $ $ $ $ $ $ $ $ $ $ $ $ $ $ $ $ # # 5 S / [  .Y 4 X = 8 t t t y y h j j j j x x x x x x x x x x l h s p h j j h h x x x x ",
"$ $ $ $ $ $ $ $ $ $ $ $ $ $ $ $ $ $ $ $ # 5 S _ [ [ D ; $ 1 q t q t t y y h h j j x j x z j x x x x h j s u u s z z x x x x x x ",
"$ $ $ $ $ $ $ $ $ $ $ $ $ $ $ $ $ $ $ # # 5 S _ { ( b : < q y q y q t y y h h h j j x x x x x z x x j s t s s h z x x x z x x x ",
"$ $ $ $ $ $ $ $ $ $ $ $ $ $ $ $ $ $ $ # O 5 S _ [ / v > 8 y h i y y y q y y h h j j x x x x x j x x j s s s h h z x x x x x j x ",
"$ $ $ $ $ $ $ $ $ $ $ $ $ $ $ $ $ $ $ $ # 5 A / _ ) N 4 8 t y i y t y y q h h h j z x x x j x x x x x k s s s h x x x x x x x x ",
"$ $ $ $ $ $ $ $ $ $ $ $ $ $ $ $ $ $ $ # # 5 S ) { [ F 4 8 y y y y y y y y h h h h z x x x z x x x x x h h r r s x x j x x j x z ",
"$ $ $ $ $ $ $ $ $ = $ $ $ $ $ $ $ $ # # # 1 S _  . .F 4 8 q t t y y t p y h h h z x x z x x x x x x k h r 7 r s x x x x j x x k ",
"$ $ $ $ $ $ $ $ $ $ $ $ $ $ $ $ $ $ $ # # 1 A ( [ X.F 4 1 y i i h t y y y y h h x x x j x x j z x x h s r 7 0 s x x x x z x x x ",
"$ $ $ $ $ $ $ $ $ $ $ $ $ $ $ $ $ $ $ $ # 1 C ^ ] { F 4 ; q u u i i h h h h h j x x z x x x x x x x k h s r r s z x x x x x z x ",
"$ $ $ $ $ $ $ $ $ $ $ $ $ $ $ $ $ $ $ $ # 1 C ^ ) _ S , = 2 0 0 q t h h j x x h x j x x x z j x x x x x h s t s z x x x x x x x ",
"$ $ $ $ $ $ $ $ $ $ $ $ $ $ $ $ $ $ $ $ # 1 C ( ] ) H r 6 r a d d u u h h x x x x x x x x x x x x x x x x h h h z x x x x x x x ",
"$ $ $ $ $ $ $ $ $ $ $ $ $ $ $ $ $ $ $ $ # 1 C ( [ ) P N n B G H G f r h j x x x j z j x x z x z x x x x x x h x x x z x x z x k ",
"$ $ $ $ $ $ $ $ $ $ $ $ $ $ = $ $ $ $ # # < C ` | ) Q R R W ! ( ' V u u j x x x x x x z x x x j x x x j x x x x x x z x x x x x ",
"$ $ $ $ $ $ $ $ $ $ $ $ $ $ $ $ $ $ $ # # 1 D ] | _ ( ] [ ' [  .{ G u u h x x x x x x k x x x x x z x x x x x x h z h j h x x x ",
"$ $ $ $ $ $ $ $ $ $ $ $ $ $ $ $ $ $ $ # # 1 C ] } ' [ o.X.{  .o...G u u j x x x x h x x x x x x x x k x z j h h z h z z h z x x ",
"$ $ $ $ $ $ $ $ $ $ $ $ $ $ $ $ $ $ # # # 1 D ] | ' ' { | {  ...' m u u h x x x x x x x x x x h x x x z z h z z h x h j x x x x ",
"$ $ $ $ $ $ $ $ $ $ $ $ $ $ $ $ $ $ $ # O 5 C ] } ] E D H W ( / G a 0 i h j k k z x x x x z x x x x z x x x z z z h x z j x x x ",
"$ $ $ $ $ $ $ $ $ $ $ $ $ $ $ $ $ $ $ $ O 5 S _ } _ S e r M P S a 2 q h h j h j x x x x x j x x x x x x z h j h z x h j h x z x ",
"$ $ $ $ $ $ $ $ $ $ $ $ $ $ $ $ $ $ $ # # 5 C ( ] _ C = % 7 g d 8 q h h j h k k x x x x x x z x z x x x z h j j h h x x h x z x ",
"$ $ $ $ $ $ $ $ $ $ $ $ $ $ $ $ $ $ $ $ # 5 C ^ _ ] D > o & 6 e q i h k j k k h x x x x x x k x x x x x x x x x x k x h x h z x ",
"$ $ $ $ $ $ $ $ $ $ $ $ $ $ $ $ $ $ $ $ # 5 C ^ _  .T 5 + % 2 t h x x h h h h h x x x x x x x x k x x x x x x x x x x x x x z z ",
"$ $ $ $ $ $ $ $ $ $ $ $ $ $ $ $ $ $ $ # # 5 C ^ _  .E 5 @ ; t j x x z h h h h h h x x x x x x x x x x x x x x x x x x x x x x h ",
"$ = $ $ $ $ $ $ $ $ $ $ $ $ $ $ $ $ $ # # 5 D ( } | U 4 = 9 j x x x h h h s h h x x x x x x x x x x x x x x x x x x x x x x x h ",
"$ $ $ $ $ $ $ $ $ $ $ $ $ $ $ $ $ $ $ # # 5 I ] | _ C > ; t x x x x h h s s s s z x x x x x h z x x h x x h x k x x x z h h z x ",
"$ $ $ $ $ $ $ $ $ $ $ $ $ $ $ $ $ $ $ # # 8 F [ { / M : 1 h x x j h h t t p t u t s t r s r s r u r s r t s t s u s t t p s h x ",
"$ $ $ $ $ $ $ $ $ $ $ $ $ $ $ $ $ $ $ # # w F _ ] ( M , 1 h x h h h h y t r r r 7 r r r r r r r r r r r r r r 7 r 7 0 r r s h x ",
"$ $ $ $ $ $ $ $ $ $ $ $ $ $ $ $ $ $ $ # # w F _ [ ] A 4 8 t h y h y y t r r 0 7 7 r r t s h s s h s h s s r r 7 7 7 7 r s h x x ",
"$ $ $ $ $ $ $ $ $ $ $ $ $ $ $ $ $ $ $ # # 8 U _  .} D 5 8 q y y t t t t r t r r r r s h x x x z z z x x h s r r 0 r r s h x x x ",
"$ $ $ $ $ $ $ $ $ $ $ $ $ $ $ $ $ $ $ # O w I [ {  .F 4 1 q q q y t t t y t p h h s h z x x x x z z x x x z s t r r s x x x x x ",
"$ $ $ $ $ $ $ $ $ $ $ $ $ $ $ $ $ $ $ # # w F _ { { F 4 < q q y q y y y h h h h h j h x x x x x h z z x x x h s r u z x x x x x ",
"$ $ $ $ $ $ $ $ $ $ $ $ $ $ $ $ $ $ $ # O w K ) [ [ F : - 3 0 r q y y y y h y h x x x x x x z h x h x x x x x s r u h x x x x x ",
"$ $ $ $ $ $ $ $ $ $ $ $ $ $ $ $ $ $ $ # O w K ( ) ] V 4 & 2 0 6 0 q t q t y i y h j x x x x x z k x x x x x x h r s z x x x x x ",
"$ $ $ $ $ $ $ $ $ $ $ $ $ $ $ $ $ $ $ # # w I _ [ ( H a 7 a d d d r r u t y h h h j j j x x x x x x x x x x z h h h x x x x x x ",
"$ $ $ $ $ $ $ $ $ $ $ $ $ $ $ $ $ $ $ # O p R } | ( Y V B S H P K g q i h i h h h h j j x x j z k x x x x x z h h l h x x x x z ",
"$ $ $ $ $ $ $ $ $ $ $ $ $ $ $ $ $ $ $ # O w U }  .( ! Q ! ^ / [ ] Z u u h h h h j h j x x x x x x x x x x x z h s s z x x x x x ",
"$ $ $ $ $ $ $ $ $ $ $ $ $ $ $ $ $ $ $ # O w R } | ' ) { [ ] [  ...J u u h h h j j x x x x x x x x z x x x x h s r s h z x z x k ",
"$ $ $ $ $ $ $ $ $ $ $ $ $ $ $ $ $ $ $ # O w U } | ' ] .. .{ { X.{ G u u h h h k x x x x x h h x x x x x x x h u r t h x z k x x ",
"$ $ $ $ $ $ $ $ $ $ $ $ $ $ $ $ $ $ $ # O w E }  .' ( ` ' ] { { ~ m q t h h j j x x x x x x j x x j x z x x z s r s h x h x z x ",
"$ $ $ $ $ $ $ $ $ $ $ $ $ $ $ $ $ $ $ # O w U } | ` U N Z Y / ! m r q t u h h h x x x x x x x x x z x j x x z h s h h x x x z x ",
"$ $ $ $ $ $ $ $ $ $ $ $ $ $ $ $ $ $ # O O w U _ | ` C , , d V v r 2 t h h h h j h x x x x x x z k x x x x x z x h z x x x h z x ",
"$ $ $ $ $ $ $ $ $ $ $ $ $ $ $ $ $ $ $ # O 8 F ( _ _ A = o * p w 1 9 t y y h j h k x x x x z x x x x x j x x x x x x x x x x z z ",
"$ $ $ $ $ $ $ $ $ $ $ $ $ $ $ $ $ $ $ # $ 8 F ^ _ } I 4 . + , 8 q q y h h h h h h h x x x x x x x x x z z j x x x x x x x x x z ",
"$ $ $ $ $ $ $ $ $ $ $ $ $ $ $ $ $ $ $ # O 5 F ^ _  .E e o + < t h y y y y h h h x k x x x x x z z j x x x x x x x x x x x x x x ",
"$ $ $ $ $ $ $ $ $ $ $ $ $ $ $ $ $ $ $ $ O 5 F ) {  .E e @ = 0 t y h h y h h h h h h h x z x x z x x x x x x x x x x x x x z x x ",
"$ $ $ $ $ $ $ $ $ $ $ $ $ $ $ $ $ $ $ # # 5 F [  .[ L w = 5 h h h h h h y h h y h h x x x x z x x x x x k x x x x x x x x z x x ",
"$ $ $ $ $ $ $ $ $ $ $ $ $ $ $ $ $ $ $ # # 5 I }  ._ S 4 < e h x x h h h h h t h h k k x x x z h j x z x x x x z x z z h x x x k ",
"$ = $ $ $ $ $ $ $ $ $ $ $ $ $ $ $ $ $ # # 8 F _ { ) N : < 0 h h j j h h i i t h h h h x x x x h z x x x x x x h s t s h x x x x ",
"$ $ $ $ $ $ $ $ $ $ $ $ $ $ $ $ $ $ $ $ # 5 D / [ _ S 4 ; 8 t h h h h h h h i h h h x x x x x z z z x j x x z s r 7 r s j x x j ",
"$ $ $ $ $ $ $ $ $ $ $ $ $ $ $ $ $ $ $ $ # 5 S ^ ] { L 0 < q t h h j h h h h h y h x h x x x x x x x x x x x z s r 6 r t j z z z ",
"$ $ $ $ $ $ $ $ $ $ $ $ $ $ $ $ $ $ $ $ # 5 S ^ [ } U e < 3 t u y h h h h i h h x h x x z x z x x x x x x x z h r 7 7 t h z x x ",
"$ $ $ $ $ $ $ $ $ $ $ $ $ $ $ $ $ $ $ # # 5 S ^ [ _ J 0 ; 3 0 0 q t h h h h h h h x z z z x z x x z x x x x x x u r r r s h x x ",
"$ $ $ $ $ $ $ $ $ $ $ $ $ $ $ $ $ $ $ # # 5 D ( { ) G a 7 u f z l r t i t t y h h h z h z z z h z z x x x x x x h h r 0 r s z x ",
"$ $ $ $ $ $ $ $ $ $ $ $ $ $ $ $ $ $ $ # # 8 J '  ._ P A G J Y ! Y d 0 q q t s s h h h z x x x h z h x x x x x x z h r r 7 t h h ",
"$ $ $ $ $ $ $ $ $ $ $ $ $ $ $ $ $ $ $ # # 8 I } { ( ! R W ~ ' { ' f 2 8 t t p s h h z h z x z h h x x x x x x x x h r 7 r t s h ",
"$ $ $ $ $ $ $ $ $ $ > $ $ $ $ $ $ $ $ # # w U } ] ) ( ( ` ' ` ..] f 2 0 r t h t h h h z h z h l h h x x x x x x x h r r r r r s ",
"$ $ $ $ $ $ $ $ $ $ $ $ $ $ $ $ $ $ $ # # w Y ] | ] ' ' ] ] ] o.{ f < r q t s t h h z x h h h h h z x x x x x x z h r 7 r r r r "
};
