/* XPM */
static char *wall_u_l1678373548[] = {
/* columns rows colors chars-per-pixel */
"64 64 130 2 ",
"   c #060E0B",
".  c #0B0F0F",
"X  c #0B1107",
"o  c #07140C",
"O  c #1A130E",
"+  c #0D0F10",
"@  c #0B1613",
"#  c #0D1916",
"$  c #0F1A18",
"%  c #121416",
"&  c #1E1613",
"*  c #121D16",
"=  c #1F1815",
"-  c #16171B",
";  c #121D1C",
":  c #1A1D1B",
">  c #201917",
",  c #221C1A",
"<  c #15221D",
"1  c #19231E",
"2  c #19281F",
"3  c #24211F",
"4  c #161E20",
"5  c #1C1F23",
"6  c #162121",
"7  c #1A2424",
"8  c #1C2A24",
"9  c #1D2629",
"0  c #1F292A",
"q  c #222523",
"w  c #282321",
"e  c #242A26",
"r  c #242729",
"t  c #282729",
"y  c #222B2C",
"u  c #2A2D2D",
"i  c #23312D",
"p  c #2B312E",
"a  c #252D32",
"s  c #2A2E34",
"d  c #302E32",
"f  c #263233",
"g  c #2B3235",
"h  c #2B3835",
"j  c #2D343B",
"k  c #2D393C",
"l  c #333535",
"z  c #383635",
"x  c #343937",
"c  c #33353C",
"v  c #39373D",
"b  c #343A3C",
"n  c #3C3C3D",
"m  c #3F403F",
"M  c #2F3940",
"N  c #323740",
"B  c #343B43",
"V  c #3B3B42",
"C  c #363F49",
"Z  c #393F49",
"A  c #354145",
"S  c #3E4242",
"D  c #364149",
"F  c #3B434D",
"G  c #3E4A4E",
"H  c #3E4651",
"J  c #3E4952",
"K  c #444545",
"L  c #484747",
"P  c #42424A",
"I  c #43494C",
"U  c #484848",
"Y  c #424651",
"T  c #424A55",
"R  c #4A4B54",
"E  c #444D59",
"W  c #4B4E5C",
"Q  c #455156",
"!  c #46515D",
"~  c #4B515E",
"^  c #4A585B",
"/  c #50515F",
"(  c #4B5563",
")  c #4E5966",
"_  c #4F5969",
"`  c #525664",
"'  c #515A67",
"]  c #545D6C",
"[  c #5A5E6F",
"{  c #565F71",
"}  c #5A5E71",
"|  c #57626D",
" . c #59616E",
".. c #566071",
"X. c #5B6373",
"o. c #5E6976",
"O. c #5D6678",
"+. c #5E687B",
"@. c #646677",
"#. c #636877",
"$. c #61667A",
"%. c #626A7D",
"&. c #66717F",
"*. c #656D82",
"=. c #686F84",
"-. c #677082",
";. c #6A7285",
":. c #6D758C",
">. c #6D788D",
",. c #71778D",
"<. c #73798D",
"1. c #6F7790",
"2. c #6F7891",
"3. c #707790",
"4. c #727B94",
"5. c #787D94",
"6. c #767E99",
"7. c #797F9B",
"8. c #778099",
"9. c #7A829C",
"0. c #7E86A2",
"q. c #7F88A4",
"w. c #8187A2",
"e. c #818AA5",
"r. c #858DAA",
"t. c #8991AE",
"y. c #8C93B2",
"u. c #8F98B6",
"i. c #949DBC",
"p. c #9BA3C3",
/* pixels */
", , , , , , , , , , , , , , , , , , , , , , , , , , , , , , , , , , , , , , , , , , , , , , , , , , , , , , , , , , , , , , , , ",
", , , , , , , , , , , , , , , , , , , , , , , , > , , > , > , , , , , , , , , , , , , , , , , , , , , , , , , , , , , , , , , , ",
", , , , , , , , , , , , , , , , , , , , , , , , > > & & & > , , , > > , , , , , , , , > , , , , , , , , , , , , , , , , , , , , ",
", , , , , , , , , , , , , , , , , , , , , , > > , , w d u 3 & & > > > > > > > > > > > > > , > > , & , > > > > > > > > > & > > > ",
", , , , , , , , , , , , , , , , , , , , > > & , z m R X.] V 3 = , , , = > > > > & > & > & > & > & > > & > & > & = = = = & & & & ",
", , , , , , , , , , , , , , , , , , , , > & 3 ( @.@.*.4.:.] Y E ] ] ` ` / Y V v V V V V v V V V v V V V V V V V V V P Z P P P P ",
", , , , , , , , , , , , , , , , , , , > O , ` 4.6.4.1.4.4.;.+.X.$.=.6.0.6.=.$.*.*.$.*.$.$.$.$.O.$.$.$.$.$.$.$.*.*.*.*.=.=.=.;.;.",
", , , , , , , , , , , , , , , , , > & O , ` 4.3.,.:.1.:.,.4.1.{ Y U } 1.1.3.3.3.3.4.4.4.3.3.3.1.3.3.4.1.4.4.4.1.1.1.1.1.1.1.1.4.",
", , , , , , , , , , , , , , , , , > & , ` 3.4.1.:.:.:.:.:.1.2.;.] P H { 4.4.2.4.4.2.=.*.1.4.1.1.3.3.3.:.*.;.4.4.4.4.4.4.4.4.4.4.",
", , , , , , , , , , , , , , , , > > t / 1.6.1.:.:.:.1.:.:.:.1.2.7.X.Y } e.y.e.e.w.1.` ) 1.4.:.:.;.:.7.=.W ] 6.q.w.0.0.0.w.0.7.6.",
", , , , , , , , , , , , , , , , > = Z 4.6.1.1.:.:.1.:.:.:.:.:.0.r.=.W ] 0.e.q.e.w.*.P R 5.0.:.;.:.4.r.;.Z R 1.0.w.0.0.0.0.0.6.2.",
"3 , , , , , , , , , , , , , , , > > P 4.6.3.1.:.:.:.1.:.:.:.9.r.9.` C J { *.*.*.*._ N R w.t.6.4.7.r.i.5.v Z X.*.*.*.+.$.%.%.%.O.",
", , , , , , , , , , , , , , , , > = N *.4.4.2.2.1.1.:.:.1.9.q.8.O.F f M ( _ ( _ _ E s P w.i.r.e.r.i.p.,.c j ( _ ( ( ( ( ( ( _ _ ",
", , , , , , , , , , , , , , , , , > d { *.*.=.2.4.6.=.$.2.q.4.X.( D 0 f J ! T J H N 5 a } 3.:.:.,.4.<./ 5 0 F H J T J E T J H F ",
", , , , , , , , , , , , , , , , , > s E ! ! _ *.=.:.*.*.6.2.{ ! _ J a 0 C Z C M a 7 . % v W ~ W W ( R s + - a j C Z Z Z C j a 9 ",
", , , , , , , , , , , , , , , , > > u C C H ( _ _ ( *.6.2.{ E _ { J a ; 9 y r 9 4 @   - c H H F H H P s + o < 7 y s a a 0 7 ; $ ",
", , , , , , , , , , , , , , , , , , t j N ( +.{ ! J { 1.O.( ( ] ( j ; # $ 6 6 8 < $ # 9 C Y H F F H H B 6 @ $ ; < 6 6 6 7 7 < $ ",
", , , , , , , , , , , , , , , , , , w s B { 6.:.{ ( J H E ( ] ! j $ # 7 j j h i < < ; 7 j C Z F Z Z C j 6 < < < 0 f f f j i 6 < ",
", , , , , , , , , , , , , , , , , , , w j { 6.6.1.*.Z 4 M _ ( M $ o 4 M J ! H N a 8 6 6 9 s j j j j a 7 6 6 8 h H H H H J M f 8 ",
", , , , , , , , , , , , , , , , , , , > 3 ` 6.3.6.6.E % a Z M @ o @ y D E E H H M y 7 4 7 0 a 0 y y 9 4 6 8 h D E J F H J H k f ",
", , , , , , , , , , , , , , , , , , , O & / 3.1.4.0.{ 7 8 0 < o o $ a N C B N M h 8 < < 6 9 7 6 7 7 6 6 6 ; 8 k k j f f j M j y ",
", , , , , , , , , , , , , , , , , , , > > W 3.1.6.q.O.k i f y f k h i f f f a 9 6 < < < < $ ; 4 ; 4 ; ; $ $ ; 6 8 8 0 8 7 9 7 6 ",
", , , , , , , , , , , , , , , , , , , & > ( 4.6.q.e.*.! ! ] { O.>.o.k < 0 k k A m A G J D f 4 $ @ $ $ 6 f C F J Q Q J A f < ; * ",
", , , , , , , , , , , , , , , , , , > > > W 6.w.q.9.;.+.:.8.6.0.p.e.G < f D J ^ ) o.%.&.] H a ; $ ; 6 j E X.&.%.&.:.;.+.( A 8 2 ",
", , , , , , , , , , , , , , , , , , , > > W 0.e.9.4.3.6.5.2.:.6.u.9.I h J E D B C Z Y H F Z N g 8 0 g N Z F F F Y ~ ] { ] _ H j ",
", , , , , , , , , , , , , , , , , , > > > W 6.0.w.5.7.r.q.5.;.6.y.8.G e B F B j g c c j s c C j y 0 a j s g j g j N Z H T T D j ",
", , , , , , , , , , , , , , , , , , , > & W 6.w.w.5.7.t.t.t.q.y.i.9.G < 0 j N C Z C k g a a a y 6 < 6 9 a j N Z C B c j g h f i ",
", , , , , , , , , , , , , , , , , , , > & R 6.e.w.6.:.%.%.>.8.q.9. .h < 7 0 g b j g 0 7 4 4 ; $ # # # ; 9 a b k j s a 7 < < < < ",
", , , , , , , , , 3 , , , , , , , , , > & Y :.7.e.e.X.d q b ] X.T u : * < 8 8 8 i i 8 6 6 < ; ; ; < 4 6 8 8 i 2 6 6 7 7 7 < < < ",
", , , , , , , , , , , , , , , , , , , > > P *.3.0.e.} w X y ! ( c q q < ; ; 2 8 h F ) | X.) E F F H F M i 8 < # $ b ] o.] E F C ",
", , , , , , , , , , , , , , , , , , , > > P *.4.0.q.$.s * i A A l c c a 6 $ < f C W | +.#.| ( E E W ! J k 8 < 9 M ( $.%.} ( J J ",
", , , , , , , , , , , , , , , , , , , > > V *.7.0.q.=.V 1 1 < 3 u B F C a 6 y B Z C N b B B B B N C C C j 9 6 M ( Q C c N C C B ",
", , , , , , , , , , , , , , , , , , > > > V ;.0.w.r.;.P 8 @ % t c C Z C y 7 0 N C N c M j j N N N N N j 8 $ $ f C C N j M N j g ",
", , , , , , , , , , , , , , , , , , , > > Z =.0.w.e.,.P = @ 4 a a r 0 7 4 ; 4 9 a j g s s j N N j j a 9 $ @ $ 6 9 a f j g g a a ",
", , , , , , , , , , , , , , , , , , , > > V =.w.w.0.:.R 5 % 4 7 4 ; @ @ o @ # ; < 7 0 8 9 9 0 0 6 ; ; ; # < < < 6 6 7 9 6 6 4 4 ",
", , , , , , , , , , , , , , , , , , > > & v =.e.e.9.*.I u 7 8 a a a i g j k k i 8 < 6 2 4 6 9 0 0 a f k m h 8 8 8 7 < $ 6 9 0 0 ",
", , , , , , , , , , , , , , , , , , , > > v @.w.t.7.} Z u 8 h F E E _ o.&.&...E j 8 < 2 8 f C E ! ( X.;.%.Q i < 2 8 8 6 f C E ! ",
", , , , , , , , , , , , , , , , , , , > > v $.7.r.0.} c e p b F H Y E ( ' ' ~ T C j 8 7 y B H J E E ) ] ' E c 9 < < 6 y M H H E ",
", , , , , , , , , , , , , , , , , , , > : V O.6.e.9.} c w g N N N C B c j a g j M g 9 6 a j j f s j M N B Z Z a $ # 4 a c C C N ",
", , , , , , , , , , , , , , , , , , , > & V O.4.0.7.[ g 1 7 a f j c N N j a y y a 0 6 4 9 0 a a 0 s j N B b j y < $ ; 5 y j c C ",
", , , , , , , , , , , , , , , , , , , > > V $.7.q.6...A j k M M j f g b f a 9 9 6 ; $ $ $ 4 7 0 a 0 a f a 9 6 < 6 < $ $ 4 0 a f ",
", , , , , , , , , , , , , , , , , , , > > V *.0.e.4.%.{ | X.*.=.o.A 7 y 7 6 $ $ @ @ @ @ @ $ $ 6 6 6 6 < ; $ < < 2 < $ @ $ $ 6 6 ",
", , , , , , , , , , , , , , , , , , , > & V *.e.e.6.:.:.2.2.0.t.9.I 1 1 9 f B F F F D D k j j a 7 < < # < f I ^ G A j f f 8 $ $ ",
", , , , , , , , , , , , , , , , , , , > > V *.w.0.5.9.w.0.9.0.y.e.Q 2 y k ! X.=.&.;.-.+.] ( E H h 8 < < i G $.,.&.| ! ! E M 8 $ ",
", , , , , , , , , , , , , , , , , , , > & v $.e.9.5.9.r.t.r.t.u.9.I e x B F Y Y J T Y H H Z H F N a 6 9 g Z E E R H F F H C f 7 ",
", , , , , , , , , , , , , , , , , , , > > v $.e.r.6.=...X.;.8.>.^ h e g j a j j b k c j N N B N j 0 6 9 M B N c j N N N N M y 7 ",
", , , , , , , , , , , , , , , , , , , > > c $.0.t.9.` s f Q { R p 3 q 7 9 0 a j N C C c j j c j 0 6 ; 6 a g j j j j j M j y 7 ; ",
", , , , , , , , , , , , , , , , , , , > > v } 6.w.7.` e * h C a 1 1 1 * $ 4 9 0 f j c j a 7 7 4 # @ @ # $ 4 9 y 0 0 9 9 5 ; # @ ",
", , , , , , , , , , , , , , , , , , , > > v } 4.7.e.$.d # < 7 1 1 8 8 2 6 $ 4 $ < 6 8 8 8 7 ; $ $ # $ < 6 < < ; ; ; $ 4 $ $ $ $ ",
", , , , , , , , , , , , , , , , , , , , > v } 4.q.r.=.c % 0 D F D F Q | o.) j $ @ * < 0 k B C H ! E J F D f ; @ @ @ ; a D D F ! ",
", , , , , , , , , , , , , , , , , , , > & v [ 6.e.r.@.c 5 M T J J J ( X.&.X.J f 6 2 8 f M F F Y ( ( J J F M 9 - $ 7 f C H J J ! ",
", , , , , , , , , , , , , , , , , , , > > d } 7.r.7.] d r a j g j j j M b C H F f 6 9 0 a f a a a s f f j j f 7 6 f M M f a f j ",
", , , , , , , , , , , , , , , , , , , > > d X.w.e.3.W s q 0 0 a j g a s s j N j 8 $ 6 7 y y y 0 y y y a s g g y 6 9 a 0 9 0 y y ",
", , , , , , , , , , , , , , , , , , , , > z } 7.0.4./ s 9 5 6 9 y y 0 a y a y 9 < $ $ $ 4 8 5 9 y 0 a a a y 7 ; < 6 4 6 6 7 5 9 ",
", , , 3 , , , , , , , , , , , , , , , > > v ] 4.w.7.} c q 7 7 q 7 9 9 9 8 9 r q 7 1 6 $ - ; ; ; 7 9 y y y r 7 ; ; 6 7 6 7 4 4 4 ",
", , , , , , , , , , , , , , , , , , , > > d } 7.r.q.{ N y u u u g u u u u y u u u g y 8 7 7 7 < 7 q t y r y y t y 0 q q 7 7 7 6 ",
", , , , , , , , , , , , , , , , , , , > > v [ 6.r.e.{ b p p l l l z x x x l l l l l p p u e q 8 8 e u e u u g p u p u u e y e e ",
", , , , , , , , , , , , , , , , , , , > > d ] 4.e.0.} z d l l l z n n z z x x x l g p p s u u e e u u u u u p p l g g p u u u u ",
", , , , , , , , , , , , , , , , , , , , > v ] 3.0.7. .x 3 p p l l x m m n b z n z x x l l l p d l l x l g g g z z n z z z l x l ",
", , , , , , , , , , , , 3 , , , , , , > > c [ 4.0.6.| A x m I G S b x K K K m m m n n z n n n n n n n n z l x b n m S K S n n n ",
", , , , , , , , , , , , , , , , , , , > > c X.9.e.6.+.] _ X.-.>.&.A p m K m K m m m m n n n n m n n n x h h z n n K K S K n n m ",
", , , , , , , , , , , , , , , , , , , > > v $.0.e.6.:.=.;.>.4.r.8.I p K U K K K K K K K m K K K L K n c h b V K L L K L K K K K ",
", , , , , , , , , , , , , , , , , , > > > z %.0.0.6.4.6.8.8.8.t.9.I p K U U U L K U U K K K U K K U K S K K K U L K U U U K L L ",
", , , , , , , , , , , , , , , , , , , > & v $.9.0.9.0.e.e.9.9.y.9.G p K U U K K K U K U K K K K U U K U U U U U U K U K U K K L "
};
