/* XPM */
static char *wall_m1678373547[] = {
/* columns rows colors chars-per-pixel */
"64 64 166 2 ",
"   c #2C1B25",
".  c #252625",
"X  c #2B2726",
"o  c #2C2926",
"O  c #2F2728",
"+  c #2E2A28",
"@  c #312A27",
"#  c #342C29",
"$  c #3B2E2B",
"%  c #3C312C",
"&  c #3F3330",
"*  c #432D2C",
"=  c #492C2E",
"-  c #44322D",
";  c #4A332E",
":  c #4C3A2D",
">  c #513D2E",
",  c #4C2F30",
"<  c #532732",
"1  c #562932",
"2  c #5B2F35",
"3  c #443531",
"4  c #4C3431",
"5  c #4D3935",
"6  c #4C3A38",
"7  c #533532",
"8  c #5A3635",
"9  c #533A36",
"0  c #5B3A34",
"q  c #5D3338",
"w  c #543C39",
"e  c #5A3E3A",
"r  c #633536",
"t  c #633C36",
"y  c #6D3B37",
"u  c #633739",
"i  c #643D39",
"p  c #6C3E3A",
"a  c #713F3B",
"s  c #5B402F",
"d  c #4E4232",
"f  c #5D4232",
"g  c #5C403C",
"h  c #644433",
"j  c #6D4336",
"k  c #6D4C35",
"l  c #64413B",
"z  c #6D413B",
"x  c #6E493E",
"c  c #714537",
"v  c #784137",
"b  c #724F36",
"n  c #73423B",
"m  c #7A443D",
"M  c #74493C",
"N  c #7D493D",
"B  c #755137",
"V  c #775038",
"C  c #7C5339",
"Z  c #774940",
"A  c #7D4C41",
"S  c #7E5E44",
"D  c #7F6148",
"F  c #81463D",
"G  c #834B3E",
"H  c #894D3E",
"J  c #84523C",
"K  c #8C533E",
"L  c #8D5A3D",
"P  c #93563E",
"I  c #945B3D",
"U  c #9C5C3F",
"Y  c #97623F",
"T  c #98623F",
"R  c #A2633F",
"E  c #A8633F",
"W  c #814E40",
"Q  c #8C4E41",
"!  c #904F42",
"~  c #835243",
"^  c #8E5440",
"/  c #8C5A46",
"(  c #8E5F4A",
")  c #925441",
"_  c #9B5543",
"`  c #955B42",
"'  c #9C5E41",
"]  c #975F48",
"[  c #A05D41",
"{  c #806144",
"}  c #8A6145",
"|  c #846349",
" . c #8F644B",
".. c #976146",
"X. c #9D6241",
"o. c #93644A",
"O. c #9D674C",
"+. c #97694E",
"@. c #9E6A4D",
"#. c #9C7A4D",
"$. c #A36443",
"%. c #AA6542",
"&. c #A46942",
"*. c #AC6B44",
"=. c #A16F4E",
"-. c #AF6E48",
";. c #B26E44",
":. c #AF7146",
">. c #A3704F",
",. c #A9744F",
"<. c #A4784B",
"1. c #B47146",
"2. c #BB7547",
"3. c #B4744C",
"4. c #BF7748",
"5. c #BE7849",
"6. c #A37351",
"7. c #AA7551",
"8. c #AD7C55",
"9. c #B27D53",
"0. c #BA7E51",
"q. c #C27947",
"w. c #C87C47",
"e. c #C27B49",
"r. c #C97E49",
"t. c #B28257",
"y. c #BB8355",
"u. c #BC8B53",
"i. c #B18358",
"p. c #BA8758",
"a. c #BE8C5A",
"s. c #BF915C",
"d. c #C6824D",
"f. c #CB824B",
"g. c #D2844C",
"h. c #C48652",
"j. c #C38A55",
"k. c #CB8B53",
"l. c #C08D5B",
"z. c #CA8E5B",
"x. c #D28D52",
"c. c #C5925D",
"v. c #C9945E",
"b. c #C7985E",
"n. c #C9995E",
"m. c #D59255",
"M. c #D89557",
"N. c #D49459",
"B. c #D99658",
"V. c #D49A5D",
"C. c #DC9B5A",
"Z. c #E39D5B",
"A. c #E5A05C",
"S. c #CB9760",
"D. c #CD9A61",
"F. c #D29E62",
"G. c #D6A163",
"H. c #DCA362",
"J. c #DDA865",
"K. c #E2A762",
"L. c #E3AA64",
"P. c #E9AD64",
"I. c #E2AD68",
"U. c #EBB166",
"Y. c #E9B36A",
"T. c #F7B96C",
/* pixels */
"n n p n u m X.2.e.2.5.2.2.5.5.2.2.2.2.2.2.2.2.2.2.5.2.5.q.$.N i a a p m X.2.q.2.2.2.2.2.2.2.2.2.2.2.2.2.2.2.2.2.2.4.4.$.m p p n ",
"z n p i t z I -.1.:.:.E E :.:.E -.;.1.1.1.1.1.1.-.1.;.2.2.' N i p i u c I -.1.:.*.*.:.*.E :.:.1.1.1.1.:.1.1.1.;.1.2.1.' c i n m ",
"p u 0 7 = 7 h b B B B B B B b b C L _ ` ` P ) ^ ^ ) ) P K G n u q 4 ; 4 f B B B B B b b b b C I ' X.` I ^ ^ ^ I ^ ) K j : 0 J ) ",
"p t - @ @ # # $ % $ # $ # % # @ - p G A M n c n c n n z a a p 0 * # # @ $ $ % # # % $ $ # # : h m m m n n n n n n m n 7 # : ..2.",
"G c - . @ $ # # O # # # @ @ + X $ 8 p u i n m N m M M W / / ^ j - . # # # # @ # # O # O O # $ 8 p u u n N m N v m ^ / x $ 0 R e.",
"$.L : X * 0 0 8 q 7 7 q s > 7 7 0 q u q p K $.$.[ P U 3.z.z.1.J - + = 8 0 7 7 7 7 q 8 8 7 7 q u u q p K $.$.U P U 3.v.6.l h &.5.",
"5.X.d @ 7 n m a a n a a n n n n n n n p m X.q.w.q.q.q.k.F.C.g.Y : + 7 m m a n n a a Z a n n n n n p m $.q.w.e.2.4.N.H.t.A v *.2.",
"e.&.> X 7 m A m m m A a Z a p a m ^ P K P $.q.x.C.Z.C.u.#.<.d.X.: X q A m m m N m A a a p p m ^ ) ^ ` %.q.x.C.A.C.u.#.S M H *.2.",
"4.T > X 7 m m n a n a n a p p u N $.1.1.*.E 2.k.L.T.L.#.d h 1.R : X 8 M m n n n n n n p i i G $.2.1.;.E 2.m.L.T.L.#.9 $ t ^ *.2.",
"2.$.f $ 7 n n n a p p a m N N m K ;.r.g.x.f.d.j.S.F.S.S @ ; &.*.s $ 8 a n z a p p p n W N m ) ;.f.g.g.f.h.j.c.G.n.{ #   8 ) ;.2.",
"2.&.M 7 u n n n p i u i W ' %.' R E e.m.A.U.C.t. .( ] x ; c -.-.c 8 i n n n p i u u W ' &.' E E d.M.L.P.V.9.] ( o.M 7 , u ^ *.2.",
"2.-.Q i p n a a n n p a ^ ;.e.e.2.2.e.N.J.Y.G.>.a r p p p P 1.;.J p a a n n n n p n ) 1.w.q.4.2.e.v.H.Y.F.@.c r n n z p p Q *.2.",
"2.*.H p p p u p N K K K ' 2.g.x.C.M.k.y.8.i.8...G F F v a ^ 1.;.Q p p p u a N ) ^ K [ 2.g.m.B.M.k.y.i.i.8...G F G N a p p Q %.2.",
"2.*.G u u i u a ^ *.1.*.*.;.d.Z.U.Y.n.=.Z Z A ' *.;.*.K p G -.;.G u i i u a P *.;.%.*.1.k.C.Y.U.v.@.m x A ` *.1.;.) a u p ^ -.2.",
"2.-.) m M N n N $.4.g.f.d.e.h.v.D.G.p.` y q n T q.g.w.$.A ^ 1.1.) M m N a N $.q.g.f.d.e.d.v.F.G.p.^ y q v $.e.g.e.%.G i t A %.5.",
"2.1.$.X.' ' U U E 2.x.C.L.Z.j.>.o.+.+.` P K ` %.q.f.e.;.X.%.1.1.%...' ' _ U E 2.x.C.L.A.j.>. .+.o.` P K ` %.e.r.e.2.$.M 4 h X.2.",
"2.2.2.1.2.2.1.1.;.2.k.H.Y.L.p./ u u N $.2.q.2.2.2.2.2.2.2.2.2.2.2.2.2.2.2.1.1.4.k.H.Y.L.y.~ u i G $.5.2.2.2.2.2.2.e.4.J $ d T 2.",
"2.5.w.r.r.f.x.m.x.k.h.a.a.l.7.^ M v H ;.f.f.w.q.4.2.4.w.d.w.2.5.e.f.w.f.g.x.m.k.j.a.a.a.,.P a v L ;.f.f.r.e.5.2.4.g.g.L # - T 2.",
"2.4.r.f.r.g.B.K.U.K.y.o.~ / ] %.;.%.;.5.w.f.w.w.w.e.e.r.f.w.2.2.r.f.f.g.B.K.U.H.y.( ~ / ' &.;.%.;.q.r.r.e.w.w.e.r.g.g./ % - T 2.",
"2.1.1.*.%.1.j.F.I.F.=.a 1 u G &.q.2.2.;.;.-.:.1.;.1.1.:.-.;.2.2.;.*.R 1.j.G.I.D.=.p 1 u G *.e.2.1.1.;.1.1.1.1.1.1.2.1.V # : T 2.",
"u.E J s 0 k } <.8.6.~ u < 2 p ^ ' ` ` ) ^ ^ ^ ^ P ) P N k J 1.*.C h s k } 6.8.6.~ u < 2 a K X.' ` ) K ^ K ^ ^ ) P J k - . d R d.",
"E R s . . # 0 m A m z p u p p a n M n n n n n n a M n 4 @ s :.*.f . . $ 0 m A m z p y i p x n n n n n n n c n v c 0 # . . s E E ",
"w.R h $ # ; t v m v N ~ H K W A N N N N N M N M v G v 0 - k -.&.h # # ; t v m v N ~ Q Q G N m m N m N N m N N G v h ; @ @ 0 Y R ",
"E E Y J J J I U [ ' $.$.%.%.$.$.$.$.$.$.[ $.U U U R R L J Y ;.;.Y J J L P U [ X.$.$.%.$.&.$.$.$.$.$.X.X.' U U [ R U L c 7 2 c V ",
"f.d.w.d.r.r.e.e.q.q.q.q.4.e.4.e.2.q.q.4.e.e.e.e.e.e.e.e.w.e.5.5.w.w.w.d.w.e.e.4.e.q.q.e.5.q.4.4.5.q.e.e.e.e.e.e.q.f.f.%.~ n Z n ",
"C.C.M.Z.Z.Z.F.Z.x.r.e.r.r.r.r.r.f.r.r.w.f.m.C.C.C.C.C.Z.Z.C.B.B.C.Z.Z.Z.C.C.x.f.e.r.r.r.f.r.f.f.r.r.f.x.F.C.C.C.C.Z.Z.N.y.7.7.7.",
"K.K.A.L.H.L.P.K.m.e.q.q.e.e.e.e.e.e.q.2.e.N.J.P.K.H.L.J.L.K.H.J.A.L.L.L.L.H.N.4.5.q.q.e.q.e.e.e.q.2.r.N.P.L.K.H.K.K.K.K.K.F.F.F.",
"s.c.c.b.S.S.S.z.0.%.%.*.*.*.*.*.*.%.*.%.-.0.S.S.S.z.S.S.S.c.s.s.c.c.c.v.D.c.0.*.%.*.%.*.%.-.%.*.*.%.-.y.S.S.v.v.v.c.v.v.V.n.n.n.",
"D { o.=.O.O.=.] ] ^ ^ ! ) ) ^ ) ) ^ ) ^ ) ] $.@.O.O.=.$.O.o./ D ] O.O.O.@.O.] P ^ ) ) ) ) ) ) ) ) ^ ) ] $.@.@.O.O.O.O.o. .| | | ",
"9 w u a p p y y p p p p p p p p p p p a p p p a p p i p p u w w u a p y p p p p p p p p z p p p p p p p p p p p p a p u 9 6 w w ",
"7 7 , = = = = = , , 4 , 4 , 4 , 4 , 4 , , = = = * = = = = , 4 7 , = = = = = , 4 7 , = 7 4 , 4 , 4 1 , , = = = = = = = * # $ , 4 ",
"i 0 4 # # # # @ $ $ $ $ $ # $ $ # $ # $ $ # # # # O # O O 4 u u 4 # $ # O $ # $ $ $ # # $ # # $ # # $ # # # O # O # # # O 3 q p ",
"v i % . o # # # + + + + # O + # # # # # # + # # # $ # # # 4 p p * . o # # # @ o O # # + # + # O # # # + # # # # $ $ $ @ X - i v ",
"n i % . + 3 8 7 % . + 3 3 3 3 & & 3 % % & & & 4 > 7 7 7 0 p n t $ . # 3 9 7 % . + 3 5 & % 3 3 3 & 3 & & & 4 7 9 7 8 0 - @ $ t n ",
"n t % # & g z p ; @ % w g w w w w w w w w 6 w e a n a p n n v t $ + 3 w z z ; + % w e w d w 9 w w 6 w 6 w i p a z n n 8 $ $ t z ",
"n t 4 % 3 g Z n t ; % 3 5 w g e g w w w g g l z m F m n t i n i ; % 5 g m v t - % 3 5 w g e e w g w g g i n a F N n i ; @ $ t n ",
"z i 0 4 6 g j n n t - # % 6 g w w w w 6 w t z z n m m u - - i a 9 6 6 e l n n i - @ $ w g w w w w 6 w e z n m A N t - + + - t n ",
"n p g w 6 w l n N n 0 $ % 5 w w w w w w e p n m n n z 4 # * i M e w w w i n F n 0 $ % 6 w w w w 9 w e p n n n n p 7 # o + * i z ",
"z z l g w e p n m v n c f 5 5 w g w w 0 p p a m v i ; % % 5 p n l w w e z n m n n j f 6 6 w g w w e i z v A a t 4 - % # @ - t n ",
"n j e w w e i n a n H _ N g 6 g w 6 w l n n a A n 7 # $ 5 t z c e w w w j n a n ^ _ N w 5 w w 6 w h n n n N a 8 # % 9 3 @ $ t n ",
"n i 8 3 3 6 f z p n Q _ ) Z 0 3 3 w i n n m a p 0 3 # & w l n i w 4 3 5 0 z p n Q _ ) n 0 3 5 w i n n m n p 0 - # 3 w 5 # % t n ",
"n i 4 # # # 5 l z n n W ! ) z $ # 7 n n n W m 8 % % 4 5 w l n i 4 # + $ 5 g z n m W ) ) h % # 0 n a m F n 0 $ % 3 w e 3 # * t n ",
"n t - X . # & 6 j a a p Q _ G ; % 0 n n a m p - + % w g w e n i % o o # & 9 i a p a Q _ G - $ e n n n n p - + & w g e 3 + * t z ",
"n t $ + $ & % % e n n p m Q H c f t l n n t 4 $ % 4 w w w g n i $ o % % % 3 0 m a p A Q G c t t z n a t ; % % 5 w g w 3 o $ t n ",
"n t % + 3 5 % # 7 n m n a a F ) H l w z p 7 # % 9 w w w w g n t * # 3 5 % # 7 M A a n n G _ Q g w Z p 4 # & 5 w w e w 3 @ - t j ",
"z t * # 5 w 3 # ; 0 p n a p N _ ) x 9 l t - # 3 w g w 6 w i n t % # 5 g - # - t a a p p N _ ^ j 9 i u * % 3 w g w w w 3 % - i n ",
"n t - # 3 e w 3 % % 7 z n a n Q Q z t e w 4 4 6 w e w 6 w e z t % # 4 w w 3 % % 8 a n z m Q N n t e w 5 4 6 w e w w w w 3 8 i n ",
"n t * # 3 w g w % # 4 p m n n a n n z e w w w w w w w w w t n t - @ 3 w g w % # ; p m n a p a n z e w 6 9 w w w w 9 w w d 0 p n ",
"n t * @ 3 w g w 4 3 8 z m m n p p a m A z 8 3 5 w w w w 6 l n t % # 3 e g w 4 - 7 z m n n p p a m m x w & 4 w e w w w w w e p n ",
"z t - @ 3 w w w 0 i p a n m n n a p m ) K 9 O % w g w 5 w l n t - # 3 w w w e u z n m v n n n p m ) H > X & w g w w w w w e j n ",
"z t % @ 3 w w e j n m n p i p z a p m _ ) j - % 5 6 w w w t n t $ # 3 w w e p Z m n p i p n n p N _ P i % & 4 w w w w w w e p z ",
"n t - # 3 w e i z Z m a 0 ; 7 n A a n G H G c ; # & w e w e n i % # 3 w e i n n m n 0 4 7 z m n a G H H k 4 # % w e w w e e p n ",
"n t * @ - g i n n n n n 7 # - t n n n p m _ _ t # # d g w g n u * # 3 w i n n n m n 7 # - i m n a p m _ ) t @ $ w g w w w e z n ",
"z t % # - g n n m n n p 7 % % ; t n n p a H _ N 9 - - 3 w l n t % @ 4 l a m m n a p 5 $ % 4 t n n p a ! _ N > - % 3 w w 3 9 p n ",
"n t $ # 7 n n n n n j e 6 5 - # - p N n p n F P K t @ + w Z z t % # 7 z n n n n l e w 4 & $ 3 j N n n m N H H 0 O % w 5 % - t z ",
"n t $ # 0 M m n n n e w g g 5 # $ 8 a n n p n ! _ M - # 3 i z e $ % 0 m Z n n z t w w g 4 # $ 0 a n a p n _ [ n % & 5 3 O % u n ",
"n t $ $ 8 m F v n l g w g g w 5 - 3 7 z M a n G ! H c > % 4 p i $ $ t F F m p i g g g g 6 3 & - 0 p m n p Q Q Q c 7 % + o - t z ",
"z t $ # 8 m A n i w w 6 w w w w 5 # % 0 m m n p n K _ c # $ p p % # 8 M m n i e 6 g w w w g 5 # $ 0 n m n a n ! _ M # . o - t n ",
"n t $ # ; 0 0 0 5 3 3 5 3 3 3 5 - . + - 8 l l i p Q _ N ; 4 a i $ @ ; 0 e 0 5 3 3 3 3 ; : 5 % o O ; 0 i i i p Q _ G ; o + * t n ",
"n t $ . # $ - $ # # # # # # # % @ o X @ * 4 e i a m G n t i n i % X @ $ $ $ # # # # # # # # # o o @ * 5 e i a N G M t = + $ t n ",
"n i ; @ # # # # @ @ # # # # # # # $ $ @ # 3 w l a n p a n Z a t - # @ # # # # $ # # # @ # # # # # @ # 3 e l n n p m m w $ % t z ",
"t e 7 7 ; ; ; ; 7 7 7 7 7 4 7 > 4 7 4 4 4 8 t p n a p n a Z p 0 0 7 ; ; 4 ; 7 ; 7 7 : 7 7 ; 7 7 7 ; 4 0 t z n z p n m t ; - 0 l ",
"w e l z p p i p i j p i p i p i p p i j j z z n n a n n n j e 0 i j p p p i i p i p p i j p p p p p j z z n n a a n n j w 5 w w ",
"w 0 p n n n n a a c c n n n n n z n n n n z n z n n n n n i w w p n a n c n n n n n n n z n n n z n z n p n n n n n n l 0 5 w w "
};
