/* XPM */
static char *wall_u_r1678373548[] = {
/* columns rows colors chars-per-pixel */
"64 64 127 2 ",
"   c #0B0F05",
".  c #060E0A",
"X  c #0B0F0E",
"o  c #07140B",
"O  c #09120F",
"+  c #100F11",
"@  c #0B1613",
"#  c #0E1916",
"$  c #0F1A18",
"%  c #121416",
"&  c #1D1613",
"*  c #121C16",
"=  c #1F1815",
"-  c #141519",
";  c #121D1C",
":  c #1A1D1A",
">  c #201A17",
",  c #221C1A",
"<  c #15221D",
"1  c #1A241E",
"2  c #22211D",
"3  c #161F20",
"4  c #172121",
"5  c #1A2424",
"6  c #1C2A24",
"7  c #1D2628",
"8  c #1E292B",
"9  c #222424",
"0  c #292421",
"q  c #242926",
"w  c #22262A",
"e  c #2A2729",
"r  c #222B2C",
"t  c #2A2E2D",
"y  c #23302E",
"u  c #2A312D",
"i  c #252D32",
"p  c #292F34",
"a  c #263133",
"s  c #2B3235",
"d  c #2A3936",
"f  c #2D343B",
"g  c #2E393C",
"h  c #333435",
"j  c #383635",
"k  c #353837",
"l  c #33353C",
"z  c #39373D",
"x  c #333A3C",
"c  c #3B3C3D",
"v  c #403E3C",
"b  c #3F403F",
"n  c #2F3940",
"m  c #323741",
"M  c #343B43",
"N  c #3B3B43",
"B  c #393F49",
"V  c #403F47",
"C  c #354145",
"Z  c #3D4141",
"A  c #364149",
"S  c #3B434C",
"D  c #3D494E",
"F  c #3E4651",
"G  c #3E4852",
"H  c #444545",
"J  c #484747",
"K  c #42434C",
"L  c #44484C",
"P  c #484848",
"I  c #414752",
"U  c #424B55",
"Y  c #494B55",
"T  c #454D5A",
"R  c #4C4F5C",
"E  c #435054",
"W  c #46515B",
"Q  c #4A525E",
"!  c #4A585B",
"~  c #4B5563",
"^  c #4E5965",
"/  c #4E5968",
"(  c #525563",
")  c #525B67",
"_  c #535C6B",
"`  c #595C6D",
"'  c #565F71",
"]  c #595E70",
"[  c #56616D",
"{  c #5A616F",
"}  c #566171",
"|  c #5B6373",
" . c #5E6976",
".. c #5D6679",
"X. c #5E697C",
"o. c #606A77",
"O. c #61667A",
"+. c #626A7D",
"@. c #65707E",
"#. c #656D82",
"$. c #696F84",
"%. c #667182",
"&. c #6A7384",
"*. c #6C748C",
"=. c #6F798C",
"-. c #70778D",
";. c #73788E",
":. c #6F7790",
">. c #6F7891",
",. c #707791",
"<. c #727B94",
"1. c #7A7F97",
"2. c #767E99",
"3. c #787F9A",
"4. c #778097",
"5. c #77809B",
"6. c #7A829C",
"7. c #7E86A1",
"8. c #7F88A4",
"9. c #818AA5",
"0. c #848DAA",
"q. c #8690AD",
"w. c #8890AD",
"e. c #8C94B3",
"r. c #9199B7",
"t. c #959EBD",
"y. c #9AA3C2",
/* pixels */
", , , , , , , , , , , , , , , , , , , , , , , , , , , , , , , , , , , , , , , , , , , , , , , , , , , , , , , , , , , , , , , , ",
", , , , , , , , , , , , , , , , , , , , , , , , , , , , , , , , , , , , > , > , , , , , , , , , , , , , , , , , , , , , , , , , ",
", , , , > , , > , , , , , , , , , , , > , , , , , , , , , , , , , > > > > > > > > , , , , , , , , , , , , , , , , , , , , , , , ",
"= = = = > > > > > > > > > > > , > > > > > > > > > > > > & > > > & & , t e 0 , , > > , , , , , , , , , , , , , , , , , , , , , , ",
"= = = = = = > > > > > > > > > > & > = > = > = = > & > > > , , , > 2 B ` | Y v j , > > > , , , , , , , , , , , , , , , , , , , , ",
"K K K B V B V N z N z N z N z z N N z N z N N N N N I R ( ( ` ( Y S _ <.<.$.o.o.( , > > , , , , , , , , , , , , , , , , , , , , ",
"$.$.$.$.$.#.#.#.+.+.+.+.O.O.O.O.O.O.O.O.+.+.O.O.+.+.$.2.3.3.$.O...X.*.,.,.,.;.1.,.( > & > , , , , , , , , , , , , , , , , , , , ",
">.>.>.>.-.>.*.>.,.<.<.<.,.,.,.,.,.,.,.>.<.<.<.>.,.,.,.<.,.] L Y ' :.,.,.*.-.-.,.<.,.R > & > , , , , , , , , , , , , , , , , , , ",
"<.<.<.<.<.<.<.<.<.<.$.#.*.>.>.>.,.,.<.*.#.#.<.<.<.>.<.*._ F F ' *.>.>.*.:.*.*.,.,.<.<.R , > > , , , , , , , , , , , , , , , , , ",
"4.6.9.9.7.7.7.8.9.<.` Q $.<.*.*.*.*.2.*.~ / ,.9.9.9.e.9._ U ..2.>.*.:.*.*.*.*.*.*.,.<.,.R e > , , , , , , , , , , , , , , , , , ",
"<.4.8.6.7.6.7.7.9.-.Y K ,.8.<.*.$.*.9.;.K K $.7.9.8.0.6._ T $.q.3.*.$.:.*.*.*.*.*.*.<.2.<.V > > , , , , , , , , , , , , , , , , ",
"..X.+.#.+.+.#.#.#.] N N 6.t.0.2.<.3.w.6.V N ` $.#.+.#.} F B / 7.0.2.*.*.,.*.*.*.>.>.<.3.,.V > > , , , , , , , , , , , , , , , , ",
"/ ~ ~ ~ ~ ~ ~ / / ~ f z 1.y.r.0.9.0.t.1.B f T / / ~ / ~ n a S ..3.0.5.*.*.*.>.>.>.,.>.>.#.l > , , , , , , , , , , , , , , , , , ",
"S F G G U U U F F A w 5 ( ;.;.-.*.-.;.` w 7 n G G U T F a 8 B / ..<.9.>.X.*.2.<.>.$.#.#._ p > > , , , , , , , , , , , , , , , , ",
"8 i n B B A A M f a % % h Y Q Q ~ ~ T z + + 5 i m M S m 8 i G / Q } <.<.#.#.*.&.#./ T ~ T p , , , , , , , , , , , , , , , , , , ",
"$ ; 7 8 r p p 8 5 ; X + f S F S B F F f - X @ 3 7 r r 7 4 a G _ ~ T } <.2...~ / / ~ F A A t , > , , , , , , , , , , , , , , , , ",
"; < 5 5 < 5 4 4 ; ; @ 5 n G F F S F F B 5 @ # 4 5 5 < $ # 4 n ~ / ~ ~ #.*._ F ~ ] ..Q m m e , > , , , , , , , , , , , , , , , , ",
"< 5 r d a a a 8 4 < ; 5 f B B B B B B f 7 3 ; 4 i d f a 4 @ $ n ~ ' ~ G F G ~ | >.2.' m p 0 , , , , , , , , , , , , , , , , , , ",
"6 a C G G S G S d 6 5 4 5 i d f f f p 7 5 < 6 r M F T U g 3 O $ n ~ / p 3 S #.>.2.3.] f 2 , , , , , , , , , , , , , , , , , , , ",
"a n F F F F G T A a 5 4 4 7 8 i i r 8 5 < 5 y M F F U T A 8 @ . $ n S w % T 2.<.<.<.( 9 > > , , , , , , , , , , , , , , , , , , ",
"i d n f i i f n d 6 ; 4 4 5 5 5 4 5 5 4 ; < 6 a n n M B x r < o . < 8 4 7 ' 7.<.<.<.R = & , , , , , , , , , , , , , , , , , , , ",
"4 5 4 5 7 5 8 6 4 ; # $ ; ; ; ; < < ; < < < < 4 6 a p p a y d d a i a y m O.7.<.>.<.T = = , , , , , , , , , , , , , , , , , , , ",
"$ $ < a A E W E G D A a 4 $ # # $ 3 a C D D C C n n f 5 < b o.=...[ / W T $.9.9.2.<.R > = , , , , , , , , , , , , , , , , , , , ",
"6 y C ~ @.&.&.%.@.%.} G a 4 ; * ; a G [ @.@. .) ~ G C y < G 9.t.7.2.5.*.#.$.3.9.9.3.R > = , , , , , , , , , , , , , , , , , , , ",
"g G ^ [ ' _ R F S S K B m a 8 8 f M B F I F B N M S T F a E 6.r.<.*.<.2.<.*.<.6.0.7.R = = , , , , , , , , , , , , , , , , , , , ",
"g A T G F B m f f f p f f i 8 r n n n i f f l f n M F n 8 L 6.r.>.*.2.9.0.6.2.9.7.2.R > = , , , , , , , , , , , , , , , , , , , ",
"r y s s f m M M B m f 8 7 4 ; 4 8 i i 8 s m M M B m i 7 < D 6.y.q.8.0.e.w.1.2.9.7.2.Y = > , , , , , , , , , , , , , , , , , , , ",
"1 < < 3 5 i s f l m i 7 ; # # $ $ ; 3 3 4 r s x f s r 4 : d | 6.8.6.=.+.+.*.<.9.0.2.Y = = , , , , , , , , , , , , , , , 0 , , , ",
"< < < 4 8 7 4 4 5 r y 6 1 < 3 $ 3 3 < 4 5 6 y y 8 8 5 < * < r T ../ g 2 h O.9.0.3.*.Y = , , , , , , , , , , , , , , , , , , , , ",
"A S T [  ./ g $ * < 6 y n S F A F G [ | } / G d 6 < ; $ : 2 9 z ~ W 6   0 ] 7.7.<.#.V > , , , , , , , , , , , , , , , , , , , , ",
"G T ~ | +. .Q f 6 < 8 g G Q Q T T ~ ' o. .` W M y 1 $ 4 a l l h A C r * h O.7.7.,.#.V > > , , , , , , , , , , , , , , , , , , , ",
"M M M m g B Q Q g 4 6 f M A M M M M m m m M M S M 8 5 a M S M t 1 1 < : N $.0.7.3.$.V > > , , , , , , , , , , , , , , , , , , , ",
"i m n f f m S A i ; # 6 f M m m m m f f f n m B m 8 5 i M B B k q % @ 2 K -.9.9.6.$.V > > , , , , , , , , , , , , , , , , , , , ",
"i i s f f a i 5 3 # # ; 8 i s f m n f f f i f i 7 ; ; 4 7 8 8 a i ; X : L ;.9.9.7.$.N > > , , , , , , , , , , , , , , , , , , , ",
"3 3 4 5 7 4 < < 4 ; ; * ; ; 3 5 8 8 5 6 7 7 5 < ; # @ @ @ @ ; 4 7 3 % 9 Y -.7.9.7.$.z > > , , , , , , , , , , , , , , , , , , , ",
"i 8 5 < ; 4 6 6 6 6 d M n i 8 r 8 7 4 < 1 5 < 6 a d f d a i i i r 5 5 t Y #.2.9.9.#.z & > , , , , , , , , , , , , , , , , , , , ",
"~ U M a 5 5 6 1 < a ! @.&. .Q T U B a 5 1 1 6 g W } +.@. .~ W T S a 6 t N ..6.0.9.O.z = > , , , , , , , , , , , , , , , , , , , ",
"G U S n r 4 < < 6 n E ) _ / T I U F x 8 5 7 d A U ~ ) ) ~ T I I S M t q l ] 7.0.3.O.N > > , , , , , , , , , , , , , , , , , , , ",
"M B M n i ; @ ; p B A m m f s a s n g r 4 7 f l f i p f l m M x M x t 9 f ..7.7.<...z > > , , , , , , , , , , , , , , , , , , , ",
"m m s i 5 ; $ 4 r f m M M n i i 8 i 8 7 3 3 7 i i r i f M M f f s r 9 : h ] 3.7.<.O.N > > , , , , , , , , , , , , , , , , , , , ",
"i i 8 < $ $ < 5 < < 7 r i i 8 8 8 7 3 $ # # ; 3 5 7 i f m s d x n M g d A | 2.8.5.O.z = > , , , , , , , , , , , , , , , , , , , ",
"5 3 ; # @ # < < < < ; < 3 4 4 5 3 3 # @ @ @ @ # ; ; ; 5 w 6 C o.%.X.} [ [ #.2.9.8.+.N = > , , , , , , , , , , , , , , , , , , , ",
"$ ; 8 a a d C D ! D a 4 ; ; < 5 i f a n C C A S A C a 5 < 1 ! 9.q.3.<.>.*.-.2.9.9.#.z = > , , , , , , , , , , , , , , , , , , , ",
"$ 6 M U Q ~ [ &.=. .D r < 1 6 d G W ~ _ @.%.*.%.%.} T n r 1 ! 9.e.7.6.8.6.5.2.7.9.#.z = > , , , , , , , , , , , , , , , , , , , ",
"7 i B S A S F U U T B s 7 5 i M K S S S G G G U I F B B h q E 6.e.e.w.w.8.6.2.7.7.#.z & > , , , , , , , , , , , , , , , , , , , ",
"7 i f m M m l f m M N f 7 3 r f M m m m g f f l m f f i s q d ) *.2.&.| { %.6.0.9.O.z > > , , , , , , , , , , , , , , , , , , , ",
"3 4 i f f m f f f f s i 3 ; 3 8 f f f f M M M M f i 8 7 6 9 2 u T } G y s ` 6.0.7...j > > , , , , 2 , , , , , , , , , , , , , , ",
"@ # ; 5 7 8 8 8 8 7 3 $ @ @ @ # 3 5 7 i f m l i 8 5 3 $ * < : : s M f * e ) 1.8.2.] l > > , , , , , , , , , , , , , , , , , , , ",
"$ $ $ ; $ < ; $ ; ; 4 4 4 ; $ $ $ ; 5 6 6 6 4 ; ; ; ; 4 6 6 6 < 4 7 ; % l #.0.3.,.] z > > , , , , , , , , , , , , , , , , , , , ",
"U F A M a $ # @ @ 4 f M A G ! G S B n g 6 < $ o $ g )  .[ W S A A B 7 - m $.q.9.,.` j > > , , , , , , , , , , , , , , , , , , , ",
"Q G G G A a 4 # $ 8 n A F T ~ ~ U F S m a 5 5 6 f W  .@.} Q G F U U p 9 h O.0.3.,.] z > , , , , , , , , , , , , , , , , , 2 , , ",
"f i i f g n i 4 7 f f f a a a a i i i i 8 6 5 a A S M g m m n f f s i e h ` 3.9.3.] l > > , , , , , , , , , , , , , , , , , , , ",
"8 8 w 7 8 w 6 5 r i p p i i w w 8 w r r 5 ; ; 7 g f s i i s i p i 8 7 w p R ,.0.3.O.l > > , , , , , , , , , , , , , , , , , , , ",
"5 5 5 5 5 4 4 ; 3 5 r i i r i 8 7 7 5 3 ; # $ : 6 i i r i i i r 7 3 3 5 p R ,.8.3.] h > > , , , , , , , , , , , , , , , , , , , ",
"3 3 3 3 3 5 4 : ; 4 w r r r 7 5 : : ; ; ; ; 1 5 7 7 7 9 5 7 w q 5 5 9 9 l ` 3.8.,.` h > > , , , , , , , , , , , , , , , , , , , ",
"5 5 5 5 7 w w q r t t r q r 9 5 5 3 3 5 5 t u t p t r t r t t t t t t q l O.9.0.3.` h , > , , , , , , , , , , , , , , , , , , , ",
"q q r q q t u s u s r t r r q 9 9 q r t t h h s h h h h k k j k h h h t j O.9.9.<.` l > > , , , , , , , , , , , , , , , , , , , ",
"p t t u u h h s h t u t t t t q q q t u t u h h h k k k j c c j j j u u z | 7.7.,._ j > > , , , , , , , , , , , , , , , , , , , ",
"j h k k z j j k h s s h j h h d u d h u j k x k c k b b b c d u s h t 9 l } 6.7.,.` h > > , , , , , , , , , , , , , , , , , , , ",
"c c c c b H b c k k h k j v c c c c b c j b c c b b b H b k b D L L b d C ] 2.7.<.` j > > , , , , , , , , , , , , , , , , , , , ",
"c c b Z Z H Z b c k d d k c b b b c b b b b b b b b H J b h Z %.*.#.} _ _ X.2.0.3.] z > > , , , , , , , , , , , , , , , , , , , ",
"J H H J H H J J H c j f x Z H H H H b b b H H H H H H P b u E 6.9.<.*.*.$.*.<.9.9.O.z > > , , , , , , , , 0 , , , , , , , , , , ",
"H J J J P P P P P J H Z Z H J J H J H J H H J H J J J P H u U 7.9.3.<.3.3.2.2.7.7.+.z > > , , , , , , , , , , , , , , , , , , , ",
"H H J J P H J P P P P P P J J H H L J H H H H J H J P P H u E 7.w.6.6.9.9.6.6.7.3.O.z > > , , , , , , , , , , , , , , , , , , , "
};
