/* XPM */
static char *result[] = {
/* columns rows colors chars-per-pixel */
"50 50 75 1 ",
"  c #272E3D",
". c #282F3E",
"X c #2A303F",
"o c #2C3341",
"O c #303745",
"+ c #323847",
"@ c #343B4A",
"# c #383E4E",
"$ c #363F52",
"% c #374053",
"& c #3A4254",
"* c #3B4559",
"= c #3F4A5E",
"- c #3F4B60",
"; c #414857",
": c #424B5C",
"> c #484E5F",
", c #434F65",
"< c #445066",
"1 c #4D5464",
"2 c #46536A",
"3 c #4A566D",
"4 c #4B586F",
"5 c #4A5770",
"6 c #4E5A73",
"7 c #515D76",
"8 c #515F79",
"9 c #556076",
"0 c #596377",
"q c #54627C",
"w c #59657C",
"e c #5E697F",
"r c #576580",
"t c #596784",
"y c #5C6984",
"u c #5C6B89",
"i c #626E85",
"p c #616F8A",
"a c #657087",
"s c #6A7285",
"d c #64728C",
"f c #69758D",
"g c #6D788E",
"h c #657492",
"j c #687793",
"k c #6B7994",
"l c #6E7E9E",
"z c #717D94",
"x c #717F9A",
"c c #768196",
"v c #7B8395",
"b c #74819C",
"n c #79869E",
"m c #7483A2",
"M c #7986A2",
"N c #7B89A5",
"B c #7E8CA8",
"V c #818DA5",
"C c #818EA9",
"Z c #8590A6",
"A c #8C95A7",
"S c #8593AD",
"D c #8895AF",
"F c #8D98AD",
"G c #919BAE",
"H c #8A97B1",
"J c #8E9AB3",
"K c #939FB6",
"L c #95A0B6",
"P c #95A2B9",
"I c #9AA6BC",
"U c #9DA8BE",
"Y c #9FAAC0",
"T c #A2ACC1",
"R c #A6B0C4",
/* pixels */
"X   XoooXOXXXXXXXXXXXXXXXOXOXX+XXXXoooooooooOXooXo",
"X   XooXXXXOXOXXXXXXXXXXXXOXX+@XX XooXooooooooooo.",
"X XXoooXXXXXOXXXXXX+OOXOOXXXXXXX. .XX..XXooooXoooo",
"  oooXXXXXXXXXOXXXXXXOXXXOOXXX+Xo..X. .ooooooooooo",
"..OOOOoXXX.X oooXXXX+XXXXXXXXXXXX...X   oooooooooo",
":::::::;&&@@#;11>+XXXXXX#>;;;@X;X%XXo   .%o%%ooooo",
"gggggzvAGKLUTTRRG1@X@#X;GRRRTUILIKBmhr552wchctOooO",
"PIUYYTYTTTTTRRTTRGve0gARRRRRRRRRRRRRYBmmbmmbbbhoOX",
"PUUUYYYYYYYYYUUYULcw2iVUTTUUUUUUYYYRYHmmmmmmmbm%XX",
"PPKKKPJKJJPJKKKKLDcw2inKLGKKKKKKPPYYYHmmlhmhbbm6OX",
"KKKJJJJJJHHHHHHHHCk92ibJGFJDHHHHHJYYPHmmmhmmhmmr%%",
"HJHDHDDDHHHHHHHHDCg02exSAADDHSHHHJPYYHBmmmmhmmmq*-",
"SSSSSSDDHHHSHSHSDCk02ecHHSHHSHSHHJPYPHmmmmlmmhhr*&",
"BBCBBBSDHSSHHHSHDCg92ecHHHSSHDHSHJYYYSmmhmllmmu8<-",
"mMMMBBBDSHSHSHSSDVj92yxCSHSHHSDDHHYYPHmmmllmmhu6<,",
"mmmmMBBDSHHSHSHHDBk92ixHHSHHSHSHHJPYYHmlllllmmu8,<",
"bmmmMBCZSSSSSHSHDVk9<ycDDDDDDDDDDJIRIFmmmlllbhu6<,",
"lmNMBBNmnNBSSSBSSBkw6pbHDDDDDDDDHJPUUHmmlmmlmmu8-,",
"klbbllkgdgzblmbbbxdyqgnDDHDDDDHSDJIUUHNmllllmhu6<<",
"qqwqq98766678688qq966dcDDDDDDDDHHJIUUHNblmllmbp8-<",
"2<<<,<<<,,**,,<<<<<<2wkNVNNVNNVNNZFKJBmjhhjjlht62-",
"<<=*=,,,<,**,<<<,=-<29ygsaaadaaffgcccfpyuuuttt86,<",
"=,******=,:------*=<<<464223323699q0996658686656<<",
"$%%%$$$$$$$$$$$$**==*%$$**=::::<24444332-5-5-5---<",
"22323422-552523332<<<3337eaidaiiyadffytqqqq8rq632<",
"yytuttyytuuttttt85-5qtttdcNNNNNbmMZAZnjphhhhhpr6<-",
"xlllllxllllllllhu6<9ulllMBDDDDDDDJPYIHNmmlmlmlu7<2",
"kklhlkkkhlhlllllp6<qubllmBDDDDDDDHYYIHNmlbllmjp7<-",
"uhhuhhuhhhhuhjllp6<9ulljxNDDDDDDHJYYYYmlllllllu7-<",
"uuuutuuuuutuuhhlu8<8hljhkMSDDDDDHJYYYBNmlmlmllu6<,",
"uututuututuuuhhht6<8tjhhkmDDDDDDHJYYYBmmllllllu8<<",
"uutuuuuutuuuuupht6<6rhhukNDDDDDDBHYYYBmlmlmlllu82-",
"uttttttttutuutttr---rutuhlJHDDDDDJITUHllllllllhr<<",
"rrrrrrrrrrrtrr8rr-,rrrrrulDHDDDDDJKTUHClllllllur<-",
"5---r5r5--5-2<,<--***-r<ulDDDDDDDJITUHClllllllu8,<",
"***-----*********$$$$%$*rhSDDDDDDJITUHClllllllp7,,",
"--**----**-*----%*-**---rkDDDDDDDJITUHllllllllu6,<",
"rrrrr-22rrrrr55rrrrrr5rrdxSDDDDDDJKTUHBlllllllu6,<",
"uuhur25rtuhhhhuhhhhuuhhhxBSDDSDDDJKTIHNllllllkp8,,",
"lllhr-5thllhlllllllllllllBCSCBnMMVSGAMkhhlhhhht5,<",
"hllhr25thllhhhhhhhhhhhhhlllNxkdaasgggitrttt8tw73,,",
"hhlhr55thllhuhhuuuuhhuuuhjllki77746775435533332<,<",
"ullur55thlhuuuuuuutuuuuutphlkp777777776555345332,,",
"uuhu825thhuuutuuutuuuutuuuhkkkhhfsgzzsuurttttr73,<",
"uuuu8258uuuuttuuutuututtuuuhlNNNNVZGSNlhkhkkjht6,,",
"uuut5225ttttttttrrtttttrttuhlSHDDKPTYHMllllllxu7<,",
"88855225588888r8rrrrrr8r8rrplSDDDJITYDBmllllllp7,,",
"55552,,25555555525-55255355tlBDDDKPTYHNlllllllu7<,",
",,,,,,,,,,,,,,,2,,,,,,,,,,2rhBDDDJITUHMllmllmlu8,<",
",,,,,2,,,,2,,,,,,,,,2,,,,,,rlBDDSKPTIHBllllllku8,,"
};
